<?xml version="1.0" standalone="no"?>
<!DOCTYPE svg PUBLIC "-//W3C//DTD SVG 1.1//EN" "http://www.w3.org/Graphics/SVG/1.1/DTD/svg11.dtd" >
<svg xmlns="http://www.w3.org/2000/svg" xmlns:xlink="http://www.w3.org/1999/xlink" version="1.1">
<metadata>
Created by FontForge 20170731 at Tue Oct 14 02:53:04 2014
 By Aleksey,,,
Copyright (c) 2014 Schick Toikka. All rights reserved. Spot Mono is a trademark of Schick Toikka. Unauthorised copying or modification of any of its data is illegal.
</metadata>
<defs>
<font id="SpotMono-Medium" horiz-adv-x="600" >
  <font-face 
    font-family="Spot Mono Medium"
    font-weight="500"
    font-stretch="normal"
    units-per-em="1000"
    panose-1="0 0 8 0 0 0 0 0 0 0"
    ascent="750"
    descent="-250"
    x-height="434"
    cap-height="579"
    bbox="-12 -325 701 955"
    underline-thickness="50"
    underline-position="-200"
    unicode-range="U+0020-FB02"
  />
<missing-glyph 
d="M91 590v-727h418v727h-418zM17 -148v748q0 28 15.5 43t39.5 15h456q24 0 39.5 -15t15.5 -43v-748q0 -27 -15.5 -42.5t-39.5 -15.5h-456q-24 0 -39.5 15.5t-15.5 42.5zM315 347q-48 0 -89 -29q-29 -18 -46 -18q-16 0 -26.5 10.5t-10.5 28.5t16 33q22 22 63 36.5t89 14.5
q66 0 103.5 -25t37.5 -72q0 -77 -118 -99l-3 -21q-5 -30 -34 -30q-30 0 -35 31q-5 32 -5 44q0 22 24 26q85 10 85 42q0 28 -51 28zM235 83q0 26 17 43t45 17q29 0 46.5 -16.5t17.5 -43.5q0 -26 -17.5 -42t-46.5 -16q-28 0 -45 16t-17 42z" />
    <glyph glyph-name=".notdef" 
d="M91 590v-727h418v727h-418zM17 -148v748q0 28 15.5 43t39.5 15h456q24 0 39.5 -15t15.5 -43v-748q0 -27 -15.5 -42.5t-39.5 -15.5h-456q-24 0 -39.5 15.5t-15.5 42.5zM315 347q-48 0 -89 -29q-29 -18 -46 -18q-16 0 -26.5 10.5t-10.5 28.5t16 33q22 22 63 36.5t89 14.5
q66 0 103.5 -25t37.5 -72q0 -77 -118 -99l-3 -21q-5 -30 -34 -30q-30 0 -35 31q-5 32 -5 44q0 22 24 26q85 10 85 42q0 28 -51 28zM235 83q0 26 17 43t45 17q29 0 46.5 -16.5t17.5 -43.5q0 -26 -17.5 -42t-46.5 -16q-28 0 -45 16t-17 42z" />
    <glyph glyph-name=".null" horiz-adv-x="0" 
 />
    <glyph glyph-name="nonmarkingreturn" 
 />
    <glyph glyph-name="space" unicode=" " 
 />
    <glyph glyph-name="exclam" unicode="!" 
d="M300 231q-37 0 -43 41l-27 194q-4 32 -4 49q0 78 74 78t74 -78q0 -12 -5 -49l-26 -194q-8 -41 -43 -41zM207 76q0 38 26 62.5t68 24.5q41 0 67 -24.5t26 -62.5t-26 -62.5t-67 -24.5q-42 0 -68 24.5t-26 62.5z" />
    <glyph glyph-name="quotedbl" unicode="&#x22;" 
d="M199 297q-37 0 -44 51l-22 138q-3 33 -3 37q0 31 18.5 50.5t50.5 19.5t50 -19.5t18 -50.5q0 -15 -2 -37l-21 -138q-5 -27 -15 -39t-30 -12zM399 297q-37 0 -44 51l-22 138q-3 33 -3 37q0 31 18.5 50.5t50.5 19.5t50 -19.5t18 -50.5q0 -15 -2 -37l-21 -138q-5 -27 -15 -39
t-30 -12z" />
    <glyph glyph-name="numbersign" unicode="#" 
d="M311 56l17 84h-104l-18 -97q-10 -54 -53 -54q-22 0 -34 13t-12 35q0 7 2 19l16 84h-38q-54 0 -54 47q0 46 54 46h54l23 118h-40q-55 0 -55 46q0 47 55 47h56l18 94q10 54 52 54q23 0 35 -13t12 -35q0 -12 -2 -20l-16 -80h104l17 94q10 54 54 54q22 0 34 -13t12 -35
q0 -4 -2 -20l-16 -80h38q55 0 55 -47q0 -46 -55 -46h-54l-23 -118h41q54 0 54 -46q0 -47 -54 -47h-57l-18 -97q-10 -54 -52 -54q-23 0 -35.5 13t-12.5 35q0 11 2 19zM262 351l-22 -118h104l22 118h-104z" />
    <glyph glyph-name="dollar" unicode="$" 
d="M246 -66v58q-68 7 -124 39q-55 30 -55 68q0 22 15 36.5t38 14.5q21 0 56 -24q57 -38 127 -38q51 0 81.5 17.5t30.5 48.5q0 30 -30 44.5t-100 27.5q-102 19 -157.5 56.5t-55.5 110.5q0 69 48.5 109.5t125.5 50.5v61q0 28 15 43.5t39 15.5q23 0 38.5 -15.5t15.5 -43.5v-62
q61 -9 105 -35q50 -27 50 -64q0 -21 -14 -35.5t-34 -14.5q-22 0 -51 18q-59 37 -121 37q-45 0 -72 -16t-27 -44q0 -29 30 -42.5t92 -25.5q52 -10 88 -21t68.5 -29.5t48.5 -47.5t16 -69q0 -72 -50 -116t-129 -55v-58q0 -28 -15.5 -43.5t-38.5 -15.5q-24 0 -39 15.5t-15 43.5z
" />
    <glyph glyph-name="percent" unicode="%" 
d="M182 282q-65 0 -100 43.5t-35 109.5t35 109t100 43t100 -43t35 -109q0 -67 -35 -110t-100 -43zM182 353q28 0 41 24t13 58t-13 57.5t-41 23.5t-41 -23.5t-13 -57.5t13 -58t41 -24zM436 -5q-65 0 -100 43t-35 109t35 109t100 43t100 -43t35 -109t-35 -109t-100 -43z
M436 62q30 0 43 25t13 60t-13 59.5t-43 24.5t-43 -24.5t-13 -59.5t13 -60t43 -25zM372 440l76 123q17 28 45 28q16 0 29 -12t13 -30q0 -19 -18 -46l-76 -123q-17 -28 -45 -28q-17 0 -29.5 12t-12.5 31q0 20 18 45zM94 77l77 124q17 27 45 27q17 0 29.5 -11.5t12.5 -30.5
q0 -18 -18 -45l-76 -124q-16 -27 -45 -27q-16 0 -29 12t-13 30q0 19 17 45z" />
    <glyph glyph-name="ampersand" unicode="&#x26;" 
d="M235 -14q-92 0 -141 43t-49 110q0 47 28 85.5t86 78.5q-37 40 -52.5 72t-15.5 69q0 66 46.5 107.5t121.5 41.5q74 0 118.5 -40t44.5 -101q0 -46 -27.5 -82.5t-83.5 -74.5l106 -103q19 31 33 85q12 53 51 53q21 0 33.5 -14t12.5 -37q0 -77 -60 -156l36 -34q30 -28 30 -56
q0 -20 -13 -33.5t-33 -13.5q-24 0 -51 25l-41 39q-84 -64 -180 -64zM156 149q0 -31 23.5 -51.5t63.5 -20.5q57 0 105 40l-126 122q-66 -46 -66 -90zM324 452q0 26 -18.5 42t-46.5 16q-27 0 -46.5 -17t-19.5 -45q0 -36 53 -90q41 27 59.5 48t18.5 46z" />
    <glyph glyph-name="quotesingle" unicode="'" 
d="M299 297q-37 0 -44 51l-22 138q-3 33 -3 37q0 31 18.5 50.5t50.5 19.5t50 -19.5t18 -50.5q0 -15 -2 -37l-21 -138q-5 -27 -15 -39t-30 -12z" />
    <glyph glyph-name="parenleft" unicode="(" 
d="M260 226q0 -133 49 -223.5t123 -128.5q37 -18 37 -47q0 -19 -12.5 -31.5t-32.5 -12.5q-16 0 -32 6q-40 15 -79.5 48t-76 85t-59 131.5t-22.5 172.5q0 92 21.5 170t57 129.5t74 85t78.5 49.5q21 8 38 8q20 0 32.5 -12.5t12.5 -30.5q0 -30 -37 -48q-74 -37 -123 -127.5
t-49 -223.5z" />
    <glyph glyph-name="parenright" unicode=")" 
d="M333 226q0 134 -49 224t-122 127q-37 18 -37 48q0 19 12.5 31t32.5 12q17 0 37 -8q40 -16 78.5 -49.5t74.5 -85t57.5 -129.5t21.5 -170q0 -93 -22.5 -172.5t-59 -131.5t-76 -85t-79.5 -48q-16 -6 -32 -6q-21 0 -33 12.5t-12 31.5q0 29 37 47q73 38 122 128t49 224z" />
    <glyph glyph-name="asterisk" unicode="*" 
d="M336 498q73 37 108 50q9 4 21 4q20 0 33.5 -16.5t13.5 -36.5q0 -36 -36 -45q-23 -9 -117 -24q76 -79 81 -86q13 -20 13 -34q0 -19 -17 -33.5t-37 -14.5q-23 0 -39 23q-16 20 -60 103q-56 -100 -59 -103q-17 -24 -40 -24q-19 0 -36 14.5t-17 33.5q0 16 13 34q16 23 80 87
q-107 20 -116 23q-37 11 -37 45q0 21 13.5 37t34.5 16q8 0 20 -3q60 -25 108 -49q-14 104 -14 117q-1 24 12.5 38t36.5 14q24 0 37.5 -14t12.5 -37q0 -23 -13 -119z" />
    <glyph glyph-name="plus" unicode="+" 
d="M250 96v109h-108q-25 0 -40.5 13t-15.5 36q0 24 15.5 37t40.5 13h108v109q0 25 13 40.5t37 15.5q23 0 36 -15.5t13 -40.5v-109h110q25 0 40 -13t15 -37q0 -23 -15 -36t-40 -13h-110v-109q0 -25 -13 -40.5t-36 -15.5q-24 0 -37 15.5t-13 40.5z" />
    <glyph glyph-name="comma" unicode="," 
d="M275 -196q-26 -19 -45 -19q-13 0 -22 8.5t-9 22.5q0 18 21 37q37 33 59 71t22 67q-41 -3 -68 20t-27 64q0 39 26.5 63.5t67.5 24.5q49 0 76 -31t27 -89q0 -69 -38 -135t-90 -104z" />
    <glyph glyph-name="hyphen" unicode="-" 
d="M402 236h-205q-25 0 -40 13t-15 36q0 24 15 37t40 13h205q25 0 40.5 -13t15.5 -36t-15.5 -36.5t-40.5 -13.5z" />
    <glyph glyph-name="period" unicode="." 
d="M207 76q0 38 26 62.5t68 24.5q41 0 67 -24.5t26 -62.5t-26 -62.5t-67 -24.5q-42 0 -68 24.5t-26 62.5z" />
    <glyph glyph-name="slash" unicode="/" 
d="M34 -126l456 766q16 28 46 28q20 0 33 -12t13 -33q0 -17 -17 -46l-456 -766q-16 -28 -46 -28q-20 0 -33 12.5t-13 33.5q0 18 17 45z" />
    <glyph glyph-name="zero" unicode="0" 
d="M299 -14q-118 0 -181.5 85.5t-63.5 217.5q0 133 63.5 218.5t181.5 85.5t182 -85.5t64 -218.5q0 -132 -64 -217.5t-182 -85.5zM299 86q67 0 100.5 58t33.5 145t-33.5 145t-100.5 58t-100.5 -58t-33.5 -145t33.5 -145t100.5 -58zM298 232q-26 0 -42.5 16t-16.5 41t16.5 41
t42.5 16t43 -16t17 -41t-17 -41t-43 -16z" />
    <glyph glyph-name="one" unicode="1" 
d="M475 0h-328q-30 0 -47 13.5t-17 38.5q0 24 16.5 38t47.5 14q15 0 131 -4v366l-85 -52q-34 -22 -59 -22q-22 0 -36.5 15t-14.5 36q0 34 40 55l146 74q42 21 67 21q51 0 51 -58v-435q44 4 91 4q30 0 45.5 -14t15.5 -38q0 -25 -17 -38.5t-47 -13.5z" />
    <glyph glyph-name="two" unicode="2" 
d="M108 508q31 36 85.5 60.5t119.5 24.5q99 0 154.5 -46t55.5 -127q0 -28 -7 -53.5t-26.5 -52t-33.5 -44t-48.5 -46.5t-51 -42t-59.5 -46l-47 -36q208 4 242 4q29 0 44.5 -14t15.5 -38q0 -52 -64 -52h-354q-28 0 -44 15.5t-16 40.5q0 33 48 68q11 8 143 110q76 60 109 98.5
t33 78.5q0 39 -26.5 61t-68.5 22q-64 0 -117 -53q-28 -25 -55 -25q-21 0 -35 13t-14 36q0 25 17 43z" />
    <glyph glyph-name="three" unicode="3" 
d="M138 419q-20 0 -35.5 13.5t-15.5 35.5q0 25 19 44q31 35 85.5 58t120.5 23q93 0 151 -46.5t58 -115.5q0 -47 -25.5 -82t-69.5 -48q51 -10 82.5 -48t31.5 -88q0 -79 -61.5 -129t-176.5 -50q-68 0 -125 22.5t-89 57.5q-20 23 -20 46q0 21 15 35t36 14q24 0 55 -26
q50 -50 134 -50q52 0 85.5 24t33.5 64q0 68 -113 74q-61 4 -61 50q0 43 56 49q97 12 97 75q0 34 -27.5 53.5t-68.5 19.5q-66 0 -119 -50q-28 -25 -53 -25z" />
    <glyph glyph-name="four" unicode="4" 
d="M463 528v-313h45q26 0 41.5 -13t15.5 -36t-15.5 -36.5t-41.5 -13.5h-45v-68q0 -28 -15.5 -44t-39.5 -16q-23 0 -38.5 16t-15.5 44v69h-270q-24 0 -40.5 14t-16.5 36q0 27 31 61l273 320q38 45 74 45q58 0 58 -65zM355 213v224l-192 -224h192z" />
    <glyph glyph-name="five" unicode="5" 
d="M464 475q-31 0 -235 4l-22 -131q64 33 131 33q86 0 148 -51.5t62 -140.5q0 -92 -64.5 -147.5t-175.5 -55.5q-69 0 -124 21t-88 50q-31 27 -31 54q0 22 14.5 36.5t36.5 14.5q27 0 54 -24q58 -53 140 -53q57 0 90.5 28t33.5 76q0 46 -33.5 73t-86.5 27q-56 0 -114 -27
q-34 -16 -57 -16t-37 13t-14 36q0 11 3 32l31 203q7 49 54 49h281q30 0 47 -13.5t17 -38.5q0 -52 -61 -52z" />
    <glyph glyph-name="six" unicode="6" 
d="M318 -14q-120 0 -186 86.5t-66 219.5q0 141 70 221t192 80q91 0 152 -46q45 -29 45 -62q0 -23 -14.5 -37t-36.5 -14q-20 0 -54 24q-47 35 -96 35q-63 0 -102.5 -46t-43.5 -130q69 58 165 58q84 0 140.5 -50t56.5 -132q0 -92 -61 -149.5t-161 -57.5zM319 288
q-74 0 -138 -56q11 -69 47.5 -108t91.5 -39q49 0 78.5 30t29.5 74q0 46 -31 72.5t-78 26.5z" />
    <glyph glyph-name="seven" unicode="7" 
d="M135 579h354q61 0 61 -50q0 -23 -23 -62l-245 -436q-25 -45 -62 -45q-23 0 -39 13.5t-16 34.5q0 25 19 58l230 387q-146 -4 -276 -4q-30 0 -47 13.5t-17 37.5q0 53 61 53z" />
    <glyph glyph-name="eight" unicode="8" 
d="M195 420q0 -37 28 -59.5t78 -22.5q51 0 79.5 22.5t28.5 59.5q0 38 -29.5 60t-76.5 22q-48 0 -78 -22t-30 -60zM176 166q0 -41 35 -65.5t90 -24.5q56 0 91.5 24.5t35.5 65.5t-34 65.5t-93 24.5q-57 0 -91 -24.5t-34 -65.5zM301 -14q-110 0 -174 50.5t-64 125.5
q0 50 30.5 87.5t79.5 50.5q-41 14 -66 48.5t-25 77.5q0 69 57.5 118t161.5 49q106 0 163.5 -48.5t57.5 -118.5q0 -43 -25 -77.5t-66 -48.5q49 -13 79.5 -50.5t30.5 -87.5q0 -75 -64 -125.5t-176 -50.5z" />
    <glyph glyph-name="nine" unicode="9" 
d="M275 593q120 0 186 -86.5t66 -219.5q0 -141 -70 -221t-193 -80q-86 0 -151 45q-45 32 -45 63q0 22 14 36.5t37 14.5q21 0 54 -24q47 -35 96 -35q63 0 102 45.5t44 129.5q-68 -57 -165 -57q-84 0 -140.5 49.5t-56.5 131.5q0 93 61.5 150.5t160.5 57.5zM273 290
q76 0 138 57q-11 68 -47 107.5t-91 39.5q-49 0 -78.5 -30t-29.5 -74q0 -46 31 -73t77 -27z" />
    <glyph glyph-name="colon" unicode=":" 
d="M207 73q0 37 26 60.5t68 23.5q41 0 67 -23.5t26 -60.5t-26 -60.5t-67 -23.5q-42 0 -68 23.5t-26 60.5zM207 361q0 37 26 60.5t68 23.5q41 0 67 -23.5t26 -60.5t-26 -60.5t-67 -23.5q-42 0 -68 23.5t-26 60.5z" />
    <glyph glyph-name="semicolon" unicode=";" 
d="M275 -196q-26 -19 -45 -19q-13 0 -22 8.5t-9 22.5q0 18 21 37q37 33 59 71t22 67q-41 -3 -67 19.5t-26 62.5q0 38 25.5 61.5t66.5 23.5q49 0 76 -29.5t27 -85.5q0 -69 -38 -135t-90 -104zM208 361q0 37 25.5 60.5t67.5 23.5q41 0 67 -23.5t26 -60.5t-26 -61t-67 -24
q-42 0 -67.5 23.5t-25.5 61.5z" />
    <glyph glyph-name="less" unicode="&#x3c;" 
d="M461 355l-223 -92l223 -93q40 -17 40 -48q0 -22 -14.5 -36t-33.5 -14q-11 0 -29 7l-302 136q-34 16 -34 48t34 47l302 137q15 6 29 6q19 0 33.5 -13.5t14.5 -35.5q0 -32 -40 -49z" />
    <glyph glyph-name="equal" unicode="=" 
d="M453 316h-305q-25 0 -40 13t-15 36q0 24 15 36.5t40 12.5h305q25 0 40 -12.5t15 -36.5q0 -23 -15 -36t-40 -13zM453 94h-305q-25 0 -40 13t-15 36q0 24 15 37t40 13h305q25 0 40 -13t15 -37q0 -23 -15 -36t-40 -13z" />
    <glyph glyph-name="greater" unicode="&#x3e;" 
d="M362 263l-223 92q-40 17 -40 49q0 22 14.5 35.5t34.5 13.5q13 0 28 -6l302 -137q34 -15 34 -47t-34 -48l-302 -136q-18 -7 -28 -7q-20 0 -34.5 14t-14.5 36q0 31 40 48z" />
    <glyph glyph-name="question" unicode="?" 
d="M327 494q-79 0 -142 -54q-30 -24 -53 -24t-37.5 13.5t-14.5 35.5q0 25 21 46q36 36 93.5 59t127.5 23q94 0 149 -38.5t55 -106.5q0 -60 -44.5 -95.5t-130.5 -54.5l-4 -32q-8 -42 -48 -42t-50 43q-6 25 -6 53q0 36 35 47q40 8 65.5 15.5t47 23t21.5 36.5q0 25 -23 38.5
t-62 13.5zM207 76q0 38 26 62.5t67 24.5q42 0 68 -24.5t26 -62.5t-26 -62.5t-68 -24.5q-41 0 -67 24.5t-26 62.5z" />
    <glyph glyph-name="at" unicode="@" 
d="M332 -216q-136 0 -211.5 109.5t-75.5 298.5q0 181 73 290.5t201 109.5q105 0 165 -65.5t60 -184.5v-300q0 -25 -13.5 -39t-33.5 -14q-17 0 -30 9t-16 24l-1 7q-31 -40 -83 -40q-63 0 -103.5 56t-40.5 148q0 93 40.5 148.5t103.5 55.5q51 0 81 -37q0 65 -35 103t-89 38
q-83 0 -133.5 -81.5t-50.5 -225.5q0 -149 51 -233.5t141 -84.5q53 0 98 30q28 19 51 19q18 0 30 -12.5t12 -31.5q0 -33 -43 -58q-66 -39 -148 -39zM385 310q-28 0 -45.5 -31t-17.5 -86t17.5 -86t45.5 -31q68 0 68 117t-68 117z" />
    <glyph glyph-name="A" unicode="A" 
d="M142 -14q-24 0 -40 16t-16 44v323q0 105 57 164.5t157 59.5q101 0 157.5 -59t56.5 -165v-323q0 -28 -15.5 -44t-39.5 -16t-40 16t-16 44v134h-206v-134q0 -28 -15.5 -44t-39.5 -16zM197 280h206v68q0 71 -23 107t-80 36q-56 0 -79.5 -36t-23.5 -107v-68z" />
    <glyph glyph-name="B" unicode="B" 
d="M305 0h-153q-24 0 -40 15.5t-16 43.5v461q0 28 16 43.5t40 15.5h144q102 0 164 -38.5t62 -121.5q0 -79 -68 -121q85 -40 85 -126q0 -89 -66.5 -130.5t-167.5 -41.5zM314 249h-107v-153h108q111 0 111 78q0 75 -112 75zM306 483h-99v-148h96q49 0 76.5 18.5t27.5 55.5
q0 74 -101 74z" />
    <glyph glyph-name="C" unicode="C" 
d="M174 290q0 -93 39 -147.5t105 -54.5q57 0 108 44q29 25 53 25q22 0 37 -15t15 -37q0 -23 -16 -40q-32 -37 -87 -58t-112 -21q-118 0 -187.5 83t-69.5 221t69.5 220.5t187.5 82.5q57 0 112 -21t87 -58q16 -17 16 -40q0 -22 -15 -37t-37 -15q-24 0 -53 25q-51 44 -108 44
q-66 0 -105 -54t-39 -147z" />
    <glyph glyph-name="D" unicode="D" 
d="M265 0h-119q-25 0 -40.5 15.5t-15.5 43.5v461q0 28 15.5 43.5t40.5 15.5h119q131 0 205 -81t74 -209t-74 -208.5t-205 -80.5zM268 479h-67v-379h67q81 0 121 53t40 136t-40 136.5t-121 53.5z" />
    <glyph glyph-name="E" unicode="E" 
d="M152 0q-25 0 -40.5 15.5t-15.5 43.5v461q0 28 15.5 43.5t40.5 15.5h306q64 0 64 -52t-64 -52q-7 0 -251 4v-137q174 3 177 3q63 0 63 -52q0 -51 -63 -51q-59 0 -177 2v-144q19 0 76 1.5t103.5 2t71.5 0.5q31 0 47.5 -14t16.5 -38q0 -52 -64 -52h-306z" />
    <glyph glyph-name="F" unicode="F" 
d="M152 579h317q30 0 47 -13.5t17 -38.5q0 -52 -64 -52q-25 0 -73.5 0.5t-108.5 2t-80 1.5v-168q23 0 65.5 1t74 1.5t48.5 0.5q31 0 47 -14t16 -38q0 -52 -63 -52q-58 0 -188 2v-166q0 -28 -15.5 -44t-39.5 -16t-40 16t-16 44v474q0 28 16 43.5t40 15.5z" />
    <glyph glyph-name="G" unicode="G" 
d="M312 -12q-120 0 -190 84t-70 218q0 138 69 220.5t189 82.5q56 0 110.5 -20t81.5 -50q20 -21 20 -43t-15 -37.5t-37 -15.5q-21 0 -52 23q-49 41 -106 41q-69 0 -107 -55t-38 -146q0 -93 39.5 -147t111.5 -54q61 0 99 26v105q-40 -2 -59 -2q-64 0 -64 52t61 52h116
q24 0 40 -16t16 -44v-169q0 -36 -29 -55q-78 -50 -186 -50z" />
    <glyph glyph-name="H" unicode="H" 
d="M143 -14q-24 0 -39.5 16t-15.5 44v487q0 28 15.5 44t39.5 16t40 -16t16 -44v-187h202v187q0 28 15.5 44t39.5 16t40 -16t16 -44v-487q0 -28 -16 -44t-40 -16t-39.5 16t-15.5 44v199h-202v-199q0 -28 -16 -44t-40 -16z" />
    <glyph glyph-name="I" unicode="I" 
d="M244 100v379q-4 0 -43 -2t-54 -2q-64 0 -64 52t64 52h305q64 0 64 -52t-64 -52q-15 0 -54 2t-43 2v-379q4 0 43 2t54 2q31 0 47.5 -14t16.5 -38q0 -52 -64 -52h-305q-64 0 -64 52q0 24 16.5 38t47.5 14q15 0 54 -2t43 -2z" />
    <glyph glyph-name="J" unicode="J" 
d="M284 -14q-107 0 -163.5 64t-56.5 175q0 35 15.5 52.5t40.5 17.5q55 0 55 -67q0 -139 109 -139q110 0 110 144v300q0 28 15.5 44t39.5 16t40 -16t16 -44v-320q0 -107 -59.5 -167t-161.5 -60z" />
    <glyph glyph-name="K" unicode="K" 
d="M500 -14q-30 0 -56 34l-171 230l-65 -67v-137q0 -28 -16 -44t-40 -16t-39.5 16t-15.5 44v487q0 28 15.5 44t39.5 16t40 -16t16 -44v-200l218 234q23 26 51 26q23 0 38 -14.5t15 -36.5q0 -28 -27 -55l-150 -154l179 -239q22 -31 22 -55q0 -22 -14.5 -37.5t-39.5 -15.5z
" />
    <glyph glyph-name="L" unicode="L" 
d="M98 59v474q0 28 16 44t40 16t39.5 -16t15.5 -44v-433q248 4 256 4q31 0 47.5 -14t16.5 -38q0 -25 -17 -38.5t-47 -13.5h-311q-24 0 -40 15.5t-16 43.5z" />
    <glyph glyph-name="M" unicode="M" 
d="M61 46v486q0 29 14.5 45t40.5 16q40 0 64 -52l120 -247l121 247q25 52 63 52q26 0 40.5 -16t14.5 -45v-486q0 -28 -15 -44t-39 -16t-39.5 16t-15.5 44v314l-77 -161q-19 -40 -53 -40t-53 40l-77 161v-314q0 -28 -15 -44t-39 -16t-39.5 16t-15.5 44z" />
    <glyph glyph-name="N" unicode="N" 
d="M515 533v-487q0 -29 -14.5 -44.5t-38.5 -15.5q-22 0 -35 11.5t-28 36.5l-203 333v-321q0 -28 -15.5 -44t-39.5 -16t-40 16t-16 44v486q0 29 14.5 45t38.5 16q22 0 35 -11.5t28 -36.5l203 -338v326q0 28 15.5 44t39.5 16t40 -16t16 -44z" />
    <glyph glyph-name="O" unicode="O" 
d="M299 88q65 0 98 58t33 144t-33 143.5t-98 57.5t-97.5 -57t-32.5 -144t32.5 -144.5t97.5 -57.5zM299 -14q-118 0 -181.5 86t-63.5 218t63.5 217.5t181.5 85.5q119 0 182.5 -85.5t63.5 -217.5t-63.5 -218t-182.5 -86z" />
    <glyph glyph-name="P" unicode="P" 
d="M98 46v474q0 28 16 43.5t40 15.5h152q107 0 170 -49t63 -146t-63 -146.5t-170 -49.5h-97v-142q0 -28 -15.5 -44t-39.5 -16t-40 16t-16 44zM301 479h-92v-190h92q56 0 89.5 23.5t33.5 71.5t-33.5 71.5t-89.5 23.5z" />
    <glyph glyph-name="Q" unicode="Q" 
d="M428 -42l-33 48q-47 -20 -96 -20q-118 0 -181.5 86t-63.5 218t63.5 217.5t181.5 85.5q119 0 182.5 -85.5t63.5 -217.5q0 -146 -73 -229l35 -41q17 -21 17 -40q0 -21 -15 -35t-36 -14q-27 0 -45 27zM299 84q22 0 32 7l-46 56q-16 20 -16 40q0 21 14.5 35t36.5 14
q25 0 44 -28l40 -58q29 51 29 140q0 86 -34 144t-100 58t-99.5 -57.5t-33.5 -144.5q0 -88 33.5 -147t99.5 -59z" />
    <glyph glyph-name="R" unicode="R" 
d="M96 46v474q0 28 15.5 43.5t40.5 15.5h138q111 0 172 -47t61 -133q0 -125 -124 -167l103 -141q21 -29 21 -53q0 -23 -15.5 -37.5t-39.5 -14.5q-31 0 -59 40l-132 189h-70v-169q0 -28 -16 -44t-40 -16t-39.5 16t-15.5 44zM408 394q0 42 -29 63.5t-80 21.5h-92v-169h88
q52 0 82.5 21.5t30.5 62.5z" />
    <glyph glyph-name="S" unicode="S" 
d="M295 -14q-97 0 -173 44q-55 32 -55 71q0 22 15.5 37t37.5 15t56 -25q56 -38 125 -38q50 0 82 19t32 53q0 32 -31.5 48.5t-99.5 31.5q-100 21 -155.5 61.5t-55.5 117.5q0 82 65 127t159 45t160 -42q52 -29 52 -66q0 -23 -14 -37t-35 -14q-22 0 -50 19q-59 37 -119 37
q-46 0 -72.5 -17.5t-26.5 -46.5q0 -23 18.5 -38.5t40 -22.5t60.5 -16q54 -12 89 -24t68.5 -32t49 -50t15.5 -71q0 -91 -68.5 -138.5t-169.5 -47.5z" />
    <glyph glyph-name="T" unicode="T" 
d="M245 46v433q-5 0 -61.5 -2t-79.5 -2q-63 0 -63 52t63 52h392q30 0 47 -13.5t17 -38.5q0 -52 -64 -52q-22 0 -78 2t-62 2v-433q0 -28 -16 -44t-40 -16t-39.5 16t-15.5 44z" />
    <glyph glyph-name="U" unicode="U" 
d="M299 -14q-100 0 -156.5 59t-56.5 165v323q0 28 15.5 44t39.5 16t40 -16t16 -44v-304q0 -70 24 -105.5t78 -35.5q56 0 80 35t24 106v304q0 28 15.5 44t39.5 16t40 -16t16 -44v-323q0 -107 -57 -165.5t-158 -58.5z" />
    <glyph glyph-name="V" unicode="V" 
d="M300 167l144 375q20 51 60 51q25 0 39.5 -16t14.5 -39q0 -21 -11 -46l-190 -460q-19 -46 -57 -46t-57 46l-190 460q-11 25 -11 46q0 23 14.5 39t39.5 16q40 0 60 -51z" />
    <glyph glyph-name="W" unicode="W" 
d="M300 424q33 0 46 -38l63 -196l51 345q8 58 55 58q25 0 40 -16t15 -38q0 -10 -4 -38l-83 -462q-9 -53 -53 -53q-40 0 -56 45l-74 226l-74 -226q-16 -45 -56 -45q-20 0 -34.5 13.5t-18.5 39.5l-83 462q-4 28 -4 38q0 22 15 38t40 16q47 0 55 -58l51 -345l63 196
q11 38 46 38z" />
    <glyph glyph-name="X" unicode="X" 
d="M113 -14q-24 0 -40 15.5t-16 40.5q0 21 22 49l156 197l-156 200q-22 28 -22 49q0 25 16 40.5t40 15.5q31 0 52 -30l136 -189l136 189q21 30 52 30q24 0 40 -15.5t16 -40.5q0 -21 -22 -49l-156 -200l156 -197q22 -28 22 -49q0 -25 -16 -40.5t-40 -15.5q-31 0 -52 29
l-136 187l-136 -187q-21 -29 -52 -29z" />
    <glyph glyph-name="Y" unicode="Y" 
d="M300 -14q-24 0 -39.5 16t-15.5 44v160l-193 285q-17 24 -17 48q0 23 15.5 38.5t40.5 15.5q32 0 58 -43l151 -241l151 241q28 43 58 43q26 0 41.5 -15.5t15.5 -38.5t-18 -48l-192 -285v-160q0 -28 -16 -44t-40 -16z" />
    <glyph glyph-name="Z" unicode="Z" 
d="M130 0q-26 0 -42.5 14t-16.5 38t24 57l280 370q-208 -4 -236 -4q-63 0 -63 52t63 52h331q26 0 42 -13.5t16 -38.5t-23 -57l-280 -370q180 4 244 4q31 0 47.5 -14t16.5 -38q0 -25 -17 -38.5t-47 -13.5h-339z" />
    <glyph glyph-name="bracketleft" unicode="[" 
d="M188 -148v748q0 27 15.5 42.5t39.5 15.5h178q62 0 62 -48q0 -49 -63 -49q-4 0 -132 4v-678q128 4 132 4q63 0 63 -49q0 -48 -62 -48h-178q-24 0 -39.5 15.5t-15.5 42.5z" />
    <glyph glyph-name="backslash" unicode="\" 
d="M110 640l456 -766q17 -27 17 -45q0 -21 -13 -33.5t-33 -12.5q-30 0 -46 28l-456 766q-17 29 -17 46q0 21 13 33t33 12q30 0 46 -28z" />
    <glyph glyph-name="bracketright" unicode="]" 
d="M412 600v-748q0 -27 -15.5 -42.5t-39.5 -15.5h-178q-62 0 -62 48q0 49 63 49q4 0 132 -4v678q-128 -4 -132 -4q-63 0 -63 49q0 48 62 48h178q24 0 39.5 -15.5t15.5 -42.5z" />
    <glyph glyph-name="asciicircum" unicode="^" 
d="M392 220l-92 223l-93 -223q-16 -38 -46 -38q-21 0 -36 14.5t-15 34.5q0 11 6 26l136 302q16 34 48 34t47 -34l137 -302q6 -20 6 -26q0 -19 -15.5 -34t-35.5 -15q-31 0 -47 38z" />
    <glyph glyph-name="underscore" unicode="_" 
d="M504 -186h-409q-25 0 -40.5 13t-15.5 36t15.5 36.5t40.5 13.5h409q25 0 40 -13.5t15 -36.5q0 -22 -15 -35.5t-40 -13.5z" />
    <glyph glyph-name="grave" unicode="`" 
d="M312 509l-115 86q-25 18 -25 49q0 21 16.5 36t35.5 15q29 0 49 -23l96 -110q18 -21 18 -38q0 -15 -10.5 -25t-24.5 -10t-40 20z" />
    <glyph glyph-name="a" unicode="a" 
d="M260 -11q-82 0 -136 38t-54 103t54 103t136 38q85 0 141 -36v29q0 43 -29 65t-81 22q-50 0 -94 -20q-2 -1 -14 -6.5t-20.5 -8t-17.5 -2.5q-20 0 -33.5 13.5t-13.5 33.5q0 37 53 58q63 26 145 26q212 0 212 -183v-215q0 -28 -15 -43t-38 -15q-39 0 -50 38
q-53 -38 -145 -38zM291 67q51 0 83.5 17.5t32.5 46.5t-32.5 46t-83.5 17q-49 0 -80.5 -17t-31.5 -46t31.5 -46.5t80.5 -17.5z" />
    <glyph glyph-name="b" unicode="b" 
d="M331 -11q-86 0 -131 51q-1 -25 -16 -38t-35 -13q-23 0 -38.5 15.5t-15.5 42.5v563q0 28 15.5 43t38.5 15t38.5 -15t15.5 -43v-214q46 49 128 49q91 0 151 -63t60 -165q0 -103 -60 -165.5t-151 -62.5zM314 84q53 0 85 36.5t32 96.5q0 59 -32.5 96t-84.5 37t-84 -37
t-32 -96q0 -60 32 -96.5t84 -36.5z" />
    <glyph glyph-name="c" unicode="c" 
d="M179 217q0 -59 36.5 -95.5t90.5 -36.5q55 0 108 44q27 21 51 21q21 0 35 -14t14 -35q0 -38 -51 -67q-75 -45 -158 -45q-103 0 -170 64t-67 164t67 164t170 64q83 0 158 -45q51 -29 51 -67q0 -21 -14 -35t-35 -14q-24 0 -51 21q-53 44 -108 44q-54 0 -90.5 -36.5
t-36.5 -95.5z" />
    <glyph glyph-name="d" unicode="d" 
d="M269 -11q-91 0 -151 62.5t-60 165.5q0 102 60 165t151 63q82 0 128 -49v214q0 28 15.5 43t38.5 15t38.5 -15t15.5 -43v-563q0 -27 -15.5 -42.5t-38.5 -15.5q-20 0 -35.5 13.5t-15.5 36.5v1q-45 -51 -131 -51zM286 84q52 0 84 36.5t32 96.5q0 59 -32 96t-84 37t-84.5 -37
t-32.5 -96q0 -60 32 -96.5t85 -36.5z" />
    <glyph glyph-name="e" unicode="e" 
d="M308 -11q-110 0 -177 62t-67 166q0 102 68 165t172 63q95 0 162 -58.5t67 -147.5q0 -23 -13.5 -36.5t-39.5 -13.5h-307q9 -49 46 -78t89 -29q59 0 118 38q28 16 47 16q21 0 34.5 -13t13.5 -33q0 -32 -39 -57q-72 -44 -174 -44zM304 358q-46 0 -81 -24.5t-47 -71.5h252
q-8 46 -42.5 71t-81.5 25z" />
    <glyph glyph-name="f" unicode="f" 
d="M460 337q-15 0 -66.5 2.5t-63.5 2.5v-250q17 0 67 2.5t63 2.5q29 0 44.5 -13t15.5 -35q0 -23 -15.5 -36t-42.5 -13h-327q-26 0 -41.5 13t-15.5 36q0 48 60 48q10 0 26 -0.5t34.5 -2t25.5 -1.5v248q-7 0 -25.5 -1.5t-34 -2t-26.5 -0.5q-60 0 -60 48q0 23 15.5 36t41.5 13
h89v39q0 195 172 195q57 0 98 -18q38 -17 38 -51q0 -20 -13 -33t-33 -13q-18 0 -33 6q-41 13 -54 13q-69 0 -69 -103v-35h132q27 0 42.5 -13t15.5 -36q0 -48 -60 -48z" />
    <glyph glyph-name="g" unicode="g" 
d="M188 101q0 -25 23 -37q42 6 72 6q111 0 173.5 -38.5t62.5 -105.5q0 -66 -62.5 -104.5t-173.5 -38.5t-174 38.5t-63 104.5q0 74 76 113q-30 25 -30 62q0 45 40 68q-67 45 -67 119q0 70 58.5 113.5t150.5 43.5q49 0 92 -16q112 8 152 8q57 0 57 -41t-55 -41q-6 0 -62 4
q22 -33 22 -71q0 -69 -59 -113t-148 -44q-28 0 -61 7q-24 -13 -24 -37zM283 -139q57 0 93 17.5t36 47.5t-36 47.5t-93 17.5t-93 -17.5t-36 -47.5t36 -47.5t93 -17.5zM272 209q47 0 77.5 21.5t30.5 57.5q0 35 -30 57t-78 22q-46 0 -76.5 -22t-30.5 -57t30.5 -57t76.5 -22z
" />
    <glyph glyph-name="h" unicode="h" 
d="M208 237v-190q0 -28 -15 -43t-39 -15t-39 15.5t-15 42.5v563q0 28 15 43t39 15t39 -15t15 -43v-211q44 46 122 46q82 0 129.5 -47t47.5 -130v-221q0 -28 -15.5 -43t-39.5 -15q-23 0 -38 15t-15 43v191q0 111 -94 111q-97 0 -97 -112z" />
    <glyph glyph-name="i" unicode="i" 
d="M318 510q-37 0 -60.5 20t-23.5 54t23.5 54t60.5 20q38 0 61.5 -20t23.5 -54t-23.5 -54t-61.5 -20zM470 97q29 0 44.5 -13t15.5 -35q0 -23 -15.5 -36t-42.5 -13h-337q-26 0 -41.5 13t-15.5 36q0 48 60 48q38 0 133 -5v250q-85 -5 -124 -5q-60 0 -60 48q0 23 15.5 36
t41.5 13h179q25 0 39.5 -14t14.5 -37v-291q53 5 93 5z" />
    <glyph glyph-name="j" unicode="j" 
d="M354 510q-37 0 -60.5 20t-23.5 54t23.5 54t60.5 20q39 0 62 -20t23 -54t-23 -54t-62 -20zM160 434h213q25 0 39.5 -14t14.5 -37v-383q0 -217 -209 -217q-46 0 -84 12q-53 14 -53 55q0 21 15 34.5t37 13.5q13 0 35 -6q36 -10 60 -10q91 0 91 119v340q-15 0 -77.5 -2
t-78.5 -2q-60 0 -60 48q0 23 15.5 36t41.5 13z" />
    <glyph glyph-name="k" unicode="k" 
d="M481 -11q-29 0 -51 27l-147 182l-75 -52v-99q0 -28 -15 -43t-39 -15t-39 15.5t-15 42.5v563q0 28 15.5 43t39.5 15q23 0 38 -15t15 -43v-344l211 156q33 23 57 23q23 0 37 -14.5t14 -37.5q0 -32 -35 -55l-120 -82l136 -163q25 -30 25 -53q0 -21 -14 -36t-38 -15z" />
    <glyph glyph-name="l" unicode="l" 
d="M254 92v473q-78 -5 -117 -5q-60 0 -60 48q0 23 15.5 36t41.5 13h174q25 0 39.5 -14t14.5 -37v-514q65 5 110 5q60 0 60 -48q0 -23 -15.5 -36t-41.5 -13h-345q-26 0 -41.5 13t-15.5 36q0 48 59 48q47 0 122 -5z" />
    <glyph glyph-name="m" unicode="m" 
d="M252 42v239q0 68 -54 68q-55 0 -55 -68v-239q0 -25 -13.5 -39t-35.5 -14q-21 0 -35 14t-14 39v350q0 25 13.5 39t35.5 14q20 0 33.5 -12.5t13.5 -30.5q37 43 94 43q66 0 94 -47q37 47 98 47q65 0 97 -42t32 -116v-245q0 -25 -13.5 -39t-35.5 -14t-35.5 14t-13.5 39v236
q0 71 -54 71q-55 0 -55 -68v-239q0 -25 -13.5 -39t-35.5 -14q-21 0 -34.5 14t-13.5 39z" />
    <glyph glyph-name="n" unicode="n" 
d="M454 -11q-24 0 -39 15.5t-15 42.5v191q0 111 -95 111q-97 0 -97 -112v-190q0 -28 -15 -43t-39 -15t-39 15.5t-15 42.5v340q0 27 15.5 42.5t38.5 15.5q21 0 36 -13t15 -35q43 48 125 48t130 -47t48 -130v-221q0 -28 -15 -43t-39 -15z" />
    <glyph glyph-name="o" unicode="o" 
d="M300 -11q-102 0 -171.5 63t-69.5 165t69.5 165t171.5 63t171.5 -63t69.5 -165t-69.5 -165t-171.5 -63zM300 85q56 0 93 37t37 95q0 57 -37 94.5t-93 37.5t-93 -37t-37 -95t36.5 -95t93.5 -37z" />
    <glyph glyph-name="p" unicode="p" 
d="M331 445q91 0 151 -63t60 -165q0 -103 -60 -165.5t-151 -62.5q-82 0 -128 49v-197q0 -27 -15.5 -42.5t-38.5 -15.5t-38.5 15.5t-15.5 42.5v546q0 27 15.5 42.5t38.5 15.5q21 0 36 -13t15 -38q46 51 131 51zM314 350q-52 0 -84 -37t-32 -96q0 -60 32 -96.5t84 -36.5
q53 0 85 36.5t32 96.5q0 59 -32.5 96t-84.5 37z" />
    <glyph glyph-name="q" unicode="q" 
d="M269 445q85 0 131 -51q0 23 15 37t36 14q23 0 38.5 -15.5t15.5 -42.5v-546q0 -27 -15.5 -42.5t-38.5 -15.5t-38.5 15.5t-15.5 42.5v197q-46 -49 -128 -49q-91 0 -151 62.5t-60 165.5q0 102 60 165t151 63zM286 350q-52 0 -84.5 -37t-32.5 -96q0 -60 32 -96.5t85 -36.5
q52 0 84 36.5t32 96.5q0 59 -32 96t-84 37z" />
    <glyph glyph-name="r" unicode="r" 
d="M459 97q59 0 59 -48q0 -23 -15.5 -36t-41.5 -13h-327q-26 0 -41.5 13t-15.5 36q0 22 14 35t39 13q24 0 79 -5v249q-76 -4 -77 -4q-25 0 -39 13t-14 35q0 23 15.5 36t41.5 13h126q38 0 45 -39l2 -18q18 32 53 50t76 18q51 0 82 -21q31 -18 31 -51q0 -25 -15.5 -40.5
t-37.5 -15.5q-19 0 -38 11q-30 15 -59 15q-40 0 -62 -29.5t-22 -81.5v-140q92 5 142 5z" />
    <glyph glyph-name="s" unicode="s" 
d="M308 -11q-111 0 -186 41q-39 21 -39 54q0 20 13.5 33.5t33.5 13.5q23 0 52 -18q59 -36 139 -36q99 0 99 47q0 21 -24 30t-101 19q-96 12 -147 41.5t-51 94.5q0 70 57 103t148 33q88 0 161 -33q39 -19 39 -52q0 -20 -14 -33.5t-33 -13.5q-21 0 -51 15q-63 28 -118 28
q-85 0 -85 -42q0 -20 27 -30t90 -17q107 -13 156.5 -41.5t49.5 -93.5q0 -71 -57.5 -107t-158.5 -36z" />
    <glyph glyph-name="t" unicode="t" 
d="M292 434h165q26 0 41.5 -13t15.5 -36q0 -48 -60 -48q-72 0 -162 5v-160q0 -98 77 -98q26 0 58 15q5 2 14.5 7t14.5 7t13 4t16 2q19 0 32 -12.5t13 -32.5q0 -32 -37 -55q-49 -30 -134 -30q-91 0 -133 46.5t-42 144.5v161q-7 0 -25 -1.5t-33.5 -2t-26.5 -0.5q-60 0 -60 48
q0 23 15.5 36t41.5 13h88v122q0 27 15.5 42.5t38.5 15.5t38.5 -15.5t15.5 -42.5v-122z" />
    <glyph glyph-name="u" unicode="u" 
d="M147 445q23 0 38.5 -15.5t15.5 -42.5v-190q0 -112 97 -112q43 0 68.5 27.5t25.5 84.5v190q0 27 15 42.5t39 15.5q23 0 38.5 -15.5t15.5 -42.5v-340q0 -27 -15 -42.5t-39 -15.5q-22 0 -36.5 13.5t-14.5 33.5v1q-45 -48 -125 -48q-82 0 -129.5 47t-47.5 130v221
q0 27 15 42.5t39 15.5z" />
    <glyph glyph-name="v" unicode="v" 
d="M300 139l120 261q21 45 57 45q23 0 38 -15t15 -34q0 -20 -12 -42l-158 -319q-23 -46 -60 -46t-60 46l-158 319q-12 22 -12 42q0 19 15 34t38 15q36 0 57 -45z" />
    <glyph glyph-name="w" unicode="w" 
d="M300 348q35 0 52 -42l58 -152l43 237q9 54 55 54q24 0 38 -15.5t14 -36.5q0 -16 -5 -34l-78 -323q-12 -47 -52 -47q-36 0 -54 46l-71 186l-71 -186q-18 -46 -54 -46q-40 0 -52 47l-78 323q-5 18 -5 34q0 21 14 36.5t38 15.5q46 0 55 -54l43 -237l58 152q17 42 52 42z" />
    <glyph glyph-name="x" unicode="x" 
d="M94 88l135 129l-135 130q-21 19 -21 46q0 21 14.5 36.5t38.5 15.5q26 0 48 -24l125 -134l126 134q22 24 48 24q24 0 38.5 -15.5t14.5 -36.5q0 -27 -21 -46l-136 -130l136 -129q21 -21 21 -47q0 -20 -14.5 -35.5t-38.5 -15.5q-27 0 -48 23l-126 134l-125 -134
q-21 -23 -48 -23q-24 0 -38.5 15.5t-14.5 35.5q0 26 21 47z" />
    <glyph glyph-name="y" unicode="y" 
d="M111 -217q-39 0 -70.5 16.5t-31.5 48.5q0 20 12.5 31.5t29.5 11.5q14 0 35.5 -4.5t31.5 -4.5q42 0 73 40q11 15 30 46.5t23 41.5l-161 344q-11 24 -11 42q0 19 14.5 34t37.5 15q39 0 58 -46l120 -280l119 280q19 46 57 46q24 0 38.5 -14.5t14.5 -34.5q0 -18 -11 -42
l-173 -366q-54 -114 -102 -159.5t-134 -45.5z" />
    <glyph glyph-name="z" unicode="z" 
d="M454 97q59 0 59 -48q0 -23 -15.5 -36t-41.5 -13h-307q-29 0 -45 14.5t-16 38.5q0 33 44 74l224 216q-80 -6 -202 -6q-59 0 -59 48q0 23 15.5 36t41.5 13h297q29 0 45 -14.5t16 -39.5q0 -31 -44 -73l-223 -216q84 6 211 6z" />
    <glyph glyph-name="braceleft" unicode="{" 
d="M243 226q37 -6 60 -35.5t23 -76.5v-142q0 -84 65 -84h45q25 0 38.5 -12.5t13.5 -34.5q0 -21 -14 -34t-41 -13h-56q-72 0 -112 39t-40 111v148q0 74 -64 81q-51 5 -51 53t51 53q64 7 64 81v147q0 72 40 111t112 39h56q27 0 41 -13t14 -34q0 -22 -13.5 -34.5t-38.5 -12.5
h-45q-65 0 -65 -84v-140q0 -47 -23 -77t-60 -36z" />
    <glyph glyph-name="bar" unicode="|" 
d="M349 610v-768q0 -28 -13.5 -43.5t-35.5 -15.5t-35.5 15.5t-13.5 43.5v768q0 28 13.5 43t35.5 15t35.5 -15t13.5 -43z" />
    <glyph glyph-name="braceright" unicode="}" 
d="M368 226q-37 6 -60 36t-23 77v140q0 84 -65 84h-45q-25 0 -38.5 12.5t-13.5 34.5q0 21 14 34t41 13h57q71 0 111 -39t40 -111v-147q0 -74 64 -81q24 -2 38 -16t14 -37t-14 -37t-38 -16q-64 -7 -64 -81v-148q0 -72 -40 -111t-111 -39h-57q-27 0 -41 13t-14 34
q0 22 13.5 34.5t38.5 12.5h45q65 0 65 84v142q0 47 23 76.5t60 35.5z" />
    <glyph glyph-name="asciitilde" unicode="~" 
d="M387 186q-37 0 -101 29t-77 29q-26 0 -41 -33q-11 -25 -35 -25q-15 0 -25.5 10.5t-10.5 27.5q0 24 11 51q26 63 95 63q38 0 102 -29t77 -29q26 0 41 34q12 25 35 25q15 0 25.5 -11t10.5 -28q0 -23 -8 -44q-12 -33 -38.5 -51.5t-60.5 -18.5z" />
    <glyph glyph-name="uni00A0" unicode="&#xa0;" 
 />
    <glyph glyph-name="exclamdown" unicode="&#xa1;" 
d="M300 201q35 0 43 -41l26 -194q5 -40 5 -49q0 -78 -74 -78t-74 78q0 9 5 49l26 194q8 41 43 41zM206 359q0 38 26 62t68 24t68 -24t26 -62t-26 -62.5t-68 -24.5t-68 24.5t-26 62.5z" />
    <glyph glyph-name="cent" unicode="&#xa2;" 
d="M246 -17v72q-80 17 -129 77t-49 144t49 144t129 77v73q0 28 16 43.5t39 15.5t38.5 -15.5t15.5 -43.5v-71q52 -7 108 -40q51 -31 51 -67q0 -21 -14 -35t-35 -14q-24 0 -51 21q-53 44 -108 44q-54 0 -90.5 -36.5t-36.5 -95.5t36.5 -95.5t90.5 -36.5q55 0 108 44
q27 21 51 21q21 0 35 -14t14 -35q0 -36 -51 -67q-58 -34 -108 -41v-69q0 -28 -15 -43.5t-39 -15.5t-39.5 15.5t-15.5 43.5z" />
    <glyph glyph-name="sterling" unicode="&#xa3;" 
d="M89 328h63v57q0 95 48 151.5t144 56.5q107 0 173 -69q21 -21 21 -46q0 -22 -15 -34.5t-37 -12.5q-26 0 -54 25q-43 38 -85 38q-84 0 -84 -121v-45h118q53 0 53 -45q0 -21 -14 -33t-39 -12h-118v-138q136 4 218 4q31 0 47 -14t16 -38q0 -52 -63 -52h-387q-30 0 -47 13.5
t-17 38.5q0 24 16.5 38t47.5 14q9 0 19.5 -0.5t22 -2t16.5 -1.5v138h-63q-25 0 -39 12t-14 33q0 45 53 45z" />
    <glyph glyph-name="currency" unicode="&#xa4;" 
d="M430 87l-50 50q-39 -18 -80 -18q-43 0 -81 19l-52 -51q-20 -20 -42 -20q-20 0 -33.5 14t-13.5 33q0 22 20 42l47 46q-22 38 -22 85t22 85l-46 47q-20 22 -20 42q0 19 13.5 33t33.5 14q22 0 42 -19l50 -52q39 18 82 18t79 -18l51 50q22 20 42 20t33.5 -14t13.5 -33
q0 -21 -20 -41l-46 -45q24 -40 24 -87t-23 -86l44 -45q20 -22 20 -42t-13.5 -33.5t-33.5 -13.5q-22 0 -41 20zM300 198q36 0 58.5 24.5t22.5 64.5t-22.5 65t-58.5 25t-58.5 -25t-22.5 -65t22.5 -64.5t58.5 -24.5z" />
    <glyph glyph-name="yen" unicode="&#xa5;" 
d="M116 175h130v49h-130q-52 0 -52 42q0 43 52 43h71l-135 182q-17 23 -17 48q0 23 15.5 38.5t40.5 15.5q30 0 58 -42l151 -230l151 230q27 42 58 42q26 0 41.5 -15.5t15.5 -38.5t-18 -48l-135 -182h74q52 0 52 -43q0 -42 -52 -42h-133v-49h133q52 0 52 -43q0 -42 -52 -42
h-133v-44q0 -28 -15 -44t-39 -16t-39 16t-15 44v44h-130q-52 0 -52 42q0 43 52 43z" />
    <glyph glyph-name="brokenbar" unicode="&#xa6;" 
d="M349 609v-259q0 -27 -14 -43t-35 -16t-35 16t-14 43v259q0 28 13.5 43.5t35.5 15.5t35.5 -15.5t13.5 -43.5zM349 102v-260q0 -27 -14 -43t-35 -16t-35 16t-14 43v260q0 27 14 43t35 16t35 -16t14 -43z" />
    <glyph glyph-name="section" unicode="&#xa7;" 
d="M513 188q0 -75 -63 -129q60 -42 60 -110q0 -79 -62 -122.5t-153 -43.5q-90 0 -156 40q-49 28 -49 65q0 21 13.5 35t33.5 14q22 0 48 -19q56 -36 115 -36q45 0 71 17t26 45q0 29 -28 44t-88 30q-107 27 -158.5 63.5t-51.5 106.5q0 77 62 128q-60 42 -60 111
q0 79 62.5 122.5t153.5 43.5q88 0 155 -40q26 -15 38 -29.5t12 -35.5t-13.5 -35t-33.5 -14q-22 0 -48 19q-56 36 -116 36q-45 0 -70.5 -17t-25.5 -45q0 -29 28.5 -44t87.5 -29q108 -28 159 -64.5t51 -106.5zM277 258q-31 8 -66 20q-38 -30 -38 -68q0 -32 31.5 -53.5
t102.5 -39.5q46 -12 66 -19q37 31 37 68q0 32 -31 53t-102 39z" />
    <glyph glyph-name="dieresis" unicode="&#xa8;" 
d="M196 504q-32 0 -53.5 18.5t-21.5 48.5q0 31 21.5 49t53.5 18t53.5 -18t21.5 -49q0 -30 -21.5 -48.5t-53.5 -18.5zM404 504q-32 0 -53.5 18.5t-21.5 48.5q0 31 21.5 49t53.5 18t53 -18t21 -49q0 -30 -21 -48.5t-53 -18.5z" />
    <glyph glyph-name="copyright" unicode="&#xa9;" 
d="M183 286q0 56 33.5 90.5t85.5 34.5q47 0 78 -26q25 -17 25 -36q0 -28 -28 -28q-13 0 -30 14q-20 17 -44 17q-25 0 -40 -18t-15 -48t15 -48t40 -18q24 0 44 17q17 14 30 14q28 0 28 -28q0 -19 -25 -36q-31 -26 -78 -26q-52 0 -85.5 34.5t-33.5 90.5zM69 285
q0 102 66.5 167t164.5 65t165 -65t67 -167q0 -101 -67 -166t-165 -65q-97 0 -164 65t-67 166zM473 285q0 81 -47 128.5t-127 47.5q-79 0 -125 -47.5t-46 -128.5q0 -80 47 -127t126 -47t125.5 47t46.5 127z" />
    <glyph glyph-name="ordfeminine" unicode="&#xaa;" 
d="M271 219q-69 0 -114.5 31.5t-45.5 84.5q0 52 45.5 84t114.5 32q66 0 111 -27v21q0 63 -83 63q-42 0 -75 -16q-34 -12 -44 -12q-18 0 -30.5 12t-12.5 30q0 33 47 51q53 20 119 20q176 0 176 -150v-173q0 -24 -13.5 -37.5t-34.5 -13.5q-31 0 -42 25l-2 4q-44 -29 -116 -29z
M298 289q39 0 64 12.5t25 34.5q0 21 -25 33.5t-64 12.5t-64.5 -12.5t-25.5 -33.5q0 -22 25.5 -34.5t64.5 -12.5zM431 81h-262q-24 0 -38 12t-14 33t14 33t38 12h262q24 0 38 -12t14 -33t-14 -33t-38 -12z" />
    <glyph glyph-name="guillemotleft" unicode="&#xab;" 
d="M196 232l87 -123q16 -21 16 -37q0 -18 -11 -28.5t-29 -10.5q-19 0 -42 25l-119 135q-16 19 -16 39t16 39l119 135q23 25 42 25q18 0 29 -10.5t11 -28.5q0 -16 -16 -37zM418 232l88 -123q16 -23 16 -37q0 -18 -11.5 -28.5t-29.5 -10.5q-20 0 -42 25l-118 135
q-17 20 -17 39t17 39l118 135q22 25 42 25q18 0 29.5 -10.5t11.5 -28.5q0 -14 -16 -37z" />
    <glyph glyph-name="logicalnot" unicode="&#xac;" 
d="M465 -13q-24 0 -37 15t-13 40v163h-273q-25 0 -40.5 13t-15.5 36q0 24 15.5 37t40.5 13h316q26 0 41 -14t15 -38v-210q0 -25 -13 -40t-36 -15z" />
    <glyph glyph-name="uni00AD" unicode="&#xad;" 
d="M402 236h-205q-25 0 -40 13t-15 36q0 24 15 37t40 13h205q25 0 40.5 -13t15.5 -36t-15.5 -36.5t-40.5 -13.5z" />
    <glyph glyph-name="registered" unicode="&#xae;" 
d="M69 440q0 102 66.5 167t164.5 65t165 -65t67 -167q0 -101 -67 -166t-165 -65q-97 0 -164 65t-67 166zM473 440q0 81 -47 128.5t-127 47.5q-79 0 -125 -47.5t-46 -128.5q0 -80 47 -127t126 -47t125.5 47t46.5 127zM342 336l-44 70h-26v-56q0 -15 -8.5 -24t-21.5 -9
t-21.5 9t-8.5 24v184q0 13 9 21t22 8h58q48 0 74.5 -20.5t26.5 -56.5q0 -50 -45 -69l34 -49q9 -12 9 -23q0 -12 -8 -20t-21 -8q-17 0 -29 19zM306 511h-34v-54h33q38 0 38 27t-37 27z" />
    <glyph glyph-name="macron" unicode="&#xaf;" 
d="M197 615h205q26 0 41 -12.5t15 -34.5t-15 -34.5t-41 -12.5h-205q-26 0 -41 12.5t-15 34.5t15 34.5t41 12.5z" />
    <glyph glyph-name="degree" unicode="&#xb0;" 
d="M300 248q-77 0 -129.5 47.5t-52.5 124.5q0 78 52.5 125.5t129.5 47.5t129.5 -47.5t52.5 -125.5q0 -77 -52.5 -124.5t-129.5 -47.5zM300 326q41 0 66 26t25 68t-25.5 68.5t-65.5 26.5t-65.5 -26.5t-25.5 -68.5t25 -68t66 -26z" />
    <glyph glyph-name="plusminus" unicode="&#xb1;" 
d="M300 171q-24 0 -37 15t-13 40v97h-108q-25 0 -40.5 12.5t-15.5 35.5q0 24 15.5 37t40.5 13h108v96q0 25 13 40.5t37 15.5q23 0 36 -15.5t13 -40.5v-96h110q25 0 40 -13t15 -37q0 -23 -15 -35.5t-40 -12.5h-110v-97q0 -25 -12.5 -40t-36.5 -15zM453 0h-305q-25 0 -40 13
t-15 36t15 36t40 13h305q25 0 40 -13t15 -36t-15 -36t-40 -13z" />
    <glyph glyph-name="twosuperior" unicode="&#xb2;" 
d="M425 323q0 -32 -42 -32h-169q-39 0 -39 36q0 19 32 43l66 47q36 25 51 42t15 34q0 14 -11 22.5t-28 8.5q-27 0 -51 -19q-19 -14 -34 -14q-13 0 -23 8.5t-10 21.5t11 27q35 38 108 38q55 0 84 -23.5t29 -63.5q0 -39 -27.5 -68.5t-80.5 -62.5l-23 -15q72 3 103 3
q39 0 39 -33z" />
    <glyph glyph-name="threesuperior" unicode="&#xb3;" 
d="M297 285q-74 0 -111 37q-12 12 -12 27q0 14 9.5 22.5t22.5 8.5q14 0 36 -14q22 -18 60 -18q23 0 37 9t14 24q0 25 -47 29q-39 2 -39 29t35 30q41 4 41 28q0 27 -41 27q-27 0 -51 -19q-21 -14 -34 -14q-14 0 -23.5 8.5t-9.5 21.5t11 27q35 38 108 38q53 0 83.5 -23.5
t30.5 -57.5q0 -49 -50 -64q27 -6 42.5 -24t15.5 -43q0 -40 -32 -64.5t-96 -24.5z" />
    <glyph glyph-name="acute" unicode="&#xb4;" 
d="M405 595l-115 -86q-28 -20 -40 -20q-15 0 -25.5 10t-10.5 25q0 16 19 38l96 110q20 23 48 23q20 0 36.5 -14.5t16.5 -36.5q0 -30 -25 -49z" />
    <glyph glyph-name="mu" unicode="&#xb5;" 
d="M95 387q0 27 15 42.5t39 15.5q23 0 38 -15.5t15 -42.5v-190q0 -112 98 -112q43 0 68.5 27.5t25.5 84.5v190q0 27 15 42.5t39 15.5q23 0 38.5 -15.5t15.5 -42.5v-340q0 -27 -15 -42.5t-39 -15.5q-38 0 -48 31l-3 17q-45 -48 -116 -48q-51 0 -79 23v-171q0 -27 -15 -42.5
t-38 -15.5q-24 0 -39 15.5t-15 42.5v546z" />
    <glyph glyph-name="paragraph" unicode="&#xb6;" 
d="M274 -161v349h-8q-100 0 -162 51t-62 144t62 144.5t162 51.5h52q52 0 52 -53v-687q0 -28 -13 -42t-35 -14q-21 0 -34.5 14.5t-13.5 41.5zM446 -161v684q0 27 13.5 41.5t34.5 14.5q22 0 35.5 -14.5t13.5 -41.5v-684q0 -27 -13.5 -41.5t-35.5 -14.5q-21 0 -34.5 14.5
t-13.5 41.5zM143 383q0 -51 33 -77.5t88 -26.5h10v209h-9q-56 0 -89 -26.5t-33 -78.5z" />
    <glyph glyph-name="periodcentered" unicode="&#xb7;" 
d="M207 293q0 38 26 62.5t68 24.5q41 0 67 -24.5t26 -62.5t-26 -62.5t-67 -24.5q-42 0 -68 24.5t-26 62.5z" />
    <glyph glyph-name="cedilla" unicode="&#xb8;" 
d="M250 24l87 2q32 -19 51.5 -49.5t19.5 -62.5q0 -46 -33 -74t-89 -28q-37 0 -66 14.5t-29 39.5q0 17 11 27.5t28 10.5q7 0 25 -5.5t27 -5.5q44 0 44 42q0 49 -76 89z" />
    <glyph glyph-name="onesuperior" unicode="&#xb9;" 
d="M377 291h-155q-42 0 -42 32q0 33 42 33q22 0 52 -3v151l-23 -16q-22 -14 -36 -14q-15 0 -24.5 9t-9.5 24q0 22 25 34l65 33q24 12 40 12q35 0 35 -35v-198q27 3 34 3q40 0 40 -33q0 -32 -43 -32z" />
    <glyph glyph-name="ordmasculine" unicode="&#xba;" 
d="M300 219q-84 0 -141.5 50.5t-57.5 135.5t57.5 136.5t141.5 51.5t141.5 -51.5t57.5 -136.5t-57.5 -135.5t-141.5 -50.5zM300 303q44 0 71.5 28t27.5 74t-27.5 75t-71.5 29t-72 -29t-28 -75t28 -74t72 -28zM431 81h-262q-24 0 -38 12t-14 33t14 33t38 12h262q24 0 38 -12
t14 -33t-14 -33t-38 -12z" />
    <glyph glyph-name="guillemotright" unicode="&#xbb;" 
d="M410 232l-88 123q-16 23 -16 37q0 18 11.5 28.5t29.5 10.5q20 0 42 -25l118 -135q17 -20 17 -39t-17 -39l-118 -135q-22 -25 -42 -25q-18 0 -29.5 10.5t-11.5 28.5q0 14 16 37zM187 232l-87 123q-16 21 -16 37q0 18 11 28.5t29 10.5q19 0 42 -25l119 -135q16 -19 16 -39
t-16 -39l-119 -135q-23 -25 -42 -25q-18 0 -29 10.5t-11 28.5q0 16 16 37z" />
    <glyph glyph-name="onequarter" unicode="&#xbc;" 
d="M509 -6q-15 0 -25 9.5t-10 26.5v28h-129q-16 0 -27 8.5t-11 21.5q0 14 21 39l127 140q26 30 52 30q37 0 37 -42v-136h12q36 0 36 -31t-35 -31h-13v-27q0 -17 -10 -26.5t-25 -9.5zM227 291h-155q-42 0 -42 32q0 33 42 33q22 0 52 -3v151l-23 -16q-22 -14 -36 -14
q-15 0 -24.5 9t-9.5 24q0 22 25 34l65 33q24 12 40 12q35 0 35 -35v-198q27 3 34 3q40 0 40 -33q0 -32 -43 -32zM110 66l76 122q14 24 39 24q15 0 26 -10.5t11 -26.5q0 -18 -15 -40l-75 -121q-16 -24 -40 -24q-15 0 -26 10.5t-11 25.5q0 18 15 40zM369 445l76 121
q16 25 39 25q15 0 26 -10.5t11 -26.5t-15 -40l-75 -121q-16 -25 -40 -25q-15 0 -26 10.5t-11 26.5q0 17 15 40zM476 117v88l-79 -88h79z" />
    <glyph glyph-name="onehalf" unicode="&#xbd;" 
d="M575 32q0 -32 -42 -32h-169q-39 0 -39 36q0 19 32 43l66 47q36 25 51 42t15 34q0 14 -11 22.5t-28 8.5q-27 0 -51 -19q-19 -14 -34 -14q-13 0 -23 8.5t-10 21.5t11 27q35 38 108 38q55 0 84 -23.5t29 -63.5q0 -39 -27.5 -68.5t-80.5 -62.5l-23 -15q72 3 103 3
q39 0 39 -33zM227 291h-155q-42 0 -42 32q0 33 42 33q22 0 52 -3v151l-23 -16q-22 -14 -36 -14q-15 0 -24.5 9t-9.5 24q0 22 25 34l65 33q24 12 40 12q35 0 35 -35v-198q27 3 34 3q40 0 40 -33q0 -32 -43 -32zM369 445l76 121q16 25 39 25q15 0 26 -10.5t11 -26.5t-15 -40
l-75 -121q-16 -25 -40 -25q-15 0 -26 10.5t-11 26.5q0 17 15 40zM110 66l76 122q14 24 39 24q15 0 26 -10.5t11 -26.5q0 -18 -15 -40l-75 -121q-16 -24 -40 -24q-15 0 -26 10.5t-11 25.5q0 18 15 40z" />
    <glyph glyph-name="threequarters" unicode="&#xbe;" 
d="M509 -6q-15 0 -25 9.5t-10 26.5v28h-129q-16 0 -27 8.5t-11 21.5q0 14 21 39l127 140q26 30 52 30q37 0 37 -42v-136h12q36 0 36 -31t-35 -31h-13v-27q0 -17 -10 -26.5t-25 -9.5zM147 285q-74 0 -111 37q-12 12 -12 27q0 14 9.5 22.5t22.5 8.5q14 0 36 -14q22 -18 60 -18
q23 0 37 9t14 24q0 25 -47 29q-39 2 -39 29t35 30q41 4 41 28q0 27 -41 27q-27 0 -51 -19q-21 -14 -34 -14q-14 0 -23.5 8.5t-9.5 21.5t11 27q35 38 108 38q53 0 83.5 -23.5t30.5 -57.5q0 -49 -50 -64q27 -6 42.5 -24t15.5 -43q0 -40 -32 -64.5t-96 -24.5zM110 66l76 122
q14 24 39 24q15 0 26 -10.5t11 -26.5q0 -18 -15 -40l-75 -121q-16 -24 -40 -24q-15 0 -26 10.5t-11 25.5q0 18 15 40zM369 445l76 121q16 25 39 25q15 0 26 -10.5t11 -26.5t-15 -40l-75 -121q-16 -25 -40 -25q-15 0 -26 10.5t-11 26.5q0 17 15 40zM476 117v88l-79 -88h79z
" />
    <glyph glyph-name="questiondown" unicode="&#xbf;" 
d="M278 -62q81 0 142 54q30 24 53 24t37.5 -13.5t14.5 -35.5q0 -25 -21 -46q-35 -36 -93 -59t-128 -23q-94 0 -149 38.5t-55 106.5q0 60 44.5 95.5t130.5 54.5l4 32q8 41 48 41q41 0 51 -42q6 -31 6 -53q0 -35 -36 -47q-41 -9 -65 -16t-46 -22.5t-22 -36.5q0 -25 23 -38.5
t61 -13.5zM212 359q0 38 26 62t67 24q42 0 68 -24t26 -62t-26 -62.5t-68 -24.5q-41 0 -67 24.5t-26 62.5z" />
    <glyph glyph-name="Agrave" unicode="&#xc0;" 
d="M142 -14q-24 0 -40 16t-16 44v323q0 105 57 164.5t157 59.5q101 0 157.5 -59t56.5 -165v-323q0 -28 -15.5 -44t-39.5 -16t-40 16t-16 44v134h-206v-134q0 -28 -15.5 -44t-39.5 -16zM197 280h206v68q0 71 -23 107t-80 36q-56 0 -79.5 -36t-23.5 -107v-68zM303 654l-115 86
q-25 18 -25 49q0 21 16.5 36t35.5 15q29 0 49 -23l96 -110q18 -21 18 -38q0 -15 -10.5 -25t-24.5 -10t-40 20z" />
    <glyph glyph-name="Aacute" unicode="&#xc1;" 
d="M142 -14q-24 0 -40 16t-16 44v323q0 105 57 164.5t157 59.5q101 0 157.5 -59t56.5 -165v-323q0 -28 -15.5 -44t-39.5 -16t-40 16t-16 44v134h-206v-134q0 -28 -15.5 -44t-39.5 -16zM197 280h206v68q0 71 -23 107t-80 36q-56 0 -79.5 -36t-23.5 -107v-68zM409 740
l-115 -86q-28 -20 -40 -20q-15 0 -25.5 10t-10.5 25q0 16 19 38l96 110q20 23 48 23q20 0 36.5 -14.5t16.5 -36.5q0 -30 -25 -49z" />
    <glyph glyph-name="Acircumflex" unicode="&#xc2;" 
d="M142 -14q-24 0 -40 16t-16 44v323q0 105 57 164.5t157 59.5q101 0 157.5 -59t56.5 -165v-323q0 -28 -15.5 -44t-39.5 -16t-40 16t-16 44v134h-206v-134q0 -28 -15.5 -44t-39.5 -16zM197 280h206v68q0 71 -23 107t-80 36q-56 0 -79.5 -36t-23.5 -107v-68zM300 718l-90 -76
q-20 -15 -37 -15q-13 0 -23 9.5t-10 23.5q0 20 19 38l101 108q19 18 40 18t40 -18l101 -108q19 -18 19 -38q0 -14 -10 -23.5t-23 -9.5q-17 0 -37 15z" />
    <glyph glyph-name="Atilde" unicode="&#xc3;" 
d="M142 -14q-24 0 -40 16t-16 44v323q0 105 57 164.5t157 59.5q101 0 157.5 -59t56.5 -165v-323q0 -28 -15.5 -44t-39.5 -16t-40 16t-16 44v134h-206v-134q0 -28 -15.5 -44t-39.5 -16zM197 280h206v68q0 71 -23 107t-80 36q-56 0 -79.5 -36t-23.5 -107v-68zM370 642
q-34 0 -79.5 29.5t-55.5 29.5q-19 0 -32 -32q-10 -26 -34 -26q-15 0 -25.5 10.5t-10.5 27.5q0 43 28 75.5t70 32.5q34 0 79 -29.5t55 -29.5q20 0 33 32q10 26 33 26q16 0 26 -10.5t10 -27.5q0 -43 -28 -75.5t-69 -32.5z" />
    <glyph glyph-name="Adieresis" unicode="&#xc4;" 
d="M142 -14q-24 0 -40 16t-16 44v323q0 105 57 164.5t157 59.5q101 0 157.5 -59t56.5 -165v-323q0 -28 -15.5 -44t-39.5 -16t-40 16t-16 44v134h-206v-134q0 -28 -15.5 -44t-39.5 -16zM197 280h206v68q0 71 -23 107t-80 36q-56 0 -79.5 -36t-23.5 -107v-68zM196 649
q-32 0 -53.5 18.5t-21.5 48.5q0 31 21.5 49t53.5 18t53.5 -18t21.5 -49q0 -30 -21.5 -48.5t-53.5 -18.5zM404 649q-32 0 -53.5 18.5t-21.5 48.5q0 31 21.5 49t53.5 18t53 -18t21 -49q0 -30 -21 -48.5t-53 -18.5z" />
    <glyph glyph-name="Aring" unicode="&#xc5;" 
d="M142 -14q-24 0 -40 16t-16 44v323q0 105 57 164.5t157 59.5q101 0 157.5 -59t56.5 -165v-323q0 -28 -15.5 -44t-39.5 -16t-40 16t-16 44v134h-206v-134q0 -28 -15.5 -44t-39.5 -16zM197 280h206v68q0 71 -23 107t-80 36q-56 0 -79.5 -36t-23.5 -107v-68zM423 723
q0 -47 -33.5 -79.5t-89.5 -32.5t-89.5 32.5t-33.5 79.5t33.5 79t89.5 32t89.5 -32t33.5 -79zM354 723q0 21 -14 36.5t-40 15.5t-40 -15.5t-14 -36.5q0 -22 14 -37t40 -15t40 15t14 37z" />
    <glyph glyph-name="AE" unicode="&#xc6;" 
d="M85 -14q-24 0 -40 16t-16 44v310q0 105 56 164t155 59h283q30 0 47 -13.5t17 -38.5q0 -52 -64 -52q-18 0 -44.5 0.5t-56.5 2t-42 1.5v-143q11 0 41 0.5t41 0.5q63 0 63 -51t-63 -51q-38 0 -82 2v-137q136 4 143 4q31 0 47.5 -14t16.5 -38q0 -25 -17 -38.5t-47 -13.5h-197
q-24 0 -39.5 16t-15.5 44v154h-130v-168q0 -28 -16 -44t-40 -16zM141 310h130v170h-31q-99 0 -99 -127v-43z" />
    <glyph glyph-name="Ccedilla" unicode="&#xc7;" 
d="M174 290q0 -93 39 -147.5t105 -54.5q57 0 108 44q29 25 53 25q22 0 37 -15t15 -37q0 -23 -16 -40q-54 -62 -155 -75q32 -35 32 -76q0 -46 -33 -74t-90 -28q-37 0 -66 14.5t-29 39.5q0 17 11 27.5t28 10.5q7 0 25 -5.5t27 -5.5q44 0 44 42q0 45 -45 54q-95 21 -150 99.5
t-55 201.5q0 138 69.5 220.5t187.5 82.5q57 0 112 -21t87 -58q16 -17 16 -40q0 -22 -15 -37t-37 -15q-24 0 -53 25q-51 44 -108 44q-66 0 -105 -54t-39 -147z" />
    <glyph glyph-name="Egrave" unicode="&#xc8;" 
d="M152 0q-25 0 -40.5 15.5t-15.5 43.5v461q0 28 15.5 43.5t40.5 15.5h306q64 0 64 -52t-64 -52q-7 0 -251 4v-137q174 3 177 3q63 0 63 -52q0 -51 -63 -51q-59 0 -177 2v-144q19 0 76 1.5t103.5 2t71.5 0.5q31 0 47.5 -14t16.5 -38q0 -52 -64 -52h-306zM311 654l-115 86
q-25 18 -25 49q0 21 16.5 36t35.5 15q29 0 49 -23l96 -110q18 -21 18 -38q0 -15 -10.5 -25t-24.5 -10t-40 20z" />
    <glyph glyph-name="Eacute" unicode="&#xc9;" 
d="M416 740l-115 -86q-28 -20 -40 -20q-15 0 -25.5 10t-10.5 25q0 16 19 38l96 110q20 23 48 23q20 0 36.5 -14.5t16.5 -36.5q0 -30 -25 -49zM152 0q-25 0 -40.5 15.5t-15.5 43.5v461q0 28 15.5 43.5t40.5 15.5h306q64 0 64 -52t-64 -52q-7 0 -251 4v-137q174 3 177 3
q63 0 63 -52q0 -51 -63 -51q-59 0 -177 2v-144q19 0 76 1.5t103.5 2t71.5 0.5q31 0 47.5 -14t16.5 -38q0 -52 -64 -52h-306z" />
    <glyph glyph-name="Ecircumflex" unicode="&#xca;" 
d="M305 718l-90 -76q-20 -15 -37 -15q-13 0 -23 9.5t-10 23.5q0 20 19 38l101 108q19 18 40 18t40 -18l101 -108q19 -18 19 -38q0 -14 -10 -23.5t-23 -9.5q-17 0 -37 15zM152 0q-25 0 -40.5 15.5t-15.5 43.5v461q0 28 15.5 43.5t40.5 15.5h306q64 0 64 -52t-64 -52
q-7 0 -251 4v-137q174 3 177 3q63 0 63 -52q0 -51 -63 -51q-59 0 -177 2v-144q19 0 76 1.5t103.5 2t71.5 0.5q31 0 47.5 -14t16.5 -38q0 -52 -64 -52h-306z" />
    <glyph glyph-name="Edieresis" unicode="&#xcb;" 
d="M201 649q-32 0 -53.5 18.5t-21.5 48.5q0 31 21.5 49t53.5 18t53.5 -18t21.5 -49q0 -30 -21.5 -48.5t-53.5 -18.5zM409 649q-32 0 -53.5 18.5t-21.5 48.5q0 31 21.5 49t53.5 18t53 -18t21 -49q0 -30 -21 -48.5t-53 -18.5zM152 0q-25 0 -40.5 15.5t-15.5 43.5v461
q0 28 15.5 43.5t40.5 15.5h306q64 0 64 -52t-64 -52q-7 0 -251 4v-137q174 3 177 3q63 0 63 -52q0 -51 -63 -51q-59 0 -177 2v-144q19 0 76 1.5t103.5 2t71.5 0.5q31 0 47.5 -14t16.5 -38q0 -52 -64 -52h-306z" />
    <glyph glyph-name="Igrave" unicode="&#xcc;" 
d="M244 100v379q-4 0 -43 -2t-54 -2q-64 0 -64 52t64 52h305q64 0 64 -52t-64 -52q-15 0 -54 2t-43 2v-379q4 0 43 2t54 2q31 0 47.5 -14t16.5 -38q0 -52 -64 -52h-305q-64 0 -64 52q0 24 16.5 38t47.5 14q15 0 54 -2t43 -2zM305 654l-115 86q-25 18 -25 49q0 21 16.5 36
t35.5 15q29 0 49 -23l96 -110q18 -21 18 -38q0 -15 -10.5 -25t-24.5 -10t-40 20z" />
    <glyph glyph-name="Iacute" unicode="&#xcd;" 
d="M244 100v379q-4 0 -43 -2t-54 -2q-64 0 -64 52t64 52h305q64 0 64 -52t-64 -52q-15 0 -54 2t-43 2v-379q4 0 43 2t54 2q31 0 47.5 -14t16.5 -38q0 -52 -64 -52h-305q-64 0 -64 52q0 24 16.5 38t47.5 14q15 0 54 -2t43 -2zM410 740l-115 -86q-28 -20 -40 -20
q-15 0 -25.5 10t-10.5 25q0 16 19 38l96 110q20 23 48 23q20 0 36.5 -14.5t16.5 -36.5q0 -30 -25 -49z" />
    <glyph glyph-name="Icircumflex" unicode="&#xce;" 
d="M244 100v379q-4 0 -43 -2t-54 -2q-64 0 -64 52t64 52h305q64 0 64 -52t-64 -52q-15 0 -54 2t-43 2v-379q4 0 43 2t54 2q31 0 47.5 -14t16.5 -38q0 -52 -64 -52h-305q-64 0 -64 52q0 24 16.5 38t47.5 14q15 0 54 -2t43 -2zM300 718l-90 -76q-20 -15 -37 -15q-13 0 -23 9.5
t-10 23.5q0 20 19 38l101 108q19 18 40 18t40 -18l101 -108q19 -18 19 -38q0 -14 -10 -23.5t-23 -9.5q-17 0 -37 15z" />
    <glyph glyph-name="Idieresis" unicode="&#xcf;" 
d="M244 100v379q-4 0 -43 -2t-54 -2q-64 0 -64 52t64 52h305q64 0 64 -52t-64 -52q-15 0 -54 2t-43 2v-379q4 0 43 2t54 2q31 0 47.5 -14t16.5 -38q0 -52 -64 -52h-305q-64 0 -64 52q0 24 16.5 38t47.5 14q15 0 54 -2t43 -2zM196 649q-32 0 -53.5 18.5t-21.5 48.5
q0 31 21.5 49t53.5 18t53.5 -18t21.5 -49q0 -30 -21.5 -48.5t-53.5 -18.5zM404 649q-32 0 -53.5 18.5t-21.5 48.5q0 31 21.5 49t53.5 18t53 -18t21 -49q0 -30 -21 -48.5t-53 -18.5z" />
    <glyph glyph-name="Eth" unicode="&#xd0;" 
d="M265 0h-119q-25 0 -40.5 15.5t-15.5 43.5v188h-19q-52 0 -52 42t52 42h19v189q0 28 15.5 43.5t40.5 15.5h119q131 0 205 -81t74 -209t-74 -208.5t-205 -80.5zM271 247h-70v-147h67q81 0 121 53t40 136t-40 136.5t-121 53.5h-67v-148h70q51 0 51 -42t-51 -42z" />
    <glyph glyph-name="Ntilde" unicode="&#xd1;" 
d="M515 533v-487q0 -29 -14.5 -44.5t-38.5 -15.5q-22 0 -35 11.5t-28 36.5l-203 333v-321q0 -28 -15.5 -44t-39.5 -16t-40 16t-16 44v486q0 29 14.5 45t38.5 16q22 0 35 -11.5t28 -36.5l203 -338v326q0 28 15.5 44t39.5 16t40 -16t16 -44zM370 642q-34 0 -79.5 29.5
t-55.5 29.5q-19 0 -32 -32q-10 -26 -34 -26q-15 0 -25.5 10.5t-10.5 27.5q0 43 28 75.5t70 32.5q34 0 79 -29.5t55 -29.5q20 0 33 32q10 26 33 26q16 0 26 -10.5t10 -27.5q0 -43 -28 -75.5t-69 -32.5z" />
    <glyph glyph-name="Ograve" unicode="&#xd2;" 
d="M299 88q65 0 98 58t33 144t-33 143.5t-98 57.5t-97.5 -57t-32.5 -144t32.5 -144.5t97.5 -57.5zM299 -14q-118 0 -181.5 86t-63.5 218t63.5 217.5t181.5 85.5q119 0 182.5 -85.5t63.5 -217.5t-63.5 -218t-182.5 -86zM305 654l-115 86q-25 18 -25 49q0 21 16.5 36t35.5 15
q29 0 49 -23l96 -110q18 -21 18 -38q0 -15 -10.5 -25t-24.5 -10t-40 20z" />
    <glyph glyph-name="Oacute" unicode="&#xd3;" 
d="M410 740l-115 -86q-28 -20 -40 -20q-15 0 -25.5 10t-10.5 25q0 16 19 38l96 110q20 23 48 23q20 0 36.5 -14.5t16.5 -36.5q0 -30 -25 -49zM299 88q65 0 98 58t33 144t-33 143.5t-98 57.5t-97.5 -57t-32.5 -144t32.5 -144.5t97.5 -57.5zM299 -14q-118 0 -181.5 86
t-63.5 218t63.5 217.5t181.5 85.5q119 0 182.5 -85.5t63.5 -217.5t-63.5 -218t-182.5 -86z" />
    <glyph glyph-name="Ocircumflex" unicode="&#xd4;" 
d="M300 718l-90 -76q-20 -15 -37 -15q-13 0 -23 9.5t-10 23.5q0 20 19 38l101 108q19 18 40 18t40 -18l101 -108q19 -18 19 -38q0 -14 -10 -23.5t-23 -9.5q-17 0 -37 15zM299 88q65 0 98 58t33 144t-33 143.5t-98 57.5t-97.5 -57t-32.5 -144t32.5 -144.5t97.5 -57.5z
M299 -14q-118 0 -181.5 86t-63.5 218t63.5 217.5t181.5 85.5q119 0 182.5 -85.5t63.5 -217.5t-63.5 -218t-182.5 -86z" />
    <glyph glyph-name="Otilde" unicode="&#xd5;" 
d="M299 88q65 0 98 58t33 144t-33 143.5t-98 57.5t-97.5 -57t-32.5 -144t32.5 -144.5t97.5 -57.5zM299 -14q-118 0 -181.5 86t-63.5 218t63.5 217.5t181.5 85.5q119 0 182.5 -85.5t63.5 -217.5t-63.5 -218t-182.5 -86zM369 642q-34 0 -79.5 29.5t-55.5 29.5q-19 0 -32 -32
q-10 -26 -34 -26q-15 0 -25.5 10.5t-10.5 27.5q0 43 28 75.5t70 32.5q34 0 79 -29.5t55 -29.5q20 0 33 32q10 26 33 26q16 0 26 -10.5t10 -27.5q0 -43 -28 -75.5t-69 -32.5z" />
    <glyph glyph-name="Odieresis" unicode="&#xd6;" 
d="M196 649q-32 0 -53.5 18.5t-21.5 48.5q0 31 21.5 49t53.5 18t53.5 -18t21.5 -49q0 -30 -21.5 -48.5t-53.5 -18.5zM404 649q-32 0 -53.5 18.5t-21.5 48.5q0 31 21.5 49t53.5 18t53 -18t21 -49q0 -30 -21 -48.5t-53 -18.5zM299 88q65 0 98 58t33 144t-33 143.5t-98 57.5
t-97.5 -57t-32.5 -144t32.5 -144.5t97.5 -57.5zM299 -14q-118 0 -181.5 86t-63.5 218t63.5 217.5t181.5 85.5q119 0 182.5 -85.5t63.5 -217.5t-63.5 -218t-182.5 -86z" />
    <glyph glyph-name="multiply" unicode="&#xd7;" 
d="M431 74q-22 0 -40 19l-92 93l-91 -92q-19 -20 -41 -20q-18 0 -33 14.5t-15 33.5q0 21 20 41l91 91l-91 92q-20 20 -20 41q0 19 14.5 33.5t32.5 14.5q23 0 42 -20l91 -92l92 92q20 20 41 20q18 0 32.5 -14.5t14.5 -33.5q0 -22 -19 -41l-92 -92l92 -91q20 -20 20 -41
q0 -19 -15.5 -33.5t-33.5 -14.5z" />
    <glyph glyph-name="Oslash" unicode="&#xd8;" 
d="M299 84q68 0 101.5 59t33.5 147q0 50 -11 86l-211 -252q34 -40 87 -40zM79 -14q-17 0 -30 12t-13 28q0 26 15 44l39 46q-36 73 -36 174q0 132 63.5 217.5t181.5 85.5q90 0 150 -54l24 29q21 25 47 25q17 0 30 -12t13 -28q0 -26 -15 -44l-39 -46q36 -73 36 -173
q0 -132 -63.5 -218t-182.5 -86q-88 0 -149 53l-25 -29q-19 -24 -46 -24zM165 290q0 -50 10 -89l211 254q-34 41 -87 41q-67 0 -100.5 -59t-33.5 -147z" />
    <glyph glyph-name="Ugrave" unicode="&#xd9;" 
d="M299 -14q-100 0 -156.5 59t-56.5 165v323q0 28 15.5 44t39.5 16t40 -16t16 -44v-304q0 -70 24 -105.5t78 -35.5q56 0 80 35t24 106v304q0 28 15.5 44t39.5 16t40 -16t16 -44v-323q0 -107 -57 -165.5t-158 -58.5zM305 654l-115 86q-25 18 -25 49q0 21 16.5 36t35.5 15
q29 0 49 -23l96 -110q18 -21 18 -38q0 -15 -10.5 -25t-24.5 -10t-40 20z" />
    <glyph glyph-name="Uacute" unicode="&#xda;" 
d="M410 740l-115 -86q-28 -20 -40 -20q-15 0 -25.5 10t-10.5 25q0 16 19 38l96 110q20 23 48 23q20 0 36.5 -14.5t16.5 -36.5q0 -30 -25 -49zM299 -14q-100 0 -156.5 59t-56.5 165v323q0 28 15.5 44t39.5 16t40 -16t16 -44v-304q0 -70 24 -105.5t78 -35.5q56 0 80 35t24 106
v304q0 28 15.5 44t39.5 16t40 -16t16 -44v-323q0 -107 -57 -165.5t-158 -58.5z" />
    <glyph glyph-name="Ucircumflex" unicode="&#xdb;" 
d="M300 718l-90 -76q-20 -15 -37 -15q-13 0 -23 9.5t-10 23.5q0 20 19 38l101 108q19 18 40 18t40 -18l101 -108q19 -18 19 -38q0 -14 -10 -23.5t-23 -9.5q-17 0 -37 15zM299 -14q-100 0 -156.5 59t-56.5 165v323q0 28 15.5 44t39.5 16t40 -16t16 -44v-304q0 -70 24 -105.5
t78 -35.5q56 0 80 35t24 106v304q0 28 15.5 44t39.5 16t40 -16t16 -44v-323q0 -107 -57 -165.5t-158 -58.5z" />
    <glyph glyph-name="Udieresis" unicode="&#xdc;" 
d="M195 649q-32 0 -53.5 18.5t-21.5 48.5q0 31 21.5 49t53.5 18t53.5 -18t21.5 -49q0 -30 -21.5 -48.5t-53.5 -18.5zM403 649q-32 0 -53.5 18.5t-21.5 48.5q0 31 21.5 49t53.5 18t53 -18t21 -49q0 -30 -21 -48.5t-53 -18.5zM299 -14q-100 0 -156.5 59t-56.5 165v323
q0 28 15.5 44t39.5 16t40 -16t16 -44v-304q0 -70 24 -105.5t78 -35.5q56 0 80 35t24 106v304q0 28 15.5 44t39.5 16t40 -16t16 -44v-323q0 -107 -57 -165.5t-158 -58.5z" />
    <glyph glyph-name="Yacute" unicode="&#xdd;" 
d="M300 -14q-24 0 -39.5 16t-15.5 44v160l-193 285q-17 24 -17 48q0 23 15.5 38.5t40.5 15.5q32 0 58 -43l151 -241l151 241q28 43 58 43q26 0 41.5 -15.5t15.5 -38.5t-18 -48l-192 -285v-160q0 -28 -16 -44t-40 -16zM408 740l-115 -86q-28 -20 -40 -20q-15 0 -25.5 10
t-10.5 25q0 16 19 38l96 110q20 23 48 23q20 0 36.5 -14.5t16.5 -36.5q0 -30 -25 -49z" />
    <glyph glyph-name="Thorn" unicode="&#xde;" 
d="M154 -14q-24 0 -40 16t-16 44v487q0 28 16 44t40 16t39.5 -16t15.5 -44v-48h97q107 0 170 -49t63 -146t-63 -146t-170 -49h-97v-49q0 -28 -15.5 -44t-39.5 -16zM301 385h-92v-190h92q56 0 89.5 23.5t33.5 71.5q0 95 -123 95z" />
    <glyph glyph-name="germandbls" unicode="&#xdf;" 
d="M96 47v389q0 107 53 167t159 60q96 0 150.5 -50t54.5 -125q0 -61 -31 -102.5t-79 -58.5q61 -16 103.5 -59.5t42.5 -114.5q0 -77 -48 -120.5t-126 -43.5q-58 0 -89 21q-24 16 -24 43q0 19 13 32t33 13q4 0 11.5 -1.5t8.5 -1.5q23 -10 43 -10q31 0 49.5 19.5t18.5 52.5
q0 45 -34 73.5t-95 39.5q-45 8 -45 45q0 39 38 51q99 30 99 111q0 40 -25.5 65.5t-71.5 25.5q-101 0 -101 -137v-384q0 -28 -15 -43t-39 -15t-39 15.5t-15 42.5z" />
    <glyph glyph-name="agrave" unicode="&#xe0;" 
d="M260 -11q-82 0 -136 38t-54 103t54 103t136 38q85 0 141 -36v29q0 43 -29 65t-81 22q-50 0 -94 -20q-2 -1 -14 -6.5t-20.5 -8t-17.5 -2.5q-20 0 -33.5 13.5t-13.5 33.5q0 37 53 58q63 26 145 26q212 0 212 -183v-215q0 -28 -15 -43t-38 -15q-39 0 -50 38
q-53 -38 -145 -38zM291 67q51 0 83.5 17.5t32.5 46.5t-32.5 46t-83.5 17q-49 0 -80.5 -17t-31.5 -46t31.5 -46.5t80.5 -17.5zM310 509l-115 86q-25 18 -25 49q0 21 16.5 36t35.5 15q29 0 49 -23l96 -110q18 -21 18 -38q0 -15 -10.5 -25t-24.5 -10t-40 20z" />
    <glyph glyph-name="aacute" unicode="&#xe1;" 
d="M260 -11q-82 0 -136 38t-54 103t54 103t136 38q85 0 141 -36v29q0 43 -29 65t-81 22q-50 0 -94 -20q-2 -1 -14 -6.5t-20.5 -8t-17.5 -2.5q-20 0 -33.5 13.5t-13.5 33.5q0 37 53 58q63 26 145 26q212 0 212 -183v-215q0 -28 -15 -43t-38 -15q-39 0 -50 38
q-53 -38 -145 -38zM291 67q51 0 83.5 17.5t32.5 46.5t-32.5 46t-83.5 17q-49 0 -80.5 -17t-31.5 -46t31.5 -46.5t80.5 -17.5zM410 595l-115 -86q-28 -20 -40 -20q-15 0 -25.5 10t-10.5 25q0 16 19 38l96 110q20 23 48 23q20 0 36.5 -14.5t16.5 -36.5q0 -30 -25 -49z" />
    <glyph glyph-name="acircumflex" unicode="&#xe2;" 
d="M260 -11q-82 0 -136 38t-54 103t54 103t136 38q85 0 141 -36v29q0 43 -29 65t-81 22q-50 0 -94 -20q-2 -1 -14 -6.5t-20.5 -8t-17.5 -2.5q-20 0 -33.5 13.5t-13.5 33.5q0 37 53 58q63 26 145 26q212 0 212 -183v-215q0 -28 -15 -43t-38 -15q-39 0 -50 38
q-53 -38 -145 -38zM300 573l-90 -76q-20 -15 -37 -15q-13 0 -23 9.5t-10 23.5q0 20 19 38l101 108q19 18 40 18t40 -18l101 -108q19 -18 19 -38q0 -14 -10 -23.5t-23 -9.5q-17 0 -37 15zM291 67q51 0 83.5 17.5t32.5 46.5t-32.5 46t-83.5 17q-49 0 -80.5 -17t-31.5 -46
t31.5 -46.5t80.5 -17.5z" />
    <glyph glyph-name="atilde" unicode="&#xe3;" 
d="M260 -11q-82 0 -136 38t-54 103t54 103t136 38q85 0 141 -36v29q0 43 -29 65t-81 22q-50 0 -94 -20q-2 -1 -14 -6.5t-20.5 -8t-17.5 -2.5q-20 0 -33.5 13.5t-13.5 33.5q0 37 53 58q63 26 145 26q212 0 212 -183v-215q0 -28 -15 -43t-38 -15q-39 0 -50 38
q-53 -38 -145 -38zM370 497q-34 0 -79.5 29.5t-55.5 29.5q-19 0 -32 -32q-10 -26 -34 -26q-15 0 -25.5 10.5t-10.5 27.5q0 43 28 75.5t70 32.5q34 0 79 -29.5t55 -29.5q20 0 33 32q10 26 33 26q16 0 26 -10.5t10 -27.5q0 -43 -28 -75.5t-69 -32.5zM291 67q51 0 83.5 17.5
t32.5 46.5t-32.5 46t-83.5 17q-49 0 -80.5 -17t-31.5 -46t31.5 -46.5t80.5 -17.5z" />
    <glyph glyph-name="adieresis" unicode="&#xe4;" 
d="M260 -11q-82 0 -136 38t-54 103t54 103t136 38q85 0 141 -36v29q0 43 -29 65t-81 22q-50 0 -94 -20q-2 -1 -14 -6.5t-20.5 -8t-17.5 -2.5q-20 0 -33.5 13.5t-13.5 33.5q0 37 53 58q63 26 145 26q212 0 212 -183v-215q0 -28 -15 -43t-38 -15q-39 0 -50 38
q-53 -38 -145 -38zM291 67q51 0 83.5 17.5t32.5 46.5t-32.5 46t-83.5 17q-49 0 -80.5 -17t-31.5 -46t31.5 -46.5t80.5 -17.5zM196 504q-32 0 -53.5 18.5t-21.5 48.5q0 31 21.5 49t53.5 18t53.5 -18t21.5 -49q0 -30 -21.5 -48.5t-53.5 -18.5zM404 504q-32 0 -53.5 18.5
t-21.5 48.5q0 31 21.5 49t53.5 18t53 -18t21 -49q0 -30 -21 -48.5t-53 -18.5z" />
    <glyph glyph-name="aring" unicode="&#xe5;" 
d="M260 -11q-82 0 -136 38t-54 103t54 103t136 38q85 0 141 -36v29q0 43 -29 65t-81 22q-50 0 -94 -20q-2 -1 -14 -6.5t-20.5 -8t-17.5 -2.5q-20 0 -33.5 13.5t-13.5 33.5q0 37 53 58q63 26 145 26q212 0 212 -183v-215q0 -28 -15 -43t-38 -15q-39 0 -50 38
q-53 -38 -145 -38zM423 578q0 -47 -33.5 -79.5t-89.5 -32.5t-89.5 32.5t-33.5 79.5t33.5 79t89.5 32t89.5 -32t33.5 -79zM291 67q51 0 83.5 17.5t32.5 46.5t-32.5 46t-83.5 17q-49 0 -80.5 -17t-31.5 -46t31.5 -46.5t80.5 -17.5zM354 578q0 21 -14 36.5t-40 15.5t-40 -15.5
t-14 -36.5q0 -22 14 -37t40 -15t40 15t14 37z" />
    <glyph glyph-name="ae" unicode="&#xe6;" 
d="M169 -11q-65 0 -109 39t-44 102t43 101.5t106 38.5q54 0 92 -25v18q0 92 -74 92q-31 0 -63 -18q-22 -13 -42 -13q-18 0 -29 11t-11 28q0 33 44 57q46 25 107 25q86 0 122 -56q44 56 111 56q75 0 119.5 -56.5t44.5 -149.5q0 -50 -38 -50h-196q8 -111 83 -111q34 0 65 34
q16 18 37 18q16 0 27.5 -10.5t11.5 -29.5q0 -30 -27 -55q-46 -46 -119 -46q-80 0 -127 62q-42 -62 -134 -62zM185 64q36 0 55.5 18t19.5 49q0 30 -19.5 48t-55.5 18q-34 0 -53.5 -18t-19.5 -48t20 -48.5t53 -18.5zM424 364q-62 0 -72 -102h141q-4 102 -69 102z" />
    <glyph glyph-name="ccedilla" unicode="&#xe7;" 
d="M179 217q0 -59 36.5 -95.5t90.5 -36.5q55 0 108 44q27 21 51 21q21 0 35 -14t14 -35q0 -36 -51 -67q-56 -33 -109 -41q34 -36 34 -79q0 -46 -33 -74t-90 -28q-37 0 -66 14.5t-29 39.5q0 17 11 27.5t28 10.5q7 0 25 -5.5t27 -5.5q44 0 44 42q0 46 -54 58q-79 17 -131 76.5
t-52 147.5q0 100 67 164t170 64q83 0 158 -45q51 -29 51 -67q0 -21 -14 -35t-35 -14q-24 0 -51 21q-53 44 -108 44q-54 0 -90.5 -36.5t-36.5 -95.5z" />
    <glyph glyph-name="egrave" unicode="&#xe8;" 
d="M308 -11q-110 0 -177 62t-67 166q0 102 68 165t172 63q95 0 162 -58.5t67 -147.5q0 -23 -13.5 -36.5t-39.5 -13.5h-307q9 -49 46 -78t89 -29q59 0 118 38q28 16 47 16q21 0 34.5 -13t13.5 -33q0 -32 -39 -57q-72 -44 -174 -44zM304 358q-46 0 -81 -24.5t-47 -71.5h252
q-8 46 -42.5 71t-81.5 25zM307 509l-115 86q-25 18 -25 49q0 21 16.5 36t35.5 15q29 0 49 -23l96 -110q18 -21 18 -38q0 -15 -10.5 -25t-24.5 -10t-40 20z" />
    <glyph glyph-name="eacute" unicode="&#xe9;" 
d="M413 595l-115 -86q-28 -20 -40 -20q-15 0 -25.5 10t-10.5 25q0 16 19 38l96 110q20 23 48 23q20 0 36.5 -14.5t16.5 -36.5q0 -30 -25 -49zM308 -11q-110 0 -177 62t-67 166q0 102 68 165t172 63q95 0 162 -58.5t67 -147.5q0 -23 -13.5 -36.5t-39.5 -13.5h-307
q9 -49 46 -78t89 -29q59 0 118 38q28 16 47 16q21 0 34.5 -13t13.5 -33q0 -32 -39 -57q-72 -44 -174 -44zM304 358q-46 0 -81 -24.5t-47 -71.5h252q-8 46 -42.5 71t-81.5 25z" />
    <glyph glyph-name="ecircumflex" unicode="&#xea;" 
d="M303 573l-90 -76q-20 -15 -37 -15q-13 0 -23 9.5t-10 23.5q0 20 19 38l101 108q19 18 40 18t40 -18l101 -108q19 -18 19 -38q0 -14 -10 -23.5t-23 -9.5q-17 0 -37 15zM308 -11q-110 0 -177 62t-67 166q0 102 68 165t172 63q95 0 162 -58.5t67 -147.5q0 -23 -13.5 -36.5
t-39.5 -13.5h-307q9 -49 46 -78t89 -29q59 0 118 38q28 16 47 16q21 0 34.5 -13t13.5 -33q0 -32 -39 -57q-72 -44 -174 -44zM304 358q-46 0 -81 -24.5t-47 -71.5h252q-8 46 -42.5 71t-81.5 25z" />
    <glyph glyph-name="edieresis" unicode="&#xeb;" 
d="M199 504q-32 0 -53.5 18.5t-21.5 48.5q0 31 21.5 49t53.5 18t53.5 -18t21.5 -49q0 -30 -21.5 -48.5t-53.5 -18.5zM407 504q-32 0 -53.5 18.5t-21.5 48.5q0 31 21.5 49t53.5 18t53 -18t21 -49q0 -30 -21 -48.5t-53 -18.5zM308 -11q-110 0 -177 62t-67 166q0 102 68 165
t172 63q95 0 162 -58.5t67 -147.5q0 -23 -13.5 -36.5t-39.5 -13.5h-307q9 -49 46 -78t89 -29q59 0 118 38q28 16 47 16q21 0 34.5 -13t13.5 -33q0 -32 -39 -57q-72 -44 -174 -44zM304 358q-46 0 -81 -24.5t-47 -71.5h252q-8 46 -42.5 71t-81.5 25z" />
    <glyph glyph-name="igrave" unicode="&#xec;" 
d="M470 97q29 0 44.5 -13t15.5 -35q0 -23 -15.5 -36t-42.5 -13h-337q-26 0 -41.5 13t-15.5 36q0 48 60 48q46 0 133 -5v250q-77 -5 -124 -5q-60 0 -60 48q0 23 15.5 36t41.5 13h179q25 0 39.5 -14t14.5 -37v-291q55 5 93 5zM327 509l-115 86q-25 18 -25 49q0 21 16.5 36
t35.5 15q29 0 49 -23l96 -110q18 -21 18 -38q0 -15 -10.5 -25t-24.5 -10t-40 20z" />
    <glyph glyph-name="iacute" unicode="&#xed;" 
d="M428 595l-115 -86q-28 -20 -40 -20q-15 0 -25.5 10t-10.5 25q0 16 19 38l96 110q20 23 48 23q20 0 36.5 -14.5t16.5 -36.5q0 -30 -25 -49zM470 97q29 0 44.5 -13t15.5 -35q0 -23 -15.5 -36t-42.5 -13h-337q-26 0 -41.5 13t-15.5 36q0 48 60 48q46 0 133 -5v250
q-77 -5 -124 -5q-60 0 -60 48q0 23 15.5 36t41.5 13h179q25 0 39.5 -14t14.5 -37v-291q55 5 93 5z" />
    <glyph glyph-name="icircumflex" unicode="&#xee;" 
d="M317 573l-90 -76q-20 -15 -37 -15q-13 0 -23 9.5t-10 23.5q0 20 19 38l101 108q19 18 40 18t40 -18l101 -108q19 -18 19 -38q0 -14 -10 -23.5t-23 -9.5q-17 0 -37 15zM470 97q29 0 44.5 -13t15.5 -35q0 -23 -15.5 -36t-42.5 -13h-337q-26 0 -41.5 13t-15.5 36q0 48 60 48
q46 0 133 -5v250q-77 -5 -124 -5q-60 0 -60 48q0 23 15.5 36t41.5 13h179q25 0 39.5 -14t14.5 -37v-291q55 5 93 5z" />
    <glyph glyph-name="idieresis" unicode="&#xef;" 
d="M213 504q-32 0 -53.5 18.5t-21.5 48.5q0 31 21.5 49t53.5 18t53.5 -18t21.5 -49q0 -30 -21.5 -48.5t-53.5 -18.5zM421 504q-32 0 -53.5 18.5t-21.5 48.5q0 31 21.5 49t53.5 18t53 -18t21 -49q0 -30 -21 -48.5t-53 -18.5zM470 97q29 0 44.5 -13t15.5 -35q0 -23 -15.5 -36
t-42.5 -13h-337q-26 0 -41.5 13t-15.5 36q0 48 60 48q46 0 133 -5v250q-77 -5 -124 -5q-60 0 -60 48q0 23 15.5 36t41.5 13h179q25 0 39.5 -14t14.5 -37v-291q55 5 93 5z" />
    <glyph glyph-name="eth" unicode="&#xf0;" 
d="M444 535l-38 -10l101 -183q34 -63 34 -126q0 -102 -69.5 -164.5t-171.5 -62.5t-171.5 63t-69.5 165q0 97 68 156t169 59q21 0 42 -9l-41 75l-74 -19q-10 -3 -22 -3q-17 0 -28.5 10t-11.5 28q0 32 44 43l54 14q-13 19 -13 26q-4 9 -4 22q0 20 14.5 34.5t38.5 14.5
q34 0 55 -40l17 -30l59 15q12 3 22 3q18 0 29 -9.5t11 -28.5q0 -32 -44 -43zM300 85q56 0 93 36.5t37 94.5q0 57 -37 94.5t-93 37.5t-93 -37t-37 -95q0 -59 36.5 -95t93.5 -36z" />
    <glyph glyph-name="ntilde" unicode="&#xf1;" 
d="M454 -11q-24 0 -39 15.5t-15 42.5v191q0 111 -95 111q-97 0 -97 -112v-190q0 -28 -15 -43t-39 -15t-39 15.5t-15 42.5v340q0 27 15.5 42.5t38.5 15.5q21 0 36 -13t15 -35q43 48 125 48t130 -47t48 -130v-221q0 -28 -15 -43t-39 -15zM374 497q-34 0 -79.5 29.5t-55.5 29.5
q-19 0 -32 -32q-10 -26 -34 -26q-15 0 -25.5 10.5t-10.5 27.5q0 43 28 75.5t70 32.5q34 0 79 -29.5t55 -29.5q20 0 33 32q10 26 33 26q16 0 26 -10.5t10 -27.5q0 -43 -28 -75.5t-69 -32.5z" />
    <glyph glyph-name="ograve" unicode="&#xf2;" 
d="M300 -11q-102 0 -171.5 63t-69.5 165t69.5 165t171.5 63t171.5 -63t69.5 -165t-69.5 -165t-171.5 -63zM300 85q56 0 93 37t37 95q0 57 -37 94.5t-93 37.5t-93 -37t-37 -95t36.5 -95t93.5 -37zM305 509l-115 86q-25 18 -25 49q0 21 16.5 36t35.5 15q29 0 49 -23l96 -110
q18 -21 18 -38q0 -15 -10.5 -25t-24.5 -10t-40 20z" />
    <glyph glyph-name="oacute" unicode="&#xf3;" 
d="M411 595l-115 -86q-28 -20 -40 -20q-15 0 -25.5 10t-10.5 25q0 16 19 38l96 110q20 23 48 23q20 0 36.5 -14.5t16.5 -36.5q0 -30 -25 -49zM300 -11q-102 0 -171.5 63t-69.5 165t69.5 165t171.5 63t171.5 -63t69.5 -165t-69.5 -165t-171.5 -63zM300 85q56 0 93 37t37 95
q0 57 -37 94.5t-93 37.5t-93 -37t-37 -95t36.5 -95t93.5 -37z" />
    <glyph glyph-name="ocircumflex" unicode="&#xf4;" 
d="M300 573l-90 -76q-20 -15 -37 -15q-13 0 -23 9.5t-10 23.5q0 20 19 38l101 108q19 18 40 18t40 -18l101 -108q19 -18 19 -38q0 -14 -10 -23.5t-23 -9.5q-17 0 -37 15zM300 -11q-102 0 -171.5 63t-69.5 165t69.5 165t171.5 63t171.5 -63t69.5 -165t-69.5 -165t-171.5 -63z
M300 85q56 0 93 37t37 95q0 57 -37 94.5t-93 37.5t-93 -37t-37 -95t36.5 -95t93.5 -37z" />
    <glyph glyph-name="otilde" unicode="&#xf5;" 
d="M300 -11q-102 0 -171.5 63t-69.5 165t69.5 165t171.5 63t171.5 -63t69.5 -165t-69.5 -165t-171.5 -63zM300 85q56 0 93 37t37 95q0 57 -37 94.5t-93 37.5t-93 -37t-37 -95t36.5 -95t93.5 -37zM370 497q-34 0 -79.5 29.5t-55.5 29.5q-19 0 -32 -32q-10 -26 -34 -26
q-15 0 -25.5 10.5t-10.5 27.5q0 43 28 75.5t70 32.5q34 0 79 -29.5t55 -29.5q20 0 33 32q10 26 33 26q16 0 26 -10.5t10 -27.5q0 -43 -28 -75.5t-69 -32.5z" />
    <glyph glyph-name="odieresis" unicode="&#xf6;" 
d="M196 504q-32 0 -53.5 18.5t-21.5 48.5q0 31 21.5 49t53.5 18t53.5 -18t21.5 -49q0 -30 -21.5 -48.5t-53.5 -18.5zM404 504q-32 0 -53.5 18.5t-21.5 48.5q0 31 21.5 49t53.5 18t53 -18t21 -49q0 -30 -21 -48.5t-53 -18.5zM300 -11q-102 0 -171.5 63t-69.5 165t69.5 165
t171.5 63t171.5 -63t69.5 -165t-69.5 -165t-171.5 -63zM300 85q56 0 93 37t37 95q0 57 -37 94.5t-93 37.5t-93 -37t-37 -95t36.5 -95t93.5 -37z" />
    <glyph glyph-name="divide" unicode="&#xf7;" 
d="M453 225h-305q-25 0 -40 13t-15 36t15 36t40 13h305q25 0 40 -13t15 -36t-15 -36t-40 -13zM300 -13q-38 0 -62 21.5t-24 56.5q0 34 24 56t62 22q40 0 64 -21.5t24 -56.5q0 -34 -24.5 -56t-63.5 -22zM300 398q-38 0 -62 21.5t-24 56.5q0 34 24 56t62 22q40 0 64 -21.5
t24 -56.5q0 -34 -24.5 -56t-63.5 -22z" />
    <glyph glyph-name="oslash" unicode="&#xf8;" 
d="M300 -11q-82 0 -144 42l-44 -39q-22 -18 -39 -18q-16 0 -28.5 12.5t-12.5 27.5q0 24 17 38l45 40q-35 56 -35 125q0 102 69.5 165t171.5 63q80 0 144 -43l41 36q20 19 38 19q16 0 29 -12.5t13 -27.5q0 -25 -17 -39l-43 -37q36 -53 36 -124q0 -102 -69.5 -165t-171.5 -63z
M166 217q0 -32 13 -60l196 173q-36 23 -75 23q-58 0 -96 -38.5t-38 -97.5zM300 81q58 0 96 38.5t38 97.5q0 31 -13 59l-196 -173q33 -22 75 -22z" />
    <glyph glyph-name="ugrave" unicode="&#xf9;" 
d="M147 445q23 0 38.5 -15.5t15.5 -42.5v-190q0 -112 97 -112q43 0 68.5 27.5t25.5 84.5v190q0 27 15 42.5t39 15.5q23 0 38.5 -15.5t15.5 -42.5v-340q0 -27 -15 -42.5t-39 -15.5q-22 0 -36.5 13.5t-14.5 33.5v1q-45 -48 -125 -48q-82 0 -129.5 47t-47.5 130v221
q0 27 15 42.5t39 15.5zM302 509l-115 86q-25 18 -25 49q0 21 16.5 36t35.5 15q29 0 49 -23l96 -110q18 -21 18 -38q0 -15 -10.5 -25t-24.5 -10t-40 20z" />
    <glyph glyph-name="uacute" unicode="&#xfa;" 
d="M407 595l-115 -86q-28 -20 -40 -20q-15 0 -25.5 10t-10.5 25q0 16 19 38l96 110q20 23 48 23q20 0 36.5 -14.5t16.5 -36.5q0 -30 -25 -49zM147 445q23 0 38.5 -15.5t15.5 -42.5v-190q0 -112 97 -112q43 0 68.5 27.5t25.5 84.5v190q0 27 15 42.5t39 15.5q23 0 38.5 -15.5
t15.5 -42.5v-340q0 -27 -15 -42.5t-39 -15.5q-22 0 -36.5 13.5t-14.5 33.5v1q-45 -48 -125 -48q-82 0 -129.5 47t-47.5 130v221q0 27 15 42.5t39 15.5z" />
    <glyph glyph-name="ucircumflex" unicode="&#xfb;" 
d="M297 573l-90 -76q-20 -15 -37 -15q-13 0 -23 9.5t-10 23.5q0 20 19 38l101 108q19 18 40 18t40 -18l101 -108q19 -18 19 -38q0 -14 -10 -23.5t-23 -9.5q-17 0 -37 15zM147 445q23 0 38.5 -15.5t15.5 -42.5v-190q0 -112 97 -112q43 0 68.5 27.5t25.5 84.5v190
q0 27 15 42.5t39 15.5q23 0 38.5 -15.5t15.5 -42.5v-340q0 -27 -15 -42.5t-39 -15.5q-22 0 -36.5 13.5t-14.5 33.5v1q-45 -48 -125 -48q-82 0 -129.5 47t-47.5 130v221q0 27 15 42.5t39 15.5z" />
    <glyph glyph-name="udieresis" unicode="&#xfc;" 
d="M193 504q-32 0 -53.5 18.5t-21.5 48.5q0 31 21.5 49t53.5 18t53.5 -18t21.5 -49q0 -30 -21.5 -48.5t-53.5 -18.5zM401 504q-32 0 -53.5 18.5t-21.5 48.5q0 31 21.5 49t53.5 18t53 -18t21 -49q0 -30 -21 -48.5t-53 -18.5zM147 445q23 0 38.5 -15.5t15.5 -42.5v-190
q0 -112 97 -112q43 0 68.5 27.5t25.5 84.5v190q0 27 15 42.5t39 15.5q23 0 38.5 -15.5t15.5 -42.5v-340q0 -27 -15 -42.5t-39 -15.5q-22 0 -36.5 13.5t-14.5 33.5v1q-45 -48 -125 -48q-82 0 -129.5 47t-47.5 130v221q0 27 15 42.5t39 15.5z" />
    <glyph glyph-name="yacute" unicode="&#xfd;" 
d="M111 -217q-39 0 -70.5 16.5t-31.5 48.5q0 20 12.5 31.5t29.5 11.5q14 0 35.5 -4.5t31.5 -4.5q42 0 73 40q11 15 30 46.5t23 41.5l-161 344q-11 24 -11 42q0 19 14.5 34t37.5 15q39 0 58 -46l120 -280l119 280q19 46 57 46q24 0 38.5 -14.5t14.5 -34.5q0 -18 -11 -42
l-173 -366q-54 -114 -102 -159.5t-134 -45.5zM411 595l-115 -86q-28 -20 -40 -20q-15 0 -25.5 10t-10.5 25q0 16 19 38l96 110q20 23 48 23q20 0 36.5 -14.5t16.5 -36.5q0 -30 -25 -49z" />
    <glyph glyph-name="thorn" unicode="&#xfe;" 
d="M331 445q91 0 151 -63t60 -165q0 -103 -60 -165.5t-151 -62.5q-84 0 -128 49v-197q0 -27 -15.5 -42.5t-38.5 -15.5t-38.5 15.5t-15.5 42.5v769q0 28 15.5 43t38.5 15t38.5 -15t15.5 -43v-214q45 49 128 49zM314 350q-52 0 -84 -37t-32 -96q0 -60 32 -96.5t84 -36.5
q53 0 85 36.5t32 96.5q0 59 -32.5 96t-84.5 37z" />
    <glyph glyph-name="ydieresis" unicode="&#xff;" 
d="M111 -217q-39 0 -70.5 16.5t-31.5 48.5q0 20 12.5 31.5t29.5 11.5q14 0 35.5 -4.5t31.5 -4.5q42 0 73 40q11 15 30 46.5t23 41.5l-161 344q-11 24 -11 42q0 19 14.5 34t37.5 15q39 0 58 -46l120 -280l119 280q19 46 57 46q24 0 38.5 -14.5t14.5 -34.5q0 -18 -11 -42
l-173 -366q-54 -114 -102 -159.5t-134 -45.5zM198 504q-32 0 -53.5 18.5t-21.5 48.5q0 31 21.5 49t53.5 18t53.5 -18t21.5 -49q0 -30 -21.5 -48.5t-53.5 -18.5zM406 504q-32 0 -53.5 18.5t-21.5 48.5q0 31 21.5 49t53.5 18t53 -18t21 -49q0 -30 -21 -48.5t-53 -18.5z" />
    <glyph glyph-name="Amacron" unicode="&#x100;" 
d="M142 -14q-24 0 -40 16t-16 44v323q0 105 57 164.5t157 59.5q101 0 157.5 -59t56.5 -165v-323q0 -28 -15.5 -44t-39.5 -16t-40 16t-16 44v134h-206v-134q0 -28 -15.5 -44t-39.5 -16zM197 280h206v68q0 71 -23 107t-80 36q-56 0 -79.5 -36t-23.5 -107v-68zM198 760h205
q26 0 41 -12.5t15 -34.5t-15 -34.5t-41 -12.5h-205q-26 0 -41 12.5t-15 34.5t15 34.5t41 12.5z" />
    <glyph glyph-name="amacron" unicode="&#x101;" 
d="M260 -11q-82 0 -136 38t-54 103t54 103t136 38q85 0 141 -36v29q0 43 -29 65t-81 22q-50 0 -94 -20q-2 -1 -14 -6.5t-20.5 -8t-17.5 -2.5q-20 0 -33.5 13.5t-13.5 33.5q0 37 53 58q63 26 145 26q212 0 212 -183v-215q0 -28 -15 -43t-38 -15q-39 0 -50 38
q-53 -38 -145 -38zM197 615h205q26 0 41 -12.5t15 -34.5t-15 -34.5t-41 -12.5h-205q-26 0 -41 12.5t-15 34.5t15 34.5t41 12.5zM291 67q51 0 83.5 17.5t32.5 46.5t-32.5 46t-83.5 17q-49 0 -80.5 -17t-31.5 -46t31.5 -46.5t80.5 -17.5z" />
    <glyph glyph-name="Abreve" unicode="&#x102;" 
d="M142 -14q-24 0 -40 16t-16 44v323q0 105 57 164.5t157 59.5q101 0 157.5 -59t56.5 -165v-323q0 -28 -15.5 -44t-39.5 -16t-40 16t-16 44v134h-206v-134q0 -28 -15.5 -44t-39.5 -16zM197 280h206v68q0 71 -23 107t-80 36q-56 0 -79.5 -36t-23.5 -107v-68zM300 725
q58 0 93 57q12 20 33 20q14 0 24 -10t10 -26q0 -25 -13 -49q-18 -35 -56 -58.5t-91 -23.5t-90.5 22.5t-55.5 57.5q-13 23 -13 51q0 16 9.5 26t23.5 10q21 0 34 -20q33 -57 92 -57z" />
    <glyph glyph-name="abreve" unicode="&#x103;" 
d="M260 -11q-82 0 -136 38t-54 103t54 103t136 38q85 0 141 -36v29q0 43 -29 65t-81 22q-50 0 -94 -20q-2 -1 -14 -6.5t-20.5 -8t-17.5 -2.5q-20 0 -33.5 13.5t-13.5 33.5q0 37 53 58q63 26 145 26q212 0 212 -183v-215q0 -28 -15 -43t-38 -15q-39 0 -50 38
q-53 -38 -145 -38zM300 580q58 0 93 57q12 20 33 20q14 0 24 -10t10 -26q0 -25 -13 -49q-18 -35 -56 -58.5t-91 -23.5t-90.5 22.5t-55.5 57.5q-13 23 -13 51q0 16 9.5 26t23.5 10q21 0 34 -20q33 -57 92 -57zM291 67q51 0 83.5 17.5t32.5 46.5t-32.5 46t-83.5 17
q-49 0 -80.5 -17t-31.5 -46t31.5 -46.5t80.5 -17.5z" />
    <glyph glyph-name="Aogonek" unicode="&#x104;" 
d="M142 -14q-24 0 -40 16t-16 44v323q0 105 57 164.5t157 59.5q101 0 157.5 -59t56.5 -165v-322q0 -23 -9 -37t-33 -25q-37 -21 -37 -52q0 -40 43 -40q9 0 27 5.5t26 5.5q17 0 28 -11t11 -27q0 -25 -29 -39.5t-67 -14.5q-56 0 -89 27.5t-33 73.5q0 53 51 89v178h-206v-134
q0 -28 -15.5 -44t-39.5 -16zM197 280h206v68q0 71 -23 107t-80 36q-56 0 -79.5 -36t-23.5 -107v-68z" />
    <glyph glyph-name="aogonek" unicode="&#x105;" 
d="M260 -11q-82 0 -136 38t-54 103t54 103t136 38q85 0 141 -36v29q0 43 -29 65t-81 22q-50 0 -94 -20q-2 -1 -14 -6.5t-20.5 -8t-17.5 -2.5q-20 0 -33.5 13.5t-13.5 33.5q0 37 53 58q63 26 145 26q212 0 212 -183v-218q0 -25 -9.5 -37t-30.5 -24q-42 -25 -42 -55
q0 -35 44 -35q9 0 27 5.5t26 5.5q17 0 28 -11t11 -27q0 -25 -29 -39.5t-67 -14.5q-55 0 -88.5 26.5t-33.5 67.5q0 31 13.5 52t45.5 44v24q-53 -37 -143 -37zM291 67q51 0 83.5 17.5t32.5 46.5t-32.5 46t-83.5 17q-49 0 -80.5 -17t-31.5 -46t31.5 -46.5t80.5 -17.5z" />
    <glyph glyph-name="Cacute" unicode="&#x106;" 
d="M427 740l-115 -86q-28 -20 -40 -20q-15 0 -25.5 10t-10.5 25q0 16 19 38l96 110q20 23 48 23q20 0 36.5 -14.5t16.5 -36.5q0 -30 -25 -49zM174 290q0 -93 39 -147.5t105 -54.5q57 0 108 44q29 25 53 25q22 0 37 -15t15 -37q0 -23 -16 -40q-32 -37 -87 -58t-112 -21
q-118 0 -187.5 83t-69.5 221t69.5 220.5t187.5 82.5q57 0 112 -21t87 -58q16 -17 16 -40q0 -22 -15 -37t-37 -15q-24 0 -53 25q-51 44 -108 44q-66 0 -105 -54t-39 -147z" />
    <glyph glyph-name="cacute" unicode="&#x107;" 
d="M416 595l-115 -86q-28 -20 -40 -20q-15 0 -25.5 10t-10.5 25q0 16 19 38l96 110q20 23 48 23q20 0 36.5 -14.5t16.5 -36.5q0 -30 -25 -49zM179 217q0 -59 36.5 -95.5t90.5 -36.5q55 0 108 44q27 21 51 21q21 0 35 -14t14 -35q0 -38 -51 -67q-75 -45 -158 -45
q-103 0 -170 64t-67 164t67 164t170 64q83 0 158 -45q51 -29 51 -67q0 -21 -14 -35t-35 -14q-24 0 -51 21q-53 44 -108 44q-54 0 -90.5 -36.5t-36.5 -95.5z" />
    <glyph glyph-name="Ccircumflex" unicode="&#x108;" 
d="M316 718l-90 -76q-20 -15 -37 -15q-13 0 -23 9.5t-10 23.5q0 20 19 38l101 108q19 18 40 18t40 -18l101 -108q19 -18 19 -38q0 -14 -10 -23.5t-23 -9.5q-17 0 -37 15zM174 290q0 -93 39 -147.5t105 -54.5q57 0 108 44q29 25 53 25q22 0 37 -15t15 -37q0 -23 -16 -40
q-32 -37 -87 -58t-112 -21q-118 0 -187.5 83t-69.5 221t69.5 220.5t187.5 82.5q57 0 112 -21t87 -58q16 -17 16 -40q0 -22 -15 -37t-37 -15q-24 0 -53 25q-51 44 -108 44q-66 0 -105 -54t-39 -147z" />
    <glyph glyph-name="ccircumflex" unicode="&#x109;" 
d="M305 573l-90 -76q-20 -15 -37 -15q-13 0 -23 9.5t-10 23.5q0 20 19 38l101 108q19 18 40 18t40 -18l101 -108q19 -18 19 -38q0 -14 -10 -23.5t-23 -9.5q-17 0 -37 15zM179 217q0 -59 36.5 -95.5t90.5 -36.5q55 0 108 44q27 21 51 21q21 0 35 -14t14 -35q0 -38 -51 -67
q-75 -45 -158 -45q-103 0 -170 64t-67 164t67 164t170 64q83 0 158 -45q51 -29 51 -67q0 -21 -14 -35t-35 -14q-24 0 -51 21q-53 44 -108 44q-54 0 -90.5 -36.5t-36.5 -95.5z" />
    <glyph glyph-name="Cdotaccent" unicode="&#x10a;" 
d="M174 290q0 -93 39 -147.5t105 -54.5q57 0 108 44q29 25 53 25q22 0 37 -15t15 -37q0 -23 -16 -40q-32 -37 -87 -58t-112 -21q-118 0 -187.5 83t-69.5 221t69.5 220.5t187.5 82.5q57 0 112 -21t87 -58q16 -17 16 -40q0 -22 -15 -37t-37 -15q-24 0 -53 25q-51 44 -108 44
q-66 0 -105 -54t-39 -147zM316 644q-37 0 -59.5 20t-22.5 54q0 33 23 53t59 20q38 0 60.5 -19.5t22.5 -53.5t-22.5 -54t-60.5 -20z" />
    <glyph glyph-name="cdotaccent" unicode="&#x10b;" 
d="M179 217q0 -59 36.5 -95.5t90.5 -36.5q55 0 108 44q27 21 51 21q21 0 35 -14t14 -35q0 -38 -51 -67q-75 -45 -158 -45q-103 0 -170 64t-67 164t67 164t170 64q83 0 158 -45q51 -29 51 -67q0 -21 -14 -35t-35 -14q-24 0 -51 21q-53 44 -108 44q-54 0 -90.5 -36.5
t-36.5 -95.5zM305 499q-37 0 -59.5 20t-22.5 54q0 33 23 53t59 20q38 0 60.5 -19.5t22.5 -53.5t-22.5 -54t-60.5 -20z" />
    <glyph glyph-name="Ccaron" unicode="&#x10c;" 
d="M226 807l90 -76l90 76q20 15 37 15q13 0 23 -9.5t10 -23.5q0 -20 -19 -38l-101 -108q-19 -18 -40 -18t-40 18l-101 108q-19 18 -19 38q0 14 10 23.5t23 9.5q17 0 37 -15zM174 290q0 -93 39 -147.5t105 -54.5q57 0 108 44q29 25 53 25q22 0 37 -15t15 -37q0 -23 -16 -40
q-32 -37 -87 -58t-112 -21q-118 0 -187.5 83t-69.5 221t69.5 220.5t187.5 82.5q57 0 112 -21t87 -58q16 -17 16 -40q0 -22 -15 -37t-37 -15q-24 0 -53 25q-51 44 -108 44q-66 0 -105 -54t-39 -147z" />
    <glyph glyph-name="ccaron" unicode="&#x10d;" 
d="M215 662l90 -76l90 76q20 15 37 15q13 0 23 -9.5t10 -23.5q0 -20 -19 -38l-101 -108q-19 -18 -40 -18t-40 18l-101 108q-19 18 -19 38q0 14 10 23.5t23 9.5q17 0 37 -15zM179 217q0 -59 36.5 -95.5t90.5 -36.5q55 0 108 44q27 21 51 21q21 0 35 -14t14 -35q0 -38 -51 -67
q-75 -45 -158 -45q-103 0 -170 64t-67 164t67 164t170 64q83 0 158 -45q51 -29 51 -67q0 -21 -14 -35t-35 -14q-24 0 -51 21q-53 44 -108 44q-54 0 -90.5 -36.5t-36.5 -95.5z" />
    <glyph glyph-name="Dcaron" unicode="&#x10e;" 
d="M197 807l90 -76l90 76q20 15 37 15q13 0 23 -9.5t10 -23.5q0 -20 -19 -38l-101 -108q-19 -18 -40 -18t-40 18l-101 108q-19 18 -19 38q0 14 10 23.5t23 9.5q17 0 37 -15zM265 0h-119q-25 0 -40.5 15.5t-15.5 43.5v461q0 28 15.5 43.5t40.5 15.5h119q131 0 205 -81
t74 -209t-74 -208.5t-205 -80.5zM268 479h-67v-379h67q81 0 121 53t40 136t-40 136.5t-121 53.5z" />
    <glyph glyph-name="dcaron" unicode="&#x10f;" 
d="M212 -11q-83 0 -136.5 62.5t-53.5 165.5t54 165.5t136 62.5q79 0 119 -49v214q0 28 15.5 43t38.5 15q24 0 39 -15t15 -43v-563q0 -28 -15 -43t-38 -15q-35 0 -47 29q-1 1 -3 11t-2 11q-40 -51 -122 -51zM235 84q46 0 73.5 36.5t27.5 96.5t-27.5 96.5t-73.5 36.5
t-74 -36.5t-28 -96.5t28 -96.5t74 -36.5zM613 594l-44 -134q-7 -22 -16 -33.5t-26 -11.5q-37 0 -37 42q0 2 0.5 7t0.5 8l18 141q3 26 18 40.5t38 14.5q22 0 37 -13.5t15 -35.5q0 -16 -4 -25z" />
    <glyph glyph-name="Dcroat" unicode="&#x110;" 
d="M265 0h-119q-25 0 -40.5 15.5t-15.5 43.5v188h-19q-52 0 -52 42t52 42h19v189q0 28 15.5 43.5t40.5 15.5h119q131 0 205 -81t74 -209t-74 -208.5t-205 -80.5zM271 247h-70v-147h67q81 0 121 53t40 136t-40 136.5t-121 53.5h-67v-148h70q51 0 51 -42t-51 -42z" />
    <glyph glyph-name="dcroat" unicode="&#x111;" 
d="M317 573h80v37q0 28 15.5 43t38.5 15t38.5 -15t15.5 -43v-37h22q52 0 52 -39t-52 -39h-22v-448q0 -27 -15.5 -42.5t-38.5 -15.5q-37 0 -48 32q-3 6 -3 19q-45 -51 -131 -51q-91 0 -151 62.5t-60 165.5q0 101 60 162.5t151 61.5q82 0 128 -49v103h-80q-52 0 -52 39t52 39z
M286 84q52 0 84 36.5t32 96.5q0 59 -32 96t-84 37t-84.5 -37t-32.5 -96q0 -60 32 -96.5t85 -36.5z" />
    <glyph glyph-name="Emacron" unicode="&#x112;" 
d="M152 0q-25 0 -40.5 15.5t-15.5 43.5v461q0 28 15.5 43.5t40.5 15.5h306q64 0 64 -52t-64 -52q-7 0 -251 4v-137q174 3 177 3q63 0 63 -52q0 -51 -63 -51q-59 0 -177 2v-144q19 0 76 1.5t103.5 2t71.5 0.5q31 0 47.5 -14t16.5 -38q0 -52 -64 -52h-306zM203 760h205
q26 0 41 -12.5t15 -34.5t-15 -34.5t-41 -12.5h-205q-26 0 -41 12.5t-15 34.5t15 34.5t41 12.5z" />
    <glyph glyph-name="emacron" unicode="&#x113;" 
d="M308 -11q-110 0 -177 62t-67 166q0 102 68 165t172 63q95 0 162 -58.5t67 -147.5q0 -23 -13.5 -36.5t-39.5 -13.5h-307q9 -49 46 -78t89 -29q59 0 118 38q28 16 47 16q21 0 34.5 -13t13.5 -33q0 -32 -39 -57q-72 -44 -174 -44zM304 358q-46 0 -81 -24.5t-47 -71.5h252
q-8 46 -42.5 71t-81.5 25zM201 615h205q26 0 41 -12.5t15 -34.5t-15 -34.5t-41 -12.5h-205q-26 0 -41 12.5t-15 34.5t15 34.5t41 12.5z" />
    <glyph glyph-name="Ebreve" unicode="&#x114;" 
d="M152 0q-25 0 -40.5 15.5t-15.5 43.5v461q0 28 15.5 43.5t40.5 15.5h306q64 0 64 -52t-64 -52q-7 0 -251 4v-137q174 3 177 3q63 0 63 -52q0 -51 -63 -51q-59 0 -177 2v-144q19 0 76 1.5t103.5 2t71.5 0.5q31 0 47.5 -14t16.5 -38q0 -52 -64 -52h-306zM305 725q58 0 93 57
q12 20 33 20q14 0 24 -10t10 -26q0 -25 -13 -49q-18 -35 -56 -58.5t-91 -23.5t-90.5 22.5t-55.5 57.5q-13 23 -13 51q0 16 9.5 26t23.5 10q21 0 34 -20q33 -57 92 -57z" />
    <glyph glyph-name="ebreve" unicode="&#x115;" 
d="M308 -11q-110 0 -177 62t-67 166q0 102 68 165t172 63q95 0 162 -58.5t67 -147.5q0 -23 -13.5 -36.5t-39.5 -13.5h-307q9 -49 46 -78t89 -29q59 0 118 38q28 16 47 16q21 0 34.5 -13t13.5 -33q0 -32 -39 -57q-72 -44 -174 -44zM304 358q-46 0 -81 -24.5t-47 -71.5h252
q-8 46 -42.5 71t-81.5 25zM303 580q58 0 93 57q12 20 33 20q14 0 24 -10t10 -26q0 -25 -13 -49q-18 -35 -56 -58.5t-91 -23.5t-90.5 22.5t-55.5 57.5q-13 23 -13 51q0 16 9.5 26t23.5 10q21 0 34 -20q33 -57 92 -57z" />
    <glyph glyph-name="Edotaccent" unicode="&#x116;" 
d="M152 0q-25 0 -40.5 15.5t-15.5 43.5v461q0 28 15.5 43.5t40.5 15.5h306q64 0 64 -52t-64 -52q-7 0 -251 4v-137q174 3 177 3q63 0 63 -52q0 -51 -63 -51q-59 0 -177 2v-144q19 0 76 1.5t103.5 2t71.5 0.5q31 0 47.5 -14t16.5 -38q0 -52 -64 -52h-306zM305 644
q-37 0 -59.5 20t-22.5 54q0 33 23 53t59 20q38 0 60.5 -19.5t22.5 -53.5t-22.5 -54t-60.5 -20z" />
    <glyph glyph-name="edotaccent" unicode="&#x117;" 
d="M308 -11q-110 0 -177 62t-67 166q0 102 68 165t172 63q95 0 162 -58.5t67 -147.5q0 -23 -13.5 -36.5t-39.5 -13.5h-307q9 -49 46 -78t89 -29q59 0 118 38q28 16 47 16q21 0 34.5 -13t13.5 -33q0 -32 -39 -57q-72 -44 -174 -44zM304 358q-46 0 -81 -24.5t-47 -71.5h252
q-8 46 -42.5 71t-81.5 25zM303 499q-37 0 -59.5 20t-22.5 54q0 33 23 53t59 20q38 0 60.5 -19.5t22.5 -53.5t-22.5 -54t-60.5 -20z" />
    <glyph glyph-name="Eogonek" unicode="&#x118;" 
d="M152 0q-25 0 -40.5 15.5t-15.5 43.5v461q0 28 15.5 43.5t40.5 15.5h306q64 0 64 -52t-64 -52q-3 0 -251 4v-137q21 0 61 1t69.5 1.5t46.5 0.5q63 0 63 -52q0 -51 -63 -51q-59 0 -177 2v-144q248 4 251 4q31 0 47.5 -14t16.5 -38q0 -47 -56 -53l-11 -2q-33 -4 -50.5 -21
t-17.5 -41q0 -42 43 -42q9 0 27 5.5t26 5.5q17 0 28 -10.5t11 -27.5q0 -25 -29 -39.5t-67 -14.5q-56 0 -89 27.5t-33 73.5q0 25 12 49t34 38h-198z" />
    <glyph glyph-name="eogonek" unicode="&#x119;" 
d="M308 -11q-111 1 -177.5 63t-66.5 165q0 102 68 165t172 63q95 0 162 -58.5t67 -147.5q0 -23 -13.5 -36.5t-39.5 -13.5h-307q9 -49 46 -78t89 -29q59 0 118 38q28 16 47 16q21 0 34.5 -13t13.5 -33q0 -32 -39 -57q-4 -3 -21.5 -12.5t-28.5 -16.5q-47 -31 -47 -69
q0 -42 44 -42q9 0 27 5.5t25 5.5q17 0 28 -10.5t11 -27.5q0 -25 -29 -39.5t-66 -14.5q-57 0 -90 27.5t-33 73.5q0 47 38 79q-15 -3 -32 -3zM304 358q-46 0 -81 -24.5t-47 -71.5h252q-8 46 -42.5 71t-81.5 25z" />
    <glyph glyph-name="Ecaron" unicode="&#x11a;" 
d="M215 807l90 -76l90 76q20 15 37 15q13 0 23 -9.5t10 -23.5q0 -20 -19 -38l-101 -108q-19 -18 -40 -18t-40 18l-101 108q-19 18 -19 38q0 14 10 23.5t23 9.5q17 0 37 -15zM152 0q-25 0 -40.5 15.5t-15.5 43.5v461q0 28 15.5 43.5t40.5 15.5h306q64 0 64 -52t-64 -52
q-7 0 -251 4v-137q174 3 177 3q63 0 63 -52q0 -51 -63 -51q-59 0 -177 2v-144q19 0 76 1.5t103.5 2t71.5 0.5q31 0 47.5 -14t16.5 -38q0 -52 -64 -52h-306z" />
    <glyph glyph-name="ecaron" unicode="&#x11b;" 
d="M213 662l90 -76l90 76q20 15 37 15q13 0 23 -9.5t10 -23.5q0 -20 -19 -38l-101 -108q-19 -18 -40 -18t-40 18l-101 108q-19 18 -19 38q0 14 10 23.5t23 9.5q17 0 37 -15zM308 -11q-110 0 -177 62t-67 166q0 102 68 165t172 63q95 0 162 -58.5t67 -147.5
q0 -23 -13.5 -36.5t-39.5 -13.5h-307q9 -49 46 -78t89 -29q59 0 118 38q28 16 47 16q21 0 34.5 -13t13.5 -33q0 -32 -39 -57q-72 -44 -174 -44zM304 358q-46 0 -81 -24.5t-47 -71.5h252q-8 46 -42.5 71t-81.5 25z" />
    <glyph glyph-name="Gcircumflex" unicode="&#x11c;" 
d="M311 718l-90 -76q-20 -15 -37 -15q-13 0 -23 9.5t-10 23.5q0 20 19 38l101 108q19 18 40 18t40 -18l101 -108q19 -18 19 -38q0 -14 -10 -23.5t-23 -9.5q-17 0 -37 15zM312 -12q-120 0 -190 84t-70 218q0 138 69 220.5t189 82.5q56 0 110.5 -20t81.5 -50q20 -21 20 -43
t-15 -37.5t-37 -15.5q-21 0 -52 23q-49 41 -106 41q-69 0 -107 -55t-38 -146q0 -93 39.5 -147t111.5 -54q61 0 99 26v105q-40 -2 -59 -2q-64 0 -64 52t61 52h116q24 0 40 -16t16 -44v-169q0 -36 -29 -55q-78 -50 -186 -50z" />
    <glyph glyph-name="gcircumflex" unicode="&#x11d;" 
d="M289 573l-90 -76q-20 -15 -37 -15q-13 0 -23 9.5t-10 23.5q0 20 19 38l101 108q19 18 40 18t40 -18l101 -108q19 -18 19 -38q0 -14 -10 -23.5t-23 -9.5q-17 0 -37 15zM188 101q0 -25 23 -37q42 6 72 6q111 0 173.5 -38.5t62.5 -105.5q0 -66 -62.5 -104.5t-173.5 -38.5
t-174 38.5t-63 104.5q0 74 76 113q-30 25 -30 62q0 45 40 68q-67 45 -67 119q0 70 58.5 113.5t150.5 43.5q49 0 92 -16q112 8 152 8q57 0 57 -41t-55 -41q-6 0 -62 4q22 -33 22 -71q0 -69 -59 -113t-148 -44q-28 0 -61 7q-24 -13 -24 -37zM283 -139q57 0 93 17.5t36 47.5
t-36 47.5t-93 17.5t-93 -17.5t-36 -47.5t36 -47.5t93 -17.5zM272 209q47 0 77.5 21.5t30.5 57.5q0 35 -30 57t-78 22q-46 0 -76.5 -22t-30.5 -57t30.5 -57t76.5 -22z" />
    <glyph glyph-name="Gbreve" unicode="&#x11e;" 
d="M312 -12q-120 0 -190 84t-70 218q0 138 69 220.5t189 82.5q56 0 110.5 -20t81.5 -50q20 -21 20 -43t-15 -37.5t-37 -15.5q-21 0 -52 23q-49 41 -106 41q-69 0 -107 -55t-38 -146q0 -93 39.5 -147t111.5 -54q61 0 99 26v105q-40 -2 -59 -2q-64 0 -64 52t61 52h116
q24 0 40 -16t16 -44v-169q0 -36 -29 -55q-78 -50 -186 -50zM310 725q58 0 93 57q12 20 33 20q14 0 24 -10t10 -26q0 -25 -13 -49q-18 -35 -56 -58.5t-91 -23.5t-90.5 22.5t-55.5 57.5q-13 23 -13 51q0 16 9.5 26t23.5 10q21 0 34 -20q33 -57 92 -57z" />
    <glyph glyph-name="gbreve" unicode="&#x11f;" 
d="M188 101q0 -25 23 -37q42 6 72 6q111 0 173.5 -38.5t62.5 -105.5q0 -66 -62.5 -104.5t-173.5 -38.5t-174 38.5t-63 104.5q0 74 76 113q-30 25 -30 62q0 45 40 68q-67 45 -67 119q0 70 58.5 113.5t150.5 43.5q49 0 92 -16q112 8 152 8q57 0 57 -41t-55 -41q-6 0 -62 4
q22 -33 22 -71q0 -69 -59 -113t-148 -44q-28 0 -61 7q-24 -13 -24 -37zM283 -139q57 0 93 17.5t36 47.5t-36 47.5t-93 17.5t-93 -17.5t-36 -47.5t36 -47.5t93 -17.5zM272 209q47 0 77.5 21.5t30.5 57.5q0 35 -30 57t-78 22q-46 0 -76.5 -22t-30.5 -57t30.5 -57t76.5 -22z
M289 580q58 0 93 57q12 20 33 20q14 0 24 -10t10 -26q0 -25 -13 -49q-18 -35 -56 -58.5t-91 -23.5t-90.5 22.5t-55.5 57.5q-13 23 -13 51q0 16 9.5 26t23.5 10q21 0 34 -20q33 -57 92 -57z" />
    <glyph glyph-name="Gdotaccent" unicode="&#x120;" 
d="M312 -12q-120 0 -190 84t-70 218q0 138 69 220.5t189 82.5q56 0 110.5 -20t81.5 -50q20 -21 20 -43t-15 -37.5t-37 -15.5q-21 0 -52 23q-49 41 -106 41q-69 0 -107 -55t-38 -146q0 -93 39.5 -147t111.5 -54q61 0 99 26v105q-40 -2 -59 -2q-64 0 -64 52t61 52h116
q24 0 40 -16t16 -44v-169q0 -36 -29 -55q-78 -50 -186 -50zM311 644q-37 0 -59.5 20t-22.5 54q0 33 23 53t59 20q38 0 60.5 -19.5t22.5 -53.5t-22.5 -54t-60.5 -20z" />
    <glyph glyph-name="gdotaccent" unicode="&#x121;" 
d="M188 101q0 -25 23 -37q42 6 72 6q111 0 173.5 -38.5t62.5 -105.5q0 -66 -62.5 -104.5t-173.5 -38.5t-174 38.5t-63 104.5q0 74 76 113q-30 25 -30 62q0 45 40 68q-67 45 -67 119q0 70 58.5 113.5t150.5 43.5q49 0 92 -16q112 8 152 8q57 0 57 -41t-55 -41q-6 0 -62 4
q22 -33 22 -71q0 -69 -59 -113t-148 -44q-28 0 -61 7q-24 -13 -24 -37zM283 -139q57 0 93 17.5t36 47.5t-36 47.5t-93 17.5t-93 -17.5t-36 -47.5t36 -47.5t93 -17.5zM272 209q47 0 77.5 21.5t30.5 57.5q0 35 -30 57t-78 22q-46 0 -76.5 -22t-30.5 -57t30.5 -57t76.5 -22z
M289 499q-37 0 -59.5 20t-22.5 54q0 33 23 53t59 20q38 0 60.5 -19.5t22.5 -53.5t-22.5 -54t-60.5 -20z" />
    <glyph glyph-name="Gcommaaccent" unicode="&#x122;" 
d="M301 -310q-19 -15 -35 -15q-11 0 -18 6t-7 16q0 13 17 30q45 40 47 78q-36 -2 -58 16t-22 49q0 29 20.5 48t55.5 19q39 0 61 -24t22 -65q0 -46 -24.5 -90t-58.5 -68zM312 -12q-120 0 -190 84t-70 218q0 138 69 220.5t189 82.5q56 0 110.5 -20t81.5 -50q20 -21 20 -43
t-15 -37.5t-37 -15.5q-21 0 -52 23q-49 41 -106 41q-69 0 -107 -55t-38 -146q0 -93 39.5 -147t111.5 -54q61 0 99 26v105q-40 -2 -59 -2q-64 0 -64 52t61 52h116q24 0 40 -16t16 -44v-169q0 -36 -29 -55q-78 -50 -186 -50z" />
    <glyph glyph-name="gcommaaccent" unicode="&#x123;" 
d="M188 101q0 -25 23 -37q42 6 72 6q111 0 173.5 -38.5t62.5 -105.5q0 -66 -62.5 -104.5t-173.5 -38.5t-174 38.5t-63 104.5q0 74 76 113q-30 25 -30 62q0 45 40 68q-67 45 -67 119q0 70 58.5 113.5t150.5 43.5q49 0 92 -16q112 8 152 8q57 0 57 -41t-55 -41q-6 0 -62 4
q22 -33 22 -71q0 -69 -59 -113t-148 -44q-28 0 -61 7q-24 -13 -24 -37zM283 -139q57 0 93 17.5t36 47.5t-36 47.5t-93 17.5t-93 -17.5t-36 -47.5t36 -47.5t93 -17.5zM272 209q47 0 77.5 21.5t30.5 57.5q0 35 -30 57t-78 22q-46 0 -76.5 -22t-30.5 -57t30.5 -57t76.5 -22z
M293 739q21 15 35 15q11 0 18 -6.5t7 -16.5q0 -14 -18 -29q-44 -39 -46 -79q36 2 58 -16t22 -48t-21 -49t-56 -19q-38 0 -60.5 24t-22.5 65q0 46 25 90t59 69z" />
    <glyph glyph-name="Hcircumflex" unicode="&#x124;" 
d="M299 718l-90 -76q-20 -15 -37 -15q-13 0 -23 9.5t-10 23.5q0 20 19 38l101 108q19 18 40 18t40 -18l101 -108q19 -18 19 -38q0 -14 -10 -23.5t-23 -9.5q-17 0 -37 15zM143 -14q-24 0 -39.5 16t-15.5 44v487q0 28 15.5 44t39.5 16t40 -16t16 -44v-187h202v187
q0 28 15.5 44t39.5 16t40 -16t16 -44v-487q0 -28 -16 -44t-40 -16t-39.5 16t-15.5 44v199h-202v-199q0 -28 -16 -44t-40 -16z" />
    <glyph glyph-name="hcircumflex" unicode="&#x125;" 
d="M154 757l-90 -76q-20 -15 -37 -15q-13 0 -23 9.5t-10 23.5q0 20 19 38l101 108q19 18 40 18t40 -18l101 -108q19 -18 19 -38q0 -14 -10 -23.5t-23 -9.5q-17 0 -37 15zM208 237v-190q0 -28 -15 -43t-39 -15t-39 15.5t-15 42.5v563q0 28 15 43t39 15t39 -15t15 -43v-211
q44 46 122 46q82 0 129.5 -47t47.5 -130v-221q0 -28 -15.5 -43t-39.5 -15q-23 0 -38 15t-15 43v191q0 111 -94 111q-97 0 -97 -112z" />
    <glyph glyph-name="Hbar" unicode="&#x126;" 
d="M143 -14q-24 0 -39.5 16t-15.5 44v358h-13q-52 0 -52 42t52 42h13v45q0 28 15.5 44t39.5 16t40 -16t16 -44v-47h202v47q0 28 15.5 44t39.5 16t40 -16t16 -44v-45h14q51 0 51 -42t-51 -42h-14v-358q0 -28 -16 -44t-40 -16t-39.5 16t-15.5 44v176h-202v-176q0 -28 -16 -44
t-40 -16zM199 323h202v83h-202v-83z" />
    <glyph glyph-name="hbar" unicode="&#x127;" 
d="M78 573h22v37q0 28 15 43t39 15t39 -15t15 -43v-37h80q52 0 52 -39t-52 -39h-80v-99q43 45 122 45q82 0 129.5 -45.5t47.5 -127.5v-221q0 -28 -15 -43t-39 -15q-23 0 -38 15t-15 43v191q0 111 -95 111q-97 0 -97 -112v-190q0 -28 -15 -43t-39 -15t-39 15.5t-15 42.5v448
h-22q-52 0 -52 39t52 39z" />
    <glyph glyph-name="Itilde" unicode="&#x128;" 
d="M244 100v379q-4 0 -43 -2t-54 -2q-64 0 -64 52t64 52h305q64 0 64 -52t-64 -52q-15 0 -54 2t-43 2v-379q4 0 43 2t54 2q31 0 47.5 -14t16.5 -38q0 -52 -64 -52h-305q-64 0 -64 52q0 24 16.5 38t47.5 14q15 0 54 -2t43 -2zM369 642q-34 0 -79.5 29.5t-55.5 29.5
q-19 0 -32 -32q-10 -26 -34 -26q-15 0 -25.5 10.5t-10.5 27.5q0 43 28 75.5t70 32.5q34 0 79 -29.5t55 -29.5q20 0 33 32q10 26 33 26q16 0 26 -10.5t10 -27.5q0 -43 -28 -75.5t-69 -32.5z" />
    <glyph glyph-name="itilde" unicode="&#x129;" 
d="M470 97q29 0 44.5 -13t15.5 -35q0 -23 -15.5 -36t-42.5 -13h-337q-26 0 -41.5 13t-15.5 36q0 48 60 48q46 0 133 -5v250q-77 -5 -124 -5q-60 0 -60 48q0 23 15.5 36t41.5 13h179q25 0 39.5 -14t14.5 -37v-291q55 5 93 5zM386 497q-34 0 -79.5 29.5t-55.5 29.5
q-19 0 -32 -32q-10 -26 -34 -26q-15 0 -25.5 10.5t-10.5 27.5q0 43 28 75.5t70 32.5q34 0 79 -29.5t55 -29.5q20 0 33 32q10 26 33 26q16 0 26 -10.5t10 -27.5q0 -43 -28 -75.5t-69 -32.5z" />
    <glyph glyph-name="Imacron" unicode="&#x12a;" 
d="M244 100v379q-4 0 -43 -2t-54 -2q-64 0 -64 52t64 52h305q64 0 64 -52t-64 -52q-15 0 -54 2t-43 2v-379q4 0 43 2t54 2q31 0 47.5 -14t16.5 -38q0 -52 -64 -52h-305q-64 0 -64 52q0 24 16.5 38t47.5 14q15 0 54 -2t43 -2zM197 760h205q26 0 41 -12.5t15 -34.5t-15 -34.5
t-41 -12.5h-205q-26 0 -41 12.5t-15 34.5t15 34.5t41 12.5z" />
    <glyph glyph-name="imacron" unicode="&#x12b;" 
d="M470 97q29 0 44.5 -13t15.5 -35q0 -23 -15.5 -36t-42.5 -13h-337q-26 0 -41.5 13t-15.5 36q0 48 60 48q46 0 133 -5v250q-77 -5 -124 -5q-60 0 -60 48q0 23 15.5 36t41.5 13h179q25 0 39.5 -14t14.5 -37v-291q55 5 93 5zM214 615h205q26 0 41 -12.5t15 -34.5t-15 -34.5
t-41 -12.5h-205q-26 0 -41 12.5t-15 34.5t15 34.5t41 12.5z" />
    <glyph glyph-name="Ibreve" unicode="&#x12c;" 
d="M244 100v379q-4 0 -43 -2t-54 -2q-64 0 -64 52t64 52h305q64 0 64 -52t-64 -52q-15 0 -54 2t-43 2v-379q4 0 43 2t54 2q31 0 47.5 -14t16.5 -38q0 -52 -64 -52h-305q-64 0 -64 52q0 24 16.5 38t47.5 14q15 0 54 -2t43 -2zM299 725q58 0 93 57q12 20 33 20q14 0 24 -10
t10 -26q0 -25 -13 -49q-18 -35 -56 -58.5t-91 -23.5t-90.5 22.5t-55.5 57.5q-13 23 -13 51q0 16 9.5 26t23.5 10q21 0 34 -20q33 -57 92 -57z" />
    <glyph glyph-name="ibreve" unicode="&#x12d;" 
d="M470 97q29 0 44.5 -13t15.5 -35q0 -23 -15.5 -36t-42.5 -13h-337q-26 0 -41.5 13t-15.5 36q0 48 60 48q46 0 133 -5v250q-77 -5 -124 -5q-60 0 -60 48q0 23 15.5 36t41.5 13h179q25 0 39.5 -14t14.5 -37v-291q55 5 93 5zM315 580q58 0 93 57q12 20 33 20q14 0 24 -10
t10 -26q0 -25 -13 -49q-18 -35 -56 -58.5t-91 -23.5t-90.5 22.5t-55.5 57.5q-13 23 -13 51q0 16 9.5 26t23.5 10q21 0 34 -20q33 -57 92 -57z" />
    <glyph glyph-name="Iogonek" unicode="&#x12e;" 
d="M244 100v379q-4 0 -43 -2t-54 -2q-64 0 -64 52t64 52h305q64 0 64 -52t-64 -52q-15 0 -54 2t-43 2v-379q92 4 97 4q31 0 47.5 -14t16.5 -38q0 -52 -64 -52h-125q-37 -30 -37 -65q0 -42 44 -42q9 0 27 5.5t26 5.5q17 0 28 -11t11 -27q0 -25 -29 -39.5t-67 -14.5
q-56 0 -89 28t-33 74q0 51 40 86h-101q-64 0 -64 52q0 24 16.5 38t47.5 14q5 0 97 -4z" />
    <glyph glyph-name="iogonek" unicode="&#x12f;" 
d="M470 97q29 0 44.5 -13t15.5 -35q0 -23 -15.5 -36t-42.5 -13h-124q-38 -29 -38 -65q0 -42 44 -42q9 0 27 5.5t26 5.5q17 0 28 -11t11 -27q0 -25 -29 -39.5t-67 -14.5q-56 0 -89 28t-33 74q0 49 40 86h-133q-26 0 -41.5 13t-15.5 36q0 48 60 48q51 0 133 -5v250
q-75 -5 -124 -5q-60 0 -60 48q0 23 15.5 36t41.5 13h179q25 0 39.5 -14t14.5 -37v-291q60 5 93 5zM318 510q-37 0 -60.5 20t-23.5 54t23.5 54t60.5 20q39 0 62 -20t23 -54t-23 -54t-62 -20z" />
    <glyph glyph-name="Idotaccent" unicode="&#x130;" 
d="M244 100v379q-4 0 -43 -2t-54 -2q-64 0 -64 52t64 52h305q64 0 64 -52t-64 -52q-15 0 -54 2t-43 2v-379q4 0 43 2t54 2q31 0 47.5 -14t16.5 -38q0 -52 -64 -52h-305q-64 0 -64 52q0 24 16.5 38t47.5 14q15 0 54 -2t43 -2zM300 644q-37 0 -59.5 20t-22.5 54q0 33 23 53
t59 20q38 0 60.5 -19.5t22.5 -53.5t-22.5 -54t-60.5 -20z" />
    <glyph glyph-name="dotlessi" unicode="&#x131;" 
d="M470 97q29 0 44.5 -13t15.5 -35q0 -23 -15.5 -36t-42.5 -13h-337q-26 0 -41.5 13t-15.5 36q0 48 60 48q46 0 133 -5v250q-77 -5 -124 -5q-60 0 -60 48q0 23 15.5 36t41.5 13h179q25 0 39.5 -14t14.5 -37v-291q55 5 93 5z" />
    <glyph glyph-name="IJ" unicode="&#x132;" 
d="M299 -14q-95 0 -153.5 57t-58.5 151q0 61 54 61q51 0 60 -65q7 -102 98 -102q56 0 80 35t24 106v304q0 28 15.5 44t39.5 16t40 -16t16 -44v-323q0 -106 -57.5 -165t-157.5 -59zM143 340q-24 0 -39.5 16t-15.5 44v133q0 28 15.5 44t39.5 16t40 -16t16 -44v-133
q0 -28 -16 -44t-40 -16z" />
    <glyph glyph-name="ij" unicode="&#x133;" 
d="M156 510q-38 0 -61.5 20t-23.5 54t23.5 54t61.5 20q39 0 62 -20t23 -54t-23 -54t-62 -20zM446 510q-38 0 -61.5 20t-23.5 54t23.5 54t61.5 20t61 -20t23 -54t-23 -54t-61 -20zM103 47v340q0 27 15.5 42.5t38.5 15.5q24 0 39 -15.5t15 -42.5v-340q0 -28 -15 -43t-39 -15
q-23 0 -38.5 15.5t-15.5 42.5zM392 1v386q0 27 15 42.5t38 15.5q24 0 39 -15.5t15 -42.5v-387q0 -110 -51.5 -163.5t-156.5 -53.5q-47 0 -85 12q-52 14 -52 55q0 21 14.5 34.5t36.5 13.5q12 0 36 -6q34 -10 59 -10q92 0 92 119z" />
    <glyph glyph-name="Jcircumflex" unicode="&#x134;" 
d="M448 718l-90 -76q-20 -15 -37 -15q-13 0 -23 9.5t-10 23.5q0 20 19 38l101 108q19 18 40 18t40 -18l101 -108q19 -18 19 -38q0 -14 -10 -23.5t-23 -9.5q-17 0 -37 15zM284 -14q-107 0 -163.5 64t-56.5 175q0 35 15.5 52.5t40.5 17.5q55 0 55 -67q0 -139 109 -139
q110 0 110 144v300q0 28 15.5 44t39.5 16t40 -16t16 -44v-320q0 -107 -59.5 -167t-161.5 -60z" />
    <glyph glyph-name="jcircumflex" unicode="&#x135;" 
d="M160 434h213q25 0 39.5 -14t14.5 -37v-383q0 -217 -209 -217q-46 0 -84 12q-53 14 -53 55q0 21 15 34.5t37 13.5q13 0 35 -6q36 -10 60 -10q91 0 91 119v340q-132 -4 -156 -4q-60 0 -60 48q0 23 15.5 36t41.5 13zM366 573l-90 -76q-20 -15 -37 -15q-13 0 -23 9.5
t-10 23.5q0 20 19 38l101 108q19 18 40 18t40 -18l101 -108q19 -18 19 -38q0 -14 -10 -23.5t-23 -9.5q-17 0 -37 15z" />
    <glyph glyph-name="Kcommaaccent" unicode="&#x136;" 
d="M324 -310q-19 -15 -35 -15q-11 0 -18 6t-7 16q0 13 17 30q45 40 47 78q-36 -2 -58 16t-22 49q0 29 20.5 48t55.5 19q39 0 61 -24t22 -65q0 -46 -24.5 -90t-58.5 -68zM500 -14q-30 0 -56 34l-171 230l-65 -67v-137q0 -28 -16 -44t-40 -16t-39.5 16t-15.5 44v487
q0 28 15.5 44t39.5 16t40 -16t16 -44v-200l218 234q23 26 51 26q23 0 38 -14.5t15 -36.5q0 -28 -27 -55l-150 -154l179 -239q22 -31 22 -55q0 -22 -14.5 -37.5t-39.5 -15.5z" />
    <glyph glyph-name="kcommaaccent" unicode="&#x137;" 
d="M300 -310q-19 -15 -35 -15q-11 0 -18 6t-7 16q0 13 17 30q45 40 47 78q-36 -2 -58 16t-22 49q0 29 20.5 48t55.5 19q39 0 61 -24t22 -65q0 -46 -24.5 -90t-58.5 -68zM481 -11q-29 0 -51 27l-147 182l-75 -52v-99q0 -28 -15 -43t-39 -15t-39 15.5t-15 42.5v563
q0 28 15.5 43t39.5 15q23 0 38 -15t15 -43v-344l211 156q33 23 57 23q23 0 37 -14.5t14 -37.5q0 -32 -35 -55l-120 -82l136 -163q25 -30 25 -53q0 -21 -14 -36t-38 -15z" />
    <glyph glyph-name="kgreenlandic" unicode="&#x138;" 
d="M480 -11q-29 0 -51 27l-147 182l-75 -52v-99q0 -28 -15 -43t-39 -15q-23 0 -38 15t-15 43v340q0 27 15 42.5t39 15.5q23 0 38 -15.5t15 -42.5v-121l211 156q33 23 57 23q23 0 37 -14.5t14 -37.5q0 -32 -35 -55l-120 -82l136 -163q25 -30 25 -53q0 -21 -14 -36t-38 -15z
" />
    <glyph glyph-name="Lacute" unicode="&#x139;" 
d="M265 740l-115 -86q-28 -20 -40 -20q-15 0 -25.5 10t-10.5 25q0 16 19 38l96 110q20 23 48 23q20 0 36.5 -14.5t16.5 -36.5q0 -30 -25 -49zM98 59v474q0 28 16 44t40 16t39.5 -16t15.5 -44v-433q248 4 256 4q31 0 47.5 -14t16.5 -38q0 -25 -17 -38.5t-47 -13.5h-311
q-24 0 -40 15.5t-16 43.5z" />
    <glyph glyph-name="lacute" unicode="&#x13a;" 
d="M418 812l-115 -86q-28 -20 -40 -20q-15 0 -25.5 10t-10.5 25q0 16 19 38l96 110q20 23 48 23q20 0 36.5 -14.5t16.5 -36.5q0 -30 -25 -49zM254 92v473q-78 -5 -117 -5q-60 0 -60 48q0 23 15.5 36t41.5 13h174q25 0 39.5 -14t14.5 -37v-514q65 5 110 5q60 0 60 -48
q0 -23 -15.5 -36t-41.5 -13h-345q-26 0 -41.5 13t-15.5 36q0 48 59 48q47 0 122 -5z" />
    <glyph glyph-name="Lcommaaccent" unicode="&#x13b;" 
d="M313 -310q-19 -15 -35 -15q-11 0 -18 6t-7 16q0 13 17 30q45 40 47 78q-36 -2 -58 16t-22 49q0 29 20.5 48t55.5 19q39 0 61 -24t22 -65q0 -46 -24.5 -90t-58.5 -68zM98 59v474q0 28 16 44t40 16t39.5 -16t15.5 -44v-433q248 4 256 4q31 0 47.5 -14t16.5 -38
q0 -25 -17 -38.5t-47 -13.5h-311q-24 0 -40 15.5t-16 43.5z" />
    <glyph glyph-name="lcommaaccent" unicode="&#x13c;" 
d="M299 -310q-19 -15 -35 -15q-11 0 -18 6t-7 16q0 13 17 30q45 40 47 78q-36 -2 -58 16t-22 49q0 29 20.5 48t55.5 19q39 0 61 -24t22 -65q0 -46 -24.5 -90t-58.5 -68zM254 92v473q-78 -5 -117 -5q-60 0 -60 48q0 23 15.5 36t41.5 13h174q25 0 39.5 -14t14.5 -37v-514
q65 5 110 5q60 0 60 -48q0 -23 -15.5 -36t-41.5 -13h-345q-26 0 -41.5 13t-15.5 36q0 48 59 48q47 0 122 -5z" />
    <glyph glyph-name="Lcaron" unicode="&#x13d;" 
d="M497 518l-44 -134q-5 -15 -9 -23t-12.5 -15t-20.5 -7q-37 0 -37 42q0 5 2 15l17 141q3 26 18 40.5t38 14.5q22 0 37 -13.5t15 -35.5q0 -16 -4 -25zM98 59v474q0 28 16 44t40 16t39.5 -16t15.5 -44v-433q248 4 256 4q31 0 47.5 -14t16.5 -38q0 -25 -17 -38.5t-47 -13.5
h-311q-24 0 -40 15.5t-16 43.5z" />
    <glyph glyph-name="lcaron" unicode="&#x13e;" 
d="M239 92v474q-70 -5 -118 -5q-60 0 -60 48q0 23 15.5 36t41.5 13h175q25 0 39.5 -14t14.5 -37v-515q63 5 107 5q29 0 44.5 -13t15.5 -35q0 -23 -15.5 -36t-42.5 -13h-339q-26 0 -41.5 13t-15.5 36q0 48 59 48q45 0 120 -5zM553 594l-44 -134q-7 -22 -16 -33.5t-26 -11.5
q-37 0 -37 42q0 2 0.5 7t0.5 8l18 141q3 26 18 40.5t38 14.5q22 0 37 -13.5t15 -35.5q0 -16 -4 -25z" />
    <glyph glyph-name="Ldot" unicode="&#x13f;" 
d="M98 59v474q0 28 16 44t40 16t39.5 -16t15.5 -44v-433q248 4 256 4q31 0 47.5 -14t16.5 -38q0 -25 -17 -38.5t-47 -13.5h-311q-24 0 -40 15.5t-16 43.5zM408 221q-37 0 -59.5 20t-22.5 54q0 33 23 53t59 20q38 0 60.5 -19.5t22.5 -53.5t-22.5 -54t-60.5 -20z" />
    <glyph glyph-name="ldot" unicode="&#x140;" 
d="M224 92v473q-77 -5 -117 -5q-60 0 -60 48q0 23 15.5 36t41.5 13h174q25 0 39.5 -14t14.5 -37v-514q65 5 110 5q60 0 60 -48q0 -23 -15.5 -36t-41.5 -13h-345q-26 0 -41.5 13t-15.5 36q0 48 59 48q47 0 122 -5zM497 218q-37 0 -59.5 20t-22.5 54q0 33 23 53t59 20
q38 0 60.5 -19.5t22.5 -53.5t-22.5 -54t-60.5 -20z" />
    <glyph glyph-name="Lslash" unicode="&#x141;" 
d="M154 0q-24 0 -40 15.5t-16 43.5v191l-23 -6q-18 -2 -23 -2q-18 0 -29.5 10t-11.5 29q0 35 44 46l43 11v195q0 28 16 44t40 16t39.5 -16t15.5 -44v-167l99 25q14 3 23 3q17 0 29 -10.5t12 -29.5q0 -34 -44 -45l-119 -30v-179q236 4 256 4q31 0 47.5 -14t16.5 -38
q0 -25 -17 -38.5t-47 -13.5h-311z" />
    <glyph glyph-name="lslash" unicode="&#x142;" 
d="M254 92v170l-65 -16q-12 -3 -23 -3q-17 0 -28.5 10t-11.5 28q0 33 44 44l84 21v220q-68 -5 -117 -5q-60 0 -60 48q0 23 15.5 36t41.5 13h174q25 0 39.5 -14t14.5 -37v-234l61 16q13 3 23 3q17 0 28.5 -10t11.5 -28q0 -32 -43 -44l-81 -21v-197q65 5 110 5q60 0 60 -48
q0 -23 -15.5 -36t-41.5 -13h-345q-26 0 -41.5 13t-15.5 36q0 48 59 48q34 0 122 -5z" />
    <glyph glyph-name="Nacute" unicode="&#x143;" 
d="M411 740l-115 -86q-28 -20 -40 -20q-15 0 -25.5 10t-10.5 25q0 16 19 38l96 110q20 23 48 23q20 0 36.5 -14.5t16.5 -36.5q0 -30 -25 -49zM515 533v-487q0 -29 -14.5 -44.5t-38.5 -15.5q-22 0 -35 11.5t-28 36.5l-203 333v-321q0 -28 -15.5 -44t-39.5 -16t-40 16t-16 44
v486q0 29 14.5 45t38.5 16q22 0 35 -11.5t28 -36.5l203 -338v326q0 28 15.5 44t39.5 16t40 -16t16 -44z" />
    <glyph glyph-name="nacute" unicode="&#x144;" 
d="M454 -11q-24 0 -39 15.5t-15 42.5v191q0 111 -95 111q-97 0 -97 -112v-190q0 -28 -15 -43t-39 -15t-39 15.5t-15 42.5v340q0 27 15.5 42.5t38.5 15.5q21 0 36 -13t15 -35q43 48 125 48t130 -47t48 -130v-221q0 -28 -15 -43t-39 -15zM415 595l-115 -86q-28 -20 -40 -20
q-15 0 -25.5 10t-10.5 25q0 16 19 38l96 110q20 23 48 23q20 0 36.5 -14.5t16.5 -36.5q0 -30 -25 -49z" />
    <glyph glyph-name="Ncommaaccent" unicode="&#x145;" 
d="M297 -310q-19 -15 -35 -15q-11 0 -18 6t-7 16q0 13 17 30q45 40 47 78q-36 -2 -58 16t-22 49q0 29 20.5 48t55.5 19q39 0 61 -24t22 -65q0 -46 -24.5 -90t-58.5 -68zM515 533v-487q0 -29 -14.5 -44.5t-38.5 -15.5q-22 0 -35 11.5t-28 36.5l-203 333v-321q0 -28 -15.5 -44
t-39.5 -16t-40 16t-16 44v486q0 29 14.5 45t38.5 16q22 0 35 -11.5t28 -36.5l203 -338v326q0 28 15.5 44t39.5 16t40 -16t16 -44z" />
    <glyph glyph-name="ncommaaccent" unicode="&#x146;" 
d="M454 -11q-24 0 -39 15.5t-15 42.5v191q0 111 -95 111q-97 0 -97 -112v-190q0 -28 -15 -43t-39 -15t-39 15.5t-15 42.5v340q0 27 15.5 42.5t38.5 15.5q21 0 36 -13t15 -35q43 48 125 48t130 -47t48 -130v-221q0 -28 -15 -43t-39 -15zM300 -310q-19 -15 -35 -15
q-11 0 -18 6t-7 16q0 13 17 30q45 40 47 78q-36 -2 -58 16t-22 49q0 29 20.5 48t55.5 19q39 0 61 -24t22 -65q0 -46 -24.5 -90t-58.5 -68z" />
    <glyph glyph-name="Ncaron" unicode="&#x147;" 
d="M210 807l90 -76l90 76q20 15 37 15q13 0 23 -9.5t10 -23.5q0 -20 -19 -38l-101 -108q-19 -18 -40 -18t-40 18l-101 108q-19 18 -19 38q0 14 10 23.5t23 9.5q17 0 37 -15zM515 533v-487q0 -29 -14.5 -44.5t-38.5 -15.5q-22 0 -35 11.5t-28 36.5l-203 333v-321
q0 -28 -15.5 -44t-39.5 -16t-40 16t-16 44v486q0 29 14.5 45t38.5 16q22 0 35 -11.5t28 -36.5l203 -338v326q0 28 15.5 44t39.5 16t40 -16t16 -44z" />
    <glyph glyph-name="ncaron" unicode="&#x148;" 
d="M454 -11q-24 0 -39 15.5t-15 42.5v191q0 111 -95 111q-97 0 -97 -112v-190q0 -28 -15 -43t-39 -15t-39 15.5t-15 42.5v340q0 27 15.5 42.5t38.5 15.5q21 0 36 -13t15 -35q43 48 125 48t130 -47t48 -130v-221q0 -28 -15 -43t-39 -15zM213 662l90 -76l90 76q20 15 37 15
q13 0 23 -9.5t10 -23.5q0 -20 -19 -38l-101 -108q-19 -18 -40 -18t-40 18l-101 108q-19 18 -19 38q0 14 10 23.5t23 9.5q17 0 37 -15z" />
    <glyph glyph-name="napostrophe" unicode="&#x149;" 
d="M454 -11q-24 0 -39 15.5t-15 42.5v191q0 111 -95 111q-97 0 -97 -112v-190q0 -28 -15 -43t-39 -15t-39 15.5t-15 42.5v340q0 27 15.5 42.5t38.5 15.5q21 0 36 -13t15 -35q43 48 125 48t130 -47t48 -130v-221q0 -28 -15 -43t-39 -15zM142 510q-19 -15 -35 -15q-11 0 -18 6
t-7 16q0 13 17 30q45 40 47 78q-36 -2 -58 16t-22 49q0 29 20.5 48t55.5 19q39 0 61 -24t22 -65q0 -46 -24.5 -90t-58.5 -68z" />
    <glyph glyph-name="Eng" unicode="&#x14a;" 
d="M307 -217q-48 0 -86 12q-53 14 -53 55q0 22 14.5 35.5t36.5 13.5q14 0 36 -6q37 -11 60 -11q91 0 91 119v22l-209 341v-318q0 -28 -16 -44t-40 -16t-40 16t-16 44v486q0 29 14.5 45t38.5 16q22 0 35 -11.5t28 -36.5l203 -335v323q0 28 15.5 44t39.5 16t40 -16t16 -44
v-533q0 -217 -208 -217z" />
    <glyph glyph-name="eng" unicode="&#x14b;" 
d="M400 1v237q0 111 -95 111q-97 0 -97 -112v-190q0 -28 -15 -43t-39 -15t-39 15.5t-15 42.5v340q0 27 15.5 42.5t38.5 15.5q41 0 51 -38v-10q43 48 125 48t129.5 -47t47.5 -130v-268q0 -110 -51.5 -163.5t-156.5 -53.5q-47 0 -85 12q-52 14 -52 55q0 21 14.5 34.5
t36.5 13.5q12 0 36 -6q34 -10 59 -10q92 0 92 119z" />
    <glyph glyph-name="Omacron" unicode="&#x14c;" 
d="M197 760h205q26 0 41 -12.5t15 -34.5t-15 -34.5t-41 -12.5h-205q-26 0 -41 12.5t-15 34.5t15 34.5t41 12.5zM299 88q65 0 98 58t33 144t-33 143.5t-98 57.5t-97.5 -57t-32.5 -144t32.5 -144.5t97.5 -57.5zM299 -14q-118 0 -181.5 86t-63.5 218t63.5 217.5t181.5 85.5
q119 0 182.5 -85.5t63.5 -217.5t-63.5 -218t-182.5 -86z" />
    <glyph glyph-name="omacron" unicode="&#x14d;" 
d="M198 615h205q26 0 41 -12.5t15 -34.5t-15 -34.5t-41 -12.5h-205q-26 0 -41 12.5t-15 34.5t15 34.5t41 12.5zM300 -11q-102 0 -171.5 63t-69.5 165t69.5 165t171.5 63t171.5 -63t69.5 -165t-69.5 -165t-171.5 -63zM300 85q56 0 93 37t37 95q0 57 -37 94.5t-93 37.5
t-93 -37t-37 -95t36.5 -95t93.5 -37z" />
    <glyph glyph-name="Obreve" unicode="&#x14e;" 
d="M299 88q65 0 98 58t33 144t-33 143.5t-98 57.5t-97.5 -57t-32.5 -144t32.5 -144.5t97.5 -57.5zM299 -14q-118 0 -181.5 86t-63.5 218t63.5 217.5t181.5 85.5q119 0 182.5 -85.5t63.5 -217.5t-63.5 -218t-182.5 -86zM300 725q58 0 93 57q12 20 33 20q14 0 24 -10t10 -26
q0 -25 -13 -49q-18 -35 -56 -58.5t-91 -23.5t-90.5 22.5t-55.5 57.5q-13 23 -13 51q0 16 9.5 26t23.5 10q21 0 34 -20q33 -57 92 -57z" />
    <glyph glyph-name="obreve" unicode="&#x14f;" 
d="M300 -11q-102 0 -171.5 63t-69.5 165t69.5 165t171.5 63t171.5 -63t69.5 -165t-69.5 -165t-171.5 -63zM300 85q56 0 93 37t37 95q0 57 -37 94.5t-93 37.5t-93 -37t-37 -95t36.5 -95t93.5 -37zM300 580q58 0 93 57q12 20 33 20q14 0 24 -10t10 -26q0 -25 -13 -49
q-18 -35 -56 -58.5t-91 -23.5t-90.5 22.5t-55.5 57.5q-13 23 -13 51q0 16 9.5 26t23.5 10q21 0 34 -20q33 -57 92 -57z" />
    <glyph glyph-name="Ohungarumlaut" unicode="&#x150;" 
d="M325 739l-85 -80q-21 -20 -36 -20q-12 0 -21 8.5t-9 20.5t16 38l64 101q18 27 46 27q20 0 36 -12.5t16 -34.5q0 -24 -27 -48zM511 739l-86 -80q-21 -20 -37 -20q-11 0 -19.5 8.5t-8.5 20.5q0 14 15 38l65 101q16 27 46 27q20 0 35.5 -12.5t15.5 -34.5q0 -24 -26 -48z
M299 88q65 0 98 58t33 144t-33 143.5t-98 57.5t-97.5 -57t-32.5 -144t32.5 -144.5t97.5 -57.5zM299 -14q-118 0 -181.5 86t-63.5 218t63.5 217.5t181.5 85.5q119 0 182.5 -85.5t63.5 -217.5t-63.5 -218t-182.5 -86z" />
    <glyph glyph-name="ohungarumlaut" unicode="&#x151;" 
d="M326 594l-85 -80q-21 -20 -36 -20q-12 0 -21 8.5t-9 20.5t16 38l64 101q18 27 46 27q20 0 36 -12.5t16 -34.5q0 -24 -27 -48zM512 594l-86 -80q-21 -20 -37 -20q-11 0 -19.5 8.5t-8.5 20.5q0 14 15 38l65 101q16 27 46 27q20 0 35.5 -12.5t15.5 -34.5q0 -24 -26 -48z
M300 -11q-102 0 -171.5 63t-69.5 165t69.5 165t171.5 63t171.5 -63t69.5 -165t-69.5 -165t-171.5 -63zM300 85q56 0 93 37t37 95q0 57 -37 94.5t-93 37.5t-93 -37t-37 -95t36.5 -95t93.5 -37z" />
    <glyph glyph-name="OE" unicode="&#x152;" 
d="M523 104q31 0 47.5 -14t16.5 -38q0 -25 -17 -38.5t-47 -13.5h-237q-128 0 -200.5 81t-72.5 208q0 128 72.5 209t200.5 81h237q30 0 47 -13.5t17 -38.5q0 -52 -64 -52q-24 0 -79 2.5t-64 2.5v-138q58 2 82 2q63 0 63 -51t-63 -51q-24 0 -82 2v-145q9 0 64 2.5t79 2.5z
M128 289q0 -81 35 -133t109 -56v379q-74 -4 -109 -56.5t-35 -133.5z" />
    <glyph glyph-name="oe" unicode="&#x153;" 
d="M430 -11q-82 0 -128 66q-46 -66 -120 -66q-78 0 -122 61t-44 167q0 105 44.5 166.5t121.5 61.5q73 0 120 -68q45 68 120 68t119.5 -56.5t44.5 -149.5q0 -50 -38 -50h-196q8 -111 83 -111q34 0 65 34q16 18 37 18q16 0 27.5 -10.5t11.5 -29.5q0 -30 -27 -55
q-46 -46 -119 -46zM424 364q-62 0 -72 -102h141q-4 102 -69 102zM183 355q-36 0 -54 -37t-18 -101q0 -139 72 -139q71 0 71 139q0 138 -71 138z" />
    <glyph glyph-name="Racute" unicode="&#x154;" 
d="M412 740l-115 -86q-28 -20 -40 -20q-15 0 -25.5 10t-10.5 25q0 16 19 38l96 110q20 23 48 23q20 0 36.5 -14.5t16.5 -36.5q0 -30 -25 -49zM96 46v474q0 28 15.5 43.5t40.5 15.5h138q111 0 172 -47t61 -133q0 -125 -124 -167l103 -141q21 -29 21 -53q0 -23 -15.5 -37.5
t-39.5 -14.5q-31 0 -59 40l-132 189h-70v-169q0 -28 -16 -44t-40 -16t-39.5 16t-15.5 44zM408 394q0 42 -29 63.5t-80 21.5h-92v-169h88q52 0 82.5 21.5t30.5 62.5z" />
    <glyph glyph-name="racute" unicode="&#x155;" 
d="M412 595l-115 -86q-28 -20 -40 -20q-15 0 -25.5 10t-10.5 25q0 16 19 38l96 110q20 23 48 23q20 0 36.5 -14.5t16.5 -36.5q0 -30 -25 -49zM459 97q59 0 59 -48q0 -23 -15.5 -36t-41.5 -13h-327q-26 0 -41.5 13t-15.5 36q0 22 14 35t39 13q24 0 79 -5v249q-76 -4 -77 -4
q-25 0 -39 13t-14 35q0 23 15.5 36t41.5 13h126q38 0 45 -39l2 -18q18 32 53 50t76 18q51 0 82 -21q31 -18 31 -51q0 -25 -15.5 -40.5t-37.5 -15.5q-19 0 -38 11q-30 15 -59 15q-40 0 -62 -29.5t-22 -81.5v-140q92 5 142 5z" />
    <glyph glyph-name="Rcommaaccent" unicode="&#x156;" 
d="M298 -310q-19 -15 -35 -15q-11 0 -18 6t-7 16q0 13 17 30q45 40 47 78q-36 -2 -58 16t-22 49q0 29 20.5 48t55.5 19q39 0 61 -24t22 -65q0 -46 -24.5 -90t-58.5 -68zM96 46v474q0 28 15.5 43.5t40.5 15.5h138q111 0 172 -47t61 -133q0 -125 -124 -167l103 -141
q21 -29 21 -53q0 -23 -15.5 -37.5t-39.5 -14.5q-31 0 -59 40l-132 189h-70v-169q0 -28 -16 -44t-40 -16t-39.5 16t-15.5 44zM408 394q0 42 -29 63.5t-80 21.5h-92v-169h88q52 0 82.5 21.5t30.5 62.5z" />
    <glyph glyph-name="rcommaaccent" unicode="&#x157;" 
d="M290 -310q-19 -15 -35 -15q-11 0 -18 6t-7 16q0 13 17 30q45 40 47 78q-36 -2 -58 16t-22 49q0 29 20.5 48t55.5 19q39 0 61 -24t22 -65q0 -46 -24.5 -90t-58.5 -68zM459 97q59 0 59 -48q0 -23 -15.5 -36t-41.5 -13h-327q-26 0 -41.5 13t-15.5 36q0 22 14 35t39 13
q24 0 79 -5v249q-76 -4 -77 -4q-25 0 -39 13t-14 35q0 23 15.5 36t41.5 13h126q38 0 45 -39l2 -18q18 32 53 50t76 18q51 0 82 -21q31 -18 31 -51q0 -25 -15.5 -40.5t-37.5 -15.5q-19 0 -38 11q-30 15 -59 15q-40 0 -62 -29.5t-22 -81.5v-140q92 5 142 5z" />
    <glyph glyph-name="Rcaron" unicode="&#x158;" 
d="M211 807l90 -76l90 76q20 15 37 15q13 0 23 -9.5t10 -23.5q0 -20 -19 -38l-101 -108q-19 -18 -40 -18t-40 18l-101 108q-19 18 -19 38q0 14 10 23.5t23 9.5q17 0 37 -15zM96 46v474q0 28 15.5 43.5t40.5 15.5h138q111 0 172 -47t61 -133q0 -125 -124 -167l103 -141
q21 -29 21 -53q0 -23 -15.5 -37.5t-39.5 -14.5q-31 0 -59 40l-132 189h-70v-169q0 -28 -16 -44t-40 -16t-39.5 16t-15.5 44zM408 394q0 42 -29 63.5t-80 21.5h-92v-169h88q52 0 82.5 21.5t30.5 62.5z" />
    <glyph glyph-name="rcaron" unicode="&#x159;" 
d="M210 662l90 -76l90 76q20 15 37 15q13 0 23 -9.5t10 -23.5q0 -20 -19 -38l-101 -108q-19 -18 -40 -18t-40 18l-101 108q-19 18 -19 38q0 14 10 23.5t23 9.5q17 0 37 -15zM459 97q59 0 59 -48q0 -23 -15.5 -36t-41.5 -13h-327q-26 0 -41.5 13t-15.5 36q0 22 14 35t39 13
q24 0 79 -5v249q-76 -4 -77 -4q-25 0 -39 13t-14 35q0 23 15.5 36t41.5 13h126q38 0 45 -39l2 -18q18 32 53 50t76 18q51 0 82 -21q31 -18 31 -51q0 -25 -15.5 -40.5t-37.5 -15.5q-19 0 -38 11q-30 15 -59 15q-40 0 -62 -29.5t-22 -81.5v-140q92 5 142 5z" />
    <glyph glyph-name="Sacute" unicode="&#x15a;" 
d="M408 740l-115 -86q-28 -20 -40 -20q-15 0 -25.5 10t-10.5 25q0 16 19 38l96 110q20 23 48 23q20 0 36.5 -14.5t16.5 -36.5q0 -30 -25 -49zM295 -14q-97 0 -173 44q-55 32 -55 71q0 22 15.5 37t37.5 15t56 -25q56 -38 125 -38q50 0 82 19t32 53q0 32 -31.5 48.5
t-99.5 31.5q-100 21 -155.5 61.5t-55.5 117.5q0 82 65 127t159 45t160 -42q52 -29 52 -66q0 -23 -14 -37t-35 -14q-22 0 -50 19q-59 37 -119 37q-46 0 -72.5 -17.5t-26.5 -46.5q0 -23 18.5 -38.5t40 -22.5t60.5 -16q54 -12 89 -24t68.5 -32t49 -50t15.5 -71
q0 -91 -68.5 -138.5t-169.5 -47.5z" />
    <glyph glyph-name="sacute" unicode="&#x15b;" 
d="M413 595l-115 -86q-28 -20 -40 -20q-15 0 -25.5 10t-10.5 25q0 16 19 38l96 110q20 23 48 23q20 0 36.5 -14.5t16.5 -36.5q0 -30 -25 -49zM308 -11q-111 0 -186 41q-39 21 -39 54q0 20 13.5 33.5t33.5 13.5q23 0 52 -18q59 -36 139 -36q99 0 99 47q0 21 -24 30t-101 19
q-96 12 -147 41.5t-51 94.5q0 70 57 103t148 33q88 0 161 -33q39 -19 39 -52q0 -20 -14 -33.5t-33 -13.5q-21 0 -51 15q-63 28 -118 28q-85 0 -85 -42q0 -20 27 -30t90 -17q107 -13 156.5 -41.5t49.5 -93.5q0 -71 -57.5 -107t-158.5 -36z" />
    <glyph glyph-name="Scircumflex" unicode="&#x15c;" 
d="M298 718l-90 -76q-20 -15 -37 -15q-13 0 -23 9.5t-10 23.5q0 20 19 38l101 108q19 18 40 18t40 -18l101 -108q19 -18 19 -38q0 -14 -10 -23.5t-23 -9.5q-17 0 -37 15zM295 -14q-97 0 -173 44q-55 32 -55 71q0 22 15.5 37t37.5 15t56 -25q56 -38 125 -38q50 0 82 19t32 53
q0 32 -31.5 48.5t-99.5 31.5q-100 21 -155.5 61.5t-55.5 117.5q0 82 65 127t159 45t160 -42q52 -29 52 -66q0 -23 -14 -37t-35 -14q-22 0 -50 19q-59 37 -119 37q-46 0 -72.5 -17.5t-26.5 -46.5q0 -23 18.5 -38.5t40 -22.5t60.5 -16q54 -12 89 -24t68.5 -32t49 -50t15.5 -71
q0 -91 -68.5 -138.5t-169.5 -47.5z" />
    <glyph glyph-name="scircumflex" unicode="&#x15d;" 
d="M302 573l-90 -76q-20 -15 -37 -15q-13 0 -23 9.5t-10 23.5q0 20 19 38l101 108q19 18 40 18t40 -18l101 -108q19 -18 19 -38q0 -14 -10 -23.5t-23 -9.5q-17 0 -37 15zM308 -11q-111 0 -186 41q-39 21 -39 54q0 20 13.5 33.5t33.5 13.5q23 0 52 -18q59 -36 139 -36
q99 0 99 47q0 21 -24 30t-101 19q-96 12 -147 41.5t-51 94.5q0 70 57 103t148 33q88 0 161 -33q39 -19 39 -52q0 -20 -14 -33.5t-33 -13.5q-21 0 -51 15q-63 28 -118 28q-85 0 -85 -42q0 -20 27 -30t90 -17q107 -13 156.5 -41.5t49.5 -93.5q0 -71 -57.5 -107t-158.5 -36z
" />
    <glyph glyph-name="Scedilla" unicode="&#x15e;" 
d="M533 172q0 -76 -49.5 -122t-128.5 -59q31 -36 31 -77q0 -46 -33 -74t-89 -28q-38 0 -67 14.5t-29 39.5q0 16 11 27t28 11q8 0 26 -5.5t27 -5.5q43 0 43 42t-49 52q-87 17 -132 43q-55 32 -55 71q0 22 15.5 37t37.5 15t56 -25q56 -38 125 -38q50 0 82 19t32 53
q0 32 -31.5 48.5t-99.5 31.5q-100 21 -155.5 61.5t-55.5 117.5q0 82 65 127t159 45t160 -42q52 -29 52 -66q0 -23 -14 -37t-35 -14q-22 0 -50 19q-59 37 -119 37q-46 0 -72.5 -17.5t-26.5 -46.5q0 -23 18.5 -38.5t40 -22.5t60.5 -16q54 -12 89 -24t68.5 -32t49 -50t15.5 -71
z" />
    <glyph glyph-name="scedilla" unicode="&#x15f;" 
d="M524 132q0 -61 -43 -96t-120 -43q33 -36 33 -79q0 -46 -33 -74t-89 -28q-38 0 -67 14.5t-29 39.5q0 16 11 27t28 11q8 0 26 -5.5t27 -5.5q44 0 44 42q0 44 -53 55q-8 1 -26 4.5t-25 5t-21 5t-22.5 6.5t-20 8t-22.5 11q-39 21 -39 54q0 20 13.5 33.5t33.5 13.5
q21 0 52 -18q62 -36 139 -36q99 0 99 47q0 21 -24 30t-101 19q-96 12 -147 41.5t-51 94.5q0 70 57 103t148 33q88 0 161 -33q39 -19 39 -52q0 -20 -14 -33.5t-33 -13.5q-21 0 -51 15q-63 28 -118 28q-85 0 -85 -42q0 -20 27 -30t90 -17q107 -13 156.5 -41.5t49.5 -93.5z" />
    <glyph glyph-name="Scaron" unicode="&#x160;" 
d="M208 807l90 -76l90 76q20 15 37 15q13 0 23 -9.5t10 -23.5q0 -20 -19 -38l-101 -108q-19 -18 -40 -18t-40 18l-101 108q-19 18 -19 38q0 14 10 23.5t23 9.5q17 0 37 -15zM295 -14q-97 0 -173 44q-55 32 -55 71q0 22 15.5 37t37.5 15t56 -25q56 -38 125 -38q50 0 82 19
t32 53q0 32 -31.5 48.5t-99.5 31.5q-100 21 -155.5 61.5t-55.5 117.5q0 82 65 127t159 45t160 -42q52 -29 52 -66q0 -23 -14 -37t-35 -14q-22 0 -50 19q-59 37 -119 37q-46 0 -72.5 -17.5t-26.5 -46.5q0 -23 18.5 -38.5t40 -22.5t60.5 -16q54 -12 89 -24t68.5 -32t49 -50
t15.5 -71q0 -91 -68.5 -138.5t-169.5 -47.5z" />
    <glyph glyph-name="scaron" unicode="&#x161;" 
d="M212 662l90 -76l90 76q20 15 37 15q13 0 23 -9.5t10 -23.5q0 -20 -19 -38l-101 -108q-19 -18 -40 -18t-40 18l-101 108q-19 18 -19 38q0 14 10 23.5t23 9.5q17 0 37 -15zM308 -11q-111 0 -186 41q-39 21 -39 54q0 20 13.5 33.5t33.5 13.5q23 0 52 -18q59 -36 139 -36
q99 0 99 47q0 21 -24 30t-101 19q-96 12 -147 41.5t-51 94.5q0 70 57 103t148 33q88 0 161 -33q39 -19 39 -52q0 -20 -14 -33.5t-33 -13.5q-21 0 -51 15q-63 28 -118 28q-85 0 -85 -42q0 -20 27 -30t90 -17q107 -13 156.5 -41.5t49.5 -93.5q0 -71 -57.5 -107t-158.5 -36z
" />
    <glyph glyph-name="Tcommaaccent" unicode="&#x162;" 
d="M293 -310q-19 -15 -35 -15q-11 0 -18 6t-7 16q0 13 17 30q45 40 47 78q-36 -2 -58 16t-22 49q0 29 20.5 48t55.5 19q39 0 61 -24t22 -65q0 -46 -24.5 -90t-58.5 -68zM245 46v433q-5 0 -61.5 -2t-79.5 -2q-63 0 -63 52t63 52h392q30 0 47 -13.5t17 -38.5q0 -52 -64 -52
q-22 0 -78 2t-62 2v-433q0 -28 -16 -44t-40 -16t-39.5 16t-15.5 44z" />
    <glyph glyph-name="tcommaaccent" unicode="&#x163;" 
d="M337 -310q-19 -15 -35 -15q-11 0 -18 6t-7 16q0 13 17 30q45 40 47 78q-36 -2 -58 16t-22 49q0 29 20.5 48t55.5 19q39 0 61 -24t22 -65q0 -46 -24.5 -90t-58.5 -68zM292 434h165q26 0 41.5 -13t15.5 -36q0 -48 -60 -48q-72 0 -162 5v-160q0 -98 77 -98q26 0 58 15
q5 2 14.5 7t14.5 7t13 4t16 2q19 0 32 -12.5t13 -32.5q0 -32 -37 -55q-49 -30 -134 -30q-91 0 -133 46.5t-42 144.5v161q-7 0 -25 -1.5t-33.5 -2t-26.5 -0.5q-60 0 -60 48q0 23 15.5 36t41.5 13h88v122q0 27 15.5 42.5t38.5 15.5t38.5 -15.5t15.5 -42.5v-122z" />
    <glyph glyph-name="Tcaron" unicode="&#x164;" 
d="M209 807l90 -76l90 76q20 15 37 15q13 0 23 -9.5t10 -23.5q0 -20 -19 -38l-101 -108q-19 -18 -40 -18t-40 18l-101 108q-19 18 -19 38q0 14 10 23.5t23 9.5q17 0 37 -15zM245 46v433q-5 0 -61.5 -2t-79.5 -2q-63 0 -63 52t63 52h392q30 0 47 -13.5t17 -38.5
q0 -52 -64 -52q-22 0 -78 2t-62 2v-433q0 -28 -16 -44t-40 -16t-39.5 16t-15.5 44z" />
    <glyph glyph-name="tcaron" unicode="&#x165;" 
d="M492 680l-44 -134q-5 -15 -9 -23t-12.5 -15t-20.5 -7q-37 0 -37 42q0 5 2 15l17 141q3 26 18 40.5t38 14.5q22 0 37 -13.5t15 -35.5q0 -16 -4 -25zM292 434h165q26 0 41.5 -13t15.5 -36q0 -48 -60 -48q-72 0 -162 5v-160q0 -98 77 -98q26 0 58 15q5 2 14.5 7t14.5 7t13 4
t16 2q19 0 32 -12.5t13 -32.5q0 -32 -37 -55q-49 -30 -134 -30q-91 0 -133 46.5t-42 144.5v161q-7 0 -25 -1.5t-33.5 -2t-26.5 -0.5q-60 0 -60 48q0 23 15.5 36t41.5 13h88v122q0 27 15.5 42.5t38.5 15.5t38.5 -15.5t15.5 -42.5v-122z" />
    <glyph glyph-name="Tbar" unicode="&#x166;" 
d="M245 46v188h-76q-52 0 -52 42t52 42h76v161q-12 0 -42 -1.5t-56 -2t-43 -0.5q-63 0 -63 52t63 52h392q30 0 47 -13.5t17 -38.5q0 -52 -64 -52q-17 0 -43 0.5t-56 2t-41 1.5v-161h77q52 0 52 -42t-52 -42h-77v-188q0 -28 -16 -44t-40 -16t-39.5 16t-15.5 44z" />
    <glyph glyph-name="tbar" unicode="&#x167;" 
d="M292 434h165q26 0 41.5 -13t15.5 -36q0 -48 -60 -48q-74 0 -162 5v-77h90q53 0 53 -41q0 -40 -53 -40h-90v-7q0 -93 77 -93q26 0 58 15q5 2 14.5 7t14.5 7t13 4t16 2q19 0 32 -12.5t13 -32.5q0 -32 -37 -55q-49 -30 -134 -30q-91 0 -133 45.5t-42 140.5v9h-57
q-52 0 -52 40q0 41 52 41h57v76q-2 0 -36.5 -2t-48.5 -2q-60 0 -60 48q0 23 15.5 36t41.5 13h88v122q0 27 15.5 42.5t38.5 15.5t38.5 -15.5t15.5 -42.5v-122z" />
    <glyph glyph-name="Utilde" unicode="&#x168;" 
d="M299 -14q-100 0 -156.5 59t-56.5 165v323q0 28 15.5 44t39.5 16t40 -16t16 -44v-304q0 -70 24 -105.5t78 -35.5q56 0 80 35t24 106v304q0 28 15.5 44t39.5 16t40 -16t16 -44v-323q0 -107 -57 -165.5t-158 -58.5zM369 642q-34 0 -79.5 29.5t-55.5 29.5q-19 0 -32 -32
q-10 -26 -34 -26q-15 0 -25.5 10.5t-10.5 27.5q0 43 28 75.5t70 32.5q34 0 79 -29.5t55 -29.5q20 0 33 32q10 26 33 26q16 0 26 -10.5t10 -27.5q0 -43 -28 -75.5t-69 -32.5z" />
    <glyph glyph-name="utilde" unicode="&#x169;" 
d="M147 445q23 0 38.5 -15.5t15.5 -42.5v-190q0 -112 97 -112q43 0 68.5 27.5t25.5 84.5v190q0 27 15 42.5t39 15.5q23 0 38.5 -15.5t15.5 -42.5v-340q0 -27 -15 -42.5t-39 -15.5q-22 0 -36.5 13.5t-14.5 33.5v1q-45 -48 -125 -48q-82 0 -129.5 47t-47.5 130v221
q0 27 15 42.5t39 15.5zM366 497q-34 0 -79.5 29.5t-55.5 29.5q-19 0 -32 -32q-10 -26 -34 -26q-15 0 -25.5 10.5t-10.5 27.5q0 43 28 75.5t70 32.5q34 0 79 -29.5t55 -29.5q20 0 33 32q10 26 33 26q16 0 26 -10.5t10 -27.5q0 -43 -28 -75.5t-69 -32.5z" />
    <glyph glyph-name="Umacron" unicode="&#x16a;" 
d="M299 -14q-100 0 -156.5 59t-56.5 165v323q0 28 15.5 44t39.5 16t40 -16t16 -44v-304q0 -70 24 -105.5t78 -35.5q56 0 80 35t24 106v304q0 28 15.5 44t39.5 16t40 -16t16 -44v-323q0 -107 -57 -165.5t-158 -58.5zM197 760h205q26 0 41 -12.5t15 -34.5t-15 -34.5t-41 -12.5
h-205q-26 0 -41 12.5t-15 34.5t15 34.5t41 12.5z" />
    <glyph glyph-name="umacron" unicode="&#x16b;" 
d="M147 445q23 0 38.5 -15.5t15.5 -42.5v-190q0 -112 97 -112q43 0 68.5 27.5t25.5 84.5v190q0 27 15 42.5t39 15.5q23 0 38.5 -15.5t15.5 -42.5v-340q0 -27 -15 -42.5t-39 -15.5q-22 0 -36.5 13.5t-14.5 33.5v1q-45 -48 -125 -48q-82 0 -129.5 47t-47.5 130v221
q0 27 15 42.5t39 15.5zM194 615h205q26 0 41 -12.5t15 -34.5t-15 -34.5t-41 -12.5h-205q-26 0 -41 12.5t-15 34.5t15 34.5t41 12.5z" />
    <glyph glyph-name="Ubreve" unicode="&#x16c;" 
d="M299 -14q-100 0 -156.5 59t-56.5 165v323q0 28 15.5 44t39.5 16t40 -16t16 -44v-304q0 -70 24 -105.5t78 -35.5q56 0 80 35t24 106v304q0 28 15.5 44t39.5 16t40 -16t16 -44v-323q0 -107 -57 -165.5t-158 -58.5zM300 725q58 0 93 57q12 20 33 20q14 0 24 -10t10 -26
q0 -25 -13 -49q-18 -35 -56 -58.5t-91 -23.5t-90.5 22.5t-55.5 57.5q-13 23 -13 51q0 16 9.5 26t23.5 10q21 0 34 -20q33 -57 92 -57z" />
    <glyph glyph-name="ubreve" unicode="&#x16d;" 
d="M147 445q23 0 38.5 -15.5t15.5 -42.5v-190q0 -112 97 -112q43 0 68.5 27.5t25.5 84.5v190q0 27 15 42.5t39 15.5q23 0 38.5 -15.5t15.5 -42.5v-340q0 -27 -15 -42.5t-39 -15.5q-22 0 -36.5 13.5t-14.5 33.5v1q-45 -48 -125 -48q-82 0 -129.5 47t-47.5 130v221
q0 27 15 42.5t39 15.5zM295 580q58 0 93 57q12 20 33 20q14 0 24 -10t10 -26q0 -25 -13 -49q-18 -35 -56 -58.5t-91 -23.5t-90.5 22.5t-55.5 57.5q-13 23 -13 51q0 16 9.5 26t23.5 10q21 0 34 -20q33 -57 92 -57z" />
    <glyph glyph-name="Uring" unicode="&#x16e;" 
d="M423 723q0 -47 -33.5 -79.5t-89.5 -32.5t-89.5 32.5t-33.5 79.5t33.5 79t89.5 32t89.5 -32t33.5 -79zM354 723q0 21 -14 36.5t-40 15.5t-40 -15.5t-14 -36.5q0 -22 14 -37t40 -15t40 15t14 37zM299 -14q-100 0 -156.5 59t-56.5 165v323q0 28 15.5 44t39.5 16t40 -16
t16 -44v-304q0 -70 24 -105.5t78 -35.5q56 0 80 35t24 106v304q0 28 15.5 44t39.5 16t40 -16t16 -44v-323q0 -107 -57 -165.5t-158 -58.5z" />
    <glyph glyph-name="uring" unicode="&#x16f;" 
d="M420 578q0 -47 -33.5 -79.5t-89.5 -32.5t-89.5 32.5t-33.5 79.5t33.5 79t89.5 32t89.5 -32t33.5 -79zM351 578q0 21 -14.5 36.5t-39.5 15.5t-39.5 -15.5t-14.5 -36.5q0 -22 14 -37t40 -15t40 15t14 37zM147 445q23 0 38.5 -15.5t15.5 -42.5v-190q0 -112 97 -112
q43 0 68.5 27.5t25.5 84.5v190q0 27 15 42.5t39 15.5q23 0 38.5 -15.5t15.5 -42.5v-340q0 -27 -15 -42.5t-39 -15.5q-22 0 -36.5 13.5t-14.5 33.5v1q-45 -48 -125 -48q-82 0 -129.5 47t-47.5 130v221q0 27 15 42.5t39 15.5z" />
    <glyph glyph-name="Uhungarumlaut" unicode="&#x170;" 
d="M299 -14q-100 0 -156.5 59t-56.5 165v323q0 28 15.5 44t39.5 16t40 -16t16 -44v-304q0 -70 24 -105.5t78 -35.5q56 0 80 35t24 106v304q0 28 15.5 44t39.5 16t40 -16t16 -44v-323q0 -107 -57 -165.5t-158 -58.5zM325 739l-85 -80q-21 -20 -36 -20q-12 0 -21 8.5t-9 20.5
t16 38l64 101q18 27 46 27q20 0 36 -12.5t16 -34.5q0 -24 -27 -48zM511 739l-86 -80q-21 -20 -37 -20q-11 0 -19.5 8.5t-8.5 20.5q0 14 15 38l65 101q16 27 46 27q20 0 35.5 -12.5t15.5 -34.5q0 -24 -26 -48z" />
    <glyph glyph-name="uhungarumlaut" unicode="&#x171;" 
d="M147 445q23 0 38.5 -15.5t15.5 -42.5v-190q0 -112 97 -112q43 0 68.5 27.5t25.5 84.5v190q0 27 15 42.5t39 15.5q23 0 38.5 -15.5t15.5 -42.5v-340q0 -27 -15 -42.5t-39 -15.5q-22 0 -36.5 13.5t-14.5 33.5v1q-45 -48 -125 -48q-82 0 -129.5 47t-47.5 130v221
q0 27 15 42.5t39 15.5zM322 594l-85 -80q-21 -20 -36 -20q-12 0 -21 8.5t-9 20.5t16 38l64 101q18 27 46 27q20 0 36 -12.5t16 -34.5q0 -24 -27 -48zM508 594l-86 -80q-21 -20 -37 -20q-11 0 -19.5 8.5t-8.5 20.5q0 14 15 38l65 101q16 27 46 27q20 0 35.5 -12.5t15.5 -34.5
q0 -24 -26 -48z" />
    <glyph glyph-name="Uogonek" unicode="&#x172;" 
d="M514 210q0 -192 -178 -225q-43 -8 -43 -50t44 -42q9 0 27 5.5t25 5.5q17 0 28 -10.5t11 -27.5q0 -25 -29 -39.5t-66 -14.5q-57 0 -90 27.5t-33 73.5q0 48 39 78q-78 13 -120.5 70.5t-42.5 148.5v323q0 28 15.5 44t39.5 16t40 -16t16 -44v-304q0 -70 24 -105.5t78 -35.5
q56 0 80 35t24 106v304q0 28 15.5 44t39.5 16t40 -16t16 -44v-323z" />
    <glyph glyph-name="uogonek" unicode="&#x173;" 
d="M147 445q23 0 38 -15.5t15 -42.5v-190q0 -112 98 -112q43 0 68.5 27.5t25.5 84.5v190q0 27 15 42.5t39 15.5q23 0 38.5 -15.5t15.5 -42.5v-343q0 -18 -6 -30.5t-12.5 -17.5t-22.5 -14q-41 -24 -41 -54q0 -35 44 -35q9 0 27 5.5t26 5.5q17 0 28 -11t11 -27
q0 -25 -29 -39.5t-67 -14.5q-55 0 -88.5 26.5t-33.5 67.5q0 31 13.5 52t45.5 44v35q-45 -48 -125 -48q-82 0 -129.5 47t-47.5 130v221q0 27 15 42.5t39 15.5z" />
    <glyph glyph-name="Wcircumflex" unicode="&#x174;" 
d="M300 718l-90 -76q-20 -15 -37 -15q-13 0 -23 9.5t-10 23.5q0 20 19 38l101 108q19 18 40 18t40 -18l101 -108q19 -18 19 -38q0 -14 -10 -23.5t-23 -9.5q-17 0 -37 15zM300 424q33 0 46 -38l63 -196l51 345q8 58 55 58q25 0 40 -16t15 -38q0 -10 -4 -38l-83 -462
q-9 -53 -53 -53q-40 0 -56 45l-74 226l-74 -226q-16 -45 -56 -45q-20 0 -34.5 13.5t-18.5 39.5l-83 462q-4 28 -4 38q0 22 15 38t40 16q47 0 55 -58l51 -345l63 196q11 38 46 38z" />
    <glyph glyph-name="wcircumflex" unicode="&#x175;" 
d="M300 573l-90 -76q-20 -15 -37 -15q-13 0 -23 9.5t-10 23.5q0 20 19 38l101 108q19 18 40 18t40 -18l101 -108q19 -18 19 -38q0 -14 -10 -23.5t-23 -9.5q-17 0 -37 15zM300 348q35 0 52 -42l58 -152l43 237q9 54 55 54q24 0 38 -15.5t14 -36.5q0 -16 -5 -34l-78 -323
q-12 -47 -52 -47q-36 0 -54 46l-71 186l-71 -186q-18 -46 -54 -46q-40 0 -52 47l-78 323q-5 18 -5 34q0 21 14 36.5t38 15.5q46 0 55 -54l43 -237l58 152q17 42 52 42z" />
    <glyph glyph-name="Ycircumflex" unicode="&#x176;" 
d="M300 -14q-24 0 -39.5 16t-15.5 44v160l-193 285q-17 24 -17 48q0 23 15.5 38.5t40.5 15.5q32 0 58 -43l151 -241l151 241q28 43 58 43q26 0 41.5 -15.5t15.5 -38.5t-18 -48l-192 -285v-160q0 -28 -16 -44t-40 -16zM300 718l-90 -76q-20 -15 -37 -15q-13 0 -23 9.5
t-10 23.5q0 20 19 38l101 108q19 18 40 18t40 -18l101 -108q19 -18 19 -38q0 -14 -10 -23.5t-23 -9.5q-17 0 -37 15z" />
    <glyph glyph-name="ycircumflex" unicode="&#x177;" 
d="M111 -217q-39 0 -70.5 16.5t-31.5 48.5q0 20 12.5 31.5t29.5 11.5q14 0 35.5 -4.5t31.5 -4.5q42 0 73 40q11 15 30 46.5t23 41.5l-161 344q-11 24 -11 42q0 19 14.5 34t37.5 15q39 0 58 -46l120 -280l119 280q19 46 57 46q24 0 38.5 -14.5t14.5 -34.5q0 -18 -11 -42
l-173 -366q-54 -114 -102 -159.5t-134 -45.5zM302 573l-90 -76q-20 -15 -37 -15q-13 0 -23 9.5t-10 23.5q0 20 19 38l101 108q19 18 40 18t40 -18l101 -108q19 -18 19 -38q0 -14 -10 -23.5t-23 -9.5q-17 0 -37 15z" />
    <glyph glyph-name="Ydieresis" unicode="&#x178;" 
d="M300 -14q-24 0 -39.5 16t-15.5 44v160l-193 285q-17 24 -17 48q0 23 15.5 38.5t40.5 15.5q32 0 58 -43l151 -241l151 241q28 43 58 43q26 0 41.5 -15.5t15.5 -38.5t-18 -48l-192 -285v-160q0 -28 -16 -44t-40 -16zM196 649q-32 0 -53.5 18.5t-21.5 48.5q0 31 21.5 49
t53.5 18t53.5 -18t21.5 -49q0 -30 -21.5 -48.5t-53.5 -18.5zM404 649q-32 0 -53.5 18.5t-21.5 48.5q0 31 21.5 49t53.5 18t53 -18t21 -49q0 -30 -21 -48.5t-53 -18.5z" />
    <glyph glyph-name="Zacute" unicode="&#x179;" 
d="M417 740l-115 -86q-28 -20 -40 -20q-15 0 -25.5 10t-10.5 25q0 16 19 38l96 110q20 23 48 23q20 0 36.5 -14.5t16.5 -36.5q0 -30 -25 -49zM130 0q-26 0 -42.5 14t-16.5 38t24 57l280 370q-208 -4 -236 -4q-63 0 -63 52t63 52h331q26 0 42 -13.5t16 -38.5t-23 -57
l-280 -370q180 4 244 4q31 0 47.5 -14t16.5 -38q0 -25 -17 -38.5t-47 -13.5h-339z" />
    <glyph glyph-name="zacute" unicode="&#x17a;" 
d="M417 595l-115 -86q-28 -20 -40 -20q-15 0 -25.5 10t-10.5 25q0 16 19 38l96 110q20 23 48 23q20 0 36.5 -14.5t16.5 -36.5q0 -30 -25 -49zM454 97q59 0 59 -48q0 -23 -15.5 -36t-41.5 -13h-307q-29 0 -45 14.5t-16 38.5q0 33 44 74l224 216q-80 -6 -202 -6q-59 0 -59 48
q0 23 15.5 36t41.5 13h297q29 0 45 -14.5t16 -39.5q0 -31 -44 -73l-223 -216q84 6 211 6z" />
    <glyph glyph-name="Zdotaccent" unicode="&#x17b;" 
d="M130 0q-26 0 -42.5 14t-16.5 38t24 57l280 370q-208 -4 -236 -4q-63 0 -63 52t63 52h331q26 0 42 -13.5t16 -38.5t-23 -57l-280 -370q180 4 244 4q31 0 47.5 -14t16.5 -38q0 -25 -17 -38.5t-47 -13.5h-339zM307 644q-37 0 -59.5 20t-22.5 54q0 33 23 53t59 20
q38 0 60.5 -19.5t22.5 -53.5t-22.5 -54t-60.5 -20z" />
    <glyph glyph-name="zdotaccent" unicode="&#x17c;" 
d="M454 97q59 0 59 -48q0 -23 -15.5 -36t-41.5 -13h-307q-29 0 -45 14.5t-16 38.5q0 33 44 74l224 216q-80 -6 -202 -6q-59 0 -59 48q0 23 15.5 36t41.5 13h297q29 0 45 -14.5t16 -39.5q0 -31 -44 -73l-223 -216q84 6 211 6zM307 499q-37 0 -59.5 20t-22.5 54q0 33 23 53
t59 20q38 0 60.5 -19.5t22.5 -53.5t-22.5 -54t-60.5 -20z" />
    <glyph glyph-name="Zcaron" unicode="&#x17d;" 
d="M217 807l90 -76l90 76q20 15 37 15q13 0 23 -9.5t10 -23.5q0 -20 -19 -38l-101 -108q-19 -18 -40 -18t-40 18l-101 108q-19 18 -19 38q0 14 10 23.5t23 9.5q17 0 37 -15zM130 0q-26 0 -42.5 14t-16.5 38t24 57l280 370q-208 -4 -236 -4q-63 0 -63 52t63 52h331
q26 0 42 -13.5t16 -38.5t-23 -57l-280 -370q180 4 244 4q31 0 47.5 -14t16.5 -38q0 -25 -17 -38.5t-47 -13.5h-339z" />
    <glyph glyph-name="zcaron" unicode="&#x17e;" 
d="M216 662l90 -76l90 76q20 15 37 15q13 0 23 -9.5t10 -23.5q0 -20 -19 -38l-101 -108q-19 -18 -40 -18t-40 18l-101 108q-19 18 -19 38q0 14 10 23.5t23 9.5q17 0 37 -15zM454 97q59 0 59 -48q0 -23 -15.5 -36t-41.5 -13h-307q-29 0 -45 14.5t-16 38.5q0 33 44 74l224 216
q-80 -6 -202 -6q-59 0 -59 48q0 23 15.5 36t41.5 13h297q29 0 45 -14.5t16 -39.5q0 -31 -44 -73l-223 -216q84 6 211 6z" />
    <glyph glyph-name="uni0180" unicode="&#x180;" 
d="M331 -11q-86 0 -131 51q0 -16 -3 -19q-12 -32 -48 -32q-23 0 -38.5 15.5t-15.5 42.5v448h-22q-52 0 -52 39t52 39h22v37q0 28 15.5 43t38.5 15t38.5 -15t15.5 -43v-37h80q52 0 52 -39t-52 -39h-80v-103q46 49 128 49q91 0 151 -61.5t60 -162.5q0 -103 -60 -165.5
t-151 -62.5zM314 84q53 0 85 36.5t32 96.5q0 59 -32.5 96t-84.5 37t-84 -37t-32 -96q0 -60 32 -96.5t84 -36.5z" />
    <glyph glyph-name="Schwa" unicode="&#x18f;" 
d="M115 339h313q-9 70 -45.5 111t-91.5 41q-57 0 -108 -44q-29 -25 -55 -25q-23 0 -37.5 13.5t-14.5 35.5t18 43q32 37 87 58t112 21q117 0 184.5 -83.5t67.5 -219.5t-65.5 -220t-180.5 -84q-117 0 -180.5 85.5t-63.5 212.5q0 25 15.5 40t44.5 15zM299 87q56 0 90 44.5
t41 118.5h-260q4 -66 36.5 -114.5t92.5 -48.5z" />
    <glyph glyph-name="florin" unicode="&#x192;" 
d="M257 1v259q-72 -4 -86 -4q-59 0 -59 48q0 23 15.5 36t41.5 13h88v46q0 195 172 195q58 0 99 -18q38 -18 38 -52q0 -20 -13.5 -33t-33.5 -13q-14 0 -32 6q-41 13 -54 13q-70 0 -70 -103v-41h133q26 0 41.5 -13t15.5 -36q0 -48 -60 -48q-15 0 -69 2.5t-61 2.5v-262
q0 -110 -51 -163t-156 -53q-46 0 -84 12q-53 14 -53 55q0 21 15 34.5t37 13.5q13 0 35 -6q34 -10 60 -10q91 0 91 119z" />
    <glyph glyph-name="uni01A0" unicode="&#x1a0;" 
d="M299 -12q-118 0 -181.5 85t-63.5 217t63.5 217t181.5 85q68 0 115 -28q16 -9 32 -9q22 0 35.5 14t13.5 37q0 14 -7 32t-7 30q0 19 11 32t32 13q29 0 44 -24q18 -24 18 -67q0 -51 -27.5 -82.5t-71.5 -39.5q58 -84 58 -210q0 -132 -63.5 -217t-182.5 -85zM299 88
q65 0 98 58t33 144t-33 144t-98 58t-97.5 -57.5t-32.5 -144.5t32.5 -144.5t97.5 -57.5z" />
    <glyph glyph-name="uni01A1" unicode="&#x1a1;" 
d="M488 513q0 20 13.5 33t30.5 13q26 0 42 -20q19 -27 19 -71q0 -48 -25 -79.5t-68 -41.5q41 -55 41 -130q0 -102 -69.5 -165t-171.5 -63t-171.5 63t-69.5 165t69.5 165t171.5 63q59 0 117 -27q19 -9 37 -9q21 0 35 12.5t14 34.5q0 12 -7.5 28.5t-7.5 28.5zM300 85
q56 0 93 37t37 95q0 57 -37 94.5t-93 37.5t-93 -37t-37 -95t36.5 -95t93.5 -37z" />
    <glyph glyph-name="uni01AF" unicode="&#x1af;" 
d="M299 -14q-100 0 -156.5 59t-56.5 165v323q0 28 15.5 44t39.5 16t40 -16t16 -44v-304q0 -70 24 -105.5t78 -35.5q56 0 80 35t24 106v304q0 24 14 41.5t38 18.5h12q27 0 42 12.5t15 34.5q0 12 -7.5 29t-7.5 30q0 18 11.5 31t31.5 13q29 0 45 -23q17 -26 17 -67
q0 -50 -27 -82.5t-73 -40.5v-320q0 -107 -57 -165.5t-158 -58.5z" />
    <glyph glyph-name="uni01B0" unicode="&#x1b0;" 
d="M504 549q0 20 13.5 33t30.5 13q25 0 39 -18q22 -27 22 -73q0 -49 -28.5 -81.5t-75.5 -40.5l-12 -2v-333q0 -28 -15 -43t-39 -15q-38 0 -48 33l-3 15q-45 -48 -125 -48q-79 0 -124.5 47t-45.5 130v221q0 27 15 42.5t39 15.5q23 0 38 -15.5t15 -42.5v-190q0 -112 91 -112
q94 0 94 112v190q0 27 15 42t38 16h23q27 0 42 12.5t15 34.5q0 13 -7 29t-7 28z" />
    <glyph glyph-name="uni01CD" unicode="&#x1cd;" 
d="M142 -14q-24 0 -40 16t-16 44v323q0 105 57 164.5t157 59.5q101 0 157.5 -59t56.5 -165v-323q0 -28 -15.5 -44t-39.5 -16t-40 16t-16 44v134h-206v-134q0 -28 -15.5 -44t-39.5 -16zM197 280h206v68q0 71 -23 107t-80 36q-56 0 -79.5 -36t-23.5 -107v-68zM210 812l90 -75
l90 75q20 15 37 15q13 0 23 -9.5t10 -23.5q0 -18 -19 -38l-101 -108q-19 -18 -40 -18t-40 18l-101 108q-19 20 -19 38q0 14 10 23.5t23 9.5q17 0 37 -15z" />
    <glyph glyph-name="uni01CE" unicode="&#x1ce;" 
d="M260 -11q-82 0 -136 38t-54 103t54 103t136 38q85 0 141 -36v29q0 43 -29 65t-81 22q-50 0 -94 -20q-2 -1 -14 -6.5t-20.5 -8t-17.5 -2.5q-20 0 -33.5 13.5t-13.5 33.5q0 37 53 58q63 26 145 26q212 0 212 -183v-215q0 -28 -15 -43t-38 -15q-39 0 -50 38
q-53 -38 -145 -38zM210 662l90 -76l91 76q19 15 36 15q13 0 23.5 -9.5t10.5 -23.5q0 -19 -20 -38l-101 -108q-19 -18 -40 -18q-20 0 -39 18l-102 108q-19 19 -19 38q0 14 10.5 23.5t22.5 9.5q18 0 37 -15zM291 67q51 0 83.5 17.5t32.5 46.5t-32.5 46t-83.5 17
q-49 0 -80.5 -17t-31.5 -46t31.5 -46.5t80.5 -17.5z" />
    <glyph glyph-name="uni01CF" unicode="&#x1cf;" 
d="M244 100v379q-4 0 -43 -2t-54 -2q-64 0 -64 52t64 52h305q64 0 64 -52t-64 -52q-15 0 -54 2t-43 2v-379q4 0 43 2t54 2q31 0 47.5 -14t16.5 -38q0 -52 -64 -52h-305q-64 0 -64 52q0 24 16.5 38t47.5 14q15 0 54 -2t43 -2zM210 812l90 -75l90 75q20 15 37 15q13 0 23 -9.5
t10 -23.5q0 -18 -19 -38l-101 -108q-19 -18 -40 -18t-40 18l-101 108q-19 20 -19 38q0 14 10 23.5t23 9.5q17 0 37 -15z" />
    <glyph glyph-name="uni01D0" unicode="&#x1d0;" 
d="M470 97q29 0 44.5 -13t15.5 -35q0 -23 -15.5 -36t-42.5 -13h-337q-26 0 -41.5 13t-15.5 36q0 48 60 48q46 0 133 -5v250q-77 -5 -124 -5q-60 0 -60 48q0 23 15.5 36t41.5 13h179q25 0 39.5 -14t14.5 -37v-291q55 5 93 5zM224 662l90 -76l91 76q19 15 36 15
q13 0 23.5 -9.5t10.5 -23.5q0 -19 -20 -38l-101 -108q-19 -18 -40 -18q-20 0 -39 18l-102 108q-19 19 -19 38q0 14 10.5 23.5t22.5 9.5q18 0 37 -15z" />
    <glyph glyph-name="uni01D1" unicode="&#x1d1;" 
d="M210 812l90 -75l90 75q20 15 37 15q13 0 23 -9.5t10 -23.5q0 -18 -19 -38l-101 -108q-19 -18 -40 -18t-40 18l-101 108q-19 20 -19 38q0 14 10 23.5t23 9.5q17 0 37 -15zM299 88q65 0 98 58t33 144t-33 143.5t-98 57.5t-97.5 -57t-32.5 -144t32.5 -144.5t97.5 -57.5z
M299 -14q-118 0 -181.5 86t-63.5 218t63.5 217.5t181.5 85.5q119 0 182.5 -85.5t63.5 -217.5t-63.5 -218t-182.5 -86z" />
    <glyph glyph-name="uni01D2" unicode="&#x1d2;" 
d="M210 662l90 -76l91 76q19 15 36 15q13 0 23.5 -9.5t10.5 -23.5q0 -19 -20 -38l-101 -108q-19 -18 -40 -18q-20 0 -39 18l-102 108q-19 19 -19 38q0 14 10.5 23.5t22.5 9.5q18 0 37 -15zM300 -11q-102 0 -171.5 63t-69.5 165t69.5 165t171.5 63t171.5 -63t69.5 -165
t-69.5 -165t-171.5 -63zM300 85q56 0 93 37t37 95q0 57 -37 94.5t-93 37.5t-93 -37t-37 -95t36.5 -95t93.5 -37z" />
    <glyph glyph-name="uni01D3" unicode="&#x1d3;" 
d="M210 812l90 -75l90 75q20 15 37 15q13 0 23 -9.5t10 -23.5q0 -18 -19 -38l-101 -108q-19 -18 -40 -18t-40 18l-101 108q-19 20 -19 38q0 14 10 23.5t23 9.5q17 0 37 -15zM299 -14q-100 0 -156.5 59t-56.5 165v323q0 28 15.5 44t39.5 16t40 -16t16 -44v-304
q0 -70 24 -105.5t78 -35.5q56 0 80 35t24 106v304q0 28 15.5 44t39.5 16t40 -16t16 -44v-323q0 -107 -57 -165.5t-158 -58.5z" />
    <glyph glyph-name="uni01D4" unicode="&#x1d4;" 
d="M147 445q23 0 38.5 -15.5t15.5 -42.5v-190q0 -112 97 -112q43 0 68.5 27.5t25.5 84.5v190q0 27 15 42.5t39 15.5q23 0 38.5 -15.5t15.5 -42.5v-340q0 -27 -15 -42.5t-39 -15.5q-22 0 -36.5 13.5t-14.5 33.5v1q-45 -48 -125 -48q-82 0 -129.5 47t-47.5 130v221
q0 27 15 42.5t39 15.5zM206 662l90 -76l91 76q19 15 36 15q13 0 23.5 -9.5t10.5 -23.5q0 -19 -20 -38l-101 -108q-19 -18 -40 -18q-20 0 -39 18l-102 108q-19 19 -19 38q0 14 10.5 23.5t22.5 9.5q18 0 37 -15z" />
    <glyph glyph-name="uni01D5" unicode="&#x1d5;" 
d="M299 -14q-100 0 -156.5 59t-56.5 165v323q0 28 15.5 44t39.5 16t40 -16t16 -44v-304q0 -70 24 -105.5t78 -35.5q56 0 80 35t24 106v304q0 28 15.5 44t39.5 16t40 -16t16 -44v-323q0 -107 -57 -165.5t-158 -58.5zM196 631q-32 0 -53.5 18.5t-21.5 49.5t21.5 49t53.5 18
q34 0 54.5 -18t20.5 -49q0 -32 -20.5 -50t-54.5 -18zM403 631q-32 0 -53.5 18.5t-21.5 49.5t21.5 49t53.5 18q34 0 54.5 -18t20.5 -49q0 -32 -20.5 -50t-54.5 -18zM403 799h-206q-25 0 -40.5 12.5t-15.5 34.5t15.5 34.5t40.5 12.5h206q25 0 40 -12.5t15 -34.5t-15 -34.5
t-40 -12.5z" />
    <glyph glyph-name="uni01D6" unicode="&#x1d6;" 
d="M147 445q23 0 38.5 -15.5t15.5 -42.5v-190q0 -112 97 -112q43 0 68.5 27.5t25.5 84.5v190q0 27 15 42.5t39 15.5q23 0 38.5 -15.5t15.5 -42.5v-340q0 -27 -15 -42.5t-39 -15.5q-22 0 -36.5 13.5t-14.5 33.5v1q-45 -48 -125 -48q-82 0 -129.5 47t-47.5 130v221
q0 27 15 42.5t39 15.5zM193 500q-32 0 -53 18.5t-21 49.5t21 49t53 18q34 0 55 -18t21 -49q0 -32 -21 -50t-55 -18zM400 500q-32 0 -53.5 18.5t-21.5 49.5t21.5 49t53.5 18q34 0 54.5 -18t20.5 -49q0 -32 -20.5 -50t-54.5 -18zM400 688h-206q-25 0 -40.5 12.5t-15.5 33.5
q0 23 15.5 35.5t40.5 12.5h206q25 0 40 -12.5t15 -35.5q0 -22 -15 -34t-40 -12z" />
    <glyph glyph-name="uni01D7" unicode="&#x1d7;" 
d="M299 -14q-100 0 -156.5 59t-56.5 165v323q0 28 15.5 44t39.5 16t40 -16t16 -44v-304q0 -70 24 -105.5t78 -35.5q56 0 80 35t24 106v304q0 28 15.5 44t39.5 16t40 -16t16 -44v-323q0 -107 -57 -165.5t-158 -58.5zM403 631q-32 0 -53.5 18.5t-21.5 49.5t21.5 49t53.5 18
q34 0 54.5 -18t20.5 -49q0 -32 -20.5 -50t-54.5 -18zM196 631q-32 0 -53.5 18.5t-21.5 49.5t21.5 49t53.5 18q34 0 54.5 -18t20.5 -49q0 -32 -20.5 -50t-54.5 -18zM435 855l-94 -67q-30 -19 -40 -19q-15 0 -25.5 9.5t-10.5 25.5q0 15 19 37l76 89q21 25 48 25
q20 0 36.5 -14.5t16.5 -36.5q0 -29 -26 -49z" />
    <glyph glyph-name="uni01D8" unicode="&#x1d8;" 
d="M193 500q-32 0 -53 18.5t-21 49.5t21 49t53 18q34 0 55 -18t21 -49q0 -32 -21 -50t-55 -18zM400 500q-32 0 -53.5 18.5t-21.5 49.5t21.5 49t53.5 18q34 0 54.5 -18t20.5 -49q0 -32 -20.5 -50t-54.5 -18zM452 754l-114 -87q-26 -19 -40 -19q-15 0 -25.5 9.5t-10.5 25.5
q0 14 19 37l95 110q21 24 49 24q20 0 36.5 -14.5t16.5 -36.5q0 -30 -26 -49zM147 445q23 0 38.5 -15.5t15.5 -42.5v-190q0 -112 97 -112q43 0 68.5 27.5t25.5 84.5v190q0 27 15 42.5t39 15.5q23 0 38.5 -15.5t15.5 -42.5v-340q0 -27 -15 -42.5t-39 -15.5q-22 0 -36.5 13.5
t-14.5 33.5v1q-45 -48 -125 -48q-82 0 -129.5 47t-47.5 130v221q0 27 15 42.5t39 15.5z" />
    <glyph glyph-name="uni01D9" unicode="&#x1d9;" 
d="M299 -14q-100 0 -156.5 59t-56.5 165v323q0 28 15.5 44t39.5 16t40 -16t16 -44v-304q0 -70 24 -105.5t78 -35.5q56 0 80 35t24 106v304q0 28 15.5 44t39.5 16t40 -16t16 -44v-323q0 -107 -57 -165.5t-158 -58.5zM196 631q-32 0 -53.5 18.5t-21.5 49.5t21.5 49t53.5 18
q34 0 54.5 -18t20.5 -49q0 -32 -20.5 -50t-54.5 -18zM403 631q-32 0 -53.5 18.5t-21.5 49.5t21.5 49t53.5 18q34 0 54.5 -18t20.5 -49q0 -32 -20.5 -50t-54.5 -18zM208 942l92 -59l93 59q20 12 36 12q13 0 23 -9.5t10 -23.5q0 -20 -19 -38l-103 -89q-22 -19 -40 -19
q-17 0 -39 19l-103 89q-20 17 -20 38q0 14 10.5 23.5t23.5 9.5q16 0 36 -12z" />
    <glyph glyph-name="uni01DA" unicode="&#x1da;" 
d="M193 500q-32 0 -53 18.5t-21 49.5t21 49t53 18q34 0 55 -18t21 -49q0 -32 -21 -50t-55 -18zM400 500q-32 0 -53.5 18.5t-21.5 49.5t21.5 49t53.5 18q34 0 54.5 -18t20.5 -49q0 -32 -20.5 -50t-54.5 -18zM205 838l92 -74l92 74q19 15 37 15q13 0 23 -9.5t10 -23.5
q0 -19 -19 -38l-104 -106q-17 -18 -39 -18t-39 18l-104 106q-19 19 -19 38q0 14 10 23.5t23 9.5q18 0 37 -15zM147 445q23 0 38.5 -15.5t15.5 -42.5v-190q0 -112 97 -112q43 0 68.5 27.5t25.5 84.5v190q0 27 15 42.5t39 15.5q23 0 38.5 -15.5t15.5 -42.5v-340
q0 -27 -15 -42.5t-39 -15.5q-22 0 -36.5 13.5t-14.5 33.5v1q-45 -48 -125 -48q-82 0 -129.5 47t-47.5 130v221q0 27 15 42.5t39 15.5z" />
    <glyph glyph-name="uni01DB" unicode="&#x1db;" 
d="M299 -14q-100 0 -156.5 59t-56.5 165v323q0 28 15.5 44t39.5 16t40 -16t16 -44v-304q0 -70 24 -105.5t78 -35.5q56 0 80 35t24 106v304q0 28 15.5 44t39.5 16t40 -16t16 -44v-323q0 -107 -57 -165.5t-158 -58.5zM197 631q-34 0 -55 18t-21 50q0 31 21 49t55 18
q32 0 53 -18t21 -49t-21 -49.5t-53 -18.5zM404 631q-34 0 -55 18t-21 50q0 31 21 49t55 18q32 0 53 -18t21 -49t-21 -49.5t-53 -18.5zM259 788l-94 67q-26 18 -26 49q0 21 16.5 36t35.5 15q27 0 49 -25l76 -89q19 -22 19 -37q0 -16 -11 -25.5t-25 -9.5t-40 19z" />
    <glyph glyph-name="uni01DC" unicode="&#x1dc;" 
d="M147 445q23 0 38.5 -15.5t15.5 -42.5v-190q0 -112 97 -112q43 0 68.5 27.5t25.5 84.5v190q0 27 15 42.5t39 15.5q23 0 38.5 -15.5t15.5 -42.5v-340q0 -27 -15 -42.5t-39 -15.5q-22 0 -36.5 13.5t-14.5 33.5v1q-45 -48 -125 -48q-82 0 -129.5 47t-47.5 130v221
q0 27 15 42.5t39 15.5zM194 500q-34 0 -54.5 18t-20.5 50q0 31 20.5 49t54.5 18q32 0 53.5 -18t21.5 -49t-21.5 -49.5t-53.5 -18.5zM401 500q-34 0 -55 18t-21 50q0 31 21 49t55 18q32 0 53 -18t21 -49t-21 -49.5t-53 -18.5zM256 667l-115 87q-25 19 -25 49q0 22 16.5 36.5
t36.5 14.5q28 0 48 -24l96 -110q19 -22 19 -37q0 -16 -11 -25.5t-25 -9.5t-40 19z" />
    <glyph glyph-name="uni01E6" unicode="&#x1e6;" 
d="M216 812l90 -75l90 75q20 15 37 15q13 0 23 -9.5t10 -23.5q0 -18 -19 -38l-101 -108q-19 -18 -40 -18t-40 18l-101 108q-19 20 -19 38q0 14 10 23.5t23 9.5q17 0 37 -15zM312 -12q-120 0 -190 84t-70 218q0 138 69 220.5t189 82.5q56 0 110.5 -20t81.5 -50q20 -21 20 -43
t-15 -37.5t-37 -15.5q-21 0 -52 23q-49 41 -106 41q-69 0 -107 -55t-38 -146q0 -93 39.5 -147t111.5 -54q61 0 99 26v105q-40 -2 -59 -2q-64 0 -64 52t61 52h116q24 0 40 -16t16 -44v-169q0 -36 -29 -55q-78 -50 -186 -50z" />
    <glyph glyph-name="uni01E7" unicode="&#x1e7;" 
d="M199 662l90 -76l91 76q19 15 36 15q13 0 23.5 -9.5t10.5 -23.5q0 -19 -20 -38l-101 -108q-19 -18 -40 -18q-20 0 -39 18l-102 108q-19 19 -19 38q0 14 10.5 23.5t22.5 9.5q18 0 37 -15zM188 101q0 -25 23 -37q42 6 72 6q111 0 173.5 -38.5t62.5 -105.5
q0 -66 -62.5 -104.5t-173.5 -38.5t-174 38.5t-63 104.5q0 74 76 113q-30 25 -30 62q0 45 40 68q-67 45 -67 119q0 70 58.5 113.5t150.5 43.5q49 0 92 -16q112 8 152 8q57 0 57 -41t-55 -41q-6 0 -62 4q22 -33 22 -71q0 -69 -59 -113t-148 -44q-28 0 -61 7q-24 -13 -24 -37z
M283 -139q57 0 93 17.5t36 47.5t-36 47.5t-93 17.5t-93 -17.5t-36 -47.5t36 -47.5t93 -17.5zM272 209q47 0 77.5 21.5t30.5 57.5q0 35 -30 57t-78 22q-46 0 -76.5 -22t-30.5 -57t30.5 -57t76.5 -22z" />
    <glyph glyph-name="uni01EA" unicode="&#x1ea;" 
d="M299 88q65 0 98 58t33 144t-33 143.5t-98 57.5t-97.5 -57t-32.5 -144t32.5 -144.5t97.5 -57.5zM251 -9q-97 19 -147 102t-50 197q0 132 63.5 217.5t181.5 85.5q119 0 182.5 -85.5t63.5 -217.5q0 -124 -53 -202t-157 -103q-42 -11 -42 -50q0 -42 44 -42q9 0 27 5.5t25 5.5
q17 0 28 -10.5t11 -27.5q0 -25 -29 -39.5t-66 -14.5q-57 0 -90 27.5t-33 73.5q0 21 11 43t30 35z" />
    <glyph glyph-name="uni01EB" unicode="&#x1eb;" 
d="M316 -188q-57 0 -90 28t-33 74q0 51 43 83q-79 18 -128 77t-49 143q0 102 69.5 165t171.5 63t171.5 -63t69.5 -165q0 -96 -60.5 -156.5t-152.5 -70.5q-25 -3 -38.5 -17.5t-13.5 -35.5q0 -44 44 -44q9 0 27 5.5t25 5.5q17 0 28 -10.5t11 -27.5q0 -25 -29 -39.5t-66 -14.5z
M300 85q56 0 93 37t37 95q0 57 -37 94.5t-93 37.5t-93 -37t-37 -95t36.5 -95t93.5 -37z" />
    <glyph glyph-name="uni01F8" unicode="&#x1f8;" 
d="M304 660l-115 87q-25 18 -25 49q0 21 16.5 36t35.5 15q28 0 49 -24l96 -110q18 -21 18 -37t-10.5 -25.5t-24.5 -9.5q-15 0 -40 19zM515 533v-487q0 -29 -14.5 -44.5t-38.5 -15.5q-22 0 -35 11.5t-28 36.5l-203 333v-321q0 -28 -15.5 -44t-39.5 -16t-40 16t-16 44v486
q0 29 14.5 45t38.5 16q22 0 35 -11.5t28 -36.5l203 -338v326q0 28 15.5 44t39.5 16t40 -16t16 -44z" />
    <glyph glyph-name="uni01F9" unicode="&#x1f9;" 
d="M454 -11q-24 0 -39 15.5t-15 42.5v191q0 111 -95 111q-97 0 -97 -112v-190q0 -28 -15 -43t-39 -15t-39 15.5t-15 42.5v340q0 27 15.5 42.5t38.5 15.5q21 0 36 -13t15 -35q43 48 125 48t130 -47t48 -130v-221q0 -28 -15 -43t-39 -15zM298 509l-115 86q-25 18 -25 49
q0 22 16 36.5t36 14.5q30 0 49 -23l96 -110q18 -21 18 -38q0 -15 -10.5 -25t-24.5 -10t-40 20z" />
    <glyph glyph-name="AEacute" unicode="&#x1fc;" 
d="M414 740l-115 -86q-28 -20 -40 -20q-15 0 -25.5 10t-10.5 25q0 16 19 38l96 110q20 23 48 23q20 0 36.5 -14.5t16.5 -36.5q0 -30 -25 -49zM85 -14q-24 0 -40 16t-16 44v310q0 105 56 164t155 59h283q30 0 47 -13.5t17 -38.5q0 -52 -64 -52q-18 0 -44.5 0.5t-56.5 2
t-42 1.5v-143q11 0 41 0.5t41 0.5q63 0 63 -51t-63 -51q-38 0 -82 2v-137q136 4 143 4q31 0 47.5 -14t16.5 -38q0 -25 -17 -38.5t-47 -13.5h-197q-24 0 -39.5 16t-15.5 44v154h-130v-168q0 -28 -16 -44t-40 -16zM141 310h130v170h-31q-99 0 -99 -127v-43z" />
    <glyph glyph-name="aeacute" unicode="&#x1fd;" 
d="M422 595l-115 -86q-28 -20 -40 -20q-15 0 -25.5 10t-10.5 25q0 16 19 38l96 110q20 23 48 23q20 0 36.5 -14.5t16.5 -36.5q0 -30 -25 -49zM169 -11q-65 0 -109 39t-44 102t43 101.5t106 38.5q54 0 92 -25v18q0 92 -74 92q-31 0 -63 -18q-22 -13 -42 -13q-18 0 -29 11
t-11 28q0 33 44 57q46 25 107 25q86 0 122 -56q44 56 111 56q75 0 119.5 -56.5t44.5 -149.5q0 -50 -38 -50h-196q8 -111 83 -111q34 0 65 34q16 18 37 18q16 0 27.5 -10.5t11.5 -29.5q0 -30 -27 -55q-46 -46 -119 -46q-80 0 -127 62q-42 -62 -134 -62zM185 64q36 0 55.5 18
t19.5 49q0 30 -19.5 48t-55.5 18q-34 0 -53.5 -18t-19.5 -48t20 -48.5t53 -18.5zM424 364q-62 0 -72 -102h141q-4 102 -69 102z" />
    <glyph glyph-name="Oslashacute" unicode="&#x1fe;" 
d="M299 84q68 0 101.5 59t33.5 147q0 50 -11 86l-211 -252q34 -40 87 -40zM79 -14q-17 0 -30 12t-13 28q0 26 15 44l39 46q-36 73 -36 174q0 132 63.5 217.5t181.5 85.5q90 0 150 -54l24 29q21 25 47 25q17 0 30 -12t13 -28q0 -26 -15 -44l-39 -46q36 -73 36 -173
q0 -132 -63.5 -218t-182.5 -86q-88 0 -149 53l-25 -29q-19 -24 -46 -24zM165 290q0 -50 10 -89l211 254q-34 41 -87 41q-67 0 -100.5 -59t-33.5 -147zM410 740l-115 -86q-28 -20 -40 -20q-15 0 -25.5 10t-10.5 25q0 16 19 38l96 110q20 23 48 23q20 0 36.5 -14.5t16.5 -36.5
q0 -30 -25 -49z" />
    <glyph glyph-name="oslashacute" unicode="&#x1ff;" 
d="M300 -11q-82 0 -144 42l-44 -39q-22 -18 -39 -18q-16 0 -28.5 12.5t-12.5 27.5q0 24 17 38l45 40q-35 56 -35 125q0 102 69.5 165t171.5 63q80 0 144 -43l41 36q20 19 38 19q16 0 29 -12.5t13 -27.5q0 -25 -17 -39l-43 -37q36 -53 36 -124q0 -102 -69.5 -165t-171.5 -63z
M166 217q0 -32 13 -60l196 173q-36 23 -75 23q-58 0 -96 -38.5t-38 -97.5zM300 81q58 0 96 38.5t38 97.5q0 31 -13 59l-196 -173q33 -22 75 -22zM411 595l-115 -86q-28 -20 -40 -20q-15 0 -25.5 10t-10.5 25q0 16 19 38l96 110q20 23 48 23q20 0 36.5 -14.5t16.5 -36.5
q0 -30 -25 -49z" />
    <glyph glyph-name="Scommaaccent" unicode="&#x218;" 
d="M294 -310q-19 -15 -35 -15q-11 0 -18 6t-7 16q0 13 17 30q45 40 47 78q-36 -2 -58 16t-22 49q0 29 20.5 48t55.5 19q39 0 61 -24t22 -65q0 -46 -24.5 -90t-58.5 -68zM295 -14q-97 0 -173 44q-55 32 -55 71q0 22 15.5 37t37.5 15t56 -25q56 -38 125 -38q50 0 82 19t32 53
q0 32 -31.5 48.5t-99.5 31.5q-100 21 -155.5 61.5t-55.5 117.5q0 82 65 127t159 45t160 -42q52 -29 52 -66q0 -23 -14 -37t-35 -14q-22 0 -50 19q-59 37 -119 37q-46 0 -72.5 -17.5t-26.5 -46.5q0 -23 18.5 -38.5t40 -22.5t60.5 -16q54 -12 89 -24t68.5 -32t49 -50t15.5 -71
q0 -91 -68.5 -138.5t-169.5 -47.5z" />
    <glyph glyph-name="scommaaccent" unicode="&#x219;" 
d="M298 -310q-19 -15 -35 -15q-11 0 -18 6t-7 16q0 13 17 30q45 40 47 78q-36 -2 -58 16t-22 49q0 29 20.5 48t55.5 19q39 0 61 -24t22 -65q0 -46 -24.5 -90t-58.5 -68zM308 -11q-111 0 -186 41q-39 21 -39 54q0 20 13.5 33.5t33.5 13.5q23 0 52 -18q59 -36 139 -36
q99 0 99 47q0 21 -24 30t-101 19q-96 12 -147 41.5t-51 94.5q0 70 57 103t148 33q88 0 161 -33q39 -19 39 -52q0 -20 -14 -33.5t-33 -13.5q-21 0 -51 15q-63 28 -118 28q-85 0 -85 -42q0 -20 27 -30t90 -17q107 -13 156.5 -41.5t49.5 -93.5q0 -71 -57.5 -107t-158.5 -36z
" />
    <glyph glyph-name="uni021A" unicode="&#x21a;" 
d="M293 -310q-19 -15 -35 -15q-11 0 -18 6t-7 16q0 13 17 30q45 40 47 78q-36 -2 -58 16t-22 49q0 29 20.5 48t55.5 19q39 0 61 -24t22 -65q0 -46 -24.5 -90t-58.5 -68zM245 46v433q-5 0 -61.5 -2t-79.5 -2q-63 0 -63 52t63 52h392q30 0 47 -13.5t17 -38.5q0 -52 -64 -52
q-22 0 -78 2t-62 2v-433q0 -28 -16 -44t-40 -16t-39.5 16t-15.5 44z" />
    <glyph glyph-name="uni021B" unicode="&#x21b;" 
d="M337 -310q-19 -15 -35 -15q-11 0 -18 6t-7 16q0 13 17 30q45 40 47 78q-36 -2 -58 16t-22 49q0 29 20.5 48t55.5 19q39 0 61 -24t22 -65q0 -46 -24.5 -90t-58.5 -68zM292 434h165q26 0 41.5 -13t15.5 -36q0 -48 -60 -48q-72 0 -162 5v-160q0 -98 77 -98q26 0 58 15
q5 2 14.5 7t14.5 7t13 4t16 2q19 0 32 -12.5t13 -32.5q0 -32 -37 -55q-49 -30 -134 -30q-91 0 -133 46.5t-42 144.5v161q-7 0 -25 -1.5t-33.5 -2t-26.5 -0.5q-60 0 -60 48q0 23 15.5 36t41.5 13h88v122q0 27 15.5 42.5t38.5 15.5t38.5 -15.5t15.5 -42.5v-122z" />
    <glyph glyph-name="uni0226" unicode="&#x226;" 
d="M142 -14q-24 0 -40 16t-16 44v323q0 105 57 164.5t157 59.5q101 0 157.5 -59t56.5 -165v-323q0 -28 -15.5 -44t-39.5 -16t-40 16t-16 44v134h-206v-134q0 -28 -15.5 -44t-39.5 -16zM197 280h206v68q0 71 -23 107t-80 36q-56 0 -79.5 -36t-23.5 -107v-68zM300 651
q-37 0 -59.5 20t-22.5 54t22.5 53.5t59.5 19.5t59.5 -19.5t22.5 -53.5t-22.5 -54t-59.5 -20z" />
    <glyph glyph-name="uni0227" unicode="&#x227;" 
d="M260 -11q-82 0 -136 38t-54 103t54 103t136 38q85 0 141 -36v29q0 43 -29 65t-81 22q-50 0 -94 -20q-2 -1 -14 -6.5t-20.5 -8t-17.5 -2.5q-20 0 -33.5 13.5t-13.5 33.5q0 37 53 58q63 26 145 26q212 0 212 -183v-215q0 -28 -15 -43t-38 -15q-39 0 -50 38
q-53 -38 -145 -38zM291 67q51 0 83.5 17.5t32.5 46.5t-32.5 46t-83.5 17q-49 0 -80.5 -17t-31.5 -46t31.5 -46.5t80.5 -17.5zM300 500q-37 0 -59.5 20t-22.5 54t22.5 53.5t59.5 19.5t59.5 -19.5t22.5 -53.5t-22.5 -54t-59.5 -20z" />
    <glyph glyph-name="uni022E" unicode="&#x22e;" 
d="M300 651q-37 0 -59.5 20t-22.5 54t22.5 53.5t59.5 19.5t59.5 -19.5t22.5 -53.5t-22.5 -54t-59.5 -20zM299 88q65 0 98 58t33 144t-33 143.5t-98 57.5t-97.5 -57t-32.5 -144t32.5 -144.5t97.5 -57.5zM299 -14q-118 0 -181.5 86t-63.5 218t63.5 217.5t181.5 85.5
q119 0 182.5 -85.5t63.5 -217.5t-63.5 -218t-182.5 -86z" />
    <glyph glyph-name="uni022F" unicode="&#x22f;" 
d="M300 500q-37 0 -59.5 20t-22.5 54t22.5 53.5t59.5 19.5t59.5 -19.5t22.5 -53.5t-22.5 -54t-59.5 -20zM300 -11q-102 0 -171.5 63t-69.5 165t69.5 165t171.5 63t171.5 -63t69.5 -165t-69.5 -165t-171.5 -63zM300 85q56 0 93 37t37 95q0 57 -37 94.5t-93 37.5t-93 -37
t-37 -95t36.5 -95t93.5 -37z" />
    <glyph glyph-name="dotlessj" unicode="&#x237;" 
d="M160 434h213q25 0 39.5 -14t14.5 -37v-383q0 -217 -209 -217q-46 0 -84 12q-53 14 -53 55q0 21 15 34.5t37 13.5q13 0 35 -6q36 -10 60 -10q91 0 91 119v340q-132 -4 -156 -4q-60 0 -60 48q0 23 15.5 36t41.5 13z" />
    <glyph glyph-name="uni0243" unicode="&#x243;" 
d="M305 0h-153q-24 0 -40 15.5t-16 43.5v78h-20q-55 0 -55 35t55 35h20v313q0 28 16 43.5t40 15.5h144q102 0 164 -38.5t62 -121.5q0 -79 -68 -121q85 -40 85 -126q0 -89 -66.5 -130.5t-167.5 -41.5zM306 483h-99v-148h96q49 0 76.5 18.5t27.5 55.5q0 74 -101 74zM314 256
h-107v-49h69q55 0 55 -35t-55 -35h-69v-47h108q111 0 111 84q0 82 -112 82z" />
    <glyph glyph-name="schwa" unicode="&#x259;" 
d="M293 445q110 0 177 -62t67 -166q0 -103 -68 -165.5t-172 -62.5q-95 0 -162 58.5t-67 147.5q0 23 13.5 36.5t39.5 13.5h306q-9 49 -45.5 78t-88.5 29q-59 0 -118 -38q-28 -16 -47 -16q-20 0 -34 13t-14 32q0 33 39 58q72 44 174 44zM297 76q47 0 82 24.5t46 71.5h-252
q7 -46 42 -71t82 -25z" />
    <glyph glyph-name="circumflex" unicode="&#x2c6;" 
d="M300 573l-90 -76q-20 -15 -37 -15q-13 0 -23 9.5t-10 23.5q0 20 19 38l101 108q19 18 40 18t40 -18l101 -108q19 -18 19 -38q0 -14 -10 -23.5t-23 -9.5q-17 0 -37 15z" />
    <glyph glyph-name="caron" unicode="&#x2c7;" 
d="M210 662l90 -76l90 76q20 15 37 15q13 0 23 -9.5t10 -23.5q0 -20 -19 -38l-101 -108q-19 -18 -40 -18t-40 18l-101 108q-19 18 -19 38q0 14 10 23.5t23 9.5q17 0 37 -15z" />
    <glyph glyph-name="breve" unicode="&#x2d8;" 
d="M300 580q58 0 93 57q12 20 33 20q14 0 24 -10t10 -26q0 -25 -13 -49q-18 -35 -56 -58.5t-91 -23.5t-90.5 22.5t-55.5 57.5q-13 23 -13 51q0 16 9.5 26t23.5 10q21 0 34 -20q33 -57 92 -57z" />
    <glyph glyph-name="dotaccent" unicode="&#x2d9;" 
d="M300 499q-37 0 -59.5 20t-22.5 54q0 33 23 53t59 20q38 0 60.5 -19.5t22.5 -53.5t-22.5 -54t-60.5 -20z" />
    <glyph glyph-name="ring" unicode="&#x2da;" 
d="M423 578q0 -47 -33.5 -79.5t-89.5 -32.5t-89.5 32.5t-33.5 79.5t33.5 79t89.5 32t89.5 -32t33.5 -79zM354 578q0 21 -14 36.5t-40 15.5t-40 -15.5t-14 -36.5q0 -22 14 -37t40 -15t40 15t14 37z" />
    <glyph glyph-name="ogonek" unicode="&#x2db;" 
d="M253 26l85 -4q-75 -38 -75 -87q0 -42 44 -42q9 0 27 5.5t26 5.5q17 0 28 -11t11 -27q0 -25 -29.5 -39.5t-66.5 -14.5q-56 0 -89 28t-33 74q0 32 20 62.5t52 49.5z" />
    <glyph glyph-name="tilde" unicode="&#x2dc;" 
d="M370 497q-34 0 -79.5 29.5t-55.5 29.5q-19 0 -32 -32q-10 -26 -34 -26q-15 0 -25.5 10.5t-10.5 27.5q0 43 28 75.5t70 32.5q34 0 79 -29.5t55 -29.5q20 0 33 32q10 26 33 26q16 0 26 -10.5t10 -27.5q0 -43 -28 -75.5t-69 -32.5z" />
    <glyph glyph-name="hungarumlaut" unicode="&#x2dd;" 
d="M296 594l-85 -80q-21 -20 -36 -20q-12 0 -21 8.5t-9 20.5t16 38l64 101q18 27 46 27q20 0 36 -12.5t16 -34.5q0 -24 -27 -48zM482 594l-86 -80q-21 -20 -37 -20q-11 0 -19.5 8.5t-8.5 20.5q0 14 15 38l65 101q16 27 46 27q20 0 35.5 -12.5t15.5 -34.5q0 -24 -26 -48z" />
    <glyph glyph-name="uni0300" unicode="&#x300;" 
d="M325 509l-115 86q-25 18 -25 49q0 22 16 36.5t36 14.5q30 0 49 -23l96 -110q18 -21 18 -38q0 -15 -10.5 -25t-24.5 -10t-40 20z" />
    <glyph glyph-name="uni0301" unicode="&#x301;" 
d="M392 595l-115 -86q-28 -20 -40 -20q-15 0 -25.5 10t-10.5 25q0 16 19 38l96 110q20 23 48 23q20 0 36.5 -14.5t16.5 -36.5q0 -30 -25 -49z" />
    <glyph glyph-name="uni0302" unicode="&#x302;" 
d="M300 573l-90 -76q-20 -15 -37 -15q-13 0 -23 9.5t-10 23.5q0 20 19 38l101 108q19 18 40 18t40 -18l101 -108q19 -18 19 -38q0 -14 -10 -23.5t-23 -9.5q-17 0 -37 15z" />
    <glyph glyph-name="uni0303" unicode="&#x303;" 
d="M369 497q-33 0 -78.5 29.5t-55.5 29.5q-18 0 -33 -32q-10 -26 -34 -26q-16 0 -25.5 10.5t-9.5 28.5q0 42 28.5 74.5t69.5 32.5q33 0 78.5 -29.5t55.5 -29.5q18 0 33 32q10 26 34 26q16 0 25.5 -10.5t9.5 -28.5q0 -42 -28.5 -74.5t-69.5 -32.5z" />
    <glyph glyph-name="uni0304" unicode="&#x304;" 
d="M403 521h-206q-25 0 -40.5 12.5t-15.5 34.5t15.5 34.5t40.5 12.5h206q25 0 40 -12.5t15 -34.5t-15 -34.5t-40 -12.5z" />
    <glyph glyph-name="uni0306" unicode="&#x306;" 
d="M300 490q-53 1 -90.5 23t-55.5 57q-13 23 -13 52q0 15 9.5 25t23.5 10q21 0 34 -20q32 -57 92 -57q59 0 93 57q12 20 33 20q14 0 24 -10t10 -25q0 -26 -13 -50q-18 -35 -56 -58t-91 -24z" />
    <glyph glyph-name="uni0307" unicode="&#x307;" 
d="M300 500q-37 0 -59.5 20t-22.5 54t22.5 53.5t59.5 19.5t59.5 -19.5t22.5 -53.5t-22.5 -54t-59.5 -20z" />
    <glyph glyph-name="uni0308" unicode="&#x308;" 
d="M196 500q-32 0 -53.5 18.5t-21.5 49.5t21.5 49t53.5 18q34 0 54.5 -18t20.5 -49q0 -32 -20.5 -50t-54.5 -18zM403 500q-32 0 -53.5 18.5t-21.5 49.5t21.5 49t53.5 18q34 0 54.5 -18t20.5 -49q0 -32 -20.5 -50t-54.5 -18z" />
    <glyph glyph-name="uni0309" unicode="&#x309;" 
d="M336 477q-19 -11 -36 -11q-14 0 -23 7.5t-9 20.5q0 18 15 30q4 3 15 11.5t15.5 13t9.5 13t5 18.5q0 14 -11 22.5t-29 8.5q-12 0 -30.5 -6t-25.5 -6q-18 0 -29 10t-11 27q0 25 29 39.5t67 14.5q60 0 93.5 -27t33.5 -71q0 -73 -79 -115z" />
    <glyph glyph-name="uni030A" unicode="&#x30a;" 
d="M423 578q0 -47 -33.5 -79.5t-89.5 -32.5t-90 32.5t-34 79.5t34 79t90 32t89.5 -32t33.5 -79zM354 578q0 21 -14.5 36.5t-39.5 15.5q-26 0 -40.5 -15.5t-14.5 -36.5q0 -22 14.5 -37t40.5 -15q25 0 39.5 15.5t14.5 36.5z" />
    <glyph glyph-name="uni030B" unicode="&#x30b;" 
d="M277 594l-85 -80q-21 -20 -36 -20q-12 0 -21 8.5t-9 20.5q0 15 15 38l65 101q18 28 47 28q19 0 34.5 -13.5t15.5 -34.5q0 -24 -26 -48zM462 594l-85 -80q-25 -20 -36 -20q-12 0 -21 8.5t-9 20.5q0 15 15 38l65 101q18 28 47 28q20 0 35.5 -13t15.5 -35q0 -24 -27 -48z
" />
    <glyph glyph-name="uni030C" unicode="&#x30c;" 
d="M210 662l90 -76l91 76q19 15 36 15q13 0 23.5 -9.5t10.5 -23.5q0 -19 -20 -38l-101 -108q-19 -18 -40 -18q-20 0 -39 18l-102 108q-19 19 -19 38q0 14 10.5 23.5t22.5 9.5q18 0 37 -15z" />
    <glyph glyph-name="uni030F" unicode="&#x30f;" 
d="M237 514l-85 80q-26 23 -26 48q0 22 15.5 35t35.5 13q28 0 46 -28l65 -101q15 -24 15 -38q0 -12 -9 -20.5t-21 -8.5q-10 0 -36 20zM423 514l-85 80q-27 24 -27 48q0 21 15.5 34.5t34.5 13.5q30 0 48 -28l64 -101q16 -26 16 -38t-9.5 -20.5t-21.5 -8.5q-10 0 -35 20z" />
    <glyph glyph-name="commaturnedabovecmb" unicode="&#x312;" 
d="M304 739q21 15 34 15q11 0 18.5 -6.5t7.5 -16.5q0 -13 -18 -30q-45 -38 -47 -78q35 2 58 -16t23 -49q0 -29 -20.5 -48t-54.5 -19q-38 0 -61.5 24t-23.5 65q0 46 24.5 90t59.5 69z" />
    <glyph glyph-name="uni0313" unicode="&#x313;" 
d="M296 506q-19 -15 -35 -15q-11 0 -18 6.5t-7 16.5q0 12 18 29q45 40 47 79q-35 -2 -58 15.5t-23 48.5q0 29 20.5 48.5t54.5 19.5q38 0 61.5 -24t23.5 -65q0 -46 -24.5 -90t-59.5 -69z" />
    <glyph glyph-name="uni031B" unicode="&#x31b;" 
d="M286 540q0 20 13 33t31 13q29 0 45 -25.5t16 -65.5q0 -60 -36.5 -94t-92.5 -34q-26 0 -43.5 9t-17.5 27q0 32 34 32h11q25 1 40 13.5t15 34.5q0 12 -7.5 28t-7.5 29z" />
    <glyph glyph-name="uni0323" unicode="&#x323;" 
d="M300 -212q-37 0 -59.5 20t-22.5 54q0 33 23 53t59 20q38 0 60.5 -19.5t22.5 -53.5t-22.5 -54t-60.5 -20z" />
    <glyph glyph-name="uni0324" unicode="&#x324;" 
d="M196 -198q-32 0 -53.5 18t-21.5 49t21 49t54 18q34 0 54.5 -17.5t20.5 -49.5q0 -31 -20.5 -49t-54.5 -18zM403 -198q-32 0 -53.5 18t-21.5 49t21 49t54 18q34 0 54.5 -17.5t20.5 -49.5q0 -31 -20.5 -49t-54.5 -18z" />
    <glyph glyph-name="uni0327" unicode="&#x327;" 
d="M286 -188q-37 0 -66 14.5t-29 39.5q0 17 11 27.5t28 10.5q7 0 25 -5.5t27 -5.5q44 0 44 42q0 49 -75 88l86 3q32 -19 51.5 -49.5t19.5 -62.5q0 -46 -33 -74t-89 -28z" />
    <glyph glyph-name="uni0328" unicode="&#x328;" 
d="M303 -188q-56 0 -89 28t-33 74q0 32 20 62.5t52 49.5l86 -2q-76 -40 -76 -89q0 -42 44 -42q9 0 27 5.5t25 5.5q17 0 28.5 -11t11.5 -27q0 -25 -29.5 -39.5t-66.5 -14.5z" />
    <glyph glyph-name="uni032E" unicode="&#x32e;" 
d="M300 -215q-54 1 -92.5 24.5t-56.5 59.5q-11 24 -11 48q0 15 10 25t24 10q21 0 33 -19q34 -58 93 -58q60 0 92 58q12 19 34 19q14 0 23.5 -10t9.5 -25q0 -27 -13 -53q-19 -34 -56.5 -56t-89.5 -23z" />
    <glyph glyph-name="uni0331" unicode="&#x331;" 
d="M403 -180h-206q-25 0 -40.5 12.5t-15.5 33.5q0 23 15.5 35t40.5 12h206q55 0 55 -47q0 -22 -15 -34t-40 -12z" />
    <glyph glyph-name="tonos" unicode="&#x384;" 
d="M300 486q-27 0 -35 41l-21 107q-5 28 10.5 49t45.5 21t45.5 -21.5t10.5 -48.5l-21 -107q-5 -22 -12.5 -31.5t-22.5 -9.5z" />
    <glyph glyph-name="dieresistonos" unicode="&#x385;" 
d="M300 486q-27 0 -35 41l-21 107q-5 27 10.5 48.5t45.5 21.5t45.5 -21.5t10.5 -48.5l-21 -107q-8 -41 -35 -41zM156 503q-30 0 -49 18t-19 50q0 31 19 49t49 18q31 0 50 -18t19 -49q0 -32 -19 -50t-50 -18zM443 503q-30 0 -49 18t-19 50q0 31 19 49t49 18q31 0 50 -18
t19 -49q0 -32 -19 -50t-50 -18z" />
    <glyph glyph-name="Alphatonos" unicode="&#x386;" 
d="M549 373v-327q0 -28 -15.5 -44t-39.5 -16t-40 16t-16 44v134h-155v-134q0 -28 -16 -44t-40 -16t-39.5 16t-15.5 44v327q0 107 49.5 163.5t138.5 56.5q90 0 139.5 -56.5t49.5 -163.5zM283 378v-98h155v98q0 113 -78 113q-77 0 -77 -113zM63 376q-28 0 -35 40l-20 108
q-6 27 9 48t46 21q30 0 45.5 -20t10.5 -49l-20 -108q-7 -40 -36 -40z" />
    <glyph glyph-name="Epsilontonos" unicode="&#x388;" 
d="M417 242q-77 0 -112 1v-143q15 0 83.5 2t101.5 2q31 0 47.5 -14t16.5 -38t-17 -38t-47 -14h-241q-24 0 -39.5 16t-15.5 44v460q0 28 15.5 43.5t40.5 15.5h241q30 0 47 -13.5t17 -38.5q0 -52 -64 -52q-31 0 -101 2t-85 2v-136q70 2 112 2q63 0 63 -52q0 -51 -63 -51z
M70 376q-27 0 -34 40l-21 108q-6 27 9.5 48t45.5 21t46.5 -20t10.5 -49l-20 -108q-7 -40 -37 -40z" />
    <glyph glyph-name="Etatonos" unicode="&#x389;" 
d="M547 533v-487q0 -28 -16 -44t-40 -16t-39.5 16t-15.5 44v201h-140v-201q0 -28 -15.5 -44t-39.5 -16t-40 16t-16 44v487q0 28 16 44t40 16t39.5 -16t15.5 -44v-185h140v185q0 28 15.5 44t39.5 16t40 -16t16 -44zM70 376q-27 0 -34 40l-21 108q-6 27 9.5 48t45.5 21
t46.5 -20t10.5 -49l-20 -108q-7 -40 -37 -40z" />
    <glyph glyph-name="Iotatonos" unicode="&#x38a;" 
d="M312 100v379q-4 0 -31.5 -2t-36.5 -2q-63 0 -63 52t63 52h246q63 0 63 -52t-63 -52q-10 0 -37.5 2t-29.5 2v-379q5 0 20 1.5t27.5 2t19.5 0.5q31 0 47 -14t16 -38q0 -52 -63 -52h-246q-63 0 -63 52q0 24 16 38t47 14q4 0 68 -4zM70 376q-27 0 -34 40l-21 108
q-6 27 9.5 48t45.5 21t46.5 -20t10.5 -49l-20 -108q-7 -40 -37 -40z" />
    <glyph glyph-name="Omicrontonos" unicode="&#x38c;" 
d="M577 290q0 -134 -54 -218t-161 -84t-160.5 84t-53.5 218t53.5 218t160.5 84t161 -84t54 -218zM462 290q0 91 -24.5 146.5t-75.5 55.5q-99 0 -99 -202t99 -202q51 0 75.5 55.5t24.5 146.5zM70 376q-27 0 -34 40l-21 108q-6 27 9.5 48t45.5 21t46.5 -20t10.5 -49l-20 -108
q-7 -40 -37 -40z" />
    <glyph glyph-name="Upsilontonos" unicode="&#x38e;" 
d="M369 -14q-24 0 -39.5 16t-15.5 44v149l-141 295q-14 30 -14 49q0 23 15.5 38.5t40.5 15.5q39 0 55 -42l99 -253l99 253q16 42 55 42q25 0 40.5 -15.5t15.5 -38.5q0 -19 -14 -49l-140 -294v-150q0 -28 -16 -44t-40 -16zM70 376q-27 0 -34 40l-21 108q-6 27 9.5 48t45.5 21
t46.5 -20t10.5 -49l-20 -108q-7 -40 -37 -40z" />
    <glyph glyph-name="Omegatonos" unicode="&#x38f;" 
d="M360 593q100 0 154.5 -77.5t54.5 -189.5q0 -148 -82 -230q48 6 56 6q29 0 44.5 -14t15.5 -38q0 -50 -60 -50h-100q-28 0 -45 13.5t-17 39.5t30 78q43 75 43 179q0 182 -94 182t-94 -182q0 -102 44 -179q29 -52 29 -78q0 -53 -62 -53h-100q-60 0 -60 50q0 24 15.5 38
t44.5 14q14 0 56 -6q-82 82 -82 230q0 112 54.5 189.5t154.5 77.5zM70 376q-27 0 -34 40l-21 108q-6 27 9.5 48t45.5 21t46.5 -20t10.5 -49l-20 -108q-7 -40 -37 -40z" />
    <glyph glyph-name="iotadieresistonos" unicode="&#x390;" 
d="M300 486q-27 0 -35 41l-21 107q-5 27 10.5 48.5t45.5 21.5t45.5 -21.5t10.5 -48.5l-21 -107q-8 -41 -35 -41zM156 503q-30 0 -49 18t-19 50q0 31 19 49t49 18q31 0 50 -18t19 -49q0 -32 -19 -50t-50 -18zM443 503q-30 0 -49 18t-19 50q0 31 19 49t49 18q31 0 50 -18
t19 -49q0 -32 -19 -50t-50 -18zM407 -11q-85 0 -124 45t-39 139v170q-52 -6 -114 -6q-59 0 -59 48q0 23 15.5 36t41.5 13h170q25 0 39.5 -14t14.5 -37v-208q0 -91 65 -91q25 0 48 12q28 16 48 16t33 -12.5t13 -32.5q0 -31 -36 -52q-42 -26 -116 -26z" />
    <glyph glyph-name="Alpha" unicode="&#x391;" 
d="M142 -14q-24 0 -40 16t-16 44v323q0 105 57 164.5t157 59.5q101 0 157.5 -59t56.5 -165v-323q0 -28 -15.5 -44t-39.5 -16t-40 16t-16 44v134h-206v-134q0 -28 -15.5 -44t-39.5 -16zM197 280h206v68q0 71 -23 107t-80 36q-56 0 -79.5 -36t-23.5 -107v-68z" />
    <glyph glyph-name="Beta" unicode="&#x392;" 
d="M305 0h-153q-24 0 -40 15.5t-16 43.5v461q0 28 16 43.5t40 15.5h144q102 0 164 -38.5t62 -121.5q0 -79 -68 -121q85 -40 85 -126q0 -89 -66.5 -130.5t-167.5 -41.5zM314 249h-107v-153h108q111 0 111 78q0 75 -112 75zM306 483h-99v-148h96q49 0 76.5 18.5t27.5 55.5
q0 74 -101 74z" />
    <glyph glyph-name="Gamma" unicode="&#x393;" 
d="M152 -14q-24 0 -40 16t-16 44v473q0 28 16 44t40 16h317q30 0 47 -13.5t17 -38.5q0 -52 -64 -52q-14 0 -262 4v-433q0 -28 -15.5 -44t-39.5 -16z" />
    <glyph glyph-name="uni0394" unicode="&#x394;" 
d="M40 55q0 23 10 46l193 446q20 46 57 46t57 -46l193 -446q11 -25 11 -46q0 -23 -16.5 -39t-42.5 -16h-404q-26 0 -42 16t-16 39zM430 99l-130 321l-131 -321h261z" />
    <glyph glyph-name="Epsilon" unicode="&#x395;" 
d="M152 0q-25 0 -40.5 15.5t-15.5 43.5v461q0 28 15.5 43.5t40.5 15.5h306q64 0 64 -52t-64 -52q-7 0 -251 4v-137q174 3 177 3q63 0 63 -52q0 -51 -63 -51q-59 0 -177 2v-144q19 0 76 1.5t103.5 2t71.5 0.5q31 0 47.5 -14t16.5 -38q0 -52 -64 -52h-306z" />
    <glyph glyph-name="Zeta" unicode="&#x396;" 
d="M130 0q-26 0 -42.5 14t-16.5 38t24 57l280 370q-208 -4 -236 -4q-63 0 -63 52t63 52h331q26 0 42 -13.5t16 -38.5t-23 -57l-280 -370q180 4 244 4q31 0 47.5 -14t16.5 -38q0 -25 -17 -38.5t-47 -13.5h-339z" />
    <glyph glyph-name="Eta" unicode="&#x397;" 
d="M143 -14q-24 0 -39.5 16t-15.5 44v487q0 28 15.5 44t39.5 16t40 -16t16 -44v-187h202v187q0 28 15.5 44t39.5 16t40 -16t16 -44v-487q0 -28 -16 -44t-40 -16t-39.5 16t-15.5 44v199h-202v-199q0 -28 -16 -44t-40 -16z" />
    <glyph glyph-name="Theta" unicode="&#x398;" 
d="M343 241h-87q-24 0 -38.5 12t-14.5 33q0 45 53 45h87q53 0 53 -45q0 -21 -14.5 -33t-38.5 -12zM299 87q66 0 99 57.5t33 145.5q0 87 -33 144.5t-99 57.5t-99 -57.5t-33 -144.5t33 -145t99 -58zM299 -14q-118 0 -181.5 86t-63.5 218t63.5 217.5t181.5 85.5
q119 0 182.5 -85.5t63.5 -217.5t-63.5 -218t-182.5 -86z" />
    <glyph glyph-name="Iota" unicode="&#x399;" 
d="M244 100v379q-4 0 -43 -2t-54 -2q-64 0 -64 52t64 52h305q64 0 64 -52t-64 -52q-15 0 -54 2t-43 2v-379q4 0 43 2t54 2q31 0 47.5 -14t16.5 -38q0 -52 -64 -52h-305q-64 0 -64 52q0 24 16.5 38t47.5 14q15 0 54 -2t43 -2z" />
    <glyph glyph-name="Kappa" unicode="&#x39a;" 
d="M500 -14q-30 0 -56 34l-171 230l-65 -67v-137q0 -28 -16 -44t-40 -16t-39.5 16t-15.5 44v487q0 28 15.5 44t39.5 16t40 -16t16 -44v-200l218 234q23 26 51 26q23 0 38 -14.5t15 -36.5q0 -28 -27 -55l-150 -154l179 -239q22 -31 22 -55q0 -22 -14.5 -37.5t-39.5 -15.5z
" />
    <glyph glyph-name="Lambda" unicode="&#x39b;" 
d="M444 37l-144 375l-144 -375q-20 -51 -60 -51q-25 0 -39.5 16t-14.5 39q0 20 11 46l190 460q19 46 57 46t57 -46l190 -460q11 -26 11 -46q0 -23 -14.5 -39t-39.5 -16q-40 0 -60 51z" />
    <glyph glyph-name="Mu" unicode="&#x39c;" 
d="M61 46v486q0 29 14.5 45t40.5 16q40 0 64 -52l120 -247l121 247q25 52 63 52q26 0 40.5 -16t14.5 -45v-486q0 -28 -15 -44t-39 -16t-39.5 16t-15.5 44v314l-77 -161q-19 -40 -53 -40t-53 40l-77 161v-314q0 -28 -15 -44t-39 -16t-39.5 16t-15.5 44z" />
    <glyph glyph-name="Nu" unicode="&#x39d;" 
d="M515 533v-487q0 -29 -14.5 -44.5t-38.5 -15.5q-22 0 -35 11.5t-28 36.5l-203 333v-321q0 -28 -15.5 -44t-39.5 -16t-40 16t-16 44v486q0 29 14.5 45t38.5 16q22 0 35 -11.5t28 -36.5l203 -338v326q0 28 15.5 44t39.5 16t40 -16t16 -44z" />
    <glyph glyph-name="Xi" unicode="&#x39e;" 
d="M134 104h339q26 0 41 -14t15 -38t-15 -38t-41 -14h-339q-26 0 -41 14t-15 38t15 38t41 14zM134 579h339q26 0 41 -14.5t15 -38.5q0 -23 -15 -37t-41 -14h-339q-26 0 -41 14t-15 37q0 24 15 38.5t41 14.5zM181 344h246q26 0 40.5 -14t14.5 -38t-14.5 -38t-40.5 -14h-246
q-26 0 -41 14t-15 38t15 38t41 14z" />
    <glyph glyph-name="Omicron" unicode="&#x39f;" 
d="M299 88q65 0 98 58t33 144t-33 143.5t-98 57.5t-97.5 -57t-32.5 -144t32.5 -144.5t97.5 -57.5zM299 -14q-118 0 -181.5 86t-63.5 218t63.5 217.5t181.5 85.5q119 0 182.5 -85.5t63.5 -217.5t-63.5 -218t-182.5 -86z" />
    <glyph glyph-name="Pi" unicode="&#x3a0;" 
d="M145 -14q-24 0 -40 16t-16 44v474q0 28 16 43.5t43 15.5h303q27 0 43 -15.5t16 -43.5v-474q0 -28 -15.5 -44t-39.5 -16t-40 16t-16 44v433h-199v-433q0 -28 -15.5 -44t-39.5 -16z" />
    <glyph glyph-name="Rho" unicode="&#x3a1;" 
d="M98 46v474q0 28 16 43.5t40 15.5h152q107 0 170 -49t63 -146t-63 -146.5t-170 -49.5h-97v-142q0 -28 -15.5 -44t-39.5 -16t-40 16t-16 44zM301 479h-92v-190h92q56 0 89.5 23.5t33.5 71.5t-33.5 71.5t-89.5 23.5z" />
    <glyph glyph-name="Sigma" unicode="&#x3a3;" 
d="M142 0q-26 0 -43 14.5t-17 39.5q0 19 10 34t38 42l169 162l-169 157q-27 26 -37.5 41.5t-10.5 34.5q0 25 17 39.5t43 14.5h322q63 0 63 -52t-63 -52q-23 0 -64.5 0.5t-91.5 2t-69 1.5l147 -132q22 -19 29.5 -29.5t7.5 -25.5t-7.5 -25.5t-28.5 -29.5l-148 -137
q18 0 68 1.5t91.5 2t65.5 0.5q31 0 47 -14t16 -38q0 -52 -63 -52h-322z" />
    <glyph glyph-name="Tau" unicode="&#x3a4;" 
d="M245 46v433q-5 0 -61.5 -2t-79.5 -2q-63 0 -63 52t63 52h392q30 0 47 -13.5t17 -38.5q0 -52 -64 -52q-22 0 -78 2t-62 2v-433q0 -28 -16 -44t-40 -16t-39.5 16t-15.5 44z" />
    <glyph glyph-name="Upsilon" unicode="&#x3a5;" 
d="M300 -14q-24 0 -39.5 16t-15.5 44v160l-193 285q-17 24 -17 48q0 23 15.5 38.5t40.5 15.5q32 0 58 -43l151 -241l151 241q28 43 58 43q26 0 41.5 -15.5t15.5 -38.5t-18 -48l-192 -285v-160q0 -28 -16 -44t-40 -16z" />
    <glyph glyph-name="Phi" unicode="&#x3a6;" 
d="M247 42v12q-103 7 -164.5 72.5t-61.5 162.5q0 96 61.5 162t164.5 75v11q0 26 15.5 41t37.5 15t37.5 -15t15.5 -41v-11q102 -9 164 -75t62 -162t-62 -162t-164 -73v-12q0 -26 -15.5 -41t-37.5 -15t-37.5 15t-15.5 41zM126 289q0 -59 32.5 -98.5t88.5 -45.5v289
q-56 -7 -88.5 -46.5t-32.5 -98.5zM474 289q0 59 -32.5 98.5t-88.5 46.5v-289q56 7 88.5 46t32.5 98z" />
    <glyph glyph-name="Chi" unicode="&#x3a7;" 
d="M115 -14q-24 0 -40 15.5t-16 40.5q0 21 22 49l156 197l-156 200q-22 28 -22 49q0 25 16 40.5t40 15.5q31 0 52 -30l136 -189l136 189q21 30 52 30q24 0 40 -15.5t16 -40.5q0 -21 -22 -49l-156 -200l156 -197q22 -28 22 -49q0 -25 -16 -40.5t-40 -15.5q-31 0 -52 29
l-136 187l-136 -187q-21 -29 -52 -29z" />
    <glyph glyph-name="Psi" unicode="&#x3a8;" 
d="M246 46v117q-214 23 -214 219v151q0 28 16 44t40 16q23 0 38.5 -16t15.5 -44v-135q0 -56 23.5 -89.5t80.5 -43.5v268q0 28 15.5 44t38.5 16t38.5 -16t15.5 -44v-269q58 10 82 43.5t24 90.5v135q0 28 15.5 44t38.5 16q24 0 40 -16t16 -44v-151q0 -100 -56.5 -154
t-159.5 -64v-118q0 -28 -15.5 -44t-38.5 -16t-38.5 16t-15.5 44z" />
    <glyph glyph-name="uni03A9" unicode="&#x3a9;" 
d="M300 593q113 0 179 -78.5t66 -189.5q0 -152 -102 -228q3 0 32 2.5t40 2.5q30 0 45.5 -14t15.5 -38q0 -50 -61 -50h-128q-28 0 -45 13.5t-17 38.5q0 17 5 28t19.5 28t19.5 23q62 75 62 184q0 80 -34 128.5t-97 48.5t-97 -48.5t-34 -128.5q0 -109 62 -184q6 -8 16 -19.5
t15 -18t9 -17.5t4 -24q0 -25 -17 -38.5t-45 -13.5h-128q-61 0 -61 50q0 24 15.5 38t45.5 14q9 0 36.5 -2.5t35.5 -2.5q-102 76 -102 228q0 111 66 189.5t179 78.5z" />
    <glyph glyph-name="Iotadieresis" unicode="&#x3aa;" 
d="M244 100v379q-4 0 -43 -2t-54 -2q-64 0 -64 52t64 52h305q64 0 64 -52t-64 -52q-15 0 -54 2t-43 2v-379q4 0 43 2t54 2q31 0 47.5 -14t16.5 -38q0 -52 -64 -52h-305q-64 0 -64 52q0 24 16.5 38t47.5 14q15 0 54 -2t43 -2zM196 634q-32 0 -53.5 18.5t-21.5 48.5
q0 31 21.5 49t53.5 18t53.5 -18t21.5 -49q0 -30 -21.5 -48.5t-53.5 -18.5zM404 634q-32 0 -53.5 18.5t-21.5 48.5q0 31 21.5 49t53.5 18t53 -18t21 -49q0 -30 -21 -48.5t-53 -18.5z" />
    <glyph glyph-name="Upsilondieresis" unicode="&#x3ab;" 
d="M300 -14q-24 0 -39.5 16t-15.5 44v160l-193 285q-17 24 -17 48q0 23 15.5 38.5t40.5 15.5q32 0 58 -43l151 -241l151 241q28 43 58 43q26 0 41.5 -15.5t15.5 -38.5t-18 -48l-192 -285v-160q0 -28 -16 -44t-40 -16zM196 634q-32 0 -53.5 18.5t-21.5 48.5q0 31 21.5 49
t53.5 18t53.5 -18t21.5 -49q0 -30 -21.5 -48.5t-53.5 -18.5zM404 634q-32 0 -53.5 18.5t-21.5 48.5q0 31 21.5 49t53.5 18t53 -18t21 -49q0 -30 -21 -48.5t-53 -18.5z" />
    <glyph glyph-name="alphatonos" unicode="&#x3ac;" 
d="M291 486q-27 0 -35 41l-21 107q-5 28 10.5 49t45.5 21t45.5 -21.5t10.5 -48.5l-21 -107q-5 -22 -12.5 -31.5t-22.5 -9.5zM269 -11q-91 0 -151 62.5t-60 165.5q0 102 60 165t151 63q87 0 131 -50v4q0 20 14.5 33t36.5 13q23 0 38.5 -15.5t15.5 -42.5v-340
q0 -27 -15.5 -42.5t-38.5 -15.5q-21 0 -36 12.5t-15 32.5v4q-47 -49 -131 -49zM169 217q0 -59 32.5 -95.5t84.5 -36.5q53 0 84.5 36t31.5 96t-31.5 96t-84.5 36q-51 0 -84 -36.5t-33 -95.5z" />
    <glyph glyph-name="epsilontonos" unicode="&#x3ad;" 
d="M310 486q-27 0 -35 41l-21 107q-6 28 10 49t46 21t45.5 -21.5t10.5 -48.5l-21 -107q-5 -22 -12.5 -31.5t-22.5 -9.5zM301 -11q-101 0 -158.5 35.5t-57.5 92.5q0 37 25 64.5t72 36.5q-44 10 -67.5 36.5t-23.5 63.5q0 57 55 92t153 35q90 0 165 -39q53 -28 53 -67
q0 -20 -13.5 -33t-31.5 -13q-23 0 -56 22q-59 39 -125 39q-90 0 -90 -46q0 -47 122 -47q21 0 35 -11.5t14 -31.5t-14 -31t-35 -11q-127 0 -127 -49q0 -47 98 -47q70 0 131 40q29 20 51 20q21 0 34.5 -12t13.5 -33q0 -41 -53 -67q-78 -39 -170 -39z" />
    <glyph glyph-name="etatonos" unicode="&#x3ae;" 
d="M301 486q-27 0 -35 41l-21 107q-5 28 10.5 49t45.5 21t45.5 -21.5t10.5 -48.5l-21 -107q-5 -22 -12.5 -31.5t-22.5 -9.5zM100 47v340q0 27 15 42.5t39 15.5q40 0 51 -37v-11q42 48 125 48q82 0 129.5 -46.5t47.5 -129.5v-428q0 -27 -15 -42.5t-39 -15.5q-23 0 -38 15.5
t-15 42.5v397q0 112 -95 112q-97 0 -97 -112v-191q0 -28 -15 -43t-39 -15t-39 15.5t-15 42.5z" />
    <glyph glyph-name="iotatonos" unicode="&#x3af;" 
d="M299 486q-27 0 -35 41l-21 107q-5 28 10.5 49t45.5 21t45.5 -21.5t10.5 -48.5l-21 -107q-5 -22 -12.5 -31.5t-22.5 -9.5zM407 -11q-85 0 -124 45t-39 139v170q-52 -6 -114 -6q-59 0 -59 48q0 23 15.5 36t41.5 13h170q25 0 39.5 -14t14.5 -37v-208q0 -91 65 -91
q25 0 48 12q28 16 48 16t33 -12.5t13 -32.5q0 -31 -36 -52q-42 -26 -116 -26z" />
    <glyph glyph-name="upsilondieresistonos" unicode="&#x3b0;" 
d="M300 486q-27 0 -35 41l-21 107q-5 27 10.5 48.5t45.5 21.5t45.5 -21.5t10.5 -48.5l-21 -107q-8 -41 -35 -41zM156 503q-30 0 -49 18t-19 50q0 31 19 49t49 18q31 0 50 -18t19 -49q0 -32 -19 -50t-50 -18zM443 503q-30 0 -49 18t-19 50q0 31 19 49t49 18q31 0 50 -18
t19 -49q0 -32 -19 -50t-50 -18zM300 -11q-203 0 -203 191v207q0 27 15 42.5t39 15.5q23 0 38 -15.5t15 -42.5v-192q0 -110 96 -110t96 110v192q0 27 15 42.5t38 15.5q24 0 39 -15.5t15 -42.5v-207q0 -191 -203 -191z" />
    <glyph glyph-name="alpha" unicode="&#x3b1;" 
d="M269 -11q-91 0 -151 62.5t-60 165.5q0 102 60 165t151 63q87 0 131 -50v4q0 20 14.5 33t36.5 13q23 0 38.5 -15.5t15.5 -42.5v-340q0 -27 -15.5 -42.5t-38.5 -15.5q-21 0 -36 12.5t-15 32.5v4q-47 -49 -131 -49zM169 217q0 -59 32.5 -95.5t84.5 -36.5q53 0 84.5 36
t31.5 96t-31.5 96t-84.5 36q-51 0 -84 -36.5t-33 -95.5z" />
    <glyph glyph-name="beta" unicode="&#x3b2;" 
d="M96 -159v595q0 107 53 167t159 60q96 0 150.5 -50t54.5 -125q0 -61 -31 -102.5t-79 -58.5q61 -15 103.5 -59t42.5 -113q0 -77 -58.5 -121.5t-148.5 -44.5q-76 0 -138 28v-176q0 -27 -15 -42.5t-39 -15.5q-23 0 -38.5 15.5t-15.5 42.5zM327 81q53 0 82 22t29 60
q0 43 -35 70.5t-93 36.5q-45 8 -45 45q0 39 38 51q99 30 99 111q0 40 -25.5 65.5t-71.5 25.5q-101 0 -101 -137v-316q56 -34 123 -34z" />
    <glyph glyph-name="gamma" unicode="&#x3b3;" 
d="M300 139l120 261q21 45 57 45q23 0 38 -15t15 -34q0 -20 -12 -42l-164 -330v-182q0 -28 -15.5 -43.5t-38.5 -15.5t-38.5 15.5t-15.5 43.5v181l-164 331q-12 22 -12 42q0 19 15 34t38 15q36 0 57 -45z" />
    <glyph glyph-name="delta" unicode="&#x3b4;" 
d="M443 563q-130 0 -190 6l191 -161q94 -80 94 -191q0 -103 -68 -165.5t-170 -62.5q-101 0 -169 62.5t-68 165.5q0 89 58.5 149.5t154.5 61.5q6 0 10 -1l-142 120q-15 13 -22 20t-13 18.5t-6 24.5q0 21 15.5 34.5t43.5 13.5h283q26 0 41.5 -12.5t15.5 -34.5q0 -48 -59 -48z
M426 217q0 58 -35.5 95t-90.5 37t-90.5 -37t-35.5 -95t35 -95t91 -37t91 37t35 95z" />
    <glyph glyph-name="epsilon" unicode="&#x3b5;" 
d="M301 -11q-101 0 -158.5 35.5t-57.5 92.5q0 37 25 64.5t72 36.5q-44 10 -67.5 36.5t-23.5 63.5q0 57 55 92t153 35q90 0 165 -39q53 -28 53 -67q0 -20 -13.5 -33t-31.5 -13q-23 0 -56 22q-59 39 -125 39q-90 0 -90 -46q0 -47 122 -47q21 0 35 -11.5t14 -31.5t-14 -31
t-35 -11q-127 0 -127 -49q0 -47 98 -47q70 0 131 40q29 20 51 20q21 0 34.5 -12t13.5 -33q0 -41 -53 -67q-78 -39 -170 -39z" />
    <glyph glyph-name="zeta" unicode="&#x3b6;" 
d="M173 657h299q29 0 45 -14.5t16 -37.5q0 -29 -44 -75l-196 -196q-69 -69 -69 -119q0 -47 37 -71.5t116 -42.5q36 -8 58.5 -16t46.5 -23t35.5 -40t11.5 -60q0 -55 -41 -106q-30 -37 -58 -37q-21 0 -34 13t-13 31q0 19 14 38q21 27 21 51q0 20 -17.5 32.5t-59.5 21.5
q-230 47 -230 202q0 88 92 176l191 183q-175 -5 -218 -5q-60 0 -60 48q0 22 15.5 34.5t41.5 12.5z" />
    <glyph glyph-name="eta" unicode="&#x3b7;" 
d="M100 47v340q0 27 15 42.5t39 15.5q40 0 51 -37v-11q42 48 125 48q82 0 129.5 -46.5t47.5 -129.5v-428q0 -27 -15 -42.5t-39 -15.5q-23 0 -38 15.5t-15 42.5v397q0 112 -95 112q-97 0 -97 -112v-191q0 -28 -15 -43t-39 -15t-39 15.5t-15 42.5z" />
    <glyph glyph-name="theta" unicode="&#x3b8;" 
d="M524 327q0 -167 -57 -254t-167 -87t-167 87t-57 254t57 254t167 87t167 -87t57 -254zM300 574q-108 0 -117 -203h233q-8 203 -116 203zM300 81q107 0 116 199h-233q5 -99 32.5 -149t84.5 -50z" />
    <glyph glyph-name="iota" unicode="&#x3b9;" 
d="M407 -11q-85 0 -124 45t-39 139v170q-52 -6 -114 -6q-59 0 -59 48q0 23 15.5 36t41.5 13h170q25 0 39.5 -14t14.5 -37v-208q0 -91 65 -91q25 0 48 12q28 16 48 16t33 -12.5t13 -32.5q0 -31 -36 -52q-42 -26 -116 -26z" />
    <glyph glyph-name="kappa" unicode="&#x3ba;" 
d="M480 -11q-29 0 -51 27l-147 182l-75 -52v-99q0 -28 -15 -43t-39 -15q-23 0 -38 15t-15 43v340q0 27 15 42.5t39 15.5q23 0 38 -15.5t15 -42.5v-121l211 156q33 23 57 23q23 0 37 -14.5t14 -37.5q0 -32 -35 -55l-120 -82l136 -163q25 -30 25 -53q0 -21 -14 -36t-38 -15z
" />
    <glyph glyph-name="lambda" unicode="&#x3bb;" 
d="M98 80l161 353q-4 10 -24 43.5t-31 48.5q-31 40 -73 40q-10 0 -31.5 -4.5t-35.5 -4.5q-17 0 -29.5 11.5t-12.5 31.5q0 32 31.5 48.5t70.5 16.5q86 0 134.5 -45.5t101.5 -159.5l175 -379q11 -24 11 -42q0 -20 -14 -34.5t-38 -14.5q-39 0 -57 46l-120 289l-120 -289
q-18 -46 -56 -46q-25 0 -39.5 15t-14.5 34q0 18 11 42z" />
    <glyph glyph-name="uni03BC" unicode="&#x3bc;" 
d="M95 387q0 27 15 42.5t39 15.5q23 0 38 -15.5t15 -42.5v-190q0 -112 98 -112q43 0 68.5 27.5t25.5 84.5v190q0 27 15 42.5t39 15.5q23 0 38.5 -15.5t15.5 -42.5v-340q0 -27 -15 -42.5t-39 -15.5q-37 0 -50 34l-1 14q-45 -48 -116 -48q-51 0 -79 23v-171q0 -27 -15 -42.5
t-38 -15.5q-24 0 -39 15.5t-15 42.5v546z" />
    <glyph glyph-name="nu" unicode="&#x3bd;" 
d="M300 139l120 261q21 45 57 45q23 0 38 -15t15 -34q0 -20 -12 -42l-158 -319q-23 -46 -60 -46t-60 46l-158 319q-12 22 -12 42q0 19 15 34t38 15q36 0 57 -45z" />
    <glyph glyph-name="xi" unicode="&#x3be;" 
d="M96 198q0 54 30.5 98t90.5 60q-50 15 -79 50.5t-29 88.5q0 71 54 117t149 46q89 0 163 -47q48 -27 48 -65q0 -20 -13.5 -32.5t-32.5 -12.5q-26 0 -54 23q-51 44 -113 44q-44 0 -69.5 -22.5t-25.5 -56.5q0 -80 146 -80h25q24 0 38.5 -12t14.5 -36q0 -23 -14.5 -36.5
t-38.5 -13.5h-41q-61 0 -99 -26t-38 -73t36.5 -68.5t113.5 -38.5q79 -17 120.5 -47.5t41.5 -96.5q0 -63 -43 -109q-26 -33 -55 -33q-21 0 -34 13t-13 31q0 20 13 38q21 27 21 52q0 20 -16.5 32t-57.5 21q-125 19 -182 66t-57 126z" />
    <glyph glyph-name="omicron" unicode="&#x3bf;" 
d="M300 -11q-102 0 -171.5 63t-69.5 165t69.5 165t171.5 63t171.5 -63t69.5 -165t-69.5 -165t-171.5 -63zM300 85q56 0 93 37t37 95q0 57 -37 94.5t-93 37.5t-93 -37t-37 -95t36.5 -95t93.5 -37z" />
    <glyph glyph-name="pi" unicode="&#x3c0;" 
d="M507 337h-22v-290q0 -28 -15 -43t-39 -15q-23 0 -38 15t-15 43v294h-156v-294q0 -28 -15 -43t-39 -15q-23 0 -38 15t-15 43v290h-20q-28 0 -43.5 13t-15.5 35q0 23 15.5 36t41.5 13h414q26 0 41.5 -13t15.5 -36q0 -22 -15.5 -35t-41.5 -13z" />
    <glyph glyph-name="rho" unicode="&#x3c1;" 
d="M432 217q0 59 -32.5 95.5t-83.5 36.5q-50 0 -82 -36.5t-32 -95.5q0 -60 31 -96t83 -36q51 0 83.5 36t32.5 96zM97 -159v367q0 111 58.5 174t161.5 63q105 0 165.5 -61.5t60.5 -166.5q0 -103 -59.5 -165.5t-150.5 -62.5q-82 0 -128 46v-194q0 -27 -15.5 -42.5t-38.5 -15.5
q-24 0 -39 15.5t-15 42.5z" />
    <glyph glyph-name="sigma1" unicode="&#x3c2;" 
d="M299 349q-52 0 -84.5 -29t-32.5 -81q0 -108 184 -138q35 -6 58.5 -14.5t47 -23.5t35 -41t11.5 -63q0 -75 -55 -121q-21 -19 -43 -19q-21 0 -34.5 12.5t-13.5 30.5q0 21 14 40q21 26 21 49q0 22 -16.5 34t-58.5 21q-120 18 -190.5 77.5t-70.5 155.5q0 92 64 149t167 57
q82 0 157 -45q51 -29 51 -67q0 -22 -13.5 -35.5t-33.5 -13.5q-27 0 -52 21q-53 44 -112 44z" />
    <glyph glyph-name="sigma" unicode="&#x3c3;" 
d="M524 336q-5 0 -18.5 1t-30.5 2t-24 1q30 -21 46.5 -59t16.5 -76q0 -98 -65 -157t-163 -59t-164 61.5t-66 162.5q0 102 66.5 161.5t171.5 59.5h226q27 0 43.5 -13t16.5 -37q0 -48 -56 -48zM406 209q0 57 -32 93t-88 36q-53 0 -86.5 -35t-33.5 -94q0 -56 34 -90t86 -34
t86 34t34 90z" />
    <glyph glyph-name="tau" unicode="&#x3c4;" 
d="M96 434h361q26 0 41.5 -13t15.5 -36q0 -50 -60 -50t-165 6v-159q0 -98 80 -98q26 0 58 15q5 2 14.5 7t14.5 7t13 4t16 2q19 0 32 -12.5t13 -32.5q0 -32 -37 -55q-49 -30 -134 -30q-93 0 -135.5 46.5t-42.5 144.5v160q-48 -5 -82 -5q-60 0 -60 50q0 23 15.5 36t41.5 13z
" />
    <glyph glyph-name="upsilon" unicode="&#x3c5;" 
d="M300 -11q-203 0 -203 191v207q0 27 15 42.5t39 15.5q23 0 38 -15.5t15 -42.5v-192q0 -110 96 -110t96 110v192q0 27 15 42.5t38 15.5q24 0 39 -15.5t15 -42.5v-207q0 -191 -203 -191z" />
    <glyph glyph-name="phi" unicode="&#x3c6;" 
d="M43 236q0 90 35 163q19 46 59 46q21 0 34.5 -13.5t13.5 -34.5q0 -15 -6 -29q-31 -74 -31 -137q0 -120 103 -144v160q0 198 146 198q74 0 117 -53t43 -147q0 -108 -53.5 -174t-154.5 -79v-149q0 -29 -13.5 -44.5t-35.5 -15.5q-23 0 -36 15.5t-13 44.5v149
q-99 13 -153.5 76t-54.5 168zM349 245v-160q111 26 111 158q0 111 -60 111q-51 0 -51 -109z" />
    <glyph glyph-name="chi" unicode="&#x3c7;" 
d="M88 -96l154 217l-154 220q-23 32 -23 52q0 23 14 37.5t37 14.5q33 0 52 -31l133 -206l133 206q19 31 52 31q23 0 37 -14.5t14 -37.5q0 -20 -23 -52l-155 -220l155 -217q23 -32 23 -52q0 -23 -14 -37.5t-37 -14.5q-31 0 -52 31l-133 204l-133 -204q-21 -31 -52 -31
q-23 0 -37 14.5t-14 37.5q0 20 23 52z" />
    <glyph glyph-name="psi" unicode="&#x3c8;" 
d="M247 -163v155q-197 20 -197 223v176q0 26 14 40.5t37 14.5t37.5 -14.5t14.5 -40.5v-160q0 -61 19.5 -98t74.5 -47v303q0 26 14.5 41t36.5 15q23 0 37.5 -15t14.5 -41v-304q56 10 76.5 47.5t20.5 98.5v160q0 26 14.5 40.5t36.5 14.5q23 0 37 -14.5t14 -40.5v-176
q0 -203 -199 -223v-155q0 -25 -15 -40t-37 -15t-36.5 15t-14.5 40z" />
    <glyph glyph-name="omega" unicode="&#x3c9;" 
d="M137 212q0 -126 62 -126q50 0 50 86v115q0 26 14.5 41t36.5 15t36.5 -15t14.5 -41v-115q0 -44 15 -65t36 -21q61 0 61 130q0 66 -30 144q-8 21 -8 35q0 22 13.5 35.5t36.5 13.5q45 0 67 -64q27 -81 27 -168q0 -106 -40 -164t-114 -58q-81 0 -115 61q-34 -61 -116 -61
q-73 0 -113 59t-40 165q0 103 34 180q18 51 59 51q22 0 36 -13.5t14 -35.5q0 -11 -8 -35q-29 -75 -29 -149z" />
    <glyph glyph-name="iotadieresis" unicode="&#x3ca;" 
d="M197 504q-32 0 -53.5 18.5t-21.5 48.5q0 31 21.5 49t53.5 18t53.5 -18t21.5 -49q0 -30 -21.5 -48.5t-53.5 -18.5zM405 504q-32 0 -53.5 18.5t-21.5 48.5q0 31 21.5 49t53.5 18t53 -18t21 -49q0 -30 -21 -48.5t-53 -18.5zM407 -11q-85 0 -124 45t-39 139v170
q-52 -6 -114 -6q-59 0 -59 48q0 23 15.5 36t41.5 13h170q25 0 39.5 -14t14.5 -37v-208q0 -91 65 -91q25 0 48 12q28 16 48 16t33 -12.5t13 -32.5q0 -31 -36 -52q-42 -26 -116 -26z" />
    <glyph glyph-name="upsilondieresis" unicode="&#x3cb;" 
d="M196 504q-32 0 -53.5 18.5t-21.5 48.5q0 31 21.5 49t53.5 18t53.5 -18t21.5 -49q0 -30 -21.5 -48.5t-53.5 -18.5zM404 504q-32 0 -53.5 18.5t-21.5 48.5q0 31 21.5 49t53.5 18t53 -18t21 -49q0 -30 -21 -48.5t-53 -18.5zM300 -11q-203 0 -203 191v207q0 27 15 42.5
t39 15.5q23 0 38 -15.5t15 -42.5v-192q0 -110 96 -110t96 110v192q0 27 15 42.5t38 15.5q24 0 39 -15.5t15 -42.5v-207q0 -191 -203 -191z" />
    <glyph glyph-name="omicrontonos" unicode="&#x3cc;" 
d="M299 486q-27 0 -35 41l-21 107q-5 28 10.5 49t45.5 21t45.5 -21.5t10.5 -48.5l-21 -107q-5 -22 -12.5 -31.5t-22.5 -9.5zM300 -11q-102 0 -171.5 63t-69.5 165t69.5 165t171.5 63t171.5 -63t69.5 -165t-69.5 -165t-171.5 -63zM300 85q56 0 93 37t37 95q0 57 -37 94.5
t-93 37.5t-93 -37t-37 -95t36.5 -95t93.5 -37z" />
    <glyph glyph-name="upsilontonos" unicode="&#x3cd;" 
d="M300 486q-27 0 -35 41l-21 107q-5 28 10.5 49t45.5 21t45.5 -21.5t10.5 -48.5l-21 -107q-5 -22 -12.5 -31.5t-22.5 -9.5zM300 -11q-203 0 -203 191v207q0 27 15 42.5t39 15.5q23 0 38 -15.5t15 -42.5v-192q0 -110 96 -110t96 110v192q0 27 15 42.5t38 15.5q24 0 39 -15.5
t15 -42.5v-207q0 -191 -203 -191z" />
    <glyph glyph-name="omegatonos" unicode="&#x3ce;" 
d="M300 486q-27 0 -35 41l-21 107q-5 28 10.5 49t45.5 21t45.5 -21.5t10.5 -48.5l-21 -107q-5 -22 -12.5 -31.5t-22.5 -9.5zM137 212q0 -126 62 -126q50 0 50 86v115q0 26 14.5 41t36.5 15t36.5 -15t14.5 -41v-115q0 -44 15 -65t36 -21q61 0 61 130q0 66 -30 144
q-8 21 -8 35q0 22 13.5 35.5t36.5 13.5q45 0 67 -64q27 -81 27 -168q0 -106 -40 -164t-114 -58q-81 0 -115 61q-34 -61 -116 -61q-73 0 -113 59t-40 165q0 103 34 180q18 51 59 51q22 0 36 -13.5t14 -35.5q0 -11 -8 -35q-29 -75 -29 -149z" />
    <glyph glyph-name="uni0400" unicode="&#x400;" 
d="M152 0q-25 0 -40.5 15.5t-15.5 43.5v461q0 28 15.5 43.5t40.5 15.5h306q64 0 64 -52t-64 -52q-7 0 -251 4v-137q174 3 177 3q63 0 63 -52q0 -51 -63 -51q-59 0 -177 2v-144q19 0 76 1.5t103.5 2t71.5 0.5q31 0 47.5 -14t16.5 -38q0 -52 -64 -52h-306zM311 654l-115 86
q-25 18 -25 49q0 21 16.5 36t35.5 15q29 0 49 -23l96 -110q18 -21 18 -38q0 -15 -10.5 -25t-24.5 -10t-40 20z" />
    <glyph glyph-name="uni0401" unicode="&#x401;" 
d="M201 649q-32 0 -53.5 18.5t-21.5 48.5q0 31 21.5 49t53.5 18t53.5 -18t21.5 -49q0 -30 -21.5 -48.5t-53.5 -18.5zM409 649q-32 0 -53.5 18.5t-21.5 48.5q0 31 21.5 49t53.5 18t53 -18t21 -49q0 -30 -21 -48.5t-53 -18.5zM152 0q-25 0 -40.5 15.5t-15.5 43.5v461
q0 28 15.5 43.5t40.5 15.5h306q64 0 64 -52t-64 -52q-7 0 -251 4v-137q174 3 177 3q63 0 63 -52q0 -51 -63 -51q-59 0 -177 2v-144q19 0 76 1.5t103.5 2t71.5 0.5q31 0 47.5 -14t16.5 -38q0 -52 -64 -52h-306z" />
    <glyph glyph-name="uni0402" unicode="&#x402;" 
d="M439 169q0 81 -121 81q-54 0 -71 -7v-193q0 -28 -15.5 -43.5t-39.5 -15.5t-40 15.5t-16 43.5v428q-36 -3 -59 -3q-63 0 -63 52t63 52h258q63 0 63 -52t-63 -52q-31 0 -88 3v-135q20 6 80 6q105 0 164 -44.5t59 -132.5q0 -85 -49 -133t-127 -48q-43 0 -65.5 16t-22.5 44
q0 20 12 32.5t31 12.5q7 0 18 -2t18 -2q32 0 53 18.5t21 58.5z" />
    <glyph glyph-name="uni0403" unicode="&#x403;" 
d="M418 766l-115 -86q-28 -20 -40 -20q-15 0 -25.5 10t-10.5 25q0 16 19 38l96 110q20 23 48 23q20 0 36.5 -14.5t16.5 -36.5q0 -30 -25 -49zM469 475q-14 0 -262 4v-433q0 -28 -15.5 -44t-39.5 -16t-40 16t-16 44v474q0 28 16 43.5t40 15.5h317q30 0 47 -13.5t17 -38.5
q0 -52 -64 -52z" />
    <glyph glyph-name="uni0404" unicode="&#x404;" 
d="M371 242q-89 0 -194 3q9 -74 46 -115.5t95 -41.5q57 0 108 44q29 25 53 25q22 0 37 -15t15 -37q0 -23 -16 -40q-32 -37 -87 -58t-112 -21q-118 0 -187.5 83t-69.5 221t69.5 220.5t187.5 82.5q57 0 112 -21t87 -58q16 -17 16 -40q0 -22 -15 -37t-37 -15q-24 0 -53 25
q-51 44 -108 44q-56 0 -93 -39.5t-47 -110.5q140 4 193 4q63 0 63 -52q0 -51 -63 -51z" />
    <glyph glyph-name="uni0405" unicode="&#x405;" 
d="M295 -14q-97 0 -173 44q-55 32 -55 71q0 22 15.5 37t37.5 15t56 -25q56 -38 125 -38q50 0 82 19t32 53q0 32 -31.5 48.5t-99.5 31.5q-100 21 -155.5 61.5t-55.5 117.5q0 82 65 127t159 45t160 -42q52 -29 52 -66q0 -23 -14 -37t-35 -14q-22 0 -50 19q-59 37 -119 37
q-46 0 -72.5 -17.5t-26.5 -46.5q0 -23 18.5 -38.5t40 -22.5t60.5 -16q54 -12 89 -24t68.5 -32t49 -50t15.5 -71q0 -91 -68.5 -138.5t-169.5 -47.5z" />
    <glyph glyph-name="uni0406" unicode="&#x406;" 
d="M244 100v379q-4 0 -43 -2t-54 -2q-64 0 -64 52t64 52h305q64 0 64 -52t-64 -52q-15 0 -54 2t-43 2v-379q4 0 43 2t54 2q31 0 47.5 -14t16.5 -38q0 -52 -64 -52h-305q-64 0 -64 52q0 24 16.5 38t47.5 14q15 0 54 -2t43 -2z" />
    <glyph glyph-name="uni0407" unicode="&#x407;" 
d="M244 100v379q-4 0 -43 -2t-54 -2q-64 0 -64 52t64 52h305q64 0 64 -52t-64 -52q-15 0 -54 2t-43 2v-379q4 0 43 2t54 2q31 0 47.5 -14t16.5 -38q0 -52 -64 -52h-305q-64 0 -64 52q0 24 16.5 38t47.5 14q15 0 54 -2t43 -2zM196 649q-32 0 -53.5 18.5t-21.5 48.5
q0 31 21.5 49t53.5 18t53.5 -18t21.5 -49q0 -30 -21.5 -48.5t-53.5 -18.5zM404 649q-32 0 -53.5 18.5t-21.5 48.5q0 31 21.5 49t53.5 18t53 -18t21 -49q0 -30 -21 -48.5t-53 -18.5z" />
    <glyph glyph-name="uni0408" unicode="&#x408;" 
d="M284 -14q-107 0 -163.5 64t-56.5 175q0 35 15.5 52.5t40.5 17.5q55 0 55 -67q0 -139 109 -139q110 0 110 144v300q0 28 15.5 44t39.5 16t40 -16t16 -44v-320q0 -107 -59.5 -167t-161.5 -60z" />
    <glyph glyph-name="uni0409" unicode="&#x409;" 
d="M167 579h172q25 0 40.5 -15.5t15.5 -43.5v-172q90 -6 143 -48t53 -126q0 -91 -61.5 -132.5t-165.5 -41.5h-22q-24 0 -39.5 15t-15.5 42v421h-73l-15 -286q-3 -48 -9 -80.5t-21.5 -62.5t-44.5 -45t-73 -15q-28 0 -45.5 13.5t-17.5 37.5t14 38t37 14q30 0 42.5 25t15.5 90
l14 312q1 29 16.5 44.5t39.5 15.5zM491 174q0 72 -96 79v-157q96 5 96 78z" />
    <glyph glyph-name="uni040A" unicode="&#x40a;" 
d="M314 0q-24 0 -39.5 16t-15.5 44v187h-115v-201q0 -28 -15.5 -44t-39.5 -16t-40 16t-16 44v487q0 28 16 44t40 16t39.5 -16t15.5 -44v-185h115v185q0 28 15.5 44t39.5 16t40 -16t16 -44v-185h9q90 0 146 -44t56 -130q0 -91 -61.5 -132.5t-165.5 -41.5h-40zM481 174
q0 39 -27.5 59.5t-75.5 20.5h-8v-159h8q48 0 75.5 20t27.5 59z" />
    <glyph glyph-name="uni040B" unicode="&#x40b;" 
d="M80 579h271q30 0 47 -13.5t17 -38.5q0 -52 -64 -52q-55 0 -83 3v-144q41 13 95 13q192 0 192 -185v-117q0 -27 -16 -42.5t-40 -15.5q-23 0 -39 15.5t-16 42.5v93q0 61 -23.5 85t-75.5 24q-45 0 -77 -13v-188q0 -28 -16 -43.5t-40 -15.5t-39.5 15.5t-15.5 43.5v432
q-36 -3 -77 -3q-64 0 -64 52q0 25 17 38.5t47 13.5z" />
    <glyph glyph-name="uni040C" unicode="&#x40c;" 
d="M444 740l-115 -86q-28 -20 -40 -20q-15 0 -25.5 10t-10.5 25q0 16 19 38l96 110q20 23 48 23q20 0 36.5 -14.5t16.5 -36.5q0 -30 -25 -49zM500 -14q-30 0 -56 34l-171 230l-65 -67v-137q0 -28 -16 -44t-40 -16t-39.5 16t-15.5 44v487q0 28 15.5 44t39.5 16t40 -16t16 -44
v-200l218 234q23 26 51 26q23 0 38 -14.5t15 -36.5q0 -28 -27 -55l-150 -154l179 -239q22 -31 22 -55q0 -22 -14.5 -37.5t-39.5 -15.5z" />
    <glyph glyph-name="uni040D" unicode="&#x40d;" 
d="M304 654l-115 86q-25 18 -25 49q0 21 16.5 36t35.5 15q29 0 49 -23l96 -110q18 -21 18 -38q0 -15 -10.5 -25t-24.5 -10t-40 20zM85 46v487q0 28 16 44t40 16t40 -16t16 -44v-326l202 338q15 25 28 36.5t35 11.5q24 0 38.5 -16t14.5 -45v-486q0 -28 -16 -44t-40 -16
t-39.5 16t-15.5 44v321l-203 -333q-15 -25 -28 -36.5t-35 -11.5q-24 0 -38.5 15.5t-14.5 44.5z" />
    <glyph glyph-name="uni040E" unicode="&#x40e;" 
d="M330 294l133 254q12 23 24.5 34t34.5 11q25 0 39.5 -15.5t14.5 -37.5q0 -20 -12 -43l-187 -344q-52 -95 -101 -131t-113 -36q-51 0 -85 16t-34 50q0 21 13 35t31 14q10 0 32 -6q21 -7 41 -7q41 0 66 36q17 14 44 64l-193 312q-13 21 -13 39q0 23 15.5 38.5t39.5 15.5
q20 0 33 -9.5t26 -32.5zM325 725q58 0 93 57q12 20 33 20q14 0 24 -10t10 -26q0 -25 -13 -49q-18 -35 -56 -58.5t-91 -23.5t-90.5 22.5t-55.5 57.5q-13 23 -13 51q0 16 9.5 26t23.5 10q21 0 34 -20q33 -57 92 -57z" />
    <glyph glyph-name="uni040F" unicode="&#x40f;" 
d="M449 0h-96v-98q0 -28 -15 -44t-38 -16t-38 16t-15 44v98h-96q-27 0 -43.5 15.5t-16.5 43.5v474q0 28 16 44t40 16t39.5 -16t15.5 -44v-433h195v433q0 28 15.5 44t39.5 16t40 -16t16 -44v-474q0 -28 -16 -43.5t-43 -15.5z" />
    <glyph glyph-name="uni0410" unicode="&#x410;" 
d="M142 -14q-24 0 -40 16t-16 44v323q0 105 57 164.5t157 59.5q101 0 157.5 -59t56.5 -165v-323q0 -28 -15.5 -44t-39.5 -16t-40 16t-16 44v134h-206v-134q0 -28 -15.5 -44t-39.5 -16zM197 280h206v68q0 71 -23 107t-80 36q-56 0 -79.5 -36t-23.5 -107v-68z" />
    <glyph glyph-name="uni0411" unicode="&#x411;" 
d="M427 175q0 78 -111 78h-101v-157h101q111 0 111 79zM104 59v461q0 28 16 43.5t40 15.5h297q64 0 64 -52t-64 -52q-34 0 -133.5 2t-108.5 2v-130h91q101 0 167.5 -41.5t66.5 -132.5t-66.5 -133t-167.5 -42h-146q-24 0 -40 15.5t-16 43.5z" />
    <glyph glyph-name="uni0412" unicode="&#x412;" 
d="M305 0h-153q-24 0 -40 15.5t-16 43.5v461q0 28 16 43.5t40 15.5h144q102 0 164 -38.5t62 -121.5q0 -79 -68 -121q85 -40 85 -126q0 -89 -66.5 -130.5t-167.5 -41.5zM314 249h-107v-153h108q111 0 111 78q0 75 -112 75zM306 483h-99v-148h96q49 0 76.5 18.5t27.5 55.5
q0 74 -101 74z" />
    <glyph glyph-name="uni0413" unicode="&#x413;" 
d="M469 475q-14 0 -262 4v-433q0 -28 -15.5 -44t-39.5 -16t-40 16t-16 44v474q0 28 16 43.5t40 15.5h317q30 0 47 -13.5t17 -38.5q0 -52 -64 -52z" />
    <glyph glyph-name="uni0414" unicode="&#x414;" 
d="M220 101h175v372h-103l-38 -267q-11 -87 -34 -105zM143 212l43 302q9 60 56 60h207q25 0 41 -16t16 -44v-413h24q24 0 39 -14t16 -38v-147q0 -28 -15 -44t-38 -16t-38 16t-15 44v98h-356v-98q0 -28 -15 -44t-38 -16t-38 16t-15 44v146q0 47 48 52q38 3 53.5 26t24.5 86z
" />
    <glyph glyph-name="uni0415" unicode="&#x415;" 
d="M152 0q-25 0 -40.5 15.5t-15.5 43.5v461q0 28 15.5 43.5t40.5 15.5h306q64 0 64 -52t-64 -52q-7 0 -251 4v-137q174 3 177 3q63 0 63 -52q0 -51 -63 -51q-59 0 -177 2v-144q19 0 76 1.5t103.5 2t71.5 0.5q31 0 47.5 -14t16.5 -38q0 -52 -64 -52h-306z" />
    <glyph glyph-name="uni0416" unicode="&#x416;" 
d="M491 24l-95 232l-47 -74v-136q0 -60 -49 -60q-48 0 -48 60v136l-49 74l-94 -232q-14 -38 -49 -38q-23 0 -36 13.5t-13 32.5q0 22 14 53l118 268l-89 139q-21 32 -21 54q0 19 13.5 33t35.5 14q30 0 47 -32l123 -220v192q0 60 48 60q49 0 49 -60v-192l122 220q17 32 47 32
q22 0 35.5 -14t13.5 -33q0 -21 -20 -54l-90 -138l119 -269q13 -29 13 -53q0 -19 -13 -32.5t-36 -13.5q-33 0 -49 38z" />
    <glyph glyph-name="uni0417" unicode="&#x417;" 
d="M138 419q-20 0 -35.5 13.5t-15.5 35.5q0 25 19 44q31 35 85.5 58t120.5 23q93 0 151 -46.5t58 -115.5q0 -47 -25.5 -82t-69.5 -48q51 -10 82.5 -48t31.5 -88q0 -79 -61.5 -129t-176.5 -50q-68 0 -125 22.5t-89 57.5q-20 23 -20 46q0 21 15 35t36 14q24 0 55 -26
q50 -50 134 -50q52 0 85.5 24t33.5 64q0 68 -113 74q-61 4 -61 50q0 43 56 49q97 12 97 75q0 34 -27.5 53.5t-68.5 19.5q-66 0 -119 -50q-28 -25 -53 -25z" />
    <glyph glyph-name="uni0418" unicode="&#x418;" 
d="M85 46v487q0 28 16 44t40 16t40 -16t16 -44v-326l202 338q15 25 28 36.5t35 11.5q24 0 38.5 -16t14.5 -45v-486q0 -28 -16 -44t-40 -16t-39.5 16t-15.5 44v321l-203 -333q-15 -25 -28 -36.5t-35 -11.5q-24 0 -38.5 15.5t-14.5 44.5z" />
    <glyph glyph-name="uni0419" unicode="&#x419;" 
d="M85 46v487q0 28 16 44t40 16t40 -16t16 -44v-326l202 338q15 25 28 36.5t35 11.5q24 0 38.5 -16t14.5 -45v-486q0 -28 -16 -44t-40 -16t-39.5 16t-15.5 44v321l-203 -333q-15 -25 -28 -36.5t-35 -11.5q-24 0 -38.5 15.5t-14.5 44.5zM300 725q58 0 93 57q12 20 33 20
q14 0 24 -10t10 -26q0 -25 -13 -49q-18 -35 -56 -58.5t-91 -23.5t-90.5 22.5t-55.5 57.5q-13 23 -13 51q0 16 9.5 26t23.5 10q21 0 34 -20q33 -57 92 -57z" />
    <glyph glyph-name="uni041A" unicode="&#x41a;" 
d="M500 -14q-30 0 -56 34l-171 230l-65 -67v-137q0 -28 -16 -44t-40 -16t-39.5 16t-15.5 44v487q0 28 15.5 44t39.5 16t40 -16t16 -44v-200l218 234q23 26 51 26q23 0 38 -14.5t15 -36.5q0 -28 -27 -55l-150 -154l179 -239q22 -31 22 -55q0 -22 -14.5 -37.5t-39.5 -15.5z
" />
    <glyph glyph-name="uni041B" unicode="&#x41b;" 
d="M228 579h220q25 0 41 -16t16 -44v-468q0 -28 -16 -44t-40 -16t-39.5 16t-15.5 44v427h-116l-39 -294q-13 -98 -50 -146.5t-122 -48.5q-29 0 -45.5 13.5t-16.5 36.5q0 47 48 52q37 4 53 28.5t23 80.5l42 319q8 60 57 60z" />
    <glyph glyph-name="uni041C" unicode="&#x41c;" 
d="M61 46v486q0 29 14.5 45t40.5 16q40 0 64 -52l120 -247l121 247q25 52 63 52q26 0 40.5 -16t14.5 -45v-486q0 -28 -15 -44t-39 -16t-39.5 16t-15.5 44v314l-77 -161q-19 -40 -53 -40t-53 40l-77 161v-314q0 -28 -15 -44t-39 -16t-39.5 16t-15.5 44z" />
    <glyph glyph-name="uni041D" unicode="&#x41d;" 
d="M143 -14q-24 0 -39.5 16t-15.5 44v487q0 28 15.5 44t39.5 16t40 -16t16 -44v-187h202v187q0 28 15.5 44t39.5 16t40 -16t16 -44v-487q0 -28 -16 -44t-40 -16t-39.5 16t-15.5 44v199h-202v-199q0 -28 -16 -44t-40 -16z" />
    <glyph glyph-name="uni041E" unicode="&#x41e;" 
d="M299 88q65 0 98 58t33 144t-33 143.5t-98 57.5t-97.5 -57t-32.5 -144t32.5 -144.5t97.5 -57.5zM299 -14q-118 0 -181.5 86t-63.5 218t63.5 217.5t181.5 85.5q119 0 182.5 -85.5t63.5 -217.5t-63.5 -218t-182.5 -86z" />
    <glyph glyph-name="uni041F" unicode="&#x41f;" 
d="M145 -14q-24 0 -40 16t-16 44v474q0 28 16 43.5t43 15.5h303q27 0 43 -15.5t16 -43.5v-474q0 -28 -15.5 -44t-39.5 -16t-40 16t-16 44v433h-199v-433q0 -28 -15.5 -44t-39.5 -16z" />
    <glyph glyph-name="uni0420" unicode="&#x420;" 
d="M98 46v474q0 28 16 43.5t40 15.5h152q107 0 170 -49t63 -146t-63 -146.5t-170 -49.5h-97v-142q0 -28 -15.5 -44t-39.5 -16t-40 16t-16 44zM301 479h-92v-190h92q56 0 89.5 23.5t33.5 71.5t-33.5 71.5t-89.5 23.5z" />
    <glyph glyph-name="uni0421" unicode="&#x421;" 
d="M174 290q0 -93 39 -147.5t105 -54.5q57 0 108 44q29 25 53 25q22 0 37 -15t15 -37q0 -23 -16 -40q-32 -37 -87 -58t-112 -21q-118 0 -187.5 83t-69.5 221t69.5 220.5t187.5 82.5q57 0 112 -21t87 -58q16 -17 16 -40q0 -22 -15 -37t-37 -15q-24 0 -53 25q-51 44 -108 44
q-66 0 -105 -54t-39 -147z" />
    <glyph glyph-name="uni0422" unicode="&#x422;" 
d="M245 46v433q-5 0 -61.5 -2t-79.5 -2q-63 0 -63 52t63 52h392q30 0 47 -13.5t17 -38.5q0 -52 -64 -52q-22 0 -78 2t-62 2v-433q0 -28 -16 -44t-40 -16t-39.5 16t-15.5 44z" />
    <glyph glyph-name="uni0423" unicode="&#x423;" 
d="M330 294l133 254q12 23 24.5 34t34.5 11q25 0 39.5 -15.5t14.5 -37.5q0 -20 -12 -43l-187 -344q-52 -95 -101 -131t-113 -36q-51 0 -85 16t-34 50q0 21 13 35t31 14q10 0 32 -6q21 -7 41 -7q41 0 66 36q17 14 44 64l-193 312q-13 21 -13 39q0 23 15.5 38.5t39.5 15.5
q20 0 33 -9.5t26 -32.5z" />
    <glyph glyph-name="uni0424" unicode="&#x424;" 
d="M24 289q0 88 61 143t162 62v40q0 28 15 43.5t38 15.5t38 -15.5t15 -43.5v-40q101 -7 162 -62t61 -143t-61 -143.5t-162 -61.5v-39q0 -28 -15 -43.5t-38 -15.5t-38 15.5t-15 43.5v39q-101 6 -162 61.5t-61 143.5zM129 289q0 -52 30.5 -82t87.5 -34v232q-57 -3 -87.5 -33
t-30.5 -83zM472 289q0 53 -31.5 83t-87.5 33v-232q56 4 87.5 34t31.5 82z" />
    <glyph glyph-name="uni0425" unicode="&#x425;" 
d="M113 -14q-24 0 -40 15.5t-16 40.5q0 21 22 49l156 197l-156 200q-22 28 -22 49q0 25 16 40.5t40 15.5q31 0 52 -30l136 -189l136 189q21 30 52 30q24 0 40 -15.5t16 -40.5q0 -21 -22 -49l-156 -200l156 -197q22 -28 22 -49q0 -25 -16 -40.5t-40 -15.5q-31 0 -52 29
l-136 187l-136 -187q-21 -29 -52 -29z" />
    <glyph glyph-name="uni0426" unicode="&#x426;" 
d="M509 -158q-23 0 -38 16t-15 44v98h-305q-24 0 -40 15.5t-16 43.5v474q0 28 16 44t40 16t39.5 -16t15.5 -44v-432h188v432q0 28 16 44t40 16t40 -16t16 -44v-432h6q22 0 36 -16.5t14 -43.5v-139q0 -28 -15 -44t-38 -16z" />
    <glyph glyph-name="uni0427" unicode="&#x427;" 
d="M386 342v191q0 28 15.5 43.5t40.5 15.5q24 0 39.5 -16t15.5 -43v-487q0 -28 -15.5 -43.5t-40.5 -15.5q-23 0 -39 15.5t-16 43.5v196q-47 -14 -106 -14q-192 0 -192 186v120q0 27 16 42.5t40 15.5t40 -15.5t16 -42.5v-96q0 -62 24 -86t81 -24q51 0 81 14z" />
    <glyph glyph-name="uni0428" unicode="&#x428;" 
d="M107 0q-25 0 -40.5 15.5t-15.5 43.5v476q0 28 13.5 43t36.5 15q22 0 36 -15t14 -43v-441h99v441q0 28 14 43t36 15t36.5 -15t14.5 -43v-441h99v441q0 28 14 43t36 15q23 0 36.5 -15t13.5 -43v-476q0 -28 -15.5 -43.5t-40.5 -15.5h-387z" />
    <glyph glyph-name="uni0429" unicode="&#x429;" 
d="M51 59v476q0 28 13.5 43t36.5 15q22 0 36 -15t14 -43v-441h99v441q0 28 14 43t36 15t36.5 -15t14.5 -43v-441h99v441q0 28 14 43t36 15q23 0 36.5 -15t13.5 -43v-434h7q22 0 36 -16.5t14 -43.5v-139q0 -28 -15 -44t-38 -16t-38 16t-15 44v98h-394q-25 0 -40.5 15.5
t-15.5 43.5z" />
    <glyph glyph-name="uni042A" unicode="&#x42a;" 
d="M435 174q0 79 -112 79h-26v-158h26q112 0 112 79zM88 579h153q25 0 40.5 -15.5t15.5 -43.5v-172h24q227 0 227 -176q0 -90 -64 -131t-164 -41h-78q-25 0 -40.5 15.5t-15.5 43.5v419q-90 -3 -98 -3q-31 0 -47 14t-16 38q0 52 63 52z" />
    <glyph glyph-name="uni042B" unicode="&#x42b;" 
d="M557 533v-487q0 -28 -15.5 -44t-39.5 -16t-40 16t-16 44v487q0 28 16 44t40 16t39.5 -16t15.5 -44zM283 174q0 79 -111 79h-19v-158h19q111 0 111 79zM42 59v474q0 28 15.5 44t39.5 16t40 -16t16 -44v-185h17q226 0 226 -176q0 -90 -63.5 -131t-163.5 -41h-68
q-27 0 -43 15.5t-16 43.5z" />
    <glyph glyph-name="uni042C" unicode="&#x42c;" 
d="M429 175q0 78 -111 78h-100v-157h100q111 0 111 79zM106 59v474q0 28 15.5 44t39.5 16t40 -16t16 -44v-184h91q101 0 167.5 -41.5t66.5 -132.5t-66.5 -133t-167.5 -42h-143q-27 0 -43 15.5t-16 43.5z" />
    <glyph glyph-name="uni042D" unicode="&#x42d;" 
d="M426 245q-105 -3 -194 -3q-63 0 -63 51q0 52 63 52q53 0 193 -4q-10 71 -47 110.5t-93 39.5q-59 0 -108 -44q-28 -25 -53 -25q-22 0 -37 15t-15 37q0 23 16 40q32 37 87 58t112 21q118 0 187.5 -82.5t69.5 -220.5t-69.5 -221t-187.5 -83q-57 0 -112 21t-87 58
q-16 17 -16 40q0 22 15 37t37 15q25 0 53 -25q49 -44 108 -44q58 0 95.5 41.5t45.5 115.5z" />
    <glyph glyph-name="uni042E" unicode="&#x42e;" 
d="M396 -12q-159 0 -171 257h-73v-199q0 -28 -16 -44t-40 -16t-39.5 16t-15.5 44v487q0 28 15.5 44t39.5 16t40 -16t16 -44v-187h74q12 246 170 246q49 0 83.5 -23t53 -66t26.5 -94.5t8 -118.5t-8 -118.5t-26.5 -94.5t-53 -66t-83.5 -23zM396 86q69 0 69 204t-69 204
t-69 -204t69 -204z" />
    <glyph glyph-name="uni042F" unicode="&#x42f;" 
d="M499 520v-474q0 -28 -15.5 -44t-39.5 -16t-40 16t-16 44v169h-70l-132 -189q-28 -40 -59 -40q-24 0 -39.5 14.5t-15.5 37.5q0 24 21 53l103 141q-63 22 -94.5 66t-31.5 101q0 85 62 132.5t173 47.5h138q25 0 40.5 -15.5t15.5 -43.5zM188 394q0 -41 30 -62.5t82 -21.5h88
v169h-92q-50 0 -79 -21.5t-29 -63.5z" />
    <glyph glyph-name="uni0430" unicode="&#x430;" 
d="M260 -11q-82 0 -136 38t-54 103t54 103t136 38q85 0 141 -36v29q0 43 -29 65t-81 22q-50 0 -94 -20q-2 -1 -14 -6.5t-20.5 -8t-17.5 -2.5q-20 0 -33.5 13.5t-13.5 33.5q0 37 53 58q63 26 145 26q212 0 212 -183v-215q0 -28 -15 -43t-38 -15q-39 0 -50 38
q-53 -38 -145 -38zM291 67q51 0 83.5 17.5t32.5 46.5t-32.5 46t-83.5 17q-49 0 -80.5 -17t-31.5 -46t31.5 -46.5t80.5 -17.5z" />
    <glyph glyph-name="uni0431" unicode="&#x431;" 
d="M306 350q-55 0 -89.5 -37t-34.5 -96t33 -96t86 -37q54 0 88.5 36t34.5 97q0 60 -33.5 96.5t-84.5 36.5zM329 437q89 0 147.5 -58t58.5 -162q0 -105 -66.5 -166.5t-167.5 -61.5q-108 0 -169 71.5t-61 192.5q0 163 49 247.5t167 116.5l136 37q16 4 25 4q21 0 33 -13t12 -35
q0 -37 -48 -49l-138 -36q-64 -17 -95.5 -56t-42.5 -108q56 76 160 76z" />
    <glyph glyph-name="uni0432" unicode="&#x432;" 
d="M99 51v332q0 23 14.5 37t39.5 14h156q93 0 143.5 -30.5t50.5 -90.5q0 -62 -60 -90q77 -23 77 -94q0 -129 -204 -129h-164q-25 0 -39 13.5t-14 37.5zM305 186h-95v-108h96q101 0 101 55q0 29 -25 41t-77 12zM305 354h-95v-100h94q84 0 84 51q0 49 -83 49z" />
    <glyph glyph-name="uni0433" unicode="&#x433;" 
d="M226 339v-293q0 -28 -15 -43.5t-40 -15.5q-24 0 -40 15.5t-16 43.5v329q0 28 15.5 43.5t40.5 15.5h279q63 0 63 -50q0 -49 -63 -49q-4 0 -224 4z" />
    <glyph glyph-name="uni0434" unicode="&#x434;" 
d="M216 91h180v250h-125l-20 -140q-11 -84 -35 -110zM147 205l24 169q4 28 21 44t41 16h207q25 0 43 -16t18 -43v-281h23q21 0 35.5 -13.5t14.5 -36.5v-133q0 -29 -14 -44.5t-36 -15.5q-23 0 -36.5 15.5t-13.5 44.5v89h-347v-89q0 -29 -13.5 -44.5t-35.5 -15.5
q-23 0 -37 15.5t-14 44.5v133q0 43 45 50q33 3 49.5 28t25.5 83z" />
    <glyph glyph-name="uni0435" unicode="&#x435;" 
d="M308 -11q-110 0 -177 62t-67 166q0 102 68 165t172 63q95 0 162 -58.5t67 -147.5q0 -23 -13.5 -36.5t-39.5 -13.5h-307q9 -49 46 -78t89 -29q59 0 118 38q28 16 47 16q21 0 34.5 -13t13.5 -33q0 -32 -39 -57q-72 -44 -174 -44zM304 358q-46 0 -81 -24.5t-47 -71.5h252
q-8 46 -42.5 71t-81.5 25z" />
    <glyph glyph-name="uni0436" unicode="&#x436;" 
d="M300 -11q-23 0 -35.5 14.5t-12.5 37.5v82l-48 56l-94 -157q-17 -33 -45 -33q-22 0 -34.5 13t-12.5 29q0 19 12 40l113 184l-88 109q-15 18 -15 39q0 16 12 29t33 13q25 0 47 -29l120 -163v140q0 23 12.5 37.5t35.5 14.5t35.5 -14.5t12.5 -37.5v-140l120 163q22 29 47 29
q21 0 33 -13t12 -29q0 -21 -15 -39l-89 -109l114 -184q12 -21 12 -40q0 -16 -12.5 -29t-34.5 -13q-25 0 -45 33l-94 158l-48 -57v-82q0 -23 -12.5 -37.5t-35.5 -14.5z" />
    <glyph glyph-name="uni0437" unicode="&#x437;" 
d="M514 117q0 -57 -57.5 -92.5t-158.5 -35.5q-92 0 -170 39q-53 27 -53 67q0 21 13.5 33t34.5 12q22 0 51 -20q61 -40 132 -40q98 0 98 47q0 49 -127 49q-21 0 -35 11t-14 31t14 31.5t35 11.5q121 0 121 47q0 46 -90 46q-66 0 -124 -39q-35 -22 -57 -22q-18 0 -31.5 13
t-13.5 33q0 39 53 67q77 39 165 39q98 0 153.5 -35t55.5 -92q0 -78 -91 -100q46 -9 71 -36.5t25 -64.5z" />
    <glyph glyph-name="uni0438" unicode="&#x438;" 
d="M457 445q24 0 39 -16t15 -43v-338q0 -28 -15.5 -43.5t-39.5 -15.5q-25 0 -40.5 15.5t-15.5 43.5v220l-190 -238q-34 -42 -67 -42q-25 0 -39 15t-14 43v340q0 28 15.5 43.5t39.5 15.5t39.5 -15.5t15.5 -43.5v-224l190 239q34 44 67 44z" />
    <glyph glyph-name="uni0439" unicode="&#x439;" 
d="M457 445q24 0 39 -16t15 -43v-338q0 -28 -15.5 -43.5t-39.5 -15.5q-25 0 -40.5 15.5t-15.5 43.5v220l-190 -238q-34 -42 -67 -42q-25 0 -39 15t-14 43v340q0 28 15.5 43.5t39.5 15.5t39.5 -15.5t15.5 -43.5v-224l190 239q34 44 67 44zM300 580q58 0 93 57q12 20 33 20
q14 0 24 -10t10 -26q0 -25 -13 -49q-18 -35 -56 -58.5t-91 -23.5t-90.5 22.5t-55.5 57.5q-13 23 -13 51q0 16 9.5 26t23.5 10q21 0 34 -20q33 -57 92 -57z" />
    <glyph glyph-name="uni043A" unicode="&#x43a;" 
d="M480 -11q-29 0 -51 27l-147 182l-75 -52v-99q0 -28 -15 -43t-39 -15q-23 0 -38 15t-15 43v340q0 27 15 42.5t39 15.5q23 0 38 -15.5t15 -42.5v-121l211 156q33 23 57 23q23 0 37 -14.5t14 -37.5q0 -32 -35 -55l-120 -82l136 -163q25 -30 25 -53q0 -21 -14 -36t-38 -15z
" />
    </font>
</defs>
</svg>
