<?xml version="1.0" standalone="no"?>
<!DOCTYPE svg PUBLIC "-//W3C//DTD SVG 1.1//EN" "http://www.w3.org/Graphics/SVG/1.1/DTD/svg11.dtd" >
<svg xmlns="http://www.w3.org/2000/svg" xmlns:xlink="http://www.w3.org/1999/xlink" version="1.1">
<metadata>
Created by FontForge 20170731 at Wed Nov 30 11:59:49 2016
 By Aleksey,,,
Copyright (C)2016 Commercial Type.
</metadata>
<defs>
<font id="StyreneB-Black" horiz-adv-x="600" >
  <font-face 
    font-family="Styrene B Black"
    font-weight="900"
    font-stretch="normal"
    units-per-em="1000"
    panose-1="0 0 0 0 0 0 0 0 0 0"
    ascent="800"
    descent="-200"
    x-height="529"
    cap-height="710"
    bbox="-105 -317 1389 1222"
    underline-thickness="76"
    underline-position="-228"
    unicode-range="U+000D-FB02"
  />
<missing-glyph horiz-adv-x="245" 
 />
    <glyph glyph-name=".notdef" horiz-adv-x="245" 
 />
    <glyph glyph-name=".null" horiz-adv-x="0" 
 />
    <glyph glyph-name=".null" horiz-adv-x="0" 
 />
    <glyph glyph-name="nonmarkingreturn" unicode="&#xd;" horiz-adv-x="245" 
 />
    <glyph glyph-name="space" unicode=" " horiz-adv-x="245" 
 />
    <glyph glyph-name="exclam" unicode="!" horiz-adv-x="352" 
d="M78 241v469h196v-469h-196zM65 0v192h222v-192h-222z" />
    <glyph glyph-name="quotedbl" unicode="&#x22;" horiz-adv-x="553" 
d="M238 399h-168v311h168v-311zM483 399h-168v311h168v-311z" />
    <glyph glyph-name="numbersign" unicode="#" horiz-adv-x="761" 
d="M345 0l37 155h-103l-37 -155h-163l37 155h-96v144h131l29 123h-95v144h130l34 144h164l-35 -144h103l34 144h164l-35 -144h96v-144h-130l-30 -123h95v-144h-130l-37 -155h-163zM314 299h103l29 123h-102z" />
    <glyph glyph-name="dollar" unicode="$" horiz-adv-x="621" 
d="M573 212q0 -77 -46 -132t-131 -73v-130h-172v130q-84 20 -130 76.5t-46 137.5v2h188q0 -32 20 -50t55 -18q67 0 67 50q0 43 -52 56q-18 5 -47.5 12.5t-49.5 13.5q-88 27 -130.5 78.5t-42.5 139.5q0 77 44.5 129.5t123.5 71.5v123h172v-124q151 -38 156 -195h-185
q-2 21 -17.5 35.5t-41.5 14.5q-29 0 -44.5 -13t-15.5 -34t12.5 -33.5t40.5 -20.5q18 -5 47.5 -12.5t49.5 -13.5q89 -27 132 -79.5t43 -141.5z" />
    <glyph glyph-name="percent" unicode="%" horiz-adv-x="983" 
d="M232 332q-84 0 -142 56.5t-58 138.5t58 138.5t142 56.5t142 -56.5t58 -138.5t-58 -138.5t-142 -56.5zM145 0l529 710h165l-529 -710h-165zM232 469q26 0 42 16.5t16 41.5t-16 41.5t-42 16.5t-42 -16.5t-16 -41.5t16 -41.5t42 -16.5zM751 -14q-84 0 -142 56.5t-58 138.5
t58 138.5t142 56.5t142 -56.5t58 -138.5t-58 -138.5t-142 -56.5zM751 123q26 0 42 16.5t16 41.5t-16 41.5t-42 16.5t-42 -16.5t-16 -41.5t16 -41.5t42 -16.5z" />
    <glyph glyph-name="ampersand" unicode="&#x26;" horiz-adv-x="812" 
d="M582 0l-77 75q-98 -87 -215 -87t-186.5 54.5t-69.5 146.5q0 70 37.5 118t100.5 88q-68 71 -68 149q0 76 60.5 127t160.5 51q116 0 178 -49.5t62 -130.5q0 -103 -135 -174l69 -68l95 94h218l-197 -207l191 -187h-224zM315 481l18 -18q19 13 28.5 20t19 21t9.5 29
q0 24 -16 38t-41 14q-23 0 -38 -12.5t-15 -31.5q0 -25 35 -60zM230 220q0 -28 18 -46t51 -18q45 0 85 34l-105 102q-26 -19 -37.5 -34.5t-11.5 -37.5z" />
    <glyph glyph-name="quotesingle" unicode="'" horiz-adv-x="312" 
d="M242 399h-172v311h172v-311z" />
    <glyph glyph-name="parenleft" unicode="(" horiz-adv-x="380" 
d="M364 822q-25 -49 -33 -65t-31.5 -72.5t-33.5 -97t-20 -105.5t-10 -132q0 -82 11.5 -154.5t36.5 -138.5t38 -95.5t42 -85.5h-178q-35 67 -56.5 116.5t-45.5 151.5t-24 206q0 80 11.5 152.5t35 136.5t38.5 98t41 85h178z" />
    <glyph glyph-name="parenright" unicode=")" horiz-adv-x="380" 
d="M16 -124q27 53 41.5 84.5t39 96.5t36 138.5t11.5 154.5t-11.5 154t-36 138t-38.5 95.5t-42 84.5h178q26 -51 41 -85t38.5 -98t35 -136.5t11.5 -152.5q0 -104 -24 -206t-45.5 -151.5t-56.5 -116.5h-178z" />
    <glyph glyph-name="asterisk" unicode="*" horiz-adv-x="494" 
d="M334 291l-87 104l-87 -105l-109 85l92 107l-129 46l46 123l119 -44l-1 133h138l-1 -133l119 44l46 -123l-129 -46l92 -106z" />
    <glyph glyph-name="plus" unicode="+" horiz-adv-x="714" 
d="M642 248h-192v-200h-186v200h-192v176h192v197h186v-197h192v-176z" />
    <glyph glyph-name="comma" unicode="," horiz-adv-x="352" 
d="M226 -193h-133q70 112 79 193h-107v222h222v-192q0 -120 -61 -223z" />
    <glyph glyph-name="hyphen" unicode="-" horiz-adv-x="487" 
d="M72 214v180h343v-180h-343z" />
    <glyph glyph-name="period" unicode="." horiz-adv-x="352" 
d="M65 0v222h222v-222h-222z" />
    <glyph glyph-name="slash" unicode="/" horiz-adv-x="437" 
d="M10 -70l239 830h173l-241 -830h-171z" />
    <glyph glyph-name="zero" unicode="0" horiz-adv-x="702" 
d="M351 724q133 0 209 -72.5t76 -196.5v-200q0 -124 -76 -196.5t-209 -72.5t-209 72.5t-76 196.5v200q0 124 76 196.5t209 72.5zM351 166q42 0 63.5 26t21.5 69v188q0 43 -21.5 69t-63.5 26t-63.5 -26t-21.5 -69v-188q0 -43 21.5 -69t63.5 -26z" />
    <glyph glyph-name="one" unicode="1" horiz-adv-x="485" 
d="M405 713v-713h-200v493l-172 -96v185l222 131h150z" />
    <glyph glyph-name="two" unicode="2" horiz-adv-x="654" 
d="M627 173v-173h-575v135l276 239q35 31 49 53t14 50q0 30 -18.5 49t-52.5 19q-33 0 -52 -21.5t-19 -56.5v-34h-195v40q0 108 70 178.5t196 70.5q130 0 202 -63.5t72 -171.5q0 -76 -36.5 -129t-114.5 -119l-78 -66h262z" />
    <glyph glyph-name="three" unicode="3" horiz-adv-x="661" 
d="M617 210q0 -101 -78.5 -161.5t-214.5 -60.5q-74 0 -133 22t-92.5 57.5t-51.5 74t-20 76.5h202q3 -18 26.5 -37t67.5 -19t67 16.5t23 44.5q0 54 -58 54h-149v170h132q55 0 55 46q0 59 -78 59q-40 0 -59 -17t-23 -34h-198q3 87 76 154t204 67q135 0 207.5 -53.5
t72.5 -155.5q0 -51 -26.5 -85.5t-63.5 -48.5q46 -14 79 -55.5t33 -113.5z" />
    <glyph glyph-name="four" unicode="4" horiz-adv-x="735" 
d="M705 178h-130v-178h-195v178h-350v135l312 397h233v-365h130v-167zM227 345h153v200z" />
    <glyph glyph-name="five" unicode="5" horiz-adv-x="665" 
d="M70 296v414h522v-160h-335v-102q43 52 133 52q100 0 164.5 -66.5t64.5 -177.5q0 -118 -77 -193t-214 -75q-75 0 -133.5 22.5t-91.5 58.5t-50 77t-17 84h203q3 -23 26.5 -44.5t62.5 -21.5t64 26t25 63q0 40 -24 64.5t-65 24.5q-33 0 -52 -15.5t-25 -30.5h-181z" />
    <glyph glyph-name="six" unicode="6" horiz-adv-x="672" 
d="M630 254q0 -117 -80 -191.5t-213 -74.5t-214 74t-81 191q0 79 28 141t91 140l140 176h218l-203 -256q39 31 100 31q97 0 155.5 -65t58.5 -166zM430 254q0 40 -26 66t-68 26t-68 -26t-26 -67q0 -40 26 -65.5t68 -25.5q43 0 68.5 25.5t25.5 66.5z" />
    <glyph glyph-name="seven" unicode="7" horiz-adv-x="628" 
d="M594 587l-296 -587h-224l278 534h-318v176h560v-123z" />
    <glyph glyph-name="eight" unicode="8" horiz-adv-x="675" 
d="M631 193q0 -94 -73.5 -149.5t-204.5 -55.5h-31q-131 0 -204.5 55.5t-73.5 149.5q0 70 35 113t80 58q-41 16 -72.5 55t-31.5 105q0 90 70.5 144t197.5 54h29q127 0 197.5 -54t70.5 -144q0 -66 -31.5 -105t-72.5 -55q45 -15 80 -58t35 -113zM342 570h-9q-36 0 -57.5 -18
t-21.5 -50t21.5 -50t57.5 -18h9q36 0 57.5 18t21.5 50t-21.5 50t-57.5 18zM344 286h-13q-36 0 -59.5 -19.5t-23.5 -53.5t23.5 -53.5t59.5 -19.5h13q36 0 59.5 19.5t23.5 53.5t-23.5 53.5t-59.5 19.5z" />
    <glyph glyph-name="nine" unicode="9" horiz-adv-x="672" 
d="M511 176l-140 -176h-218l203 256q-39 -31 -100 -31q-97 0 -155.5 64.5t-58.5 166.5q0 117 80 191.5t213 74.5t214 -74t81 -191q0 -79 -28 -141.5t-91 -139.5zM242 456q0 -40 26 -66t68 -26t68 26t26 67q0 40 -26 65.5t-68 25.5q-43 0 -68.5 -25.5t-25.5 -66.5z" />
    <glyph glyph-name="colon" unicode=":" horiz-adv-x="362" 
d="M70 0v222h222v-222h-222zM70 307v222h222v-222h-222z" />
    <glyph glyph-name="semicolon" unicode=";" horiz-adv-x="362" 
d="M70 307v222h222v-222h-222zM231 -193h-133q70 112 79 193h-107v222h222v-192q0 -120 -61 -223z" />
    <glyph glyph-name="less" unicode="&#x3c;" horiz-adv-x="635" 
d="M553 233v-188l-481 208v167l481 208v-189l-251 -103z" />
    <glyph glyph-name="equal" unicode="=" horiz-adv-x="696" 
d="M618 372h-540v175h540v-175zM618 123h-540v175h540v-175z" />
    <glyph glyph-name="greater" unicode="&#x3e;" horiz-adv-x="635" 
d="M563 253l-481 -208v189l251 104l-251 102v188l481 -208v-167z" />
    <glyph glyph-name="question" unicode="?" horiz-adv-x="554" 
d="M328 252v-11h-194v49q0 51 16.5 76.5t70.5 55.5l66 35q46 24 46 58q0 49 -56 49q-57 0 -57 -59v-23h-191v38q0 92 65.5 147t182.5 55q122 0 187 -54t65 -154q0 -73 -32.5 -117.5t-107.5 -84.5l-39 -21q-22 -12 -22 -39zM120 0v192h222v-192h-222z" />
    <glyph glyph-name="at" unicode="@" horiz-adv-x="1006" 
d="M755 0h177q-17 -29 -46 -57t-75.5 -57t-118 -47t-155.5 -18q-117 0 -212.5 35.5t-157 98t-95 146t-33.5 179.5q0 204 137 336t350 132q215 0 332 -110t117 -282q0 -134 -64.5 -217.5t-174.5 -83.5q-105 0 -140 61q-48 -61 -135 -61q-88 0 -144 59t-56 161
q0 107 59.5 175.5t152.5 68.5q81 0 114 -61l9 51h171l-47 -286q-8 -52 32 -52q41 0 69 48.5t28 136.5q0 132 -83.5 204t-239.5 72q-154 0 -252.5 -98t-98.5 -256q0 -150 99.5 -244.5t262.5 -94.5q129 0 218 61zM504 368q-29 0 -48 -25.5t-19 -67.5q0 -31 15.5 -49t42.5 -18
q29 0 48 25.5t19 67.5q0 31 -15.5 49t-42.5 18z" />
    <glyph glyph-name="A" unicode="A" horiz-adv-x="777" 
d="M549 0l-35 100h-264l-35 -100h-205l261 710h233l263 -710h-218zM309 268h146l-73 210z" />
    <glyph glyph-name="B" unicode="B" horiz-adv-x="770" 
d="M75 0v710h396q114 0 176 -51.5t62 -137.5q0 -56 -32 -93.5t-77 -51.5q55 -16 91.5 -59.5t36.5 -114.5q0 -94 -64.5 -148t-186.5 -54h-402zM431 550h-155v-106h155q69 0 69 53t-69 53zM434 284h-158v-124h158q84 0 84 64q0 60 -84 60z" />
    <glyph glyph-name="C" unicode="C" horiz-adv-x="722" 
d="M381 -12q-150 0 -243.5 99t-93.5 268t92.5 268t244.5 99q75 0 135.5 -24.5t95 -63.5t53 -80.5t20.5 -81.5h-196q-27 67 -108 67q-59 0 -93 -51t-34 -133t34 -133t93 -51q81 0 108 66h196q-2 -28 -11.5 -58.5t-32.5 -65.5t-55.5 -62t-86 -45t-118.5 -18z" />
    <glyph glyph-name="D" unicode="D" horiz-adv-x="768" 
d="M75 0v710h269q177 0 278.5 -88.5t101.5 -266.5q0 -175 -102 -265t-278 -90h-269zM340 537h-60v-363h60q85 0 130.5 46.5t45.5 134.5q0 182 -176 182z" />
    <glyph glyph-name="E" unicode="E" horiz-adv-x="712" 
d="M75 0v710h572v-165h-367v-93h216v-169h-216v-109h400v-174h-605z" />
    <glyph glyph-name="F" unicode="F" horiz-adv-x="710" 
d="M75 0v710h603v-166h-398v-108h223v-166h-223v-270h-205z" />
    <glyph glyph-name="G" unicode="G" horiz-adv-x="777" 
d="M715 66q-22 -16 -53 -32t-96.5 -32t-138.5 -16q-177 0 -280 100t-103 274q0 164 98.5 265t255.5 101q77 0 138 -22t96 -56.5t54 -70t22 -69.5h-200q-35 46 -107 46q-67 0 -107 -51.5t-40 -142.5q0 -95 44.5 -149.5t128.5 -54.5q54 0 90 13v99h-157v160h355v-362z" />
    <glyph glyph-name="H" unicode="H" horiz-adv-x="812" 
d="M532 0v266h-252v-266h-205v710h205v-266h252v266h205v-710h-205z" />
    <glyph glyph-name="I" unicode="I" horiz-adv-x="359" 
d="M77 0v710h205v-710h-205z" />
    <glyph glyph-name="J" unicode="J" horiz-adv-x="676" 
d="M604 228q0 -111 -73 -177.5t-205 -66.5q-133 0 -199.5 65.5t-66.5 178.5v206h193v-186q0 -84 73 -84q35 0 53.5 23.5t18.5 60.5v462h206v-482z" />
    <glyph glyph-name="K" unicode="K" horiz-adv-x="772" 
d="M505 0l-225 298v-298h-205v710h205v-286l230 286h247l-269 -332l284 -378h-267z" />
    <glyph glyph-name="L" unicode="L" horiz-adv-x="667" 
d="M635 184v-184h-560v710h205v-526h355z" />
    <glyph glyph-name="M" unicode="M" horiz-adv-x="970" 
d="M380 710l112 -356l111 356h292v-710h-200v473l-148 -473h-135l-148 471v-471h-189v710h305z" />
    <glyph glyph-name="N" unicode="N" horiz-adv-x="811" 
d="M736 710v-713h-171l-289 418v-415h-201v710h228l237 -355v355h196z" />
    <glyph glyph-name="O" unicode="O" horiz-adv-x="784" 
d="M392 -12q-151 0 -249.5 98t-98.5 269q0 172 98.5 269.5t249.5 97.5t249.5 -97.5t98.5 -269.5q0 -170 -99 -268.5t-249 -98.5zM392 170q66 0 103 51t37 134t-37 134t-103 51q-65 0 -102.5 -51.5t-37.5 -133.5q0 -83 37 -134t103 -51z" />
    <glyph glyph-name="P" unicode="P" horiz-adv-x="757" 
d="M75 0v710h380q125 0 194.5 -61.5t69.5 -179.5t-69.5 -179.5t-194.5 -61.5h-176v-228h-204zM428 534h-149v-130h149q81 0 81 65t-81 65z" />
    <glyph glyph-name="Q" unicode="Q" horiz-adv-x="784" 
d="M740 355q0 -104 -41 -181.5t-113 -121.5l149 -204h-240l-108 151q-147 2 -245 97.5t-98 258.5q0 172 99 269.5t249 97.5t249 -97.5t99 -269.5zM392 170q65 0 102.5 51.5t37.5 133.5t-37.5 133.5t-102.5 51.5t-102.5 -51.5t-37.5 -133.5t37.5 -133.5t102.5 -51.5z" />
    <glyph glyph-name="R" unicode="R" horiz-adv-x="783" 
d="M75 0v710h385q123 0 190.5 -59t67.5 -174q0 -144 -115 -199l160 -278h-220l-141 249h-123v-249h-204zM435 537h-156v-120h156q35 0 54 16t19 44q0 60 -73 60z" />
    <glyph glyph-name="S" unicode="S" horiz-adv-x="711" 
d="M332 563q-36 0 -57 -12.5t-21 -33.5q0 -41 73 -50l60 -7q143 -17 212 -70t69 -166q0 -109 -79 -173t-224 -64q-84 0 -149 21.5t-103 56.5t-58.5 71t-28.5 74h219q10 -23 40.5 -41.5t79.5 -18.5q90 0 90 56q0 28 -19 40.5t-60 18.5l-61 8q-134 16 -202.5 72t-68.5 161
q0 103 78.5 160.5t209.5 57.5q81 0 142 -19t96 -51.5t53.5 -64t27.5 -67.5h-210q-28 41 -109 41z" />
    <glyph glyph-name="T" unicode="T" horiz-adv-x="726" 
d="M32 534v176h662v-176h-229v-534h-204v534h-229z" />
    <glyph glyph-name="U" unicode="U" horiz-adv-x="795" 
d="M399 168q58 0 90.5 36.5t32.5 97.5v408h203v-421q0 -135 -85.5 -220.5t-240.5 -85.5q-159 0 -244 85.5t-85 220.5v421h206v-408q0 -61 32 -97.5t91 -36.5z" />
    <glyph glyph-name="V" unicode="V" horiz-adv-x="764" 
d="M752 710l-249 -710h-224l-267 710h235l147 -436l144 436h214z" />
    <glyph glyph-name="W" unicode="W" horiz-adv-x="1034" 
d="M627 0l-112 399l-114 -399h-186l-201 710h216l98 -389l105 389h186l106 -395l100 395h195l-195 -710h-198z" />
    <glyph glyph-name="X" unicode="X" horiz-adv-x="796" 
d="M541 0l-148 197l-152 -197h-241l273 356l-266 354h266l133 -180l138 180h244l-263 -342l271 -368h-255z" />
    <glyph glyph-name="Y" unicode="Y" horiz-adv-x="741" 
d="M486 285v-285h-218v291l-273 419h257l133 -211l133 211h228z" />
    <glyph glyph-name="Z" unicode="Z" horiz-adv-x="735" 
d="M703 175v-175h-660v116l324 421h-314v173h616v-114l-325 -421h359z" />
    <glyph glyph-name="bracketleft" unicode="[" horiz-adv-x="394" 
d="M65 -124v946h311v-153h-138v-640h138v-153h-311z" />
    <glyph glyph-name="backslash" unicode="\" horiz-adv-x="437" 
d="M427 -70h-171l-241 830h173z" />
    <glyph glyph-name="bracketright" unicode="]" horiz-adv-x="394" 
d="M18 669v153h311v-946h-311v153h138v640h-138z" />
    <glyph glyph-name="asciicircum" unicode="^" horiz-adv-x="584" 
d="M383 263l-93 224l-93 -224h-192l191 453h190l193 -453h-196z" />
    <glyph glyph-name="underscore" unicode="_" horiz-adv-x="604" 
d="M16 -156v125h572v-125h-572z" />
    <glyph glyph-name="grave" unicode="`" 
d="M448 583h-187l-109 194h194z" />
    <glyph glyph-name="a" unicode="a" horiz-adv-x="643" 
d="M391 0v61q-7 -12 -19 -25t-45.5 -29.5t-73.5 -16.5q-96 0 -156.5 74t-60.5 201q0 126 61 200t157 74q41 0 73.5 -15.5t43.5 -28t17 -22.5v56h196v-529h-193zM390 265q0 53 -20.5 81.5t-56.5 28.5q-37 0 -58 -28.5t-21 -81.5q0 -54 21 -82.5t58 -28.5q36 0 56.5 28.5
t20.5 82.5z" />
    <glyph glyph-name="b" unicode="b" horiz-adv-x="653" 
d="M252 71v-71h-193v736h196v-279q4 8 12.5 18t26 26.5t46.5 27t63 10.5q96 0 155 -72t59 -202t-59 -202.5t-155 -72.5q-105 0 -151 81zM253 265q0 -53 22 -82t61 -29t61 29t22 82q0 51 -22.5 80.5t-60.5 29.5t-60.5 -29.5t-22.5 -80.5z" />
    <glyph glyph-name="c" unicode="c" horiz-adv-x="574" 
d="M359 339q-5 10 -8.5 15.5t-17 13.5t-31.5 8q-35 0 -53 -30t-18 -81q0 -52 19 -82t52 -30q37 0 57 37h187q-2 -36 -17 -70.5t-43.5 -65.5t-77.5 -49.5t-112 -18.5q-116 0 -189 76t-73 203q0 126 73 202t187 76q118 0 183 -62.5t69 -141.5h-187z" />
    <glyph glyph-name="d" unicode="d" horiz-adv-x="651" 
d="M401 0v61q-7 -11 -19 -24.5t-47.5 -30t-78.5 -16.5q-96 0 -158 74t-62 201q0 126 62.5 200t157.5 74q42 0 76.5 -16t46 -27.5t19.5 -22.5v263h194v-736h-191zM400 265q0 49 -22.5 79.5t-60.5 30.5t-60.5 -30.5t-22.5 -79.5q0 -51 22 -81t61 -30q38 0 60.5 30.5t22.5 80.5
z" />
    <glyph glyph-name="e" unicode="e" horiz-adv-x="605" 
d="M305 543q125 0 197 -75.5t72 -202.5v-35h-347q2 -43 26 -67.5t63 -24.5t60 27h195q-4 -67 -68.5 -123t-186.5 -56q-131 0 -206.5 76t-75.5 203q0 126 74 202t197 76zM305 406q-33 0 -53 -18.5t-24 -50.5h153q-11 69 -76 69z" />
    <glyph glyph-name="f" unicode="f" horiz-adv-x="505" 
d="M482 372h-145v-372h-196v372h-118v157h118v67q0 65 39.5 102.5t114.5 37.5h236v-141h-141q-30 0 -41.5 -11t-11.5 -38v-17h145v-157z" />
    <glyph glyph-name="g" unicode="g" horiz-adv-x="645" 
d="M395 20v61q-8 -13 -19.5 -27.5t-46.5 -34t-77 -19.5q-93 0 -154.5 74.5t-61.5 195.5q0 123 61.5 196t155.5 73q86 0 139 -76v66h194v-507q0 -104 -68.5 -165t-204.5 -61q-66 0 -119.5 18t-84 46t-47.5 53.5t-22 47.5h218q18 -18 55 -18q38 0 60 20.5t22 56.5zM394 270
q0 49 -22 77t-58 28q-37 0 -58.5 -27.5t-21.5 -77.5q0 -51 21.5 -79t58.5 -28q36 0 58 28.5t22 78.5z" />
    <glyph glyph-name="h" unicode="h" horiz-adv-x="651" 
d="M255 293v-293h-196v736h196v-265q18 27 56 48.5t92 21.5q87 0 139.5 -58.5t52.5 -153.5v-329h-196v293q0 35 -19 56t-53 21q-35 0 -53.5 -20.5t-18.5 -56.5z" />
    <glyph glyph-name="i" unicode="i" horiz-adv-x="316" 
d="M55 583v168h206v-168h-206zM59 0v529h198v-529h-198z" />
    <glyph glyph-name="j" unicode="j" horiz-adv-x="317" 
d="M56 583v168h206v-168h-206zM258 529v-550q0 -93 -39.5 -132.5t-122.5 -39.5h-201v144h105q35 0 47.5 12t12.5 43v523h198z" />
    <glyph glyph-name="k" unicode="k" horiz-adv-x="635" 
d="M408 0l-151 224v-224h-198v736h198v-403l141 196h228l-174 -241l199 -288h-243z" />
    <glyph glyph-name="l" unicode="l" horiz-adv-x="320" 
d="M61 0v736h198v-736h-198z" />
    <glyph glyph-name="m" unicode="m" horiz-adv-x="983" 
d="M255 295v-295h-196v529h196v-56q18 26 55.5 47t90.5 21q106 0 157 -85q20 32 63.5 58.5t110.5 26.5q89 0 142 -58t53 -152v-331h-196v295q0 34 -18.5 54.5t-51.5 20.5t-51.5 -20.5t-18.5 -54.5v-295h-196v295q0 34 -18.5 54.5t-51.5 20.5t-51.5 -20.5t-18.5 -54.5z" />
    <glyph glyph-name="n" unicode="n" horiz-adv-x="651" 
d="M255 293v-293h-196v529h196v-58q18 27 56 48.5t92 21.5q87 0 139.5 -58.5t52.5 -153.5v-329h-196v293q0 35 -19 56t-53 21q-35 0 -53.5 -20.5t-18.5 -56.5z" />
    <glyph glyph-name="o" unicode="o" horiz-adv-x="626" 
d="M312 543q124 0 202 -75t78 -203q0 -127 -78 -203t-201 -76t-201 76t-78 203t78 202.5t200 75.5zM313 150q41 0 62 31t21 84q0 52 -21 83t-62 31t-62 -31t-21 -83q0 -53 21 -84t62 -31z" />
    <glyph glyph-name="p" unicode="p" horiz-adv-x="653" 
d="M255 67v-260h-196v722h196v-72q4 8 12.5 18t26 26.5t46.5 27t63 10.5q96 0 155 -72t59 -202t-59 -202.5t-155 -72.5q-101 0 -148 77zM253 265q0 -53 22 -82t61 -29t61 29t22 82q0 52 -22 81t-61 29q-38 0 -60.5 -29.5t-22.5 -80.5z" />
    <glyph glyph-name="q" unicode="q" horiz-adv-x="653" 
d="M398 -193v249q-48 -66 -142 -66q-96 0 -158 74t-62 201t62 200.5t158 73.5q42 0 76.5 -16t46 -27.5t19.5 -22.5v56h196v-722h-196zM400 265q0 49 -22.5 79.5t-60.5 30.5t-60.5 -30.5t-22.5 -79.5q0 -51 22 -81t61 -30q38 0 60.5 30.5t22.5 80.5z" />
    <glyph glyph-name="r" unicode="r" horiz-adv-x="510" 
d="M255 245v-245h-196v529h196v-69q35 69 140 69h87v-194h-127q-54 0 -77 -21t-23 -69z" />
    <glyph glyph-name="s" unicode="s" horiz-adv-x="574" 
d="M309 186l-56 5q-222 20 -222 177q0 84 65.5 129.5t178.5 45.5q70 0 121.5 -15.5t78.5 -40.5t40 -49t16 -50h-194q-16 23 -59 23q-52 0 -52 -32q0 -27 41 -30l46 -3q122 -7 177.5 -49.5t55.5 -130.5q0 -87 -64.5 -133.5t-192.5 -46.5q-71 0 -124.5 16.5t-82 43t-43 52
t-17.5 51.5h200q5 -10 21.5 -19.5t45.5 -9.5q61 0 61 32q0 15 -9 23.5t-32 10.5z" />
    <glyph glyph-name="t" unicode="t" horiz-adv-x="525" 
d="M484 172v-172h-164q-179 0 -179 165v204h-118v160h118v181h196v-181h147v-160h-147v-130q0 -36 14.5 -51.5t53.5 -15.5h79z" />
    <glyph glyph-name="u" unicode="u" horiz-adv-x="642" 
d="M323 -12q-131 0 -199 66.5t-68 178.5v296h196v-286q0 -34 17.5 -54t50.5 -20q34 0 52 20t18 54v286h196v-296q0 -112 -67.5 -178.5t-195.5 -66.5z" />
    <glyph glyph-name="v" unicode="v" horiz-adv-x="592" 
d="M597 529l-188 -529h-209l-205 529h222l90 -274l90 274h200z" />
    <glyph glyph-name="w" unicode="w" horiz-adv-x="863" 
d="M505 0l-71 280l-71 -280h-192l-171 529h210l71 -269l71 269h184l71 -269l71 269h185l-157 -529h-201z" />
    <glyph glyph-name="x" unicode="x" horiz-adv-x="639" 
d="M405 0l-93 121l-98 -121h-219l209 260l-207 269h251l83 -111l90 111h221l-205 -253l207 -276h-239z" />
    <glyph glyph-name="y" unicode="y" horiz-adv-x="596" 
d="M601 529l-259 -722h-198l71 191l-220 531h222l93 -264l93 264h198z" />
    <glyph glyph-name="z" unicode="z" horiz-adv-x="588" 
d="M568 157v-157h-532v105l216 270h-212v154h494v-104l-218 -268h252z" />
    <glyph glyph-name="braceleft" unicode="{" horiz-adv-x="395" 
d="M377 28v-152h-147q-184 0 -147 193l33 168q7 36 -30 36h-61v152h61q37 0 30 36l-33 167q-19 96 18.5 145t128.5 49h147v-152h-89q-22 0 -32.5 -11t-5.5 -32l30 -150q11 -55 -13 -87t-68 -41q44 -9 68 -40.5t13 -87.5l-30 -141q-6 -26 5 -39t33 -13h89z" />
    <glyph glyph-name="bar" unicode="|" horiz-adv-x="333" 
d="M80 -116v938h173v-938h-173z" />
    <glyph glyph-name="braceright" unicode="}" horiz-adv-x="395" 
d="M312 69q37 -193 -147 -193h-147v152h89q22 0 33 13t5 39l-30 141q-11 55 13 87.5t68 40.5q-44 8 -68 40.5t-13 87.5l30 150q5 21 -5.5 32t-32.5 11h-89v152h147q91 0 128.5 -49t18.5 -145l-33 -167q-7 -36 30 -36h61v-152h-61q-37 0 -30 -36z" />
    <glyph glyph-name="asciitilde" unicode="~" horiz-adv-x="717" 
d="M437 459q3 -3 6.5 -7t5.5 -6l4.5 -4.5t4.5 -3.5t4 -1.5t5 -0.5q14 0 14 22v162h188v-208q1 -92 -43 -146t-125 -54q-56 0 -95 25t-81 76l-45 54q-3 3 -6.5 7t-5.5 6l-4.5 4.5t-4.5 3.5t-4 1.5t-5 0.5q-14 0 -14 -22v-162h-188v208q-1 92 43 146t125 54q56 0 95 -25
t81 -76z" />
    <glyph glyph-name="uni00A0" unicode="&#xa0;" horiz-adv-x="245" 
 />
    <glyph glyph-name="exclamdown" unicode="&#xa1;" horiz-adv-x="352" 
d="M65 337v192h222v-192h-222zM78 -181v469h196v-469h-196z" />
    <glyph glyph-name="cent" unicode="&#xa2;" horiz-adv-x="601" 
d="M566 190q-3 -62 -43 -116t-119 -76v-121h-172v119q-86 22 -137 93.5t-51 175.5t51 174t137 94v116h172v-119q76 -22 116.5 -75.5t44.5 -113.5h-186q-17 35 -63 35q-36 0 -55.5 -30t-19.5 -81t20 -81.5t55 -30.5q43 0 63 37h187z" />
    <glyph glyph-name="sterling" unicode="&#xa3;" horiz-adv-x="701" 
d="M676 167v-167h-628v167h105v82h-105v167h105v86q0 103 59 161.5t180 58.5q122 0 180.5 -59t58.5 -161v-24h-184v18q0 29 -14.5 45.5t-40.5 16.5q-55 0 -55 -62v-80h160v-167h-160v-82h339z" />
    <glyph glyph-name="yen" unicode="&#xa5;" horiz-adv-x="704" 
d="M626 111h-160v-111h-213v111h-160v124h160v44h-160v124h142l-237 307h256l112 -160l112 160h228l-223 -307h143v-124h-160v-44h160v-124z" />
    <glyph glyph-name="brokenbar" unicode="&#xa6;" horiz-adv-x="333" 
d="M80 401v421h173v-421h-173zM80 -116v434h173v-434h-173z" />
    <glyph glyph-name="section" unicode="&#xa7;" horiz-adv-x="679" 
d="M582 -9v-26q0 -92 -63 -146.5t-178 -54.5q-235 0 -235 203v29h190v-24q0 -48 45 -48t45 44v4q0 44 -39 53l-153 36q-87 21 -129.5 65t-42.5 124q0 52 31.5 90t87.5 53q-39 49 -39 134v19q0 93 65 148t176 55q117 0 175.5 -53.5t58.5 -151.5v-25h-190v24q0 48 -44 48
q-21 0 -33 -11.5t-12 -31.5v-7q0 -44 39 -53l148 -36q87 -21 129.5 -64t42.5 -123q0 -109 -111 -143q36 -44 36 -131zM420 281l-138 33q-27 7 -46 -4.5t-19 -33.5q0 -33 41 -42l137 -33q29 -7 47.5 4.5t18.5 33.5q0 33 -41 42z" />
    <glyph glyph-name="dieresis" unicode="&#xa8;" 
d="M80 583v168h192v-168h-192zM328 583v168h192v-168h-192z" />
    <glyph glyph-name="copyright" unicode="&#xa9;" horiz-adv-x="834" 
d="M417 -12q-159 0 -265 105t-106 262q0 156 106 261.5t265 105.5q158 0 264.5 -105.5t106.5 -261.5t-106.5 -261.5t-264.5 -105.5zM417 92q117 0 187.5 74t70.5 189q0 114 -70.5 188.5t-187.5 74.5t-187.5 -74.5t-70.5 -188.5q0 -116 70.5 -189.5t187.5 -73.5zM365 357
q0 -31 15 -51t40 -20q37 0 51 30h129q0 -34 -16.5 -68.5t-59 -62t-103.5 -27.5q-84 0 -139 57t-55 142q0 84 55.5 141.5t138.5 57.5t129.5 -49.5t49.5 -106.5h-131q-13 28 -49 28q-25 0 -40 -19.5t-15 -51.5z" />
    <glyph glyph-name="ordfeminine" unicode="&#xaa;" horiz-adv-x="573" 
d="M337 256v49l-6 -7q-6 -6 -11 -11.5t-15.5 -13t-21.5 -12.5t-27.5 -9t-34.5 -4q-82 0 -133.5 63.5t-51.5 172.5q0 108 51.5 171t134.5 63q79 0 112 -52v44h182v-454h-179zM335 484q0 83 -57 83q-59 0 -59 -83q0 -85 59 -85q57 0 57 85z" />
    <glyph glyph-name="guillemotleft" unicode="&#xab;" horiz-adv-x="630" 
d="M324 511l-100 -194l100 -196h-178l-96 195l97 195h177zM580 511l-103 -194l103 -196h-178l-99 195l100 195h177z" />
    <glyph glyph-name="registered" unicode="&#xae;" horiz-adv-x="622" 
d="M311 186q-118 0 -196.5 77.5t-78.5 192.5q0 114 79 192t196 78t196 -78t79 -192t-79 -192t-196 -78zM311 266q86 0 136.5 52.5t50.5 137.5q0 84 -50.5 137t-136.5 53t-136.5 -53t-50.5 -137q0 -85 50.5 -137.5t136.5 -52.5zM191 331v263h140q52 0 81 -24t29 -70
q0 -53 -42 -76l48 -93h-97l-38 79h-29v-79h-92zM322 518h-39v-36h39q25 0 25 18t-25 18z" />
    <glyph glyph-name="macron" unicode="&#xaf;" horiz-adv-x="500" 
d="M423 599h-346v144h346v-144z" />
    <glyph glyph-name="degree" unicode="&#xb0;" horiz-adv-x="514" 
d="M257 324q-86 0 -142.5 56.5t-56.5 142.5t56.5 142.5t142.5 56.5t142.5 -56.5t56.5 -142.5t-56.5 -142.5t-142.5 -56.5zM257 444q34 0 55 23t21 56t-21 56t-55 23t-55 -22.5t-21 -56.5t21 -56.5t55 -22.5z" />
    <glyph glyph-name="two.sup" unicode="&#xb2;" horiz-adv-x="520" 
d="M487 358v-134h-436v106l204 172q40 34 40 60q0 19 -12 31t-34 12q-49 0 -49 -53v-18h-157v20q0 84 54.5 137.5t152.5 53.5q100 0 156.5 -47t56.5 -126q0 -52 -27.5 -89.5t-85.5 -84.5l-49 -40h186z" />
    <glyph glyph-name="three.sup" unicode="&#xb3;" horiz-adv-x="532" 
d="M489 377q0 -75 -60 -118.5t-168 -43.5q-112 0 -170.5 53t-61.5 116h168q3 -12 19 -24t44 -12q61 0 61 40q0 33 -43 33h-107v127h91q45 0 45 31q0 36 -54 36q-43 0 -55 -33h-164q3 65 59.5 114t159.5 49q106 0 162.5 -39t56.5 -114q0 -35 -20.5 -60t-46.5 -34
q84 -27 84 -121z" />
    <glyph glyph-name="acute" unicode="&#xb4;" 
d="M152 583l102 194h194l-109 -194h-187z" />
    <glyph glyph-name="paragraph" unicode="&#xb6;" horiz-adv-x="743" 
d="M30 490q0 103 67.5 161.5t178.5 58.5h392v-710h-135v585h-100v-585h-135v270h-22q-110 0 -178 60t-68 160z" />
    <glyph glyph-name="periodcentered" unicode="&#xb7;" horiz-adv-x="352" 
d="M65 225v222h222v-222h-222z" />
    <glyph glyph-name="cedilla" unicode="&#xb8;" 
d="M438 -164q0 -64 -35 -98.5t-103 -34.5h-138v116h107q27 0 27 24q0 22 -27 22h-86v135h132v-37q58 -1 90.5 -34t32.5 -93z" />
    <glyph glyph-name="one.sup" unicode="&#xb9;" horiz-adv-x="399" 
d="M330 738v-514h-166v343l-129 -68v144l170 95h125z" />
    <glyph glyph-name="ordmasculine" unicode="&#xba;" horiz-adv-x="595" 
d="M298 722q107 0 175 -64t68 -175q0 -110 -68 -174.5t-175 -64.5t-175.5 64.5t-68.5 174.5q0 111 68 175t176 64zM298 395q30 0 46 24t16 64t-16 64t-46 24q-62 0 -62 -88t62 -88z" />
    <glyph glyph-name="guillemotright" unicode="&#xbb;" horiz-adv-x="630" 
d="M580 316l-97 -195h-177l100 194l-99 196h178zM327 316l-99 -195h-177l102 194l-103 196h178z" />
    <glyph glyph-name="onequarter" unicode="&#xbc;" horiz-adv-x="1069" 
d="M1043 103h-85v-103h-154v103h-240v105l204 244h190v-229h85v-120zM706 223h98v120zM307 712v-454h-158v295l-117 -59v133l156 85h119zM329 0h-154l477 710h154z" />
    <glyph glyph-name="onehalf" unicode="&#xbd;" horiz-adv-x="1055" 
d="M307 712v-454h-158v295l-117 -59v133l156 85h119zM327 0h-154l477 710h154zM1025 124v-124h-400v98l187 151q33 27 33 48q0 34 -38 34q-41 0 -41 -44v-14h-148v16q0 76 49.5 123.5t140.5 47.5q92 0 143.5 -42t51.5 -112q0 -48 -25 -82t-77 -72l-38 -28h162z" />
    <glyph glyph-name="threequarters" unicode="&#xbe;" horiz-adv-x="1167" 
d="M449 395q0 -67 -55 -106t-156 -39q-102 0 -156 48t-57 104h160q0 -4 4.5 -10.5t17.5 -13.5t31 -7q52 0 52 32q0 25 -35 25h-99v120h88q32 0 32 21q0 31 -45 31q-23 0 -34 -9.5t-12 -18.5h-156q0 57 53.5 101.5t148.5 44.5q203 0 203 -136q0 -57 -60 -81q31 -10 53 -36
t22 -70zM1141 103h-85v-103h-154v103h-240v105l204 244h190v-229h85v-120zM804 223h98v120zM427 0h-154l477 710h154z" />
    <glyph glyph-name="questiondown" unicode="&#xbf;" horiz-adv-x="554" 
d="M226 277v11h194v-49q0 -51 -16.5 -76.5t-70.5 -55.5l-66 -35q-46 -24 -46 -58q0 -49 56 -49q57 0 57 59v23h191v-38q0 -92 -65.5 -147t-182.5 -55q-122 0 -187 54t-65 154q0 73 32.5 117.5t107.5 84.5l39 21q22 12 22 39zM434 529v-192h-222v192h222z" />
    <glyph glyph-name="Agrave" unicode="&#xc0;" horiz-adv-x="777" 
d="M549 0l-35 100h-264l-35 -100h-205l261 710h233l263 -710h-218zM309 268h146l-73 210zM484 764h-198l-112 168h206z" />
    <glyph glyph-name="Aacute" unicode="&#xc1;" horiz-adv-x="777" 
d="M549 0l-35 100h-264l-35 -100h-205l261 710h233l263 -710h-218zM309 268h146l-73 210zM287 764l104 168h206l-112 -168h-198z" />
    <glyph glyph-name="Acircumflex" unicode="&#xc2;" horiz-adv-x="777" 
d="M549 0l-35 100h-264l-35 -100h-205l261 710h233l263 -710h-218zM309 268h146l-73 210zM438 764l-55 69l-55 -69h-174l133 171h192l130 -171h-171z" />
    <glyph glyph-name="Atilde" unicode="&#xc3;" horiz-adv-x="777" 
d="M549 0l-35 100h-264l-35 -100h-205l261 710h233l263 -710h-218zM309 268h146l-73 210zM393 790l-33 15q-18 8 -25 8q-14 0 -14 -18v-33h-131v98q0 46 24.5 72t71.5 26q34 0 87 -24l32 -15q18 -8 27 -8q13 0 13 19v33h131v-98q0 -46 -25 -72t-71 -26q-38 0 -87 23z" />
    <glyph glyph-name="Adieresis" unicode="&#xc4;" horiz-adv-x="777" 
d="M549 0l-35 100h-264l-35 -100h-205l261 710h233l263 -710h-218zM309 268h146l-73 210zM161 764v168h193v-168h-193zM412 764v168h193v-168h-193z" />
    <glyph glyph-name="Aring" unicode="&#xc5;" horiz-adv-x="777" 
d="M549 0l-35 100h-264l-35 -100h-205l261 710h233l263 -710h-218zM309 268h146l-73 210zM383 754q-64 0 -105 40.5t-41 102.5q0 63 41 103t105 40q66 0 106.5 -40t40.5 -103q0 -62 -41.5 -102.5t-105.5 -40.5zM383 844q23 0 37.5 15t14.5 38q0 24 -14.5 38.5t-37.5 14.5
t-37.5 -14.5t-14.5 -38.5q0 -23 14.5 -38t37.5 -15z" />
    <glyph glyph-name="AE" unicode="&#xc6;" horiz-adv-x="1071" 
d="M1039 174v-174h-565v130h-202l-63 -130h-219l353 710h663v-165h-327v-93h199v-169h-199v-109h360zM354 298h120v248z" />
    <glyph glyph-name="Ccedilla" unicode="&#xc7;" horiz-adv-x="723" 
d="M381 -12q-150 0 -243.5 99t-93.5 268t92.5 268t244.5 99q75 0 135.5 -24.5t95 -63.5t53 -80.5t20.5 -81.5h-196q-27 67 -108 67q-59 0 -93 -51t-34 -133t34 -133t93 -51q81 0 108 66h196q-2 -28 -11.5 -58.5t-32.5 -65.5t-55.5 -62t-86 -45t-118.5 -18zM547 -164
q0 -64 -35 -98.5t-103 -34.5h-138v116h107q27 0 27 24q0 22 -27 22h-86v135h132v-37q58 -1 90.5 -34t32.5 -93z" />
    <glyph glyph-name="Egrave" unicode="&#xc8;" horiz-adv-x="712" 
d="M75 0v710h572v-165h-367v-93h216v-169h-216v-109h400v-174h-605zM483 764h-198l-112 168h206z" />
    <glyph glyph-name="Eacute" unicode="&#xc9;" horiz-adv-x="712" 
d="M75 0v710h572v-165h-367v-93h216v-169h-216v-109h400v-174h-605zM262 764l104 168h206l-112 -168h-198z" />
    <glyph glyph-name="Ecircumflex" unicode="&#xca;" horiz-adv-x="712" 
d="M75 0v710h572v-165h-367v-93h216v-169h-216v-109h400v-174h-605zM416 764l-55 69l-55 -69h-174l133 171h192l130 -171h-171z" />
    <glyph glyph-name="Edieresis" unicode="&#xcb;" horiz-adv-x="712" 
d="M75 0v710h572v-165h-367v-93h216v-169h-216v-109h400v-174h-605zM139 764v168h193v-168h-193zM390 764v168h193v-168h-193z" />
    <glyph glyph-name="Igrave" unicode="&#xcc;" horiz-adv-x="359" 
d="M77 0v710h205v-710h-205zM280 764h-198l-112 168h206z" />
    <glyph glyph-name="Iacute" unicode="&#xcd;" horiz-adv-x="359" 
d="M77 0v710h205v-710h-205zM81 764l104 168h206l-112 -168h-198z" />
    <glyph glyph-name="Icircumflex" unicode="&#xce;" horiz-adv-x="359" 
d="M77 0v710h205v-710h-205zM234 764l-55 69l-55 -69h-174l133 171h192l130 -171h-171z" />
    <glyph glyph-name="Idieresis" unicode="&#xcf;" horiz-adv-x="359" 
d="M77 0v710h205v-710h-205zM-43 764v168h193v-168h-193zM208 764v168h193v-168h-193z" />
    <glyph glyph-name="Eth" unicode="&#xd0;" horiz-adv-x="796" 
d="M14 273v169h89v268h269q177 0 278.5 -88.5t101.5 -266.5q0 -175 -102 -265t-278 -90h-269v273h-89zM368 537h-60v-95h132v-169h-132v-99h60q85 0 130.5 46.5t45.5 134.5q0 182 -176 182z" />
    <glyph glyph-name="Ntilde" unicode="&#xd1;" horiz-adv-x="811" 
d="M736 710v-713h-171l-289 418v-415h-201v710h228l237 -355v355h196zM425 790l-33 15q-18 8 -25 8q-14 0 -14 -18v-33h-131v98q0 46 24.5 72t71.5 26q34 0 87 -24l32 -15q18 -8 27 -8q13 0 13 19v33h131v-98q0 -46 -25 -72t-71 -26q-38 0 -87 23z" />
    <glyph glyph-name="Ograve" unicode="&#xd2;" horiz-adv-x="784" 
d="M392 -12q-151 0 -249.5 98t-98.5 269q0 172 98.5 269.5t249.5 97.5t249.5 -97.5t98.5 -269.5q0 -170 -99 -268.5t-249 -98.5zM392 170q66 0 103 51t37 134t-37 134t-103 51q-65 0 -102.5 -51.5t-37.5 -133.5q0 -83 37 -134t103 -51zM493 764h-198l-112 168h206z" />
    <glyph glyph-name="Oacute" unicode="&#xd3;" horiz-adv-x="784" 
d="M392 -12q-151 0 -249.5 98t-98.5 269q0 172 98.5 269.5t249.5 97.5t249.5 -97.5t98.5 -269.5q0 -170 -99 -268.5t-249 -98.5zM392 170q66 0 103 51t37 134t-37 134t-103 51q-65 0 -102.5 -51.5t-37.5 -133.5q0 -83 37 -134t103 -51zM294 764l104 168h206l-112 -168h-198z
" />
    <glyph glyph-name="Ocircumflex" unicode="&#xd4;" horiz-adv-x="784" 
d="M392 -12q-151 0 -249.5 98t-98.5 269q0 172 98.5 269.5t249.5 97.5t249.5 -97.5t98.5 -269.5q0 -170 -99 -268.5t-249 -98.5zM392 170q66 0 103 51t37 134t-37 134t-103 51q-65 0 -102.5 -51.5t-37.5 -133.5q0 -83 37 -134t103 -51zM447 764l-55 69l-55 -69h-174l133 171
h192l130 -171h-171z" />
    <glyph glyph-name="Otilde" unicode="&#xd5;" horiz-adv-x="784" 
d="M392 -12q-151 0 -249.5 98t-98.5 269q0 172 98.5 269.5t249.5 97.5t249.5 -97.5t98.5 -269.5q0 -170 -99 -268.5t-249 -98.5zM392 170q66 0 103 51t37 134t-37 134t-103 51q-65 0 -102.5 -51.5t-37.5 -133.5q0 -83 37 -134t103 -51zM402 790l-33 15q-18 8 -25 8
q-14 0 -14 -18v-33h-131v98q0 46 24.5 72t71.5 26q34 0 87 -24l32 -15q18 -8 27 -8q13 0 13 19v33h131v-98q0 -46 -25 -72t-71 -26q-38 0 -87 23z" />
    <glyph glyph-name="Odieresis" unicode="&#xd6;" horiz-adv-x="784" 
d="M392 -12q-151 0 -249.5 98t-98.5 269q0 172 98.5 269.5t249.5 97.5t249.5 -97.5t98.5 -269.5q0 -170 -99 -268.5t-249 -98.5zM392 170q66 0 103 51t37 134t-37 134t-103 51q-65 0 -102.5 -51.5t-37.5 -133.5q0 -83 37 -134t103 -51zM170 764v168h193v-168h-193zM421 764
v168h193v-168h-193z" />
    <glyph glyph-name="multiply" unicode="&#xd7;" horiz-adv-x="697" 
d="M629 178l-131 -127l-151 153l-150 -153l-129 124l153 156l-153 155l131 129l151 -153l150 153l129 -124l-154 -157z" />
    <glyph glyph-name="Oslash" unicode="&#xd8;" horiz-adv-x="784" 
d="M740 355q0 -170 -99 -268.5t-249 -98.5q-91 0 -169 42l-24 -30h-190l103 128q-68 93 -68 227q0 172 98.5 269.5t249.5 97.5q88 0 168 -41l23 29h192l-103 -127q68 -93 68 -228zM240 355q0 -38 4 -63l200 248q-24 6 -52 6q-71 0 -111.5 -53.5t-40.5 -137.5zM543 355
q0 40 -4 65l-201 -250q24 -6 54 -6q71 0 111 53.5t40 137.5z" />
    <glyph glyph-name="Ugrave" unicode="&#xd9;" horiz-adv-x="795" 
d="M399 168q58 0 90.5 36.5t32.5 97.5v408h203v-421q0 -135 -85.5 -220.5t-240.5 -85.5q-159 0 -244 85.5t-85 220.5v421h206v-408q0 -61 32 -97.5t91 -36.5zM508 764h-198l-112 168h206z" />
    <glyph glyph-name="Uacute" unicode="&#xda;" horiz-adv-x="795" 
d="M399 168q58 0 90.5 36.5t32.5 97.5v408h203v-421q0 -135 -85.5 -220.5t-240.5 -85.5q-159 0 -244 85.5t-85 220.5v421h206v-408q0 -61 32 -97.5t91 -36.5zM298 764l104 168h206l-112 -168h-198z" />
    <glyph glyph-name="Ucircumflex" unicode="&#xdb;" horiz-adv-x="795" 
d="M399 168q58 0 90.5 36.5t32.5 97.5v408h203v-421q0 -135 -85.5 -220.5t-240.5 -85.5q-159 0 -244 85.5t-85 220.5v421h206v-408q0 -61 32 -97.5t91 -36.5zM454 764l-55 69l-55 -69h-174l133 171h192l130 -171h-171z" />
    <glyph glyph-name="Udieresis" unicode="&#xdc;" horiz-adv-x="795" 
d="M399 168q58 0 90.5 36.5t32.5 97.5v408h203v-421q0 -135 -85.5 -220.5t-240.5 -85.5q-159 0 -244 85.5t-85 220.5v421h206v-408q0 -61 32 -97.5t91 -36.5zM177 764v168h193v-168h-193zM428 764v168h193v-168h-193z" />
    <glyph glyph-name="Yacute" unicode="&#xdd;" horiz-adv-x="741" 
d="M486 285v-285h-218v291l-273 419h257l133 -211l133 211h228zM281 764l104 168h206l-112 -168h-198z" />
    <glyph glyph-name="Thorn" unicode="&#xde;" horiz-adv-x="757" 
d="M461 128h-182v-128h-204v710h204v-114h183q123 0 190 -59.5t67 -174.5q0 -113 -68 -173.5t-190 -60.5zM436 420h-157v-116h157q72 0 72 58t-72 58z" />
    <glyph glyph-name="germandbls" unicode="&#xdf;" horiz-adv-x="640" 
d="M259 502v-502h-198v504q0 118 66 181t193 63q120 0 187.5 -53t67.5 -146q0 -57 -27 -93.5t-65 -50.5q51 -15 89 -61t38 -130q0 -101 -63 -157.5t-179 -56.5h-56v172h30q72 0 72 58t-72 58h-30v172q69 0 69 59q0 29 -16.5 45t-44.5 16t-44.5 -20t-16.5 -58z" />
    <glyph glyph-name="agrave" unicode="&#xe0;" horiz-adv-x="643" 
d="M391 0v61q-7 -12 -19 -25t-45.5 -29.5t-73.5 -16.5q-96 0 -156.5 74t-60.5 201q0 126 61 200t157 74q41 0 73.5 -15.5t43.5 -28t17 -22.5v56h196v-529h-193zM390 265q0 53 -20.5 81.5t-56.5 28.5q-37 0 -58 -28.5t-21 -81.5q0 -54 21 -82.5t58 -28.5q36 0 56.5 28.5
t20.5 82.5zM403 583h-187l-109 194h194z" />
    <glyph glyph-name="aacute" unicode="&#xe1;" horiz-adv-x="643" 
d="M391 0v61q-7 -12 -19 -25t-45.5 -29.5t-73.5 -16.5q-96 0 -156.5 74t-60.5 201q0 126 61 200t157 74q41 0 73.5 -15.5t43.5 -28t17 -22.5v56h196v-529h-193zM390 265q0 53 -20.5 81.5t-56.5 28.5q-37 0 -58 -28.5t-21 -81.5q0 -54 21 -82.5t58 -28.5q36 0 56.5 28.5
t20.5 82.5zM217 583l102 194h194l-109 -194h-187z" />
    <glyph glyph-name="acircumflex" unicode="&#xe2;" horiz-adv-x="643" 
d="M391 0v61q-7 -12 -19 -25t-45.5 -29.5t-73.5 -16.5q-96 0 -156.5 74t-60.5 201q0 126 61 200t157 74q41 0 73.5 -15.5t43.5 -28t17 -22.5v56h196v-529h-193zM390 265q0 53 -20.5 81.5t-56.5 28.5q-37 0 -58 -28.5t-21 -81.5q0 -54 21 -82.5t58 -28.5q36 0 56.5 28.5
t20.5 82.5zM360 583l-50 84l-51 -84h-167l128 201h180l124 -201h-164z" />
    <glyph glyph-name="atilde" unicode="&#xe3;" horiz-adv-x="643" 
d="M391 0v61q-7 -12 -19 -25t-45.5 -29.5t-73.5 -16.5q-96 0 -156.5 74t-60.5 201q0 126 61 200t157 74q41 0 73.5 -15.5t43.5 -28t17 -22.5v56h196v-529h-193zM390 265q0 53 -20.5 81.5t-56.5 28.5q-37 0 -58 -28.5t-21 -81.5q0 -54 21 -82.5t58 -28.5q36 0 56.5 28.5
t20.5 82.5zM254 579h-127v98q0 46 23.5 72t67.5 26q35 0 81 -24l29 -14q16 -8 24 -8q14 0 14 19v32h128v-98q0 -46 -24 -72t-68 -26q-35 0 -81 24l-29 14q-18 8 -24 8q-14 0 -14 -19v-32z" />
    <glyph glyph-name="adieresis" unicode="&#xe4;" horiz-adv-x="643" 
d="M391 0v61q-7 -12 -19 -25t-45.5 -29.5t-73.5 -16.5q-96 0 -156.5 74t-60.5 201q0 126 61 200t157 74q41 0 73.5 -15.5t43.5 -28t17 -22.5v56h196v-529h-193zM390 265q0 53 -20.5 81.5t-56.5 28.5q-37 0 -58 -28.5t-21 -81.5q0 -54 21 -82.5t58 -28.5q36 0 56.5 28.5
t20.5 82.5zM90 583v168h192v-168h-192zM338 583v168h192v-168h-192z" />
    <glyph glyph-name="aring" unicode="&#xe5;" horiz-adv-x="643" 
d="M391 0v61q-7 -12 -19 -25t-45.5 -29.5t-73.5 -16.5q-96 0 -156.5 74t-60.5 201q0 126 61 200t157 74q41 0 73.5 -15.5t43.5 -28t17 -22.5v56h196v-529h-193zM390 265q0 53 -20.5 81.5t-56.5 28.5q-37 0 -58 -28.5t-21 -81.5q0 -54 21 -82.5t58 -28.5q36 0 56.5 28.5
t20.5 82.5zM310 574q-63 0 -104 40.5t-41 101.5q0 62 40.5 102t104.5 40t105 -40t41 -102q0 -60 -41.5 -101t-104.5 -41zM310 664q22 0 36.5 14.5t14.5 37.5t-14 37.5t-37 14.5t-37 -14.5t-14 -37.5t14.5 -37.5t36.5 -14.5z" />
    <glyph glyph-name="ae" unicode="&#xe6;" horiz-adv-x="926" 
d="M628 543q123 0 195 -75.5t72 -202.5v-43h-342q4 -39 26.5 -61.5t59.5 -22.5q35 0 55 23h198q-3 -29 -18.5 -57.5t-44 -56t-78 -44.5t-112.5 -17q-141 0 -217 90q-53 -88 -188 -88q-95 0 -150.5 50t-55.5 129q0 80 53 123t147 43h132v5q0 25 -16 42.5t-47 17.5
q-26 0 -41.5 -10.5t-18.5 -20.5h-199q1 23 14 50.5t40 57t79.5 49t121.5 19.5q117 0 175 -61q54 61 160 61zM628 406q-33 0 -52.5 -19.5t-22.5 -53.5h149q-3 35 -22.5 54t-51.5 19zM224 172q0 -23 17.5 -37.5t47.5 -14.5q32 0 51.5 18.5t19.5 47.5v30h-82q-25 0 -39.5 -11.5
t-14.5 -32.5z" />
    <glyph glyph-name="ccedilla" unicode="&#xe7;" horiz-adv-x="574" 
d="M546 339h-187q-5 10 -8.5 15.5t-17 13.5t-31.5 8q-35 0 -53 -30t-18 -81q0 -52 19 -82t52 -30q37 0 57 37h187q-3 -57 -37 -107.5t-101 -77.5q-29 -12 -71 -17v-25q58 -1 90.5 -34t32.5 -93q0 -64 -35 -98.5t-103 -34.5h-138v116h107q27 0 27 24q0 22 -27 22h-86v135
q-3 1 -14 5q-73 31 -115 98t-42 162q0 126 73 202t187 76q118 0 183 -62.5t69 -141.5z" />
    <glyph glyph-name="egrave" unicode="&#xe8;" horiz-adv-x="605" 
d="M305 543q125 0 197 -75.5t72 -202.5v-35h-347q2 -43 26 -67.5t63 -24.5t60 27h195q-4 -67 -68.5 -123t-186.5 -56q-131 0 -206.5 76t-75.5 203q0 126 74 202t197 76zM305 406q-33 0 -53 -18.5t-24 -50.5h153q-11 69 -76 69zM398 583h-187l-109 194h194z" />
    <glyph glyph-name="eacute" unicode="&#xe9;" horiz-adv-x="605" 
d="M305 543q125 0 197 -75.5t72 -202.5v-35h-347q2 -43 26 -67.5t63 -24.5t60 27h195q-4 -67 -68.5 -123t-186.5 -56q-131 0 -206.5 76t-75.5 203q0 126 74 202t197 76zM305 406q-33 0 -53 -18.5t-24 -50.5h153q-11 69 -76 69zM212 583l102 194h194l-109 -194h-187z" />
    <glyph glyph-name="ecircumflex" unicode="&#xea;" horiz-adv-x="605" 
d="M305 543q125 0 197 -75.5t72 -202.5v-35h-347q2 -43 26 -67.5t63 -24.5t60 27h195q-4 -67 -68.5 -123t-186.5 -56q-131 0 -206.5 76t-75.5 203q0 126 74 202t197 76zM305 406q-33 0 -53 -18.5t-24 -50.5h153q-11 69 -76 69zM355 583l-50 84l-51 -84h-167l128 201h180
l124 -201h-164z" />
    <glyph glyph-name="edieresis" unicode="&#xeb;" horiz-adv-x="605" 
d="M305 543q125 0 197 -75.5t72 -202.5v-35h-347q2 -43 26 -67.5t63 -24.5t60 27h195q-4 -67 -68.5 -123t-186.5 -56q-131 0 -206.5 76t-75.5 203q0 126 74 202t197 76zM305 406q-33 0 -53 -18.5t-24 -50.5h153q-11 69 -76 69zM85 583v168h192v-168h-192zM333 583v168h192
v-168h-192z" />
    <glyph glyph-name="igrave" unicode="&#xec;" horiz-adv-x="316" 
d="M59 0v529h198v-529h-198zM251 583h-187l-109 194h194z" />
    <glyph glyph-name="iacute" unicode="&#xed;" horiz-adv-x="316" 
d="M59 0v529h198v-529h-198zM65 583l102 194h194l-109 -194h-187z" />
    <glyph glyph-name="icircumflex" unicode="&#xee;" horiz-adv-x="316" 
d="M205 583l-47 83l-48 -83h-167l123 201h184l119 -201h-164zM59 0v529h198v-529h-198z" />
    <glyph glyph-name="idieresis" unicode="&#xef;" horiz-adv-x="316" 
d="M-51 583v168h182v-168h-182zM185 583v168h182v-168h-182zM59 0v529h198v-529h-198z" />
    <glyph glyph-name="eth" unicode="&#xf0;" horiz-adv-x="626" 
d="M592 265q0 -125 -77.5 -202t-202.5 -77q-124 0 -201 77t-77 202q0 108 54.5 177t145.5 69q51 0 83 -23l-57 72l-148 -42l-34 103l109 31l-66 84h213l27 -35l115 33l34 -103l-77 -22l45 -58q59 -74 86.5 -139t27.5 -147zM313 150q41 0 62 31t21 84q0 52 -21 83t-62 31
t-62 -31t-21 -83q0 -53 21 -84t62 -31z" />
    <glyph glyph-name="ntilde" unicode="&#xf1;" horiz-adv-x="651" 
d="M255 293v-293h-196v529h196v-58q18 27 56 48.5t92 21.5q87 0 139.5 -58.5t52.5 -153.5v-329h-196v293q0 35 -19 56t-53 21q-35 0 -53.5 -20.5t-18.5 -56.5zM265 579h-127v98q0 46 23.5 72t67.5 26q35 0 81 -24l29 -14q16 -8 24 -8q14 0 14 19v32h128v-98q0 -46 -24 -72
t-68 -26q-35 0 -81 24l-29 14q-18 8 -24 8q-14 0 -14 -19v-32z" />
    <glyph glyph-name="ograve" unicode="&#xf2;" horiz-adv-x="626" 
d="M312 543q124 0 202 -75t78 -203q0 -127 -78 -203t-201 -76t-201 76t-78 203t78 202.5t200 75.5zM313 150q41 0 62 31t21 84q0 52 -21 83t-62 31t-62 -31t-21 -83q0 -53 21 -84t62 -31zM406 583h-187l-109 194h194z" />
    <glyph glyph-name="oacute" unicode="&#xf3;" horiz-adv-x="626" 
d="M312 543q124 0 202 -75t78 -203q0 -127 -78 -203t-201 -76t-201 76t-78 203t78 202.5t200 75.5zM313 150q41 0 62 31t21 84q0 52 -21 83t-62 31t-62 -31t-21 -83q0 -53 21 -84t62 -31zM220 583l102 194h194l-109 -194h-187z" />
    <glyph glyph-name="ocircumflex" unicode="&#xf4;" horiz-adv-x="626" 
d="M312 543q124 0 202 -75t78 -203q0 -127 -78 -203t-201 -76t-201 76t-78 203t78 202.5t200 75.5zM313 150q41 0 62 31t21 84q0 52 -21 83t-62 31t-62 -31t-21 -83q0 -53 21 -84t62 -31zM363 583l-50 84l-51 -84h-167l128 201h180l124 -201h-164z" />
    <glyph glyph-name="otilde" unicode="&#xf5;" horiz-adv-x="626" 
d="M312 543q124 0 202 -75t78 -203q0 -127 -78 -203t-201 -76t-201 76t-78 203t78 202.5t200 75.5zM313 150q41 0 62 31t21 84q0 52 -21 83t-62 31t-62 -31t-21 -83q0 -53 21 -84t62 -31zM257 579h-127v98q0 46 23.5 72t67.5 26q35 0 81 -24l29 -14q16 -8 24 -8q14 0 14 19
v32h128v-98q0 -46 -24 -72t-68 -26q-35 0 -81 24l-29 14q-18 8 -24 8q-14 0 -14 -19v-32z" />
    <glyph glyph-name="odieresis" unicode="&#xf6;" horiz-adv-x="626" 
d="M312 543q124 0 202 -75t78 -203q0 -127 -78 -203t-201 -76t-201 76t-78 203t78 202.5t200 75.5zM313 150q41 0 62 31t21 84q0 52 -21 83t-62 31t-62 -31t-21 -83q0 -53 21 -84t62 -31zM93 583v168h192v-168h-192zM341 583v168h192v-168h-192z" />
    <glyph glyph-name="divide" unicode="&#xf7;" horiz-adv-x="718" 
d="M252 478v190h210v-190h-210zM642 248h-570v176h570v-176zM252 0v190h210v-190h-210z" />
    <glyph glyph-name="oslash" unicode="&#xf8;" horiz-adv-x="627" 
d="M593 265q0 -124 -79 -201.5t-200 -77.5q-75 0 -143 38l-21 -24h-139l80 93q-57 72 -57 172q0 125 79 201.5t201 76.5q76 0 141 -37l20 23h141l-79 -92q56 -70 56 -172zM209 265q0 -28 2 -35l135 157q-13 3 -32 3q-48 0 -76.5 -36t-28.5 -89zM418 265q0 27 -2 34
l-135 -157q15 -3 33 -3q48 0 76 36.5t28 89.5z" />
    <glyph glyph-name="ugrave" unicode="&#xf9;" horiz-adv-x="642" 
d="M323 -12q-131 0 -199 66.5t-68 178.5v296h196v-286q0 -34 17.5 -54t50.5 -20q34 0 52 20t18 54v286h196v-296q0 -112 -67.5 -178.5t-195.5 -66.5zM413 583h-187l-109 194h194z" />
    <glyph glyph-name="uacute" unicode="&#xfa;" horiz-adv-x="642" 
d="M323 -12q-131 0 -199 66.5t-68 178.5v296h196v-286q0 -34 17.5 -54t50.5 -20q34 0 52 20t18 54v286h196v-296q0 -112 -67.5 -178.5t-195.5 -66.5zM227 583l102 194h194l-109 -194h-187z" />
    <glyph glyph-name="ucircumflex" unicode="&#xfb;" horiz-adv-x="642" 
d="M323 -12q-131 0 -199 66.5t-68 178.5v296h196v-286q0 -34 17.5 -54t50.5 -20q34 0 52 20t18 54v286h196v-296q0 -112 -67.5 -178.5t-195.5 -66.5zM370 583l-50 84l-51 -84h-167l128 201h180l124 -201h-164z" />
    <glyph glyph-name="udieresis" unicode="&#xfc;" horiz-adv-x="642" 
d="M323 -12q-131 0 -199 66.5t-68 178.5v296h196v-286q0 -34 17.5 -54t50.5 -20q34 0 52 20t18 54v286h196v-296q0 -112 -67.5 -178.5t-195.5 -66.5zM100 583v168h192v-168h-192zM348 583v168h192v-168h-192z" />
    <glyph glyph-name="yacute" unicode="&#xfd;" horiz-adv-x="596" 
d="M601 529l-259 -722h-198l71 191l-220 531h222l93 -264l93 264h198zM218 583l102 194h194l-109 -194h-187z" />
    <glyph glyph-name="thorn" unicode="&#xfe;" horiz-adv-x="653" 
d="M252 71v-264h-193v929h196v-279q4 8 12.5 18t26 26.5t46.5 27t63 10.5q96 0 155 -72t59 -202t-59 -202.5t-155 -72.5q-105 0 -151 81zM253 265q0 -53 22 -82t61 -29t61 29t22 82q0 51 -22.5 80.5t-60.5 29.5t-60.5 -29.5t-22.5 -80.5z" />
    <glyph glyph-name="ydieresis" unicode="&#xff;" horiz-adv-x="596" 
d="M601 529l-259 -722h-198l71 191l-220 531h222l93 -264l93 264h198zM91 583v168h192v-168h-192zM339 583v168h192v-168h-192z" />
    <glyph glyph-name="Amacron" unicode="&#x100;" horiz-adv-x="777" 
d="M549 0l-35 100h-264l-35 -100h-205l261 710h233l263 -710h-218zM309 268h146l-73 210zM568 777h-370v144h370v-144z" />
    <glyph glyph-name="amacron" unicode="&#x101;" horiz-adv-x="643" 
d="M391 0v61q-7 -12 -19 -25t-45.5 -29.5t-73.5 -16.5q-96 0 -156.5 74t-60.5 201q0 126 61 200t157 74q41 0 73.5 -15.5t43.5 -28t17 -22.5v56h196v-529h-193zM390 265q0 53 -20.5 81.5t-56.5 28.5q-37 0 -58 -28.5t-21 -81.5q0 -54 21 -82.5t58 -28.5q36 0 56.5 28.5
t20.5 82.5zM483 599h-346v144h346v-144z" />
    <glyph glyph-name="Abreve" unicode="&#x102;" horiz-adv-x="777" 
d="M549 0l-35 100h-264l-35 -100h-205l261 710h233l263 -710h-218zM309 268h146l-73 210zM383 887q43 0 43 42v8h145v-11q0 -74 -47 -121.5t-141 -47.5t-141 47.5t-47 121.5v11h145v-8q0 -42 43 -42z" />
    <glyph glyph-name="abreve" unicode="&#x103;" horiz-adv-x="643" 
d="M391 0v61q-7 -12 -19 -25t-45.5 -29.5t-73.5 -16.5q-96 0 -156.5 74t-60.5 201q0 126 61 200t157 74q41 0 73.5 -15.5t43.5 -28t17 -22.5v56h196v-529h-193zM390 265q0 53 -20.5 81.5t-56.5 28.5q-37 0 -58 -28.5t-21 -81.5q0 -54 21 -82.5t58 -28.5q36 0 56.5 28.5
t20.5 82.5zM310 708q40 0 40 42v15h145v-18q0 -74 -46 -122t-139 -48t-139 48t-46 122v18h145v-15q0 -42 40 -42z" />
    <glyph glyph-name="Aogonek" unicode="&#x104;" horiz-adv-x="777" 
d="M549 0l-35 100h-264l-35 -100h-205l261 710h233l263 -710h-1q-5 -4 -12.5 -9.5t-12 -8.5t-10.5 -7.5t-9 -7.5t-6 -6.5t-4.5 -7t-1.5 -6.5q0 -18 22 -18h55v-122h-177q-55 0 -86.5 22.5t-31.5 63.5q0 50 57 107zM309 268h146l-73 210z" />
    <glyph glyph-name="aogonek" unicode="&#x105;" horiz-adv-x="643" 
d="M391 0v61q-7 -12 -19 -25t-45.5 -29.5t-73.5 -16.5q-96 0 -156.5 74t-60.5 201q0 126 61 200t157 74q41 0 73.5 -15.5t43.5 -28t17 -22.5v56h196v-529q-5 -4 -12.5 -9.5t-12 -8.5t-10.5 -7.5t-9 -7.5t-6 -6.5t-4.5 -7t-1.5 -6.5q0 -18 22 -18h55v-122h-177
q-55 0 -86.5 22.5t-31.5 63.5q0 22 13.5 43t27.5 33t40 31zM390 265q0 53 -20.5 81.5t-56.5 28.5q-37 0 -58 -28.5t-21 -81.5q0 -54 21 -82.5t58 -28.5q36 0 56.5 28.5t20.5 82.5z" />
    <glyph glyph-name="Cacute" unicode="&#x106;" horiz-adv-x="722" 
d="M381 -12q-150 0 -243.5 99t-93.5 268t92.5 268t244.5 99q75 0 135.5 -24.5t95 -63.5t53 -80.5t20.5 -81.5h-196q-27 67 -108 67q-59 0 -93 -51t-34 -133t34 -133t93 -51q81 0 108 66h196q-2 -28 -11.5 -58.5t-32.5 -65.5t-55.5 -62t-86 -45t-118.5 -18zM283 764l104 168
h206l-112 -168h-198z" />
    <glyph glyph-name="cacute" unicode="&#x107;" horiz-adv-x="574" 
d="M359 339q-5 10 -8.5 15.5t-17 13.5t-31.5 8q-35 0 -53 -30t-18 -81q0 -52 19 -82t52 -30q37 0 57 37h187q-2 -36 -17 -70.5t-43.5 -65.5t-77.5 -49.5t-112 -18.5q-116 0 -189 76t-73 203q0 126 73 202t187 76q118 0 183 -62.5t69 -141.5h-187zM201 583l102 194h194
l-109 -194h-187z" />
    <glyph glyph-name="Ccircumflex" unicode="&#x108;" horiz-adv-x="722" 
d="M381 -12q-150 0 -243.5 99t-93.5 268t92.5 268t244.5 99q75 0 135.5 -24.5t95 -63.5t53 -80.5t20.5 -81.5h-196q-27 67 -108 67q-59 0 -93 -51t-34 -133t34 -133t93 -51q81 0 108 66h196q-2 -28 -11.5 -58.5t-32.5 -65.5t-55.5 -62t-86 -45t-118.5 -18zM436 764l-55 69
l-55 -69h-174l133 171h192l130 -171h-171z" />
    <glyph glyph-name="ccircumflex" unicode="&#x109;" horiz-adv-x="574" 
d="M359 339q-5 10 -8.5 15.5t-17 13.5t-31.5 8q-35 0 -53 -30t-18 -81q0 -52 19 -82t52 -30q37 0 57 37h187q-2 -36 -17 -70.5t-43.5 -65.5t-77.5 -49.5t-112 -18.5q-116 0 -189 76t-73 203q0 126 73 202t187 76q118 0 183 -62.5t69 -141.5h-187zM344 583l-50 84l-51 -84
h-167l128 201h180l124 -201h-164z" />
    <glyph glyph-name="Cdotaccent" unicode="&#x10a;" horiz-adv-x="722" 
d="M381 -12q-150 0 -243.5 99t-93.5 268t92.5 268t244.5 99q75 0 135.5 -24.5t95 -63.5t53 -80.5t20.5 -81.5h-196q-27 67 -108 67q-59 0 -93 -51t-34 -133t34 -133t93 -51q81 0 108 66h196q-2 -28 -11.5 -58.5t-32.5 -65.5t-55.5 -62t-86 -45t-118.5 -18zM278 764v168h206
v-168h-206z" />
    <glyph glyph-name="cdotaccent" unicode="&#x10b;" horiz-adv-x="574" 
d="M359 339q-5 10 -8.5 15.5t-17 13.5t-31.5 8q-35 0 -53 -30t-18 -81q0 -52 19 -82t52 -30q37 0 57 37h187q-2 -36 -17 -70.5t-43.5 -65.5t-77.5 -49.5t-112 -18.5q-116 0 -189 76t-73 203q0 126 73 202t187 76q118 0 183 -62.5t69 -141.5h-187zM191 583v168h206v-168h-206
z" />
    <glyph glyph-name="Ccaron" unicode="&#x10c;" horiz-adv-x="722" 
d="M381 -12q-150 0 -243.5 99t-93.5 268t92.5 268t244.5 99q75 0 135.5 -24.5t95 -63.5t53 -80.5t20.5 -81.5h-196q-27 67 -108 67q-59 0 -93 -51t-34 -133t34 -133t93 -51q81 0 108 66h196q-2 -28 -11.5 -58.5t-32.5 -65.5t-55.5 -62t-86 -45t-118.5 -18zM616 935
l-140 -171h-190l-137 171h173l59 -71l59 71h176z" />
    <glyph glyph-name="ccaron" unicode="&#x10d;" horiz-adv-x="574" 
d="M359 339q-5 10 -8.5 15.5t-17 13.5t-31.5 8q-35 0 -53 -30t-18 -81q0 -52 19 -82t52 -30q37 0 57 37h187q-2 -36 -17 -70.5t-43.5 -65.5t-77.5 -49.5t-112 -18.5q-116 0 -189 76t-73 203q0 126 73 202t187 76q118 0 183 -62.5t69 -141.5h-187zM508 784l-124 -201h-180
l-128 201h167l51 -84l50 84h164z" />
    <glyph glyph-name="Dcaron" unicode="&#x10e;" horiz-adv-x="768" 
d="M75 0v710h269q177 0 278.5 -88.5t101.5 -266.5q0 -175 -102 -265t-278 -90h-269zM340 537h-60v-363h60q85 0 130.5 46.5t45.5 134.5q0 182 -176 182zM594 935l-140 -171h-190l-137 171h173l59 -71l59 71h176z" />
    <glyph glyph-name="dcaron" unicode="&#x10f;" horiz-adv-x="651" 
d="M401 0v61q-7 -11 -19 -24.5t-47.5 -30t-78.5 -16.5q-96 0 -158 74t-62 201q0 126 62.5 200t157.5 74q42 0 76.5 -16t46 -27.5t19.5 -22.5v263h194v-736h-191zM400 265q0 49 -22.5 79.5t-60.5 30.5t-60.5 -30.5t-22.5 -79.5q0 -51 22 -81t61 -30q38 0 60.5 30.5t22.5 80.5
zM624 583l51 194h169l-59 -194h-161z" />
    <glyph glyph-name="Dcroat" unicode="&#x110;" horiz-adv-x="796" 
d="M14 273v169h89v268h269q177 0 278.5 -88.5t101.5 -266.5q0 -175 -102 -265t-278 -90h-269v273h-89zM368 537h-60v-95h132v-169h-132v-99h60q85 0 130.5 46.5t45.5 134.5q0 182 -176 182z" />
    <glyph glyph-name="dcroat" unicode="&#x111;" horiz-adv-x="651" 
d="M401 0v61q-7 -11 -19 -24.5t-47.5 -30t-78.5 -16.5q-96 0 -158 74t-62 201q0 126 62.5 200t157.5 74q42 0 76.5 -16t46 -27.5t19.5 -22.5v95h-153v122h153v46h194v-46h60v-122h-60v-568h-191zM400 265q0 49 -22.5 79.5t-60.5 30.5t-60.5 -30.5t-22.5 -79.5q0 -51 22 -81
t61 -30q38 0 60.5 30.5t22.5 80.5z" />
    <glyph glyph-name="Emacron" unicode="&#x112;" horiz-adv-x="712" 
d="M75 0v710h572v-165h-367v-93h216v-169h-216v-109h400v-174h-605zM546 777h-370v144h370v-144z" />
    <glyph glyph-name="emacron" unicode="&#x113;" horiz-adv-x="605" 
d="M305 543q125 0 197 -75.5t72 -202.5v-35h-347q2 -43 26 -67.5t63 -24.5t60 27h195q-4 -67 -68.5 -123t-186.5 -56q-131 0 -206.5 76t-75.5 203q0 126 74 202t197 76zM305 406q-33 0 -53 -18.5t-24 -50.5h153q-11 69 -76 69zM478 599h-346v144h346v-144z" />
    <glyph glyph-name="Ebreve" unicode="&#x114;" horiz-adv-x="712" 
d="M75 0v710h572v-165h-367v-93h216v-169h-216v-109h400v-174h-605zM361 887q43 0 43 42v8h145v-11q0 -74 -47 -121.5t-141 -47.5t-141 47.5t-47 121.5v11h145v-8q0 -42 43 -42z" />
    <glyph glyph-name="ebreve" unicode="&#x115;" horiz-adv-x="605" 
d="M305 543q125 0 197 -75.5t72 -202.5v-35h-347q2 -43 26 -67.5t63 -24.5t60 27h195q-4 -67 -68.5 -123t-186.5 -56q-131 0 -206.5 76t-75.5 203q0 126 74 202t197 76zM305 406q-33 0 -53 -18.5t-24 -50.5h153q-11 69 -76 69zM305 708q40 0 40 42v15h145v-18
q0 -74 -46 -122t-139 -48t-139 48t-46 122v18h145v-15q0 -42 40 -42z" />
    <glyph glyph-name="Edotaccent" unicode="&#x116;" horiz-adv-x="712" 
d="M75 0v710h572v-165h-367v-93h216v-169h-216v-109h400v-174h-605zM259 764v168h206v-168h-206z" />
    <glyph glyph-name="edotaccent" unicode="&#x117;" horiz-adv-x="605" 
d="M305 543q125 0 197 -75.5t72 -202.5v-35h-347q2 -43 26 -67.5t63 -24.5t60 27h195q-4 -67 -68.5 -123t-186.5 -56q-131 0 -206.5 76t-75.5 203q0 126 74 202t197 76zM305 406q-33 0 -53 -18.5t-24 -50.5h153q-11 69 -76 69zM202 583v168h206v-168h-206z" />
    <glyph glyph-name="Eogonek" unicode="&#x118;" horiz-adv-x="712" 
d="M75 0v710h572v-165h-367v-93h216v-169h-216v-109h400v-174h-605zM605 -71v-122h-177q-55 0 -86.5 22.5t-31.5 63.5q0 31 20.5 55.5t55.5 51.5h198q-5 -4 -12.5 -9.5t-12 -8.5t-10.5 -7.5t-9 -7.5t-6 -6.5t-4.5 -7t-1.5 -6.5q0 -18 22 -18h55z" />
    <glyph glyph-name="eogonek" unicode="&#x119;" horiz-adv-x="605" 
d="M305 543q125 0 197 -75.5t72 -202.5v-35h-347q2 -43 26 -67.5t63 -24.5t60 27h195q-4 -62 -79 -142q-8 -9 -17.5 -18.5t-14.5 -15t-10.5 -11.5t-8 -9t-5 -7t-3 -7t-0.5 -6q0 -20 24 -20h55v-122h-173q-55 0 -86.5 21t-31.5 60q0 57 96 98h-1q-131 0 -206.5 76t-75.5 203
q0 126 74 202t197 76zM305 406q-33 0 -53 -18.5t-24 -50.5h153q-11 69 -76 69z" />
    <glyph glyph-name="Ecaron" unicode="&#x11a;" horiz-adv-x="712" 
d="M75 0v710h572v-165h-367v-93h216v-169h-216v-109h400v-174h-605zM596 935l-140 -171h-190l-137 171h173l59 -71l59 71h176z" />
    <glyph glyph-name="ecaron" unicode="&#x11b;" horiz-adv-x="605" 
d="M305 543q125 0 197 -75.5t72 -202.5v-35h-347q2 -43 26 -67.5t63 -24.5t60 27h195q-4 -67 -68.5 -123t-186.5 -56q-131 0 -206.5 76t-75.5 203q0 126 74 202t197 76zM305 406q-33 0 -53 -18.5t-24 -50.5h153q-11 69 -76 69zM519 784l-124 -201h-180l-128 201h167l51 -84
l50 84h164z" />
    <glyph glyph-name="Gcircumflex" unicode="&#x11c;" horiz-adv-x="777" 
d="M715 66q-22 -16 -53 -32t-96.5 -32t-138.5 -16q-177 0 -280 100t-103 274q0 164 98.5 265t255.5 101q77 0 138 -22t96 -56.5t54 -70t22 -69.5h-200q-35 46 -107 46q-67 0 -107 -51.5t-40 -142.5q0 -95 44.5 -149.5t128.5 -54.5q54 0 90 13v99h-157v160h355v-362zM453 764
l-55 69l-55 -69h-174l133 171h192l130 -171h-171z" />
    <glyph glyph-name="gcircumflex" unicode="&#x11d;" horiz-adv-x="645" 
d="M395 20v61q-8 -13 -19.5 -27.5t-46.5 -34t-77 -19.5q-93 0 -154.5 74.5t-61.5 195.5q0 123 61.5 196t155.5 73q86 0 139 -76v66h194v-507q0 -104 -68.5 -165t-204.5 -61q-66 0 -119.5 18t-84 46t-47.5 53.5t-22 47.5h218q18 -18 55 -18q38 0 60 20.5t22 56.5zM394 270
q0 49 -22 77t-58 28q-37 0 -58.5 -27.5t-21.5 -77.5q0 -51 21.5 -79t58.5 -28q36 0 58 28.5t22 78.5zM361 583l-50 84l-51 -84h-167l128 201h180l124 -201h-164z" />
    <glyph glyph-name="Gbreve" unicode="&#x11e;" horiz-adv-x="777" 
d="M715 66q-22 -16 -53 -32t-96.5 -32t-138.5 -16q-177 0 -280 100t-103 274q0 164 98.5 265t255.5 101q77 0 138 -22t96 -56.5t54 -70t22 -69.5h-200q-35 46 -107 46q-67 0 -107 -51.5t-40 -142.5q0 -95 44.5 -149.5t128.5 -54.5q54 0 90 13v99h-157v160h355v-362zM398 887
q43 0 43 42v8h145v-11q0 -74 -47 -121.5t-141 -47.5t-141 47.5t-47 121.5v11h145v-8q0 -42 43 -42z" />
    <glyph glyph-name="gbreve" unicode="&#x11f;" horiz-adv-x="645" 
d="M395 20v61q-8 -13 -19.5 -27.5t-46.5 -34t-77 -19.5q-93 0 -154.5 74.5t-61.5 195.5q0 123 61.5 196t155.5 73q86 0 139 -76v66h194v-507q0 -104 -68.5 -165t-204.5 -61q-66 0 -119.5 18t-84 46t-47.5 53.5t-22 47.5h218q18 -18 55 -18q38 0 60 20.5t22 56.5zM394 270
q0 49 -22 77t-58 28q-37 0 -58.5 -27.5t-21.5 -77.5q0 -51 21.5 -79t58.5 -28q36 0 58 28.5t22 78.5zM311 708q40 0 40 42v15h145v-18q0 -74 -46 -122t-139 -48t-139 48t-46 122v18h145v-15q0 -42 40 -42z" />
    <glyph glyph-name="Gdotaccent" unicode="&#x120;" horiz-adv-x="777" 
d="M715 66q-22 -16 -53 -32t-96.5 -32t-138.5 -16q-177 0 -280 100t-103 274q0 164 98.5 265t255.5 101q77 0 138 -22t96 -56.5t54 -70t22 -69.5h-200q-35 46 -107 46q-67 0 -107 -51.5t-40 -142.5q0 -95 44.5 -149.5t128.5 -54.5q54 0 90 13v99h-157v160h355v-362zM295 764
v168h206v-168h-206z" />
    <glyph glyph-name="gdotaccent" unicode="&#x121;" horiz-adv-x="645" 
d="M395 20v61q-8 -13 -19.5 -27.5t-46.5 -34t-77 -19.5q-93 0 -154.5 74.5t-61.5 195.5q0 123 61.5 196t155.5 73q86 0 139 -76v66h194v-507q0 -104 -68.5 -165t-204.5 -61q-66 0 -119.5 18t-84 46t-47.5 53.5t-22 47.5h218q18 -18 55 -18q38 0 60 20.5t22 56.5zM394 270
q0 49 -22 77t-58 28q-37 0 -58.5 -27.5t-21.5 -77.5q0 -51 21.5 -79t58.5 -28q36 0 58 28.5t22 78.5zM208 583v168h206v-168h-206z" />
    <glyph glyph-name="uni0122" unicode="&#x122;" horiz-adv-x="777" 
d="M715 66q-22 -16 -53 -32t-96.5 -32t-138.5 -16q-177 0 -280 100t-103 274q0 164 98.5 265t255.5 101q77 0 138 -22t96 -56.5t54 -70t22 -69.5h-200q-35 46 -107 46q-67 0 -107 -51.5t-40 -142.5q0 -95 44.5 -149.5t128.5 -54.5q54 0 90 13v99h-157v160h355v-362z
M491 -317h-123q36 66 49 112h-92v151h206v-107q0 -70 -40 -156z" />
    <glyph glyph-name="uni0123" unicode="&#x123;" horiz-adv-x="645" 
d="M395 20v61q-8 -13 -19.5 -27.5t-46.5 -34t-77 -19.5q-93 0 -154.5 74.5t-61.5 195.5q0 123 61.5 196t155.5 73q86 0 139 -76v66h194v-507q0 -104 -68.5 -165t-204.5 -61q-66 0 -119.5 18t-84 46t-47.5 53.5t-22 47.5h218q18 -18 55 -18q38 0 60 20.5t22 56.5zM394 270
q0 49 -22 77t-58 28q-37 0 -58.5 -27.5t-21.5 -77.5q0 -51 21.5 -79t58.5 -28q36 0 58 28.5t22 78.5zM248 846h123q-36 -66 -49 -112h92v-151h-206v107q0 70 40 156z" />
    <glyph glyph-name="Hcircumflex" unicode="&#x124;" horiz-adv-x="812" 
d="M532 0v266h-252v-266h-205v710h205v-266h252v266h205v-710h-205zM461 764l-55 69l-55 -69h-174l133 171h192l130 -171h-171z" />
    <glyph glyph-name="hcircumflex" unicode="&#x125;" horiz-adv-x="651" 
d="M255 293v-293h-196v736h196v-265q18 27 56 48.5t92 21.5q87 0 139.5 -58.5t52.5 -153.5v-329h-196v293q0 35 -19 56t-53 21q-35 0 -53.5 -20.5t-18.5 -56.5zM382 790l-55 69l-55 -69h-174l133 171h192l130 -171h-171z" />
    <glyph glyph-name="Hbar" unicode="&#x126;" horiz-adv-x="812" 
d="M532 0v266h-252v-266h-205v516h-70v127h70v67h205v-67h252v67h205v-67h70v-127h-70v-516h-205zM280 444h252v72h-252v-72z" />
    <glyph glyph-name="hbar" unicode="&#x127;" horiz-adv-x="651" 
d="M255 293v-293h-196v568h-60v122h60v46h196v-46h151v-122h-151v-97q18 27 56 48.5t92 21.5q87 0 139.5 -58.5t52.5 -153.5v-329h-196v293q0 35 -19 56t-53 21q-35 0 -53.5 -20.5t-18.5 -56.5z" />
    <glyph glyph-name="Itilde" unicode="&#x128;" horiz-adv-x="359" 
d="M77 0v710h205v-710h-205zM189 790l-33 15q-18 8 -25 8q-14 0 -14 -18v-33h-131v98q0 46 24.5 72t71.5 26q34 0 87 -24l32 -15q18 -8 27 -8q13 0 13 19v33h131v-98q0 -46 -25 -72t-71 -26q-38 0 -87 23z" />
    <glyph glyph-name="itilde" unicode="&#x129;" horiz-adv-x="316" 
d="M106 579h-126v98q0 46 23.5 72t67.5 26q35 0 78 -24l25 -14q14 -8 23 -8q13 0 13 19v32h127v-98q0 -46 -24 -72t-68 -26q-35 0 -78 24l-25 14q-16 8 -22 8q-14 0 -14 -19v-32zM59 0v529h198v-529h-198z" />
    <glyph glyph-name="Imacron" unicode="&#x12a;" horiz-adv-x="359" 
d="M77 0v710h205v-710h-205zM364 777h-370v144h370v-144z" />
    <glyph glyph-name="imacron" unicode="&#x12b;" horiz-adv-x="316" 
d="M321 599h-326v144h326v-144zM59 0v529h198v-529h-198z" />
    <glyph glyph-name="Ibreve" unicode="&#x12c;" horiz-adv-x="359" 
d="M77 0v710h205v-710h-205zM179 887q43 0 43 42v8h145v-11q0 -74 -47 -121.5t-141 -47.5t-141 47.5t-47 121.5v11h145v-8q0 -42 43 -42z" />
    <glyph glyph-name="ibreve" unicode="&#x12d;" horiz-adv-x="316" 
d="M158 708q39 0 39 42v15h145v-18q0 -74 -46 -122t-138 -48t-138 48t-46 122v18h145v-15q0 -42 39 -42zM59 0v529h198v-529h-198z" />
    <glyph glyph-name="Iogonek" unicode="&#x12e;" horiz-adv-x="359" 
d="M77 0v710h205v-710q-5 -4 -12.5 -9.5t-12 -8.5t-10.5 -7.5t-9 -7.5t-6 -6.5t-4.5 -7t-1.5 -6.5q0 -18 22 -18h55v-122h-177q-55 0 -86.5 22.5t-31.5 63.5q0 51 69 107z" />
    <glyph glyph-name="iogonek" unicode="&#x12f;" horiz-adv-x="316" 
d="M55 583v168h206v-168h-206zM59 0v529h198v-529h-198zM278 -71v-122h-177q-55 0 -86.5 22.5t-31.5 63.5q0 31 20.5 55.5t55.5 51.5h198q-5 -4 -12.5 -9.5t-12 -8.5t-10.5 -7.5t-9 -7.5t-6 -6.5t-4.5 -7t-1.5 -6.5q0 -18 22 -18h55z" />
    <glyph glyph-name="Idotaccent" unicode="&#x130;" horiz-adv-x="359" 
d="M77 0v710h205v-710h-205zM76 764v168h206v-168h-206z" />
    <glyph glyph-name="dotlessi" unicode="&#x131;" horiz-adv-x="316" 
d="M59 0v529h198v-529h-198z" />
    <glyph glyph-name="IJ" unicode="&#x132;" horiz-adv-x="1035" 
d="M77 0v710h205v-710h-205zM963 228q0 -111 -73 -177.5t-205 -66.5q-133 0 -199.5 65.5t-66.5 178.5v206h193v-186q0 -84 73 -84q35 0 53.5 23.5t18.5 60.5v462h206v-482z" />
    <glyph glyph-name="ij" unicode="&#x133;" horiz-adv-x="633" 
d="M55 583v168h206v-168h-206zM59 0v529h198v-529h-198zM372 583v168h206v-168h-206zM574 529v-550q0 -93 -39.5 -132.5t-122.5 -39.5h-201v144h105q35 0 47.5 12t12.5 43v523h198z" />
    <glyph glyph-name="Jcircumflex" unicode="&#x134;" horiz-adv-x="676" 
d="M604 228q0 -111 -73 -177.5t-205 -66.5q-133 0 -199.5 65.5t-66.5 178.5v206h193v-186q0 -84 73 -84q35 0 53.5 23.5t18.5 60.5v462h206v-482zM555 764l-55 69l-55 -69h-174l133 171h192l130 -171h-171z" />
    <glyph glyph-name="jcircumflex" unicode="&#x135;" horiz-adv-x="317" 
d="M205 583l-47 83l-48 -83h-167l123 201h184l119 -201h-164zM258 -21q0 -93 -39.5 -132.5t-122.5 -39.5h-201v144h105q35 0 47.5 12t12.5 43v523h198v-550z" />
    <glyph glyph-name="uni0136" unicode="&#x136;" horiz-adv-x="772" 
d="M505 0l-225 298v-298h-205v710h205v-286l230 286h247l-269 -332l284 -378h-267zM455 -317h-123q36 66 49 112h-92v151h206v-107q0 -70 -40 -156z" />
    <glyph glyph-name="uni0137" unicode="&#x137;" horiz-adv-x="635" 
d="M408 0l-151 224v-224h-198v736h198v-403l141 196h228l-174 -241l199 -288h-243zM395 -317h-123q36 66 49 112h-92v151h206v-107q0 -70 -40 -156z" />
    <glyph glyph-name="Lacute" unicode="&#x139;" horiz-adv-x="667" 
d="M635 184v-184h-560v710h205v-526h355zM81 764l104 168h206l-112 -168h-198z" />
    <glyph glyph-name="lacute" unicode="&#x13a;" horiz-adv-x="320" 
d="M61 0v736h198v-736h-198zM62 790l104 168h206l-112 -168h-198z" />
    <glyph glyph-name="uni013B" unicode="&#x13b;" horiz-adv-x="667" 
d="M635 184v-184h-560v710h205v-526h355zM423 -317h-123q36 66 49 112h-92v151h206v-107q0 -70 -40 -156z" />
    <glyph glyph-name="uni013C" unicode="&#x13c;" horiz-adv-x="320" 
d="M61 0v736h198v-736h-198zM228 -317h-123q36 66 49 112h-92v151h206v-107q0 -70 -40 -156z" />
    <glyph glyph-name="Lcaron" unicode="&#x13d;" horiz-adv-x="667" 
d="M635 184v-184h-560v710h205v-526h355zM315 583l51 194h169l-59 -194h-161z" />
    <glyph glyph-name="lcaron" unicode="&#x13e;" horiz-adv-x="324" 
d="M61 0v736h198v-736h-198zM291 583l51 194h169l-59 -194h-161z" />
    <glyph glyph-name="Ldot" unicode="&#x13f;" horiz-adv-x="667" 
d="M635 184v-184h-560v710h205v-526h355zM401 307v222h222v-222h-222z" />
    <glyph glyph-name="ldot" unicode="&#x140;" horiz-adv-x="592" 
d="M61 0v736h198v-736h-198zM345 247v222h222v-222h-222z" />
    <glyph glyph-name="Lslash" unicode="&#x141;" horiz-adv-x="686" 
d="M654 184v-184h-560v190l-81 -36v162l81 36v358h205v-265l212 96v-167l-212 -94v-96h355z" />
    <glyph glyph-name="lslash" unicode="&#x142;" horiz-adv-x="394" 
d="M16 248v157l80 30v301h198v-225l84 33v-160l-84 -32v-352h-198v278z" />
    <glyph glyph-name="Nacute" unicode="&#x143;" horiz-adv-x="811" 
d="M736 710v-713h-171l-289 418v-415h-201v710h228l237 -355v355h196zM317 764l104 168h206l-112 -168h-198z" />
    <glyph glyph-name="nacute" unicode="&#x144;" horiz-adv-x="651" 
d="M255 293v-293h-196v529h196v-58q18 27 56 48.5t92 21.5q87 0 139.5 -58.5t52.5 -153.5v-329h-196v293q0 35 -19 56t-53 21q-35 0 -53.5 -20.5t-18.5 -56.5zM224 583l102 194h194l-109 -194h-187z" />
    <glyph glyph-name="uni0145" unicode="&#x145;" horiz-adv-x="811" 
d="M736 710v-713h-171l-289 418v-415h-201v710h228l237 -355v355h196zM483 -317h-123q36 66 49 112h-92v151h206v-107q0 -70 -40 -156z" />
    <glyph glyph-name="uni0146" unicode="&#x146;" horiz-adv-x="651" 
d="M255 293v-293h-196v529h196v-58q18 27 56 48.5t92 21.5q87 0 139.5 -58.5t52.5 -153.5v-329h-196v293q0 35 -19 56t-53 21q-35 0 -53.5 -20.5t-18.5 -56.5zM395 -317h-123q36 66 49 112h-92v151h206v-107q0 -70 -40 -156z" />
    <glyph glyph-name="Ncaron" unicode="&#x147;" horiz-adv-x="811" 
d="M736 710v-713h-171l-289 418v-415h-201v710h228l237 -355v355h196zM649 935l-140 -171h-190l-137 171h173l59 -71l59 71h176z" />
    <glyph glyph-name="ncaron" unicode="&#x148;" horiz-adv-x="651" 
d="M255 293v-293h-196v529h196v-58q18 27 56 48.5t92 21.5q87 0 139.5 -58.5t52.5 -153.5v-329h-196v293q0 35 -19 56t-53 21q-35 0 -53.5 -20.5t-18.5 -56.5zM530 784l-124 -201h-180l-128 201h167l51 -84l50 84h164z" />
    <glyph glyph-name="napostrophe" unicode="&#x149;" horiz-adv-x="934" 
d="M538 293v-293h-196v529h196v-58q18 27 56 48.5t92 21.5q87 0 139.5 -58.5t52.5 -153.5v-329h-196v293q0 35 -19 56t-53 21q-35 0 -53.5 -20.5t-18.5 -56.5zM200 352h-131q62 98 72 182h-102v202h217v-172q0 -116 -56 -212z" />
    <glyph glyph-name="Eng" unicode="&#x14a;" horiz-adv-x="811" 
d="M736 -21q0 -93 -39.5 -132.5t-122.5 -39.5h-182v144h98q61 0 61 45q0 21 -35 72l-240 347v-415h-201v710h228l237 -355v355h196v-731z" />
    <glyph glyph-name="eng" unicode="&#x14b;" horiz-adv-x="651" 
d="M595 -21q0 -93 -39 -132.5t-121 -39.5h-160v144h64q35 0 47.5 12t12.5 43v287q0 35 -19 56t-53 21q-35 0 -53.5 -20.5t-18.5 -56.5v-293h-196v529h196v-58q18 27 56 48.5t92 21.5q87 0 139.5 -58.5t52.5 -153.5v-350z" />
    <glyph glyph-name="Omacron" unicode="&#x14c;" horiz-adv-x="784" 
d="M392 -12q-151 0 -249.5 98t-98.5 269q0 172 98.5 269.5t249.5 97.5t249.5 -97.5t98.5 -269.5q0 -170 -99 -268.5t-249 -98.5zM392 170q66 0 103 51t37 134t-37 134t-103 51q-65 0 -102.5 -51.5t-37.5 -133.5q0 -83 37 -134t103 -51zM577 777h-370v144h370v-144z" />
    <glyph glyph-name="omacron" unicode="&#x14d;" horiz-adv-x="626" 
d="M312 543q124 0 202 -75t78 -203q0 -127 -78 -203t-201 -76t-201 76t-78 203t78 202.5t200 75.5zM313 150q41 0 62 31t21 84q0 52 -21 83t-62 31t-62 -31t-21 -83q0 -53 21 -84t62 -31zM486 599h-346v144h346v-144z" />
    <glyph glyph-name="Obreve" unicode="&#x14e;" horiz-adv-x="784" 
d="M392 -12q-151 0 -249.5 98t-98.5 269q0 172 98.5 269.5t249.5 97.5t249.5 -97.5t98.5 -269.5q0 -170 -99 -268.5t-249 -98.5zM392 170q66 0 103 51t37 134t-37 134t-103 51q-65 0 -102.5 -51.5t-37.5 -133.5q0 -83 37 -134t103 -51zM392 887q43 0 43 42v8h145v-11
q0 -74 -47 -121.5t-141 -47.5t-141 47.5t-47 121.5v11h145v-8q0 -42 43 -42z" />
    <glyph glyph-name="obreve" unicode="&#x14f;" horiz-adv-x="626" 
d="M312 543q124 0 202 -75t78 -203q0 -127 -78 -203t-201 -76t-201 76t-78 203t78 202.5t200 75.5zM313 150q41 0 62 31t21 84q0 52 -21 83t-62 31t-62 -31t-21 -83q0 -53 21 -84t62 -31zM313 708q40 0 40 42v15h145v-18q0 -74 -46 -122t-139 -48t-139 48t-46 122v18h145
v-15q0 -42 40 -42z" />
    <glyph glyph-name="Ohungarumlaut" unicode="&#x150;" horiz-adv-x="784" 
d="M392 -12q-151 0 -249.5 98t-98.5 269q0 172 98.5 269.5t249.5 97.5t249.5 -97.5t98.5 -269.5q0 -170 -99 -268.5t-249 -98.5zM392 170q66 0 103 51t37 134t-37 134t-103 51q-65 0 -102.5 -51.5t-37.5 -133.5q0 -83 37 -134t103 -51zM424 764l76 168h185l-83 -168h-178z
M185 764l71 168h186l-78 -168h-179z" />
    <glyph glyph-name="ohungarumlaut" unicode="&#x151;" horiz-adv-x="626" 
d="M312 543q124 0 202 -75t78 -203q0 -127 -78 -203t-201 -76t-201 76t-78 203t78 202.5t200 75.5zM313 150q41 0 62 31t21 84q0 52 -21 83t-62 31t-62 -31t-21 -83q0 -53 21 -84t62 -31zM351 583l68 194h159l-71 -194h-156zM139 583l68 194h159l-71 -194h-156z" />
    <glyph glyph-name="OE" unicode="&#x152;" horiz-adv-x="1062" 
d="M44 355q0 169 106 262t282 93h565v-165h-327v-93h199v-169h-199v-109h360v-174h-598q-177 0 -282.5 92t-105.5 263zM436 174h29v363h-29q-87 0 -135.5 -49t-48.5 -133t48.5 -132.5t135.5 -48.5z" />
    <glyph glyph-name="oe" unicode="&#x153;" horiz-adv-x="960" 
d="M665 543q122 0 193 -75.5t71 -202.5v-43h-342q4 -39 26.5 -61.5t59.5 -22.5q35 0 55 23h198q-3 -29 -18.5 -57.5t-44 -56t-78 -44.5t-112.5 -17q-119 0 -186 77q-60 -77 -179 -77q-120 0 -197 76t-77 203q0 128 76.5 203t197.5 75q122 0 180 -76q27 34 74.5 55t102.5 21z
M662 406q-33 0 -52.5 -19.5t-22.5 -53.5h149q-3 35 -22.5 54t-51.5 19zM311 150q40 0 60.5 31t20.5 84q0 52 -20.5 83t-60.5 31q-39 0 -60 -31t-21 -83t21 -83.5t60 -31.5z" />
    <glyph glyph-name="Racute" unicode="&#x154;" horiz-adv-x="783" 
d="M75 0v710h385q123 0 190.5 -59t67.5 -174q0 -144 -115 -199l160 -278h-220l-141 249h-123v-249h-204zM435 537h-156v-120h156q35 0 54 16t19 44q0 60 -73 60zM276 764l104 168h206l-112 -168h-198z" />
    <glyph glyph-name="racute" unicode="&#x155;" horiz-adv-x="509" 
d="M255 245v-245h-196v529h196v-69q35 69 140 69h87v-194h-127q-54 0 -77 -21t-23 -69zM177 583l102 194h194l-109 -194h-187z" />
    <glyph glyph-name="uni0156" unicode="&#x156;" horiz-adv-x="783" 
d="M75 0v710h385q123 0 190.5 -59t67.5 -174q0 -144 -115 -199l160 -278h-220l-141 249h-123v-249h-204zM435 537h-156v-120h156q35 0 54 16t19 44q0 60 -73 60zM469 -317h-123q36 66 49 112h-92v151h206v-107q0 -70 -40 -156z" />
    <glyph glyph-name="uni0157" unicode="&#x157;" horiz-adv-x="509" 
d="M255 245v-245h-196v529h196v-69q35 69 140 69h87v-194h-127q-54 0 -77 -21t-23 -69zM221 -317h-123q36 66 49 112h-92v151h206v-107q0 -70 -40 -156z" />
    <glyph glyph-name="Rcaron" unicode="&#x158;" horiz-adv-x="783" 
d="M75 0v710h385q123 0 190.5 -59t67.5 -174q0 -144 -115 -199l160 -278h-220l-141 249h-123v-249h-204zM435 537h-156v-120h156q35 0 54 16t19 44q0 60 -73 60zM609 935l-140 -171h-190l-137 171h173l59 -71l59 71h176z" />
    <glyph glyph-name="rcaron" unicode="&#x159;" horiz-adv-x="509" 
d="M255 245v-245h-196v529h196v-69q35 69 140 69h87v-194h-127q-54 0 -77 -21t-23 -69zM484 784l-124 -201h-180l-128 201h167l51 -84l50 84h164z" />
    <glyph glyph-name="Sacute" unicode="&#x15a;" horiz-adv-x="711" 
d="M332 563q-36 0 -57 -12.5t-21 -33.5q0 -41 73 -50l60 -7q143 -17 212 -70t69 -166q0 -109 -79 -173t-224 -64q-84 0 -149 21.5t-103 56.5t-58.5 71t-28.5 74h219q10 -23 40.5 -41.5t79.5 -18.5q90 0 90 56q0 28 -19 40.5t-60 18.5l-61 8q-134 16 -202.5 72t-68.5 161
q0 103 78.5 160.5t209.5 57.5q81 0 142 -19t96 -51.5t53.5 -64t27.5 -67.5h-210q-28 41 -109 41zM249 764l104 168h206l-112 -168h-198z" />
    <glyph glyph-name="sacute" unicode="&#x15b;" horiz-adv-x="574" 
d="M309 186l-56 5q-222 20 -222 177q0 84 65.5 129.5t178.5 45.5q70 0 121.5 -15.5t78.5 -40.5t40 -49t16 -50h-194q-16 23 -59 23q-52 0 -52 -32q0 -27 41 -30l46 -3q122 -7 177.5 -49.5t55.5 -130.5q0 -87 -64.5 -133.5t-192.5 -46.5q-71 0 -124.5 16.5t-82 43t-43 52
t-17.5 51.5h200q5 -10 21.5 -19.5t45.5 -9.5q61 0 61 32q0 15 -9 23.5t-32 10.5zM182 583l102 194h194l-109 -194h-187z" />
    <glyph glyph-name="Scircumflex" unicode="&#x15c;" horiz-adv-x="711" 
d="M332 563q-36 0 -57 -12.5t-21 -33.5q0 -41 73 -50l60 -7q143 -17 212 -70t69 -166q0 -109 -79 -173t-224 -64q-84 0 -149 21.5t-103 56.5t-58.5 71t-28.5 74h219q10 -23 40.5 -41.5t79.5 -18.5q90 0 90 56q0 28 -19 40.5t-60 18.5l-61 8q-134 16 -202.5 72t-68.5 161
q0 103 78.5 160.5t209.5 57.5q81 0 142 -19t96 -51.5t53.5 -64t27.5 -67.5h-210q-28 41 -109 41zM402 764l-55 69l-55 -69h-174l133 171h192l130 -171h-171z" />
    <glyph glyph-name="scircumflex" unicode="&#x15d;" horiz-adv-x="574" 
d="M309 186l-56 5q-222 20 -222 177q0 84 65.5 129.5t178.5 45.5q70 0 121.5 -15.5t78.5 -40.5t40 -49t16 -50h-194q-16 23 -59 23q-52 0 -52 -32q0 -27 41 -30l46 -3q122 -7 177.5 -49.5t55.5 -130.5q0 -87 -64.5 -133.5t-192.5 -46.5q-71 0 -124.5 16.5t-82 43t-43 52
t-17.5 51.5h200q5 -10 21.5 -19.5t45.5 -9.5q61 0 61 32q0 15 -9 23.5t-32 10.5zM334 583l-50 84l-51 -84h-167l128 201h180l124 -201h-164z" />
    <glyph glyph-name="uni015E" unicode="&#x15e;" horiz-adv-x="711" 
d="M332 563q-36 0 -57 -12.5t-21 -33.5q0 -41 73 -50l60 -7q143 -17 212 -70t69 -166q0 -109 -79 -173t-224 -64q-84 0 -149 21.5t-103 56.5t-58.5 71t-28.5 74h219q10 -23 40.5 -41.5t79.5 -18.5q90 0 90 56q0 28 -19 40.5t-60 18.5l-61 8q-134 16 -202.5 72t-68.5 161
q0 103 78.5 160.5t209.5 57.5q81 0 142 -19t96 -51.5t53.5 -64t27.5 -67.5h-210q-28 41 -109 41zM512 -164q0 -64 -35 -98.5t-103 -34.5h-138v116h107q27 0 27 24q0 22 -27 22h-86v135h132v-37q58 -1 90.5 -34t32.5 -93z" />
    <glyph glyph-name="uni015F" unicode="&#x15f;" horiz-adv-x="574" 
d="M309 186l-56 5q-222 20 -222 177q0 84 65.5 129.5t178.5 45.5q70 0 121.5 -15.5t78.5 -40.5t40 -49t16 -50h-194q-16 23 -59 23q-52 0 -52 -32q0 -27 41 -30l46 -3q122 -7 177.5 -49.5t55.5 -130.5q0 -87 -64 -133q-53 -40 -155 -46v-24q58 -1 90.5 -34t32.5 -93
q0 -64 -35 -98.5t-103 -34.5h-138v116h107q27 0 27 24q0 22 -27 22h-86v130q-15 3 -31 8q-69 23 -103 63.5t-39 82.5h200q5 -10 21.5 -19.5t45.5 -9.5q61 0 61 32q0 15 -9 23.5t-32 10.5z" />
    <glyph glyph-name="Scaron" unicode="&#x160;" horiz-adv-x="711" 
d="M332 563q-36 0 -57 -12.5t-21 -33.5q0 -41 73 -50l60 -7q143 -17 212 -70t69 -166q0 -109 -79 -173t-224 -64q-84 0 -149 21.5t-103 56.5t-58.5 71t-28.5 74h219q10 -23 40.5 -41.5t79.5 -18.5q90 0 90 56q0 28 -19 40.5t-60 18.5l-61 8q-134 16 -202.5 72t-68.5 161
q0 103 78.5 160.5t209.5 57.5q81 0 142 -19t96 -51.5t53.5 -64t27.5 -67.5h-210q-28 41 -109 41zM582 935l-140 -171h-190l-137 171h173l59 -71l59 71h176z" />
    <glyph glyph-name="scaron" unicode="&#x161;" horiz-adv-x="574" 
d="M309 186l-56 5q-222 20 -222 177q0 84 65.5 129.5t178.5 45.5q70 0 121.5 -15.5t78.5 -40.5t40 -49t16 -50h-194q-16 23 -59 23q-52 0 -52 -32q0 -27 41 -30l46 -3q122 -7 177.5 -49.5t55.5 -130.5q0 -87 -64.5 -133.5t-192.5 -46.5q-71 0 -124.5 16.5t-82 43t-43 52
t-17.5 51.5h200q5 -10 21.5 -19.5t45.5 -9.5q61 0 61 32q0 15 -9 23.5t-32 10.5zM490 784l-124 -201h-180l-128 201h167l51 -84l50 84h164z" />
    <glyph glyph-name="Tcommaaccent" unicode="&#x162;" horiz-adv-x="726" 
d="M32 534v176h662v-176h-229v-534h-204v534h-229zM431 -317h-123q36 66 49 112h-92v151h206v-107q0 -70 -40 -156z" />
    <glyph glyph-name="tcommaaccent" unicode="&#x163;" horiz-adv-x="525" 
d="M484 172v-172h-164q-179 0 -179 165v204h-118v160h118v181h196v-181h147v-160h-147v-130q0 -36 14.5 -51.5t53.5 -15.5h79zM360 -317h-123q36 66 49 112h-92v151h206v-107q0 -70 -40 -156z" />
    <glyph glyph-name="Tcaron" unicode="&#x164;" horiz-adv-x="726" 
d="M32 534v176h662v-176h-229v-534h-204v534h-229zM598 935l-140 -171h-190l-137 171h173l59 -71l59 71h176z" />
    <glyph glyph-name="tcaron" unicode="&#x165;" horiz-adv-x="525" 
d="M484 172v-172h-164q-179 0 -179 165v204h-118v160h118v181h196v-181h147v-160h-147v-130q0 -36 14.5 -51.5t53.5 -15.5h79zM369 583l51 194h169l-59 -194h-161z" />
    <glyph glyph-name="Tbar" unicode="&#x166;" horiz-adv-x="726" 
d="M109 266v154h152v114h-229v176h662v-176h-229v-114h152v-154h-152v-266h-204v266h-152z" />
    <glyph glyph-name="tbar" unicode="&#x167;" horiz-adv-x="545" 
d="M494 172v-172h-164q-179 0 -179 165v62h-118v109h118v45h-118v148h118v181h196v-181h147v-148h-147v-45h147v-109h-147q0 -29 12 -42t42 -13h93z" />
    <glyph glyph-name="Utilde" unicode="&#x168;" horiz-adv-x="795" 
d="M399 168q58 0 90.5 36.5t32.5 97.5v408h203v-421q0 -135 -85.5 -220.5t-240.5 -85.5q-159 0 -244 85.5t-85 220.5v421h206v-408q0 -61 32 -97.5t91 -36.5zM409 790l-33 15q-18 8 -25 8q-14 0 -14 -18v-33h-131v98q0 46 24.5 72t71.5 26q34 0 87 -24l32 -15q18 -8 27 -8
q13 0 13 19v33h131v-98q0 -46 -25 -72t-71 -26q-38 0 -87 23z" />
    <glyph glyph-name="utilde" unicode="&#x169;" horiz-adv-x="642" 
d="M323 -12q-131 0 -199 66.5t-68 178.5v296h196v-286q0 -34 17.5 -54t50.5 -20q34 0 52 20t18 54v286h196v-296q0 -112 -67.5 -178.5t-195.5 -66.5zM264 579h-127v98q0 46 23.5 72t67.5 26q35 0 81 -24l29 -14q16 -8 24 -8q14 0 14 19v32h128v-98q0 -46 -24 -72t-68 -26
q-35 0 -81 24l-29 14q-18 8 -24 8q-14 0 -14 -19v-32z" />
    <glyph glyph-name="Umacron" unicode="&#x16a;" horiz-adv-x="795" 
d="M399 168q58 0 90.5 36.5t32.5 97.5v408h203v-421q0 -135 -85.5 -220.5t-240.5 -85.5q-159 0 -244 85.5t-85 220.5v421h206v-408q0 -61 32 -97.5t91 -36.5zM584 777h-370v144h370v-144z" />
    <glyph glyph-name="umacron" unicode="&#x16b;" horiz-adv-x="642" 
d="M323 -12q-131 0 -199 66.5t-68 178.5v296h196v-286q0 -34 17.5 -54t50.5 -20q34 0 52 20t18 54v286h196v-296q0 -112 -67.5 -178.5t-195.5 -66.5zM493 599h-346v144h346v-144z" />
    <glyph glyph-name="Ubreve" unicode="&#x16c;" horiz-adv-x="795" 
d="M399 168q58 0 90.5 36.5t32.5 97.5v408h203v-421q0 -135 -85.5 -220.5t-240.5 -85.5q-159 0 -244 85.5t-85 220.5v421h206v-408q0 -61 32 -97.5t91 -36.5zM399 887q43 0 43 42v8h145v-11q0 -74 -47 -121.5t-141 -47.5t-141 47.5t-47 121.5v11h145v-8q0 -42 43 -42z" />
    <glyph glyph-name="ubreve" unicode="&#x16d;" horiz-adv-x="642" 
d="M323 -12q-131 0 -199 66.5t-68 178.5v296h196v-286q0 -34 17.5 -54t50.5 -20q34 0 52 20t18 54v286h196v-296q0 -112 -67.5 -178.5t-195.5 -66.5zM320 708q40 0 40 42v15h145v-18q0 -74 -46 -122t-139 -48t-139 48t-46 122v18h145v-15q0 -42 40 -42z" />
    <glyph glyph-name="Uring" unicode="&#x16e;" horiz-adv-x="795" 
d="M399 168q58 0 90.5 36.5t32.5 97.5v408h203v-421q0 -135 -85.5 -220.5t-240.5 -85.5q-159 0 -244 85.5t-85 220.5v421h206v-408q0 -61 32 -97.5t91 -36.5zM399 754q-64 0 -105 40.5t-41 102.5q0 63 41 103t105 40q66 0 106.5 -40t40.5 -103q0 -62 -41.5 -102.5
t-105.5 -40.5zM399 844q23 0 37.5 15t14.5 38q0 24 -14.5 38.5t-37.5 14.5t-37.5 -14.5t-14.5 -38.5q0 -23 14.5 -38t37.5 -15z" />
    <glyph glyph-name="uring" unicode="&#x16f;" horiz-adv-x="642" 
d="M323 -12q-131 0 -199 66.5t-68 178.5v296h196v-286q0 -34 17.5 -54t50.5 -20q34 0 52 20t18 54v286h196v-296q0 -112 -67.5 -178.5t-195.5 -66.5zM320 574q-63 0 -104 40.5t-41 101.5q0 62 40.5 102t104.5 40t105 -40t41 -102q0 -60 -41.5 -101t-104.5 -41zM320 664
q22 0 36.5 14.5t14.5 37.5t-14 37.5t-37 14.5t-37 -14.5t-14 -37.5t14.5 -37.5t36.5 -14.5z" />
    <glyph glyph-name="Uhungarumlaut" unicode="&#x170;" horiz-adv-x="795" 
d="M399 168q58 0 90.5 36.5t32.5 97.5v408h203v-421q0 -135 -85.5 -220.5t-240.5 -85.5q-159 0 -244 85.5t-85 220.5v421h206v-408q0 -61 32 -97.5t91 -36.5zM431 764l76 168h185l-83 -168h-178zM192 764l71 168h186l-78 -168h-179z" />
    <glyph glyph-name="uhungarumlaut" unicode="&#x171;" horiz-adv-x="642" 
d="M323 -12q-131 0 -199 66.5t-68 178.5v296h196v-286q0 -34 17.5 -54t50.5 -20q34 0 52 20t18 54v286h196v-296q0 -112 -67.5 -178.5t-195.5 -66.5zM344 583l68 194h159l-71 -194h-156zM132 583l68 194h159l-71 -194h-156z" />
    <glyph glyph-name="Uogonek" unicode="&#x172;" horiz-adv-x="795" 
d="M619 -71v-122h-177q-54 0 -86 22t-32 60q0 31 22 53t71 41h-18q-159 0 -244 85.5t-85 220.5v421h206v-408q0 -61 32 -97.5t91 -36.5q58 0 90.5 36.5t32.5 97.5v408h203v-421q0 -84 -30 -144.5t-88 -118.5l-14 -14l-12.5 -12.5l-10.5 -10.5l-9 -9t-6.5 -7.5t-5.5 -7.5
t-4 -6.5t-2.5 -6t-0.5 -5.5q0 -18 22 -18h55z" />
    <glyph glyph-name="uogonek" unicode="&#x173;" horiz-adv-x="642" 
d="M530 -71v-122h-177q-55 0 -86.5 21.5t-31.5 60.5q0 31 24 54t73 45h-9q-131 0 -199 66.5t-68 178.5v296h196v-286q0 -34 17.5 -54t50.5 -20q34 0 52 20t18 54v286h196v-296q0 -49 -14.5 -91t-29 -64t-43.5 -57q-46 -57 -46 -73q0 -19 22 -19h55z" />
    <glyph glyph-name="Wcircumflex" unicode="&#x174;" horiz-adv-x="1034" 
d="M627 0l-112 399l-114 -399h-186l-201 710h216l98 -389l105 389h186l106 -395l100 395h195l-195 -710h-198zM570 764l-55 69l-55 -69h-174l133 171h192l130 -171h-171z" />
    <glyph glyph-name="wcircumflex" unicode="&#x175;" horiz-adv-x="863" 
d="M505 0l-71 280l-71 -280h-192l-171 529h210l71 -269l71 269h184l71 -269l71 269h185l-157 -529h-201zM487 583l-50 84l-51 -84h-167l128 201h180l124 -201h-164z" />
    <glyph glyph-name="Ycircumflex" unicode="&#x176;" horiz-adv-x="741" 
d="M486 285v-285h-218v291l-273 419h257l133 -211l133 211h228zM440 764l-55 69l-55 -69h-174l133 171h192l130 -171h-171z" />
    <glyph glyph-name="ycircumflex" unicode="&#x177;" horiz-adv-x="596" 
d="M601 529l-259 -722h-198l71 191l-220 531h222l93 -264l93 264h198zM361 583l-50 84l-51 -84h-167l128 201h180l124 -201h-164z" />
    <glyph glyph-name="Ydieresis" unicode="&#x178;" horiz-adv-x="741" 
d="M486 285v-285h-218v291l-273 419h257l133 -211l133 211h228zM163 764v168h193v-168h-193zM414 764v168h193v-168h-193z" />
    <glyph glyph-name="Zacute" unicode="&#x179;" horiz-adv-x="735" 
d="M703 175v-175h-660v116l324 421h-314v173h616v-114l-325 -421h359zM256 764l104 168h206l-112 -168h-198z" />
    <glyph glyph-name="zacute" unicode="&#x17a;" horiz-adv-x="588" 
d="M568 157v-157h-532v105l216 270h-212v154h494v-104l-218 -268h252zM187 583l102 194h194l-109 -194h-187z" />
    <glyph glyph-name="Zdotaccent" unicode="&#x17b;" horiz-adv-x="735" 
d="M703 175v-175h-660v116l324 421h-314v173h616v-114l-325 -421h359zM258 764v168h206v-168h-206z" />
    <glyph glyph-name="zdotaccent" unicode="&#x17c;" horiz-adv-x="588" 
d="M568 157v-157h-532v105l216 270h-212v154h494v-104l-218 -268h252zM184 583v168h206v-168h-206z" />
    <glyph glyph-name="Zcaron" unicode="&#x17d;" horiz-adv-x="735" 
d="M703 175v-175h-660v116l324 421h-314v173h616v-114l-325 -421h359zM596 935l-140 -171h-190l-137 171h173l59 -71l59 71h176z" />
    <glyph glyph-name="zcaron" unicode="&#x17e;" horiz-adv-x="588" 
d="M568 157v-157h-532v105l216 270h-212v154h494v-104l-218 -268h252zM501 784l-124 -201h-180l-128 201h167l51 -84l50 84h164z" />
    <glyph glyph-name="uni0192" unicode="&#x192;" horiz-adv-x="577" 
d="M490 301h-163l-69 -494h-196l68 494h-114v157h135l15 110q10 71 50 106.5t120 35.5h222v-151h-144q-30 0 -42 -10.5t-16 -37.5l-7 -53h141v-157z" />
    <glyph glyph-name="Aringacute" unicode="&#x1fa;" horiz-adv-x="777" 
d="M549 0l-35 100h-264l-35 -100h-205l261 710h233l263 -710h-218zM309 268h146l-73 210zM287 1071l101 151h206l-109 -151h-198zM383 754q-64 0 -105 40.5t-41 102.5q0 63 41 103t105 40q66 0 106.5 -40t40.5 -103q0 -62 -41.5 -102.5t-105.5 -40.5zM383 844q23 0 37.5 15
t14.5 38q0 24 -14.5 38.5t-37.5 14.5t-37.5 -14.5t-14.5 -38.5q0 -23 14.5 -38t37.5 -15z" />
    <glyph glyph-name="aringacute" unicode="&#x1fb;" horiz-adv-x="643" 
d="M391 0v61q-7 -12 -19 -25t-45.5 -29.5t-73.5 -16.5q-96 0 -156.5 74t-60.5 201q0 126 61 200t157 74q41 0 73.5 -15.5t43.5 -28t17 -22.5v56h196v-529h-193zM390 265q0 53 -20.5 81.5t-56.5 28.5q-37 0 -58 -28.5t-21 -81.5q0 -54 21 -82.5t58 -28.5q36 0 56.5 28.5
t20.5 82.5zM206 889l88 163h194l-95 -163h-187zM296 574q-63 0 -104 40.5t-41 101.5q0 62 40.5 102t104.5 40t105 -40t41 -102q0 -60 -41.5 -101t-104.5 -41zM296 664q22 0 36.5 14.5t14.5 37.5t-14 37.5t-37 14.5t-37 -14.5t-14 -37.5t14.5 -37.5t36.5 -14.5z" />
    <glyph glyph-name="AEacute" unicode="&#x1fc;" horiz-adv-x="1071" 
d="M1039 174v-174h-565v130h-202l-63 -130h-219l353 710h663v-165h-327v-93h199v-169h-199v-109h360zM354 298h120v248zM579 764l104 168h206l-112 -168h-198z" />
    <glyph glyph-name="aeacute" unicode="&#x1fd;" horiz-adv-x="926" 
d="M628 543q123 0 195 -75.5t72 -202.5v-43h-342q4 -39 26.5 -61.5t59.5 -22.5q35 0 55 23h198q-3 -29 -18.5 -57.5t-44 -56t-78 -44.5t-112.5 -17q-141 0 -217 90q-53 -88 -188 -88q-95 0 -150.5 50t-55.5 129q0 80 53 123t147 43h132v5q0 25 -16 42.5t-47 17.5
q-26 0 -41.5 -10.5t-18.5 -20.5h-199q1 23 14 50.5t40 57t79.5 49t121.5 19.5q117 0 175 -61q54 61 160 61zM628 406q-33 0 -52.5 -19.5t-22.5 -53.5h149q-3 35 -22.5 54t-51.5 19zM224 172q0 -23 17.5 -37.5t47.5 -14.5q32 0 51.5 18.5t19.5 47.5v30h-82q-25 0 -39.5 -11.5
t-14.5 -32.5zM376 583l102 194h194l-109 -194h-187z" />
    <glyph glyph-name="Oslashacute" unicode="&#x1fe;" horiz-adv-x="784" 
d="M740 355q0 -170 -99 -268.5t-249 -98.5q-91 0 -169 42l-24 -30h-190l103 128q-68 93 -68 227q0 172 98.5 269.5t249.5 97.5q88 0 168 -41l23 29h192l-103 -127q68 -93 68 -228zM240 355q0 -38 4 -63l200 248q-24 6 -52 6q-71 0 -111.5 -53.5t-40.5 -137.5zM543 355
q0 40 -4 65l-201 -250q24 -6 54 -6q71 0 111 53.5t40 137.5zM294 764l104 168h206l-112 -168h-198z" />
    <glyph glyph-name="oslashacute" unicode="&#x1ff;" horiz-adv-x="627" 
d="M593 265q0 -124 -79 -201.5t-200 -77.5q-75 0 -143 38l-21 -24h-139l80 93q-57 72 -57 172q0 125 79 201.5t201 76.5q76 0 141 -37l20 23h141l-79 -92q56 -70 56 -172zM209 265q0 -28 2 -35l135 157q-13 3 -32 3q-48 0 -76.5 -36t-28.5 -89zM418 265q0 27 -2 34
l-135 -157q15 -3 33 -3q48 0 76 36.5t28 89.5zM221 583l102 194h194l-109 -194h-187z" />
    <glyph glyph-name="uni0218" unicode="&#x218;" horiz-adv-x="711" 
d="M332 563q-36 0 -57 -12.5t-21 -33.5q0 -41 73 -50l60 -7q143 -17 212 -70t69 -166q0 -109 -79 -173t-224 -64q-84 0 -149 21.5t-103 56.5t-58.5 71t-28.5 74h219q10 -23 40.5 -41.5t79.5 -18.5q90 0 90 56q0 28 -19 40.5t-60 18.5l-61 8q-134 16 -202.5 72t-68.5 161
q0 103 78.5 160.5t209.5 57.5q81 0 142 -19t96 -51.5t53.5 -64t27.5 -67.5h-210q-28 41 -109 41zM433 -317h-123q36 66 49 112h-92v151h206v-107q0 -70 -40 -156z" />
    <glyph glyph-name="uni0219" unicode="&#x219;" horiz-adv-x="574" 
d="M309 186l-56 5q-222 20 -222 177q0 84 65.5 129.5t178.5 45.5q70 0 121.5 -15.5t78.5 -40.5t40 -49t16 -50h-194q-16 23 -59 23q-52 0 -52 -32q0 -27 41 -30l46 -3q122 -7 177.5 -49.5t55.5 -130.5q0 -87 -64.5 -133.5t-192.5 -46.5q-71 0 -124.5 16.5t-82 43t-43 52
t-17.5 51.5h200q5 -10 21.5 -19.5t45.5 -9.5q61 0 61 32q0 15 -9 23.5t-32 10.5zM352 -317h-123q36 66 49 112h-92v151h206v-107q0 -70 -40 -156z" />
    <glyph glyph-name="uni021A" unicode="&#x21a;" horiz-adv-x="726" 
d="M32 534v176h662v-176h-229v-534h-204v534h-229zM431 -317h-123q36 66 49 112h-92v151h206v-107q0 -70 -40 -156z" />
    <glyph glyph-name="uni021B" unicode="&#x21b;" horiz-adv-x="525" 
d="M484 172v-172h-164q-179 0 -179 165v204h-118v160h118v181h196v-181h147v-160h-147v-130q0 -36 14.5 -51.5t53.5 -15.5h79zM360 -317h-123q36 66 49 112h-92v151h206v-107q0 -70 -40 -156z" />
    <glyph glyph-name="uni0237" unicode="&#x237;" horiz-adv-x="317" 
d="M258 -21q0 -93 -39.5 -132.5t-122.5 -39.5h-201v144h105q35 0 47.5 12t12.5 43v523h198v-550z" />
    <glyph glyph-name="circumflex" unicode="&#x2c6;" 
d="M310 583l-50 84l-51 -84h-167l128 201h180l124 -201h-164z" />
    <glyph glyph-name="caron" unicode="&#x2c7;" 
d="M471 784l-124 -201h-180l-128 201h167l51 -84l50 84h164z" />
    <glyph glyph-name="breve" unicode="&#x2d8;" 
d="M300 708q40 0 40 42v15h145v-18q0 -74 -46 -122t-139 -48t-139 48t-46 122v18h145v-15q0 -42 40 -42z" />
    <glyph glyph-name="dotaccent" unicode="&#x2d9;" 
d="M197 583v168h206v-168h-206z" />
    <glyph glyph-name="ring" unicode="&#x2da;" 
d="M300 574q-63 0 -104 40.5t-41 101.5q0 62 40.5 102t104.5 40t105 -40t41 -102q0 -60 -41.5 -101t-104.5 -41zM300 664q22 0 36.5 14.5t14.5 37.5t-14 37.5t-37 14.5t-37 -14.5t-14 -37.5t14.5 -37.5t36.5 -14.5z" />
    <glyph glyph-name="ogonek" unicode="&#x2db;" 
d="M448 -71v-122h-177q-55 0 -86.5 22.5t-31.5 63.5q0 31 20.5 55.5t55.5 51.5h198q-5 -4 -12.5 -9.5t-12 -8.5t-10.5 -7.5t-9 -7.5t-6 -6.5t-4.5 -7t-1.5 -6.5q0 -18 22 -18h55z" />
    <glyph glyph-name="tilde" unicode="&#x2dc;" 
d="M244 579h-127v98q0 46 23.5 72t67.5 26q35 0 81 -24l29 -14q16 -8 24 -8q14 0 14 19v32h128v-98q0 -46 -24 -72t-68 -26q-35 0 -81 24l-29 14q-18 8 -24 8q-14 0 -14 -19v-32z" />
    <glyph glyph-name="hungarumlaut" unicode="&#x2dd;" 
d="M291 583l68 194h159l-71 -194h-156zM79 583l68 194h159l-71 -194h-156z" />
    <glyph glyph-name="Wgrave" unicode="&#x1e80;" horiz-adv-x="1034" 
d="M627 0l-112 399l-114 -399h-186l-201 710h216l98 -389l105 389h186l106 -395l100 395h195l-195 -710h-198zM616 764h-198l-112 168h206z" />
    <glyph glyph-name="wgrave" unicode="&#x1e81;" horiz-adv-x="863" 
d="M505 0l-71 280l-71 -280h-192l-171 529h210l71 -269l71 269h184l71 -269l71 269h185l-157 -529h-201zM530 583h-187l-109 194h194z" />
    <glyph glyph-name="Wacute" unicode="&#x1e82;" horiz-adv-x="1034" 
d="M627 0l-112 399l-114 -399h-186l-201 710h216l98 -389l105 389h186l106 -395l100 395h195l-195 -710h-198zM427 764l104 168h206l-112 -168h-198z" />
    <glyph glyph-name="wacute" unicode="&#x1e83;" horiz-adv-x="863" 
d="M505 0l-71 280l-71 -280h-192l-171 529h210l71 -269l71 269h184l71 -269l71 269h185l-157 -529h-201zM344 583l102 194h194l-109 -194h-187z" />
    <glyph glyph-name="Wdieresis" unicode="&#x1e84;" horiz-adv-x="1034" 
d="M627 0l-112 399l-114 -399h-186l-201 710h216l98 -389l105 389h186l106 -395l100 395h195l-195 -710h-198zM293 764v168h193v-168h-193zM544 764v168h193v-168h-193z" />
    <glyph glyph-name="wdieresis" unicode="&#x1e85;" horiz-adv-x="863" 
d="M505 0l-71 280l-71 -280h-192l-171 529h210l71 -269l71 269h184l71 -269l71 269h185l-157 -529h-201zM217 583v168h192v-168h-192zM465 583v168h192v-168h-192z" />
    <glyph glyph-name="Ygrave" unicode="&#x1ef2;" horiz-adv-x="741" 
d="M486 285v-285h-218v291l-273 419h257l133 -211l133 211h228zM492 764h-198l-112 168h206z" />
    <glyph glyph-name="ygrave" unicode="&#x1ef3;" horiz-adv-x="596" 
d="M601 529l-259 -722h-198l71 191l-220 531h222l93 -264l93 264h198zM404 583h-187l-109 194h194z" />
    <glyph glyph-name="uni2009" unicode="&#x2009;" horiz-adv-x="166" 
 />
    <glyph glyph-name="uni200A" unicode="&#x200a;" horiz-adv-x="83" 
 />
    <glyph glyph-name="endash" unicode="&#x2013;" horiz-adv-x="716" 
d="M72 240v125h572v-125h-572z" />
    <glyph glyph-name="emdash" unicode="&#x2014;" horiz-adv-x="1037" 
d="M72 240v125h893v-125h-893z" />
    <glyph glyph-name="quoteleft" unicode="&#x2018;" horiz-adv-x="346" 
d="M123 736h131q-62 -98 -72 -182h102v-202h-217v172q0 116 56 212z" />
    <glyph glyph-name="quoteright" unicode="&#x2019;" horiz-adv-x="346" 
d="M223 352h-131q62 98 72 182h-102v202h217v-172q0 -116 -56 -212z" />
    <glyph glyph-name="quotesinglbase" unicode="&#x201a;" horiz-adv-x="344" 
d="M223 -182h-131q62 98 72 182h-102v202h217v-172q0 -116 -56 -212z" />
    <glyph glyph-name="quotedblleft" unicode="&#x201c;" horiz-adv-x="625" 
d="M123 736h131q-62 -98 -72 -182h98v-202h-213v172q0 116 56 212zM406 736h131q-62 -98 -72 -182h98v-202h-213v172q0 116 56 212z" />
    <glyph glyph-name="quotedblright" unicode="&#x201d;" horiz-adv-x="625" 
d="M502 352h-131q62 98 72 182h-98v202h213v-172q0 -116 -56 -212zM219 352h-131q62 98 72 182h-98v202h213v-172q0 -116 -56 -212z" />
    <glyph glyph-name="quotedblbase" unicode="&#x201e;" horiz-adv-x="623" 
d="M502 -182h-131q62 98 72 182h-98v202h213v-172q0 -116 -56 -212zM219 -182h-131q62 98 72 182h-98v202h213v-172q0 -116 -56 -212z" />
    <glyph glyph-name="dagger" unicode="&#x2020;" horiz-adv-x="523" 
d="M493 385h-137v-385h-189v385h-137v179h137v146h189v-146h137v-179z" />
    <glyph glyph-name="daggerdbl" unicode="&#x2021;" horiz-adv-x="513" 
d="M478 132h-127v-132h-189v132h-127v170h127v109h-127v170h127v129h189v-129h127v-170h-127v-109h127v-170z" />
    <glyph glyph-name="bullet" unicode="&#x2022;" horiz-adv-x="608" 
d="M304 556q100 0 170 -70.5t70 -169.5q0 -100 -70 -170t-170 -70t-170 70t-70 170q0 99 70 169.5t170 70.5z" />
    <glyph glyph-name="ellipsis" unicode="&#x2026;" horiz-adv-x="948" 
d="M65 0v222h222v-222h-222zM363 0v222h222v-222h-222zM661 0v222h222v-222h-222z" />
    <glyph glyph-name="perthousand" unicode="&#x2030;" horiz-adv-x="1421" 
d="M232 332q-84 0 -142 56.5t-58 138.5t58 138.5t142 56.5t142 -56.5t58 -138.5t-58 -138.5t-142 -56.5zM145 0l529 710h165l-529 -710h-165zM232 469q26 0 42 16.5t16 41.5t-16 41.5t-42 16.5t-42 -16.5t-16 -41.5t16 -41.5t42 -16.5zM751 -14q-84 0 -142 56.5t-58 138.5
t58 138.5t142 56.5t142 -56.5t58 -138.5t-58 -138.5t-142 -56.5zM1189 -14q-84 0 -142 56.5t-58 138.5t58 138.5t142 56.5t142 -56.5t58 -138.5t-58 -138.5t-142 -56.5zM751 123q26 0 42 16.5t16 41.5t-16 41.5t-42 16.5t-42 -16.5t-16 -41.5t16 -41.5t42 -16.5zM1189 123
q26 0 42 16.5t16 41.5t-16 41.5t-42 16.5t-42 -16.5t-16 -41.5t16 -41.5t42 -16.5z" />
    <glyph glyph-name="uni2032" unicode="&#x2032;" horiz-adv-x="328" 
d="M208 400h-178l88 310h180z" />
    <glyph glyph-name="uni2033" unicode="&#x2033;" horiz-adv-x="573" 
d="M203 400h-173l88 310h175zM453 400h-173l88 310h175z" />
    <glyph glyph-name="guilsinglleft" unicode="&#x2039;" horiz-adv-x="376" 
d="M326 511l-102 -194l102 -196h-178l-98 195l99 195h177z" />
    <glyph glyph-name="guilsinglright" unicode="&#x203a;" horiz-adv-x="376" 
d="M326 316l-99 -195h-177l102 194l-102 196h178z" />
    <glyph glyph-name="fraction" unicode="&#x2044;" horiz-adv-x="631" 
d="M154 0h-154l477 710h154z" />
    <glyph glyph-name="zero.sup" unicode="&#x2070;" horiz-adv-x="562" 
d="M281 746q107 0 166 -53t59 -146v-134q0 -91 -60 -145t-165 -54q-106 0 -165.5 54t-59.5 145v134q0 93 59 146t166 53zM281 358q60 0 60 64v116q0 64 -60 64t-60 -64v-116q0 -64 60 -64z" />
    <glyph glyph-name="four.sup" unicode="&#x2074;" horiz-adv-x="579" 
d="M551 346h-96v-122h-161v122h-265v109l229 281h197v-262h96v-128zM185 474h109v139z" />
    <glyph glyph-name="five.sup" unicode="&#x2075;" horiz-adv-x="535" 
d="M61 433v303h407v-122h-253v-74q30 39 103 39t121.5 -46.5t48.5 -122.5v-1q0 -85 -60 -139.5t-166 -54.5q-113 0 -170 55t-57 122h169q2 -14 18 -28t40 -14q26 0 42.5 16.5t16.5 40.5q-1 26 -16.5 41.5t-42.5 15.5q-39 0 -50 -31h-151z" />
    <glyph glyph-name="six.sup" unicode="&#x2076;" horiz-adv-x="536" 
d="M496 410q0 -86 -62 -140.5t-165 -54.5t-166 54.5t-63 139.5q0 58 21 102.5t70 102.5l102 122h179l-157 -189q29 29 81 29q73 0 116.5 -46.5t43.5 -119.5zM330 410q0 26 -17 42.5t-45 16.5q-27 0 -45 -17t-18 -43t18 -42.5t45 -16.5q28 0 45 16.5t17 43.5z" />
    <glyph glyph-name="seven.sup" unicode="&#x2077;" horiz-adv-x="498" 
d="M464 642l-216 -418h-186l200 371h-230v141h432v-94z" />
    <glyph glyph-name="eight.sup" unicode="&#x2078;" horiz-adv-x="540" 
d="M498 363q0 -68 -56.5 -108t-159.5 -40h-23q-103 0 -160 40t-57 108q0 91 85 123q-30 10 -53.5 39t-23.5 77q0 65 54.5 104t154.5 39h22q100 0 154.5 -39t54.5 -104q0 -47 -23.5 -76t-52.5 -40q33 -13 58.5 -42.5t25.5 -80.5zM272 629h-4q-53 0 -53 -45q0 -21 14.5 -33
t38.5 -12h4q24 0 38.5 12t14.5 33q0 45 -53 45zM274 427h-7q-24 0 -40 -13t-16 -35t16 -35t40 -13h7q24 0 39.5 12.5t15.5 35.5t-15.5 35.5t-39.5 12.5z" />
    <glyph glyph-name="nine.sup" unicode="&#x2079;" horiz-adv-x="536" 
d="M405 346l-102 -122h-179l157 189q-29 -29 -81 -29q-73 0 -116.5 46.5t-43.5 119.5q0 86 62 140.5t165 54.5t166 -54.5t63 -139.5q0 -58 -21 -102.5t-70 -102.5zM206 550q0 -26 17 -42.5t45 -16.5q27 0 45 17t18 43t-18 42.5t-45 16.5q-28 0 -45 -16.5t-17 -43.5z" />
    <glyph glyph-name="zero.sub" unicode="&#x2080;" horiz-adv-x="562" 
d="M281 380q107 0 166 -53t59 -146v-134q0 -91 -60 -145t-165 -54q-106 0 -165.5 54t-59.5 145v134q0 93 59 146t166 53zM281 -8q60 0 60 64v116q0 64 -60 64t-60 -64v-116q0 -64 60 -64z" />
    <glyph glyph-name="one.sub" unicode="&#x2081;" horiz-adv-x="399" 
d="M330 372v-514h-166v343l-129 -68v144l170 95h125z" />
    <glyph glyph-name="two.sub" unicode="&#x2082;" horiz-adv-x="520" 
d="M487 -8v-134h-436v106l204 172q40 34 40 60q0 19 -12 31t-34 12q-49 0 -49 -53v-18h-157v20q0 84 54.5 137.5t152.5 53.5q100 0 156.5 -47t56.5 -126q0 -52 -27.5 -89.5t-85.5 -84.5l-49 -40h186z" />
    <glyph glyph-name="three.sub" unicode="&#x2083;" horiz-adv-x="532" 
d="M489 11q0 -75 -60 -118.5t-168 -43.5q-112 0 -170.5 53t-61.5 116h168q3 -12 19 -24t44 -12q61 0 61 40q0 33 -43 33h-107v127h91q45 0 45 31q0 36 -54 36q-43 0 -55 -33h-164q3 65 59.5 114t159.5 49q106 0 162.5 -39t56.5 -114q0 -35 -20.5 -60t-46.5 -34
q84 -27 84 -121z" />
    <glyph glyph-name="four.sub" unicode="&#x2084;" horiz-adv-x="579" 
d="M551 -20h-96v-122h-161v122h-265v109l229 281h197v-262h96v-128zM185 108h109v139z" />
    <glyph glyph-name="five.sub" unicode="&#x2085;" horiz-adv-x="535" 
d="M61 67v303h407v-122h-253v-74q30 39 103 39t121.5 -46.5t48.5 -122.5v-1q0 -85 -60 -139.5t-166 -54.5q-113 0 -170 55t-57 122h169q2 -14 18 -28t40 -14q26 0 42.5 16.5t16.5 40.5q-1 26 -16.5 41.5t-42.5 15.5q-39 0 -50 -31h-151z" />
    <glyph glyph-name="six.sub" unicode="&#x2086;" horiz-adv-x="536" 
d="M496 44q0 -86 -62 -140.5t-165 -54.5t-166 54.5t-63 139.5q0 58 21 102.5t70 102.5l102 122h179l-157 -189q29 29 81 29q73 0 116.5 -46.5t43.5 -119.5zM330 44q0 26 -17 42.5t-45 16.5q-27 0 -45 -17t-18 -43t18 -42.5t45 -16.5q28 0 45 16.5t17 43.5z" />
    <glyph glyph-name="seven.sub" unicode="&#x2087;" horiz-adv-x="498" 
d="M464 276l-216 -418h-186l200 371h-230v141h432v-94z" />
    <glyph glyph-name="eight.sub" unicode="&#x2088;" horiz-adv-x="540" 
d="M498 -3q0 -68 -56.5 -108t-159.5 -40h-23q-103 0 -160 40t-57 108q0 91 85 123q-30 10 -53.5 39t-23.5 77q0 65 54.5 104t154.5 39h22q100 0 154.5 -39t54.5 -104q0 -47 -23.5 -76t-52.5 -40q33 -13 58.5 -42.5t25.5 -80.5zM272 263h-4q-53 0 -53 -45q0 -21 14.5 -33
t38.5 -12h4q24 0 38.5 12t14.5 33q0 45 -53 45zM274 61h-7q-24 0 -40 -13t-16 -35t16 -35t40 -13h7q24 0 39.5 12.5t15.5 35.5t-15.5 35.5t-39.5 12.5z" />
    <glyph glyph-name="nine.sub" unicode="&#x2089;" horiz-adv-x="536" 
d="M405 -20l-102 -122h-179l157 189q-29 -29 -81 -29q-73 0 -116.5 46.5t-43.5 119.5q0 86 62 140.5t165 54.5t166 -54.5t63 -139.5q0 -58 -21 -102.5t-70 -102.5zM206 184q0 -26 17 -42.5t45 -16.5q27 0 45 17t18 43t-18 42.5t-45 16.5q-28 0 -45 -16.5t-17 -43.5z" />
    <glyph glyph-name="won" unicode="&#x20a9;" horiz-adv-x="1063" 
d="M623 0l-86 390l-86 -390h-182l-74 273h-159v167h113l-73 270h207l85 -380l78 380h186l78 -380l85 380h192l-69 -270h109v-167h-152l-70 -273h-182z" />
    <glyph glyph-name="Euro" unicode="&#x20ac;" horiz-adv-x="680" 
d="M642 219q-2 -106 -72.5 -168t-187.5 -62q-118 0 -182.5 61t-70.5 163h-95v124h95v44h-95v124h96q6 97 71.5 157t180.5 60q117 0 186.5 -62t73.5 -163h-184q-5 22 -23.5 40t-52.5 18q-60 0 -72 -50h113v-124h-115v-44h115v-124h-114q11 -57 73 -57q35 0 54 19t22 44h184z
" />
    <glyph glyph-name="trademark" unicode="&#x2122;" horiz-adv-x="1043" 
d="M26 577v133h377v-133h-109v-273h-159v273h-109zM668 710l57 -182l59 182h203v-406h-137v258l-74 -260h-114l-73 261v-259h-132v406h211z" />
    <glyph glyph-name="onethird" unicode="&#x2153;" horiz-adv-x="1075" 
d="M1036 137q0 -67 -55 -106t-156 -39q-102 0 -156 48t-57 104h160q0 -4 4.5 -10.5t17.5 -13.5t31 -7q52 0 52 32q0 25 -35 25h-99v120h88q32 0 32 21q0 31 -45 31q-23 0 -34 -9.5t-12 -18.5h-156q0 57 53.5 101.5t148.5 44.5q203 0 203 -136q0 -57 -60 -81q31 -10 53 -36
t22 -70zM307 712v-454h-158v295l-117 -59v133l156 85h119zM328 0h-154l477 710h154z" />
    <glyph glyph-name="twothirds" unicode="&#x2154;" horiz-adv-x="1201" 
d="M446 382v-124h-400v98l187 151q33 27 33 48q0 34 -38 34q-41 0 -41 -44v-14h-148v16q0 76 49.5 123.5t140.5 47.5q92 0 143.5 -42t51.5 -112q0 -48 -25 -82t-77 -72l-38 -28h162zM1162 137q0 -67 -55 -106t-156 -39q-102 0 -156 48t-57 104h160q0 -4 4.5 -10.5
t17.5 -13.5t31 -7q52 0 52 32q0 25 -35 25h-99v120h88q32 0 32 21q0 31 -45 31q-23 0 -34 -9.5t-12 -18.5h-156q0 57 53.5 101.5t148.5 44.5q203 0 203 -136q0 -57 -60 -81q31 -10 53 -36t22 -70zM454 0h-154l477 710h154z" />
    <glyph glyph-name="oneeighth" unicode="&#x215b;" horiz-adv-x="1083" 
d="M1046 123q0 -61 -52 -96t-147 -35h-21q-96 0 -148 35t-52 96q0 74 76 109q-26 8 -47.5 33.5t-21.5 67.5q0 58 50.5 92.5t142.5 34.5h20q92 0 142.5 -34.5t50.5 -92.5q0 -42 -21.5 -67.5t-47.5 -33.5q76 -32 76 -109zM837 354h-2q-45 0 -45 -38q0 -17 12.5 -27t32.5 -10h2
q20 0 32.5 10t12.5 27q0 38 -45 38zM839 178h-6q-19 0 -32.5 -11t-13.5 -29q0 -19 13 -29.5t33 -10.5h6q20 0 33 10.5t13 29.5t-13 29.5t-33 10.5zM307 712v-454h-158v295l-117 -59v133l156 85h119zM328 0h-154l477 710h154z" />
    <glyph glyph-name="threeeighths" unicode="&#x215c;" horiz-adv-x="1182" 
d="M449 395q0 -67 -55 -106t-156 -39q-102 0 -156 48t-57 104h160q0 -4 4.5 -10.5t17.5 -13.5t31 -7q52 0 52 32q0 25 -35 25h-99v120h88q32 0 32 21q0 31 -45 31q-23 0 -34 -9.5t-12 -18.5h-156q0 57 53.5 101.5t148.5 44.5q203 0 203 -136q0 -57 -60 -81q31 -10 53 -36
t22 -70zM1145 123q0 -61 -52 -96t-147 -35h-21q-96 0 -148 35t-52 96q0 74 76 109q-26 8 -47.5 33.5t-21.5 67.5q0 58 50.5 92.5t142.5 34.5h20q92 0 142.5 -34.5t50.5 -92.5q0 -42 -21.5 -67.5t-47.5 -33.5q76 -32 76 -109zM936 354h-2q-45 0 -45 -38q0 -17 12.5 -27
t32.5 -10h2q20 0 32.5 10t12.5 27q0 38 -45 38zM938 178h-6q-19 0 -32.5 -11t-13.5 -29q0 -19 13 -29.5t33 -10.5h6q20 0 33 10.5t13 29.5t-13 29.5t-33 10.5zM427 0h-154l477 710h154z" />
    <glyph glyph-name="fiveeighths" unicode="&#x215d;" horiz-adv-x="1170" 
d="M54 437v273h375v-113h-228v-61q26 33 89 33q71 0 114.5 -40t43.5 -109q0 -76 -55 -123t-153 -47q-104 0 -157 47t-53 107h161q3 -11 15.5 -22t33.5 -11q20 0 33.5 13.5t14.5 32.5q-1 21 -13.5 33.5t-34.5 12.5q-32 0 -42 -26h-144zM1133 123q0 -61 -52 -96t-147 -35h-21
q-96 0 -148 35t-52 96q0 74 76 109q-26 8 -47.5 33.5t-21.5 67.5q0 58 50.5 92.5t142.5 34.5h20q92 0 142.5 -34.5t50.5 -92.5q0 -42 -21.5 -67.5t-47.5 -33.5q76 -32 76 -109zM924 354h-2q-45 0 -45 -38q0 -17 12.5 -27t32.5 -10h2q20 0 32.5 10t12.5 27q0 38 -45 38z
M926 178h-6q-19 0 -32.5 -11t-13.5 -29q0 -19 13 -29.5t33 -10.5h6q20 0 33 10.5t13 29.5t-13 29.5t-33 10.5zM415 0h-154l477 710h154z" />
    <glyph glyph-name="seveneighths" unicode="&#x215e;" horiz-adv-x="1082" 
d="M425 623l-193 -365h-177l178 325h-205v127h397v-87zM1045 123q0 -61 -52 -96t-147 -35h-21q-96 0 -148 35t-52 96q0 74 76 109q-26 8 -47.5 33.5t-21.5 67.5q0 58 50.5 92.5t142.5 34.5h20q92 0 142.5 -34.5t50.5 -92.5q0 -42 -21.5 -67.5t-47.5 -33.5q76 -32 76 -109z
M836 354h-2q-45 0 -45 -38q0 -17 12.5 -27t32.5 -10h2q20 0 32.5 10t12.5 27q0 38 -45 38zM838 178h-6q-19 0 -32.5 -11t-13.5 -29q0 -19 13 -29.5t33 -10.5h6q20 0 33 10.5t13 29.5t-13 29.5t-33 10.5zM327 0h-154l477 710h154z" />
    <glyph glyph-name="minus" unicode="&#x2212;" horiz-adv-x="684" 
d="M612 246h-540v180h540v-180z" />
    <glyph glyph-name="uni24C5" unicode="&#x24c5;" horiz-adv-x="834" 
d="M417 -12q-159 0 -265 105t-106 262q0 156 106 261.5t265 105.5q158 0 264.5 -105.5t106.5 -261.5t-106.5 -261.5t-264.5 -105.5zM417 92q117 0 187.5 74t70.5 189q0 114 -70.5 188.5t-187.5 74.5t-187.5 -74.5t-70.5 -188.5q0 -116 70.5 -189.5t187.5 -73.5zM258 168v378
h201q70 0 110.5 -35t40.5 -101q0 -68 -40 -103t-111 -35h-75v-104h-126zM446 438h-62v-56h62q35 0 35 28t-35 28z" />
    <glyph glyph-name="zero.den" unicode="&#xe402;" horiz-adv-x="514" 
d="M257 461q98 0 152.5 -47.5t54.5 -129.5v-116q0 -81 -54.5 -129t-152.5 -48t-153 48t-55 129v116q0 82 55 129.5t153 47.5zM257 121q50 0 50 51v108q0 51 -50 51t-50 -51v-108q0 -51 50 -51z" />
    <glyph glyph-name="one.den" unicode="&#xe403;" horiz-adv-x="368" 
d="M307 454v-454h-158v295l-117 -59v133l156 85h119z" />
    <glyph glyph-name="two.den" unicode="&#xe404;" horiz-adv-x="476" 
d="M446 124v-124h-400v98l187 151q33 27 33 48q0 34 -38 34q-41 0 -41 -44v-14h-148v16q0 76 49.5 123.5t140.5 47.5q92 0 143.5 -42t51.5 -112q0 -48 -25 -82t-77 -72l-38 -28h162z" />
    <glyph glyph-name="three.den" unicode="&#xe405;" horiz-adv-x="488" 
d="M449 137q0 -67 -55 -106t-156 -39q-102 0 -156 48t-57 104h160q0 -4 4.5 -10.5t17.5 -13.5t31 -7q52 0 52 32q0 25 -35 25h-99v120h88q32 0 32 21q0 31 -45 31q-23 0 -34 -9.5t-12 -18.5h-156q0 57 53.5 101.5t148.5 44.5q203 0 203 -136q0 -57 -60 -81q31 -10 53 -36
t22 -70z" />
    <glyph glyph-name="four.den" unicode="&#xe406;" horiz-adv-x="531" 
d="M505 103h-85v-103h-154v103h-240v105l204 244h190v-229h85v-120zM168 223h98v120z" />
    <glyph glyph-name="five.den" unicode="&#xe407;" horiz-adv-x="490" 
d="M54 179v273h375v-113h-228v-61q26 33 89 33q71 0 114.5 -40t43.5 -109q0 -76 -55 -123t-153 -47q-104 0 -157 47t-53 107h161q3 -11 15.5 -22t33.5 -11q20 0 33.5 13.5t14.5 32.5q-1 21 -13.5 33.5t-34.5 12.5q-32 0 -42 -26h-144z" />
    <glyph glyph-name="six.den" unicode="&#xe408;" horiz-adv-x="490" 
d="M455 166q0 -77 -57 -125.5t-152 -48.5q-94 0 -152.5 48.5t-58.5 124.5q0 52 19 91.5t64 90.5l91 105h170l-149 -175l3 3q23 32 77 32q66 0 105.5 -41t39.5 -105zM297 166q0 21 -14.5 34.5t-37.5 13.5t-37.5 -14t-14.5 -35q0 -22 14.5 -35t37.5 -13q24 0 38 13t14 36z" />
    <glyph glyph-name="seven.den" unicode="&#xe409;" horiz-adv-x="455" 
d="M425 365l-193 -365h-177l178 325h-205v127h397v-87z" />
    <glyph glyph-name="eight.den" unicode="&#xe40a;" horiz-adv-x="494" 
d="M457 123q0 -61 -52 -96t-147 -35h-21q-96 0 -148 35t-52 96q0 74 76 109q-26 8 -47.5 33.5t-21.5 67.5q0 58 50.5 92.5t142.5 34.5h20q92 0 142.5 -34.5t50.5 -92.5q0 -42 -21.5 -67.5t-47.5 -33.5q76 -32 76 -109zM248 354h-2q-45 0 -45 -38q0 -17 12.5 -27t32.5 -10h2
q20 0 32.5 10t12.5 27q0 38 -45 38zM250 178h-6q-19 0 -32.5 -11t-13.5 -29q0 -19 13 -29.5t33 -10.5h6q20 0 33 10.5t13 29.5t-13 29.5t-33 10.5z" />
    <glyph glyph-name="nine.den" unicode="&#xe40b;" horiz-adv-x="490" 
d="M36 286q0 77 56.5 125.5t151.5 48.5q94 0 152.5 -48.5t58.5 -124.5q0 -52 -19 -92t-63 -90l-92 -105h-170l146 171q-25 -31 -77 -31q-66 0 -105 41t-39 105zM193 286q0 -21 14.5 -34.5t37.5 -13.5t38 14t15 35q0 22 -15 35t-38 13q-24 0 -38 -13t-14 -36zM258 172l3 3
l-4 -4q1 0 1 1z" />
    <glyph glyph-name="zero.num" unicode="&#xe416;" horiz-adv-x="514" 
d="M257 719q98 0 152.5 -47.5t54.5 -129.5v-116q0 -81 -54.5 -129t-152.5 -48t-153 48t-55 129v116q0 82 55 129.5t153 47.5zM257 379q50 0 50 51v108q0 51 -50 51t-50 -51v-108q0 -51 50 -51z" />
    <glyph glyph-name="one.num" unicode="&#xe417;" horiz-adv-x="368" 
d="M307 712v-454h-158v295l-117 -59v133l156 85h119z" />
    <glyph glyph-name="two.num" unicode="&#xe418;" horiz-adv-x="476" 
d="M446 382v-124h-400v98l187 151q33 27 33 48q0 34 -38 34q-41 0 -41 -44v-14h-148v16q0 76 49.5 123.5t140.5 47.5q92 0 143.5 -42t51.5 -112q0 -48 -25 -82t-77 -72l-38 -28h162z" />
    <glyph glyph-name="three.num" unicode="&#xe419;" horiz-adv-x="488" 
d="M449 395q0 -67 -55 -106t-156 -39q-102 0 -156 48t-57 104h160q0 -4 4.5 -10.5t17.5 -13.5t31 -7q52 0 52 32q0 25 -35 25h-99v120h88q32 0 32 21q0 31 -45 31q-23 0 -34 -9.5t-12 -18.5h-156q0 57 53.5 101.5t148.5 44.5q203 0 203 -136q0 -57 -60 -81q31 -10 53 -36
t22 -70z" />
    <glyph glyph-name="four.num" unicode="&#xe41a;" horiz-adv-x="531" 
d="M505 361h-85v-103h-154v103h-240v105l204 244h190v-229h85v-120zM168 481h98v120z" />
    <glyph glyph-name="five.num" unicode="&#xe41b;" horiz-adv-x="490" 
d="M54 437v273h375v-113h-228v-61q26 33 89 33q71 0 114.5 -40t43.5 -109q0 -76 -55 -123t-153 -47q-104 0 -157 47t-53 107h161q3 -11 15.5 -22t33.5 -11q20 0 33.5 13.5t14.5 32.5q-1 21 -13.5 33.5t-34.5 12.5q-32 0 -42 -26h-144z" />
    <glyph glyph-name="six.num" unicode="&#xe41c;" horiz-adv-x="490" 
d="M455 424q0 -77 -57 -125.5t-152 -48.5q-94 0 -152.5 48.5t-58.5 124.5q0 52 19 91.5t64 90.5l91 105h170l-149 -175l3 3q23 32 77 32q66 0 105.5 -41t39.5 -105zM297 424q0 21 -14.5 34.5t-37.5 13.5t-37.5 -14t-14.5 -35q0 -22 14.5 -35t37.5 -13q24 0 38 13t14 36z" />
    <glyph glyph-name="seven.num" unicode="&#xe41d;" horiz-adv-x="455" 
d="M425 623l-193 -365h-177l178 325h-205v127h397v-87z" />
    <glyph glyph-name="eight.num" unicode="&#xe41e;" horiz-adv-x="494" 
d="M457 381q0 -61 -52 -96t-147 -35h-21q-96 0 -148 35t-52 96q0 74 76 109q-26 8 -47.5 33.5t-21.5 67.5q0 58 50.5 92.5t142.5 34.5h20q92 0 142.5 -34.5t50.5 -92.5q0 -42 -21.5 -67.5t-47.5 -33.5q76 -32 76 -109zM248 612h-2q-45 0 -45 -38q0 -17 12.5 -27t32.5 -10h2
q20 0 32.5 10t12.5 27q0 38 -45 38zM250 436h-6q-19 0 -32.5 -11t-13.5 -29q0 -19 13 -29.5t33 -10.5h6q20 0 33 10.5t13 29.5t-13 29.5t-33 10.5z" />
    <glyph glyph-name="nine.num" unicode="&#xe41f;" horiz-adv-x="490" 
d="M36 544q0 77 56.5 125.5t151.5 48.5q94 0 152.5 -48.5t58.5 -124.5q0 -52 -19 -92t-63 -90l-92 -105h-170l146 171q-25 -31 -77 -31q-66 0 -105 41t-39 105zM193 544q0 -21 14.5 -34.5t37.5 -13.5t38 14t15 35q0 22 -15 35t-38 13q-24 0 -38 -13t-14 -36zM258 430l3 3
l-4 -4q1 0 1 1z" />
    <glyph glyph-name="f_i" unicode="&#xfb01;" horiz-adv-x="840" 
d="M482 372h-145v-372h-196v372h-118v157h118v67q0 65 39.5 102.5t114.5 37.5h208v-141h-113q-30 0 -41.5 -11t-11.5 -38v-17h145v-157zM579 583v168h206v-168h-206zM583 0v529h198v-529h-198z" />
    <glyph glyph-name="f_l" unicode="&#xfb02;" horiz-adv-x="844" 
d="M482 372h-145v-372h-196v372h-118v157h118v67q0 65 39.5 102.5t114.5 37.5h208v-141h-113q-30 0 -41.5 -11t-11.5 -38v-17h145v-157zM585 0v736h198v-736h-198z" />
    <glyph glyph-name="idotaccent" horiz-adv-x="316" 
d="M55 583v168h206v-168h-206zM59 0v529h198v-529h-198z" />
    <glyph glyph-name="f_b" horiz-adv-x="1177" 
d="M482 372h-145v-372h-196v372h-118v157h118v67q0 65 39.5 102.5t114.5 37.5h208v-141h-113q-30 0 -41.5 -11t-11.5 -38v-17h145v-157zM776 71v-71h-193v736h196v-279q4 8 12.5 18t26 26.5t46.5 27t63 10.5q96 0 155 -72t59 -202t-59 -202.5t-155 -72.5q-105 0 -151 81z
M777 265q0 -53 22 -82t61 -29t61 29t22 82q0 51 -22.5 80.5t-60.5 29.5t-60.5 -29.5t-22.5 -80.5z" />
    <glyph glyph-name="f_h" horiz-adv-x="1175" 
d="M482 372h-145v-372h-196v372h-118v157h118v67q0 65 39.5 102.5t114.5 37.5h208v-141h-113q-30 0 -41.5 -11t-11.5 -38v-17h145v-157zM779 293v-293h-196v736h196v-265q18 27 56 48.5t92 21.5q87 0 139.5 -58.5t52.5 -153.5v-329h-196v293q0 35 -19 56t-53 21
q-35 0 -53.5 -20.5t-18.5 -56.5z" />
    <glyph glyph-name="f_j" horiz-adv-x="841" 
d="M482 372h-145v-372h-196v372h-118v157h118v67q0 65 39.5 102.5t114.5 37.5h208v-141h-113q-30 0 -41.5 -11t-11.5 -38v-17h145v-157zM580 583v168h206v-168h-206zM782 529v-550q0 -93 -39.5 -132.5t-122.5 -39.5h-201v144h105q35 0 47.5 12t12.5 43v523h198z" />
    <glyph glyph-name="f_k" horiz-adv-x="1159" 
d="M482 372h-145v-372h-196v372h-118v157h118v67q0 65 39.5 102.5t114.5 37.5h208v-141h-113q-30 0 -41.5 -11t-11.5 -38v-17h145v-157zM932 0l-151 224v-224h-198v736h198v-403l141 196h228l-174 -241l199 -288h-243z" />
    <glyph glyph-name="space_uni0326" horiz-adv-x="500" 
d="M313 -317h-123q36 66 49 112h-92v151h206v-107q0 -70 -40 -156z" />
    <glyph glyph-name="zero.old" horiz-adv-x="671" 
d="M337 610q130 0 212 -85.5t82 -226.5q0 -138 -82.5 -225t-211.5 -87q-130 0 -213.5 87t-83.5 225q0 141 83 226.5t214 85.5zM337 160q43 0 68.5 39.5t25.5 98.5q0 60 -25.5 99t-68.5 39q-45 0 -71 -39t-26 -99q0 -59 26.5 -98.5t70.5 -39.5z" />
    <glyph glyph-name="one.old" horiz-adv-x="468" 
d="M387 602v-602h-200v382l-146 -82v185l196 117h150z" />
    <glyph glyph-name="two.old" horiz-adv-x="628" 
d="M601 158v-158h-549v135l254 163q55 36 55 84q0 25 -14.5 41.5t-42.5 16.5t-42.5 -19.5t-14.5 -51.5v-16h-193v22q0 101 66 168t184 67q124 0 191 -58.5t67 -158.5q0 -141 -144 -212l-47 -23h230z" />
    <glyph glyph-name="three.old" horiz-adv-x="640" 
d="M595 98q0 -101 -75 -161.5t-206 -60.5q-72 0 -128 22t-88.5 57.5t-49.5 73.5t-19 77h202q3 -18 24 -37t58 -19q39 0 58.5 16.5t19.5 44.5q0 54 -58 54h-137v170h120q55 0 55 47q0 27 -17 42.5t-49 15.5q-23 0 -39.5 -11t-22.5 -21t-8 -19h-198q3 87 72.5 154t195.5 67
q129 0 198.5 -53.5t69.5 -155.5q0 -51 -26.5 -85.5t-63.5 -48.5q46 -14 79 -55.5t33 -113.5z" />
    <glyph glyph-name="four.old" horiz-adv-x="697" 
d="M673 66h-118v-178h-195v178h-334v135l296 397h233v-365h118v-167zM218 233h142v194z" />
    <glyph glyph-name="five.old" horiz-adv-x="643" 
d="M70 184v414h510v-160h-323v-101q40 51 122 51q94 0 155 -66.5t61 -177.5q0 -118 -74 -193t-205 -75q-72 0 -128 22.5t-88 58.5t-48 77t-16 84h203q3 -22 23.5 -44t53.5 -22q34 0 55.5 25.5t21.5 63.5q0 40 -20.5 64.5t-56.5 24.5q-46 0 -65 -46h-181z" />
    <glyph glyph-name="six.old" horiz-adv-x="636" 
d="M596 256q0 -118 -75.5 -193t-201.5 -75q-125 0 -202 75t-77 192q0 79 28.5 141t85.5 138l129 176h218l-193 -256q39 33 98 33q86 0 138 -65t52 -166zM398 256q0 43 -22 69.5t-58 26.5q-35 0 -57.5 -27.5t-22.5 -69.5t22 -68.5t58 -26.5t58 26.5t22 69.5z" />
    <glyph glyph-name="seven.old" horiz-adv-x="577" 
d="M546 475l-274 -587h-224l258 534h-276v176h516v-123z" />
    <glyph glyph-name="eight.old" horiz-adv-x="653" 
d="M609 193q0 -94 -72.5 -149.5t-197.5 -55.5h-25q-125 0 -197.5 55.5t-72.5 149.5q0 70 35 113t78 58q-40 16 -71 54.5t-31 105.5q0 89 69.5 143.5t190.5 54.5h23q121 0 190.5 -54.5t69.5 -143.5q0 -66 -30.5 -105t-69.5 -55q42 -15 76.5 -58t34.5 -113zM328 570h-3
q-31 0 -51 -18t-20 -50q0 -31 20.5 -49.5t50.5 -18.5h3q30 0 50.5 18.5t20.5 49.5q0 32 -20 50t-51 18zM330 286h-7q-31 0 -53 -19.5t-22 -53.5t22 -53.5t53 -19.5h7q31 0 53 19.5t22 53.5t-22 53.5t-53 19.5z" />
    <glyph glyph-name="nine.old" horiz-adv-x="636" 
d="M482 64l-129 -176h-218l193 256q-39 -33 -98 -33q-86 0 -138 64.5t-52 166.5q0 118 75.5 193t201.5 75q125 0 202 -75t77 -192q0 -79 -28.5 -141t-85.5 -138zM238 342q0 -43 22 -69.5t58 -26.5q35 0 57.5 27.5t22.5 69.5t-22 68.5t-58 26.5t-58 -26.5t-22 -69.5z" />
    <glyph glyph-name="space.tab" horiz-adv-x="325" 
 />
    <glyph glyph-name="dollar.tab" horiz-adv-x="626" 
d="M571 212q0 -77 -46 -132t-131 -73v-130h-172v130q-84 20 -130 76.5t-46 137.5v2h188q0 -32 20 -50t55 -18q67 0 67 50q0 43 -52 56q-18 5 -47.5 12.5t-49.5 13.5q-88 27 -130.5 78.5t-42.5 139.5q0 77 44.5 129.5t123.5 71.5v123h172v-124q151 -38 156 -195h-185
q-2 21 -17.5 35.5t-41.5 14.5q-29 0 -44.5 -13t-15.5 -34t12.5 -33.5t40.5 -20.5q18 -5 47.5 -12.5t49.5 -13.5q89 -27 132 -79.5t43 -141.5z" />
    <glyph glyph-name="cent.tab" horiz-adv-x="650" 
d="M591 190q-3 -62 -43 -116t-119 -76v-121h-172v119q-86 22 -137 93.5t-51 175.5t51 174t137 94v116h172v-119q76 -22 116.5 -75.5t44.5 -113.5h-186q-18 35 -63 35q-36 0 -55.5 -30t-19.5 -81t20 -81.5t55 -30.5q43 0 63 37h187z" />
    <glyph glyph-name="Euro.tab" horiz-adv-x="676" 
d="M642 219q-2 -106 -72.5 -168t-187.5 -62q-118 0 -182.5 61t-70.5 163h-95v124h95v44h-95v124h96q6 97 71.5 157t180.5 60q117 0 186.5 -62t73.5 -163h-184q-5 22 -23.5 40t-52.5 18q-60 0 -72 -50h113v-124h-115v-44h115v-124h-114q11 -57 73 -57q35 0 54 19t22 44h184z
" />
    <glyph glyph-name="sterling.tab" horiz-adv-x="701" 
d="M676 167v-167h-628v167h105v82h-105v167h105v86q0 103 59 161.5t180 58.5q122 0 180.5 -59t58.5 -161v-24h-184v18q0 29 -14.5 45.5t-40.5 16.5q-55 0 -55 -62v-80h160v-167h-160v-82h339z" />
    <glyph glyph-name="yen.tab" horiz-adv-x="658" 
d="M603 111h-160v-111h-213v111h-160v124h160v44h-160v124h143l-228 307h251l107 -157l107 157h223l-213 -307h143v-124h-160v-44h160v-124z" />
    <glyph glyph-name="florin.tab" horiz-adv-x="650" 
d="M541 301h-163l-69 -494h-196l68 494h-114v157h135l15 110q10 71 50 106.5t120 35.5h222v-151h-144q-30 0 -42 -10.5t-16 -37.5l-7 -53h141v-157z" />
    <glyph glyph-name="zero.tab" horiz-adv-x="650" 
d="M325 724q131 0 205.5 -71t74.5 -193v-210q0 -122 -74.5 -193t-205.5 -71t-205.5 71t-74.5 193v210q0 122 74.5 193t205.5 71zM325 166q41 0 61.5 24.5t20.5 65.5v198q0 41 -20.5 65.5t-61.5 24.5t-61.5 -24.5t-20.5 -65.5v-198q0 -41 20.5 -65.5t61.5 -24.5z" />
    <glyph glyph-name="one.tab" horiz-adv-x="650" 
d="M496 713v-713h-200v493l-192 -108v185l242 143h150z" />
    <glyph glyph-name="two.tab" horiz-adv-x="650" 
d="M625 173v-173h-575v135l276 239q35 31 49 53t14 50q0 30 -18.5 49t-52.5 19q-33 0 -52 -21.5t-19 -56.5v-34h-195v40q0 108 70 178.5t196 70.5q130 0 202 -63.5t72 -171.5q0 -76 -36.5 -129t-114.5 -119l-78 -66h262z" />
    <glyph glyph-name="three.tab" horiz-adv-x="650" 
d="M612 210q0 -101 -78.5 -161.5t-214.5 -60.5q-74 0 -133 22t-92.5 57.5t-51.5 74t-20 76.5h202q3 -18 26.5 -37t67.5 -19t67 16.5t23 44.5q0 54 -58 54h-149v170h132q55 0 55 46q0 59 -78 59q-40 0 -59 -17t-23 -34h-198q3 87 76 154t204 67q135 0 207.5 -53.5
t72.5 -155.5q0 -51 -27 -85.5t-63 -48.5q46 -14 79 -55.5t33 -113.5z" />
    <glyph glyph-name="four.tab" horiz-adv-x="650" 
d="M621 182h-94v-182h-189v182h-306v133l267 395h228v-366h94v-162zM209 344h129v197z" />
    <glyph glyph-name="five.tab" horiz-adv-x="650" 
d="M62 296v414h522v-160h-335v-102q43 52 133 52q100 0 164.5 -66.5t64.5 -177.5q0 -118 -77 -193t-214 -75q-75 0 -133.5 22.5t-91.5 58.5t-50 77t-17 84h203q3 -23 26.5 -44.5t62.5 -21.5t64 26t25 63q0 40 -24 64.5t-65 24.5q-33 0 -52 -15.5t-25 -30.5h-181z" />
    <glyph glyph-name="six.tab" horiz-adv-x="650" 
d="M619 254q0 -117 -80 -191.5t-213 -74.5t-214 74t-81 191q0 79 28 141t91 140l140 176h218l-203 -256q39 31 100 31q97 0 155.5 -65t58.5 -166zM419 254q0 40 -26 66t-68 26t-68 -26t-26 -67q0 -40 26 -65.5t68 -25.5q43 0 68.5 25.5t25.5 66.5z" />
    <glyph glyph-name="seven.tab" horiz-adv-x="650" 
d="M605 587l-296 -587h-224l278 534h-318v176h560v-123z" />
    <glyph glyph-name="eight.tab" horiz-adv-x="650" 
d="M619 193q0 -94 -73.5 -149.5t-204.5 -55.5h-31q-131 0 -204.5 55.5t-73.5 149.5q0 70 35 113t80 58q-41 16 -72.5 55t-31.5 105q0 90 70.5 144t197.5 54h29q127 0 197.5 -54t70.5 -144q0 -66 -31.5 -105t-72.5 -55q45 -15 80 -58t35 -113zM330 570h-9q-36 0 -57.5 -18
t-21.5 -50t21.5 -50t57.5 -18h9q36 0 57.5 18t21.5 50t-21.5 50t-57.5 18zM332 286h-13q-36 0 -59.5 -19.5t-23.5 -53.5t23.5 -53.5t59.5 -19.5h13q36 0 59.5 19.5t23.5 53.5t-23.5 53.5t-59.5 19.5z" />
    <glyph glyph-name="nine.tab" horiz-adv-x="650" 
d="M500 176l-140 -176h-218l203 256q-39 -31 -100 -31q-97 0 -155.5 64.5t-58.5 166.5q0 117 80 191.5t213 74.5t214 -74t81 -191q0 -79 -28 -141.5t-91 -139.5zM231 456q0 -40 26 -66t68 -26t68 26t26 67q0 40 -26 65.5t-68 25.5q-43 0 -68.5 -25.5t-25.5 -66.5z" />
    <glyph glyph-name="percent.tab" horiz-adv-x="975" 
d="M228 332q-84 0 -142 56.5t-58 138.5t58 138.5t142 56.5t142 -56.5t58 -138.5t-58 -138.5t-142 -56.5zM141 0l529 710h165l-529 -710h-165zM228 469q26 0 42 16.5t16 41.5t-16 41.5t-42 16.5t-42 -16.5t-16 -41.5t16 -41.5t42 -16.5zM747 -14q-84 0 -142 56.5t-58 138.5
t58 138.5t142 56.5t142 -56.5t58 -138.5t-58 -138.5t-142 -56.5zM747 123q26 0 42 16.5t16 41.5t-16 41.5t-42 16.5t-42 -16.5t-16 -41.5t16 -41.5t42 -16.5z" />
    <glyph glyph-name="perthousand.tab" horiz-adv-x="1300" 
d="M212 356q-79 0 -133.5 53t-54.5 130t54.5 130t133.5 53t133.5 -53t54.5 -130t-54.5 -130t-133.5 -53zM262 0h-163l529 710h163zM212 487q23 0 37.5 15t14.5 37t-14.5 37t-37.5 15t-37.5 -15t-14.5 -37t14.5 -37t37.5 -15zM676 -14q-79 0 -133.5 53t-54.5 130t54.5 130
t133.5 53t133.5 -53t54.5 -130t-54.5 -130t-133.5 -53zM1088 -14q-79 0 -133.5 53t-54.5 130t54.5 130t133.5 53t133.5 -53t54.5 -130t-54.5 -130t-133.5 -53zM676 117q23 0 37.5 15t14.5 37t-14.5 37t-37.5 15t-37.5 -15t-14.5 -37t14.5 -37t37.5 -15zM1088 117
q23 0 37.5 15t14.5 37t-14.5 37t-37.5 15t-37.5 -15t-14.5 -37t14.5 -37t37.5 -15z" />
    <glyph glyph-name="plus.tab" horiz-adv-x="650" 
d="M610 248h-192v-200h-186v200h-192v176h192v197h186v-197h192v-176z" />
    <glyph glyph-name="minus.tab" horiz-adv-x="650" 
d="M595 246h-540v180h540v-180z" />
    <glyph glyph-name="multiply.tab" horiz-adv-x="650" 
d="M595 372h-540v175h540v-175zM595 123h-540v175h540v-175z" />
    <glyph glyph-name="divide.tab" horiz-adv-x="650" 
d="M218 478v190h210v-190h-210zM608 248h-570v176h570v-176zM218 0v190h210v-190h-210z" />
    <glyph glyph-name="equal.tab" horiz-adv-x="650" 
d="M606 178l-131 -127l-151 153l-150 -153l-129 124l153 156l-153 155l131 129l151 -153l150 153l129 -124l-154 -157z" />
    <glyph glyph-name="less.tab" horiz-adv-x="650" 
d="M561 233v-188l-481 208v167l481 208v-189l-251 -103z" />
    <glyph glyph-name="greater.tab" horiz-adv-x="650" 
d="M571 253l-481 -208v189l251 104l-251 102v188l481 -208v-167z" />
    <glyph glyph-name="period.tab" horiz-adv-x="325" 
d="M52 0v222h222v-222h-222z" />
    <glyph glyph-name="comma.tab" horiz-adv-x="352" 
d="M226 -193h-133q70 112 79 193h-107v222h222v-192q0 -120 -61 -223z" />
    <glyph glyph-name="colon.tab" horiz-adv-x="362" 
d="M70 0v222h222v-222h-222zM70 307v222h222v-222h-222z" />
    <glyph glyph-name="semicolon.tab" horiz-adv-x="362" 
d="M70 307v222h222v-222h-222zM231 -193h-133q70 112 79 193h-107v222h222v-192q0 -120 -61 -223z" />
    <glyph glyph-name="a.alt" horiz-adv-x="608" 
d="M589 0h-114q-75 0 -99 56q-49 -68 -151 -68q-89 0 -143 50.5t-54 128.5q0 79 53 121.5t147 42.5h136v7q0 25 -16.5 42.5t-48.5 17.5q-47 0 -61 -31h-196q1 23 14 50.5t40 57t79 49t120 19.5q129 0 195.5 -57.5t66.5 -159.5v-145q0 -35 32 -37v-144zM291 120q33 0 53 18.5
t20 47.5v28h-88q-52 0 -52 -42q0 -24 17.5 -38t49.5 -14z" />
    <glyph glyph-name="u.alt" horiz-adv-x="645" 
d="M390 0v58q-19 -27 -55.5 -48.5t-89.5 -21.5q-86 0 -137.5 58t-51.5 152v331h196v-295q0 -34 18.5 -54.5t50.5 -20.5q33 0 51 20.5t18 54.5v295h196v-529h-196z" />
    <glyph glyph-name="aacute.alt" horiz-adv-x="608" 
d="M589 0h-114q-75 0 -99 56q-49 -68 -151 -68q-89 0 -143 50.5t-54 128.5q0 79 53 121.5t147 42.5h136v7q0 25 -16.5 42.5t-48.5 17.5q-47 0 -61 -31h-196q1 23 14 50.5t40 57t79 49t120 19.5q129 0 195.5 -57.5t66.5 -159.5v-145q0 -35 32 -37v-144zM291 120q33 0 53 18.5
t20 47.5v28h-88q-52 0 -52 -42q0 -24 17.5 -38t49.5 -14zM203 583l102 194h194l-109 -194h-187z" />
    <glyph glyph-name="abreve.alt" horiz-adv-x="608" 
d="M589 0h-114q-75 0 -99 56q-49 -68 -151 -68q-89 0 -143 50.5t-54 128.5q0 79 53 121.5t147 42.5h136v7q0 25 -16.5 42.5t-48.5 17.5q-47 0 -61 -31h-196q1 23 14 50.5t40 57t79 49t120 19.5q129 0 195.5 -57.5t66.5 -159.5v-145q0 -35 32 -37v-144zM291 120q33 0 53 18.5
t20 47.5v28h-88q-52 0 -52 -42q0 -24 17.5 -38t49.5 -14zM295 708q40 0 40 42v15h145v-18q0 -74 -46 -122t-139 -48t-139 48t-46 122v18h145v-15q0 -42 40 -42z" />
    <glyph glyph-name="acircumflex.alt" horiz-adv-x="608" 
d="M589 0h-114q-75 0 -99 56q-49 -68 -151 -68q-89 0 -143 50.5t-54 128.5q0 79 53 121.5t147 42.5h136v7q0 25 -16.5 42.5t-48.5 17.5q-47 0 -61 -31h-196q1 23 14 50.5t40 57t79 49t120 19.5q129 0 195.5 -57.5t66.5 -159.5v-145q0 -35 32 -37v-144zM291 120q33 0 53 18.5
t20 47.5v28h-88q-52 0 -52 -42q0 -24 17.5 -38t49.5 -14zM346 583l-50 84l-51 -84h-167l128 201h180l124 -201h-164z" />
    <glyph glyph-name="adieresis.alt" horiz-adv-x="608" 
d="M589 0h-114q-75 0 -99 56q-49 -68 -151 -68q-89 0 -143 50.5t-54 128.5q0 79 53 121.5t147 42.5h136v7q0 25 -16.5 42.5t-48.5 17.5q-47 0 -61 -31h-196q1 23 14 50.5t40 57t79 49t120 19.5q129 0 195.5 -57.5t66.5 -159.5v-145q0 -35 32 -37v-144zM291 120q33 0 53 18.5
t20 47.5v28h-88q-52 0 -52 -42q0 -24 17.5 -38t49.5 -14zM75 583v168h192v-168h-192zM323 583v168h192v-168h-192z" />
    <glyph glyph-name="agrave.alt" horiz-adv-x="608" 
d="M589 0h-114q-75 0 -99 56q-49 -68 -151 -68q-89 0 -143 50.5t-54 128.5q0 79 53 121.5t147 42.5h136v7q0 25 -16.5 42.5t-48.5 17.5q-47 0 -61 -31h-196q1 23 14 50.5t40 57t79 49t120 19.5q129 0 195.5 -57.5t66.5 -159.5v-145q0 -35 32 -37v-144zM291 120q33 0 53 18.5
t20 47.5v28h-88q-52 0 -52 -42q0 -24 17.5 -38t49.5 -14zM389 583h-187l-109 194h194z" />
    <glyph glyph-name="amacron.alt" horiz-adv-x="608" 
d="M589 0h-114q-75 0 -99 56q-49 -68 -151 -68q-89 0 -143 50.5t-54 128.5q0 79 53 121.5t147 42.5h136v7q0 25 -16.5 42.5t-48.5 17.5q-47 0 -61 -31h-196q1 23 14 50.5t40 57t79 49t120 19.5q129 0 195.5 -57.5t66.5 -159.5v-145q0 -35 32 -37v-144zM291 120q33 0 53 18.5
t20 47.5v28h-88q-52 0 -52 -42q0 -24 17.5 -38t49.5 -14zM469 599h-346v144h346v-144z" />
    <glyph glyph-name="aogonek.alt" horiz-adv-x="608" 
d="M610 -71v-122h-177q-55 0 -86.5 22.5t-31.5 63.5q0 37 29.5 64t85.5 50q-40 13 -54 49q-49 -68 -151 -68q-89 0 -143 50.5t-54 128.5q0 79 53 121.5t147 42.5h136v7q0 25 -16.5 42.5t-48.5 17.5q-28 0 -43.5 -10.5t-18.5 -20.5h-199q1 23 14.5 50.5t40.5 57t80 49
t122 19.5q129 0 195.5 -57.5t66.5 -159.5v-145q0 -35 32 -37v-144q-5 -4 -12.5 -9.5t-12 -8.5t-10.5 -7.5t-9 -7.5t-6 -6.5t-4.5 -7t-1.5 -6.5q0 -18 22 -18h55zM291 120q33 0 53 18.5t20 47.5v28h-88q-52 0 -52 -42q0 -24 17.5 -38t49.5 -14z" />
    <glyph glyph-name="aring.alt" horiz-adv-x="608" 
d="M589 0h-114q-75 0 -99 56q-49 -68 -151 -68q-89 0 -143 50.5t-54 128.5q0 79 53 121.5t147 42.5h136v7q0 25 -16.5 42.5t-48.5 17.5q-47 0 -61 -31h-196q1 23 14 50.5t40 57t79 49t120 19.5q129 0 195.5 -57.5t66.5 -159.5v-145q0 -35 32 -37v-144zM291 120q33 0 53 18.5
t20 47.5v28h-88q-52 0 -52 -42q0 -24 17.5 -38t49.5 -14zM295 574q-63 0 -104 40.5t-41 101.5q0 62 40.5 102t104.5 40t105 -40t41 -102q0 -60 -41.5 -101t-104.5 -41zM295 664q22 0 36.5 14.5t14.5 37.5t-14 37.5t-37 14.5t-37 -14.5t-14 -37.5t14.5 -37.5t36.5 -14.5z" />
    <glyph glyph-name="aringacute.alt" horiz-adv-x="608" 
d="M589 0h-114q-75 0 -99 56q-49 -68 -151 -68q-89 0 -143 50.5t-54 128.5q0 79 53 121.5t147 42.5h136v7q0 25 -16.5 42.5t-48.5 17.5q-47 0 -61 -31h-196q1 23 14 50.5t40 57t79 49t120 19.5q129 0 195.5 -57.5t66.5 -159.5v-145q0 -35 32 -37v-144zM291 120q33 0 53 18.5
t20 47.5v28h-88q-52 0 -52 -42q0 -24 17.5 -38t49.5 -14zM206 889l88 163h194l-95 -163h-187zM296 574q-63 0 -104 40.5t-41 101.5q0 62 40.5 102t104.5 40t105 -40t41 -102q0 -60 -41.5 -101t-104.5 -41zM296 664q22 0 36.5 14.5t14.5 37.5t-14 37.5t-37 14.5t-37 -14.5
t-14 -37.5t14.5 -37.5t36.5 -14.5z" />
    <glyph glyph-name="atilde.alt" horiz-adv-x="608" 
d="M589 0h-114q-75 0 -99 56q-49 -68 -151 -68q-89 0 -143 50.5t-54 128.5q0 79 53 121.5t147 42.5h136v7q0 25 -16.5 42.5t-48.5 17.5q-47 0 -61 -31h-196q1 23 14 50.5t40 57t79 49t120 19.5q129 0 195.5 -57.5t66.5 -159.5v-145q0 -35 32 -37v-144zM291 120q33 0 53 18.5
t20 47.5v28h-88q-52 0 -52 -42q0 -24 17.5 -38t49.5 -14zM239 579h-127v98q0 46 23.5 72t67.5 26q35 0 81 -24l29 -14q16 -8 24 -8q14 0 14 19v32h128v-98q0 -46 -24 -72t-68 -26q-35 0 -81 24l-29 14q-18 8 -24 8q-14 0 -14 -19v-32z" />
    <glyph glyph-name="uacute.alt" horiz-adv-x="645" 
d="M390 0v58q-19 -27 -55.5 -48.5t-89.5 -21.5q-86 0 -137.5 58t-51.5 152v331h196v-295q0 -34 18.5 -54.5t50.5 -20.5q33 0 51 20.5t18 54.5v295h196v-529h-196zM228 583l102 194h194l-109 -194h-187z" />
    <glyph glyph-name="ubreve.alt" horiz-adv-x="645" 
d="M390 0v58q-19 -27 -55.5 -48.5t-89.5 -21.5q-86 0 -137.5 58t-51.5 152v331h196v-295q0 -34 18.5 -54.5t50.5 -20.5q33 0 51 20.5t18 54.5v295h196v-529h-196zM321 708q40 0 40 42v15h145v-18q0 -74 -46 -122t-139 -48t-139 48t-46 122v18h145v-15q0 -42 40 -42z" />
    <glyph glyph-name="ucircumflex.alt" horiz-adv-x="645" 
d="M390 0v58q-19 -27 -55.5 -48.5t-89.5 -21.5q-86 0 -137.5 58t-51.5 152v331h196v-295q0 -34 18.5 -54.5t50.5 -20.5q33 0 51 20.5t18 54.5v295h196v-529h-196zM371 583l-50 84l-51 -84h-167l128 201h180l124 -201h-164z" />
    <glyph glyph-name="udieresis.alt" horiz-adv-x="645" 
d="M390 0v58q-19 -27 -55.5 -48.5t-89.5 -21.5q-86 0 -137.5 58t-51.5 152v331h196v-295q0 -34 18.5 -54.5t50.5 -20.5q33 0 51 20.5t18 54.5v295h196v-529h-196zM101 583v168h192v-168h-192zM349 583v168h192v-168h-192z" />
    <glyph glyph-name="ugrave.alt" horiz-adv-x="645" 
d="M390 0v58q-19 -27 -55.5 -48.5t-89.5 -21.5q-86 0 -137.5 58t-51.5 152v331h196v-295q0 -34 18.5 -54.5t50.5 -20.5q33 0 51 20.5t18 54.5v295h196v-529h-196zM414 583h-187l-109 194h194z" />
    <glyph glyph-name="uhungarumlaut.alt" horiz-adv-x="645" 
d="M390 0v58q-19 -27 -55.5 -48.5t-89.5 -21.5q-86 0 -137.5 58t-51.5 152v331h196v-295q0 -34 18.5 -54.5t50.5 -20.5q33 0 51 20.5t18 54.5v295h196v-529h-196zM343 583l68 194h159l-71 -194h-156zM131 583l68 194h159l-71 -194h-156z" />
    <glyph glyph-name="umacron.alt" horiz-adv-x="645" 
d="M390 0v58q-19 -27 -55.5 -48.5t-89.5 -21.5q-86 0 -137.5 58t-51.5 152v331h196v-295q0 -34 18.5 -54.5t50.5 -20.5q33 0 51 20.5t18 54.5v295h196v-529h-196zM494 599h-346v144h346v-144z" />
    <glyph glyph-name="uogonek.alt" horiz-adv-x="645" 
d="M390 0v58q-19 -27 -55.5 -48.5t-89.5 -21.5q-86 0 -137.5 58t-51.5 152v331h196v-295q0 -34 18.5 -54.5t50.5 -20.5q33 0 51 20.5t18 54.5v295h196v-529q-5 -4 -12.5 -9.5t-12 -8.5t-10.5 -7.5t-9 -7.5t-6 -6.5t-4.5 -7t-1.5 -6.5q0 -18 22 -18h55v-122h-177
q-55 0 -86.5 22.5t-31.5 63.5q0 52 78 107z" />
    <glyph glyph-name="uring.alt" horiz-adv-x="645" 
d="M390 0v58q-19 -27 -55.5 -48.5t-89.5 -21.5q-86 0 -137.5 58t-51.5 152v331h196v-295q0 -34 18.5 -54.5t50.5 -20.5q33 0 51 20.5t18 54.5v295h196v-529h-196zM321 574q-63 0 -104 40.5t-41 101.5q0 62 40.5 102t104.5 40t105 -40t41 -102q0 -60 -41.5 -101t-104.5 -41z
M321 664q22 0 36.5 14.5t14.5 37.5t-14 37.5t-37 14.5t-37 -14.5t-14 -37.5t14.5 -37.5t36.5 -14.5z" />
    <glyph glyph-name="utilde.alt" horiz-adv-x="645" 
d="M390 0v58q-19 -27 -55.5 -48.5t-89.5 -21.5q-86 0 -137.5 58t-51.5 152v331h196v-295q0 -34 18.5 -54.5t50.5 -20.5q33 0 51 20.5t18 54.5v295h196v-529h-196zM265 579h-127v98q0 46 23.5 72t67.5 26q35 0 81 -24l29 -14q16 -8 24 -8q14 0 14 19v32h128v-98
q0 -46 -24 -72t-68 -26q-35 0 -81 24l-29 14q-18 8 -24 8q-14 0 -14 -19v-32z" />
    <glyph glyph-name="space_uni0326.alt" horiz-adv-x="500" 
d="M187 846h123q-36 -66 -49 -112h92v-151h-206v107q0 70 40 156z" />
    <glyph glyph-name="four.alt" horiz-adv-x="742" 
d="M712 188h-130v-188h-200v188h-316v522h200v-345h116v262h200v-262h130v-177z" />
    <glyph glyph-name="onequarter.alt" horiz-adv-x="1156" 
d="M307 712v-454h-158v295l-117 -59v133l156 85h119zM329 0h-154l477 710h154zM1130 113h-83v-113h-153v113h-222v339h153v-212h69v161h153v-161h83v-127z" />
    <glyph glyph-name="threequarters.alt" horiz-adv-x="1254" 
d="M449 395q0 -67 -55 -106t-156 -39q-102 0 -156 48t-57 104h160q0 -4 4.5 -10.5t17.5 -13.5t31 -7q52 0 52 32q0 25 -35 25h-99v120h88q32 0 32 21q0 31 -45 31q-23 0 -34 -9.5t-12 -18.5h-156q0 57 53.5 101.5t148.5 44.5q203 0 203 -136q0 -57 -60 -81q31 -10 53 -36
t22 -70zM427 0h-154l477 710h154zM1228 113h-83v-113h-153v113h-222v339h153v-212h69v161h153v-161h83v-127z" />
    <glyph glyph-name="caron.alt" 
d="M187 583l51 194h169l-59 -194h-161z" />
    <glyph glyph-name="questiondown.uc" horiz-adv-x="554" 
d="M226 458v11h194v-49q0 -51 -16.5 -76.5t-70.5 -55.5l-66 -35q-46 -24 -46 -58q0 -49 56 -49q57 0 57 59v23h191v-38q0 -92 -65.5 -147t-182.5 -55q-122 0 -187 54t-65 154q0 73 32.5 117.5t107.5 84.5l39 21q22 12 22 39zM434 710v-192h-222v192h222z" />
    <glyph glyph-name="exclamdown.uc" horiz-adv-x="352" 
d="M65 518v192h222v-192h-222zM78 0v469h196v-469h-196z" />
    <glyph glyph-name="hyphen.uc" horiz-adv-x="487" 
d="M72 249v180h343v-180h-343z" />
    <glyph glyph-name="endash.uc" horiz-adv-x="716" 
d="M72 276v125h572v-125h-572z" />
    <glyph glyph-name="emdash.uc" horiz-adv-x="1037" 
d="M72 276v125h893v-125h-893z" />
    <glyph glyph-name="quoteleft.uc" horiz-adv-x="346" 
d="M123 710h131q-62 -98 -72 -182h102v-202h-217v172q0 116 56 212z" />
    <glyph glyph-name="quoteright.uc" horiz-adv-x="346" 
d="M223 326h-131q62 98 72 182h-102v202h217v-172q0 -116 -56 -212z" />
    <glyph glyph-name="quotedblleft.uc" horiz-adv-x="625" 
d="M123 710h131q-62 -98 -72 -182h98v-202h-213v172q0 116 56 212zM406 710h131q-62 -98 -72 -182h98v-202h-213v172q0 116 56 212z" />
    <glyph glyph-name="quotedblright.uc" horiz-adv-x="625" 
d="M502 326h-131q62 98 72 182h-98v202h213v-172q0 -116 -56 -212zM219 326h-131q62 98 72 182h-98v202h213v-172q0 -116 -56 -212z" />
    <glyph glyph-name="guilsinglleft.uc" horiz-adv-x="376" 
d="M326 527l-102 -194l102 -196h-178l-98 195l99 195h177z" />
    <glyph glyph-name="guilsinglright.uc" horiz-adv-x="376" 
d="M326 332l-99 -195h-177l102 194l-102 196h178z" />
    <glyph glyph-name="guillemotleft.uc" horiz-adv-x="630" 
d="M324 527l-100 -194l100 -196h-178l-96 195l97 195h177zM580 527l-103 -194l103 -196h-178l-99 195l100 195h177z" />
    <glyph glyph-name="guillemotright.uc" horiz-adv-x="630" 
d="M580 332l-97 -195h-177l100 194l-99 196h178zM327 332l-99 -195h-177l102 194l-103 196h178z" />
    <glyph glyph-name="at.uc" horiz-adv-x="1006" 
d="M755 64h177q-17 -29 -46 -57t-75.5 -57t-118 -47t-155.5 -18q-117 0 -212.5 35.5t-157 98t-95 146t-33.5 179.5q0 204 137 336t350 132q215 0 332 -110t117 -282q0 -134 -64.5 -217.5t-174.5 -83.5q-105 0 -140 61q-48 -61 -135 -61q-88 0 -144 59t-56 161
q0 107 59.5 175.5t152.5 68.5q81 0 114 -61l9 51h171l-47 -286q-8 -52 32 -52q41 0 69 48.5t28 136.5q0 132 -83.5 204t-239.5 72q-154 0 -252.5 -98t-98.5 -256q0 -150 99.5 -244.5t262.5 -94.5q129 0 218 61zM504 432q-29 0 -48 -25.5t-19 -67.5q0 -31 15.5 -49t42.5 -18
q29 0 48 25.5t19 67.5q0 31 -15.5 49t-42.5 18z" />
    <glyph glyph-name="grave.uc" 
d="M455 764h-198l-112 168h206z" />
    <glyph glyph-name="dieresis.uc" 
d="M78 764v168h193v-168h-193zM329 764v168h193v-168h-193z" />
    <glyph glyph-name="macron.uc" horiz-adv-x="500" 
d="M435 777h-370v144h370v-144z" />
    <glyph glyph-name="acute.uc" 
d="M145 764l104 168h206l-112 -168h-198z" />
    <glyph glyph-name="circumflex.uc" 
d="M315 764l-55 69l-55 -69h-174l133 171h192l130 -171h-171z" />
    <glyph glyph-name="caron.uc" 
d="M492 935l-140 -171h-190l-137 171h173l59 -71l59 71h176z" />
    <glyph glyph-name="breve.uc" 
d="M300 887q43 0 43 42v8h145v-11q0 -74 -47 -121.5t-141 -47.5t-141 47.5t-47 121.5v11h145v-8q0 -42 43 -42z" />
    <glyph glyph-name="dotaccent.uc" 
d="M197 764v168h206v-168h-206z" />
    <glyph glyph-name="ring.uc" 
d="M300 754q-64 0 -105 40.5t-41 102.5q0 63 41 103t105 40q66 0 106.5 -40t40.5 -103q0 -62 -41.5 -102.5t-105.5 -40.5zM300 844q23 0 37.5 15t14.5 38q0 24 -14.5 38.5t-37.5 14.5t-37.5 -14.5t-14.5 -38.5q0 -23 14.5 -38t37.5 -15z" />
    <glyph glyph-name="tilde.uc" 
d="M310 790l-33 15q-18 8 -25 8q-14 0 -14 -18v-33h-131v98q0 46 24.5 72t71.5 26q34 0 87 -24l32 -15q18 -8 27 -8q13 0 13 19v33h131v-98q0 -46 -25 -72t-71 -26q-38 0 -87 23z" />
    <glyph glyph-name="hungarumlaut.uc" 
d="M289 764l76 168h185l-83 -168h-178zM50 764l71 168h186l-78 -168h-179z" />
    <glyph glyph-name="A.sc" horiz-adv-x="683" 
d="M461 0l-22 70h-213l-22 -70h-191l205 598h245l207 -598h-209zM275 224h116l-58 185z" />
    <glyph glyph-name="B.sc" horiz-adv-x="695" 
d="M78 0v598h354q96 0 148.5 -43.5t52.5 -114.5q0 -46 -24.5 -77.5t-60.5 -44.5q43 -13 72.5 -51t29.5 -97q0 -79 -55 -124.5t-158 -45.5h-359zM383 455h-109v-79h109q46 0 46 40q0 39 -46 39zM386 236h-112v-93h112q58 0 58 47q0 46 -58 46z" />
    <glyph glyph-name="C.sc" horiz-adv-x="640" 
d="M338 -12q-130 0 -210.5 82t-80.5 229q0 145 80 228t211 83q66 0 117.5 -21.5t81 -56t45 -70.5t17.5 -72h-191q-20 45 -70 45q-41 0 -64 -36.5t-23 -99.5t23 -99.5t64 -36.5q54 0 70 44h191q-1 -24 -9 -51t-27.5 -57.5t-47.5 -54.5t-74 -40t-103 -16z" />
    <glyph glyph-name="D.sc" horiz-adv-x="685" 
d="M78 0v598h235q151 0 238 -72.5t87 -226.5q0 -150 -87.5 -224.5t-237.5 -74.5h-235zM309 432h-31v-265h31q61 0 93.5 33.5t32.5 98.5q0 133 -126 133z" />
    <glyph glyph-name="E.sc" horiz-adv-x="638" 
d="M78 0v598h498v-152h-297v-61h174v-158h-174v-67h324v-160h-525z" />
    <glyph glyph-name="F.sc" horiz-adv-x="637" 
d="M78 0v598h524v-153h-324v-77h180v-158h-180v-210h-200z" />
    <glyph glyph-name="G.sc" horiz-adv-x="691" 
d="M626 51q-102 -63 -246 -63q-155 0 -244 83t-89 233q0 139 85 222.5t221 83.5q68 0 121 -19t83 -49t46 -61t18 -62h-193q-29 29 -72 29q-52 0 -82.5 -37t-30.5 -107q0 -71 34.5 -112t102.5 -41q45 0 57 4v63h-117v150h306v-317z" />
    <glyph glyph-name="H.sc" horiz-adv-x="733" 
d="M455 0v212h-177v-212h-200v598h200v-214h177v214h200v-598h-200z" />
    <glyph glyph-name="I.sc" horiz-adv-x="360" 
d="M80 0v598h200v-598h-200z" />
    <glyph glyph-name="J.sc" horiz-adv-x="626" 
d="M551 200q0 -94 -64.5 -153t-186.5 -59q-119 0 -178 58.5t-59 153.5v172h187v-150q0 -60 50 -60q25 0 37.5 17t12.5 43v376h201v-398z" />
    <glyph glyph-name="K.sc" horiz-adv-x="692" 
d="M440 0l-162 239v-239h-200v598h200v-227l163 227h237l-204 -280l215 -318h-249z" />
    <glyph glyph-name="L.sc" horiz-adv-x="593" 
d="M558 172v-172h-480v598h200v-426h280z" />
    <glyph glyph-name="M.sc" horiz-adv-x="869" 
d="M364 598l74 -256l72 256h281v-598h-191v380l-108 -379h-125l-110 380v-381h-179v598h286z" />
    <glyph glyph-name="N.sc" horiz-adv-x="730" 
d="M652 598v-600h-167l-215 318v-316h-192v598h218l169 -258v258h187z" />
    <glyph glyph-name="O.sc" horiz-adv-x="699" 
d="M349 -12q-129 0 -215.5 82t-86.5 229q0 149 86 230t216 81t216.5 -81t86.5 -230q0 -147 -87 -229t-216 -82zM349 163q47 0 73.5 37.5t26.5 98.5q0 62 -26.5 99t-73.5 37t-73.5 -37.5t-26.5 -98.5t26.5 -98.5t73.5 -37.5z" />
    <glyph glyph-name="P.sc" horiz-adv-x="685" 
d="M78 0v598h335q108 0 169.5 -54t61.5 -157q0 -104 -61.5 -157.5t-169.5 -53.5h-136v-176h-199zM378 437h-101v-100h101q61 0 61 50t-61 50z" />
    <glyph glyph-name="Q.sc" horiz-adv-x="699" 
d="M652 299q0 -170 -118 -254l116 -173h-231l-72 118q-128 0 -214 81.5t-86 227.5q0 149 86 230t216 81t216.5 -81t86.5 -230zM349 162q47 0 73.5 37.5t26.5 99.5t-26.5 99t-73.5 37t-73.5 -37.5t-26.5 -98.5q0 -62 26.5 -99.5t73.5 -37.5z" />
    <glyph glyph-name="R.sc" horiz-adv-x="707" 
d="M77 0v598h339q104 0 165.5 -54.5t61.5 -155.5q0 -113 -88 -168l129 -220h-211l-107 186h-90v-186h-199zM379 437h-103v-98h103q59 0 59 49t-59 49z" />
    <glyph glyph-name="S.sc" horiz-adv-x="637" 
d="M299 463q-51 0 -51 -32q0 -27 49 -33l42 -5q131 -15 191.5 -60t60.5 -140t-69 -150t-199 -55q-74 0 -131.5 19t-90 49.5t-50 61t-22.5 62.5h211q8 -16 29 -29.5t54 -13.5q60 0 60 36q0 17 -12.5 26t-41.5 13l-42 5q-123 15 -183.5 63t-60.5 139t69.5 141t186.5 50
q72 0 126 -17t84 -45.5t45.5 -55.5t22.5 -57h-200q-24 28 -78 28z" />
    <glyph glyph-name="T.sc" horiz-adv-x="632" 
d="M35 428v170h562v-170h-181v-428h-199v428h-182z" />
    <glyph glyph-name="U.sc" horiz-adv-x="716" 
d="M360 167q41 0 63 25.5t22 70.5v335h198v-347q0 -117 -73.5 -190t-209.5 -73q-138 0 -212.5 73t-74.5 190v347h201v-335q0 -45 22.5 -70.5t63.5 -25.5z" />
    <glyph glyph-name="V.sc" horiz-adv-x="669" 
d="M654 598l-201 -598h-219l-219 598h227l104 -326l101 326h207z" />
    <glyph glyph-name="W.sc" horiz-adv-x="893" 
d="M521 0l-77 302l-78 -302h-189l-162 598h208l71 -312l75 312h169l77 -321l73 321h190l-155 -598h-202z" />
    <glyph glyph-name="X.sc" horiz-adv-x="697" 
d="M454 0l-111 147l-114 -147h-226l228 296l-227 302h251l102 -139l108 139h228l-225 -290l226 -308h-240z" />
    <glyph glyph-name="Y.sc" horiz-adv-x="652" 
d="M439 232v-232h-214v239l-227 359h240l102 -171l101 171h213z" />
    <glyph glyph-name="Z.sc" horiz-adv-x="654" 
d="M619 168v-168h-573v113l255 319h-246v166h538v-110l-255 -320h281z" />
    <glyph glyph-name="Oslash.sc" horiz-adv-x="699" 
d="M652 299q0 -147 -86 -229t-215 -82q-79 0 -149 37l-21 -25h-168l92 109q-58 77 -58 190q0 149 85.5 230t214.5 81q79 0 149 -36l21 24h169l-91 -108q57 -78 57 -191zM232 299q0 -15 2 -37l151 180q-22 2 -36 2q-55 0 -86 -40t-31 -105zM465 299q0 25 -1 36l-152 -180
q16 -3 37 -3q55 0 85.5 40.5t30.5 106.5z" />
    <glyph glyph-name="AE.sc" horiz-adv-x="925" 
d="M890 162v-162h-489v96h-159l-42 -96h-207l271 598h599v-152h-270v-60h167v-158h-167v-66h297zM310 248h91v207z" />
    <glyph glyph-name="OE.sc" horiz-adv-x="926" 
d="M47 299q0 146 91 222.5t244 76.5h482v-152h-270v-60h167v-158h-167v-66h297v-162h-509q-153 0 -244 76.5t-91 222.5zM386 167h16v265h-16q-65 0 -100.5 -35t-35.5 -98t35.5 -97.5t100.5 -34.5z" />
    <glyph glyph-name="Eth.sc" horiz-adv-x="694" 
d="M17 377h70v221h235q151 0 238 -72.5t87 -226.5q0 -150 -87.5 -224.5t-237.5 -74.5h-235v225h-70v152zM377 225h-90v-62h31q61 0 93.5 35t32.5 101q0 137 -126 137h-31v-59h90v-152z" />
    <glyph glyph-name="Dcroat.sc" horiz-adv-x="694" 
d="M17 377h70v221h235q151 0 238 -72.5t87 -226.5q0 -150 -87.5 -224.5t-237.5 -74.5h-235v225h-70v152zM377 225h-90v-62h31q61 0 93.5 35t32.5 101q0 137 -126 137h-31v-59h90v-152z" />
    <glyph glyph-name="Eng.sc" horiz-adv-x="730" 
d="M652 -14q0 -78 -32 -109.5t-101 -31.5h-180v135h95q38 0 38 24q0 13 -23 47l-179 263v-314h-192v598h218l168 -256v256h188v-612z" />
    <glyph glyph-name="IJ.sc" horiz-adv-x="986" 
d="M80 0v598h200v-598h-200zM911 200q0 -94 -64.5 -153t-186.5 -59q-119 0 -178 58.5t-59 153.5v172h187v-150q0 -60 50 -60q25 0 37.5 17t12.5 43v376h201v-398z" />
    <glyph glyph-name="dotlessj.sc" horiz-adv-x="626" 
d="M551 200q0 -94 -64.5 -153t-186.5 -59q-119 0 -178 58.5t-59 153.5v172h187v-150q0 -60 50 -60q25 0 37.5 17t12.5 43v376h201v-398z" />
    <glyph glyph-name="Aacute.sc" horiz-adv-x="683" 
d="M461 0l-22 70h-213l-22 -70h-191l205 598h245l207 -598h-209zM275 224h116l-58 185zM235 652l104 168h206l-112 -168h-198z" />
    <glyph glyph-name="Abreve.sc" horiz-adv-x="683" 
d="M461 0l-22 70h-213l-22 -70h-191l205 598h245l207 -598h-209zM275 224h116l-58 185zM333 775q43 0 43 42v8h145v-11q0 -74 -47 -121.5t-141 -47.5t-141 47.5t-47 121.5v11h145v-8q0 -42 43 -42z" />
    <glyph glyph-name="Acircumflex.sc" horiz-adv-x="683" 
d="M461 0l-22 70h-213l-22 -70h-191l205 598h245l207 -598h-209zM275 224h116l-58 185zM388 652l-55 69l-55 -69h-174l133 171h192l130 -171h-171z" />
    <glyph glyph-name="Adieresis.sc" horiz-adv-x="683" 
d="M461 0l-22 70h-213l-22 -70h-191l205 598h245l207 -598h-209zM275 224h116l-58 185zM111 652v168h193v-168h-193zM362 652v168h193v-168h-193z" />
    <glyph glyph-name="Agrave.sc" horiz-adv-x="683" 
d="M461 0l-22 70h-213l-22 -70h-191l205 598h245l207 -598h-209zM275 224h116l-58 185zM434 652h-198l-112 168h206z" />
    <glyph glyph-name="Amacron.sc" horiz-adv-x="683" 
d="M461 0l-22 70h-213l-22 -70h-191l205 598h245l207 -598h-209zM275 224h116l-58 185zM518 665h-370v144h370v-144z" />
    <glyph glyph-name="Aogonek.sc" horiz-adv-x="683" 
d="M461 0l-22 70h-213l-22 -70h-191l205 598h245l207 -598q-5 -4 -12.5 -9.5t-12 -8.5t-10.5 -7.5t-9 -7.5t-6 -6.5t-4.5 -7t-1.5 -6.5q0 -18 22 -18h55v-122h-177q-55 0 -86.5 22.5t-31.5 63.5q0 55 65 107zM275 224h116l-58 185z" />
    <glyph glyph-name="Aring.sc" horiz-adv-x="683" 
d="M461 0l-22 70h-213l-22 -70h-191l205 598h245l207 -598h-209zM275 224h116l-58 185zM333 642q-64 0 -105 40.5t-41 102.5q0 63 41 103t105 40q66 0 106.5 -40t40.5 -103q0 -62 -41.5 -102.5t-105.5 -40.5zM333 732q23 0 37.5 15t14.5 38q0 24 -14.5 38.5t-37.5 14.5
t-37.5 -14.5t-14.5 -38.5q0 -23 14.5 -38t37.5 -15z" />
    <glyph glyph-name="Atilde.sc" horiz-adv-x="683" 
d="M461 0l-22 70h-213l-22 -70h-191l205 598h245l207 -598h-209zM275 224h116l-58 185zM343 678l-33 15q-18 8 -25 8q-14 0 -14 -18v-33h-131v98q0 46 24.5 72t71.5 26q34 0 87 -24l32 -15q18 -8 27 -8q13 0 13 19v33h131v-98q0 -46 -25 -72t-71 -26q-38 0 -87 23z" />
    <glyph glyph-name="AEacute.sc" horiz-adv-x="925" 
d="M890 162v-162h-489v96h-159l-42 -96h-207l271 598h599v-152h-270v-60h167v-158h-167v-66h297zM310 248h91v207zM460 652l104 168h206l-112 -168h-198z" />
    <glyph glyph-name="Cacute.sc" horiz-adv-x="640" 
d="M338 -12q-130 0 -210.5 82t-80.5 229q0 145 80 228t211 83q66 0 117.5 -21.5t81 -56t45 -70.5t17.5 -72h-191q-20 45 -70 45q-41 0 -64 -36.5t-23 -99.5t23 -99.5t64 -36.5q54 0 70 44h191q-1 -24 -9 -51t-27.5 -57.5t-47.5 -54.5t-74 -40t-103 -16zM240 652l104 168h206
l-112 -168h-198z" />
    <glyph glyph-name="Ccaron.sc" horiz-adv-x="640" 
d="M338 -12q-130 0 -210.5 82t-80.5 229q0 145 80 228t211 83q66 0 117.5 -21.5t81 -56t45 -70.5t17.5 -72h-191q-20 45 -70 45q-41 0 -64 -36.5t-23 -99.5t23 -99.5t64 -36.5q54 0 70 44h191q-1 -24 -9 -51t-27.5 -57.5t-47.5 -54.5t-74 -40t-103 -16zM573 823l-140 -171
h-190l-137 171h173l59 -71l59 71h176z" />
    <glyph glyph-name="Ccedilla.sc" horiz-adv-x="640" 
d="M338 -12q-130 0 -210.5 82t-80.5 229q0 145 80 228t211 83q66 0 117.5 -21.5t81 -56t45 -70.5t17.5 -72h-191q-20 45 -70 45q-41 0 -64 -36.5t-23 -99.5t23 -99.5t64 -36.5q54 0 70 44h191q-1 -24 -9 -51t-27.5 -57.5t-47.5 -54.5t-74 -40t-103 -16zM504 -164
q0 -64 -35 -98.5t-103 -34.5h-138v116h107q27 0 27 24q0 22 -27 22h-86v135h132v-37q58 -1 90.5 -34t32.5 -93z" />
    <glyph glyph-name="Ccircumflex.sc" horiz-adv-x="640" 
d="M338 -12q-130 0 -210.5 82t-80.5 229q0 145 80 228t211 83q66 0 117.5 -21.5t81 -56t45 -70.5t17.5 -72h-191q-20 45 -70 45q-41 0 -64 -36.5t-23 -99.5t23 -99.5t64 -36.5q54 0 70 44h191q-1 -24 -9 -51t-27.5 -57.5t-47.5 -54.5t-74 -40t-103 -16zM393 652l-55 69
l-55 -69h-174l133 171h192l130 -171h-171z" />
    <glyph glyph-name="Cdotaccent.sc" horiz-adv-x="640" 
d="M338 -12q-130 0 -210.5 82t-80.5 229q0 145 80 228t211 83q66 0 117.5 -21.5t81 -56t45 -70.5t17.5 -72h-191q-20 45 -70 45q-41 0 -64 -36.5t-23 -99.5t23 -99.5t64 -36.5q54 0 70 44h191q-1 -24 -9 -51t-27.5 -57.5t-47.5 -54.5t-74 -40t-103 -16zM235 652v168h206
v-168h-206z" />
    <glyph glyph-name="Dcaron.sc" horiz-adv-x="685" 
d="M78 0v598h235q151 0 238 -72.5t87 -226.5q0 -150 -87.5 -224.5t-237.5 -74.5h-235zM309 432h-31v-265h31q61 0 93.5 33.5t32.5 98.5q0 133 -126 133zM559 823l-140 -171h-190l-137 171h173l59 -71l59 71h176z" />
    <glyph glyph-name="Eacute.sc" horiz-adv-x="638" 
d="M78 0v598h498v-152h-297v-61h174v-158h-174v-67h324v-160h-525zM226 652l104 168h206l-112 -168h-198z" />
    <glyph glyph-name="Ebreve.sc" horiz-adv-x="638" 
d="M78 0v598h498v-152h-297v-61h174v-158h-174v-67h324v-160h-525zM324 775q43 0 43 42v8h145v-11q0 -74 -47 -121.5t-141 -47.5t-141 47.5t-47 121.5v11h145v-8q0 -42 43 -42z" />
    <glyph glyph-name="Ecaron.sc" horiz-adv-x="638" 
d="M78 0v598h498v-152h-297v-61h174v-158h-174v-67h324v-160h-525zM559 823l-140 -171h-190l-137 171h173l59 -71l59 71h176z" />
    <glyph glyph-name="Ecircumflex.sc" horiz-adv-x="638" 
d="M78 0v598h498v-152h-297v-61h174v-158h-174v-67h324v-160h-525zM379 652l-55 69l-55 -69h-174l133 171h192l130 -171h-171z" />
    <glyph glyph-name="Edieresis.sc" horiz-adv-x="638" 
d="M78 0v598h498v-152h-297v-61h174v-158h-174v-67h324v-160h-525zM102 652v168h193v-168h-193zM353 652v168h193v-168h-193z" />
    <glyph glyph-name="Edotaccent.sc" horiz-adv-x="638" 
d="M78 0v598h498v-152h-297v-61h174v-158h-174v-67h324v-160h-525zM221 652v168h206v-168h-206z" />
    <glyph glyph-name="Egrave.sc" horiz-adv-x="638" 
d="M78 0v598h498v-152h-297v-61h174v-158h-174v-67h324v-160h-525zM425 652h-198l-112 168h206z" />
    <glyph glyph-name="Emacron.sc" horiz-adv-x="638" 
d="M78 0v598h498v-152h-297v-61h174v-158h-174v-67h324v-160h-525zM509 665h-370v144h370v-144z" />
    <glyph glyph-name="Eogonek.sc" horiz-adv-x="638" 
d="M78 0v598h498v-152h-297v-61h174v-158h-174v-67h324v-160h-525zM556 -71v-122h-177q-55 0 -86.5 22.5t-31.5 63.5q0 31 20.5 55.5t55.5 51.5h198q-5 -4 -12.5 -9.5t-12 -8.5t-10.5 -7.5t-9 -7.5t-6 -6.5t-4.5 -7t-1.5 -6.5q0 -18 22 -18h55z" />
    <glyph glyph-name="Gbreve.sc" horiz-adv-x="691" 
d="M626 51q-102 -63 -246 -63q-155 0 -244 83t-89 233q0 139 85 222.5t221 83.5q68 0 121 -19t83 -49t46 -61t18 -62h-193q-29 29 -72 29q-52 0 -82.5 -37t-30.5 -107q0 -71 34.5 -112t102.5 -41q45 0 57 4v63h-117v150h306v-317zM353 775q43 0 43 42v8h145v-11
q0 -74 -47 -121.5t-141 -47.5t-141 47.5t-47 121.5v11h145v-8q0 -42 43 -42z" />
    <glyph glyph-name="Gcircumflex.sc" horiz-adv-x="691" 
d="M626 51q-102 -63 -246 -63q-155 0 -244 83t-89 233q0 139 85 222.5t221 83.5q68 0 121 -19t83 -49t46 -61t18 -62h-193q-29 29 -72 29q-52 0 -82.5 -37t-30.5 -107q0 -71 34.5 -112t102.5 -41q45 0 57 4v63h-117v150h306v-317zM408 652l-55 69l-55 -69h-174l133 171h192
l130 -171h-171z" />
    <glyph glyph-name="Gcommaaccent.sc" horiz-adv-x="691" 
d="M626 51q-102 -63 -246 -63q-155 0 -244 83t-89 233q0 139 85 222.5t221 83.5q68 0 121 -19t83 -49t46 -61t18 -62h-193q-29 29 -72 29q-52 0 -82.5 -37t-30.5 -107q0 -71 34.5 -112t102.5 -41q45 0 57 4v63h-117v150h306v-317zM451 -317h-123q36 66 49 112h-92v151h206
v-107q0 -70 -40 -156z" />
    <glyph glyph-name="Gdotaccent.sc" horiz-adv-x="691" 
d="M626 51q-102 -63 -246 -63q-155 0 -244 83t-89 233q0 139 85 222.5t221 83.5q68 0 121 -19t83 -49t46 -61t18 -62h-193q-29 29 -72 29q-52 0 -82.5 -37t-30.5 -107q0 -71 34.5 -112t102.5 -41q45 0 57 4v63h-117v150h306v-317zM250 652v168h206v-168h-206z" />
    <glyph glyph-name="Hbar.sc" horiz-adv-x="733" 
d="M455 0v212h-177v-212h-200v437h-68v114h68v47h200v-47h177v47h200v-47h68v-114h-68v-437h-200zM278 384h177v53h-177v-53z" />
    <glyph glyph-name="Hcircumflex.sc" horiz-adv-x="733" 
d="M455 0v212h-177v-212h-200v598h200v-214h177v214h200v-598h-200zM421 652l-55 69l-55 -69h-174l133 171h192l130 -171h-171z" />
    <glyph glyph-name="Iacute.sc" horiz-adv-x="360" 
d="M80 0v598h200v-598h-200zM82 652l104 168h206l-112 -168h-198z" />
    <glyph glyph-name="Ibreve.sc" horiz-adv-x="360" 
d="M80 0v598h200v-598h-200zM180 775q43 0 43 42v8h145v-11q0 -74 -47 -121.5t-141 -47.5t-141 47.5t-47 121.5v11h145v-8q0 -42 43 -42z" />
    <glyph glyph-name="Icircumflex.sc" horiz-adv-x="360" 
d="M80 0v598h200v-598h-200zM235 652l-55 69l-55 -69h-174l133 171h192l130 -171h-171z" />
    <glyph glyph-name="Idieresis.sc" horiz-adv-x="360" 
d="M80 0v598h200v-598h-200zM-42 652v168h193v-168h-193zM209 652v168h193v-168h-193z" />
    <glyph glyph-name="Idotaccent.sc" horiz-adv-x="360" 
d="M80 0v598h200v-598h-200zM77 652v168h206v-168h-206z" />
    <glyph glyph-name="Igrave.sc" horiz-adv-x="360" 
d="M80 0v598h200v-598h-200zM281 652h-198l-112 168h206z" />
    <glyph glyph-name="Imacron.sc" horiz-adv-x="360" 
d="M80 0v598h200v-598h-200zM365 665h-370v144h370v-144z" />
    <glyph glyph-name="Iogonek.sc" horiz-adv-x="360" 
d="M80 0v598h200v-598q-5 -4 -12.5 -9.5t-12 -8.5t-10.5 -7.5t-9 -7.5t-6 -6.5t-4.5 -7t-1.5 -6.5q0 -18 22 -18h55v-122h-177q-55 0 -86.5 22.5t-31.5 63.5q0 50 74 107z" />
    <glyph glyph-name="Itilde.sc" horiz-adv-x="360" 
d="M80 0v598h200v-598h-200zM190 678l-33 15q-18 8 -25 8q-14 0 -14 -18v-33h-131v98q0 46 24.5 72t71.5 26q34 0 87 -24l32 -15q18 -8 27 -8q13 0 13 19v33h131v-98q0 -46 -25 -72t-71 -26q-38 0 -87 23z" />
    <glyph glyph-name="Jcircumflex.sc" horiz-adv-x="626" 
d="M551 200q0 -94 -64.5 -153t-186.5 -59q-119 0 -178 58.5t-59 153.5v172h187v-150q0 -60 50 -60q25 0 37.5 17t12.5 43v376h201v-398zM504 652l-55 69l-55 -69h-174l133 171h192l130 -171h-171z" />
    <glyph glyph-name="Kcommaaccent.sc" horiz-adv-x="692" 
d="M440 0l-162 239v-239h-200v598h200v-227l163 227h237l-204 -280l215 -318h-249zM424 -317h-123q36 66 49 112h-92v151h206v-107q0 -70 -40 -156z" />
    <glyph glyph-name="Lacute.sc" horiz-adv-x="593" 
d="M558 172v-172h-480v598h200v-426h280zM83 652l104 168h206l-112 -168h-198z" />
    <glyph glyph-name="Lcaron.sc" horiz-adv-x="593" 
d="M310 431l51 194h169l-59 -194h-161zM558 172v-172h-480v598h200v-426h280z" />
    <glyph glyph-name="Lcommaaccent.sc" horiz-adv-x="593" 
d="M558 172v-172h-480v598h200v-426h280zM386 -317h-123q36 66 49 112h-92v151h206v-107q0 -70 -40 -156z" />
    <glyph glyph-name="Ldot.sc" horiz-adv-x="635" 
d="M558 172v-172h-480v598h200v-426h280zM389 271v222h222v-222h-222z" />
    <glyph glyph-name="Lslash.sc" horiz-adv-x="603" 
d="M568 172v-172h-480v162l-72 -30v150l72 31v285h200v-197l156 68v-155l-156 -67v-75h280z" />
    <glyph glyph-name="Nacute.sc" horiz-adv-x="730" 
d="M652 598v-600h-167l-215 318v-316h-192v598h218l169 -258v258h187zM273 652l104 168h206l-112 -168h-198z" />
    <glyph glyph-name="Ncaron.sc" horiz-adv-x="730" 
d="M652 598v-600h-167l-215 318v-316h-192v598h218l169 -258v258h187zM606 823l-140 -171h-190l-137 171h173l59 -71l59 71h176z" />
    <glyph glyph-name="Ncommaaccent.sc" horiz-adv-x="730" 
d="M652 598v-600h-167l-215 318v-316h-192v598h218l169 -258v258h187zM439 -317h-123q36 66 49 112h-92v151h206v-107q0 -70 -40 -156z" />
    <glyph glyph-name="Ntilde.sc" horiz-adv-x="730" 
d="M652 598v-600h-167l-215 318v-316h-192v598h218l169 -258v258h187zM381 678l-33 15q-18 8 -25 8q-14 0 -14 -18v-33h-131v98q0 46 24.5 72t71.5 26q34 0 87 -24l32 -15q18 -8 27 -8q13 0 13 19v33h131v-98q0 -46 -25 -72t-71 -26q-38 0 -87 23z" />
    <glyph glyph-name="Oacute.sc" horiz-adv-x="699" 
d="M349 -12q-129 0 -215.5 82t-86.5 229q0 149 86 230t216 81t216.5 -81t86.5 -230q0 -147 -87 -229t-216 -82zM349 163q47 0 73.5 37.5t26.5 98.5q0 62 -26.5 99t-73.5 37t-73.5 -37.5t-26.5 -98.5t26.5 -98.5t73.5 -37.5zM251 652l104 168h206l-112 -168h-198z" />
    <glyph glyph-name="Obreve.sc" horiz-adv-x="699" 
d="M349 -12q-129 0 -215.5 82t-86.5 229q0 149 86 230t216 81t216.5 -81t86.5 -230q0 -147 -87 -229t-216 -82zM349 163q47 0 73.5 37.5t26.5 98.5q0 62 -26.5 99t-73.5 37t-73.5 -37.5t-26.5 -98.5t26.5 -98.5t73.5 -37.5zM349 775q43 0 43 42v8h145v-11q0 -74 -47 -121.5
t-141 -47.5t-141 47.5t-47 121.5v11h145v-8q0 -42 43 -42z" />
    <glyph glyph-name="Ocircumflex.sc" horiz-adv-x="699" 
d="M349 -12q-129 0 -215.5 82t-86.5 229q0 149 86 230t216 81t216.5 -81t86.5 -230q0 -147 -87 -229t-216 -82zM349 163q47 0 73.5 37.5t26.5 98.5q0 62 -26.5 99t-73.5 37t-73.5 -37.5t-26.5 -98.5t26.5 -98.5t73.5 -37.5zM404 652l-55 69l-55 -69h-174l133 171h192
l130 -171h-171z" />
    <glyph glyph-name="Odieresis.sc" horiz-adv-x="699" 
d="M349 -12q-129 0 -215.5 82t-86.5 229q0 149 86 230t216 81t216.5 -81t86.5 -230q0 -147 -87 -229t-216 -82zM349 163q47 0 73.5 37.5t26.5 98.5q0 62 -26.5 99t-73.5 37t-73.5 -37.5t-26.5 -98.5t26.5 -98.5t73.5 -37.5zM127 652v168h193v-168h-193zM378 652v168h193
v-168h-193z" />
    <glyph glyph-name="Ograve.sc" horiz-adv-x="699" 
d="M349 -12q-129 0 -215.5 82t-86.5 229q0 149 86 230t216 81t216.5 -81t86.5 -230q0 -147 -87 -229t-216 -82zM349 163q47 0 73.5 37.5t26.5 98.5q0 62 -26.5 99t-73.5 37t-73.5 -37.5t-26.5 -98.5t26.5 -98.5t73.5 -37.5zM450 652h-198l-112 168h206z" />
    <glyph glyph-name="Ohungarumlaut.sc" horiz-adv-x="699" 
d="M349 -12q-129 0 -215.5 82t-86.5 229q0 149 86 230t216 81t216.5 -81t86.5 -230q0 -147 -87 -229t-216 -82zM349 163q47 0 73.5 37.5t26.5 98.5q0 62 -26.5 99t-73.5 37t-73.5 -37.5t-26.5 -98.5t26.5 -98.5t73.5 -37.5zM381 652l76 168h185l-83 -168h-178zM142 652
l71 168h186l-78 -168h-179z" />
    <glyph glyph-name="Omacron.sc" horiz-adv-x="699" 
d="M349 -12q-129 0 -215.5 82t-86.5 229q0 149 86 230t216 81t216.5 -81t86.5 -230q0 -147 -87 -229t-216 -82zM349 163q47 0 73.5 37.5t26.5 98.5q0 62 -26.5 99t-73.5 37t-73.5 -37.5t-26.5 -98.5t26.5 -98.5t73.5 -37.5zM534 665h-370v144h370v-144z" />
    <glyph glyph-name="Otilde.sc" horiz-adv-x="699" 
d="M349 -12q-129 0 -215.5 82t-86.5 229q0 149 86 230t216 81t216.5 -81t86.5 -230q0 -147 -87 -229t-216 -82zM349 163q47 0 73.5 37.5t26.5 98.5q0 62 -26.5 99t-73.5 37t-73.5 -37.5t-26.5 -98.5t26.5 -98.5t73.5 -37.5zM359 678l-33 15q-18 8 -25 8q-14 0 -14 -18v-33
h-131v98q0 46 24.5 72t71.5 26q34 0 87 -24l32 -15q18 -8 27 -8q13 0 13 19v33h131v-98q0 -46 -25 -72t-71 -26q-38 0 -87 23z" />
    <glyph glyph-name="Oslashacute.sc" horiz-adv-x="699" 
d="M652 299q0 -147 -86 -229t-215 -82q-79 0 -149 37l-21 -25h-168l92 109q-58 77 -58 190q0 149 85.5 230t214.5 81q79 0 149 -36l21 24h169l-91 -108q57 -78 57 -191zM232 299q0 -15 2 -37l151 180q-22 2 -36 2q-55 0 -86 -40t-31 -105zM465 299q0 25 -1 36l-152 -180
q16 -3 37 -3q55 0 85.5 40.5t30.5 106.5zM251 652l104 168h206l-112 -168h-198z" />
    <glyph glyph-name="Racute.sc" horiz-adv-x="707" 
d="M77 0v598h339q104 0 165.5 -54.5t61.5 -155.5q0 -113 -88 -168l129 -220h-211l-107 186h-90v-186h-199zM379 437h-103v-98h103q59 0 59 49t-59 49zM238 652l104 168h206l-112 -168h-198z" />
    <glyph glyph-name="Rcaron.sc" horiz-adv-x="707" 
d="M77 0v598h339q104 0 165.5 -54.5t61.5 -155.5q0 -113 -88 -168l129 -220h-211l-107 186h-90v-186h-199zM379 437h-103v-98h103q59 0 59 49t-59 49zM571 823l-140 -171h-190l-137 171h173l59 -71l59 71h176z" />
    <glyph glyph-name="Rcommaaccent.sc" horiz-adv-x="707" 
d="M77 0v598h339q104 0 165.5 -54.5t61.5 -155.5q0 -113 -88 -168l129 -220h-211l-107 186h-90v-186h-199zM379 437h-103v-98h103q59 0 59 49t-59 49zM441 -317h-123q36 66 49 112h-92v151h206v-107q0 -70 -40 -156z" />
    <glyph glyph-name="Sacute.sc" horiz-adv-x="637" 
d="M299 463q-51 0 -51 -32q0 -27 49 -33l42 -5q131 -15 191.5 -60t60.5 -140t-69 -150t-199 -55q-74 0 -131.5 19t-90 49.5t-50 61t-22.5 62.5h211q8 -16 29 -29.5t54 -13.5q60 0 60 36q0 17 -12.5 26t-41.5 13l-42 5q-123 15 -183.5 63t-60.5 139t69.5 141t186.5 50
q72 0 126 -17t84 -45.5t45.5 -55.5t22.5 -57h-200q-24 28 -78 28zM212 652l104 168h206l-112 -168h-198z" />
    <glyph glyph-name="Scaron.sc" horiz-adv-x="637" 
d="M299 463q-51 0 -51 -32q0 -27 49 -33l42 -5q131 -15 191.5 -60t60.5 -140t-69 -150t-199 -55q-74 0 -131.5 19t-90 49.5t-50 61t-22.5 62.5h211q8 -16 29 -29.5t54 -13.5q60 0 60 36q0 17 -12.5 26t-41.5 13l-42 5q-123 15 -183.5 63t-60.5 139t69.5 141t186.5 50
q72 0 126 -17t84 -45.5t45.5 -55.5t22.5 -57h-200q-24 28 -78 28zM545 823l-140 -171h-190l-137 171h173l59 -71l59 71h176z" />
    <glyph glyph-name="Scedilla.sc" horiz-adv-x="637" 
d="M299 463q-51 0 -51 -32q0 -27 49 -33l42 -5q131 -15 191.5 -60t60.5 -140q0 -145 -152 -191q-35 -10 -86 -13v-26q58 -1 90.5 -34t32.5 -93q0 -64 -35 -98.5t-103 -34.5h-138v116h107q27 0 27 24q0 22 -27 22h-86v134q-13 2 -30 8q-76 28 -114.5 75t-47.5 98h211
q8 -16 29 -29.5t54 -13.5q60 0 60 36q0 17 -12.5 26t-41.5 13l-42 5q-123 15 -183.5 63t-60.5 139t69.5 141t186.5 50q72 0 126 -17t84 -45.5t45.5 -55.5t22.5 -57h-200q-24 28 -78 28z" />
    <glyph glyph-name="Scircumflex.sc" horiz-adv-x="637" 
d="M299 463q-51 0 -51 -32q0 -27 49 -33l42 -5q131 -15 191.5 -60t60.5 -140t-69 -150t-199 -55q-74 0 -131.5 19t-90 49.5t-50 61t-22.5 62.5h211q8 -16 29 -29.5t54 -13.5q60 0 60 36q0 17 -12.5 26t-41.5 13l-42 5q-123 15 -183.5 63t-60.5 139t69.5 141t186.5 50
q72 0 126 -17t84 -45.5t45.5 -55.5t22.5 -57h-200q-24 28 -78 28zM365 652l-55 69l-55 -69h-174l133 171h192l130 -171h-171z" />
    <glyph glyph-name="Scommaaccent.sc" horiz-adv-x="637" 
d="M299 463q-51 0 -51 -32q0 -27 49 -33l42 -5q131 -15 191.5 -60t60.5 -140t-69 -150t-199 -55q-74 0 -131.5 19t-90 49.5t-50 61t-22.5 62.5h211q8 -16 29 -29.5t54 -13.5q60 0 60 36q0 17 -12.5 26t-41.5 13l-42 5q-123 15 -183.5 63t-60.5 139t69.5 141t186.5 50
q72 0 126 -17t84 -45.5t45.5 -55.5t22.5 -57h-200q-24 28 -78 28zM400 -317h-123q36 66 49 112h-92v151h206v-107q0 -70 -40 -156z" />
    <glyph glyph-name="Tcaron.sc" horiz-adv-x="632" 
d="M35 428v170h562v-170h-181v-428h-199v428h-182zM551 823l-140 -171h-190l-137 171h173l59 -71l59 71h176z" />
    <glyph glyph-name="Tcommaaccent.sc" horiz-adv-x="632" 
d="M35 428v170h562v-170h-181v-428h-199v428h-182zM380 -317h-123q36 66 49 112h-92v151h206v-107q0 -70 -40 -156z" />
    <glyph glyph-name="uni021A.sc" horiz-adv-x="632" 
d="M35 428v170h562v-170h-181v-428h-199v428h-182zM380 -317h-123q36 66 49 112h-92v151h206v-107q0 -70 -40 -156z" />
    <glyph glyph-name="Tbar.sc" horiz-adv-x="632" 
d="M96 202v141h121v85h-182v170h562v-170h-181v-85h120v-141h-120v-202h-199v202h-121z" />
    <glyph glyph-name="Thorn.sc" horiz-adv-x="685" 
d="M420 98h-143v-98h-199v598h199v-88h144q105 0 164 -52.5t59 -153.5t-59 -153.5t-165 -52.5zM383 349h-106v-90h106q55 0 55 45t-55 45z" />
    <glyph glyph-name="Uacute.sc" horiz-adv-x="716" 
d="M360 167q41 0 63 25.5t22 70.5v335h198v-347q0 -117 -73.5 -190t-209.5 -73q-138 0 -212.5 73t-74.5 190v347h201v-335q0 -45 22.5 -70.5t63.5 -25.5zM260 652l104 168h206l-112 -168h-198z" />
    <glyph glyph-name="Ubreve.sc" horiz-adv-x="716" 
d="M360 167q41 0 63 25.5t22 70.5v335h198v-347q0 -117 -73.5 -190t-209.5 -73q-138 0 -212.5 73t-74.5 190v347h201v-335q0 -45 22.5 -70.5t63.5 -25.5zM360 775q43 0 43 42v8h145v-11q0 -74 -47 -121.5t-141 -47.5t-141 47.5t-47 121.5v11h145v-8q0 -42 43 -42z" />
    <glyph glyph-name="Ucircumflex.sc" horiz-adv-x="716" 
d="M360 167q41 0 63 25.5t22 70.5v335h198v-347q0 -117 -73.5 -190t-209.5 -73q-138 0 -212.5 73t-74.5 190v347h201v-335q0 -45 22.5 -70.5t63.5 -25.5zM415 652l-55 69l-55 -69h-174l133 171h192l130 -171h-171z" />
    <glyph glyph-name="Udieresis.sc" horiz-adv-x="716" 
d="M360 167q41 0 63 25.5t22 70.5v335h198v-347q0 -117 -73.5 -190t-209.5 -73q-138 0 -212.5 73t-74.5 190v347h201v-335q0 -45 22.5 -70.5t63.5 -25.5zM138 652v168h193v-168h-193zM389 652v168h193v-168h-193z" />
    <glyph glyph-name="Ugrave.sc" horiz-adv-x="716" 
d="M360 167q41 0 63 25.5t22 70.5v335h198v-347q0 -117 -73.5 -190t-209.5 -73q-138 0 -212.5 73t-74.5 190v347h201v-335q0 -45 22.5 -70.5t63.5 -25.5zM467 652h-198l-112 168h206z" />
    <glyph glyph-name="Uhungarumlaut.sc" horiz-adv-x="716" 
d="M360 167q41 0 63 25.5t22 70.5v335h198v-347q0 -117 -73.5 -190t-209.5 -73q-138 0 -212.5 73t-74.5 190v347h201v-335q0 -45 22.5 -70.5t63.5 -25.5zM388 652l76 168h185l-83 -168h-178zM149 652l71 168h186l-78 -168h-179z" />
    <glyph glyph-name="Umacron.sc" horiz-adv-x="716" 
d="M360 167q41 0 63 25.5t22 70.5v335h198v-347q0 -117 -73.5 -190t-209.5 -73q-138 0 -212.5 73t-74.5 190v347h201v-335q0 -45 22.5 -70.5t63.5 -25.5zM545 665h-370v144h370v-144z" />
    <glyph glyph-name="Uogonek.sc" horiz-adv-x="716" 
d="M570 -71v-122h-177q-54 0 -86 22.5t-32 61.5q0 59 92 97h-7q-138 0 -212.5 73t-74.5 190v347h201v-335q0 -45 22.5 -70.5t63.5 -25.5t63 25.5t22 70.5v335h198v-347q0 -51 -16.5 -96.5t-34.5 -70.5t-51 -61q-48 -52 -48 -74q0 -20 23 -20h54z" />
    <glyph glyph-name="Uring.sc" horiz-adv-x="716" 
d="M360 167q41 0 63 25.5t22 70.5v335h198v-347q0 -117 -73.5 -190t-209.5 -73q-138 0 -212.5 73t-74.5 190v347h201v-335q0 -45 22.5 -70.5t63.5 -25.5zM360 642q-64 0 -105 40.5t-41 102.5q0 63 41 103t105 40q66 0 106.5 -40t40.5 -103q0 -62 -41.5 -102.5t-105.5 -40.5z
M360 732q23 0 37.5 15t14.5 38q0 24 -14.5 38.5t-37.5 14.5t-37.5 -14.5t-14.5 -38.5q0 -23 14.5 -38t37.5 -15z" />
    <glyph glyph-name="Utilde.sc" horiz-adv-x="716" 
d="M360 167q41 0 63 25.5t22 70.5v335h198v-347q0 -117 -73.5 -190t-209.5 -73q-138 0 -212.5 73t-74.5 190v347h201v-335q0 -45 22.5 -70.5t63.5 -25.5zM370 678l-33 15q-18 8 -25 8q-14 0 -14 -18v-33h-131v98q0 46 24.5 72t71.5 26q34 0 87 -24l32 -15q18 -8 27 -8
q13 0 13 19v33h131v-98q0 -46 -25 -72t-71 -26q-38 0 -87 23z" />
    <glyph glyph-name="Wacute.sc" horiz-adv-x="893" 
d="M521 0l-77 302l-78 -302h-189l-162 598h208l71 -312l75 312h169l77 -321l73 321h190l-155 -598h-202zM348 652l104 168h206l-112 -168h-198z" />
    <glyph glyph-name="Wcircumflex.sc" horiz-adv-x="893" 
d="M521 0l-77 302l-78 -302h-189l-162 598h208l71 -312l75 312h169l77 -321l73 321h190l-155 -598h-202zM501 652l-55 69l-55 -69h-174l133 171h192l130 -171h-171z" />
    <glyph glyph-name="Wdieresis.sc" horiz-adv-x="893" 
d="M521 0l-77 302l-78 -302h-189l-162 598h208l71 -312l75 312h169l77 -321l73 321h190l-155 -598h-202zM224 652v168h193v-168h-193zM475 652v168h193v-168h-193z" />
    <glyph glyph-name="Wgrave.sc" horiz-adv-x="893" 
d="M521 0l-77 302l-78 -302h-189l-162 598h208l71 -312l75 312h169l77 -321l73 321h190l-155 -598h-202zM547 652h-198l-112 168h206z" />
    <glyph glyph-name="Yacute.sc" horiz-adv-x="652" 
d="M439 232v-232h-214v239l-227 359h240l102 -171l101 171h213zM227 652l104 168h206l-112 -168h-198z" />
    <glyph glyph-name="Ycircumflex.sc" horiz-adv-x="652" 
d="M439 232v-232h-214v239l-227 359h240l102 -171l101 171h213zM395 652l-55 69l-55 -69h-174l133 171h192l130 -171h-171z" />
    <glyph glyph-name="Ydieresis.sc" horiz-adv-x="652" 
d="M439 232v-232h-214v239l-227 359h240l102 -171l101 171h213zM118 652v168h193v-168h-193zM369 652v168h193v-168h-193z" />
    <glyph glyph-name="Ygrave.sc" horiz-adv-x="652" 
d="M439 232v-232h-214v239l-227 359h240l102 -171l101 171h213zM441 652h-198l-112 168h206z" />
    <glyph glyph-name="Zacute.sc" horiz-adv-x="654" 
d="M619 168v-168h-573v113l255 319h-246v166h538v-110l-255 -320h281zM227 652l104 168h206l-112 -168h-198z" />
    <glyph glyph-name="Zcaron.sc" horiz-adv-x="654" 
d="M619 168v-168h-573v113l255 319h-246v166h538v-110l-255 -320h281zM560 823l-140 -171h-190l-137 171h173l59 -71l59 71h176z" />
    <glyph glyph-name="Zdotaccent.sc" horiz-adv-x="654" 
d="M619 168v-168h-573v113l255 319h-246v166h538v-110l-255 -320h281zM222 652v168h206v-168h-206z" />
    <glyph glyph-name="germandbls.sc" horiz-adv-x="1274" 
d="M299 463q-51 0 -51 -32q0 -27 49 -33l42 -5q131 -15 191.5 -60t60.5 -140t-69 -150t-199 -55q-74 0 -131.5 19t-90 49.5t-50 61t-22.5 62.5h211q8 -16 29 -29.5t54 -13.5q60 0 60 36q0 17 -12.5 26t-41.5 13l-42 5q-123 15 -183.5 63t-60.5 139t69.5 141t186.5 50
q72 0 126 -17t84 -45.5t45.5 -55.5t22.5 -57h-200q-24 28 -78 28zM936 463q-51 0 -51 -32q0 -27 49 -33l42 -5q131 -15 191.5 -60t60.5 -140t-69 -150t-199 -55q-74 0 -131.5 19t-90 49.5t-50 61t-22.5 62.5h211q8 -16 29 -29.5t54 -13.5q60 0 60 36q0 17 -12.5 26t-41.5 13
l-42 5q-123 15 -183.5 63t-60.5 139t69.5 141t186.5 50q72 0 126 -17t84 -45.5t45.5 -55.5t22.5 -57h-200q-24 28 -78 28z" />
    <glyph glyph-name="napostrophe.sc" horiz-adv-x="1008" 
d="M930 598v-600h-167l-215 318v-316h-192v598h218l169 -258v258h187zM194 352h-131q62 98 72 182h-102v202h217v-172q0 -116 -56 -212z" />
    <glyph glyph-name="f.short" horiz-adv-x="505" 
d="M482 372h-145v-372h-196v372h-118v157h118v67q0 65 39.5 102.5t114.5 37.5h208v-141h-113q-30 0 -41.5 -11t-11.5 -38v-17h145v-157z" />
    <glyph glyph-name="f_f.short" horiz-adv-x="915" 
d="M547 0v372h-195v-372h-196v372h-118v157h118v67q0 65 39.5 102.5t114.5 37.5h188v-141h-93q-30 0 -41.5 -11t-11.5 -38v-17h195v67q0 65 39.5 102.5t114.5 37.5h208v-141h-113q-30 0 -41.5 -11t-11.5 -38v-17h145v-157h-145v-372h-196z" />
    <glyph glyph-name="four.denalt" horiz-adv-x="537" 
d="M511 113h-83v-113h-153v113h-222v339h153v-212h69v161h153v-161h83v-127z" />
    <glyph glyph-name="four.numalt" horiz-adv-x="537" 
d="M511 371h-83v-113h-153v113h-222v339h153v-212h69v161h153v-161h83v-127z" />
    <glyph glyph-name="four.oldalt" horiz-adv-x="719" 
d="M689 76h-118v-188h-200v188h-304v522h200v-345h104v262h200v-262h118v-177z" />
    <glyph glyph-name="four.subalt" horiz-adv-x="593" 
d="M565 -11h-94v-131h-163v131h-252v381h163v-243h89v185h163v-185h94v-138z" />
    <glyph glyph-name="four.supalt" horiz-adv-x="593" 
d="M565 355h-94v-131h-163v131h-252v381h163v-243h89v185h163v-185h94v-138z" />
    <glyph glyph-name="four.tabalt" horiz-adv-x="650" 
d="M621 185h-83v-185h-192v185h-293v525h192v-354h101v266h192v-266h83v-171z" />
    <glyph glyph-name="j.short" horiz-adv-x="317" 
d="M56 583v168h206v-168h-206zM258 529v-550q0 -93 -39.5 -132.5t-122.5 -39.5h-148v144h52q35 0 47.5 12t12.5 43v523h198z" />
    <glyph glyph-name="ringacute" 
d="M210 889l88 163h194l-95 -163h-187zM300 574q-63 0 -104 40.5t-41 101.5q0 62 40.5 102t104.5 40t105 -40t41 -102q0 -60 -41.5 -101t-104.5 -41zM300 664q22 0 36.5 14.5t14.5 37.5t-14 37.5t-37 14.5t-37 -14.5t-14 -37.5t14.5 -37.5t36.5 -14.5z" />
    <glyph glyph-name="ringacute.uc" 
d="M204 1071l101 151h206l-109 -151h-198zM300 754q-64 0 -105 40.5t-41 102.5q0 63 41 103t105 40q66 0 106.5 -40t40.5 -103q0 -62 -41.5 -102.5t-105.5 -40.5zM300 844q23 0 37.5 15t14.5 38q0 24 -14.5 38.5t-37.5 14.5t-37.5 -14.5t-14.5 -38.5q0 -23 14.5 -38
t37.5 -15z" />
    <glyph glyph-name="uni01FA.sc" horiz-adv-x="683" 
d="M461 0l-22 70h-213l-22 -70h-191l205 598h245l207 -598h-209zM275 224h116l-58 185zM237 959l101 151h206l-109 -151h-198zM333 642q-64 0 -105 40.5t-41 102.5q0 63 41 103t105 40q66 0 106.5 -40t40.5 -103q0 -62 -41.5 -102.5t-105.5 -40.5zM333 732q23 0 37.5 15
t14.5 38q0 24 -14.5 38.5t-37.5 14.5t-37.5 -14.5t-14.5 -38.5q0 -23 14.5 -38t37.5 -15z" />
    </font>
</defs>
</svg>
