<?xml version="1.0" standalone="no"?>
<!DOCTYPE svg PUBLIC "-//W3C//DTD SVG 1.1//EN" "http://www.w3.org/Graphics/SVG/1.1/DTD/svg11.dtd" >
<svg xmlns="http://www.w3.org/2000/svg" xmlns:xlink="http://www.w3.org/1999/xlink" version="1.1">
<metadata>
Created by FontForge 20170731 at Wed Nov 30 11:59:39 2016
 By Aleksey,,,
Copyright (C)2016 Commercial Type.
</metadata>
<defs>
<font id="StyreneB-ThinItalic" horiz-adv-x="650" >
  <font-face 
    font-family="Styrene B Thin"
    font-weight="250"
    font-style="italic"
    font-stretch="normal"
    units-per-em="1000"
    panose-1="0 0 0 0 0 0 0 0 0 0"
    ascent="800"
    descent="-200"
    x-height="470"
    cap-height="710"
    bbox="-197 -314 1321 1177"
    underline-thickness="76"
    underline-position="-228"
    slope="-11"
    unicode-range="U+000D-FB02"
  />
<missing-glyph horiz-adv-x="311" 
 />
    <glyph glyph-name=".notdef" horiz-adv-x="311" 
 />
    <glyph glyph-name=".null" horiz-adv-x="0" 
 />
    <glyph glyph-name=".null" horiz-adv-x="0" 
 />
    <glyph glyph-name="nonmarkingreturn" unicode="&#xd;" horiz-adv-x="311" 
 />
    <glyph glyph-name="space" unicode=" " horiz-adv-x="311" 
 />
    <glyph glyph-name="exclam" unicode="!" horiz-adv-x="271" 
d="M120 245l91 465h33l-90 -465h-34zM73 0l25 130h34l-26 -130h-33z" />
    <glyph glyph-name="quotedbl" unicode="&#x22;" horiz-adv-x="414" 
d="M179 425h-32l56 285h32zM340 425h-32l55 285h32z" />
    <glyph glyph-name="numbersign" unicode="#" horiz-adv-x="734" 
d="M311 0l108 212h-206l-108 -212h-34l108 212h-139l6 32h149l120 235h-146l6 32h156l101 199h34l-101 -199h206l101 199h35l-101 -199h136l-6 -32h-146l-120 -235h143l-6 -32h-153l-108 -212h-35zM229 244h206l120 235h-206z" />
    <glyph glyph-name="dollar" unicode="$" horiz-adv-x="583" 
d="M274 -2h-13l-22 -111h-34l22 114q-75 11 -114.5 56t-39.5 114q0 17 3 32h34q-3 -15 -3 -32q0 -64 44.5 -102t122.5 -38q80 0 130 43.5t50 113.5q0 54 -30 87.5t-91 62.5l-43 20q-70 33 -104.5 72.5t-34.5 102.5q0 77 56 129.5t149 52.5h10l20 104h34l-21 -108
q69 -12 107.5 -59t38.5 -110q0 -7 -2 -21h-34q2 14 2 21q0 61 -41.5 100.5t-113.5 39.5q-80 0 -125 -42.5t-45 -106.5q0 -50 30 -83t89 -60l43 -20q69 -33 105 -75t36 -107q0 -84 -58.5 -137t-156.5 -53z" />
    <glyph glyph-name="percent" unicode="%" horiz-adv-x="988" 
d="M300 376q-70 0 -115 45t-45 114q0 74 51 130.5t131 56.5q70 0 115 -45t45 -114q0 -74 -51 -130.5t-131 -56.5zM168 0l655 710h42l-655 -710h-42zM322 690q-68 0 -108 -47t-40 -108q0 -57 34.5 -92t91.5 -35q68 0 108 47t40 108q0 57 -34.5 92t-91.5 35zM711 -14
q-70 0 -115 45t-45 114q0 74 51 130.5t131 56.5q70 0 115 -45t45 -114q0 -74 -51 -130.5t-131 -56.5zM733 300q-68 0 -108 -47t-40 -108q0 -57 34.5 -92t91.5 -35q68 0 108 47t40 108q0 57 -34.5 92t-91.5 35z" />
    <glyph glyph-name="ampersand" unicode="&#x26;" horiz-adv-x="741" 
d="M627 0l-132 150q-40 -43 -64 -66t-57.5 -48.5t-66.5 -36.5t-71 -11q-77 0 -128.5 44.5t-51.5 117.5q0 37 15.5 70.5t34.5 55t56 46t58.5 35.5t63.5 31q-43 47 -64.5 85.5t-21.5 85.5q0 65 47 114t122 49q69 0 110.5 -42t41.5 -106q0 -35 -15 -65t-43 -53t-53.5 -38.5
t-58.5 -33.5l-12 -6l160 -183l196 199h41l-217 -222l150 -172h-40zM91 152q0 -59 39.5 -95.5t105.5 -36.5q26 0 52.5 9t43.5 18t48 36t43 38.5t52 51.5l-166 187l-4 5q-109 -54 -145 -84q-69 -56 -69 -129zM232 559q0 -42 20.5 -75.5t64.5 -82.5q93 50 124 80q43 43 44 93
q0 51 -33.5 83.5t-84.5 32.5q-59 0 -97 -38t-38 -93z" />
    <glyph glyph-name="quotesingle" unicode="'" horiz-adv-x="253" 
d="M179 425h-32l56 285h32z" />
    <glyph glyph-name="parenleft" unicode="(" horiz-adv-x="338" 
d="M341 822h36q-42 -52 -79.5 -110t-75.5 -135t-60.5 -168.5t-22.5 -182.5q0 -196 56 -350h-31q-57 157 -57 350q0 121 40 244t88.5 203.5t105.5 148.5z" />
    <glyph glyph-name="parenright" unicode=")" horiz-adv-x="338" 
d="M41 -124h-36q42 52 79.5 110t75.5 135t60.5 168.5t22.5 182.5q0 196 -56 350h31q57 -157 57 -350q0 -122 -40 -245t-88.5 -203.5t-105.5 -147.5z" />
    <glyph glyph-name="asterisk" unicode="*" horiz-adv-x="451" 
d="M385 405l-26 -14l-75 131l-123 -131l-23 21l123 130l-136 50l12 29l138 -50l29 150h32l-29 -149l152 49l9 -28l-160 -51z" />
    <glyph glyph-name="plus" unicode="+" horiz-adv-x="669" 
d="M588 300h-224l-46 -235h-34l46 235h-225l7 32h224l45 233h34l-45 -233h225z" />
    <glyph glyph-name="comma" unicode="," horiz-adv-x="225" 
d="M84 11q-21 -109 -81 -215h-34q60 100 84 214l24 122h31z" />
    <glyph glyph-name="hyphen" unicode="-" horiz-adv-x="479" 
d="M97 258l6 32h293l-6 -32h-293z" />
    <glyph glyph-name="period" unicode="." horiz-adv-x="228" 
d="M51 0l26 132h34l-26 -132h-34z" />
    <glyph glyph-name="slash" unicode="/" horiz-adv-x="401" 
d="M-15 -70l432 830h34l-431 -830h-35z" />
    <glyph glyph-name="zero" unicode="0" horiz-adv-x="669" 
d="M106 249l43 222q47 251 249 251q110 0 172 -71.5t39 -189.5l-43 -222q-47 -251 -249 -251q-110 0 -172 71t-39 190zM317 21q95 0 144.5 57.5t69.5 160.5l43 222q20 102 -28 165t-148 63q-95 0 -144.5 -57.5t-69.5 -160.5l-43 -222q-20 -102 28 -165t148 -63z" />
    <glyph glyph-name="one" unicode="1" horiz-adv-x="418" 
d="M378 713l-139 -713h-35l129 660l-221 -131l8 39l241 145h17z" />
    <glyph glyph-name="two" unicode="2" horiz-adv-x="605" 
d="M506 32l-7 -32h-464l4 20l278 234q61 51 90.5 78t61 63t43 67.5t11.5 69.5q0 70 -44.5 113.5t-119.5 43.5q-78 0 -127 -52.5t-64 -139.5l-4 -24h-35l4 24q17 100 74.5 162.5t151.5 62.5q92 0 145 -54.5t53 -135.5q0 -25 -6.5 -49.5t-12.5 -42t-26.5 -43t-30 -37.5
t-43.5 -42.5t-46 -41t-56 -47.5l-234 -197h404z" />
    <glyph glyph-name="three" unicode="3" horiz-adv-x="626" 
d="M535 206q0 -89 -66 -153.5t-184 -64.5q-55 0 -98.5 16.5t-69 43.5t-39.5 56.5t-16 59.5h35q3 -54 53 -98.5t135 -44.5q100 0 158 53t58 133q0 71 -46.5 108t-131.5 37h-86l6 32h122q84 0 132 46.5t48 116.5q0 64 -47 103t-121 39t-127 -42t-62 -95h-35q10 64 68.5 117
t155.5 53q94 0 149 -49.5t55 -125.5q0 -77 -47.5 -125.5t-110.5 -57.5q46 -14 79 -53.5t33 -104.5z" />
    <glyph glyph-name="four" unicode="4" horiz-adv-x="686" 
d="M638 242h-171l-47 -242h-34l47 242h-379l3 13l471 455h30l-85 -437h171zM116 273h323l74 383z" />
    <glyph glyph-name="five" unicode="5" horiz-adv-x="635" 
d="M142 334l73 376h402l-7 -31h-368l-54 -284q57 65 152 65q97 0 154 -60.5t57 -152.5q0 -105 -66.5 -182t-183.5 -77q-72 0 -123.5 31.5t-73 72.5t-23.5 85h34q3 -55 50.5 -105.5t135.5 -50.5q96 0 155.5 62.5t59.5 164.5q0 81 -47.5 130t-128.5 49q-37 0 -68.5 -10.5
t-52 -27t-32.5 -30t-18 -25.5h-27z" />
    <glyph glyph-name="six" unicode="6" horiz-adv-x="636" 
d="M555 246q0 -103 -67 -180.5t-189 -77.5q-104 0 -162.5 61t-58.5 156q0 115 106 219l293 286h42l-285 -279q41 29 98 29q100 0 161.5 -58.5t61.5 -155.5zM299 21q108 0 164 67t56 158q0 81 -48.5 131t-138.5 50q-103 0 -161 -67t-58 -155q0 -79 49.5 -131.5t136.5 -52.5z
" />
    <glyph glyph-name="seven" unicode="7" horiz-adv-x="602" 
d="M626 692l-519 -692h-39l509 679h-417l6 31h464z" />
    <glyph glyph-name="eight" unicode="8" horiz-adv-x="653" 
d="M554 199q0 -87 -62 -149t-173 -62h-30q-100 0 -156 49.5t-56 132.5q0 82 52.5 137.5t127.5 65.5q-41 16 -68.5 53.5t-27.5 94.5q0 82 58.5 141.5t163.5 59.5h29q93 0 145.5 -46.5t52.5 -127.5q0 -77 -48.5 -128t-116.5 -60q46 -18 77.5 -58t31.5 -103zM358 381h30
q85 0 136 48.5t51 118.5q0 65 -44.5 103t-118.5 38h-29q-87 0 -137 -48t-50 -120q0 -63 45.5 -101.5t116.5 -38.5zM288 21h30q93 0 147 51.5t54 126.5q0 69 -48.5 109t-126.5 40h-30q-93 0 -147.5 -51t-54.5 -127q0 -69 48.5 -109t127.5 -40z" />
    <glyph glyph-name="nine" unicode="9" horiz-adv-x="636" 
d="M498 286l-293 -286h-42l285 279q-41 -29 -98 -29q-100 0 -161.5 58.5t-61.5 155.5q0 103 67 180.5t189 77.5q104 0 162.5 -61t58.5 -156q0 -115 -106 -219zM383 689q-108 0 -164 -67t-56 -158q0 -81 48.5 -131t138.5 -50q103 0 161 67t58 155q0 79 -49.5 131.5
t-136.5 52.5z" />
    <glyph glyph-name="colon" unicode=":" horiz-adv-x="248" 
d="M61 0l26 132h34l-26 -132h-34zM126 338l26 132h34l-26 -132h-34z" />
    <glyph glyph-name="semicolon" unicode=";" horiz-adv-x="245" 
d="M94 11q-21 -109 -81 -215h-34q60 100 84 214l24 122h31zM127 338l26 132h34l-26 -132h-34z" />
    <glyph glyph-name="less" unicode="&#x3c;" horiz-adv-x="623" 
d="M495 108l-7 -33l-386 206l5 29l467 206l-7 -38l-422 -185z" />
    <glyph glyph-name="equal" unicode="=" horiz-adv-x="687" 
d="M620 393h-493l7 32h493zM581 190h-493l6 32h493z" />
    <glyph glyph-name="greater" unicode="&#x3e;" horiz-adv-x="623" 
d="M538 281l-466 -206l7 38l422 185l-351 185l7 33l387 -206z" />
    <glyph glyph-name="question" unicode="?" horiz-adv-x="530" 
d="M358 363l-83 -41q-31 -15 -43.5 -32t-18.5 -51h-33q9 46 23.5 67t57.5 42l82 42q80 41 113.5 79.5t33.5 93.5q0 59 -39 93t-105 34q-128 0 -166 -156l-7 -29h-34l6 29q19 87 69.5 137.5t131.5 50.5t129.5 -43.5t48.5 -115.5q0 -66 -40.5 -112t-125.5 -88zM133 0l25 130
h34l-25 -130h-34z" />
    <glyph glyph-name="at" unicode="@" horiz-adv-x="1020" 
d="M847 -18h41q-18 -21 -45 -42t-73 -48t-113.5 -44t-144.5 -17q-197 0 -309 114t-112 295q0 216 140.5 362t347.5 146q182 0 284 -101.5t102 -249.5q0 -140 -71.5 -231t-167.5 -91q-52 0 -78.5 26t-21.5 64q-48 -90 -143 -90q-66 0 -107.5 47.5t-41.5 130.5
q0 96 55.5 168.5t144.5 72.5q72 0 109 -46t37 -110l58 151h32l-102 -268q-45 -115 58 -115q82 0 143.5 81.5t61.5 209.5q0 139 -92 229t-260 90q-193 0 -323.5 -135t-130.5 -341q0 -170 104 -273.5t283 -103.5q66 0 124.5 13t100 33.5t66.5 37.5t44 35zM534 462
q-75 0 -120 -63.5t-45 -145.5q0 -67 30.5 -106.5t83.5 -39.5q79 0 126 64.5t47 145.5q0 64 -30.5 104.5t-91.5 40.5z" />
    <glyph glyph-name="A" unicode="A" horiz-adv-x="719" 
d="M601 0l-55 230h-368l-138 -230h-37l428 714h32l171 -714h-33zM197 262h341l-98 406z" />
    <glyph glyph-name="B" unicode="B" horiz-adv-x="724" 
d="M73 0l138 710h283q94 0 143.5 -43.5t49.5 -117.5q0 -71 -43.5 -124t-123.5 -61q56 -15 86 -55t30 -95q0 -91 -59 -152.5t-185 -61.5h-319zM494 678h-256l-58 -295h285q93 0 139.5 47t46.5 119q0 61 -40 95t-117 34zM424 351h-250l-62 -319h279q103 0 156 49t53 133
q0 65 -44 101t-132 36z" />
    <glyph glyph-name="C" unicode="C" horiz-adv-x="718" 
d="M363 -12q-119 0 -191.5 88t-72.5 231q0 176 99 295.5t241 119.5q58 0 105.5 -20t76 -51.5t45 -62t23.5 -60.5h-34q-7 24 -21.5 49t-39.5 51.5t-65.5 43.5t-89.5 17q-128 0 -216 -111.5t-88 -270.5q0 -126 62 -206t166 -80q52 0 96.5 16t75 42.5t49 49.5t32.5 49h34
q-12 -29 -33 -58.5t-55 -61t-86 -51t-113 -19.5z" />
    <glyph glyph-name="D" unicode="D" horiz-adv-x="751" 
d="M73 0l138 710h164q153 0 238.5 -86.5t85.5 -229.5q0 -172 -103 -283t-277 -111h-246zM375 678h-136l-126 -646h206q156 0 250 102.5t94 259.5q0 130 -76 207t-212 77z" />
    <glyph glyph-name="E" unicode="E" horiz-adv-x="672" 
d="M73 0l138 710h475l-6 -32h-441l-55 -284h271l-6 -32h-272l-64 -330h477l-6 -32h-511z" />
    <glyph glyph-name="F" unicode="F" horiz-adv-x="659" 
d="M73 0l138 710h503l-7 -32h-468l-55 -282h283l-7 -32h-282l-71 -364h-34z" />
    <glyph glyph-name="G" unicode="G" horiz-adv-x="767" 
d="M636 66q-98 -78 -248 -78q-132 0 -210.5 87t-78.5 237q0 175 102.5 292.5t246.5 117.5q54 0 99.5 -16t74 -41t46 -49.5t25.5 -48.5h-34q-22 48 -75.5 85t-135.5 37q-132 0 -222.5 -110t-90.5 -267q0 -134 68.5 -212.5t184.5 -78.5q130 0 219 63l49 256h-261l7 32h293z
" />
    <glyph glyph-name="H" unicode="H" horiz-adv-x="780" 
d="M581 0l67 343h-474l-67 -343h-34l138 710h34l-65 -335h474l65 335h34l-138 -710h-34z" />
    <glyph glyph-name="I" unicode="I" horiz-adv-x="276" 
d="M75 0l138 710h34l-138 -710h-34z" />
    <glyph glyph-name="J" unicode="J" horiz-adv-x="613" 
d="M490 202q-42 -213 -216 -213q-94 0 -148 59t-33 164l37 190h34l-37 -190q-17 -91 24 -140t123 -49q147 0 182 179l99 508h34z" />
    <glyph glyph-name="K" unicode="K" horiz-adv-x="696" 
d="M585 0l-411 342l-67 -342h-34l138 710h34l-66 -340l516 340h54l-540 -356l422 -354h-46z" />
    <glyph glyph-name="L" unicode="L" 
d="M571 32l-6 -32h-492l138 710h34l-132 -678h458z" />
    <glyph glyph-name="M" unicode="M" horiz-adv-x="924" 
d="M264 710l165 -660l410 660h58l-138 -710h-33l131 675l-426 -679h-21l-173 685l-132 -681h-32l138 710h53z" />
    <glyph glyph-name="N" unicode="N" horiz-adv-x="787" 
d="M760 710l-139 -715h-22l-362 674l-131 -669h-33l138 710h42l348 -649l126 649h33z" />
    <glyph glyph-name="O" unicode="O" horiz-adv-x="770" 
d="M443 722q130 0 202 -91.5t72 -232.5q0 -106 -41 -198.5t-121 -152t-182 -59.5q-130 0 -202 91.5t-72 232.5q0 106 42.5 199.5t122.5 152t179 58.5zM373 21q93 0 165.5 58t107.5 143t35 176q0 79 -24.5 143.5t-80 106t-133.5 41.5q-93 0 -165.5 -58t-107.5 -142.5
t-35 -176.5q0 -79 24.5 -143.5t80 -106t133.5 -41.5z" />
    <glyph glyph-name="P" unicode="P" horiz-adv-x="698" 
d="M73 0l138 710h278q93 0 144.5 -44.5t51.5 -121.5q0 -90 -56 -148.5t-168 -58.5h-288l-66 -337h-34zM489 678h-250l-60 -309h282q95 0 141.5 49t46.5 126q0 66 -41 100t-119 34z" />
    <glyph glyph-name="Q" unicode="Q" horiz-adv-x="770" 
d="M717 398q0 -142 -74.5 -257.5t-197.5 -144.5l140 -148h-46l-136 141q-11 -1 -30 -1q-130 0 -202 91.5t-72 232.5q0 106 42.5 199.5t122.5 152t179 58.5q130 0 202 -91.5t72 -232.5zM373 21q93 0 165.5 58t107.5 143t35 176q0 79 -24.5 143.5t-80 106t-133.5 41.5
q-93 0 -165.5 -58t-107.5 -142.5t-35 -176.5q0 -79 24.5 -143.5t80 -106t133.5 -41.5z" />
    <glyph glyph-name="R" unicode="R" horiz-adv-x="724" 
d="M73 0l138 710h278q93 0 144.5 -45.5t51.5 -122.5q0 -80 -55.5 -137t-164.5 -57l149 -348h-35l-151 348h-253l-68 -348h-34zM489 678h-250l-58 -298h280q94 0 141 47.5t47 114.5q0 62 -41.5 99t-118.5 37z" />
    <glyph glyph-name="S" unicode="S" horiz-adv-x="680" 
d="M383 689q-94 0 -155.5 -40.5t-61.5 -113.5q0 -61 39.5 -90t126.5 -49l61 -13q104 -21 152.5 -65.5t48.5 -126.5q0 -93 -77 -148.5t-191 -55.5q-69 0 -124.5 19.5t-88 51t-50.5 60.5t-25 57h35q8 -22 22.5 -44t43 -49.5t77 -44.5t110.5 -17q97 0 165 46.5t68 124.5
q0 65 -38.5 102.5t-133.5 57.5l-61 12q-92 18 -143.5 57t-51.5 115q0 87 72.5 137t179.5 50q116 0 182.5 -52t81.5 -113h-33q-20 51 -77 91.5t-154 40.5z" />
    <glyph glyph-name="T" unicode="T" horiz-adv-x="717" 
d="M125 678l7 32h637l-6 -32h-302l-132 -678h-33l132 678h-303z" />
    <glyph glyph-name="U" unicode="U" horiz-adv-x="768" 
d="M744 710l-86 -445q-53 -277 -290 -277q-135 0 -202 80t-43 207l85 435h34l-84 -435q-23 -118 36 -186t174 -68q206 0 255 244l87 445h34z" />
    <glyph glyph-name="V" unicode="V" horiz-adv-x="713" 
d="M752 710l-424 -713h-33l-160 713h35l149 -664l396 664h37z" />
    <glyph glyph-name="W" unicode="W" horiz-adv-x="1011" 
d="M675 -4l-93 648l-325 -648h-25l-93 714h35l81 -649l327 653h24l91 -653l313 649h35l-345 -714h-25z" />
    <glyph glyph-name="X" unicode="X" horiz-adv-x="758" 
d="M634 0l-233 347l-352 -347h-46l379 374l-226 336h41l210 -312l316 312h46l-344 -339l249 -371h-40z" />
    <glyph glyph-name="Y" unicode="Y" horiz-adv-x="683" 
d="M378 318l-62 -318h-34l61 317l-231 393h39l213 -362l338 362h43z" />
    <glyph glyph-name="Z" unicode="Z" horiz-adv-x="682" 
d="M599 32l-6 -32h-585l4 19l613 659h-482l6 32h534l-4 -21l-611 -657h531z" />
    <glyph glyph-name="bracketleft" unicode="[" horiz-adv-x="362" 
d="M49 -124l184 946h208l-6 -32h-175l-172 -882h176l-6 -32h-209z" />
    <glyph glyph-name="backslash" unicode="\" horiz-adv-x="401" 
d="M297 -70h-31l-113 830h31z" />
    <glyph glyph-name="bracketright" unicode="]" horiz-adv-x="362" 
d="M142 790l6 32h209l-184 -946h-208l6 32h175l172 882h-176z" />
    <glyph glyph-name="asciicircum" unicode="^" horiz-adv-x="579" 
d="M489 278l-113 395l-266 -395h-38l294 438h32l125 -438h-34z" />
    <glyph glyph-name="underscore" unicode="_" horiz-adv-x="598" 
d="M-15 -118l6 31h491l-6 -31h-491z" />
    <glyph glyph-name="grave" unicode="`" horiz-adv-x="600" 
d="M426 575h-33l-64 163h35z" />
    <glyph glyph-name="a" unicode="a" horiz-adv-x="567" 
d="M386 0l19 98q-21 -45 -61.5 -77t-98.5 -32q-84 0 -130 62t-46 154q0 107 61.5 191.5t162.5 84.5q39 0 70 -15t48.5 -39t27 -47t12.5 -46l27 136h33l-91 -470h-34zM245 21q57 0 102 39t66 94t21 111q0 75 -36.5 129.5t-104.5 54.5q-58 0 -102.5 -38.5t-65.5 -93
t-21 -112.5q0 -77 36.5 -130.5t104.5 -53.5z" />
    <glyph glyph-name="b" unicode="b" horiz-adv-x="581" 
d="M512 266q0 -114 -62.5 -195.5t-166.5 -81.5q-73 0 -115 43.5t-54 101.5l-25 -134h-34l143 736h34l-69 -353q24 42 67 70t100 28q87 0 134.5 -61.5t47.5 -153.5zM477 266q0 77 -38 130t-109 53q-88 0 -143 -74t-55 -167q0 -79 38.5 -133t112.5 -54q87 0 140.5 75.5
t53.5 169.5z" />
    <glyph glyph-name="c" unicode="c" horiz-adv-x="516" 
d="M435 346q-12 40 -46.5 72t-91.5 32q-85 0 -139.5 -71.5t-54.5 -174.5q0 -82 39.5 -133t106.5 -51q105 0 162 102h33q-21 -51 -69.5 -92.5t-125.5 -41.5q-82 0 -131.5 59.5t-49.5 156.5q0 120 65.5 199t163.5 79q73 0 116.5 -42.5t55.5 -93.5h-34z" />
    <glyph glyph-name="d" unicode="d" horiz-adv-x="581" 
d="M400 0l20 99q-58 -110 -168 -110q-87 0 -135 62t-48 154q0 109 63.5 192.5t166.5 83.5q41 0 73 -15t50 -39.5t28 -46.5t15 -46l79 402h33l-143 -736h-34zM252 21q88 0 142 76t54 168q0 77 -39 130.5t-110 53.5q-88 0 -141.5 -75t-53.5 -169q0 -78 38.5 -131t109.5 -53z
" />
    <glyph glyph-name="e" unicode="e" horiz-adv-x="541" 
d="M302 482q92 0 141 -69t31 -168h-369q-2 -26 -2 -40q0 -81 40 -133t115 -52q46 0 84.5 18.5t55 36t27.5 36.5h33q-22 -47 -71.5 -85t-128.5 -38q-90 0 -140 61t-50 156q0 116 66 196.5t168 80.5zM302 450q-75 0 -124.5 -49t-66.5 -125h334q4 76 -34 125t-109 49z" />
    <glyph glyph-name="f" unicode="f" horiz-adv-x="426" 
d="M437 439h-187l-85 -439h-35l86 439h-146l6 31h146l22 114q14 78 50.5 115t111.5 37h169l-6 -31h-163q-60 0 -87.5 -29t-40.5 -92l-22 -114h187z" />
    <glyph glyph-name="g" unicode="g" horiz-adv-x="576" 
d="M521 470l-90 -459q-22 -114 -73 -175.5t-149 -61.5q-83 0 -130.5 41.5t-58.5 87.5h36q11 -34 49 -65.5t104 -31.5q81 0 125 53t63 152l17 88q-59 -110 -166 -110q-86 0 -132.5 61.5t-46.5 154.5q0 111 62.5 193.5t165.5 82.5q41 0 73 -15.5t49.5 -40t27.5 -47.5t13 -46
l27 138h34zM248 21q87 0 141 76t54 168q0 76 -38.5 130t-107.5 54q-59 0 -104.5 -37.5t-67 -92t-21.5 -114.5q0 -79 37 -131.5t107 -52.5z" />
    <glyph glyph-name="h" unicode="h" horiz-adv-x="575" 
d="M144 282l-55 -282h-34l144 736h34l-71 -357q24 47 66.5 75t98.5 28q82 0 129.5 -56t30.5 -145l-55 -281h-34l55 282q14 76 -24 122t-107 46q-71 0 -117.5 -46.5t-60.5 -121.5z" />
    <glyph glyph-name="i" unicode="i" horiz-adv-x="236" 
d="M169 585l27 141h34l-28 -141h-33zM55 0l91 470h34l-91 -470h-34z" />
    <glyph glyph-name="j" unicode="j" horiz-adv-x="236" 
d="M169 585l27 141h34l-28 -141h-33zM180 470l-103 -528q-17 -84 -50 -120t-106 -36h-116l6 33h111q57 0 82.5 28.5t38.5 94.5l103 528h34z" />
    <glyph glyph-name="k" unicode="k" horiz-adv-x="524" 
d="M416 0l-283 228l-44 -228h-34l143 736h34l-93 -477l343 211h59l-373 -229l295 -241h-47z" />
    <glyph glyph-name="l" unicode="l" horiz-adv-x="240" 
d="M57 0l143 736h34l-143 -736h-34z" />
    <glyph glyph-name="m" unicode="m" horiz-adv-x="894" 
d="M144 282l-55 -282h-34l92 470h34l-19 -90q53 102 158 102q60 0 102.5 -32.5t53.5 -88.5q23 53 69 87t106 34q80 0 126 -56t29 -145l-55 -281h-34l55 282q14 76 -23 122t-103 46q-67 0 -111.5 -47t-59.5 -122l-55 -281h-34l55 282q14 76 -23 122t-103 46q-67 0 -112 -47
t-59 -121z" />
    <glyph glyph-name="n" unicode="n" horiz-adv-x="575" 
d="M144 282l-55 -282h-34l92 470h34l-19 -91q24 47 67 75t98 28q82 0 129.5 -56t30.5 -145l-55 -281h-34l55 282q14 76 -24 122t-107 46q-71 0 -117.5 -46.5t-60.5 -121.5z" />
    <glyph glyph-name="o" unicode="o" horiz-adv-x="558" 
d="M257 -12q-88 0 -139 62t-51 156q0 114 66.5 195t166.5 81q89 0 139.5 -62t50.5 -156q0 -115 -66 -195.5t-167 -80.5zM257 20q87 0 142.5 73t55.5 171q0 80 -40.5 133t-114.5 53q-87 0 -142.5 -73t-55.5 -171q0 -79 41 -132.5t114 -53.5z" />
    <glyph glyph-name="p" unicode="p" horiz-adv-x="581" 
d="M283 -11q-73 0 -115 43.5t-54 101.5l-67 -348h-34l133 684h34l-17 -88q24 42 68 70.5t100 28.5q88 0 134.5 -61.5t46.5 -153.5q0 -113 -63.5 -195t-165.5 -82zM132 208q0 -79 38.5 -133t112.5 -54q87 0 140.5 75.5t53.5 169.5q0 77 -38 130t-108 53q-88 0 -143.5 -74.5
t-55.5 -166.5z" />
    <glyph glyph-name="q" unicode="q" horiz-adv-x="581" 
d="M525 470l-132 -684h-34l61 314q-56 -111 -168 -111q-87 0 -135 62t-48 154q0 111 62 193.5t167 82.5q41 0 72.5 -15t50.5 -39.5t29 -47t15 -45.5l27 136h33zM104 205q0 -78 38.5 -131t109.5 -53q88 0 142 76t54 168q0 76 -39.5 130t-110.5 54q-89 0 -141.5 -75
t-52.5 -169z" />
    <glyph glyph-name="r" unicode="r" horiz-adv-x="446" 
d="M144 284l-55 -284h-34l91 470h34l-18 -92q46 92 188 92h108l-6 -34h-106q-95 0 -141.5 -37.5t-60.5 -114.5z" />
    <glyph glyph-name="s" unicode="s" horiz-adv-x="514" 
d="M279 222l-47 9q-67 13 -101.5 41t-34.5 79q0 60 50 95.5t124 35.5q78 0 127.5 -32.5t65.5 -76.5h-35q-46 77 -158 77q-61 0 -100 -25.5t-39 -72.5q0 -36 26.5 -57t83.5 -32l46 -9q70 -14 104.5 -42t34.5 -82q0 -61 -51.5 -101t-131.5 -40q-93 0 -143 38.5t-63 83.5h35
q7 -18 23 -36t55.5 -36t92.5 -18q64 0 106 29.5t42 79.5q0 38 -25 59t-87 33z" />
    <glyph glyph-name="t" unicode="t" horiz-adv-x="454" 
d="M362 31l-6 -31h-70q-159 0 -130 146l57 293h-143l6 31h143l47 240h34l-47 -240h194l-6 -31h-194l-57 -293q-22 -115 96 -115h76z" />
    <glyph glyph-name="u" unicode="u" horiz-adv-x="566" 
d="M257 -12q-93 0 -139.5 56.5t-28.5 149.5l53 276h34l-54 -276q-16 -82 21 -128t114 -46q135 0 168 164l56 286h34l-56 -286q-19 -94 -67 -145t-135 -51z" />
    <glyph glyph-name="v" unicode="v" horiz-adv-x="501" 
d="M508 470l-288 -473h-24l-120 473h36l104 -419l253 419h39z" />
    <glyph glyph-name="w" unicode="w" horiz-adv-x="772" 
d="M499 -3l-81 417l-228 -417h-25l-86 473h36l73 -416l227 420h25l79 -421l221 417h36l-253 -473h-24z" />
    <glyph glyph-name="x" unicode="x" horiz-adv-x="519" 
d="M405 0l-148 211l-220 -211h-45l246 236l-164 234h43l146 -210l219 210h45l-246 -236l163 -234h-39z" />
    <glyph glyph-name="y" unicode="y" horiz-adv-x="502" 
d="M509 470l-413 -684h-36l133 220l-117 464h37l104 -424l255 424h37z" />
    <glyph glyph-name="z" unicode="z" horiz-adv-x="553" 
d="M460 32l-6 -32h-435l4 19l428 419h-343l7 32h399l-4 -18l-431 -420h381z" />
    <glyph glyph-name="braceleft" unicode="{" horiz-adv-x="387" 
d="M289 -92l-7 -32h-77q-130 0 -130 104q0 38 50.5 146t50.5 144q0 64 -66 64h-38l7 32h38q52 0 76 24t24 85q0 30 -2 97t-2 95q0 81 35.5 118t115.5 37h102l-6 -32h-96q-61 0 -89 -28.5t-28 -94.5q0 -28 2 -95t2 -97q0 -117 -95 -129q54 -14 54 -76q0 -40 -50.5 -147.5
t-50.5 -142.5q0 -72 96 -72h84z" />
    <glyph glyph-name="bar" unicode="|" horiz-adv-x="291" 
d="M60 -116l182 938h34l-182 -938h-34z" />
    <glyph glyph-name="braceright" unicode="}" horiz-adv-x="387" 
d="M217 31q0 -81 -35.5 -118t-115.5 -37h-102l6 32h96q61 0 89 28.5t28 94.5q0 28 -2 95.5t-2 97.5q0 117 95 129q-54 14 -54 76q0 40 50.5 147t50.5 142q0 72 -96 72h-84l7 32h77q130 0 130 -104q0 -38 -50.5 -145.5t-50.5 -143.5q0 -64 66 -64h38l-7 -32h-38
q-52 0 -76 -24t-24 -85q0 -30 2 -97.5t2 -95.5z" />
    <glyph glyph-name="asciitilde" unicode="~" horiz-adv-x="701" 
d="M131 402q26 134 115 134q42 0 70 -23.5t56 -80.5l43 -84q25 -50 45.5 -69t52.5 -19q34 0 52.5 26.5t27.5 75.5l33 174h34l-34 -174q-13 -67 -38.5 -100.5t-74.5 -33.5q-42 0 -70 23t-57 81l-43 84q-25 48 -45.5 68.5t-51.5 20.5q-35 0 -53 -26t-28 -77l-34 -174h-34z" />
    <glyph glyph-name="uni00A0" unicode="&#xa0;" horiz-adv-x="311" 
 />
    <glyph glyph-name="exclamdown" unicode="&#xa1;" horiz-adv-x="271" 
d="M150 225l-91 -465h-33l90 465h34zM197 470l-25 -130h-34l26 130h33z" />
    <glyph glyph-name="cent" unicode="&#xa2;" horiz-adv-x="534" 
d="M263 -12h-11l-19 -96h-34l19 101q-69 16 -108.5 77t-39.5 151q0 121 69 203.5t170 82.5h10l17 90h34l-18 -94q37 -7 65.5 -25t44 -40.5t23.5 -41.5t10 -35h-32q-12 43 -48 78.5t-106 35.5q-87 0 -145.5 -74t-58.5 -180q0 -88 43.5 -144.5t114.5 -56.5q115 0 169 109h34
q-4 -13 -11.5 -27.5t-24.5 -36t-38 -37.5t-55 -28t-74 -12z" />
    <glyph glyph-name="sterling" unicode="&#xa3;" horiz-adv-x="699" 
d="M602 32l-6 -32h-573l7 32h120l53 271h-121l6 32h121l34 176q20 100 68 155.5t138 55.5q96 0 145.5 -60.5t29.5 -150.5l-6 -28h-35l6 28q16 77 -21.5 127t-119.5 50q-77 0 -116 -47t-54 -130l-34 -176h257l-6 -32h-257l-53 -271h417z" />
    <glyph glyph-name="yen" unicode="&#xa5;" horiz-adv-x="685" 
d="M579 180h-223l-35 -180h-34l35 180h-223l6 32h223l27 137h-223l6 32h222l-199 329h42l178 -298l282 298h45l-313 -329h223l-6 -32h-223l-27 -137h223z" />
    <glyph glyph-name="brokenbar" unicode="&#xa6;" horiz-adv-x="291" 
d="M168 437l74 385h34l-75 -385h-33zM60 -116l78 398h33l-77 -398h-34z" />
    <glyph glyph-name="section" unicode="&#xa7;" 
d="M441 -31l-5 -27q-32 -178 -179 -178q-83 0 -128 48t-24 142l6 27h34l-6 -27q-17 -81 17 -119t101 -38q62 0 96 36t49 111l5 25q23 118 -81 139l-109 23q-71 15 -104 48t-33 87q0 69 44.5 108.5t128.5 31.5q-53 36 -36 138l5 27q33 178 179 178q81 0 125 -48.5t27 -141.5
l-6 -31h-34l6 31q15 81 -18.5 119t-99.5 38q-62 0 -96 -36t-49 -111l-5 -25q-23 -116 73 -137l116 -25q73 -16 105.5 -46.5t32.5 -85.5q0 -71 -44 -110.5t-132 -30.5q60 -36 39 -140zM227 163l107 -23q110 -24 159.5 9.5t49.5 100.5q0 77 -111 100l-118 25q-103 22 -151 -11
t-48 -98q0 -79 112 -103z" />
    <glyph glyph-name="dieresis" unicode="&#xa8;" horiz-adv-x="600" 
d="M260 585l28 141h34l-28 -141h-34zM436 585l28 141h34l-28 -141h-34z" />
    <glyph glyph-name="copyright" unicode="&#xa9;" horiz-adv-x="875" 
d="M460 -12q-158 0 -262.5 105t-104.5 262q0 156 105 261.5t262 105.5t262 -105.5t105 -261.5t-105 -261.5t-262 -105.5zM460 22q141 0 236.5 96t95.5 237t-95.5 237t-236.5 96q-142 0 -237 -96t-95 -237q0 -142 94.5 -237.5t237.5 -95.5zM464 158q-81 0 -135 57.5
t-54 141.5t54 141.5t135 57.5q72 0 114.5 -38t53.5 -80h-34q-13 33 -46.5 58.5t-87.5 25.5q-70 0 -112 -47.5t-42 -117.5t42 -117.5t112 -47.5q54 0 88 27t46 61h34q-10 -43 -53 -82.5t-115 -39.5z" />
    <glyph glyph-name="ordfeminine" unicode="&#xaa;" horiz-adv-x="510" 
d="M399 306l16 77q-50 -87 -133 -87q-73 0 -117 49t-44 135q0 109 56.5 175t139.5 66q61 0 96 -36.5t42 -83.5l22 109h34l-79 -404h-33zM282 328q70 0 114 61.5t44 146.5q0 68 -32 110.5t-91 42.5q-75 0 -118 -59.5t-43 -149.5q0 -68 33 -110t93 -42z" />
    <glyph glyph-name="guillemotleft" unicode="&#xab;" horiz-adv-x="509" 
d="M274 448l-154 -175l87 -171h-34l-91 175l153 171h39zM471 448l-157 -177l85 -169h-34l-89 173l156 173h39z" />
    <glyph glyph-name="registered" unicode="&#xae;" horiz-adv-x="576" 
d="M336 246q-103 0 -170.5 68t-67.5 170q0 100 68.5 169t169.5 69t169.5 -69t68.5 -169t-68.5 -169t-169.5 -69zM336 280q91 0 147 58.5t56 145.5t-56.5 145.5t-146.5 58.5t-146.5 -58.5t-56.5 -145.5t57 -145.5t146 -58.5zM246 368v235h114q83 0 83 -71q0 -55 -53 -67
l55 -97h-37l-56 94h-72v-94h-34zM360 570h-80v-76h80q48 0 48 38t-48 38z" />
    <glyph glyph-name="macron" unicode="&#xaf;" horiz-adv-x="500" 
d="M454 620h-256l6 31h256z" />
    <glyph glyph-name="degree" unicode="&#xb0;" horiz-adv-x="539" 
d="M330 378q-74 0 -123 49.5t-49 122.5t49 122.5t123 49.5t123 -49.5t49 -122.5t-49 -122.5t-123 -49.5zM330 412q60 0 98.5 39.5t38.5 98.5q0 60 -38.5 99t-98.5 39t-98.5 -39t-38.5 -99q0 -59 38 -98.5t99 -39.5z" />
    <glyph glyph-name="two.sup" unicode="&#xb2;" horiz-adv-x="443" 
d="M395 268l-6 -32h-316l4 21l192 161q69 58 96.5 92.5t27.5 78.5t-27 70.5t-74 26.5q-49 0 -79.5 -32.5t-39.5 -86.5l-4 -20h-34l3 20q13 69 51 110t103 41q64 0 100 -36.5t36 -92.5q0 -29 -8 -52t-32.5 -50.5t-39.5 -41t-60 -51.5l-149 -126h256z" />
    <glyph glyph-name="three.sup" unicode="&#xb3;" horiz-adv-x="462" 
d="M411 375q0 -61 -44 -104t-125 -43q-72 0 -111 38t-42 84h36q3 -34 33.5 -62t83.5 -28q63 0 99 33t36 83q0 44 -29 67t-82 23h-62l6 31h84q52 0 81.5 29t29.5 73q0 39 -29 63t-75 24t-78.5 -25.5t-38.5 -60.5h-35q7 45 46.5 81.5t105.5 36.5q65 0 102.5 -33t37.5 -86
q0 -51 -30 -81.5t-71 -37.5q29 -9 50 -36t21 -69z" />
    <glyph glyph-name="acute" unicode="&#xb4;" horiz-adv-x="600" 
d="M298 575l121 163h39l-121 -163h-39z" />
    <glyph glyph-name="paragraph" unicode="&#xb6;" horiz-adv-x="602" 
d="M115 540q0 71 48 120.5t131 49.5h281l-138 -710h-34l132 678h-151l-132 -678h-34l77 398h-27q-70 0 -111.5 38t-41.5 104z" />
    <glyph glyph-name="periodcentered" unicode="&#xb7;" horiz-adv-x="228" 
d="M109 305l26 132h34l-26 -132h-34z" />
    <glyph glyph-name="cedilla" unicode="&#xb8;" horiz-adv-x="600" 
d="M169 -222h82q74 0 74 62q0 51 -63 51h-42l22 109h33l-15 -77h4q48 0 72 -22t24 -61q0 -40 -26.5 -67t-82.5 -27h-89z" />
    <glyph glyph-name="one.sup" unicode="&#xb9;" horiz-adv-x="326" 
d="M311 712l-93 -476h-35l84 428l-143 -81l8 37l157 92h22z" />
    <glyph glyph-name="ordmasculine" unicode="&#xba;" horiz-adv-x="517" 
d="M494 536q0 -98 -55 -169t-145 -71q-78 0 -121.5 52.5t-43.5 134.5q0 98 55 169t145 71q78 0 121.5 -52.5t43.5 -134.5zM294 328q76 0 120.5 61.5t44.5 146.5q0 69 -34 112t-96 43q-76 0 -120.5 -61.5t-44.5 -146.5q0 -68 34.5 -111.5t95.5 -43.5z" />
    <glyph glyph-name="guillemotright" unicode="&#xbb;" horiz-adv-x="509" 
d="M442 273l-153 -171h-39l154 175l-86 171h34zM248 275l-156 -173h-39l157 177l-85 169h34z" />
    <glyph glyph-name="onequarter" unicode="&#xbc;" horiz-adv-x="916" 
d="M837 134h-93l-26 -134h-34l26 134h-209l3 17l258 255h35l-47 -242h93zM557 164h159l39 197zM280 712l-79 -408h-35l71 362l-120 -67l7 36l133 77h23zM173 0h-40l588 710h40z" />
    <glyph glyph-name="onehalf" unicode="&#xbd;" horiz-adv-x="903" 
d="M280 712l-79 -408h-35l71 362l-120 -67l7 36l133 77h23zM172 0h-40l588 710h40zM809 32l-6 -32h-273l4 21l167 140q56 46 78.5 74.5t22.5 65.5q0 36 -22.5 58t-60.5 22q-41 0 -66 -26.5t-32 -70.5l-4 -19h-34l3 19q10 58 44 93.5t89 35.5t86.5 -31.5t31.5 -80.5
q0 -24 -7 -44t-27.5 -43t-33 -34.5t-49.5 -42.5l-125 -105h214z" />
    <glyph glyph-name="threequarters" unicode="&#xbe;" horiz-adv-x="1013" 
d="M369 424q0 -53 -38 -90t-108 -37q-63 0 -96 32.5t-36 74.5h35q3 -30 28 -52.5t69 -22.5q52 0 82 27t30 68q0 36 -24.5 55t-67.5 19h-55l7 32h72q43 0 67.5 23.5t24.5 59.5q0 33 -23.5 52.5t-62.5 19.5t-65 -21t-32 -50h-34q4 39 39 71t92 32t89 -28t32 -76
q0 -42 -26.5 -69t-58.5 -31q60 -19 60 -89zM934 134h-93l-26 -134h-34l26 134h-209l3 17l258 255h35l-47 -242h93zM654 164h159l39 197zM270 0h-40l588 710h40z" />
    <glyph glyph-name="questiondown" unicode="&#xbf;" horiz-adv-x="530" 
d="M188 107l83 41q31 15 43.5 32t18.5 51h33q-9 -46 -23.5 -67t-57.5 -42l-82 -42q-80 -41 -113.5 -79.5t-33.5 -93.5q0 -59 39 -93t105 -34q128 0 166 156l7 29h34l-6 -29q-19 -87 -69.5 -137.5t-131.5 -50.5t-129.5 43.5t-48.5 115.5q0 66 40.5 112t125.5 88zM413 470
l-25 -130h-34l25 130h34z" />
    <glyph glyph-name="Agrave" unicode="&#xc0;" horiz-adv-x="719" 
d="M601 0l-55 230h-368l-138 -230h-37l428 714h32l171 -714h-33zM197 262h341l-98 406zM472 788h-36l-75 130h37z" />
    <glyph glyph-name="Aacute" unicode="&#xc1;" horiz-adv-x="719" 
d="M601 0l-55 230h-368l-138 -230h-37l428 714h32l171 -714h-33zM197 262h341l-98 406zM434 788l118 130h42l-119 -130h-41z" />
    <glyph glyph-name="Acircumflex" unicode="&#xc2;" horiz-adv-x="719" 
d="M601 0l-55 230h-368l-138 -230h-37l428 714h32l171 -714h-33zM197 262h341l-98 406zM570 785l-95 108l-123 -108h-43l154 136h28l116 -136h-37z" />
    <glyph glyph-name="Atilde" unicode="&#xc3;" horiz-adv-x="719" 
d="M601 0l-55 230h-368l-138 -230h-37l428 714h32l171 -714h-33zM197 262h341l-98 406zM324 844q14 74 62 74q30 0 64 -31l47 -40q26 -23 43 -23q13 0 19.5 10.5t10.5 32.5l12 61h32l-12 -61q-7 -36 -20.5 -55t-41.5 -19q-30 0 -64 31l-47 40q-26 23 -43 23
q-13 0 -19.5 -10.5t-10.5 -32.5l-12 -61h-32z" />
    <glyph glyph-name="Adieresis" unicode="&#xc4;" horiz-adv-x="719" 
d="M601 0l-55 230h-368l-138 -230h-37l428 714h32l171 -714h-33zM197 262h341l-98 406zM343 778l27 139h33l-27 -139h-33zM533 778l27 139h33l-27 -139h-33z" />
    <glyph glyph-name="Aring" unicode="&#xc5;" horiz-adv-x="719" 
d="M601 0l-55 230h-368l-138 -230h-37l428 714h32l171 -714h-33zM197 262h341l-98 406zM467 784q-48 0 -79.5 32t-31.5 78t31.5 78t79.5 32t79.5 -32t31.5 -78t-31.5 -78t-79.5 -32zM467 815q34 0 56 23t22 56t-21.5 56t-56.5 23t-56.5 -23t-21.5 -56t22 -56t56 -23z" />
    <glyph glyph-name="AE" unicode="&#xc6;" horiz-adv-x="1014" 
d="M931 32l-7 -32h-458l41 211h-319l-185 -211h-39l620 710h444l-7 -32h-389l-55 -284h245l-7 -32h-245l-64 -330h425zM216 243h297l85 435z" />
    <glyph glyph-name="Ccedilla" unicode="&#xc7;" horiz-adv-x="718" 
d="M363 -12q-30 0 -57 6l-14 -71h4q48 0 72 -22t24 -61q0 -40 -26.5 -67t-82.5 -27h-89l7 32h82q74 0 74 62q0 51 -63 51h-42l22 112q-7 2 -19 8q-73 34 -114.5 111.5t-41.5 184.5q0 176 99 295.5t241 119.5q58 0 105.5 -20t76 -51.5t45 -62t23.5 -60.5h-34q-7 24 -21.5 49
t-39.5 51.5t-65.5 43.5t-89.5 17q-128 0 -216 -111.5t-88 -270.5q0 -126 62 -206t166 -80q52 0 96.5 16t75 42.5t49 49.5t32.5 49h34q-12 -29 -33 -58.5t-55 -61t-86 -51t-113 -19.5z" />
    <glyph glyph-name="Egrave" unicode="&#xc8;" horiz-adv-x="672" 
d="M73 0l138 710h475l-6 -32h-441l-55 -284h271l-6 -32h-272l-64 -330h477l-6 -32h-511zM486 788h-36l-75 130h37z" />
    <glyph glyph-name="Eacute" unicode="&#xc9;" horiz-adv-x="672" 
d="M73 0l138 710h475l-6 -32h-441l-55 -284h271l-6 -32h-272l-64 -330h477l-6 -32h-511zM422 788l118 130h42l-119 -130h-41z" />
    <glyph glyph-name="Ecircumflex" unicode="&#xca;" horiz-adv-x="672" 
d="M73 0l138 710h475l-6 -32h-441l-55 -284h271l-6 -32h-272l-64 -330h477l-6 -32h-511zM578 785l-95 108l-123 -108h-43l154 136h28l116 -136h-37z" />
    <glyph glyph-name="Edieresis" unicode="&#xcb;" horiz-adv-x="672" 
d="M73 0l138 710h475l-6 -32h-441l-55 -284h271l-6 -32h-272l-64 -330h477l-6 -32h-511zM350 778l27 139h33l-27 -139h-33zM540 778l27 139h33l-27 -139h-33z" />
    <glyph glyph-name="Igrave" unicode="&#xcc;" horiz-adv-x="276" 
d="M75 0l138 710h34l-138 -710h-34zM261 788h-36l-75 130h37z" />
    <glyph glyph-name="Iacute" unicode="&#xcd;" horiz-adv-x="276" 
d="M75 0l138 710h34l-138 -710h-34zM223 788l118 130h42l-119 -130h-41z" />
    <glyph glyph-name="Icircumflex" unicode="&#xce;" horiz-adv-x="276" 
d="M75 0l138 710h34l-138 -710h-34zM360 785l-95 108l-123 -108h-43l154 136h28l116 -136h-37z" />
    <glyph glyph-name="Idieresis" unicode="&#xcf;" horiz-adv-x="276" 
d="M75 0l138 710h34l-138 -710h-34zM132 778l27 139h33l-27 -139h-33zM322 778l27 139h33l-27 -139h-33z" />
    <glyph glyph-name="Eth" unicode="&#xd0;" horiz-adv-x="752" 
d="M32 343l7 32h107l66 335h164q153 0 238.5 -86.5t85.5 -229.5q0 -172 -103 -283t-277 -111h-246l66 343h-108zM376 678h-136l-59 -303h237l-7 -32h-237l-60 -311h206q156 0 250 102.5t94 259.5q0 130 -76 207t-212 77z" />
    <glyph glyph-name="Ntilde" unicode="&#xd1;" horiz-adv-x="787" 
d="M760 710l-139 -715h-22l-362 674l-131 -669h-33l138 710h42l348 -649l126 649h33zM367 844q14 74 62 74q30 0 64 -31l47 -40q26 -23 43 -23q13 0 19.5 10.5t10.5 32.5l12 61h32l-12 -61q-7 -36 -20.5 -55t-41.5 -19q-30 0 -64 31l-47 40q-26 23 -43 23q-13 0 -19.5 -10.5
t-10.5 -32.5l-12 -61h-32z" />
    <glyph glyph-name="Ograve" unicode="&#xd2;" horiz-adv-x="770" 
d="M443 722q130 0 202 -91.5t72 -232.5q0 -106 -41 -198.5t-121 -152t-182 -59.5q-130 0 -202 91.5t-72 232.5q0 106 42.5 199.5t122.5 152t179 58.5zM373 21q93 0 165.5 58t107.5 143t35 176q0 79 -24.5 143.5t-80 106t-133.5 41.5q-93 0 -165.5 -58t-107.5 -142.5
t-35 -176.5q0 -79 24.5 -143.5t80 -106t133.5 -41.5zM475 788h-36l-75 130h37z" />
    <glyph glyph-name="Oacute" unicode="&#xd3;" horiz-adv-x="770" 
d="M443 722q130 0 202 -91.5t72 -232.5q0 -106 -41 -198.5t-121 -152t-182 -59.5q-130 0 -202 91.5t-72 232.5q0 106 42.5 199.5t122.5 152t179 58.5zM373 21q93 0 165.5 58t107.5 143t35 176q0 79 -24.5 143.5t-80 106t-133.5 41.5q-93 0 -165.5 -58t-107.5 -142.5
t-35 -176.5q0 -79 24.5 -143.5t80 -106t133.5 -41.5zM437 788l118 130h42l-119 -130h-41z" />
    <glyph glyph-name="Ocircumflex" unicode="&#xd4;" horiz-adv-x="770" 
d="M443 722q130 0 202 -91.5t72 -232.5q0 -106 -41 -198.5t-121 -152t-182 -59.5q-130 0 -202 91.5t-72 232.5q0 106 42.5 199.5t122.5 152t179 58.5zM373 21q93 0 165.5 58t107.5 143t35 176q0 79 -24.5 143.5t-80 106t-133.5 41.5q-93 0 -165.5 -58t-107.5 -142.5
t-35 -176.5q0 -79 24.5 -143.5t80 -106t133.5 -41.5zM565 785l-95 108l-123 -108h-43l154 136h28l116 -136h-37z" />
    <glyph glyph-name="Otilde" unicode="&#xd5;" horiz-adv-x="770" 
d="M443 722q130 0 202 -91.5t72 -232.5q0 -106 -41 -198.5t-121 -152t-182 -59.5q-130 0 -202 91.5t-72 232.5q0 106 42.5 199.5t122.5 152t179 58.5zM373 21q93 0 165.5 58t107.5 143t35 176q0 79 -24.5 143.5t-80 106t-133.5 41.5q-93 0 -165.5 -58t-107.5 -142.5
t-35 -176.5q0 -79 24.5 -143.5t80 -106t133.5 -41.5zM333 844q14 74 62 74q30 0 64 -31l47 -40q26 -23 43 -23q13 0 19.5 10.5t10.5 32.5l12 61h32l-12 -61q-7 -36 -20.5 -55t-41.5 -19q-30 0 -64 31l-47 40q-26 23 -43 23q-13 0 -19.5 -10.5t-10.5 -32.5l-12 -61h-32z" />
    <glyph glyph-name="Odieresis" unicode="&#xd6;" horiz-adv-x="770" 
d="M443 722q130 0 202 -91.5t72 -232.5q0 -106 -41 -198.5t-121 -152t-182 -59.5q-130 0 -202 91.5t-72 232.5q0 106 42.5 199.5t122.5 152t179 58.5zM373 21q93 0 165.5 58t107.5 143t35 176q0 79 -24.5 143.5t-80 106t-133.5 41.5q-93 0 -165.5 -58t-107.5 -142.5
t-35 -176.5q0 -79 24.5 -143.5t80 -106t133.5 -41.5zM336 778l27 139h33l-27 -139h-33zM526 778l27 139h33l-27 -139h-33z" />
    <glyph glyph-name="multiply" unicode="&#xd7;" horiz-adv-x="634" 
d="M507 94l-26 -20l-155 197l-230 -197l-22 23l232 200l-156 199l28 20l154 -198l230 198l22 -24l-232 -199z" />
    <glyph glyph-name="Oslash" unicode="&#xd8;" horiz-adv-x="770" 
d="M717 398q0 -106 -41 -198.5t-121 -152t-182 -59.5q-120 0 -196 86l-67 -74h-41l89 99q-59 86 -59 213q0 106 42.5 199.5t122.5 152t179 58.5q120 0 196 -86l67 74h41l-89 -99q59 -86 59 -213zM135 312q0 -110 46 -187l435 485q-63 79 -173 79q-93 0 -165.5 -58
t-107.5 -142.5t-35 -176.5zM681 398q0 110 -46 187l-435 -485q63 -79 173 -79q93 0 165.5 58t107.5 143t35 176z" />
    <glyph glyph-name="Ugrave" unicode="&#xd9;" horiz-adv-x="768" 
d="M744 710l-86 -445q-53 -277 -290 -277q-135 0 -202 80t-43 207l85 435h34l-84 -435q-23 -118 36 -186t174 -68q206 0 255 244l87 445h34zM509 788h-36l-75 130h37z" />
    <glyph glyph-name="Uacute" unicode="&#xda;" horiz-adv-x="768" 
d="M744 710l-86 -445q-53 -277 -290 -277q-135 0 -202 80t-43 207l85 435h34l-84 -435q-23 -118 36 -186t174 -68q206 0 255 244l87 445h34zM446 788l118 130h42l-119 -130h-41z" />
    <glyph glyph-name="Ucircumflex" unicode="&#xdb;" horiz-adv-x="768" 
d="M744 710l-86 -445q-53 -277 -290 -277q-135 0 -202 80t-43 207l85 435h34l-84 -435q-23 -118 36 -186t174 -68q206 0 255 244l87 445h34zM600 785l-95 108l-123 -108h-43l154 136h28l116 -136h-37z" />
    <glyph glyph-name="Udieresis" unicode="&#xdc;" horiz-adv-x="768" 
d="M744 710l-86 -445q-53 -277 -290 -277q-135 0 -202 80t-43 207l85 435h34l-84 -435q-23 -118 36 -186t174 -68q206 0 255 244l87 445h34zM372 778l27 139h33l-27 -139h-33zM562 778l27 139h33l-27 -139h-33z" />
    <glyph glyph-name="Yacute" unicode="&#xdd;" horiz-adv-x="683" 
d="M378 318l-62 -318h-34l61 317l-231 393h39l213 -362l338 362h43zM393 788l118 130h42l-119 -130h-41z" />
    <glyph glyph-name="Thorn" unicode="&#xde;" horiz-adv-x="707" 
d="M446 183h-303l-36 -183h-34l138 710h34l-32 -167h261q91 0 140 -42.5t49 -118.5q0 -86 -54.5 -142.5t-162.5 -56.5zM473 511h-267l-57 -296h298q89 0 134.5 46.5t45.5 120.5q0 62 -39.5 95.5t-114.5 33.5z" />
    <glyph glyph-name="germandbls" unicode="&#xdf;" horiz-adv-x="579" 
d="M192 532l-103 -532h-34l103 532q19 102 69 159t134 57q75 0 122.5 -45.5t47.5 -119.5q0 -73 -44 -124t-104 -60q123 -35 123 -171q0 -99 -60 -163.5t-177 -64.5h-44l6 31h38q95 0 148.5 55t53.5 142q0 75 -45 116t-124 41h-2l6 31h22q76 0 122 48.5t46 118.5
q0 62 -37 97.5t-98 35.5q-132 0 -169 -184z" />
    <glyph glyph-name="agrave" unicode="&#xe0;" horiz-adv-x="567" 
d="M386 0l19 98q-21 -45 -61.5 -77t-98.5 -32q-84 0 -130 62t-46 154q0 107 61.5 191.5t162.5 84.5q39 0 70 -15t48.5 -39t27 -47t12.5 -46l27 136h33l-91 -470h-34zM245 21q57 0 102 39t66 94t21 111q0 75 -36.5 129.5t-104.5 54.5q-58 0 -102.5 -38.5t-65.5 -93
t-21 -112.5q0 -77 36.5 -130.5t104.5 -53.5zM330 575h-33l-64 163h35z" />
    <glyph glyph-name="aacute" unicode="&#xe1;" horiz-adv-x="567" 
d="M386 0l19 98q-21 -45 -61.5 -77t-98.5 -32q-84 0 -130 62t-46 154q0 107 61.5 191.5t162.5 84.5q39 0 70 -15t48.5 -39t27 -47t12.5 -46l27 136h33l-91 -470h-34zM245 21q57 0 102 39t66 94t21 111q0 75 -36.5 129.5t-104.5 54.5q-58 0 -102.5 -38.5t-65.5 -93
t-21 -112.5q0 -77 36.5 -130.5t104.5 -53.5zM297 575l121 163h39l-121 -163h-39z" />
    <glyph glyph-name="acircumflex" unicode="&#xe2;" horiz-adv-x="567" 
d="M386 0l19 98q-21 -45 -61.5 -77t-98.5 -32q-84 0 -130 62t-46 154q0 107 61.5 191.5t162.5 84.5q39 0 70 -15t48.5 -39t27 -47t12.5 -46l27 136h33l-91 -470h-34zM245 21q57 0 102 39t66 94t21 111q0 75 -36.5 129.5t-104.5 54.5q-58 0 -102.5 -38.5t-65.5 -93
t-21 -112.5q0 -77 36.5 -130.5t104.5 -53.5zM413 572l-69 138l-113 -138h-37l141 173h25l85 -173h-32z" />
    <glyph glyph-name="atilde" unicode="&#xe3;" horiz-adv-x="567" 
d="M386 0l19 98q-21 -45 -61.5 -77t-98.5 -32q-84 0 -130 62t-46 154q0 107 61.5 191.5t162.5 84.5q39 0 70 -15t48.5 -39t27 -47t12.5 -46l27 136h33l-91 -470h-34zM245 21q57 0 102 39t66 94t21 111q0 75 -36.5 129.5t-104.5 54.5q-58 0 -102.5 -38.5t-65.5 -93
t-21 -112.5q0 -77 36.5 -130.5t104.5 -53.5zM233 571h-31l14 72q7 36 21 54.5t41 18.5q30 0 58 -34l40 -51q20 -24 36 -24q21 0 30 41l15 73h31l-14 -72q-7 -36 -21 -54.5t-41 -18.5q-30 0 -58 34l-41 51q-19 24 -35 24q-21 0 -30 -41z" />
    <glyph glyph-name="adieresis" unicode="&#xe4;" horiz-adv-x="567" 
d="M386 0l19 98q-21 -45 -61.5 -77t-98.5 -32q-84 0 -130 62t-46 154q0 107 61.5 191.5t162.5 84.5q39 0 70 -15t48.5 -39t27 -47t12.5 -46l27 136h33l-91 -470h-34zM245 21q57 0 102 39t66 94t21 111q0 75 -36.5 129.5t-104.5 54.5q-58 0 -102.5 -38.5t-65.5 -93
t-21 -112.5q0 -77 36.5 -130.5t104.5 -53.5zM218 585l28 141h34l-28 -141h-34zM394 585l28 141h34l-28 -141h-34z" />
    <glyph glyph-name="aring" unicode="&#xe5;" horiz-adv-x="567" 
d="M386 0l19 98q-21 -45 -61.5 -77t-98.5 -32q-84 0 -130 62t-46 154q0 107 61.5 191.5t162.5 84.5q39 0 70 -15t48.5 -39t27 -47t12.5 -46l27 136h33l-91 -470h-34zM245 21q57 0 102 39t66 94t21 111q0 75 -36.5 129.5t-104.5 54.5q-58 0 -102.5 -38.5t-65.5 -93
t-21 -112.5q0 -77 36.5 -130.5t104.5 -53.5zM361 563q-48 0 -79.5 32t-31.5 78t31.5 78t79.5 32t79.5 -32t31.5 -78t-31.5 -78t-79.5 -32zM361 594q35 0 56.5 22.5t21.5 56.5t-21.5 56.5t-56.5 22.5t-56.5 -22.5t-21.5 -56.5t21.5 -56.5t56.5 -22.5z" />
    <glyph glyph-name="ae" unicode="&#xe6;" horiz-adv-x="873" 
d="M635 482q89 0 139 -69.5t32 -167.5h-365q-2 -26 -2 -40q0 -81 39 -133t114 -52q101 0 165 91h33q-22 -47 -71.5 -85t-126.5 -38q-73 0 -120.5 42.5t-58.5 112.5q-13 -63 -67.5 -109t-133.5 -46q-73 0 -119 37.5t-46 103.5q0 67 45.5 107t131.5 40h188l1 3
q15 82 -21 126.5t-107 44.5q-42 0 -75 -17.5t-46.5 -34.5t-22.5 -35h-35q15 44 61.5 81.5t117.5 37.5q63 0 106.5 -30.5t53.5 -83.5q28 53 77 83.5t113 30.5zM635 450q-77 0 -126 -49t-63 -125h331q4 75 -34.5 124.5t-107.5 49.5zM82 129q0 -52 37 -80.5t93 -28.5
q63 0 113.5 38t64.5 102l17 85h-183q-70 0 -106 -31t-36 -85z" />
    <glyph glyph-name="ccedilla" unicode="&#xe7;" horiz-adv-x="516" 
d="M469 346h-34q-12 40 -46.5 72t-91.5 32q-85 0 -139.5 -71.5t-54.5 -174.5q0 -82 39.5 -133t106.5 -51q105 0 162 102h33q-21 -51 -69.5 -92.5t-125.5 -41.5q-20 0 -43 5l-13 -70h4q48 0 72 -22t24 -61q0 -40 -26.5 -67t-82.5 -27h-89l7 32h82q74 0 74 62q0 51 -63 51h-42
l22 112h-1q-50 24 -78 76.5t-28 124.5q0 120 65.5 199t163.5 79q73 0 116.5 -42.5t55.5 -93.5z" />
    <glyph glyph-name="egrave" unicode="&#xe8;" horiz-adv-x="541" 
d="M302 482q92 0 141 -69t31 -168h-369q-2 -26 -2 -40q0 -81 40 -133t115 -52q46 0 84.5 18.5t55 36t27.5 36.5h33q-22 -47 -71.5 -85t-128.5 -38q-90 0 -140 61t-50 156q0 116 66 196.5t168 80.5zM302 450q-75 0 -124.5 -49t-66.5 -125h334q4 76 -34 125t-109 49zM339 575
h-33l-64 163h35z" />
    <glyph glyph-name="eacute" unicode="&#xe9;" horiz-adv-x="541" 
d="M302 482q92 0 141 -69t31 -168h-369q-2 -26 -2 -40q0 -81 40 -133t115 -52q46 0 84.5 18.5t55 36t27.5 36.5h33q-22 -47 -71.5 -85t-128.5 -38q-90 0 -140 61t-50 156q0 116 66 196.5t168 80.5zM302 450q-75 0 -124.5 -49t-66.5 -125h334q4 76 -34 125t-109 49zM287 575
l121 163h39l-121 -163h-39z" />
    <glyph glyph-name="ecircumflex" unicode="&#xea;" horiz-adv-x="541" 
d="M302 482q92 0 141 -69t31 -168h-369q-2 -26 -2 -40q0 -81 40 -133t115 -52q46 0 84.5 18.5t55 36t27.5 36.5h33q-22 -47 -71.5 -85t-128.5 -38q-90 0 -140 61t-50 156q0 116 66 196.5t168 80.5zM302 450q-75 0 -124.5 -49t-66.5 -125h334q4 76 -34 125t-109 49zM414 572
l-69 138l-113 -138h-37l141 173h25l85 -173h-32z" />
    <glyph glyph-name="edieresis" unicode="&#xeb;" horiz-adv-x="541" 
d="M302 482q92 0 141 -69t31 -168h-369q-2 -26 -2 -40q0 -81 40 -133t115 -52q46 0 84.5 18.5t55 36t27.5 36.5h33q-22 -47 -71.5 -85t-128.5 -38q-90 0 -140 61t-50 156q0 116 66 196.5t168 80.5zM302 450q-75 0 -124.5 -49t-66.5 -125h334q4 76 -34 125t-109 49zM215 585
l28 141h34l-28 -141h-34zM391 585l28 141h34l-28 -141h-34z" />
    <glyph glyph-name="igrave" unicode="&#xec;" horiz-adv-x="236" 
d="M55 0l91 470h34l-91 -470h-34zM197 575h-33l-64 163h35z" />
    <glyph glyph-name="iacute" unicode="&#xed;" horiz-adv-x="236" 
d="M55 0l91 470h34l-91 -470h-34zM164 575l121 163h39l-121 -163h-39z" />
    <glyph glyph-name="icircumflex" unicode="&#xee;" horiz-adv-x="236" 
d="M278 572l-69 138l-113 -138h-37l141 173h25l85 -173h-32zM55 0l91 470h34l-91 -470h-34z" />
    <glyph glyph-name="idieresis" unicode="&#xef;" horiz-adv-x="236" 
d="M80 585l28 141h34l-28 -141h-34zM256 585l28 141h34l-28 -141h-34zM55 0l91 470h34l-91 -470h-34z" />
    <glyph glyph-name="eth" unicode="&#xf0;" horiz-adv-x="558" 
d="M490 264q0 -117 -65 -196.5t-168 -79.5q-87 0 -138.5 60.5t-51.5 157.5q0 115 66 195.5t167 80.5q74 0 119 -62l-104 185l-142 -85l-17 24l145 87l-59 105h39l49 -88l143 86l15 -25l-144 -86l71 -129q27 -50 39.5 -75.5t24 -68t11.5 -86.5zM257 20q88 0 143 72.5
t55 171.5q0 80 -41 133t-114 53q-88 0 -143 -72.5t-55 -171.5q0 -79 41 -132.5t114 -53.5z" />
    <glyph glyph-name="ntilde" unicode="&#xf1;" horiz-adv-x="575" 
d="M144 282l-55 -282h-34l92 470h34l-19 -91q24 47 67 75t98 28q82 0 129.5 -56t30.5 -145l-55 -281h-34l55 282q14 76 -24 122t-107 46q-71 0 -117.5 -46.5t-60.5 -121.5zM239 571h-31l14 72q7 36 21 54.5t41 18.5q30 0 58 -34l40 -51q20 -24 36 -24q21 0 30 41l15 73h31
l-14 -72q-7 -36 -21 -54.5t-41 -18.5q-30 0 -58 34l-41 51q-19 24 -35 24q-21 0 -30 -41z" />
    <glyph glyph-name="ograve" unicode="&#xf2;" horiz-adv-x="558" 
d="M257 -12q-88 0 -139 62t-51 156q0 114 66.5 195t166.5 81q89 0 139.5 -62t50.5 -156q0 -115 -66 -195.5t-167 -80.5zM257 20q87 0 142.5 73t55.5 171q0 80 -40.5 133t-114.5 53q-87 0 -142.5 -73t-55.5 -171q0 -79 41 -132.5t114 -53.5zM345 575h-33l-64 163h35z" />
    <glyph glyph-name="oacute" unicode="&#xf3;" horiz-adv-x="558" 
d="M257 -12q-88 0 -139 62t-51 156q0 114 66.5 195t166.5 81q89 0 139.5 -62t50.5 -156q0 -115 -66 -195.5t-167 -80.5zM257 20q87 0 142.5 73t55.5 171q0 80 -40.5 133t-114.5 53q-87 0 -142.5 -73t-55.5 -171q0 -79 41 -132.5t114 -53.5zM312 575l121 163h39l-121 -163
h-39z" />
    <glyph glyph-name="ocircumflex" unicode="&#xf4;" horiz-adv-x="558" 
d="M257 -12q-88 0 -139 62t-51 156q0 114 66.5 195t166.5 81q89 0 139.5 -62t50.5 -156q0 -115 -66 -195.5t-167 -80.5zM257 20q87 0 142.5 73t55.5 171q0 80 -40.5 133t-114.5 53q-87 0 -142.5 -73t-55.5 -171q0 -79 41 -132.5t114 -53.5zM419 572l-69 138l-113 -138h-37
l141 173h25l85 -173h-32z" />
    <glyph glyph-name="otilde" unicode="&#xf5;" horiz-adv-x="558" 
d="M257 -12q-88 0 -139 62t-51 156q0 114 66.5 195t166.5 81q89 0 139.5 -62t50.5 -156q0 -115 -66 -195.5t-167 -80.5zM257 20q87 0 142.5 73t55.5 171q0 80 -40.5 133t-114.5 53q-87 0 -142.5 -73t-55.5 -171q0 -79 41 -132.5t114 -53.5zM233 571h-31l14 72q7 36 21 54.5
t41 18.5q30 0 58 -34l40 -51q20 -24 36 -24q21 0 30 41l15 73h31l-14 -72q-7 -36 -21 -54.5t-41 -18.5q-30 0 -58 34l-41 51q-19 24 -35 24q-21 0 -30 -41z" />
    <glyph glyph-name="odieresis" unicode="&#xf6;" horiz-adv-x="558" 
d="M257 -12q-88 0 -139 62t-51 156q0 114 66.5 195t166.5 81q89 0 139.5 -62t50.5 -156q0 -115 -66 -195.5t-167 -80.5zM257 20q87 0 142.5 73t55.5 171q0 80 -40.5 133t-114.5 53q-87 0 -142.5 -73t-55.5 -171q0 -79 41 -132.5t114 -53.5zM220 585l28 141h34l-28 -141h-34z
M396 585l28 141h34l-28 -141h-34z" />
    <glyph glyph-name="divide" unicode="&#xf7;" horiz-adv-x="689" 
d="M373 458l25 132h34l-26 -132h-33zM603 300h-493l7 32h493zM290 30l25 132h34l-26 -132h-33z" />
    <glyph glyph-name="oslash" unicode="&#xf8;" horiz-adv-x="558" 
d="M490 264q0 -115 -66 -195.5t-167 -80.5q-83 0 -135 58l-44 -46h-42l67 71q-36 58 -36 135q0 114 66.5 195t166.5 81q83 0 135 -58l44 46h42l-67 -71q36 -55 36 -135zM102 206q0 -64 25 -110l286 304q-44 50 -113 50q-87 0 -142.5 -73t-55.5 -171zM455 264q0 64 -25 110
l-286 -303q43 -51 113 -51q87 0 142.5 73t55.5 171z" />
    <glyph glyph-name="ugrave" unicode="&#xf9;" horiz-adv-x="566" 
d="M257 -12q-93 0 -139.5 56.5t-28.5 149.5l53 276h34l-54 -276q-16 -82 21 -128t114 -46q135 0 168 164l56 286h34l-56 -286q-19 -94 -67 -145t-135 -51zM352 575h-33l-64 163h35z" />
    <glyph glyph-name="uacute" unicode="&#xfa;" horiz-adv-x="566" 
d="M257 -12q-93 0 -139.5 56.5t-28.5 149.5l53 276h34l-54 -276q-16 -82 21 -128t114 -46q135 0 168 164l56 286h34l-56 -286q-19 -94 -67 -145t-135 -51zM306 575l121 163h39l-121 -163h-39z" />
    <glyph glyph-name="ucircumflex" unicode="&#xfb;" horiz-adv-x="566" 
d="M257 -12q-93 0 -139.5 56.5t-28.5 149.5l53 276h34l-54 -276q-16 -82 21 -128t114 -46q135 0 168 164l56 286h34l-56 -286q-19 -94 -67 -145t-135 -51zM435 572l-69 138l-113 -138h-37l141 173h25l85 -173h-32z" />
    <glyph glyph-name="udieresis" unicode="&#xfc;" horiz-adv-x="566" 
d="M257 -12q-93 0 -139.5 56.5t-28.5 149.5l53 276h34l-54 -276q-16 -82 21 -128t114 -46q135 0 168 164l56 286h34l-56 -286q-19 -94 -67 -145t-135 -51zM235 585l28 141h34l-28 -141h-34zM411 585l28 141h34l-28 -141h-34z" />
    <glyph glyph-name="yacute" unicode="&#xfd;" horiz-adv-x="502" 
d="M509 470l-413 -684h-36l133 220l-117 464h37l104 -424l255 424h37zM267 575l121 163h39l-121 -163h-39z" />
    <glyph glyph-name="thorn" unicode="&#xfe;" horiz-adv-x="581" 
d="M283 -11q-73 0 -115 43.5t-54 101.5l-66 -348h-34l184 950h34l-69 -353q24 42 67 70t100 28q87 0 134.5 -61.5t47.5 -153.5q0 -114 -62.5 -195.5t-166.5 -81.5zM477 266q0 77 -38 130t-109 53q-88 0 -143 -74t-55 -167q0 -79 38.5 -133t112.5 -54q87 0 140.5 75.5
t53.5 169.5z" />
    <glyph glyph-name="ydieresis" unicode="&#xff;" horiz-adv-x="502" 
d="M509 470l-413 -684h-36l133 220l-117 464h37l104 -424l255 424h37zM199 585l28 141h34l-28 -141h-34zM375 585l28 141h34l-28 -141h-34z" />
    <glyph glyph-name="Amacron" unicode="&#x100;" horiz-adv-x="719" 
d="M601 0l-55 230h-368l-138 -230h-37l428 714h32l171 -714h-33zM197 262h341l-98 406zM595 825h-278l6 31h278z" />
    <glyph glyph-name="amacron" unicode="&#x101;" horiz-adv-x="567" 
d="M386 0l19 98q-21 -45 -61.5 -77t-98.5 -32q-84 0 -130 62t-46 154q0 107 61.5 191.5t162.5 84.5q39 0 70 -15t48.5 -39t27 -47t12.5 -46l27 136h33l-91 -470h-34zM245 21q57 0 102 39t66 94t21 111q0 75 -36.5 129.5t-104.5 54.5q-58 0 -102.5 -38.5t-65.5 -93
t-21 -112.5q0 -77 36.5 -130.5t104.5 -53.5zM453 620h-256l6 31h256z" />
    <glyph glyph-name="Abreve" unicode="&#x102;" horiz-adv-x="719" 
d="M601 0l-55 230h-368l-138 -230h-37l428 714h32l171 -714h-33zM197 262h341l-98 406zM470 813q43 0 67.5 26.5t31.5 67.5l1 6h32l-1 -7q-6 -54 -39.5 -89.5t-91.5 -35.5q-62 0 -92.5 35.5t-21.5 90.5l1 6h33l-1 -6q-7 -41 14 -67.5t67 -26.5z" />
    <glyph glyph-name="abreve" unicode="&#x103;" horiz-adv-x="567" 
d="M386 0l19 98q-21 -45 -61.5 -77t-98.5 -32q-84 0 -130 62t-46 154q0 107 61.5 191.5t162.5 84.5q39 0 70 -15t48.5 -39t27 -47t12.5 -46l27 136h33l-91 -470h-34zM245 21q57 0 102 39t66 94t21 111q0 75 -36.5 129.5t-104.5 54.5q-58 0 -102.5 -38.5t-65.5 -93
t-21 -112.5q0 -77 36.5 -130.5t104.5 -53.5zM351 600q41 0 61.5 22t29.5 62l4 18h32l-3 -18q-19 -115 -124 -115q-57 0 -88 34t-19 85l3 14h32l-3 -14q-8 -39 12 -63.5t63 -24.5z" />
    <glyph glyph-name="Aogonek" unicode="&#x104;" horiz-adv-x="719" 
d="M601 0l-55 230h-368l-138 -230h-37l428 714h32l171 -714q-82 -56 -108.5 -82t-26.5 -53q0 -47 58 -47h69l-7 -32h-62q-45 0 -70 20t-25 56q0 38 31 66.5t108 71.5zM197 262h341l-98 406z" />
    <glyph glyph-name="aogonek" unicode="&#x105;" horiz-adv-x="567" 
d="M386 0l19 98q-21 -45 -61.5 -77t-98.5 -32q-84 0 -130 62t-46 154q0 107 61.5 191.5t162.5 84.5q39 0 70 -15t48.5 -39t27 -47t12.5 -46l27 136h33l-91 -470q-81 -56 -108 -82.5t-27 -53.5q0 -46 58 -46h69l-7 -32h-62q-45 0 -70 20t-25 55q0 37 31.5 67.5t106.5 71.5z
M245 21q57 0 102 39t66 94t21 111q0 75 -36.5 129.5t-104.5 54.5q-58 0 -102.5 -38.5t-65.5 -93t-21 -112.5q0 -77 36.5 -130.5t104.5 -53.5z" />
    <glyph glyph-name="Cacute" unicode="&#x106;" horiz-adv-x="718" 
d="M363 -12q-119 0 -191.5 88t-72.5 231q0 176 99 295.5t241 119.5q58 0 105.5 -20t76 -51.5t45 -62t23.5 -60.5h-34q-7 24 -21.5 49t-39.5 51.5t-65.5 43.5t-89.5 17q-128 0 -216 -111.5t-88 -270.5q0 -126 62 -206t166 -80q52 0 96.5 16t75 42.5t49 49.5t32.5 49h34
q-12 -29 -33 -58.5t-55 -61t-86 -51t-113 -19.5zM436 788l118 130h42l-119 -130h-41z" />
    <glyph glyph-name="cacute" unicode="&#x107;" horiz-adv-x="516" 
d="M435 346q-12 40 -46.5 72t-91.5 32q-85 0 -139.5 -71.5t-54.5 -174.5q0 -82 39.5 -133t106.5 -51q105 0 162 102h33q-21 -51 -69.5 -92.5t-125.5 -41.5q-82 0 -131.5 59.5t-49.5 156.5q0 120 65.5 199t163.5 79q73 0 116.5 -42.5t55.5 -93.5h-34zM285 575l121 163h39
l-121 -163h-39z" />
    <glyph glyph-name="Ccircumflex" unicode="&#x108;" horiz-adv-x="718" 
d="M363 -12q-119 0 -191.5 88t-72.5 231q0 176 99 295.5t241 119.5q58 0 105.5 -20t76 -51.5t45 -62t23.5 -60.5h-34q-7 24 -21.5 49t-39.5 51.5t-65.5 43.5t-89.5 17q-128 0 -216 -111.5t-88 -270.5q0 -126 62 -206t166 -80q52 0 96.5 16t75 42.5t49 49.5t32.5 49h34
q-12 -29 -33 -58.5t-55 -61t-86 -51t-113 -19.5zM573 785l-95 108l-123 -108h-43l154 136h28l116 -136h-37z" />
    <glyph glyph-name="ccircumflex" unicode="&#x109;" horiz-adv-x="516" 
d="M435 346q-12 40 -46.5 72t-91.5 32q-85 0 -139.5 -71.5t-54.5 -174.5q0 -82 39.5 -133t106.5 -51q105 0 162 102h33q-21 -51 -69.5 -92.5t-125.5 -41.5q-82 0 -131.5 59.5t-49.5 156.5q0 120 65.5 199t163.5 79q73 0 116.5 -42.5t55.5 -93.5h-34zM414 572l-69 138
l-113 -138h-37l141 173h25l85 -173h-32z" />
    <glyph glyph-name="Cdotaccent" unicode="&#x10a;" horiz-adv-x="718" 
d="M363 -12q-119 0 -191.5 88t-72.5 231q0 176 99 295.5t241 119.5q58 0 105.5 -20t76 -51.5t45 -62t23.5 -60.5h-34q-7 24 -21.5 49t-39.5 51.5t-65.5 43.5t-89.5 17q-128 0 -216 -111.5t-88 -270.5q0 -126 62 -206t166 -80q52 0 96.5 16t75 42.5t49 49.5t32.5 49h34
q-12 -29 -33 -58.5t-55 -61t-86 -51t-113 -19.5zM440 778l28 141h33l-27 -141h-34z" />
    <glyph glyph-name="cdotaccent" unicode="&#x10b;" horiz-adv-x="516" 
d="M435 346q-12 40 -46.5 72t-91.5 32q-85 0 -139.5 -71.5t-54.5 -174.5q0 -82 39.5 -133t106.5 -51q105 0 162 102h33q-21 -51 -69.5 -92.5t-125.5 -41.5q-82 0 -131.5 59.5t-49.5 156.5q0 120 65.5 199t163.5 79q73 0 116.5 -42.5t55.5 -93.5h-34zM291 585l28 141h33
l-27 -141h-34z" />
    <glyph glyph-name="Ccaron" unicode="&#x10c;" horiz-adv-x="718" 
d="M363 -12q-119 0 -191.5 88t-72.5 231q0 176 99 295.5t241 119.5q58 0 105.5 -20t76 -51.5t45 -62t23.5 -60.5h-34q-7 24 -21.5 49t-39.5 51.5t-65.5 43.5t-89.5 17q-128 0 -216 -111.5t-88 -270.5q0 -126 62 -206t166 -80q52 0 96.5 16t75 42.5t49 49.5t32.5 49h34
q-12 -29 -33 -58.5t-55 -61t-86 -51t-113 -19.5zM619 921l-154 -136h-28l-116 136h37l95 -109l123 109h43z" />
    <glyph glyph-name="ccaron" unicode="&#x10d;" horiz-adv-x="516" 
d="M435 346q-12 40 -46.5 72t-91.5 32q-85 0 -139.5 -71.5t-54.5 -174.5q0 -82 39.5 -133t106.5 -51q105 0 162 102h33q-21 -51 -69.5 -92.5t-125.5 -41.5q-82 0 -131.5 59.5t-49.5 156.5q0 120 65.5 199t163.5 79q73 0 116.5 -42.5t55.5 -93.5h-34zM463 748l-139 -173h-25
l-87 173h33l70 -139l112 139h36z" />
    <glyph glyph-name="Dcaron" unicode="&#x10e;" horiz-adv-x="751" 
d="M73 0l138 710h164q153 0 238.5 -86.5t85.5 -229.5q0 -172 -103 -283t-277 -111h-246zM375 678h-136l-126 -646h206q156 0 250 102.5t94 259.5q0 130 -76 207t-212 77zM612 921l-154 -136h-28l-116 136h37l95 -109l123 109h43z" />
    <glyph glyph-name="dcaron" unicode="&#x10f;" horiz-adv-x="581" 
d="M400 0l20 99q-58 -110 -168 -110q-87 0 -135 62t-48 154q0 109 63.5 192.5t166.5 83.5q41 0 73 -15t50 -39.5t28 -46.5t15 -46l79 402h33l-143 -736h-34zM252 21q88 0 142 76t54 168q0 77 -39 130.5t-110 53.5q-88 0 -141.5 -75t-53.5 -169q0 -78 38.5 -131t109.5 -53z
M628 575l88 173h31l-88 -173h-31z" />
    <glyph glyph-name="Dcroat" unicode="&#x110;" horiz-adv-x="752" 
d="M32 343l7 32h107l66 335h164q153 0 238.5 -86.5t85.5 -229.5q0 -172 -103 -283t-277 -111h-246l66 343h-108zM376 678h-136l-59 -303h237l-7 -32h-237l-60 -311h206q156 0 250 102.5t94 259.5q0 130 -76 207t-212 77z" />
    <glyph glyph-name="dcroat" unicode="&#x111;" horiz-adv-x="581" 
d="M400 0l20 99q-58 -110 -168 -110q-87 0 -135 62t-48 154q0 109 63.5 192.5t166.5 83.5q41 0 73 -15t50 -39.5t28 -46.5t15 -46l49 251h-208l6 32h209l23 119h33l-23 -119h92l-6 -32h-93l-113 -585h-34zM252 21q88 0 142 76t54 168q0 77 -39 130.5t-110 53.5
q-88 0 -141.5 -75t-53.5 -169q0 -78 38.5 -131t109.5 -53z" />
    <glyph glyph-name="Emacron" unicode="&#x112;" horiz-adv-x="672" 
d="M73 0l138 710h475l-6 -32h-441l-55 -284h271l-6 -32h-272l-64 -330h477l-6 -32h-511zM606 825h-278l6 31h278z" />
    <glyph glyph-name="emacron" unicode="&#x113;" horiz-adv-x="541" 
d="M302 482q92 0 141 -69t31 -168h-369q-2 -26 -2 -40q0 -81 40 -133t115 -52q46 0 84.5 18.5t55 36t27.5 36.5h33q-22 -47 -71.5 -85t-128.5 -38q-90 0 -140 61t-50 156q0 116 66 196.5t168 80.5zM302 450q-75 0 -124.5 -49t-66.5 -125h334q4 76 -34 125t-109 49zM462 620
h-256l6 31h256z" />
    <glyph glyph-name="Ebreve" unicode="&#x114;" horiz-adv-x="672" 
d="M73 0l138 710h475l-6 -32h-441l-55 -284h271l-6 -32h-272l-64 -330h477l-6 -32h-511zM477 813q43 0 67.5 26.5t31.5 67.5l1 6h32l-1 -7q-6 -54 -39.5 -89.5t-91.5 -35.5q-62 0 -92.5 35.5t-21.5 90.5l1 6h33l-1 -6q-7 -41 14 -67.5t67 -26.5z" />
    <glyph glyph-name="ebreve" unicode="&#x115;" horiz-adv-x="541" 
d="M302 482q92 0 141 -69t31 -168h-369q-2 -26 -2 -40q0 -81 40 -133t115 -52q46 0 84.5 18.5t55 36t27.5 36.5h33q-22 -47 -71.5 -85t-128.5 -38q-90 0 -140 61t-50 156q0 116 66 196.5t168 80.5zM302 450q-75 0 -124.5 -49t-66.5 -125h334q4 76 -34 125t-109 49zM333 600
q41 0 61.5 22t29.5 62l4 18h32l-3 -18q-19 -115 -124 -115q-57 0 -88 34t-19 85l3 14h32l-3 -14q-8 -39 12 -63.5t63 -24.5z" />
    <glyph glyph-name="Edotaccent" unicode="&#x116;" horiz-adv-x="672" 
d="M73 0l138 710h475l-6 -32h-441l-55 -284h271l-6 -32h-272l-64 -330h477l-6 -32h-511zM445 778l28 141h33l-27 -141h-34z" />
    <glyph glyph-name="edotaccent" unicode="&#x117;" horiz-adv-x="541" 
d="M302 482q92 0 141 -69t31 -168h-369q-2 -26 -2 -40q0 -81 40 -133t115 -52q46 0 84.5 18.5t55 36t27.5 36.5h33q-22 -47 -71.5 -85t-128.5 -38q-90 0 -140 61t-50 156q0 116 66 196.5t168 80.5zM302 450q-75 0 -124.5 -49t-66.5 -125h334q4 76 -34 125t-109 49zM296 585
l28 141h33l-27 -141h-34z" />
    <glyph glyph-name="Eogonek" unicode="&#x118;" horiz-adv-x="672" 
d="M73 0l138 710h475l-6 -32h-441l-55 -284h271l-6 -32h-272l-64 -330h477l-6 -32h-511zM302 -139q0 37 31.5 67.5t106.5 71.5h34q-81 -56 -108 -82.5t-27 -53.5q0 -46 58 -46h69l-7 -32h-62q-45 0 -70 20t-25 55z" />
    <glyph glyph-name="eogonek" unicode="&#x119;" horiz-adv-x="541" 
d="M302 482q92 0 141 -69t31 -168h-369q-2 -26 -2 -40q0 -81 40 -133t115 -52q46 0 84.5 18.5t55 36t27.5 36.5h33q-27 -57 -82 -91q-104 -66 -137.5 -95.5t-33.5 -60.5q0 -46 58 -46h69l-7 -32h-62q-45 0 -70 20t-25 55q0 36 32 68t102 65q-24 -6 -44 -6q-90 0 -140 61
t-50 156q0 116 66 196.5t168 80.5zM302 450q-75 0 -124.5 -49t-66.5 -125h334q4 76 -34 125t-109 49z" />
    <glyph glyph-name="Ecaron" unicode="&#x11a;" horiz-adv-x="672" 
d="M73 0l138 710h475l-6 -32h-441l-55 -284h271l-6 -32h-272l-64 -330h477l-6 -32h-511zM624 921l-154 -136h-28l-116 136h37l95 -109l123 109h43z" />
    <glyph glyph-name="ecaron" unicode="&#x11b;" horiz-adv-x="541" 
d="M302 482q92 0 141 -69t31 -168h-369q-2 -26 -2 -40q0 -81 40 -133t115 -52q46 0 84.5 18.5t55 36t27.5 36.5h33q-22 -47 -71.5 -85t-128.5 -38q-90 0 -140 61t-50 156q0 116 66 196.5t168 80.5zM302 450q-75 0 -124.5 -49t-66.5 -125h334q4 76 -34 125t-109 49zM466 748
l-139 -173h-25l-87 173h33l70 -139l112 139h36z" />
    <glyph glyph-name="Gcircumflex" unicode="&#x11c;" horiz-adv-x="767" 
d="M636 66q-98 -78 -248 -78q-132 0 -210.5 87t-78.5 237q0 175 102.5 292.5t246.5 117.5q54 0 99.5 -16t74 -41t46 -49.5t25.5 -48.5h-34q-22 48 -75.5 85t-135.5 37q-132 0 -222.5 -110t-90.5 -267q0 -134 68.5 -212.5t184.5 -78.5q130 0 219 63l49 256h-261l7 32h293z
M582 785l-95 108l-123 -108h-43l154 136h28l116 -136h-37z" />
    <glyph glyph-name="gcircumflex" unicode="&#x11d;" horiz-adv-x="576" 
d="M521 470l-90 -459q-22 -114 -73 -175.5t-149 -61.5q-83 0 -130.5 41.5t-58.5 87.5h36q11 -34 49 -65.5t104 -31.5q81 0 125 53t63 152l17 88q-59 -110 -166 -110q-86 0 -132.5 61.5t-46.5 154.5q0 111 62.5 193.5t165.5 82.5q41 0 73 -15.5t49.5 -40t27.5 -47.5t13 -46
l27 138h34zM248 21q87 0 141 76t54 168q0 76 -38.5 130t-107.5 54q-59 0 -104.5 -37.5t-67 -92t-21.5 -114.5q0 -79 37 -131.5t107 -52.5zM422 572l-69 138l-113 -138h-37l141 173h25l85 -173h-32z" />
    <glyph glyph-name="Gbreve" unicode="&#x11e;" horiz-adv-x="767" 
d="M636 66q-98 -78 -248 -78q-132 0 -210.5 87t-78.5 237q0 175 102.5 292.5t246.5 117.5q54 0 99.5 -16t74 -41t46 -49.5t25.5 -48.5h-34q-22 48 -75.5 85t-135.5 37q-132 0 -222.5 -110t-90.5 -267q0 -134 68.5 -212.5t184.5 -78.5q130 0 219 63l49 256h-261l7 32h293z
M463 813q43 0 67.5 26.5t31.5 67.5l1 6h32l-1 -7q-6 -54 -39.5 -89.5t-91.5 -35.5q-62 0 -92.5 35.5t-21.5 90.5l1 6h33l-1 -6q-7 -41 14 -67.5t67 -26.5z" />
    <glyph glyph-name="gbreve" unicode="&#x11f;" horiz-adv-x="576" 
d="M521 470l-90 -459q-22 -114 -73 -175.5t-149 -61.5q-83 0 -130.5 41.5t-58.5 87.5h36q11 -34 49 -65.5t104 -31.5q81 0 125 53t63 152l17 88q-59 -110 -166 -110q-86 0 -132.5 61.5t-46.5 154.5q0 111 62.5 193.5t165.5 82.5q41 0 73 -15.5t49.5 -40t27.5 -47.5t13 -46
l27 138h34zM248 21q87 0 141 76t54 168q0 76 -38.5 130t-107.5 54q-59 0 -104.5 -37.5t-67 -92t-21.5 -114.5q0 -79 37 -131.5t107 -52.5zM356 600q41 0 61.5 22t29.5 62l4 18h32l-3 -18q-19 -115 -124 -115q-57 0 -88 34t-19 85l3 14h32l-3 -14q-8 -39 12 -63.5t63 -24.5z
" />
    <glyph glyph-name="Gdotaccent" unicode="&#x120;" horiz-adv-x="767" 
d="M636 66q-98 -78 -248 -78q-132 0 -210.5 87t-78.5 237q0 175 102.5 292.5t246.5 117.5q54 0 99.5 -16t74 -41t46 -49.5t25.5 -48.5h-34q-22 48 -75.5 85t-135.5 37q-132 0 -222.5 -110t-90.5 -267q0 -134 68.5 -212.5t184.5 -78.5q130 0 219 63l49 256h-261l7 32h293z
M449 778l28 141h33l-27 -141h-34z" />
    <glyph glyph-name="gdotaccent" unicode="&#x121;" horiz-adv-x="576" 
d="M521 470l-90 -459q-22 -114 -73 -175.5t-149 -61.5q-83 0 -130.5 41.5t-58.5 87.5h36q11 -34 49 -65.5t104 -31.5q81 0 125 53t63 152l17 88q-59 -110 -166 -110q-86 0 -132.5 61.5t-46.5 154.5q0 111 62.5 193.5t165.5 82.5q41 0 73 -15.5t49.5 -40t27.5 -47.5t13 -46
l27 138h34zM248 21q87 0 141 76t54 168q0 76 -38.5 130t-107.5 54q-59 0 -104.5 -37.5t-67 -92t-21.5 -114.5q0 -79 37 -131.5t107 -52.5zM312 585l28 141h33l-27 -141h-34z" />
    <glyph glyph-name="uni0122" unicode="&#x122;" horiz-adv-x="767" 
d="M636 66q-98 -78 -248 -78q-132 0 -210.5 87t-78.5 237q0 175 102.5 292.5t246.5 117.5q54 0 99.5 -16t74 -41t46 -49.5t25.5 -48.5h-34q-22 48 -75.5 85t-135.5 37q-132 0 -222.5 -110t-90.5 -267q0 -134 68.5 -212.5t184.5 -78.5q130 0 219 63l49 256h-261l7 32h293z
M369 -156q-20 -100 -53 -158h-34q38 69 55 157l10 52h32z" />
    <glyph glyph-name="uni0123" unicode="&#x123;" horiz-adv-x="576" 
d="M521 470l-90 -459q-22 -114 -73 -175.5t-149 -61.5q-83 0 -130.5 41.5t-58.5 87.5h36q11 -34 49 -65.5t104 -31.5q81 0 125 53t63 152l17 88q-59 -110 -166 -110q-86 0 -132.5 61.5t-46.5 154.5q0 111 62.5 193.5t165.5 82.5q41 0 73 -15.5t49.5 -40t27.5 -47.5t13 -46
l27 138h34zM248 21q87 0 141 76t54 168q0 76 -38.5 130t-107.5 54q-59 0 -104.5 -37.5t-67 -92t-21.5 -114.5q0 -79 37 -131.5t107 -52.5zM347 637l-10 -52h-32l10 51q20 100 53 158h34q-38 -69 -55 -157z" />
    <glyph glyph-name="Hcircumflex" unicode="&#x124;" horiz-adv-x="780" 
d="M581 0l67 343h-474l-67 -343h-34l138 710h34l-65 -335h474l65 335h34l-138 -710h-34zM612 785l-95 108l-123 -108h-43l154 136h28l116 -136h-37z" />
    <glyph glyph-name="hcircumflex" unicode="&#x125;" horiz-adv-x="575" 
d="M144 282l-55 -282h-34l144 736h34l-71 -357q24 47 66.5 75t98.5 28q82 0 129.5 -56t30.5 -145l-55 -281h-34l55 282q14 76 -24 122t-107 46q-71 0 -117.5 -46.5t-60.5 -121.5zM492 811l-95 108l-123 -108h-43l154 136h28l116 -136h-37z" />
    <glyph glyph-name="Hbar" unicode="&#x126;" horiz-adv-x="780" 
d="M581 0l67 343h-474l-67 -343h-34l102 527h-95l7 32h94l30 151h34l-30 -151h474l30 151h34l-30 -151h96l-7 -32h-95l-102 -527h-34zM180 375h474l29 152h-474z" />
    <glyph glyph-name="hbar" unicode="&#x127;" horiz-adv-x="575" 
d="M144 282l-55 -282h-34l114 586h-93l6 31h93l24 119h34l-24 -119h208l-6 -31h-208l-41 -207q24 47 66.5 75t98.5 28q82 0 129.5 -56t30.5 -145l-55 -281h-34l55 282q14 76 -24 122t-107 46q-71 0 -117.5 -46.5t-60.5 -121.5z" />
    <glyph glyph-name="Itilde" unicode="&#x128;" horiz-adv-x="276" 
d="M75 0l138 710h34l-138 -710h-34zM119 844q14 74 62 74q30 0 64 -31l47 -40q26 -23 43 -23q13 0 19.5 10.5t10.5 32.5l12 61h32l-12 -61q-7 -36 -20.5 -55t-41.5 -19q-30 0 -64 31l-47 40q-26 23 -43 23q-13 0 -19.5 -10.5t-10.5 -32.5l-12 -61h-32z" />
    <glyph glyph-name="itilde" unicode="&#x129;" horiz-adv-x="236" 
d="M88 571h-31l14 72q7 36 20.5 54.5t40.5 18.5q30 0 57 -34l38 -51q18 -24 35 -24q20 0 29 41l15 73h31l-14 -72q-7 -36 -20.5 -54.5t-40.5 -18.5q-31 0 -57 34l-39 51q-18 24 -34 24q-20 0 -29 -41zM55 0l91 470h34l-91 -470h-34z" />
    <glyph glyph-name="Imacron" unicode="&#x12a;" horiz-adv-x="276" 
d="M75 0l138 710h34l-138 -710h-34zM391 825h-278l6 31h278z" />
    <glyph glyph-name="imacron" unicode="&#x12b;" horiz-adv-x="236" 
d="M309 620h-234l6 31h234zM55 0l91 470h34l-91 -470h-34z" />
    <glyph glyph-name="Ibreve" unicode="&#x12c;" horiz-adv-x="276" 
d="M75 0l138 710h34l-138 -710h-34zM259 813q43 0 67.5 26.5t31.5 67.5l1 6h32l-1 -7q-6 -54 -39.5 -89.5t-91.5 -35.5q-62 0 -92.5 35.5t-21.5 90.5l1 6h33l-1 -6q-7 -41 14 -67.5t67 -26.5z" />
    <glyph glyph-name="ibreve" unicode="&#x12d;" horiz-adv-x="236" 
d="M190 600q41 0 61.5 22t29.5 62l4 18h32l-3 -18q-19 -115 -124 -115q-57 0 -88 34t-19 85l3 14h32l-3 -14q-8 -39 12 -63.5t63 -24.5zM55 0l91 470h34l-91 -470h-34z" />
    <glyph glyph-name="Iogonek" unicode="&#x12e;" horiz-adv-x="276" 
d="M75 0l138 710h34l-138 -710q-81 -56 -108 -82.5t-27 -53.5q0 -46 58 -46h69l-7 -32h-62q-45 0 -70 20t-25 55q0 37 31.5 67.5t106.5 71.5z" />
    <glyph glyph-name="iogonek" unicode="&#x12f;" horiz-adv-x="236" 
d="M169 585l27 141h34l-28 -141h-33zM55 0l91 470h34l-91 -470h-34zM-83 -139q0 37 31.5 67.5t106.5 71.5h34q-81 -56 -108 -82.5t-27 -53.5q0 -46 58 -46h69l-7 -32h-62q-45 0 -70 20t-25 55z" />
    <glyph glyph-name="Idotaccent" unicode="&#x130;" horiz-adv-x="276" 
d="M75 0l138 710h34l-138 -710h-34zM227 778l28 141h33l-27 -141h-34z" />
    <glyph glyph-name="dotlessi" unicode="&#x131;" horiz-adv-x="236" 
d="M55 0l91 470h34l-91 -470h-34z" />
    <glyph glyph-name="IJ" unicode="&#x132;" horiz-adv-x="889" 
d="M75 0l138 710h34l-138 -710h-34zM766 202q-42 -213 -216 -213q-94 0 -148 59t-33 164l37 190h34l-37 -190q-17 -91 24 -140t123 -49q147 0 182 179l99 508h34z" />
    <glyph glyph-name="ij" unicode="&#x133;" horiz-adv-x="472" 
d="M169 585l27 141h34l-28 -141h-33zM55 0l91 470h34l-91 -470h-34zM405 585l27 141h34l-28 -141h-33zM416 470l-103 -528q-17 -84 -50 -120t-106 -36h-116l6 33h111q57 0 82.5 28.5t38.5 94.5l103 528h34z" />
    <glyph glyph-name="Jcircumflex" unicode="&#x134;" horiz-adv-x="613" 
d="M490 202q-42 -213 -216 -213q-94 0 -148 59t-33 164l37 190h34l-37 -190q-17 -91 24 -140t123 -49q147 0 182 179l99 508h34zM698 785l-95 108l-123 -108h-43l154 136h28l116 -136h-37z" />
    <glyph glyph-name="jcircumflex" unicode="&#x135;" horiz-adv-x="236" 
d="M276 572l-69 138l-113 -138h-37l141 173h25l85 -173h-32zM77 -58q-17 -84 -50 -120t-106 -36h-118l6 33h113q57 0 82.5 28.5t38.5 94.5l103 528h34z" />
    <glyph glyph-name="uni0136" unicode="&#x136;" horiz-adv-x="696" 
d="M585 0l-411 342l-67 -342h-34l138 710h34l-66 -340l516 340h54l-540 -356l422 -354h-46zM322 -156q-20 -100 -53 -158h-34q38 69 55 157l10 52h32z" />
    <glyph glyph-name="uni0137" unicode="&#x137;" horiz-adv-x="524" 
d="M416 0l-283 228l-44 -228h-34l143 736h34l-93 -477l343 211h59l-373 -229l295 -241h-47zM243 -156q-20 -100 -53 -158h-34q38 69 55 157l10 52h32z" />
    <glyph glyph-name="Lacute" unicode="&#x139;" 
d="M571 32l-6 -32h-492l138 710h34l-132 -678h458zM223 788l118 130h42l-119 -130h-41z" />
    <glyph glyph-name="lacute" unicode="&#x13a;" horiz-adv-x="240" 
d="M57 0l143 736h34l-143 -736h-34zM209 814l118 130h42l-119 -130h-41z" />
    <glyph glyph-name="uni013B" unicode="&#x13b;" 
d="M571 32l-6 -32h-492l138 710h34l-132 -678h458zM336 -156q-20 -100 -53 -158h-34q38 69 55 157l10 52h32z" />
    <glyph glyph-name="uni013C" unicode="&#x13c;" horiz-adv-x="240" 
d="M57 0l143 736h34l-143 -736h-34zM63 -156q-20 -100 -53 -158h-34q38 69 55 157l10 52h32z" />
    <glyph glyph-name="Lcaron" unicode="&#x13d;" 
d="M571 32l-6 -32h-492l138 710h34l-132 -678h458zM305 575l88 173h31l-88 -173h-31z" />
    <glyph glyph-name="lcaron" unicode="&#x13e;" horiz-adv-x="240" 
d="M57 0l143 736h34l-143 -736h-34zM285 575l88 173h31l-88 -173h-31z" />
    <glyph glyph-name="Ldot" unicode="&#x13f;" 
d="M571 32l-6 -32h-492l138 710h34l-132 -678h458zM458 305l26 132h34l-26 -132h-34z" />
    <glyph glyph-name="ldot" unicode="&#x140;" horiz-adv-x="383" 
d="M57 0l143 736h34l-143 -736h-34zM313 310l26 132h34l-26 -132h-34z" />
    <glyph glyph-name="Lslash" unicode="&#x141;" horiz-adv-x="664" 
d="M585 32l-6 -32h-492l50 260l-118 -66l7 37l119 66l80 413h34l-76 -391l311 175l-7 -39l-312 -174l-48 -249h458z" />
    <glyph glyph-name="lslash" unicode="&#x142;" horiz-adv-x="290" 
d="M33 286l7 37l115 67l67 346h34l-63 -323l121 72l-7 -39l-121 -71l-73 -375h-34l68 353z" />
    <glyph glyph-name="Nacute" unicode="&#x143;" horiz-adv-x="787" 
d="M760 710l-139 -715h-22l-362 674l-131 -669h-33l138 710h42l348 -649l126 649h33zM465 788l118 130h42l-119 -130h-41z" />
    <glyph glyph-name="nacute" unicode="&#x144;" horiz-adv-x="575" 
d="M144 282l-55 -282h-34l92 470h34l-19 -91q24 47 67 75t98 28q82 0 129.5 -56t30.5 -145l-55 -281h-34l55 282q14 76 -24 122t-107 46q-71 0 -117.5 -46.5t-60.5 -121.5zM305 575l121 163h39l-121 -163h-39z" />
    <glyph glyph-name="uni0145" unicode="&#x145;" horiz-adv-x="787" 
d="M760 710l-139 -715h-22l-362 674l-131 -669h-33l138 710h42l348 -649l126 649h33zM342 -156q-20 -100 -53 -158h-34q38 69 55 157l10 52h32z" />
    <glyph glyph-name="uni0146" unicode="&#x146;" horiz-adv-x="575" 
d="M144 282l-55 -282h-34l92 470h34l-19 -91q24 47 67 75t98 28q82 0 129.5 -56t30.5 -145l-55 -281h-34l55 282q14 76 -24 122t-107 46q-71 0 -117.5 -46.5t-60.5 -121.5zM238 -156q-20 -100 -53 -158h-34q38 69 55 157l10 52h32z" />
    <glyph glyph-name="Ncaron" unicode="&#x147;" horiz-adv-x="787" 
d="M760 710l-139 -715h-22l-362 674l-131 -669h-33l138 710h42l348 -649l126 649h33zM662 921l-154 -136h-28l-116 136h37l95 -109l123 109h43z" />
    <glyph glyph-name="ncaron" unicode="&#x148;" horiz-adv-x="575" 
d="M144 282l-55 -282h-34l92 470h34l-19 -91q24 47 67 75t98 28q82 0 129.5 -56t30.5 -145l-55 -281h-34l55 282q14 76 -24 122t-107 46q-71 0 -117.5 -46.5t-60.5 -121.5zM485 748l-139 -173h-25l-87 173h33l70 -139l112 139h36z" />
    <glyph glyph-name="napostrophe" unicode="&#x149;" horiz-adv-x="737" 
d="M198 623q-19 -98 -75 -190h-33q57 100 77 189l22 114h31zM306 282l-55 -282h-34l92 470h34l-19 -91q24 47 67 75t98 28q82 0 129.5 -56t30.5 -145l-55 -281h-34l55 282q14 76 -24 122t-107 46q-71 0 -117.5 -46.5t-60.5 -121.5z" />
    <glyph glyph-name="Eng" unicode="&#x14a;" horiz-adv-x="787" 
d="M612 -55q-31 -159 -178 -159h-86l6 32h80q69 0 105 41.5t36 100.5q0 46 -52 148l-287 560l-130 -668h-33l138 710h42l300 -588q36 -68 41 -94l133 682h33z" />
    <glyph glyph-name="eng" unicode="&#x14b;" horiz-adv-x="575" 
d="M421 -58q-17 -84 -50 -120t-106 -36h-118l6 33h113q57 0 82.5 28.5t38.5 94.5l66 340q14 76 -24 122t-107 46q-71 0 -117.5 -46.5t-60.5 -121.5l-55 -282h-34l92 470h34l-19 -91q24 47 67 75t98 28q82 0 129.5 -56t30.5 -145z" />
    <glyph glyph-name="Omacron" unicode="&#x14c;" horiz-adv-x="770" 
d="M443 722q130 0 202 -91.5t72 -232.5q0 -106 -41 -198.5t-121 -152t-182 -59.5q-130 0 -202 91.5t-72 232.5q0 106 42.5 199.5t122.5 152t179 58.5zM373 21q93 0 165.5 58t107.5 143t35 176q0 79 -24.5 143.5t-80 106t-133.5 41.5q-93 0 -165.5 -58t-107.5 -142.5
t-35 -176.5q0 -79 24.5 -143.5t80 -106t133.5 -41.5zM605 825h-278l6 31h278z" />
    <glyph glyph-name="omacron" unicode="&#x14d;" horiz-adv-x="558" 
d="M257 -12q-88 0 -139 62t-51 156q0 114 66.5 195t166.5 81q89 0 139.5 -62t50.5 -156q0 -115 -66 -195.5t-167 -80.5zM257 20q87 0 142.5 73t55.5 171q0 80 -40.5 133t-114.5 53q-87 0 -142.5 -73t-55.5 -171q0 -79 41 -132.5t114 -53.5zM468 620h-256l6 31h256z" />
    <glyph glyph-name="Obreve" unicode="&#x14e;" horiz-adv-x="770" 
d="M443 722q130 0 202 -91.5t72 -232.5q0 -106 -41 -198.5t-121 -152t-182 -59.5q-130 0 -202 91.5t-72 232.5q0 106 42.5 199.5t122.5 152t179 58.5zM373 21q93 0 165.5 58t107.5 143t35 176q0 79 -24.5 143.5t-80 106t-133.5 41.5q-93 0 -165.5 -58t-107.5 -142.5
t-35 -176.5q0 -79 24.5 -143.5t80 -106t133.5 -41.5zM473 813q43 0 67.5 26.5t31.5 67.5l1 6h32l-1 -7q-6 -54 -39.5 -89.5t-91.5 -35.5q-62 0 -92.5 35.5t-21.5 90.5l1 6h33l-1 -6q-7 -41 14 -67.5t67 -26.5z" />
    <glyph glyph-name="obreve" unicode="&#x14f;" horiz-adv-x="558" 
d="M257 -12q-88 0 -139 62t-51 156q0 114 66.5 195t166.5 81q89 0 139.5 -62t50.5 -156q0 -115 -66 -195.5t-167 -80.5zM257 20q87 0 142.5 73t55.5 171q0 80 -40.5 133t-114.5 53q-87 0 -142.5 -73t-55.5 -171q0 -79 41 -132.5t114 -53.5zM339 600q41 0 61.5 22t29.5 62
l4 18h32l-3 -18q-19 -115 -124 -115q-57 0 -88 34t-19 85l3 14h32l-3 -14q-8 -39 12 -63.5t63 -24.5z" />
    <glyph glyph-name="Ohungarumlaut" unicode="&#x150;" horiz-adv-x="770" 
d="M443 722q130 0 202 -91.5t72 -232.5q0 -106 -41 -198.5t-121 -152t-182 -59.5q-130 0 -202 91.5t-72 232.5q0 106 42.5 199.5t122.5 152t179 58.5zM373 21q93 0 165.5 58t107.5 143t35 176q0 79 -24.5 143.5t-80 106t-133.5 41.5q-93 0 -165.5 -58t-107.5 -142.5
t-35 -176.5q0 -79 24.5 -143.5t80 -106t133.5 -41.5zM498 788l95 130h38l-96 -130h-37zM338 788l94 130h39l-97 -130h-36z" />
    <glyph glyph-name="ohungarumlaut" unicode="&#x151;" horiz-adv-x="558" 
d="M257 -12q-88 0 -139 62t-51 156q0 114 66.5 195t166.5 81q89 0 139.5 -62t50.5 -156q0 -115 -66 -195.5t-167 -80.5zM257 20q87 0 142.5 73t55.5 171q0 80 -40.5 133t-114.5 53q-87 0 -142.5 -73t-55.5 -171q0 -79 41 -132.5t114 -53.5zM388 575l100 163h35l-100 -163
h-35zM226 575l99 163h36l-100 -163h-35z" />
    <glyph glyph-name="OE" unicode="&#x152;" horiz-adv-x="1034" 
d="M100 316q0 171 107 282.5t283 111.5h558l-6 -32h-389l-55 -284h244l-6 -32h-245l-64 -330h424l-6 -32h-511q-158 0 -246 86.5t-88 229.5zM434 32h59l126 646h-129q-159 0 -256.5 -102.5t-97.5 -259.5q0 -130 79.5 -207t218.5 -77z" />
    <glyph glyph-name="oe" unicode="&#x153;" horiz-adv-x="918" 
d="M680 482q91 0 140 -69t31 -168h-365q-2 -26 -2 -40q0 -81 39 -133t114 -52q101 0 165 91h33q-22 -47 -71.5 -85t-126.5 -38q-71 0 -119 41.5t-59 109.5q-27 -70 -79.5 -110.5t-122.5 -40.5q-87 0 -138.5 62t-51.5 156q0 115 65 195.5t165 80.5q68 0 116 -41t63 -106
q22 65 77.5 106t126.5 41zM257 20q86 0 140 72.5t54 171.5q0 79 -41 132.5t-113 53.5q-87 0 -141 -72.5t-54 -171.5q0 -79 41 -132.5t114 -53.5zM680 450q-75 0 -124.5 -49t-64.5 -125h331q4 76 -34 125t-108 49z" />
    <glyph glyph-name="Racute" unicode="&#x154;" horiz-adv-x="724" 
d="M73 0l138 710h278q93 0 144.5 -45.5t51.5 -122.5q0 -80 -55.5 -137t-164.5 -57l149 -348h-35l-151 348h-253l-68 -348h-34zM489 678h-250l-58 -298h280q94 0 141 47.5t47 114.5q0 62 -41.5 99t-118.5 37zM410 788l118 130h42l-119 -130h-41z" />
    <glyph glyph-name="racute" unicode="&#x155;" horiz-adv-x="446" 
d="M144 284l-55 -284h-34l91 470h34l-18 -92q46 92 188 92h108l-6 -34h-106q-95 0 -141.5 -37.5t-60.5 -114.5zM256 575l121 163h39l-121 -163h-39z" />
    <glyph glyph-name="uni0156" unicode="&#x156;" horiz-adv-x="724" 
d="M73 0l138 710h278q93 0 144.5 -45.5t51.5 -122.5q0 -80 -55.5 -137t-164.5 -57l149 -348h-35l-151 348h-253l-68 -348h-34zM489 678h-250l-58 -298h280q94 0 141 47.5t47 114.5q0 62 -41.5 99t-118.5 37zM332 -156q-20 -100 -53 -158h-34q38 69 55 157l10 52h32z" />
    <glyph glyph-name="uni0157" unicode="&#x157;" horiz-adv-x="446" 
d="M144 284l-55 -284h-34l91 470h34l-18 -92q46 92 188 92h108l-6 -34h-106q-95 0 -141.5 -37.5t-60.5 -114.5zM62 -156q-20 -100 -53 -158h-34q38 69 55 157l10 52h32z" />
    <glyph glyph-name="Rcaron" unicode="&#x158;" horiz-adv-x="724" 
d="M73 0l138 710h278q93 0 144.5 -45.5t51.5 -122.5q0 -80 -55.5 -137t-164.5 -57l149 -348h-35l-151 348h-253l-68 -348h-34zM489 678h-250l-58 -298h280q94 0 141 47.5t47 114.5q0 62 -41.5 99t-118.5 37zM596 921l-154 -136h-28l-116 136h37l95 -109l123 109h43z" />
    <glyph glyph-name="rcaron" unicode="&#x159;" horiz-adv-x="446" 
d="M144 284l-55 -284h-34l91 470h34l-18 -92q46 92 188 92h108l-6 -34h-106q-95 0 -141.5 -37.5t-60.5 -114.5zM452 748l-139 -173h-25l-87 173h33l70 -139l112 139h36z" />
    <glyph glyph-name="Sacute" unicode="&#x15a;" horiz-adv-x="680" 
d="M383 689q-94 0 -155.5 -40.5t-61.5 -113.5q0 -61 39.5 -90t126.5 -49l61 -13q104 -21 152.5 -65.5t48.5 -126.5q0 -93 -77 -148.5t-191 -55.5q-69 0 -124.5 19.5t-88 51t-50.5 60.5t-25 57h35q8 -22 22.5 -44t43 -49.5t77 -44.5t110.5 -17q97 0 165 46.5t68 124.5
q0 65 -38.5 102.5t-133.5 57.5l-61 12q-92 18 -143.5 57t-51.5 115q0 87 72.5 137t179.5 50q116 0 182.5 -52t81.5 -113h-33q-20 51 -77 91.5t-154 40.5zM386 788l118 130h42l-119 -130h-41z" />
    <glyph glyph-name="sacute" unicode="&#x15b;" horiz-adv-x="514" 
d="M279 222l-47 9q-67 13 -101.5 41t-34.5 79q0 60 50 95.5t124 35.5q78 0 127.5 -32.5t65.5 -76.5h-35q-46 77 -158 77q-61 0 -100 -25.5t-39 -72.5q0 -36 26.5 -57t83.5 -32l46 -9q70 -14 104.5 -42t34.5 -82q0 -61 -51.5 -101t-131.5 -40q-93 0 -143 38.5t-63 83.5h35
q7 -18 23 -36t55.5 -36t92.5 -18q64 0 106 29.5t42 79.5q0 38 -25 59t-87 33zM297 575l121 163h39l-121 -163h-39z" />
    <glyph glyph-name="Scircumflex" unicode="&#x15c;" horiz-adv-x="680" 
d="M383 689q-94 0 -155.5 -40.5t-61.5 -113.5q0 -61 39.5 -90t126.5 -49l61 -13q104 -21 152.5 -65.5t48.5 -126.5q0 -93 -77 -148.5t-191 -55.5q-69 0 -124.5 19.5t-88 51t-50.5 60.5t-25 57h35q8 -22 22.5 -44t43 -49.5t77 -44.5t110.5 -17q97 0 165 46.5t68 124.5
q0 65 -38.5 102.5t-133.5 57.5l-61 12q-92 18 -143.5 57t-51.5 115q0 87 72.5 137t179.5 50q116 0 182.5 -52t81.5 -113h-33q-20 51 -77 91.5t-154 40.5zM541 785l-95 108l-123 -108h-43l154 136h28l116 -136h-37z" />
    <glyph glyph-name="scircumflex" unicode="&#x15d;" horiz-adv-x="514" 
d="M279 222l-47 9q-67 13 -101.5 41t-34.5 79q0 60 50 95.5t124 35.5q78 0 127.5 -32.5t65.5 -76.5h-35q-46 77 -158 77q-61 0 -100 -25.5t-39 -72.5q0 -36 26.5 -57t83.5 -32l46 -9q70 -14 104.5 -42t34.5 -82q0 -61 -51.5 -101t-131.5 -40q-93 0 -143 38.5t-63 83.5h35
q7 -18 23 -36t55.5 -36t92.5 -18q64 0 106 29.5t42 79.5q0 38 -25 59t-87 33zM412 572l-69 138l-113 -138h-37l141 173h25l85 -173h-32z" />
    <glyph glyph-name="uni015E" unicode="&#x15e;" horiz-adv-x="680" 
d="M383 689q-94 0 -155.5 -40.5t-61.5 -113.5q0 -61 39.5 -90t126.5 -49l61 -13q104 -21 152.5 -65.5t48.5 -126.5q0 -93 -77 -148.5t-191 -55.5q-36 0 -61 4l-13 -68h4q48 0 72 -22t24 -61q0 -40 -26.5 -67t-82.5 -27h-89l7 32h82q74 0 74 62q0 51 -63 51h-42l21 106
q-22 6 -32 10q-72 29 -111.5 75.5t-51.5 92.5h35q8 -22 22.5 -44t43 -49.5t77 -44.5t110.5 -17q97 0 165 46.5t68 124.5q0 65 -38.5 102.5t-133.5 57.5l-61 12q-92 18 -143.5 57t-51.5 115q0 87 72.5 137t179.5 50q116 0 182.5 -52t81.5 -113h-33q-20 51 -77 91.5t-154 40.5
z" />
    <glyph glyph-name="uni015F" unicode="&#x15f;" horiz-adv-x="514" 
d="M279 222l-47 9q-67 13 -101.5 41t-34.5 79q0 60 50 95.5t124 35.5q78 0 127.5 -32.5t65.5 -76.5h-35q-46 77 -158 77q-61 0 -100 -25.5t-39 -72.5q0 -36 26.5 -57t83.5 -32l46 -9q70 -14 104.5 -42t34.5 -82q0 -61 -51.5 -101t-131.5 -40q-25 0 -47 3l-13 -69h4
q48 0 72 -22t24 -61q0 -40 -26.5 -67t-82.5 -27h-89l7 32h82q74 0 74 62q0 51 -63 51h-42l21 107q-1 0 -4.5 1t-5.5 2q-51 18 -79.5 48t-37.5 62h35q7 -18 23 -36t55.5 -36t92.5 -18q64 0 106 29.5t42 79.5q0 38 -25 59t-87 33z" />
    <glyph glyph-name="Scaron" unicode="&#x160;" horiz-adv-x="680" 
d="M383 689q-94 0 -155.5 -40.5t-61.5 -113.5q0 -61 39.5 -90t126.5 -49l61 -13q104 -21 152.5 -65.5t48.5 -126.5q0 -93 -77 -148.5t-191 -55.5q-69 0 -124.5 19.5t-88 51t-50.5 60.5t-25 57h35q8 -22 22.5 -44t43 -49.5t77 -44.5t110.5 -17q97 0 165 46.5t68 124.5
q0 65 -38.5 102.5t-133.5 57.5l-61 12q-92 18 -143.5 57t-51.5 115q0 87 72.5 137t179.5 50q116 0 182.5 -52t81.5 -113h-33q-20 51 -77 91.5t-154 40.5zM579 921l-154 -136h-28l-116 136h37l95 -109l123 109h43z" />
    <glyph glyph-name="scaron" unicode="&#x161;" horiz-adv-x="514" 
d="M279 222l-47 9q-67 13 -101.5 41t-34.5 79q0 60 50 95.5t124 35.5q78 0 127.5 -32.5t65.5 -76.5h-35q-46 77 -158 77q-61 0 -100 -25.5t-39 -72.5q0 -36 26.5 -57t83.5 -32l46 -9q70 -14 104.5 -42t34.5 -82q0 -61 -51.5 -101t-131.5 -40q-93 0 -143 38.5t-63 83.5h35
q7 -18 23 -36t55.5 -36t92.5 -18q64 0 106 29.5t42 79.5q0 38 -25 59t-87 33zM464 748l-139 -173h-25l-87 173h33l70 -139l112 139h36z" />
    <glyph glyph-name="Tcommaaccent" unicode="&#x162;" horiz-adv-x="717" 
d="M125 678l7 32h637l-6 -32h-302l-132 -678h-33l132 678h-303zM301 -156q-20 -100 -53 -158h-34q38 69 55 157l10 52h32z" />
    <glyph glyph-name="tcommaaccent" unicode="&#x163;" horiz-adv-x="454" 
d="M362 31l-6 -31h-70q-159 0 -130 146l57 293h-143l6 31h143l47 240h34l-47 -240h194l-6 -31h-194l-57 -293q-22 -115 96 -115h76zM196 -156q-20 -100 -53 -158h-34q38 69 55 157l10 52h32z" />
    <glyph glyph-name="Tcaron" unicode="&#x164;" horiz-adv-x="717" 
d="M125 678l7 32h637l-6 -32h-302l-132 -678h-33l132 678h-303zM627 921l-154 -136h-28l-116 136h37l95 -109l123 109h43z" />
    <glyph glyph-name="tcaron" unicode="&#x165;" horiz-adv-x="454" 
d="M362 31l-6 -31h-70q-159 0 -130 146l57 293h-143l6 31h143l47 240h34l-47 -240h194l-6 -31h-194l-57 -293q-22 -115 96 -115h76zM356 575l88 173h31l-88 -173h-31z" />
    <glyph glyph-name="Tbar" unicode="&#x166;" horiz-adv-x="717" 
d="M157 368l7 32h209l55 278h-303l7 32h637l-6 -32h-302l-54 -278h211l-7 -32h-210l-72 -368h-33l71 368h-210z" />
    <glyph glyph-name="tbar" unicode="&#x167;" horiz-adv-x="470" 
d="M370 31l-6 -31h-70q-76 0 -110.5 36.5t-19.5 109.5l21 107h-143l6 31h143l30 155h-143l6 31h143l47 240h34l-47 -240h194l-6 -31h-194l-30 -155h194l-6 -31h-194l-21 -107q-22 -115 96 -115h76z" />
    <glyph glyph-name="Utilde" unicode="&#x168;" horiz-adv-x="768" 
d="M744 710l-86 -445q-53 -277 -290 -277q-135 0 -202 80t-43 207l85 435h34l-84 -435q-23 -118 36 -186t174 -68q206 0 255 244l87 445h34zM359 844q14 74 62 74q30 0 64 -31l47 -40q26 -23 43 -23q13 0 19.5 10.5t10.5 32.5l12 61h32l-12 -61q-7 -36 -20.5 -55t-41.5 -19
q-30 0 -64 31l-47 40q-26 23 -43 23q-13 0 -19.5 -10.5t-10.5 -32.5l-12 -61h-32z" />
    <glyph glyph-name="utilde" unicode="&#x169;" horiz-adv-x="566" 
d="M257 -12q-93 0 -139.5 56.5t-28.5 149.5l53 276h34l-54 -276q-16 -82 21 -128t114 -46q135 0 168 164l56 286h34l-56 -286q-19 -94 -67 -145t-135 -51zM241 571h-31l14 72q7 36 21 54.5t41 18.5q30 0 58 -34l40 -51q20 -24 36 -24q21 0 30 41l15 73h31l-14 -72
q-7 -36 -21 -54.5t-41 -18.5q-30 0 -58 34l-41 51q-19 24 -35 24q-21 0 -30 -41z" />
    <glyph glyph-name="Umacron" unicode="&#x16a;" horiz-adv-x="768" 
d="M744 710l-86 -445q-53 -277 -290 -277q-135 0 -202 80t-43 207l85 435h34l-84 -435q-23 -118 36 -186t174 -68q206 0 255 244l87 445h34zM629 825h-278l6 31h278z" />
    <glyph glyph-name="umacron" unicode="&#x16b;" horiz-adv-x="566" 
d="M257 -12q-93 0 -139.5 56.5t-28.5 149.5l53 276h34l-54 -276q-16 -82 21 -128t114 -46q135 0 168 164l56 286h34l-56 -286q-19 -94 -67 -145t-135 -51zM476 620h-256l6 31h256z" />
    <glyph glyph-name="Ubreve" unicode="&#x16c;" horiz-adv-x="768" 
d="M744 710l-86 -445q-53 -277 -290 -277q-135 0 -202 80t-43 207l85 435h34l-84 -435q-23 -118 36 -186t174 -68q206 0 255 244l87 445h34zM497 813q43 0 67.5 26.5t31.5 67.5l1 6h32l-1 -7q-6 -54 -39.5 -89.5t-91.5 -35.5q-62 0 -92.5 35.5t-21.5 90.5l1 6h33l-1 -6
q-7 -41 14 -67.5t67 -26.5z" />
    <glyph glyph-name="ubreve" unicode="&#x16d;" horiz-adv-x="566" 
d="M257 -12q-93 0 -139.5 56.5t-28.5 149.5l53 276h34l-54 -276q-16 -82 21 -128t114 -46q135 0 168 164l56 286h34l-56 -286q-19 -94 -67 -145t-135 -51zM346 600q41 0 61.5 22t29.5 62l4 18h32l-3 -18q-19 -115 -124 -115q-57 0 -88 34t-19 85l3 14h32l-3 -14
q-8 -39 12 -63.5t63 -24.5z" />
    <glyph glyph-name="Uring" unicode="&#x16e;" horiz-adv-x="768" 
d="M744 710l-86 -445q-53 -277 -290 -277q-135 0 -202 80t-43 207l85 435h34l-84 -435q-23 -118 36 -186t174 -68q206 0 255 244l87 445h34zM506 784q-48 0 -79.5 32t-31.5 78t31.5 78t79.5 32t79.5 -32t31.5 -78t-31.5 -78t-79.5 -32zM506 815q34 0 56 23t22 56t-21.5 56
t-56.5 23t-56.5 -23t-21.5 -56t22 -56t56 -23z" />
    <glyph glyph-name="uring" unicode="&#x16f;" horiz-adv-x="566" 
d="M257 -12q-93 0 -139.5 56.5t-28.5 149.5l53 276h34l-54 -276q-16 -82 21 -128t114 -46q135 0 168 164l56 286h34l-56 -286q-19 -94 -67 -145t-135 -51zM358 563q-48 0 -79.5 32t-31.5 78t31.5 78t79.5 32t79.5 -32t31.5 -78t-31.5 -78t-79.5 -32zM358 594q35 0 56.5 22.5
t21.5 56.5t-21.5 56.5t-56.5 22.5t-56.5 -22.5t-21.5 -56.5t21.5 -56.5t56.5 -22.5z" />
    <glyph glyph-name="Uhungarumlaut" unicode="&#x170;" horiz-adv-x="768" 
d="M744 710l-86 -445q-53 -277 -290 -277q-135 0 -202 80t-43 207l85 435h34l-84 -435q-23 -118 36 -186t174 -68q206 0 255 244l87 445h34zM526 788l95 130h38l-96 -130h-37zM366 788l94 130h39l-97 -130h-36z" />
    <glyph glyph-name="uhungarumlaut" unicode="&#x171;" horiz-adv-x="566" 
d="M257 -12q-93 0 -139.5 56.5t-28.5 149.5l53 276h34l-54 -276q-16 -82 21 -128t114 -46q135 0 168 164l56 286h34l-56 -286q-19 -94 -67 -145t-135 -51zM395 575l100 163h35l-100 -163h-35zM233 575l99 163h36l-100 -163h-35z" />
    <glyph glyph-name="Uogonek" unicode="&#x172;" horiz-adv-x="768" 
d="M446 -182l-7 -32h-62q-45 0 -70 20t-25 55q0 37 35 69.5t117 67.5q-38 -10 -66 -10q-135 0 -202 80t-43 207l85 435h34l-84 -435q-23 -118 36 -186t174 -68q206 0 255 244l87 445h34l-86 -445q-34 -177 -140 -239q-21 -13 -51.5 -31t-45.5 -27t-35.5 -22.5t-30 -21.5
t-19.5 -18.5t-13.5 -20.5t-3.5 -21q0 -46 58 -46h69z" />
    <glyph glyph-name="uogonek" unicode="&#x173;" horiz-adv-x="566" 
d="M330 -182l-7 -32h-62q-45 0 -70 20t-25 55t32 65t108 71q-23 -9 -49 -9q-93 0 -139.5 56.5t-28.5 149.5l53 276h34l-54 -276q-16 -82 21 -128t114 -46q135 0 168 164l56 286h34l-56 -286q-21 -112 -85 -161q-20 -15 -47.5 -35t-40.5 -29.5t-30.5 -23t-24.5 -20.5t-15 -17
t-10.5 -18t-2.5 -17q0 -45 58 -45h69z" />
    <glyph glyph-name="Wcircumflex" unicode="&#x174;" horiz-adv-x="1011" 
d="M675 -4l-93 648l-325 -648h-25l-93 714h35l81 -649l327 653h24l91 -653l313 649h35l-345 -714h-25zM712 785l-95 108l-123 -108h-43l154 136h28l116 -136h-37z" />
    <glyph glyph-name="wcircumflex" unicode="&#x175;" horiz-adv-x="772" 
d="M499 -3l-81 417l-228 -417h-25l-86 473h36l73 -416l227 420h25l79 -421l221 417h36l-253 -473h-24zM537 572l-69 138l-113 -138h-37l141 173h25l85 -173h-32z" />
    <glyph glyph-name="Ycircumflex" unicode="&#x176;" horiz-adv-x="683" 
d="M378 318l-62 -318h-34l61 317l-231 393h39l213 -362l338 362h43zM552 785l-95 108l-123 -108h-43l154 136h28l116 -136h-37z" />
    <glyph glyph-name="ycircumflex" unicode="&#x177;" horiz-adv-x="502" 
d="M509 470l-413 -684h-36l133 220l-117 464h37l104 -424l255 424h37zM398 572l-69 138l-113 -138h-37l141 173h25l85 -173h-32z" />
    <glyph glyph-name="Ydieresis" unicode="&#x178;" horiz-adv-x="683" 
d="M378 318l-62 -318h-34l61 317l-231 393h39l213 -362l338 362h43zM324 778l27 139h33l-27 -139h-33zM514 778l27 139h33l-27 -139h-33z" />
    <glyph glyph-name="Zacute" unicode="&#x179;" horiz-adv-x="682" 
d="M599 32l-6 -32h-585l4 19l613 659h-482l6 32h534l-4 -21l-611 -657h531zM374 788l118 130h42l-119 -130h-41z" />
    <glyph glyph-name="zacute" unicode="&#x17a;" horiz-adv-x="553" 
d="M460 32l-6 -32h-435l4 19l428 419h-343l7 32h399l-4 -18l-431 -420h381zM279 575l121 163h39l-121 -163h-39z" />
    <glyph glyph-name="Zdotaccent" unicode="&#x17b;" horiz-adv-x="682" 
d="M599 32l-6 -32h-585l4 19l613 659h-482l6 32h534l-4 -21l-611 -657h531zM403 778l28 141h33l-27 -141h-34z" />
    <glyph glyph-name="zdotaccent" unicode="&#x17c;" horiz-adv-x="553" 
d="M460 32l-6 -32h-435l4 19l428 419h-343l7 32h399l-4 -18l-431 -420h381zM294 585l28 141h33l-27 -141h-34z" />
    <glyph glyph-name="Zcaron" unicode="&#x17d;" horiz-adv-x="682" 
d="M599 32l-6 -32h-585l4 19l613 659h-482l6 32h534l-4 -21l-611 -657h531zM583 921l-154 -136h-28l-116 136h37l95 -109l123 109h43z" />
    <glyph glyph-name="zcaron" unicode="&#x17e;" horiz-adv-x="553" 
d="M460 32l-6 -32h-435l4 19l428 419h-343l7 32h399l-4 -18l-431 -420h381zM464 748l-139 -173h-25l-87 173h33l70 -139l112 139h36z" />
    <glyph glyph-name="uni0192" unicode="&#x192;" horiz-adv-x="577" 
d="M485 369h-209l-204 -583h-37l204 583h-154l6 32h159l50 143q30 90 71.5 128t130.5 38h136l-6 -32h-130q-76 0 -108.5 -31t-58.5 -109l-48 -137h204z" />
    <glyph glyph-name="Aringacute" unicode="&#x1fa;" horiz-adv-x="719" 
d="M601 0l-55 230h-368l-138 -230h-37l428 714h32l171 -714h-33zM197 262h341l-98 406zM468 1057l103 120h39l-103 -120h-39zM467 784q-48 0 -79.5 32t-31.5 78t31.5 78t79.5 32t79.5 -32t31.5 -78t-31.5 -78t-79.5 -32zM467 815q34 0 56 23t22 56t-21.5 56t-56.5 23
t-56.5 -23t-21.5 -56t22 -56t56 -23z" />
    <glyph glyph-name="aringacute" unicode="&#x1fb;" horiz-adv-x="567" 
d="M386 0l19 98q-21 -45 -61.5 -77t-98.5 -32q-84 0 -130 62t-46 154q0 107 61.5 191.5t162.5 84.5q39 0 70 -15t48.5 -39t27 -47t12.5 -46l27 136h33l-91 -470h-34zM245 21q57 0 102 39t66 94t21 111q0 75 -36.5 129.5t-104.5 54.5q-58 0 -102.5 -38.5t-65.5 -93
t-21 -112.5q0 -77 36.5 -130.5t104.5 -53.5zM358 836l100 130h38l-101 -130h-37zM361 563q-48 0 -79.5 32t-31.5 78t31.5 78t79.5 32t79.5 -32t31.5 -78t-31.5 -78t-79.5 -32zM361 594q35 0 56.5 22.5t21.5 56.5t-21.5 56.5t-56.5 22.5t-56.5 -22.5t-21.5 -56.5t21.5 -56.5
t56.5 -22.5z" />
    <glyph glyph-name="AEacute" unicode="&#x1fc;" horiz-adv-x="1014" 
d="M931 32l-7 -32h-458l41 211h-319l-185 -211h-39l620 710h444l-7 -32h-389l-55 -284h245l-7 -32h-245l-64 -330h425zM216 243h297l85 435zM779 788l118 130h42l-119 -130h-41z" />
    <glyph glyph-name="aeacute" unicode="&#x1fd;" horiz-adv-x="873" 
d="M635 482q89 0 139 -69.5t32 -167.5h-365q-2 -26 -2 -40q0 -81 39 -133t114 -52q101 0 165 91h33q-22 -47 -71.5 -85t-126.5 -38q-73 0 -120.5 42.5t-58.5 112.5q-13 -63 -67.5 -109t-133.5 -46q-73 0 -119 37.5t-46 103.5q0 67 45.5 107t131.5 40h188l1 3
q15 82 -21 126.5t-107 44.5q-42 0 -75 -17.5t-46.5 -34.5t-22.5 -35h-35q15 44 61.5 81.5t117.5 37.5q63 0 106.5 -30.5t53.5 -83.5q28 53 77 83.5t113 30.5zM635 450q-77 0 -126 -49t-63 -125h331q4 75 -34.5 124.5t-107.5 49.5zM82 129q0 -52 37 -80.5t93 -28.5
q63 0 113.5 38t64.5 102l17 85h-183q-70 0 -106 -31t-36 -85zM456 575l121 163h39l-121 -163h-39z" />
    <glyph glyph-name="Oslashacute" unicode="&#x1fe;" horiz-adv-x="770" 
d="M717 398q0 -106 -41 -198.5t-121 -152t-182 -59.5q-120 0 -196 86l-67 -74h-41l89 99q-59 86 -59 213q0 106 42.5 199.5t122.5 152t179 58.5q120 0 196 -86l67 74h41l-89 -99q59 -86 59 -213zM135 312q0 -110 46 -187l435 485q-63 79 -173 79q-93 0 -165.5 -58
t-107.5 -142.5t-35 -176.5zM681 398q0 110 -46 187l-435 -485q63 -79 173 -79q93 0 165.5 58t107.5 143t35 176zM436 788l118 130h42l-119 -130h-41z" />
    <glyph glyph-name="oslashacute" unicode="&#x1ff;" horiz-adv-x="558" 
d="M490 264q0 -115 -66 -195.5t-167 -80.5q-83 0 -135 58l-44 -46h-42l67 71q-36 58 -36 135q0 114 66.5 195t166.5 81q83 0 135 -58l44 46h42l-67 -71q36 -55 36 -135zM102 206q0 -64 25 -110l286 304q-44 50 -113 50q-87 0 -142.5 -73t-55.5 -171zM455 264q0 64 -25 110
l-286 -303q43 -51 113 -51q87 0 142.5 73t55.5 171zM301 575l121 163h39l-121 -163h-39z" />
    <glyph glyph-name="uni0218" unicode="&#x218;" horiz-adv-x="680" 
d="M383 689q-94 0 -155.5 -40.5t-61.5 -113.5q0 -61 39.5 -90t126.5 -49l61 -13q104 -21 152.5 -65.5t48.5 -126.5q0 -93 -77 -148.5t-191 -55.5q-69 0 -124.5 19.5t-88 51t-50.5 60.5t-25 57h35q8 -22 22.5 -44t43 -49.5t77 -44.5t110.5 -17q97 0 165 46.5t68 124.5
q0 65 -38.5 102.5t-133.5 57.5l-61 12q-92 18 -143.5 57t-51.5 115q0 87 72.5 137t179.5 50q116 0 182.5 -52t81.5 -113h-33q-20 51 -77 91.5t-154 40.5zM297 -156q-20 -100 -53 -158h-34q38 69 55 157l10 52h32z" />
    <glyph glyph-name="uni0219" unicode="&#x219;" horiz-adv-x="514" 
d="M279 222l-47 9q-67 13 -101.5 41t-34.5 79q0 60 50 95.5t124 35.5q78 0 127.5 -32.5t65.5 -76.5h-35q-46 77 -158 77q-61 0 -100 -25.5t-39 -72.5q0 -36 26.5 -57t83.5 -32l46 -9q70 -14 104.5 -42t34.5 -82q0 -61 -51.5 -101t-131.5 -40q-93 0 -143 38.5t-63 83.5h35
q7 -18 23 -36t55.5 -36t92.5 -18q64 0 106 29.5t42 79.5q0 38 -25 59t-87 33zM224 -156q-20 -100 -53 -158h-34q38 69 55 157l10 52h32z" />
    <glyph glyph-name="uni021A" unicode="&#x21a;" horiz-adv-x="717" 
d="M125 678l7 32h637l-6 -32h-302l-132 -678h-33l132 678h-303zM301 -156q-20 -100 -53 -158h-34q38 69 55 157l10 52h32z" />
    <glyph glyph-name="uni021B" unicode="&#x21b;" horiz-adv-x="454" 
d="M362 31l-6 -31h-70q-159 0 -130 146l57 293h-143l6 31h143l47 240h34l-47 -240h194l-6 -31h-194l-57 -293q-22 -115 96 -115h76zM196 -156q-20 -100 -53 -158h-34q38 69 55 157l10 52h32z" />
    <glyph glyph-name="uni0237" unicode="&#x237;" horiz-adv-x="236" 
d="M77 -58q-17 -84 -50 -120t-106 -36h-118l6 33h113q57 0 82.5 28.5t38.5 94.5l103 528h34z" />
    <glyph glyph-name="circumflex" unicode="&#x2c6;" horiz-adv-x="600" 
d="M461 572l-69 138l-113 -138h-37l141 173h25l85 -173h-32z" />
    <glyph glyph-name="caron" unicode="&#x2c7;" horiz-adv-x="600" 
d="M516 748l-139 -173h-25l-87 173h33l70 -139l112 139h36z" />
    <glyph glyph-name="breve" unicode="&#x2d8;" horiz-adv-x="600" 
d="M378 600q41 0 61.5 22t29.5 62l4 18h32l-3 -18q-19 -115 -124 -115q-57 0 -88 34t-19 85l3 14h32l-3 -14q-8 -39 12 -63.5t63 -24.5z" />
    <glyph glyph-name="dotaccent" unicode="&#x2d9;" horiz-adv-x="600" 
d="M347 585l28 141h33l-27 -141h-34z" />
    <glyph glyph-name="ring" unicode="&#x2da;" horiz-adv-x="600" 
d="M378 563q-48 0 -79.5 32t-31.5 78t31.5 78t79.5 32t79.5 -32t31.5 -78t-31.5 -78t-79.5 -32zM378 594q35 0 56.5 22.5t21.5 56.5t-21.5 56.5t-56.5 22.5t-56.5 -22.5t-21.5 -56.5t21.5 -56.5t56.5 -22.5z" />
    <glyph glyph-name="ogonek" unicode="&#x2db;" horiz-adv-x="600" 
d="M156 -139q0 37 31.5 67.5t106.5 71.5h34q-81 -56 -108 -82.5t-27 -53.5q0 -46 58 -46h69l-7 -32h-62q-45 0 -70 20t-25 55z" />
    <glyph glyph-name="tilde" unicode="&#x2dc;" horiz-adv-x="600" 
d="M266 571h-31l14 72q7 36 21 54.5t41 18.5q30 0 58 -34l40 -51q19 -24 36 -24q21 0 30 41l15 73h31l-14 -72q-7 -36 -21 -54.5t-41 -18.5q-30 0 -58 34l-41 51q-20 24 -35 24q-21 0 -30 -41z" />
    <glyph glyph-name="hungarumlaut" unicode="&#x2dd;" horiz-adv-x="600" 
d="M389 575l100 163h35l-100 -163h-35zM227 575l99 163h36l-100 -163h-35z" />
    <glyph glyph-name="Wgrave" unicode="&#x1e80;" horiz-adv-x="1011" 
d="M675 -4l-93 648l-325 -648h-25l-93 714h35l81 -649l327 653h24l91 -653l313 649h35l-345 -714h-25zM625 788h-36l-75 130h37z" />
    <glyph glyph-name="wgrave" unicode="&#x1e81;" horiz-adv-x="772" 
d="M499 -3l-81 417l-228 -417h-25l-86 473h36l73 -416l227 420h25l79 -421l221 417h36l-253 -473h-24zM454 575h-33l-64 163h35z" />
    <glyph glyph-name="Wacute" unicode="&#x1e82;" horiz-adv-x="1011" 
d="M675 -4l-93 648l-325 -648h-25l-93 714h35l81 -649l327 653h24l91 -653l313 649h35l-345 -714h-25zM587 788l118 130h42l-119 -130h-41z" />
    <glyph glyph-name="wacute" unicode="&#x1e83;" horiz-adv-x="772" 
d="M499 -3l-81 417l-228 -417h-25l-86 473h36l73 -416l227 420h25l79 -421l221 417h36l-253 -473h-24zM421 575l121 163h39l-121 -163h-39z" />
    <glyph glyph-name="Wdieresis" unicode="&#x1e84;" horiz-adv-x="1011" 
d="M675 -4l-93 648l-325 -648h-25l-93 714h35l81 -649l327 653h24l91 -653l313 649h35l-345 -714h-25zM496 778l27 139h33l-27 -139h-33zM686 778l27 139h33l-27 -139h-33z" />
    <glyph glyph-name="wdieresis" unicode="&#x1e85;" horiz-adv-x="772" 
d="M499 -3l-81 417l-228 -417h-25l-86 473h36l73 -416l227 420h25l79 -421l221 417h36l-253 -473h-24zM337 585l28 141h34l-28 -141h-34zM513 585l28 141h34l-28 -141h-34z" />
    <glyph glyph-name="Ygrave" unicode="&#x1ef2;" horiz-adv-x="683" 
d="M378 318l-62 -318h-34l61 317l-231 393h39l213 -362l338 362h43zM453 788h-36l-75 130h37z" />
    <glyph glyph-name="ygrave" unicode="&#x1ef3;" horiz-adv-x="502" 
d="M509 470l-413 -684h-36l133 220l-117 464h37l104 -424l255 424h37zM316 575h-33l-64 163h35z" />
    <glyph glyph-name="uni2009" unicode="&#x2009;" horiz-adv-x="166" 
 />
    <glyph glyph-name="uni200A" unicode="&#x200a;" horiz-adv-x="83" 
 />
    <glyph glyph-name="endash" unicode="&#x2013;" horiz-adv-x="677" 
d="M97 258l6 32h491l-6 -32h-491z" />
    <glyph glyph-name="emdash" unicode="&#x2014;" horiz-adv-x="970" 
d="M97 259l6 31h785l-7 -31h-784z" />
    <glyph glyph-name="quoteleft" unicode="&#x2018;" horiz-adv-x="249" 
d="M188 547l-22 -114h-31l22 113q19 98 75 190h33q-57 -100 -77 -189z" />
    <glyph glyph-name="quoteright" unicode="&#x2019;" horiz-adv-x="249" 
d="M228 623q-19 -98 -75 -190h-33q57 100 77 189l22 114h31z" />
    <glyph glyph-name="quotesinglbase" unicode="&#x201a;" horiz-adv-x="249" 
d="M108 19q-19 -98 -75 -190h-33q57 100 77 189l22 114h31z" />
    <glyph glyph-name="quotedblleft" unicode="&#x201c;" horiz-adv-x="409" 
d="M188 547l-22 -114h-31l22 113q19 98 75 190h33q-57 -100 -77 -189zM348 547l-22 -114h-31l22 113q19 98 75 190h33q-57 -100 -77 -189z" />
    <glyph glyph-name="quotedblright" unicode="&#x201d;" horiz-adv-x="409" 
d="M250 736l-22 -113q-19 -98 -75 -190h-33q57 100 77 189l22 114h31zM410 736l-22 -113q-19 -98 -75 -190h-33q57 100 77 189l22 114h31z" />
    <glyph glyph-name="quotedblbase" unicode="&#x201e;" horiz-adv-x="409" 
d="M130 132l-22 -113q-19 -98 -75 -190h-33q57 100 77 189l22 114h31zM290 132l-22 -113q-19 -98 -75 -190h-33q57 100 77 189l22 114h31z" />
    <glyph glyph-name="dagger" unicode="&#x2020;" horiz-adv-x="517" 
d="M500 480h-178l-93 -480h-33l93 480h-178l7 32h178l38 198h33l-38 -198h177z" />
    <glyph glyph-name="daggerdbl" unicode="&#x2021;" horiz-adv-x="517" 
d="M446 203h-178l-39 -203h-33l39 203h-177l6 32h178l46 240h-178l7 32h178l39 203h33l-39 -203h177l-6 -32h-178l-46 -240h177z" />
    <glyph glyph-name="bullet" unicode="&#x2022;" horiz-adv-x="531" 
d="M283 480q65 0 109.5 -45t44.5 -109q0 -65 -44.5 -109.5t-109.5 -44.5t-109.5 44.5t-44.5 109.5q0 64 44.5 109t109.5 45z" />
    <glyph glyph-name="ellipsis" unicode="&#x2026;" horiz-adv-x="647" 
d="M51 0l26 132h34l-26 -132h-34zM261 0l26 132h34l-26 -132h-34zM471 0l26 132h33l-26 -132h-33z" />
    <glyph glyph-name="perthousand" unicode="&#x2030;" horiz-adv-x="1416" 
d="M300 376q-70 0 -115 45t-45 114q0 74 51 130.5t131 56.5q70 0 115 -45t45 -114q0 -74 -51 -130.5t-131 -56.5zM168 0l655 710h42l-655 -710h-42zM322 690q-68 0 -108 -47t-40 -108q0 -57 34.5 -92t91.5 -35q68 0 108 47t40 108q0 57 -34.5 92t-91.5 35zM711 -14
q-70 0 -115 45t-45 114q0 74 51 130.5t131 56.5q70 0 115 -45t45 -114q0 -74 -51 -130.5t-131 -56.5zM1139 -14q-70 0 -115 45t-45 114q0 74 51 130.5t131 56.5q70 0 115 -45t45 -114q0 -74 -51 -130.5t-131 -56.5zM733 300q-68 0 -108 -47t-40 -108q0 -57 34.5 -92
t91.5 -35q68 0 108 47t40 108q0 57 -34.5 92t-91.5 35zM1161 300q-68 0 -108 -47t-40 -108q0 -57 34.5 -92t91.5 -35q68 0 108 47t40 108q0 57 -34.5 92t-91.5 35z" />
    <glyph glyph-name="uni2032" unicode="&#x2032;" horiz-adv-x="253" 
d="M130 425h-34l156 285h34z" />
    <glyph glyph-name="uni2033" unicode="&#x2033;" horiz-adv-x="405" 
d="M130 425h-34l147 285h34zM290 425h-34l148 285h34z" />
    <glyph glyph-name="guilsinglleft" unicode="&#x2039;" horiz-adv-x="319" 
d="M281 448l-163 -175l96 -171h-34l-98 175l160 171h39z" />
    <glyph glyph-name="guilsinglright" unicode="&#x203a;" horiz-adv-x="319" 
d="M252 273l-160 -171h-39l163 175l-96 171h34z" />
    <glyph glyph-name="fraction" unicode="&#x2044;" horiz-adv-x="520" 
d="M11 0h-40l588 710h40z" />
    <glyph glyph-name="zero.sup" unicode="&#x2070;" horiz-adv-x="492" 
d="M121 406l28 143q32 169 169 169q75 0 117.5 -48t25.5 -130l-28 -143q-32 -169 -168 -169q-75 0 -117 47t-27 131zM265 260q106 0 134 137l27 143q14 68 -15.5 107t-92.5 39q-59 0 -90 -36t-44 -101l-28 -143q-13 -68 16.5 -107t92.5 -39z" />
    <glyph glyph-name="four.sup" unicode="&#x2074;" horiz-adv-x="503" 
d="M479 394h-111l-31 -158h-34l31 158h-247l3 17l305 299h34l-55 -285h111zM145 425h195l45 237z" />
    <glyph glyph-name="five.sup" unicode="&#x2075;" horiz-adv-x="467" 
d="M141 455l49 255h274l-6 -31h-241l-33 -173q37 39 96 39q63 0 101.5 -39.5t38.5 -103.5q0 -73 -45 -123.5t-124 -50.5q-72 0 -109.5 39.5t-40.5 90.5h34q3 -36 31.5 -67t84.5 -31q60 0 97 39.5t37 102.5q0 50 -29.5 80t-80.5 30q-42 0 -69.5 -19.5t-37.5 -37.5h-27z" />
    <glyph glyph-name="six.sup" unicode="&#x2076;" horiz-adv-x="469" 
d="M425 401q0 -69 -46 -121t-127 -52q-72 0 -111.5 40.5t-39.5 105.5q0 80 81 158l179 178h42l-187 -186q32 20 66 20q64 0 103.5 -39t39.5 -104zM273 514q-64 0 -100.5 -42.5t-36.5 -97.5q0 -50 30.5 -82t85.5 -32q66 0 102 42t36 99q0 50 -31 81.5t-86 31.5z" />
    <glyph glyph-name="seven.sup" unicode="&#x2077;" horiz-adv-x="446" 
d="M470 688l-336 -452h-40l330 443h-271l6 31h316z" />
    <glyph glyph-name="eight.sup" unicode="&#x2078;" horiz-adv-x="479" 
d="M423 370q0 -59 -41.5 -100.5t-117.5 -41.5h-20q-68 0 -106 33t-38 91q0 54 34.5 90.5t82.5 42.5q-61 26 -61 98q0 55 39 95t110 40h20q64 0 99.5 -32t35.5 -87q0 -51 -31.5 -83.5t-74.5 -39.5q69 -30 69 -106zM190 583q0 -41 27.5 -64.5t72.5 -23.5h19q52 0 84 30t32 73
q0 41 -27.5 64.5t-72.5 23.5h-19q-55 0 -85.5 -29t-30.5 -74zM388 370q0 44 -29 69t-78 25h-20q-58 0 -91.5 -31.5t-33.5 -78.5q0 -44 29.5 -69t78.5 -25h20q58 0 91 31.5t33 78.5z" />
    <glyph glyph-name="nine.sup" unicode="&#x2079;" horiz-adv-x="469" 
d="M376 414l-180 -178h-41l186 186q-28 -20 -64 -20q-64 0 -104 39t-40 104q0 69 46 121t127 52q71 0 111 -40.5t40 -105.5q0 -80 -81 -158zM285 432q64 0 100.5 42t36.5 98q0 50 -30.5 82t-85.5 32q-67 0 -102.5 -42t-35.5 -99q0 -50 31 -81.5t86 -31.5z" />
    <glyph glyph-name="zero.sub" unicode="&#x2080;" horiz-adv-x="492" 
d="M53 56l28 143q32 169 169 169q75 0 117.5 -48t25.5 -130l-28 -143q-32 -169 -168 -169q-75 0 -117 47t-27 131zM197 -90q106 0 134 137l27 143q14 68 -15.5 107t-92.5 39q-59 0 -90 -36t-44 -101l-28 -143q-13 -68 16.5 -107t92.5 -39z" />
    <glyph glyph-name="one.sub" unicode="&#x2081;" horiz-adv-x="326" 
d="M243 362l-93 -476h-35l84 428l-143 -81l8 37l157 92h22z" />
    <glyph glyph-name="two.sub" unicode="&#x2082;" horiz-adv-x="443" 
d="M327 -82l-6 -32h-316l4 21l192 161q69 58 96.5 92.5t27.5 78.5t-27 70.5t-74 26.5q-49 0 -79.5 -32.5t-39.5 -86.5l-4 -20h-34l3 20q13 69 51 110t103 41q64 0 100 -36.5t36 -92.5q0 -29 -8 -52t-32.5 -50.5t-39.5 -41t-60 -51.5l-149 -126h256z" />
    <glyph glyph-name="three.sub" unicode="&#x2083;" horiz-adv-x="462" 
d="M343 25q0 -61 -44 -104t-125 -43q-72 0 -111 38t-42 84h36q3 -34 33.5 -62t83.5 -28q63 0 99 33t36 83q0 44 -29 67t-82 23h-62l6 31h84q52 0 81.5 29t29.5 73q0 39 -29 63t-75 24t-78.5 -25.5t-38.5 -60.5h-35q7 45 46.5 81.5t105.5 36.5q65 0 102.5 -33t37.5 -86
q0 -51 -30 -81.5t-71 -37.5q29 -9 50 -36t21 -69z" />
    <glyph glyph-name="four.sub" unicode="&#x2084;" horiz-adv-x="503" 
d="M411 44h-111l-31 -158h-34l31 158h-247l3 17l305 299h34l-55 -285h111zM77 75h195l45 237z" />
    <glyph glyph-name="five.sub" unicode="&#x2085;" horiz-adv-x="467" 
d="M73 105l49 255h274l-6 -31h-241l-33 -173q37 39 96 39q63 0 101.5 -39.5t38.5 -103.5q0 -73 -45 -123.5t-124 -50.5q-72 0 -109.5 39.5t-40.5 90.5h34q3 -36 31.5 -67t84.5 -31q60 0 97 39.5t37 102.5q0 50 -29.5 80t-80.5 30q-42 0 -69.5 -19.5t-37.5 -37.5h-27z" />
    <glyph glyph-name="six.sub" unicode="&#x2086;" horiz-adv-x="469" 
d="M357 51q0 -69 -46 -121t-127 -52q-72 0 -111.5 40.5t-39.5 105.5q0 80 81 158l179 178h42l-187 -186q32 20 66 20q64 0 103.5 -39t39.5 -104zM205 164q-64 0 -100.5 -42.5t-36.5 -97.5q0 -50 30.5 -82t85.5 -32q66 0 102 42t36 99q0 50 -31 81.5t-86 31.5z" />
    <glyph glyph-name="seven.sub" unicode="&#x2087;" horiz-adv-x="446" 
d="M402 338l-336 -452h-40l330 443h-271l6 31h316z" />
    <glyph glyph-name="eight.sub" unicode="&#x2088;" horiz-adv-x="479" 
d="M355 20q0 -59 -41.5 -100.5t-117.5 -41.5h-20q-68 0 -106 33t-38 91q0 54 34.5 90.5t82.5 42.5q-61 26 -61 98q0 55 39 95t110 40h20q64 0 99.5 -32t35.5 -87q0 -51 -31.5 -83.5t-74.5 -39.5q69 -30 69 -106zM122 233q0 -41 27.5 -64.5t72.5 -23.5h19q52 0 84 30t32 73
q0 41 -27.5 64.5t-72.5 23.5h-19q-55 0 -85.5 -29t-30.5 -74zM320 20q0 44 -29 69t-78 25h-20q-58 0 -91.5 -31.5t-33.5 -78.5q0 -44 29.5 -69t78.5 -25h20q58 0 91 31.5t33 78.5z" />
    <glyph glyph-name="nine.sub" unicode="&#x2089;" horiz-adv-x="469" 
d="M308 64l-180 -178h-41l186 186q-28 -20 -64 -20q-64 0 -104 39t-40 104q0 69 46 121t127 52q71 0 111 -40.5t40 -105.5q0 -80 -81 -158zM217 82q64 0 100.5 42t36.5 98q0 50 -30.5 82t-85.5 32q-67 0 -102.5 -42t-35.5 -99q0 -50 31 -81.5t86 -31.5z" />
    <glyph glyph-name="won" unicode="&#x20a9;" horiz-adv-x="1010" 
d="M649 -4l-41 347h-167l-155 -347h-26l-40 347h-142l7 32h131l-38 335h34l38 -335h172l150 339h26l38 -339h171l147 335h35l-147 -335h134l-7 -32h-141l-153 -347h-26zM455 375h150l-31 266zM254 343l31 -277l123 277h-154zM640 343l31 -278l122 278h-153z" />
    <glyph glyph-name="Euro" unicode="&#x20ac;" horiz-adv-x="700" 
d="M611 209q-42 -220 -238 -220q-102 0 -158.5 65t-33.5 189l3 16h-122l6 32h122l26 137h-122l7 32h122l5 28q44 234 234 234q100 0 154 -57.5t50 -157.5h-33q2 80 -40 131t-131 51q-84 0 -133 -55t-66 -146l-5 -28h213l-6 -32h-214l-27 -137h214l-6 -32h-214l-3 -16
q-21 -106 24.5 -163.5t133.5 -57.5q170 0 205 187h33z" />
    <glyph glyph-name="trademark" unicode="&#x2122;" horiz-adv-x="987" 
d="M125 678l7 32h346l-6 -32h-156l-71 -364h-34l71 364h-157zM629 710l84 -344l218 344h59l-77 -396h-37l70 362l-229 -364h-25l-90 362l-70 -360h-34l77 396h54z" />
    <glyph glyph-name="onethird" unicode="&#x2153;" horiz-adv-x="913" 
d="M820 120q0 -53 -38 -90t-108 -37q-63 0 -96 32.5t-36 74.5h35q3 -30 28 -52.5t69 -22.5q52 0 82 27t30 68q0 36 -24.5 55t-67.5 19h-55l7 32h72q43 0 67.5 23.5t24.5 59.5q0 33 -23.5 52.5t-62.5 19.5t-65 -21t-32 -50h-34q4 39 39 71t92 32t89 -28t32 -76
q0 -42 -26.5 -69t-58.5 -31q60 -19 60 -89zM280 712l-79 -408h-35l71 362l-120 -67l7 36l133 77h23zM173 0h-40l588 710h40z" />
    <glyph glyph-name="twothirds" unicode="&#x2154;" horiz-adv-x="1046" 
d="M355 336l-6 -32h-273l4 21l167 140q56 46 78.5 74.5t22.5 65.5q0 36 -22.5 58t-60.5 22q-41 0 -66 -26.5t-32 -70.5l-4 -19h-34l3 19q10 58 44 93.5t89 35.5t86.5 -31.5t31.5 -80.5q0 -24 -7 -44t-27.5 -43t-33 -34.5t-49.5 -42.5l-125 -105h214zM928 120q0 -53 -38 -90
t-108 -37q-63 0 -96 32.5t-36 74.5h35q3 -30 28 -52.5t69 -22.5q52 0 82 27t30 68q0 36 -24.5 55t-67.5 19h-55l7 32h72q43 0 67.5 23.5t24.5 59.5q0 33 -23.5 52.5t-62.5 19.5t-65 -21t-32 -50h-34q4 39 39 71t92 32t89 -28t32 -76q0 -42 -26.5 -69t-58.5 -31
q60 -19 60 -89zM281 0h-40l588 710h40z" />
    <glyph glyph-name="oneeighth" unicode="&#x215b;" horiz-adv-x="937" 
d="M838 115q0 -51 -35.5 -86.5t-100.5 -35.5h-18q-60 0 -92.5 28.5t-32.5 79.5q0 46 29.5 76t70.5 36q-52 23 -52 84q0 48 33.5 82t95.5 34h17q56 0 86.5 -27.5t30.5 -75.5q0 -44 -27.5 -72t-64.5 -32q60 -23 60 -91zM723 224h16q44 0 70 24.5t26 59.5q0 34 -22.5 53.5
t-59.5 19.5h-17q-44 0 -69.5 -23.5t-25.5 -60.5q0 -34 22.5 -53.5t59.5 -19.5zM684 25h17q48 0 75.5 25.5t27.5 64.5q0 36 -24 57t-64 21h-18q-47 0 -75 -26t-28 -64q0 -36 24.5 -57t64.5 -21zM280 712l-79 -408h-35l71 362l-120 -67l7 36l133 77h23zM173 0h-40l588 710h40z
" />
    <glyph glyph-name="threeeighths" unicode="&#x215c;" horiz-adv-x="1034" 
d="M369 424q0 -53 -38 -90t-108 -37q-63 0 -96 32.5t-36 74.5h35q3 -30 28 -52.5t69 -22.5q52 0 82 27t30 68q0 36 -24.5 55t-67.5 19h-55l7 32h72q43 0 67.5 23.5t24.5 59.5q0 33 -23.5 52.5t-62.5 19.5t-65 -21t-32 -50h-34q4 39 39 71t92 32t89 -28t32 -76
q0 -42 -26.5 -69t-58.5 -31q60 -19 60 -89zM935 115q0 -51 -35.5 -86.5t-100.5 -35.5h-18q-60 0 -92.5 28.5t-32.5 79.5q0 46 29.5 76t70.5 36q-52 23 -52 84q0 48 33.5 82t95.5 34h17q56 0 86.5 -27.5t30.5 -75.5q0 -44 -27.5 -72t-64.5 -32q60 -23 60 -91zM820 224h16
q44 0 70 24.5t26 59.5q0 34 -22.5 53.5t-59.5 19.5h-17q-44 0 -69.5 -23.5t-25.5 -60.5q0 -34 22.5 -53.5t59.5 -19.5zM781 25h17q48 0 75.5 25.5t27.5 64.5q0 36 -24 57t-64 21h-18q-47 0 -75 -26t-28 -64q0 -36 24.5 -57t64.5 -21zM270 0h-40l588 710h40z" />
    <glyph glyph-name="fiveeighths" unicode="&#x215d;" horiz-adv-x="1035" 
d="M135 490l43 220h237l-7 -31h-203l-29 -144q32 34 82 34q54 0 86.5 -33.5t32.5 -89.5q0 -62 -38.5 -105.5t-107.5 -43.5q-63 0 -96 34.5t-33 78.5h34q0 -29 24.5 -55t70.5 -26q51 0 81.5 33t30.5 85q0 41 -24.5 65.5t-67.5 24.5q-9 0 -17.5 -1t-15.5 -3.5t-13 -5
t-11.5 -6.5t-9.5 -7t-8 -7t-6 -6.5t-5 -6t-3 -4.5h-27zM936 115q0 -51 -35.5 -86.5t-100.5 -35.5h-18q-60 0 -92.5 28.5t-32.5 79.5q0 46 29.5 76t70.5 36q-52 23 -52 84q0 48 33.5 82t95.5 34h17q56 0 86.5 -27.5t30.5 -75.5q0 -44 -27.5 -72t-64.5 -32q60 -23 60 -91z
M821 224h16q44 0 70 24.5t26 59.5q0 34 -22.5 53.5t-59.5 19.5h-17q-44 0 -69.5 -23.5t-25.5 -60.5q0 -34 22.5 -53.5t59.5 -19.5zM782 25h17q48 0 75.5 25.5t27.5 64.5q0 36 -24 57t-64 21h-18q-47 0 -75 -26t-28 -64q0 -36 24.5 -57t64.5 -21zM271 0h-40l588 710h40z" />
    <glyph glyph-name="seveneighths" unicode="&#x215e;" horiz-adv-x="952" 
d="M414 686l-284 -382h-40l280 375h-230l6 31h272zM853 115q0 -51 -35.5 -86.5t-100.5 -35.5h-18q-60 0 -92.5 28.5t-32.5 79.5q0 46 29.5 76t70.5 36q-52 23 -52 84q0 48 33.5 82t95.5 34h17q56 0 86.5 -27.5t30.5 -75.5q0 -44 -27.5 -72t-64.5 -32q60 -23 60 -91zM738 224
h16q44 0 70 24.5t26 59.5q0 34 -22.5 53.5t-59.5 19.5h-17q-44 0 -69.5 -23.5t-25.5 -60.5q0 -34 22.5 -53.5t59.5 -19.5zM699 25h17q48 0 75.5 25.5t27.5 64.5q0 36 -24 57t-64 21h-18q-47 0 -75 -26t-28 -64q0 -36 24.5 -57t64.5 -21zM188 0h-40l588 710h40z" />
    <glyph glyph-name="minus" unicode="&#x2212;" horiz-adv-x="679" 
d="M598 300h-493l7 32h493z" />
    <glyph glyph-name="uni24C5" unicode="&#x24c5;" horiz-adv-x="875" 
d="M460 -12q-158 0 -262.5 105t-104.5 262q0 156 105 261.5t262 105.5t262 -105.5t105 -261.5t-105 -261.5t-262 -105.5zM460 22q141 0 236.5 96t95.5 237t-95.5 237t-236.5 96q-142 0 -237 -96t-95 -237q0 -142 94.5 -237.5t237.5 -95.5zM314 170v374h192q136 0 136 -111
t-136 -111h-158v-152h-34zM506 511h-158v-156h158q101 0 101 78t-101 78z" />
    <glyph glyph-name="zero.den" unicode="&#xe402;" horiz-adv-x="425" 
d="M58 147l23 120q27 146 146 146q65 0 101.5 -41t22.5 -113l-24 -120q-30 -146 -146 -146q-64 0 -101.5 40.5t-21.5 113.5zM181 25q89 0 112 114l23 120q11 57 -13.5 89.5t-75.5 32.5q-90 0 -111 -114l-24 -120q-11 -57 13.5 -89.5t75.5 -32.5z" />
    <glyph glyph-name="one.den" unicode="&#xe403;" horiz-adv-x="284" 
d="M221 408l-79 -408h-35l71 362l-120 -67l7 36l133 77h23z" />
    <glyph glyph-name="two.den" unicode="&#xe404;" horiz-adv-x="388" 
d="M296 32l-6 -32h-273l4 21l167 140q56 46 78.5 74.5t22.5 65.5q0 36 -22.5 58t-60.5 22q-41 0 -66 -26.5t-32 -70.5l-4 -19h-34l3 19q10 58 44 93.5t89 35.5t86.5 -31.5t31.5 -80.5q0 -24 -7 -44t-27.5 -43t-33 -34.5t-49.5 -42.5l-125 -105h214z" />
    <glyph glyph-name="three.den" unicode="&#xe405;" horiz-adv-x="400" 
d="M310 120q0 -53 -38 -90t-108 -37q-63 0 -96 32.5t-36 74.5h35q3 -30 28 -52.5t69 -22.5q52 0 82 27t30 68q0 36 -24.5 55t-67.5 19h-55l7 32h72q43 0 67.5 23.5t24.5 59.5q0 33 -23.5 52.5t-62.5 19.5t-65 -21t-32 -50h-34q4 39 39 71t92 32t89 -28t32 -76
q0 -42 -26.5 -69t-58.5 -31q60 -19 60 -89z" />
    <glyph glyph-name="four.den" unicode="&#xe406;" horiz-adv-x="427" 
d="M362 134h-93l-26 -134h-34l26 134h-209l3 17l258 255h35l-47 -242h93zM82 164h159l39 197z" />
    <glyph glyph-name="five.den" unicode="&#xe407;" horiz-adv-x="405" 
d="M76 186l43 220h237l-7 -31h-203l-29 -144q32 34 82 34q54 0 86.5 -33.5t32.5 -89.5q0 -62 -38.5 -105.5t-107.5 -43.5q-63 0 -96 34.5t-33 78.5h34q0 -29 24.5 -55t70.5 -26q51 0 81.5 33t30.5 85q0 41 -24.5 65.5t-67.5 24.5q-9 0 -17.5 -1t-15.5 -3.5t-13 -5
t-11.5 -6.5t-9.5 -7t-8 -7t-6 -6.5t-5 -6t-3 -4.5h-27z" />
    <glyph glyph-name="six.den" unicode="&#xe408;" horiz-adv-x="406" 
d="M321 142q0 -61 -40 -105t-110 -44q-61 0 -95.5 35t-34.5 91q0 67 73 140l148 147h41l-157 -158q22 16 53 16q54 0 88 -33t34 -89zM171 25q55 0 85 34.5t30 82.5q0 41 -25.5 67t-71.5 26q-53 0 -83.5 -35.5t-30.5 -80.5q0 -41 25 -67.5t71 -26.5z" />
    <glyph glyph-name="seven.den" unicode="&#xe409;" horiz-adv-x="382" 
d="M355 382l-284 -382h-40l280 375h-230l6 31h272z" />
    <glyph glyph-name="eight.den" unicode="&#xe40a;" horiz-adv-x="417" 
d="M321 115q0 -51 -35.5 -86.5t-100.5 -35.5h-18q-60 0 -92.5 28.5t-32.5 79.5q0 46 29.5 76t70.5 36q-52 23 -52 84q0 48 33.5 82t95.5 34h17q56 0 86.5 -27.5t30.5 -75.5q0 -44 -27.5 -72t-64.5 -32q60 -23 60 -91zM206 224h16q44 0 70 24.5t26 59.5q0 34 -22.5 53.5
t-59.5 19.5h-17q-44 0 -69.5 -23.5t-25.5 -60.5q0 -34 22.5 -53.5t59.5 -19.5zM167 25h17q48 0 75.5 25.5t27.5 64.5q0 36 -24 57t-64 21h-18q-47 0 -75 -26t-28 -64q0 -36 24.5 -57t64.5 -21z" />
    <glyph glyph-name="nine.den" unicode="&#xe40b;" horiz-adv-x="406" 
d="M274 144l-147 -147h-42l159 159q-23 -17 -55 -17q-54 0 -87.5 33t-33.5 89q0 61 40 105t110 44q61 0 95.5 -35t34.5 -91q0 -66 -74 -140zM218 378q-56 0 -85.5 -34.5t-29.5 -82.5q0 -41 25 -66.5t71 -25.5q54 0 84 34.5t30 80.5q0 41 -25 67.5t-70 26.5z" />
    <glyph glyph-name="zero.num" unicode="&#xe416;" horiz-adv-x="425" 
d="M117 451l23 120q27 146 146 146q65 0 101.5 -41t22.5 -113l-24 -120q-30 -146 -146 -146q-64 0 -101.5 40.5t-21.5 113.5zM240 329q89 0 112 114l23 120q11 57 -13.5 89.5t-75.5 32.5q-90 0 -111 -114l-24 -120q-11 -57 13.5 -89.5t75.5 -32.5z" />
    <glyph glyph-name="one.num" unicode="&#xe417;" horiz-adv-x="284" 
d="M280 712l-79 -408h-35l71 362l-120 -67l7 36l133 77h23z" />
    <glyph glyph-name="two.num" unicode="&#xe418;" horiz-adv-x="388" 
d="M355 336l-6 -32h-273l4 21l167 140q56 46 78.5 74.5t22.5 65.5q0 36 -22.5 58t-60.5 22q-41 0 -66 -26.5t-32 -70.5l-4 -19h-34l3 19q10 58 44 93.5t89 35.5t86.5 -31.5t31.5 -80.5q0 -24 -7 -44t-27.5 -43t-33 -34.5t-49.5 -42.5l-125 -105h214z" />
    <glyph glyph-name="three.num" unicode="&#xe419;" horiz-adv-x="400" 
d="M369 424q0 -53 -38 -90t-108 -37q-63 0 -96 32.5t-36 74.5h35q3 -30 28 -52.5t69 -22.5q52 0 82 27t30 68q0 36 -24.5 55t-67.5 19h-55l7 32h72q43 0 67.5 23.5t24.5 59.5q0 33 -23.5 52.5t-62.5 19.5t-65 -21t-32 -50h-34q4 39 39 71t92 32t89 -28t32 -76
q0 -42 -26.5 -69t-58.5 -31q60 -19 60 -89z" />
    <glyph glyph-name="four.num" unicode="&#xe41a;" horiz-adv-x="427" 
d="M421 438h-93l-26 -134h-34l26 134h-209l3 17l258 255h35l-47 -242h93zM141 468h159l39 197z" />
    <glyph glyph-name="five.num" unicode="&#xe41b;" horiz-adv-x="405" 
d="M135 490l43 220h237l-7 -31h-203l-29 -144q32 34 82 34q54 0 86.5 -33.5t32.5 -89.5q0 -62 -38.5 -105.5t-107.5 -43.5q-63 0 -96 34.5t-33 78.5h34q0 -29 24.5 -55t70.5 -26q51 0 81.5 33t30.5 85q0 41 -24.5 65.5t-67.5 24.5q-9 0 -17.5 -1t-15.5 -3.5t-13 -5
t-11.5 -6.5t-9.5 -7t-8 -7t-6 -6.5t-5 -6t-3 -4.5h-27z" />
    <glyph glyph-name="six.num" unicode="&#xe41c;" horiz-adv-x="406" 
d="M380 446q0 -61 -40 -105t-110 -44q-61 0 -95.5 35t-34.5 91q0 67 73 140l148 147h41l-157 -158q22 16 53 16q54 0 88 -33t34 -89zM230 329q55 0 85 34.5t30 82.5q0 41 -25.5 67t-71.5 26q-53 0 -83.5 -35.5t-30.5 -80.5q0 -41 25 -67.5t71 -26.5z" />
    <glyph glyph-name="seven.num" unicode="&#xe41d;" horiz-adv-x="382" 
d="M414 686l-284 -382h-40l280 375h-230l6 31h272z" />
    <glyph glyph-name="eight.num" unicode="&#xe41e;" horiz-adv-x="417" 
d="M380 419q0 -51 -35.5 -86.5t-100.5 -35.5h-18q-60 0 -92.5 28.5t-32.5 79.5q0 46 29.5 76t70.5 36q-52 23 -52 84q0 48 33.5 82t95.5 34h17q56 0 86.5 -27.5t30.5 -75.5q0 -44 -27.5 -72t-64.5 -32q60 -23 60 -91zM265 528h16q44 0 70 24.5t26 59.5q0 34 -22.5 53.5
t-59.5 19.5h-17q-44 0 -69.5 -23.5t-25.5 -60.5q0 -34 22.5 -53.5t59.5 -19.5zM226 329h17q48 0 75.5 25.5t27.5 64.5q0 36 -24 57t-64 21h-18q-47 0 -75 -26t-28 -64q0 -36 24.5 -57t64.5 -21z" />
    <glyph glyph-name="nine.num" unicode="&#xe41f;" horiz-adv-x="406" 
d="M333 448l-147 -147h-42l159 159q-23 -17 -55 -17q-54 0 -87.5 33t-33.5 89q0 61 40 105t110 44q61 0 95.5 -35t34.5 -91q0 -66 -74 -140zM277 682q-56 0 -85.5 -34.5t-29.5 -82.5q0 -41 25 -66.5t71 -25.5q54 0 84 34.5t30 80.5q0 41 -25 67.5t-70 26.5z" />
    <glyph glyph-name="f_i" unicode="&#xfb01;" horiz-adv-x="662" 
d="M437 439h-187l-85 -439h-35l86 439h-146l6 31h146l22 114q14 78 50.5 115t111.5 37h134l-6 -31h-128q-60 0 -87.5 -29t-40.5 -92l-22 -114h187zM595 585l27 141h34l-28 -141h-33zM481 0l91 470h34l-91 -470h-34z" />
    <glyph glyph-name="f_l" unicode="&#xfb02;" horiz-adv-x="666" 
d="M437 439h-187l-85 -439h-35l86 439h-146l6 31h146l22 114q14 78 50.5 115t111.5 37h134l-6 -31h-128q-60 0 -87.5 -29t-40.5 -92l-22 -114h187zM483 0l143 736h34l-143 -736h-34z" />
    <glyph glyph-name="idotaccent" horiz-adv-x="236" 
d="M169 585l27 141h34l-28 -141h-33zM55 0l91 470h34l-91 -470h-34z" />
    <glyph glyph-name="f_b" horiz-adv-x="1007" 
d="M437 439h-187l-85 -439h-35l86 439h-146l6 31h146l22 114q14 78 50.5 115t111.5 37h134l-6 -31h-128q-60 0 -87.5 -29t-40.5 -92l-22 -114h187zM938 266q0 -114 -62.5 -195.5t-166.5 -81.5q-73 0 -115 43.5t-54 101.5l-25 -134h-34l143 736h34l-69 -353q24 42 67 70
t100 28q87 0 134.5 -61.5t47.5 -153.5zM903 266q0 77 -38 130t-109 53q-88 0 -143 -74t-55 -167q0 -79 38.5 -133t112.5 -54q87 0 140.5 75.5t53.5 169.5z" />
    <glyph glyph-name="f_h" horiz-adv-x="1001" 
d="M437 439h-187l-85 -439h-35l86 439h-146l6 31h146l22 114q14 78 50.5 115t111.5 37h134l-6 -31h-128q-60 0 -87.5 -29t-40.5 -92l-22 -114h187zM570 282l-55 -282h-34l144 736h34l-71 -357q24 47 66.5 75t98.5 28q82 0 129.5 -56t30.5 -145l-55 -281h-34l55 282
q14 76 -24 122t-107 46q-71 0 -117.5 -46.5t-60.5 -121.5z" />
    <glyph glyph-name="f_j" horiz-adv-x="662" 
d="M437 439h-187l-85 -439h-35l86 439h-146l6 31h146l22 114q14 78 50.5 115t111.5 37h134l-6 -31h-128q-60 0 -87.5 -29t-40.5 -92l-22 -114h187zM595 585l27 141h34l-28 -141h-33zM606 470l-103 -528q-17 -84 -50 -120t-106 -36h-116l6 33h111q57 0 82.5 28.5t38.5 94.5
l103 528h34z" />
    <glyph glyph-name="f_k" horiz-adv-x="950" 
d="M437 439h-187l-85 -439h-35l86 439h-146l6 31h146l22 114q14 78 50.5 115t111.5 37h134l-6 -31h-128q-60 0 -87.5 -29t-40.5 -92l-22 -114h187zM842 0l-283 228l-44 -228h-34l143 736h34l-93 -477l343 211h59l-373 -229l295 -241h-47z" />
    <glyph glyph-name="space_uni0326" horiz-adv-x="600" 
d="M260 -156q-20 -100 -53 -158h-34q38 69 55 157l10 52h32z" />
    <glyph glyph-name="zero.old" horiz-adv-x="608" 
d="M284 -11q-92 0 -146.5 66.5t-54.5 172.5q0 134 72.5 225.5t177.5 91.5q92 0 146.5 -66.5t54.5 -172.5q0 -135 -72.5 -226t-177.5 -91zM333 513q-92 0 -153.5 -84.5t-61.5 -200.5q0 -91 44 -149t122 -58q94 0 154.5 84t60.5 201q0 91 -44 149t-122 58z" />
    <glyph glyph-name="one.old" horiz-adv-x="383" 
d="M309 535l-104 -535h-33l94 483l-194 -115l7 38l214 129h16z" />
    <glyph glyph-name="two.old" horiz-adv-x="565" 
d="M451 32l-6 -32h-409l4 20l215 133q99 60 140.5 112t41.5 118q0 59 -35.5 94t-97.5 35q-66 0 -109.5 -47.5t-52.5 -118.5h-34q6 82 61.5 140t134.5 58q81 0 124.5 -45t43.5 -116q0 -75 -46 -131.5t-155 -123.5l-158 -96h338z" />
    <glyph glyph-name="three.old" horiz-adv-x="562" 
d="M451 28q0 -89 -60.5 -153.5t-167.5 -64.5q-52 0 -93.5 16.5t-65.5 43.5t-37 56.5t-15 59.5h35q3 -54 50 -98.5t126 -44.5q90 0 142 53t52 133q0 71 -46.5 108t-131.5 37h-65l6 32h101q84 0 132 46.5t48 116.5q0 64 -40.5 103t-105.5 39q-70 0 -119 -41.5t-58 -95.5h-35
q10 63 65.5 116.5t146.5 53.5q85 0 133.5 -49t48.5 -126t-47.5 -125.5t-110.5 -57.5q46 -14 79 -53.5t33 -104.5z" />
    <glyph glyph-name="four.old" horiz-adv-x="644" 
d="M564 65h-160l-47 -241h-33l47 241h-350l3 14l442 455h29l-85 -438h160zM82 96h295l74 382z" />
    <glyph glyph-name="five.old" horiz-adv-x="593" 
d="M102 146l76 386h370l-6 -31h-337l-57 -295q56 66 148 66q86 0 136 -58.5t50 -148.5q0 -110 -65.5 -182.5t-169.5 -72.5q-96 0 -148 57.5t-55 126.5h34q3 -55 45.5 -103.5t123.5 -48.5q89 0 144.5 63t55.5 160q0 79 -41 127t-110 48q-47 0 -86 -20t-55 -38t-26 -36h-27z
" />
    <glyph glyph-name="six.old" horiz-adv-x="597" 
d="M514 256q0 -103 -67 -185.5t-177 -82.5q-90 0 -141.5 60.5t-51.5 151.5q0 127 106 228l293 282h42l-279 -270q40 24 83 24q88 0 140 -56t52 -152zM270 20q94 0 151.5 73t57.5 163q0 79 -41.5 127.5t-120.5 48.5q-91 0 -148 -72.5t-57 -159.5q0 -77 41.5 -128.5
t116.5 -51.5z" />
    <glyph glyph-name="seven.old" horiz-adv-x="561" 
d="M550 514l-500 -692h-39l491 678h-379l7 32h423z" />
    <glyph glyph-name="eight.old" horiz-adv-x="625" 
d="M493 21q0 -87 -61 -149t-167 -62h-14q-95 0 -150 49.5t-55 132.5q0 82 54 137t128 65q-41 16 -69.5 54t-28.5 95q0 82 57 141.5t158 59.5h14q88 0 139 -47t51 -127q0 -77 -49 -128.5t-116 -60.5q46 -18 77.5 -58t31.5 -102zM320 203h14q81 0 130.5 49t49.5 118
q0 65 -42.5 103t-112.5 38h-14q-83 0 -131.5 -48t-48.5 -120q0 -63 44 -101.5t111 -38.5zM250 -157h14q87 0 140.5 51.5t53.5 126.5q0 69 -46.5 109t-121.5 40h-14q-88 0 -141.5 -51.5t-53.5 -126.5q0 -68 47.5 -108.5t121.5 -40.5z" />
    <glyph glyph-name="nine.old" horiz-adv-x="598" 
d="M421 103l-293 -282h-42l279 270q-40 -24 -83 -24q-88 0 -140 56t-52 152q0 103 67 185.5t177 82.5q90 0 141.5 -60t51.5 -150q0 -129 -106 -230zM334 511q-94 0 -151.5 -73t-57.5 -163q0 -79 41.5 -127.5t120.5 -48.5q91 0 148 73t57 161q0 75 -41.5 126.5t-116.5 51.5z
" />
    <glyph glyph-name="space.tab" horiz-adv-x="325" 
 />
    <glyph glyph-name="dollar.tab" 
d="M308 -2h-13l-22 -111h-34l22 114q-75 11 -114.5 56t-39.5 114q0 17 3 32h34q-3 -15 -3 -32q0 -64 44.5 -102t122.5 -38q80 0 130 43.5t50 113.5q0 54 -30 87.5t-91 62.5l-43 20q-70 33 -104.5 72.5t-34.5 102.5q0 77 56 129.5t149 52.5h10l20 104h34l-21 -108
q69 -12 107.5 -59t38.5 -110q0 -7 -2 -21h-34q2 14 2 21q0 61 -41.5 100.5t-113.5 39.5q-80 0 -125 -42.5t-45 -106.5q0 -50 30 -83t89 -60l43 -20q69 -33 105 -75t36 -107q0 -84 -58.5 -137t-156.5 -53z" />
    <glyph glyph-name="cent.tab" 
d="M342 -12h-11l-19 -96h-34l19 101q-69 16 -108.5 77t-39.5 151q0 121 68.5 203.5t170.5 82.5h10l17 90h34l-18 -94q37 -7 65.5 -25t44 -40.5t23.5 -41.5t10 -35h-32q-12 43 -48 78.5t-106 35.5q-89 0 -146.5 -73.5t-57.5 -180.5q0 -88 43.5 -144.5t114.5 -56.5
q114 0 169 109h34q-4 -13 -11.5 -27.5t-24.5 -36t-38 -37.5t-55 -28t-74 -12z" />
    <glyph glyph-name="Euro.tab" 
d="M585 209q-42 -220 -238 -220q-102 0 -158.5 65t-33.5 189l3 16h-122l6 32h122l26 137h-122l7 32h122l5 28q44 234 234 234q100 0 154 -57.5t50 -157.5h-33q2 80 -40 131t-131 51q-84 0 -133 -55t-66 -146l-5 -28h213l-6 -32h-214l-27 -137h214l-6 -32h-214l-3 -16
q-21 -106 24.5 -163.5t133.5 -57.5q170 0 205 187h33z" />
    <glyph glyph-name="sterling.tab" 
d="M575 32l-6 -32h-573l7 32h120l53 271h-121l6 32h121l34 176q20 100 68 155.5t138 55.5q96 0 145.5 -60.5t29.5 -150.5l-6 -28h-35l6 28q16 77 -21.5 127t-119.5 50q-77 0 -116 -47t-54 -130l-34 -176h257l-6 -32h-257l-53 -271h417z" />
    <glyph glyph-name="yen.tab" 
d="M560 180h-223l-35 -180h-34l35 180h-223l6 32h223l27 137h-223l6 32h222l-199 329h42l178 -298l282 298h45l-313 -329h223l-6 -32h-223l-27 -137h223z" />
    <glyph glyph-name="florin.tab" 
d="M542 369h-209l-204 -583h-37l204 583h-154l6 32h159l50 143q30 90 71.5 128t130.5 38h136l-6 -32h-130q-76 0 -108.5 -31t-58.5 -109l-48 -137h204z" />
    <glyph glyph-name="zero.tab" 
d="M96 249l43 222q47 251 249 251q110 0 172 -71.5t39 -189.5l-43 -222q-47 -251 -249 -251q-110 0 -172 71t-39 190zM307 21q95 0 144.5 57.5t69.5 160.5l43 222q20 102 -28 165t-148 63q-95 0 -144.5 -57.5t-69.5 -160.5l-43 -222q-20 -102 28 -165t148 -63z" />
    <glyph glyph-name="one.tab" 
d="M513 713l-139 -713h-35l129 660l-266 -158l8 39l286 172h17z" />
    <glyph glyph-name="two.tab" 
d="M527 32l-7 -32h-464l4 20l278 234q116 95 161 151.5t45 128.5q0 69 -44 112t-120 43q-78 0 -127 -52.5t-64 -139.5l-4 -24h-35l4 24q17 100 74.5 162.5t151.5 62.5q92 0 145 -54t53 -134q0 -26 -6.5 -50.5t-12.5 -42.5t-26.5 -43.5t-30 -37.5t-43 -42.5t-46 -41
t-56.5 -47.5l-234 -197h404z" />
    <glyph glyph-name="three.tab" 
d="M546 206q0 -89 -66 -153.5t-184 -64.5q-55 0 -98.5 16.5t-69 43.5t-39.5 56.5t-16 59.5h35q3 -54 53 -98.5t135 -44.5q100 0 158 53t58 133q0 71 -46.5 108t-131.5 37h-86l6 32h122q84 0 132 46.5t48 116.5q0 64 -47 103t-121 39t-127 -42t-62 -95h-35q10 64 68.5 117
t155.5 53q94 0 149 -49.5t55 -125.5q0 -77 -47.5 -125.5t-110.5 -57.5q46 -14 79 -53.5t33 -104.5z" />
    <glyph glyph-name="four.tab" 
d="M590 243h-143l-47 -243h-33l47 243h-348l2 14l441 453h29l-85 -436h143zM126 274h294l74 380z" />
    <glyph glyph-name="five.tab" 
d="M150 334l73 376h402l-7 -31h-368l-54 -284q57 65 152 65q97 0 154 -60.5t57 -152.5q0 -105 -66.5 -182t-183.5 -77q-72 0 -123.5 31.5t-73 72.5t-23.5 85h34q3 -55 50.5 -105.5t135.5 -50.5q96 0 155.5 62.5t59.5 164.5q0 81 -47.5 130t-128.5 49q-37 0 -68.5 -10.5
t-52 -27t-32.5 -30t-18 -25.5h-27z" />
    <glyph glyph-name="six.tab" 
d="M562 246q0 -103 -67 -180.5t-189 -77.5q-104 0 -162.5 61t-58.5 156q0 115 106 219l293 286h42l-285 -279q41 29 98 29q100 0 161.5 -58.5t61.5 -155.5zM306 21q108 0 164 67t56 158q0 81 -48.5 131t-138.5 50q-103 0 -161 -67t-58 -155q0 -79 49.5 -131.5t136.5 -52.5z
" />
    <glyph glyph-name="seven.tab" 
d="M649 692l-519 -692h-39l509 679h-417l6 31h464z" />
    <glyph glyph-name="eight.tab" 
d="M552 199q0 -87 -62 -149t-173 -62h-30q-100 0 -156 49.5t-56 132.5q0 82 52.5 137.5t127.5 65.5q-41 16 -68.5 53.5t-27.5 94.5q0 82 58.5 141.5t163.5 59.5h29q93 0 145.5 -46.5t52.5 -127.5q0 -77 -48.5 -128t-116.5 -60q46 -18 77.5 -58t31.5 -103zM356 381h30
q85 0 136 48.5t51 118.5q0 65 -44.5 103t-118.5 38h-29q-87 0 -137 -48t-50 -120q0 -63 45.5 -101.5t116.5 -38.5zM286 21h30q93 0 147 51.5t54 126.5q0 69 -48.5 109t-126.5 40h-30q-93 0 -147.5 -51t-54.5 -127q0 -69 48.5 -109t127.5 -40z" />
    <glyph glyph-name="nine.tab" 
d="M503 286l-293 -286h-42l285 279q-41 -29 -98 -29q-100 0 -161.5 58.5t-61.5 155.5q0 103 67 180.5t189 77.5q104 0 162.5 -61t58.5 -156q0 -115 -106 -219zM388 689q-108 0 -164 -67t-56 -158q0 -81 48.5 -131t138.5 -50q103 0 161 67t58 155q0 79 -49.5 131.5
t-136.5 52.5z" />
    <glyph glyph-name="percent.tab" 
d="M212 414q-62 0 -102 40t-40 100q0 66 47 117t119 51q62 0 102 -40t40 -100q0 -66 -47 -117t-119 -51zM-1 0l656 710h41l-656 -710h-41zM236 690q-60 0 -96 -41t-36 -95q0 -46 30 -77t78 -31q60 0 96 41t36 95q0 46 -30 77t-78 31zM458 -13q-62 0 -102 40t-40 100
q0 66 47 117t119 51q62 0 102 -40t40 -100q0 -66 -47 -117t-119 -51zM482 263q-60 0 -96 -41t-36 -95q0 -46 30 -77t78 -31q60 0 96 41t36 95q0 46 -30 77t-78 31z" />
    <glyph glyph-name="perthousand.tab" horiz-adv-x="975" 
d="M234 722q59 0 98.5 -38.5t39.5 -96.5q0 -64 -46.5 -114.5t-114.5 -50.5q-59 0 -98.5 39t-39.5 97q0 65 46.5 114.5t114.5 49.5zM42 0h-39l623 710h39zM211 455q57 0 92 40.5t35 91.5q0 46 -28.5 74.5t-75.5 28.5q-57 0 -92 -40t-35 -92q0 -46 28.5 -74.5t75.5 -28.5z
M452 286q59 0 98.5 -38.5t39.5 -96.5q0 -64 -46.5 -114.5t-114.5 -50.5q-59 0 -98.5 39t-39.5 97q0 65 46.5 114.5t114.5 49.5zM806 286q59 0 98.5 -38.5t39.5 -96.5q0 -64 -46.5 -114.5t-114.5 -50.5q-59 0 -98.5 39t-39.5 97q0 65 46.5 114.5t114.5 49.5zM429 19
q57 0 92 40.5t35 91.5q0 46 -28.5 74.5t-75.5 28.5q-57 0 -92 -40t-35 -92q0 -46 28.5 -74.5t75.5 -28.5zM783 19q57 0 92 40.5t35 91.5q0 46 -28.5 74.5t-75.5 28.5q-57 0 -92 -40t-35 -92q0 -46 28.5 -74.5t75.5 -28.5z" />
    <glyph glyph-name="plus.tab" 
d="M585 300h-224l-46 -235h-34l46 235h-225l7 32h224l45 233h34l-45 -233h225z" />
    <glyph glyph-name="minus.tab" 
d="M590 300h-493l7 32h493z" />
    <glyph glyph-name="multiply.tab" 
d="M610 393h-493l6 32h493zM571 190h-493l6 32h493z" />
    <glyph glyph-name="divide.tab" 
d="M360 458l26 132h34l-26 -132h-34zM591 300h-493l7 32h493zM277 30l26 132h34l-26 -132h-34z" />
    <glyph glyph-name="equal.tab" 
d="M526 94l-26 -20l-155 197l-230 -197l-22 23l232 200l-156 199l28 20l154 -198l230 198l22 -24l-232 -199z" />
    <glyph glyph-name="less.tab" 
d="M520 108l-7 -33l-386 206l5 29l467 206l-7 -38l-422 -185z" />
    <glyph glyph-name="greater.tab" 
d="M563 281l-466 -206l7 38l422 185l-351 185l7 33l387 -206z" />
    <glyph glyph-name="period.tab" horiz-adv-x="325" 
d="M98 0l26 132h34l-26 -132h-34z" />
    <glyph glyph-name="comma.tab" horiz-adv-x="325" 
d="M131 11q-21 -109 -81 -215h-34q60 100 84 214l24 122h31z" />
    <glyph glyph-name="colon.tab" horiz-adv-x="325" 
d="M98 0l26 132h34l-26 -132h-34zM164 338l26 132h34l-26 -132h-34z" />
    <glyph glyph-name="semicolon.tab" horiz-adv-x="325" 
d="M163 338l26 132h34l-26 -132h-34zM131 11q-21 -109 -81 -215h-34q60 100 84 214l24 122h31z" />
    <glyph glyph-name="a.alt" horiz-adv-x="545" 
d="M445 24l-6 -31q-33 3 -50.5 25.5t-9.5 65.5q-21 -40 -63 -68t-102 -28q-74 0 -120.5 37.5t-46.5 103.5q0 67 46 107t133 40h190l1 3q15 82 -21.5 126.5t-108.5 44.5q-42 0 -75.5 -17.5t-47.5 -34.5t-23 -35h-35q15 44 62 81.5t119 37.5q91 0 136.5 -57t27.5 -146
l-35 -177q-10 -41 -1 -57.5t30 -20.5zM214 20q64 0 115 38t65 102l17 85h-185q-71 0 -107.5 -31t-36.5 -85q0 -52 37.5 -80.5t94.5 -28.5z" />
    <glyph glyph-name="u.alt" horiz-adv-x="575" 
d="M389 0l19 91q-53 -103 -163 -103q-81 0 -128.5 55.5t-30.5 141.5l56 285h34l-56 -286q-15 -73 23.5 -118.5t106.5 -45.5q69 0 115 46t60 118l56 286h34l-92 -470h-34z" />
    <glyph glyph-name="aacute.alt" horiz-adv-x="545" 
d="M445 24l-6 -31q-33 3 -50.5 25.5t-9.5 65.5q-21 -40 -63 -68t-102 -28q-74 0 -120.5 37.5t-46.5 103.5q0 67 46 107t133 40h190l1 3q15 82 -21.5 126.5t-108.5 44.5q-42 0 -75.5 -17.5t-47.5 -34.5t-23 -35h-35q15 44 62 81.5t119 37.5q91 0 136.5 -57t27.5 -146
l-35 -177q-10 -41 -1 -57.5t30 -20.5zM214 20q64 0 115 38t65 102l17 85h-185q-71 0 -107.5 -31t-36.5 -85q0 -52 37.5 -80.5t94.5 -28.5zM292 575l121 163h39l-121 -163h-39z" />
    <glyph glyph-name="abreve.alt" horiz-adv-x="545" 
d="M445 24l-6 -31q-33 3 -50.5 25.5t-9.5 65.5q-21 -40 -63 -68t-102 -28q-74 0 -120.5 37.5t-46.5 103.5q0 67 46 107t133 40h190l1 3q15 82 -21.5 126.5t-108.5 44.5q-42 0 -75.5 -17.5t-47.5 -34.5t-23 -35h-35q15 44 62 81.5t119 37.5q91 0 136.5 -57t27.5 -146
l-35 -177q-10 -41 -1 -57.5t30 -20.5zM214 20q64 0 115 38t65 102l17 85h-185q-71 0 -107.5 -31t-36.5 -85q0 -52 37.5 -80.5t94.5 -28.5zM319 600q41 0 61.5 22t29.5 62l4 18h32l-3 -18q-19 -115 -124 -115q-57 0 -88 34t-19 85l3 14h32l-3 -14q-8 -39 12 -63.5t63 -24.5z
" />
    <glyph glyph-name="acircumflex.alt" horiz-adv-x="545" 
d="M445 24l-6 -31q-33 3 -50.5 25.5t-9.5 65.5q-21 -40 -63 -68t-102 -28q-74 0 -120.5 37.5t-46.5 103.5q0 67 46 107t133 40h190l1 3q15 82 -21.5 126.5t-108.5 44.5q-42 0 -75.5 -17.5t-47.5 -34.5t-23 -35h-35q15 44 62 81.5t119 37.5q91 0 136.5 -57t27.5 -146
l-35 -177q-10 -41 -1 -57.5t30 -20.5zM214 20q64 0 115 38t65 102l17 85h-185q-71 0 -107.5 -31t-36.5 -85q0 -52 37.5 -80.5t94.5 -28.5zM407 572l-69 138l-113 -138h-37l141 173h25l85 -173h-32z" />
    <glyph glyph-name="adieresis.alt" horiz-adv-x="545" 
d="M445 24l-6 -31q-33 3 -50.5 25.5t-9.5 65.5q-21 -40 -63 -68t-102 -28q-74 0 -120.5 37.5t-46.5 103.5q0 67 46 107t133 40h190l1 3q15 82 -21.5 126.5t-108.5 44.5q-42 0 -75.5 -17.5t-47.5 -34.5t-23 -35h-35q15 44 62 81.5t119 37.5q91 0 136.5 -57t27.5 -146
l-35 -177q-10 -41 -1 -57.5t30 -20.5zM214 20q64 0 115 38t65 102l17 85h-185q-71 0 -107.5 -31t-36.5 -85q0 -52 37.5 -80.5t94.5 -28.5zM208 585l28 141h34l-28 -141h-34zM384 585l28 141h34l-28 -141h-34z" />
    <glyph glyph-name="agrave.alt" horiz-adv-x="545" 
d="M445 24l-6 -31q-33 3 -50.5 25.5t-9.5 65.5q-21 -40 -63 -68t-102 -28q-74 0 -120.5 37.5t-46.5 103.5q0 67 46 107t133 40h190l1 3q15 82 -21.5 126.5t-108.5 44.5q-42 0 -75.5 -17.5t-47.5 -34.5t-23 -35h-35q15 44 62 81.5t119 37.5q91 0 136.5 -57t27.5 -146
l-35 -177q-10 -41 -1 -57.5t30 -20.5zM214 20q64 0 115 38t65 102l17 85h-185q-71 0 -107.5 -31t-36.5 -85q0 -52 37.5 -80.5t94.5 -28.5zM325 575h-33l-64 163h35z" />
    <glyph glyph-name="amacron.alt" horiz-adv-x="545" 
d="M445 24l-6 -31q-33 3 -50.5 25.5t-9.5 65.5q-21 -40 -63 -68t-102 -28q-74 0 -120.5 37.5t-46.5 103.5q0 67 46 107t133 40h190l1 3q15 82 -21.5 126.5t-108.5 44.5q-42 0 -75.5 -17.5t-47.5 -34.5t-23 -35h-35q15 44 62 81.5t119 37.5q91 0 136.5 -57t27.5 -146
l-35 -177q-10 -41 -1 -57.5t30 -20.5zM214 20q64 0 115 38t65 102l17 85h-185q-71 0 -107.5 -31t-36.5 -85q0 -52 37.5 -80.5t94.5 -28.5zM448 620h-256l6 31h256z" />
    <glyph glyph-name="aogonek.alt" horiz-adv-x="545" 
d="M432 -182l-7 -32h-62q-45 0 -70 20t-25 55q0 37 32.5 68t108.5 73q-41 21 -30 82q-21 -40 -63 -68t-102 -28q-74 0 -120.5 37.5t-46.5 103.5q0 67 46 107t133 40h190l1 3q15 82 -21.5 126.5t-108.5 44.5q-42 0 -75.5 -17.5t-47.5 -34.5t-23 -35h-35q15 44 62 81.5
t119 37.5q91 0 136.5 -57t27.5 -146l-35 -177q-10 -41 -1 -57.5t30 -20.5l-5 -24q-81 -56 -108 -82.5t-27 -53.5q0 -46 58 -46h69zM214 20q64 0 115 38t65 102l17 85h-185q-71 0 -107.5 -31t-36.5 -85q0 -52 37.5 -80.5t94.5 -28.5z" />
    <glyph glyph-name="aring.alt" horiz-adv-x="545" 
d="M445 24l-6 -31q-33 3 -50.5 25.5t-9.5 65.5q-21 -40 -63 -68t-102 -28q-74 0 -120.5 37.5t-46.5 103.5q0 67 46 107t133 40h190l1 3q15 82 -21.5 126.5t-108.5 44.5q-42 0 -75.5 -17.5t-47.5 -34.5t-23 -35h-35q15 44 62 81.5t119 37.5q91 0 136.5 -57t27.5 -146
l-35 -177q-10 -41 -1 -57.5t30 -20.5zM214 20q64 0 115 38t65 102l17 85h-185q-71 0 -107.5 -31t-36.5 -85q0 -52 37.5 -80.5t94.5 -28.5zM331 563q-48 0 -79.5 32t-31.5 78t31.5 78t79.5 32t79.5 -32t31.5 -78t-31.5 -78t-79.5 -32zM331 594q35 0 56.5 22.5t21.5 56.5
t-21.5 56.5t-56.5 22.5t-56.5 -22.5t-21.5 -56.5t21.5 -56.5t56.5 -22.5z" />
    <glyph glyph-name="aringacute.alt" horiz-adv-x="545" 
d="M445 24l-6 -31q-33 3 -50.5 25.5t-9.5 65.5q-21 -40 -63 -68t-102 -28q-74 0 -120.5 37.5t-46.5 103.5q0 67 46 107t133 40h190l1 3q15 82 -21.5 126.5t-108.5 44.5q-42 0 -75.5 -17.5t-47.5 -34.5t-23 -35h-35q15 44 62 81.5t119 37.5q91 0 136.5 -57t27.5 -146
l-35 -177q-10 -41 -1 -57.5t30 -20.5zM214 20q64 0 115 38t65 102l17 85h-185q-71 0 -107.5 -31t-36.5 -85q0 -52 37.5 -80.5t94.5 -28.5zM328 836l100 130h38l-101 -130h-37zM331 563q-48 0 -79.5 32t-31.5 78t31.5 78t79.5 32t79.5 -32t31.5 -78t-31.5 -78t-79.5 -32z
M331 594q35 0 56.5 22.5t21.5 56.5t-21.5 56.5t-56.5 22.5t-56.5 -22.5t-21.5 -56.5t21.5 -56.5t56.5 -22.5z" />
    <glyph glyph-name="atilde.alt" horiz-adv-x="545" 
d="M445 24l-6 -31q-33 3 -50.5 25.5t-9.5 65.5q-21 -40 -63 -68t-102 -28q-74 0 -120.5 37.5t-46.5 103.5q0 67 46 107t133 40h190l1 3q15 82 -21.5 126.5t-108.5 44.5q-42 0 -75.5 -17.5t-47.5 -34.5t-23 -35h-35q15 44 62 81.5t119 37.5q91 0 136.5 -57t27.5 -146
l-35 -177q-10 -41 -1 -57.5t30 -20.5zM214 20q64 0 115 38t65 102l17 85h-185q-71 0 -107.5 -31t-36.5 -85q0 -52 37.5 -80.5t94.5 -28.5zM213 571h-31l14 72q7 36 21 54.5t41 18.5q30 0 58 -34l40 -51q20 -24 36 -24q21 0 30 41l15 73h31l-14 -72q-7 -36 -21 -54.5
t-41 -18.5q-30 0 -58 34l-41 51q-19 24 -35 24q-21 0 -30 -41z" />
    <glyph glyph-name="uacute.alt" horiz-adv-x="575" 
d="M389 0l19 91q-53 -103 -163 -103q-81 0 -128.5 55.5t-30.5 141.5l56 285h34l-56 -286q-15 -73 23.5 -118.5t106.5 -45.5q69 0 115 46t60 118l56 286h34l-92 -470h-34zM317 575l121 163h39l-121 -163h-39z" />
    <glyph glyph-name="ubreve.alt" horiz-adv-x="575" 
d="M389 0l19 91q-53 -103 -163 -103q-81 0 -128.5 55.5t-30.5 141.5l56 285h34l-56 -286q-15 -73 23.5 -118.5t106.5 -45.5q69 0 115 46t60 118l56 286h34l-92 -470h-34zM344 600q41 0 61.5 22t29.5 62l4 18h32l-3 -18q-19 -115 -124 -115q-57 0 -88 34t-19 85l3 14h32
l-3 -14q-8 -39 12 -63.5t63 -24.5z" />
    <glyph glyph-name="ucircumflex.alt" horiz-adv-x="575" 
d="M389 0l19 91q-53 -103 -163 -103q-81 0 -128.5 55.5t-30.5 141.5l56 285h34l-56 -286q-15 -73 23.5 -118.5t106.5 -45.5q69 0 115 46t60 118l56 286h34l-92 -470h-34zM433 572l-69 138l-113 -138h-37l141 173h25l85 -173h-32z" />
    <glyph glyph-name="udieresis.alt" horiz-adv-x="575" 
d="M389 0l19 91q-53 -103 -163 -103q-81 0 -128.5 55.5t-30.5 141.5l56 285h34l-56 -286q-15 -73 23.5 -118.5t106.5 -45.5q69 0 115 46t60 118l56 286h34l-92 -470h-34zM233 585l28 141h34l-28 -141h-34zM409 585l28 141h34l-28 -141h-34z" />
    <glyph glyph-name="ugrave.alt" horiz-adv-x="575" 
d="M389 0l19 91q-53 -103 -163 -103q-81 0 -128.5 55.5t-30.5 141.5l56 285h34l-56 -286q-15 -73 23.5 -118.5t106.5 -45.5q69 0 115 46t60 118l56 286h34l-92 -470h-34zM350 575h-33l-64 163h35z" />
    <glyph glyph-name="uhungarumlaut.alt" horiz-adv-x="575" 
d="M389 0l19 91q-53 -103 -163 -103q-81 0 -128.5 55.5t-30.5 141.5l56 285h34l-56 -286q-15 -73 23.5 -118.5t106.5 -45.5q69 0 115 46t60 118l56 286h34l-92 -470h-34zM393 575l100 163h35l-100 -163h-35zM231 575l99 163h36l-100 -163h-35z" />
    <glyph glyph-name="umacron.alt" horiz-adv-x="575" 
d="M389 0l19 91q-53 -103 -163 -103q-81 0 -128.5 55.5t-30.5 141.5l56 285h34l-56 -286q-15 -73 23.5 -118.5t106.5 -45.5q69 0 115 46t60 118l56 286h34l-92 -470h-34zM474 620h-256l6 31h256z" />
    <glyph glyph-name="uogonek.alt" horiz-adv-x="575" 
d="M389 0l19 91q-53 -103 -163 -103q-81 0 -128.5 55.5t-30.5 141.5l56 285h34l-56 -286q-15 -73 23.5 -118.5t106.5 -45.5q69 0 115 46t60 118l56 286h34l-92 -470q-81 -56 -108 -82.5t-27 -53.5q0 -46 58 -46h69l-7 -32h-62q-45 0 -70 20t-25 55q0 37 31.5 67.5
t106.5 71.5z" />
    <glyph glyph-name="uring.alt" horiz-adv-x="575" 
d="M389 0l19 91q-53 -103 -163 -103q-81 0 -128.5 55.5t-30.5 141.5l56 285h34l-56 -286q-15 -73 23.5 -118.5t106.5 -45.5q69 0 115 46t60 118l56 286h34l-92 -470h-34zM356 563q-48 0 -79.5 32t-31.5 78t31.5 78t79.5 32t79.5 -32t31.5 -78t-31.5 -78t-79.5 -32zM356 594
q35 0 56.5 22.5t21.5 56.5t-21.5 56.5t-56.5 22.5t-56.5 -22.5t-21.5 -56.5t21.5 -56.5t56.5 -22.5z" />
    <glyph glyph-name="utilde.alt" horiz-adv-x="575" 
d="M389 0l19 91q-53 -103 -163 -103q-81 0 -128.5 55.5t-30.5 141.5l56 285h34l-56 -286q-15 -73 23.5 -118.5t106.5 -45.5q69 0 115 46t60 118l56 286h34l-92 -470h-34zM239 571h-31l14 72q7 36 21 54.5t41 18.5q30 0 58 -34l40 -51q20 -24 36 -24q21 0 30 41l15 73h31
l-14 -72q-7 -36 -21 -54.5t-41 -18.5q-30 0 -58 34l-41 51q-19 24 -35 24q-21 0 -30 -41z" />
    <glyph glyph-name="space_uni0326.alt" horiz-adv-x="600" 
d="M383 637l-10 -52h-32l10 51q20 100 53 158h34q-38 -69 -55 -157z" />
    <glyph glyph-name="four.alt" horiz-adv-x="700" 
d="M654 254h-171l-50 -254h-33l50 254h-335l89 456h34l-82 -424h300l64 329h33l-64 -329h172z" />
    <glyph glyph-name="onequarter.alt" horiz-adv-x="983" 
d="M280 712l-79 -408h-35l71 362l-120 -67l7 36l133 77h23zM173 0h-40l588 710h40zM901 141h-89l-28 -141h-34l27 141h-184l51 265h34l-45 -234h150l35 180h35l-35 -180h89z" />
    <glyph glyph-name="threequarters.alt" horiz-adv-x="1080" 
d="M369 424q0 -53 -38 -90t-108 -37q-63 0 -96 32.5t-36 74.5h35q3 -30 28 -52.5t69 -22.5q52 0 82 27t30 68q0 36 -24.5 55t-67.5 19h-55l7 32h72q43 0 67.5 23.5t24.5 59.5q0 33 -23.5 52.5t-62.5 19.5t-65 -21t-32 -50h-34q4 39 39 71t92 32t89 -28t32 -76
q0 -42 -26.5 -69t-58.5 -31q60 -19 60 -89zM270 0h-40l588 710h40zM998 141h-89l-28 -141h-34l27 141h-184l51 265h34l-45 -234h150l35 180h35l-35 -180h89z" />
    <glyph glyph-name="caron.alt" horiz-adv-x="600" 
d="M319 575l88 173h31l-88 -173h-31z" />
    <glyph glyph-name="questiondown.uc" horiz-adv-x="530" 
d="M208 347l83 41q31 15 43.5 32t18.5 51h33q-9 -46 -23.5 -67t-57.5 -42l-82 -42q-80 -41 -113.5 -79.5t-33.5 -93.5q0 -59 39 -93t105 -34q128 0 166 156l7 29h34l-6 -29q-19 -87 -69.5 -137.5t-131.5 -50.5t-129.5 43.5t-48.5 115.5q0 66 40.5 112t125.5 88zM433 710
l-25 -130h-34l25 130h34z" />
    <glyph glyph-name="exclamdown.uc" horiz-adv-x="274" 
d="M219 465l-91 -465h-33l90 465h34zM266 710l-25 -130h-34l26 130h33z" />
    <glyph glyph-name="hyphen.uc" horiz-adv-x="479" 
d="M105 301l6 32h293l-6 -32h-293z" />
    <glyph glyph-name="endash.uc" horiz-adv-x="677" 
d="M105 301l6 32h491l-6 -32h-491z" />
    <glyph glyph-name="emdash.uc" horiz-adv-x="970" 
d="M105 302l6 31h785l-7 -31h-784z" />
    <glyph glyph-name="quoteleft.uc" horiz-adv-x="249" 
d="M183 521l-22 -114h-31l22 113q19 98 75 190h33q-57 -100 -77 -189z" />
    <glyph glyph-name="quoteright.uc" horiz-adv-x="249" 
d="M223 597q-19 -98 -75 -190h-33q57 100 77 189l22 114h31z" />
    <glyph glyph-name="quotedblleft.uc" horiz-adv-x="409" 
d="M183 521l-22 -114h-31l22 113q19 98 75 190h33q-57 -100 -77 -189zM343 521l-22 -114h-31l22 113q19 98 75 190h33q-57 -100 -77 -189z" />
    <glyph glyph-name="quotedblright.uc" horiz-adv-x="409" 
d="M245 710l-22 -113q-19 -98 -75 -190h-33q57 100 77 189l22 114h31zM405 710l-22 -113q-19 -98 -75 -190h-33q57 100 77 189l22 114h31z" />
    <glyph glyph-name="guilsinglleft.uc" horiz-adv-x="319" 
d="M287 480l-163 -175l96 -171h-34l-98 175l160 171h39z" />
    <glyph glyph-name="guilsinglright.uc" horiz-adv-x="319" 
d="M259 305l-160 -171h-39l163 175l-96 171h34z" />
    <glyph glyph-name="guillemotleft.uc" horiz-adv-x="509" 
d="M280 480l-154 -175l87 -171h-34l-91 175l153 171h39zM477 480l-157 -177l85 -169h-34l-89 173l156 173h39z" />
    <glyph glyph-name="guillemotright.uc" horiz-adv-x="509" 
d="M449 305l-153 -171h-39l154 175l-86 171h34zM255 307l-156 -173h-39l157 177l-85 169h34z" />
    <glyph glyph-name="at.uc" horiz-adv-x="1020" 
d="M857 37h41q-18 -21 -45 -42t-73 -48t-113.5 -44t-144.5 -17q-197 0 -309 114t-112 295q0 216 140.5 362t347.5 146q182 0 284 -101.5t102 -249.5q0 -140 -71.5 -231t-167.5 -91q-52 0 -78.5 26t-21.5 64q-48 -90 -143 -90q-66 0 -107.5 47.5t-41.5 130.5q0 96 55.5 168.5
t144.5 72.5q72 0 109 -46t37 -110l58 151h32l-102 -268q-45 -115 58 -115q82 0 143.5 81.5t61.5 209.5q0 139 -92 229t-260 90q-193 0 -323.5 -135t-130.5 -341q0 -170 104 -273.5t283 -103.5q66 0 124.5 13t100 33.5t66.5 37.5t44 35zM544 517q-75 0 -120 -63.5t-45 -145.5
q0 -67 30.5 -106.5t83.5 -39.5q79 0 126 64.5t47 145.5q0 64 -30.5 104.5t-91.5 40.5z" />
    <glyph glyph-name="grave.uc" horiz-adv-x="600" 
d="M436 788h-36l-75 130h37z" />
    <glyph glyph-name="dieresis.uc" horiz-adv-x="600" 
d="M295 778l27 139h33l-27 -139h-33zM485 778l27 139h33l-27 -139h-33z" />
    <glyph glyph-name="macron.uc" horiz-adv-x="500" 
d="M496 825h-278l6 31h278z" />
    <glyph glyph-name="acute.uc" horiz-adv-x="600" 
d="M350 788l118 130h42l-119 -130h-41z" />
    <glyph glyph-name="circumflex.uc" horiz-adv-x="600" 
d="M518 785l-95 108l-123 -108h-43l154 136h28l116 -136h-37z" />
    <glyph glyph-name="caron.uc" horiz-adv-x="600" 
d="M572 921l-154 -136h-28l-116 136h37l95 -109l123 109h43z" />
    <glyph glyph-name="breve.uc" horiz-adv-x="600" 
d="M413 813q43 0 67.5 26.5t31.5 67.5l1 6h32l-1 -7q-6 -54 -39.5 -89.5t-91.5 -35.5q-62 0 -92.5 35.5t-21.5 90.5l1 6h33l-1 -6q-7 -41 14 -67.5t67 -26.5z" />
    <glyph glyph-name="dotaccent.uc" horiz-adv-x="600" 
d="M377 778l28 141h33l-27 -141h-34z" />
    <glyph glyph-name="ring.uc" horiz-adv-x="600" 
d="M410 784q-48 0 -79.5 32t-31.5 78t31.5 78t79.5 32t79.5 -32t31.5 -78t-31.5 -78t-79.5 -32zM410 815q34 0 56 23t22 56t-21.5 56t-56.5 23t-56.5 -23t-21.5 -56t22 -56t56 -23z" />
    <glyph glyph-name="tilde.uc" horiz-adv-x="600" 
d="M271 844q14 74 62 74q30 0 64 -31l47 -40q26 -23 43 -23q13 0 19.5 10.5t10.5 32.5l12 61h32l-12 -61q-7 -36 -20.5 -55t-41.5 -19q-30 0 -64 31l-47 40q-26 23 -43 23q-13 0 -19.5 -10.5t-10.5 -32.5l-12 -61h-32z" />
    <glyph glyph-name="hungarumlaut.uc" horiz-adv-x="600" 
d="M449 788l95 130h38l-96 -130h-37zM289 788l94 130h39l-97 -130h-36z" />
    <glyph glyph-name="A.sc" horiz-adv-x="576" 
d="M452 0l-39 164h-273l-98 -164h-36l320 535h31l127 -535h-32zM159 196h246l-70 294z" />
    <glyph glyph-name="B.sc" horiz-adv-x="609" 
d="M75 0l103 532h216q71 0 108.5 -32.5t37.5 -89.5q0 -53 -32.5 -92t-89.5 -45q40 -12 62 -41.5t22 -70.5q0 -69 -45.5 -115t-140.5 -46h-241zM393 500h-188l-41 -209h209q65 0 98.5 33t33.5 84q0 43 -29 67.5t-83 24.5zM342 259h-184l-44 -227h202q75 0 113 35t38 94
q0 98 -125 98z" />
    <glyph glyph-name="C.sc" horiz-adv-x="589" 
d="M289 -9q-91 0 -145.5 65.5t-54.5 174.5q0 131 74.5 220.5t180.5 89.5q45 0 81.5 -15.5t58 -40t33.5 -48t15 -45.5h-33q-11 42 -49.5 79t-105.5 37q-93 0 -156.5 -81t-63.5 -196q0 -92 44.5 -149.5t120.5 -57.5q71 0 115 35.5t67 78.5h34q-18 -52 -73.5 -99.5
t-142.5 -47.5z" />
    <glyph glyph-name="D.sc" horiz-adv-x="624" 
d="M75 0l103 532h124q115 0 179.5 -64.5t64.5 -172.5q0 -130 -77.5 -212.5t-207.5 -82.5h-186zM302 500h-96l-92 -468h147q113 0 181.5 74t68.5 189q0 95 -55 150t-154 55z" />
    <glyph glyph-name="E.sc" horiz-adv-x="576" 
d="M75 0l103 532h360l-7 -32h-325l-40 -201h201l-7 -32h-200l-46 -235h354l-6 -32h-387z" />
    <glyph glyph-name="F.sc" horiz-adv-x="557" 
d="M75 0l103 532h380l-6 -32h-346l-39 -200h208l-7 -32h-208l-52 -268h-33z" />
    <glyph glyph-name="G.sc" horiz-adv-x="631" 
d="M494 49q-70 -58 -185 -58q-101 0 -160.5 66t-59.5 178q0 130 76.5 218t185.5 88q79 0 126.5 -38t60.5 -82h-33q-47 87 -154 87q-96 0 -161.5 -79.5t-65.5 -193.5q0 -98 50 -154.5t135 -56.5q92 0 156 42l35 185h-191l6 31h224z" />
    <glyph glyph-name="H.sc" horiz-adv-x="655" 
d="M452 0l49 253h-344l-49 -253h-33l103 532h34l-48 -247h343l48 247h34l-103 -532h-34z" />
    <glyph glyph-name="I.sc" horiz-adv-x="279" 
d="M76 0l103 532h34l-104 -532h-33z" />
    <glyph glyph-name="J.sc" horiz-adv-x="525" 
d="M388 153q-31 -161 -164 -161q-72 0 -112 45t-25 126l27 140h34l-28 -140q-14 -64 16.5 -101t87.5 -37q105 0 130 128l74 379h34z" />
    <glyph glyph-name="K.sc" horiz-adv-x="574" 
d="M453 0l-295 255l-50 -255h-34l104 532h34l-49 -252l371 252h52l-392 -266l303 -266h-44z" />
    <glyph glyph-name="L.sc" horiz-adv-x="551" 
d="M453 32l-6 -32h-372l103 532h34l-98 -500h339z" />
    <glyph glyph-name="M.sc" horiz-adv-x="762" 
d="M230 532l112 -482l299 482h56l-103 -532h-33l97 499l-314 -502h-21l-119 503l-98 -500h-31l103 532h52z" />
    <glyph glyph-name="N.sc" horiz-adv-x="660" 
d="M595 532l-104 -536h-24l-263 494l-96 -490h-33l103 532h40l252 -475l92 475h33z" />
    <glyph glyph-name="O.sc" horiz-adv-x="634" 
d="M347 541q98 0 152.5 -68.5t54.5 -173.5q0 -124 -72.5 -216t-185.5 -92q-98 0 -152.5 68.5t-54.5 173.5q0 124 73.5 216t184.5 92zM297 24q99 0 160.5 84t61.5 190q0 90 -44.5 150t-127.5 60q-67 0 -119 -41.5t-78 -103.5t-26 -129q0 -90 44.5 -150t128.5 -60z" />
    <glyph glyph-name="P.sc" horiz-adv-x="580" 
d="M75 0l103 532h210q71 0 110 -34t39 -93q0 -67 -43.5 -111.5t-126.5 -44.5h-210l-49 -249h-33zM387 500h-181l-43 -219h204q68 0 101.5 35t33.5 89q0 46 -29.5 70.5t-85.5 24.5z" />
    <glyph glyph-name="Q.sc" horiz-adv-x="634" 
d="M554 299q0 -107 -55 -192.5t-145 -108.5l103 -112h-44l-100 106q-5 -1 -17 -1q-98 0 -152.5 68.5t-54.5 173.5q0 124 73.5 216t184.5 92q98 0 152.5 -68.5t54.5 -173.5zM297 24q99 0 160.5 84t61.5 190q0 90 -44.5 150t-127.5 60q-67 0 -119 -41.5t-78 -103.5t-26 -129
q0 -90 44.5 -150t128.5 -60z" />
    <glyph glyph-name="R.sc" horiz-adv-x="600" 
d="M74 0l104 532h209q72 0 111 -34.5t39 -93.5q0 -60 -40 -102.5t-121 -44.5l109 -257h-35l-109 257h-182l-50 -257h-35zM387 500h-181l-41 -211h202q68 0 101.5 33t33.5 82q0 45 -29.5 70.5t-85.5 25.5z" />
    <glyph glyph-name="S.sc" horiz-adv-x="564" 
d="M305 508q-68 0 -112 -29t-44 -80q0 -43 28.5 -64.5t90.5 -34.5q8 -2 14 -3t15 -3t16 -3q78 -16 115 -49t37 -96q0 -69 -57 -112.5t-145 -43.5q-96 0 -151 46.5t-66 97.5h35q12 -39 56.5 -75t126.5 -36q71 0 119 33.5t48 89.5q0 46 -28 72t-96 40l-45 9
q-70 13 -108.5 43.5t-38.5 88.5q0 65 54 103.5t136 38.5q87 0 138 -39.5t61 -86.5h-33q-16 36 -56.5 64.5t-109.5 28.5z" />
    <glyph glyph-name="T.sc" horiz-adv-x="586" 
d="M104 500l7 32h477l-6 -32h-221l-98 -500h-34l98 500h-223z" />
    <glyph glyph-name="U.sc" horiz-adv-x="647" 
d="M585 532l-64 -332q-17 -96 -71 -154t-150 -58q-103 0 -154.5 61t-33.5 158l63 325h34l-63 -325q-16 -87 27 -136.5t128 -49.5q151 0 186 180l64 331h34z" />
    <glyph glyph-name="V.sc" horiz-adv-x="568" 
d="M562 532l-316 -534h-32l-119 534h35l108 -488l288 488h36z" />
    <glyph glyph-name="W.sc" horiz-adv-x="805" 
d="M506 -3l-67 475l-238 -475h-26l-69 535h34l59 -474l238 477h26l65 -477l228 474h34l-258 -535h-26z" />
    <glyph glyph-name="X.sc" horiz-adv-x="609" 
d="M473 0l-169 254l-255 -254h-45l282 281l-167 251h41l150 -227l229 227h45l-256 -254l184 -278h-39z" />
    <glyph glyph-name="Y.sc" horiz-adv-x="549" 
d="M293 234l-46 -234h-33l45 233l-169 299h38l151 -268l245 268h42z" />
    <glyph glyph-name="Z.sc" horiz-adv-x="563" 
d="M466 32l-6 -32h-441l4 20l451 480h-350l7 32h401l-4 -21l-452 -479h390z" />
    <glyph glyph-name="Oslash.sc" horiz-adv-x="613" 
d="M544 299q0 -125 -72.5 -216.5t-185.5 -91.5q-91 0 -146 61l-47 -52h-39l67 76q-43 65 -43 157q0 124 73.5 216t184.5 92q91 0 146 -61l46 52h40l-68 -76q44 -65 44 -157zM113 234q0 -82 32 -132l314 352q-43 54 -123 54q-67 0 -119 -41.5t-78 -103.5t-26 -129zM508 298
q0 78 -31 131l-315 -352q47 -53 124 -53q99 0 160.5 84t61.5 190z" />
    <glyph glyph-name="AE.sc" horiz-adv-x="819" 
d="M711 32l-6 -32h-348l30 153h-233l-132 -153h-40l459 532h341l-6 -32h-288l-39 -201h180l-6 -32h-180l-46 -235h314zM182 185h211l61 316z" />
    <glyph glyph-name="OE.sc" horiz-adv-x="836" 
d="M86 236q0 128 80.5 212t210.5 84h421l-6 -32h-287l-40 -201h180l-7 -32h-179l-46 -235h315l-7 -32h-385q-118 0 -184 64t-66 172zM336 32h43l91 468h-93q-115 0 -185.5 -74.5t-70.5 -188.5q0 -94 57.5 -149.5t157.5 -55.5z" />
    <glyph glyph-name="Eth.sc" horiz-adv-x="625" 
d="M50 285h81l48 247h124q115 0 179.5 -64.5t64.5 -172.5q0 -130 -77.5 -212.5t-207.5 -82.5h-186l49 253h-81zM333 253h-175l-43 -221h147q113 0 181.5 74t68.5 189q0 95 -55 150t-154 55h-96l-42 -215h174z" />
    <glyph glyph-name="Dcroat.sc" horiz-adv-x="625" 
d="M50 285h81l48 247h124q115 0 179.5 -64.5t64.5 -172.5q0 -130 -77.5 -212.5t-207.5 -82.5h-186l49 253h-81zM333 253h-175l-43 -221h147q113 0 181.5 74t68.5 189q0 95 -55 150t-154 55h-96l-42 -215h174z" />
    <glyph glyph-name="Eng.sc" horiz-adv-x="661" 
d="M484 -38q-12 -60 -43.5 -91t-91.5 -31h-66l6 31h58q50 0 76.5 29.5t26.5 72.5q0 28 -38 106l-208 408l-96 -487h-33l103 532h40l223 -438q20 -38 25 -55l96 493h33z" />
    <glyph glyph-name="IJ.sc" horiz-adv-x="804" 
d="M76 0l103 532h34l-104 -532h-33zM667 153q-31 -161 -164 -161q-72 0 -112 45t-25 126l27 140h34l-28 -140q-14 -64 16.5 -101t87.5 -37q105 0 130 128l74 379h34z" />
    <glyph glyph-name="dotlessj.sc" horiz-adv-x="525" 
d="M388 153q-31 -161 -164 -161q-72 0 -112 45t-25 126l27 140h34l-28 -140q-14 -64 16.5 -101t87.5 -37q105 0 130 128l74 379h34z" />
    <glyph glyph-name="Aacute.sc" horiz-adv-x="576" 
d="M452 0l-39 164h-273l-98 -164h-36l320 535h31l127 -535h-32zM159 196h246l-70 294zM325 610l118 130h42l-119 -130h-41z" />
    <glyph glyph-name="Abreve.sc" horiz-adv-x="576" 
d="M452 0l-39 164h-273l-98 -164h-36l320 535h31l127 -535h-32zM159 196h246l-70 294zM359 635q43 0 67.5 26.5t31.5 67.5l1 6h32l-1 -7q-6 -54 -39.5 -89.5t-91.5 -35.5q-62 0 -92.5 35.5t-21.5 90.5l1 6h33l-1 -6q-7 -41 14 -67.5t67 -26.5z" />
    <glyph glyph-name="Acircumflex.sc" horiz-adv-x="576" 
d="M452 0l-39 164h-273l-98 -164h-36l320 535h31l127 -535h-32zM159 196h246l-70 294zM460 607l-95 108l-123 -108h-43l154 136h28l116 -136h-37z" />
    <glyph glyph-name="Adieresis.sc" horiz-adv-x="576" 
d="M452 0l-39 164h-273l-98 -164h-36l320 535h31l127 -535h-32zM159 196h246l-70 294zM232 600l27 139h33l-27 -139h-33zM422 600l27 139h33l-27 -139h-33z" />
    <glyph glyph-name="Agrave.sc" horiz-adv-x="576" 
d="M452 0l-39 164h-273l-98 -164h-36l320 535h31l127 -535h-32zM159 196h246l-70 294zM361 610h-36l-75 130h37z" />
    <glyph glyph-name="Amacron.sc" horiz-adv-x="576" 
d="M452 0l-39 164h-273l-98 -164h-36l320 535h31l127 -535h-32zM159 196h246l-70 294zM492 647h-278l6 31h278z" />
    <glyph glyph-name="Aogonek.sc" horiz-adv-x="576" 
d="M452 0l-39 164h-273l-98 -164h-36l320 535h31l127 -535q-81 -56 -108 -82.5t-27 -53.5q0 -46 58 -46h69l-7 -32h-62q-45 0 -70 20t-25 55q0 37 31.5 67.5t108.5 71.5zM159 196h246l-70 294z" />
    <glyph glyph-name="Aring.sc" horiz-adv-x="576" 
d="M452 0l-39 164h-273l-98 -164h-36l320 535h31l127 -535h-32zM159 196h246l-70 294zM366 606q-48 0 -79.5 32t-31.5 78t31.5 78t79.5 32t79.5 -32t31.5 -78t-31.5 -78t-79.5 -32zM366 637q34 0 56 23t22 56t-21.5 56t-56.5 23t-56.5 -23t-21.5 -56t22 -56t56 -23z" />
    <glyph glyph-name="Atilde.sc" horiz-adv-x="570" 
d="M452 0l-39 164h-273l-98 -164h-36l320 535h31l127 -535h-32zM159 196h246l-70 294zM210 666q14 74 62 74q30 0 64 -31l47 -40q26 -23 43 -23q13 0 19.5 10.5t10.5 32.5l12 61h32l-12 -61q-7 -36 -20.5 -55t-41.5 -19q-30 0 -64 31l-47 40q-26 23 -43 23
q-13 0 -19.5 -10.5t-10.5 -32.5l-12 -61h-32z" />
    <glyph glyph-name="AEacute.sc" horiz-adv-x="819" 
d="M711 32l-6 -32h-348l30 153h-233l-132 -153h-40l459 532h341l-6 -32h-288l-39 -201h180l-6 -32h-180l-46 -235h314zM182 185h211l61 316zM584 610l118 130h42l-119 -130h-41z" />
    <glyph glyph-name="Cacute.sc" horiz-adv-x="589" 
d="M289 -9q-91 0 -145.5 65.5t-54.5 174.5q0 131 74.5 220.5t180.5 89.5q45 0 81.5 -15.5t58 -40t33.5 -48t15 -45.5h-33q-11 42 -49.5 79t-105.5 37q-93 0 -156.5 -81t-63.5 -196q0 -92 44.5 -149.5t120.5 -57.5q71 0 115 35.5t67 78.5h34q-18 -52 -73.5 -99.5
t-142.5 -47.5zM322 610l118 130h42l-119 -130h-41z" />
    <glyph glyph-name="Ccaron.sc" horiz-adv-x="589" 
d="M289 -9q-91 0 -145.5 65.5t-54.5 174.5q0 131 74.5 220.5t180.5 89.5q45 0 81.5 -15.5t58 -40t33.5 -48t15 -45.5h-33q-11 42 -49.5 79t-105.5 37q-93 0 -156.5 -81t-63.5 -196q0 -92 44.5 -149.5t120.5 -57.5q71 0 115 35.5t67 78.5h34q-18 -52 -73.5 -99.5
t-142.5 -47.5zM522 743l-154 -136h-28l-116 136h37l95 -109l123 109h43z" />
    <glyph glyph-name="Ccedilla.sc" horiz-adv-x="589" 
d="M289 -9q-21 0 -46 5l-14 -73h4q48 0 72 -22t24 -61q0 -40 -26.5 -67t-82.5 -27h-89l7 32h82q74 0 74 62q0 51 -63 51h-42l23 114q-4 2 -5 3q-56 26 -87 84t-31 139q0 131 74.5 220.5t180.5 89.5q45 0 81.5 -15.5t58 -40t33.5 -48t15 -45.5h-33q-11 42 -49.5 79t-105.5 37
q-93 0 -156.5 -81t-63.5 -196q0 -92 44.5 -149.5t120.5 -57.5q71 0 115 35.5t67 78.5h34q-18 -52 -73.5 -99.5t-142.5 -47.5z" />
    <glyph glyph-name="Ccircumflex.sc" horiz-adv-x="589" 
d="M289 -9q-91 0 -145.5 65.5t-54.5 174.5q0 131 74.5 220.5t180.5 89.5q45 0 81.5 -15.5t58 -40t33.5 -48t15 -45.5h-33q-11 42 -49.5 79t-105.5 37q-93 0 -156.5 -81t-63.5 -196q0 -92 44.5 -149.5t120.5 -57.5q71 0 115 35.5t67 78.5h34q-18 -52 -73.5 -99.5
t-142.5 -47.5zM476 607l-95 108l-123 -108h-43l154 136h28l116 -136h-37z" />
    <glyph glyph-name="Cdotaccent.sc" horiz-adv-x="589" 
d="M289 -9q-91 0 -145.5 65.5t-54.5 174.5q0 131 74.5 220.5t180.5 89.5q45 0 81.5 -15.5t58 -40t33.5 -48t15 -45.5h-33q-11 42 -49.5 79t-105.5 37q-93 0 -156.5 -81t-63.5 -196q0 -92 44.5 -149.5t120.5 -57.5q71 0 115 35.5t67 78.5h34q-18 -52 -73.5 -99.5
t-142.5 -47.5zM341 600l28 141h33l-27 -141h-34z" />
    <glyph glyph-name="Dcaron.sc" horiz-adv-x="624" 
d="M75 0l103 532h124q115 0 179.5 -64.5t64.5 -172.5q0 -130 -77.5 -212.5t-207.5 -82.5h-186zM302 500h-96l-92 -468h147q113 0 181.5 74t68.5 189q0 95 -55 150t-154 55zM523 743l-154 -136h-28l-116 136h37l95 -109l123 109h43z" />
    <glyph glyph-name="Eacute.sc" horiz-adv-x="576" 
d="M75 0l103 532h360l-7 -32h-325l-40 -201h201l-7 -32h-200l-46 -235h354l-6 -32h-387zM334 610l118 130h42l-119 -130h-41z" />
    <glyph glyph-name="Ebreve.sc" horiz-adv-x="576" 
d="M75 0l103 532h360l-7 -32h-325l-40 -201h201l-7 -32h-200l-46 -235h354l-6 -32h-387zM386 635q43 0 67.5 26.5t31.5 67.5l1 6h32l-1 -7q-6 -54 -39.5 -89.5t-91.5 -35.5q-62 0 -92.5 35.5t-21.5 90.5l1 6h33l-1 -6q-7 -41 14 -67.5t67 -26.5z" />
    <glyph glyph-name="Ecaron.sc" horiz-adv-x="576" 
d="M75 0l103 532h360l-7 -32h-325l-40 -201h201l-7 -32h-200l-46 -235h354l-6 -32h-387zM534 743l-154 -136h-28l-116 136h37l95 -109l123 109h43z" />
    <glyph glyph-name="Ecircumflex.sc" horiz-adv-x="576" 
d="M75 0l103 532h360l-7 -32h-325l-40 -201h201l-7 -32h-200l-46 -235h354l-6 -32h-387zM479 607l-95 108l-123 -108h-43l154 136h28l116 -136h-37z" />
    <glyph glyph-name="Edieresis.sc" horiz-adv-x="576" 
d="M75 0l103 532h360l-7 -32h-325l-40 -201h201l-7 -32h-200l-46 -235h354l-6 -32h-387zM259 600l27 139h33l-27 -139h-33zM449 600l27 139h33l-27 -139h-33z" />
    <glyph glyph-name="Edotaccent.sc" horiz-adv-x="576" 
d="M75 0l103 532h360l-7 -32h-325l-40 -201h201l-7 -32h-200l-46 -235h354l-6 -32h-387zM355 600l28 141h33l-27 -141h-34z" />
    <glyph glyph-name="Egrave.sc" horiz-adv-x="576" 
d="M75 0l103 532h360l-7 -32h-325l-40 -201h201l-7 -32h-200l-46 -235h354l-6 -32h-387zM389 610h-36l-75 130h37z" />
    <glyph glyph-name="Emacron.sc" horiz-adv-x="576" 
d="M75 0l103 532h360l-7 -32h-325l-40 -201h201l-7 -32h-200l-46 -235h354l-6 -32h-387zM508 647h-278l6 31h278z" />
    <glyph glyph-name="Eogonek.sc" horiz-adv-x="576" 
d="M75 0l103 532h360l-7 -32h-325l-40 -201h201l-7 -32h-200l-46 -235h354l-6 -32h-387zM203 -139q0 37 31.5 67.5t106.5 71.5h34q-81 -56 -108 -82.5t-27 -53.5q0 -46 58 -46h69l-7 -32h-62q-45 0 -70 20t-25 55z" />
    <glyph glyph-name="Gbreve.sc" horiz-adv-x="631" 
d="M494 49q-70 -58 -185 -58q-101 0 -160.5 66t-59.5 178q0 130 76.5 218t185.5 88q79 0 126.5 -38t60.5 -82h-33q-47 87 -154 87q-96 0 -161.5 -79.5t-65.5 -193.5q0 -98 50 -154.5t135 -56.5q92 0 156 42l35 185h-191l6 31h224zM355 635q43 0 67.5 26.5t31.5 67.5l1 6h32
l-1 -7q-6 -54 -39.5 -89.5t-91.5 -35.5q-62 0 -92.5 35.5t-21.5 90.5l1 6h33l-1 -6q-7 -41 14 -67.5t67 -26.5z" />
    <glyph glyph-name="Gcircumflex.sc" horiz-adv-x="631" 
d="M494 49q-70 -58 -185 -58q-101 0 -160.5 66t-59.5 178q0 130 76.5 218t185.5 88q79 0 126.5 -38t60.5 -82h-33q-47 87 -154 87q-96 0 -161.5 -79.5t-65.5 -193.5q0 -98 50 -154.5t135 -56.5q92 0 156 42l35 185h-191l6 31h224zM483 607l-95 108l-123 -108h-43l154 136h28
l116 -136h-37z" />
    <glyph glyph-name="Gcommaaccent.sc" horiz-adv-x="631" 
d="M494 49q-70 -58 -185 -58q-101 0 -160.5 66t-59.5 178q0 130 76.5 218t185.5 88q79 0 126.5 -38t60.5 -82h-33q-47 87 -154 87q-96 0 -161.5 -79.5t-65.5 -193.5q0 -98 50 -154.5t135 -56.5q92 0 156 42l35 185h-191l6 31h224zM292 -156q-20 -100 -53 -158h-34
q38 69 55 157l10 52h32z" />
    <glyph glyph-name="Gdotaccent.sc" horiz-adv-x="631" 
d="M494 49q-70 -58 -185 -58q-101 0 -160.5 66t-59.5 178q0 130 76.5 218t185.5 88q79 0 126.5 -38t60.5 -82h-33q-47 87 -154 87q-96 0 -161.5 -79.5t-65.5 -193.5q0 -98 50 -154.5t135 -56.5q92 0 156 42l35 185h-191l6 31h224zM340 600l28 141h33l-27 -141h-34z" />
    <glyph glyph-name="Hbar.sc" horiz-adv-x="655" 
d="M452 0l49 253h-344l-49 -253h-33l76 392h-73l7 32h72l21 108h34l-21 -108h343l21 108h34l-21 -108h72l-7 -32h-71l-76 -392h-34zM164 285h343l21 107h-343z" />
    <glyph glyph-name="Hcircumflex.sc" horiz-adv-x="655" 
d="M452 0l49 253h-344l-49 -253h-33l103 532h34l-48 -247h343l48 247h34l-103 -532h-34zM501 607l-95 108l-123 -108h-43l154 136h28l116 -136h-37z" />
    <glyph glyph-name="Iacute.sc" horiz-adv-x="279" 
d="M76 0l103 532h34l-104 -532h-33zM189 610l118 130h42l-119 -130h-41z" />
    <glyph glyph-name="Ibreve.sc" horiz-adv-x="279" 
d="M76 0l103 532h34l-104 -532h-33zM224 635q43 0 67.5 26.5t31.5 67.5l1 6h32l-1 -7q-6 -54 -39.5 -89.5t-91.5 -35.5q-62 0 -92.5 35.5t-21.5 90.5l1 6h33l-1 -6q-7 -41 14 -67.5t67 -26.5z" />
    <glyph glyph-name="Icircumflex.sc" horiz-adv-x="279" 
d="M76 0l103 532h34l-104 -532h-33zM323 607l-95 108l-123 -108h-43l154 136h28l116 -136h-37z" />
    <glyph glyph-name="Idieresis.sc" horiz-adv-x="279" 
d="M76 0l103 532h34l-104 -532h-33zM97 600l27 139h33l-27 -139h-33zM287 600l27 139h33l-27 -139h-33z" />
    <glyph glyph-name="Idotaccent.sc" horiz-adv-x="279" 
d="M76 0l103 532h34l-104 -532h-33zM193 600l28 141h33l-27 -141h-34z" />
    <glyph glyph-name="Igrave.sc" horiz-adv-x="279" 
d="M76 0l103 532h34l-104 -532h-33zM227 610h-36l-75 130h37z" />
    <glyph glyph-name="Imacron.sc" horiz-adv-x="279" 
d="M76 0l103 532h34l-104 -532h-33zM357 647h-278l6 31h278z" />
    <glyph glyph-name="Iogonek.sc" horiz-adv-x="279" 
d="M76 0l103 532h34l-104 -532q-81 -56 -108 -82.5t-27 -53.5q0 -46 58 -46h69l-7 -32h-62q-45 0 -70 20t-25 55q0 37 32 67.5t107 71.5z" />
    <glyph glyph-name="Itilde.sc" horiz-adv-x="279" 
d="M76 0l103 532h34l-104 -532h-33zM85 666q14 74 62 74q30 0 64 -31l47 -40q26 -23 43 -23q13 0 19.5 10.5t10.5 32.5l12 61h32l-12 -61q-7 -36 -20.5 -55t-41.5 -19q-30 0 -64 31l-47 40q-26 23 -43 23q-13 0 -19.5 -10.5t-10.5 -32.5l-12 -61h-32z" />
    <glyph glyph-name="Jcircumflex.sc" horiz-adv-x="525" 
d="M388 153q-31 -161 -164 -161q-72 0 -112 45t-25 126l27 140h34l-28 -140q-14 -64 16.5 -101t87.5 -37q105 0 130 128l74 379h34zM570 607l-95 108l-123 -108h-43l154 136h28l116 -136h-37z" />
    <glyph glyph-name="Kcommaaccent.sc" horiz-adv-x="574" 
d="M453 0l-295 255l-50 -255h-34l104 532h34l-49 -252l371 252h52l-392 -266l303 -266h-44zM265 -156q-20 -100 -53 -158h-34q38 69 55 157l10 52h32z" />
    <glyph glyph-name="Lacute.sc" horiz-adv-x="551" 
d="M453 32l-6 -32h-372l103 532h34l-98 -500h339zM192 610l118 130h42l-119 -130h-41z" />
    <glyph glyph-name="Lcaron.sc" horiz-adv-x="551" 
d="M453 32l-6 -32h-372l103 532h34l-98 -500h339zM272 397l88 173h31l-88 -173h-31z" />
    <glyph glyph-name="Lcommaaccent.sc" horiz-adv-x="551" 
d="M453 32l-6 -32h-372l103 532h34l-98 -500h339zM263 -156q-20 -100 -53 -158h-34q38 69 55 157l10 52h32z" />
    <glyph glyph-name="Ldot.sc" horiz-adv-x="551" 
d="M453 32l-6 -32h-372l103 532h34l-98 -500h339zM397 241l26 132h34l-26 -132h-34z" />
    <glyph glyph-name="Lslash.sc" horiz-adv-x="551" 
d="M453 32l-6 -32h-372l37 190l-90 -48l7 36l90 49l59 305h34l-56 -285l232 126l-7 -37l-232 -126l-35 -178h339z" />
    <glyph glyph-name="Nacute.sc" horiz-adv-x="660" 
d="M595 532l-104 -536h-24l-263 494l-96 -490h-33l103 532h40l252 -475l92 475h33zM366 610l118 130h42l-119 -130h-41z" />
    <glyph glyph-name="Ncaron.sc" horiz-adv-x="660" 
d="M595 532l-104 -536h-24l-263 494l-96 -490h-33l103 532h40l252 -475l92 475h33zM566 743l-154 -136h-28l-116 136h37l95 -109l123 109h43z" />
    <glyph glyph-name="Ncommaaccent.sc" horiz-adv-x="660" 
d="M595 532l-104 -536h-24l-263 494l-96 -490h-33l103 532h40l252 -475l92 475h33zM271 -156q-20 -100 -53 -158h-34q38 69 55 157l10 52h32z" />
    <glyph glyph-name="Ntilde.sc" horiz-adv-x="660" 
d="M595 532l-104 -536h-24l-263 494l-96 -490h-33l103 532h40l252 -475l92 475h33zM268 666q14 74 62 74q30 0 64 -31l47 -40q26 -23 43 -23q13 0 19.5 10.5t10.5 32.5l12 61h32l-12 -61q-7 -36 -20.5 -55t-41.5 -19q-30 0 -64 31l-47 40q-26 23 -43 23q-13 0 -19.5 -10.5
t-10.5 -32.5l-12 -61h-32z" />
    <glyph glyph-name="Oacute.sc" horiz-adv-x="634" 
d="M347 541q98 0 152.5 -68.5t54.5 -173.5q0 -124 -72.5 -216t-185.5 -92q-98 0 -152.5 68.5t-54.5 173.5q0 124 73.5 216t184.5 92zM297 24q99 0 160.5 84t61.5 190q0 90 -44.5 150t-127.5 60q-67 0 -119 -41.5t-78 -103.5t-26 -129q0 -90 44.5 -150t128.5 -60zM330 610
l118 130h42l-119 -130h-41z" />
    <glyph glyph-name="Obreve.sc" horiz-adv-x="634" 
d="M347 541q98 0 152.5 -68.5t54.5 -173.5q0 -124 -72.5 -216t-185.5 -92q-98 0 -152.5 68.5t-54.5 173.5q0 124 73.5 216t184.5 92zM297 24q99 0 160.5 84t61.5 190q0 90 -44.5 150t-127.5 60q-67 0 -119 -41.5t-78 -103.5t-26 -129q0 -90 44.5 -150t128.5 -60zM383 635
q43 0 67.5 26.5t31.5 67.5l1 6h32l-1 -7q-6 -54 -39.5 -89.5t-91.5 -35.5q-62 0 -92.5 35.5t-21.5 90.5l1 6h33l-1 -6q-7 -41 14 -67.5t67 -26.5z" />
    <glyph glyph-name="Ocircumflex.sc" horiz-adv-x="634" 
d="M347 541q98 0 152.5 -68.5t54.5 -173.5q0 -124 -72.5 -216t-185.5 -92q-98 0 -152.5 68.5t-54.5 173.5q0 124 73.5 216t184.5 92zM297 24q99 0 160.5 84t61.5 190q0 90 -44.5 150t-127.5 60q-67 0 -119 -41.5t-78 -103.5t-26 -129q0 -90 44.5 -150t128.5 -60zM475 607
l-95 108l-123 -108h-43l154 136h28l116 -136h-37z" />
    <glyph glyph-name="Odieresis.sc" horiz-adv-x="634" 
d="M347 541q98 0 152.5 -68.5t54.5 -173.5q0 -124 -72.5 -216t-185.5 -92q-98 0 -152.5 68.5t-54.5 173.5q0 124 73.5 216t184.5 92zM297 24q99 0 160.5 84t61.5 190q0 90 -44.5 150t-127.5 60q-67 0 -119 -41.5t-78 -103.5t-26 -129q0 -90 44.5 -150t128.5 -60zM242 600
l27 139h33l-27 -139h-33zM432 600l27 139h33l-27 -139h-33z" />
    <glyph glyph-name="Ograve.sc" horiz-adv-x="634" 
d="M347 541q98 0 152.5 -68.5t54.5 -173.5q0 -124 -72.5 -216t-185.5 -92q-98 0 -152.5 68.5t-54.5 173.5q0 124 73.5 216t184.5 92zM297 24q99 0 160.5 84t61.5 190q0 90 -44.5 150t-127.5 60q-67 0 -119 -41.5t-78 -103.5t-26 -129q0 -90 44.5 -150t128.5 -60zM386 610
h-36l-75 130h37z" />
    <glyph glyph-name="Ohungarumlaut.sc" horiz-adv-x="634" 
d="M347 541q98 0 152.5 -68.5t54.5 -173.5q0 -124 -72.5 -216t-185.5 -92q-98 0 -152.5 68.5t-54.5 173.5q0 124 73.5 216t184.5 92zM297 24q99 0 160.5 84t61.5 190q0 90 -44.5 150t-127.5 60q-67 0 -119 -41.5t-78 -103.5t-26 -129q0 -90 44.5 -150t128.5 -60zM427 610
l95 130h38l-96 -130h-37zM267 610l94 130h39l-97 -130h-36z" />
    <glyph glyph-name="Omacron.sc" horiz-adv-x="634" 
d="M347 541q98 0 152.5 -68.5t54.5 -173.5q0 -124 -72.5 -216t-185.5 -92q-98 0 -152.5 68.5t-54.5 173.5q0 124 73.5 216t184.5 92zM297 24q99 0 160.5 84t61.5 190q0 90 -44.5 150t-127.5 60q-67 0 -119 -41.5t-78 -103.5t-26 -129q0 -90 44.5 -150t128.5 -60zM516 647
h-278l6 31h278z" />
    <glyph glyph-name="Otilde.sc" horiz-adv-x="634" 
d="M347 541q98 0 152.5 -68.5t54.5 -173.5q0 -124 -72.5 -216t-185.5 -92q-98 0 -152.5 68.5t-54.5 173.5q0 124 73.5 216t184.5 92zM297 24q99 0 160.5 84t61.5 190q0 90 -44.5 150t-127.5 60q-67 0 -119 -41.5t-78 -103.5t-26 -129q0 -90 44.5 -150t128.5 -60zM239 666
q14 74 62 74q30 0 64 -31l47 -40q26 -23 43 -23q13 0 19.5 10.5t10.5 32.5l12 61h32l-12 -61q-7 -36 -20.5 -55t-41.5 -19q-30 0 -64 31l-47 40q-26 23 -43 23q-13 0 -19.5 -10.5t-10.5 -32.5l-12 -61h-32z" />
    <glyph glyph-name="Oslashacute.sc" horiz-adv-x="613" 
d="M544 299q0 -125 -72.5 -216.5t-185.5 -91.5q-91 0 -146 61l-47 -52h-39l67 76q-43 65 -43 157q0 124 73.5 216t184.5 92q91 0 146 -61l46 52h40l-68 -76q44 -65 44 -157zM113 234q0 -82 32 -132l314 352q-43 54 -123 54q-67 0 -119 -41.5t-78 -103.5t-26 -129zM508 298
q0 78 -31 131l-315 -352q47 -53 124 -53q99 0 160.5 84t61.5 190zM333 610l118 130h42l-119 -130h-41z" />
    <glyph glyph-name="Racute.sc" horiz-adv-x="600" 
d="M74 0l104 532h209q72 0 111 -34.5t39 -93.5q0 -60 -40 -102.5t-121 -44.5l109 -257h-35l-109 257h-182l-50 -257h-35zM387 500h-181l-41 -211h202q68 0 101.5 33t33.5 82q0 45 -29.5 70.5t-85.5 25.5zM329 610l118 130h42l-119 -130h-41z" />
    <glyph glyph-name="Rcaron.sc" horiz-adv-x="600" 
d="M74 0l104 532h209q72 0 111 -34.5t39 -93.5q0 -60 -40 -102.5t-121 -44.5l109 -257h-35l-109 257h-182l-50 -257h-35zM387 500h-181l-41 -211h202q68 0 101.5 33t33.5 82q0 45 -29.5 70.5t-85.5 25.5zM527 743l-154 -136h-28l-116 136h37l95 -109l123 109h43z" />
    <glyph glyph-name="Rcommaaccent.sc" horiz-adv-x="600" 
d="M74 0l104 532h209q72 0 111 -34.5t39 -93.5q0 -60 -40 -102.5t-121 -44.5l109 -257h-35l-109 257h-182l-50 -257h-35zM387 500h-181l-41 -211h202q68 0 101.5 33t33.5 82q0 45 -29.5 70.5t-85.5 25.5zM269 -156q-20 -100 -53 -158h-34q38 69 55 157l10 52h32z" />
    <glyph glyph-name="Sacute.sc" horiz-adv-x="564" 
d="M305 508q-68 0 -112 -29t-44 -80q0 -43 28.5 -64.5t90.5 -34.5q8 -2 14 -3t15 -3t16 -3q78 -16 115 -49t37 -96q0 -69 -57 -112.5t-145 -43.5q-96 0 -151 46.5t-66 97.5h35q12 -39 56.5 -75t126.5 -36q71 0 119 33.5t48 89.5q0 46 -28 72t-96 40l-45 9
q-70 13 -108.5 43.5t-38.5 88.5q0 65 54 103.5t136 38.5q87 0 138 -39.5t61 -86.5h-33q-16 36 -56.5 64.5t-109.5 28.5zM320 610l118 130h42l-119 -130h-41z" />
    <glyph glyph-name="Scaron.sc" horiz-adv-x="564" 
d="M305 508q-68 0 -112 -29t-44 -80q0 -43 28.5 -64.5t90.5 -34.5q8 -2 14 -3t15 -3t16 -3q78 -16 115 -49t37 -96q0 -69 -57 -112.5t-145 -43.5q-96 0 -151 46.5t-66 97.5h35q12 -39 56.5 -75t126.5 -36q71 0 119 33.5t48 89.5q0 46 -28 72t-96 40l-45 9
q-70 13 -108.5 43.5t-38.5 88.5q0 65 54 103.5t136 38.5q87 0 138 -39.5t61 -86.5h-33q-16 36 -56.5 64.5t-109.5 28.5zM493 743l-154 -136h-28l-116 136h37l95 -109l123 109h43z" />
    <glyph glyph-name="Scedilla.sc" horiz-adv-x="564" 
d="M305 508q-68 0 -112 -29t-44 -80q0 -43 28.5 -64.5t90.5 -34.5q8 -2 14 -3t15 -3t16 -3q78 -16 115 -49t37 -96q0 -69 -57 -112.5t-145 -43.5q-27 0 -47 4l-14 -71h4q48 0 72 -22t24 -61q0 -40 -26.5 -67t-82.5 -27h-89l7 32h82q74 0 74 62q0 51 -63 51h-42l22 109l-14 5
q-54 21 -85.5 57.5t-38.5 71.5h35q12 -39 56.5 -75t126.5 -36q71 0 119 33.5t48 89.5q0 46 -28 72t-96 40l-45 9q-70 13 -108.5 43.5t-38.5 88.5q0 65 54 103.5t136 38.5q87 0 138 -39.5t61 -86.5h-33q-16 36 -56.5 64.5t-109.5 28.5z" />
    <glyph glyph-name="Scircumflex.sc" horiz-adv-x="564" 
d="M305 508q-68 0 -112 -29t-44 -80q0 -43 28.5 -64.5t90.5 -34.5q8 -2 14 -3t15 -3t16 -3q78 -16 115 -49t37 -96q0 -69 -57 -112.5t-145 -43.5q-96 0 -151 46.5t-66 97.5h35q12 -39 56.5 -75t126.5 -36q71 0 119 33.5t48 89.5q0 46 -28 72t-96 40l-45 9
q-70 13 -108.5 43.5t-38.5 88.5q0 65 54 103.5t136 38.5q87 0 138 -39.5t61 -86.5h-33q-16 36 -56.5 64.5t-109.5 28.5zM457 607l-95 108l-123 -108h-43l154 136h28l116 -136h-37z" />
    <glyph glyph-name="Scommaaccent.sc" horiz-adv-x="564" 
d="M305 508q-68 0 -112 -29t-44 -80q0 -43 28.5 -64.5t90.5 -34.5q8 -2 14 -3t15 -3t16 -3q78 -16 115 -49t37 -96q0 -69 -57 -112.5t-145 -43.5q-96 0 -151 46.5t-66 97.5h35q12 -39 56.5 -75t126.5 -36q71 0 119 33.5t48 89.5q0 46 -28 72t-96 40l-45 9
q-70 13 -108.5 43.5t-38.5 88.5q0 65 54 103.5t136 38.5q87 0 138 -39.5t61 -86.5h-33q-16 36 -56.5 64.5t-109.5 28.5zM252 -156q-20 -100 -53 -158h-34q38 69 55 157l10 52h32z" />
    <glyph glyph-name="Tcaron.sc" horiz-adv-x="586" 
d="M104 500l7 32h477l-6 -32h-221l-98 -500h-34l98 500h-223zM526 743l-154 -136h-28l-116 136h37l95 -109l123 109h43z" />
    <glyph glyph-name="Tcommaaccent.sc" horiz-adv-x="586" 
d="M104 500l7 32h477l-6 -32h-221l-98 -500h-34l98 500h-223zM233 -156q-20 -100 -53 -158h-34q38 69 55 157l10 52h32z" />
    <glyph glyph-name="uni021A.sc" horiz-adv-x="586" 
d="M104 500l7 32h477l-6 -32h-221l-98 -500h-34l98 500h-223zM233 -156q-20 -100 -53 -158h-34q38 69 55 157l10 52h32z" />
    <glyph glyph-name="Tbar.sc" horiz-adv-x="586" 
d="M120 270l6 32h162l39 198h-223l7 32h477l-6 -32h-221l-39 -198h165l-6 -32h-166l-52 -270h-34l53 270h-162z" />
    <glyph glyph-name="Thorn.sc" horiz-adv-x="586" 
d="M356 135h-221l-26 -135h-34l104 532h34l-24 -122h188q70 0 107.5 -33t37.5 -91q0 -65 -42 -108t-124 -43zM376 378h-193l-41 -211h215q65 0 97.5 33t32.5 86q0 44 -28.5 68t-82.5 24z" />
    <glyph glyph-name="Uacute.sc" horiz-adv-x="647" 
d="M585 532l-64 -332q-17 -96 -71 -154t-150 -58q-103 0 -154.5 61t-33.5 158l63 325h34l-63 -325q-16 -87 27 -136.5t128 -49.5q151 0 186 180l64 331h34zM353 610l118 130h42l-119 -130h-41z" />
    <glyph glyph-name="Ubreve.sc" horiz-adv-x="647" 
d="M585 532l-64 -332q-17 -96 -71 -154t-150 -58q-103 0 -154.5 61t-33.5 158l63 325h34l-63 -325q-16 -87 27 -136.5t128 -49.5q151 0 186 180l64 331h34zM399 635q43 0 67.5 26.5t31.5 67.5l1 6h32l-1 -7q-6 -54 -39.5 -89.5t-91.5 -35.5q-62 0 -92.5 35.5t-21.5 90.5l1 6
h33l-1 -6q-7 -41 14 -67.5t67 -26.5z" />
    <glyph glyph-name="Ucircumflex.sc" horiz-adv-x="647" 
d="M585 532l-64 -332q-17 -96 -71 -154t-150 -58q-103 0 -154.5 61t-33.5 158l63 325h34l-63 -325q-16 -87 27 -136.5t128 -49.5q151 0 186 180l64 331h34zM501 607l-95 108l-123 -108h-43l154 136h28l116 -136h-37z" />
    <glyph glyph-name="Udieresis.sc" horiz-adv-x="647" 
d="M585 532l-64 -332q-17 -96 -71 -154t-150 -58q-103 0 -154.5 61t-33.5 158l63 325h34l-63 -325q-16 -87 27 -136.5t128 -49.5q151 0 186 180l64 331h34zM269 600l27 139h33l-27 -139h-33zM459 600l27 139h33l-27 -139h-33z" />
    <glyph glyph-name="Ugrave.sc" horiz-adv-x="647" 
d="M585 532l-64 -332q-17 -96 -71 -154t-150 -58q-103 0 -154.5 61t-33.5 158l63 325h34l-63 -325q-16 -87 27 -136.5t128 -49.5q151 0 186 180l64 331h34zM402 610h-36l-75 130h37z" />
    <glyph glyph-name="Uhungarumlaut.sc" horiz-adv-x="647" 
d="M585 532l-64 -332q-17 -96 -71 -154t-150 -58q-103 0 -154.5 61t-33.5 158l63 325h34l-63 -325q-16 -87 27 -136.5t128 -49.5q151 0 186 180l64 331h34zM426 610l95 130h38l-96 -130h-37zM266 610l94 130h39l-97 -130h-36z" />
    <glyph glyph-name="Umacron.sc" horiz-adv-x="647" 
d="M585 532l-64 -332q-17 -96 -71 -154t-150 -58q-103 0 -154.5 61t-33.5 158l63 325h34l-63 -325q-16 -87 27 -136.5t128 -49.5q151 0 186 180l64 331h34zM532 647h-278l6 31h278z" />
    <glyph glyph-name="Uogonek.sc" horiz-adv-x="647" 
d="M362 -182l-7 -32h-62q-45 0 -70 20t-25 55q0 37 33.5 68.5t110.5 66.5q-24 -8 -42 -8q-103 0 -154.5 61t-33.5 158l63 325h34l-63 -325q-16 -87 27 -136.5t128 -49.5q151 0 186 180l64 331h34l-64 -332q-26 -134 -108 -183q-107 -64 -142.5 -93t-35.5 -60q0 -46 58 -46
h69z" />
    <glyph glyph-name="Uring.sc" horiz-adv-x="647" 
d="M585 532l-64 -332q-17 -96 -71 -154t-150 -58q-103 0 -154.5 61t-33.5 158l63 325h34l-63 -325q-16 -87 27 -136.5t128 -49.5q151 0 186 180l64 331h34zM397 606q-48 0 -79.5 32t-31.5 78t31.5 78t79.5 32t79.5 -32t31.5 -78t-31.5 -78t-79.5 -32zM397 637q34 0 56 23
t22 56t-21.5 56t-56.5 23t-56.5 -23t-21.5 -56t22 -56t56 -23z" />
    <glyph glyph-name="Utilde.sc" horiz-adv-x="647" 
d="M585 532l-64 -332q-17 -96 -71 -154t-150 -58q-103 0 -154.5 61t-33.5 158l63 325h34l-63 -325q-16 -87 27 -136.5t128 -49.5q151 0 186 180l64 331h34zM260 666q14 74 62 74q30 0 64 -31l47 -40q26 -23 43 -23q13 0 19.5 10.5t10.5 32.5l12 61h32l-12 -61
q-7 -36 -20.5 -55t-41.5 -19q-30 0 -64 31l-47 40q-26 23 -43 23q-13 0 -19.5 -10.5t-10.5 -32.5l-12 -61h-32z" />
    <glyph glyph-name="Wacute.sc" horiz-adv-x="805" 
d="M506 -3l-67 475l-238 -475h-26l-69 535h34l59 -474l238 477h26l65 -477l228 474h34l-258 -535h-26zM435 610l118 130h42l-119 -130h-41z" />
    <glyph glyph-name="Wcircumflex.sc" horiz-adv-x="805" 
d="M506 -3l-67 475l-238 -475h-26l-69 535h34l59 -474l238 477h26l65 -477l228 474h34l-258 -535h-26zM572 607l-95 108l-123 -108h-43l154 136h28l116 -136h-37z" />
    <glyph glyph-name="Wdieresis.sc" horiz-adv-x="805" 
d="M506 -3l-67 475l-238 -475h-26l-69 535h34l59 -474l238 477h26l65 -477l228 474h34l-258 -535h-26zM343 600l27 139h33l-27 -139h-33zM533 600l27 139h33l-27 -139h-33z" />
    <glyph glyph-name="Wgrave.sc" horiz-adv-x="805" 
d="M506 -3l-67 475l-238 -475h-26l-69 535h34l59 -474l238 477h26l65 -477l228 474h34l-258 -535h-26zM473 610h-36l-75 130h37z" />
    <glyph glyph-name="Yacute.sc" horiz-adv-x="549" 
d="M293 234l-46 -234h-33l45 233l-169 299h38l151 -268l245 268h42zM297 610l118 130h42l-119 -130h-41z" />
    <glyph glyph-name="Ycircumflex.sc" horiz-adv-x="549" 
d="M293 234l-46 -234h-33l45 233l-169 299h38l151 -268l245 268h42zM444 607l-95 108l-123 -108h-43l154 136h28l116 -136h-37z" />
    <glyph glyph-name="Ydieresis.sc" horiz-adv-x="549" 
d="M293 234l-46 -234h-33l45 233l-169 299h38l151 -268l245 268h42zM215 600l27 139h33l-27 -139h-33zM405 600l27 139h33l-27 -139h-33z" />
    <glyph glyph-name="Ygrave.sc" horiz-adv-x="549" 
d="M293 234l-46 -234h-33l45 233l-169 299h38l151 -268l245 268h42zM348 610h-36l-75 130h37z" />
    <glyph glyph-name="Zacute.sc" horiz-adv-x="563" 
d="M466 32l-6 -32h-441l4 20l451 480h-350l7 32h401l-4 -21l-452 -479h390zM295 610l118 130h42l-119 -130h-41z" />
    <glyph glyph-name="Zcaron.sc" horiz-adv-x="563" 
d="M466 32l-6 -32h-441l4 20l451 480h-350l7 32h401l-4 -21l-452 -479h390zM499 743l-154 -136h-28l-116 136h37l95 -109l123 109h43z" />
    <glyph glyph-name="Zdotaccent.sc" horiz-adv-x="563" 
d="M466 32l-6 -32h-441l4 20l451 480h-350l7 32h401l-4 -21l-452 -479h390zM308 600l28 141h33l-27 -141h-34z" />
    <glyph glyph-name="germandbls.sc" horiz-adv-x="1128" 
d="M305 508q-68 0 -112 -29t-44 -80q0 -43 28.5 -64.5t90.5 -34.5q8 -2 14 -3t15 -3t16 -3q78 -16 115 -49t37 -96q0 -69 -57 -112.5t-145 -43.5q-96 0 -151 46.5t-66 97.5h35q12 -39 56.5 -75t126.5 -36q71 0 119 33.5t48 89.5q0 46 -28 72t-96 40l-45 9
q-70 13 -108.5 43.5t-38.5 88.5q0 65 54 103.5t136 38.5q87 0 138 -39.5t61 -86.5h-33q-16 36 -56.5 64.5t-109.5 28.5zM869 508q-68 0 -112 -29t-44 -80q0 -43 28.5 -64.5t90.5 -34.5q8 -2 14 -3t15 -3t16 -3q78 -16 115 -49t37 -96q0 -69 -57 -112.5t-145 -43.5
q-96 0 -151 46.5t-66 97.5h35q12 -39 56.5 -75t126.5 -36q71 0 119 33.5t48 89.5q0 46 -28 72t-96 40l-45 9q-70 13 -108.5 43.5t-38.5 88.5q0 65 54 103.5t136 38.5q87 0 138 -39.5t61 -86.5h-33q-16 36 -56.5 64.5t-109.5 28.5z" />
    <glyph glyph-name="napostrophe.sc" horiz-adv-x="812" 
d="M188 623q-19 -98 -75 -190h-33q57 100 77 189l22 114h31zM747 532l-104 -536h-24l-263 494l-96 -490h-33l103 532h40l252 -475l92 475h33z" />
    <glyph glyph-name="f.short" horiz-adv-x="426" 
d="M437 439h-187l-85 -439h-35l86 439h-146l6 31h146l22 114q14 78 50.5 115t111.5 37h134l-6 -31h-128q-60 0 -87.5 -29t-40.5 -92l-22 -114h187z" />
    <glyph glyph-name="f_f.short" horiz-adv-x="768" 
d="M472 0l86 439h-308l-85 -439h-35l86 439h-146l6 31h146l22 114q14 78 50.5 115t111.5 37h112l-6 -31h-106q-60 0 -87.5 -29t-40.5 -92l-22 -114h308l22 114q14 78 50.5 115t111.5 37h134l-6 -31h-128q-60 0 -87.5 -29t-40.5 -92l-22 -114h187l-6 -31h-187l-85 -439h-35z
" />
    <glyph glyph-name="four.denalt" horiz-adv-x="423" 
d="M368 141h-89l-28 -141h-34l27 141h-184l51 265h34l-45 -234h150l35 180h35l-35 -180h89z" />
    <glyph glyph-name="four.numalt" horiz-adv-x="423" 
d="M427 445h-89l-28 -141h-34l27 141h-184l51 265h34l-45 -234h150l35 180h35l-35 -180h89z" />
    <glyph glyph-name="four.oldalt" horiz-adv-x="680" 
d="M600 76h-161l-49 -254h-34l50 254h-314l88 456h34l-82 -425h280l64 330h33l-64 -330h162z" />
    <glyph glyph-name="four.subalt" horiz-adv-x="504" 
d="M414 53h-104l-33 -167h-34l33 167h-219l60 307h34l-54 -275h185l42 212h34l-42 -212h104z" />
    <glyph glyph-name="four.supalt" horiz-adv-x="504" 
d="M482 403h-104l-33 -167h-34l33 167h-219l60 307h34l-54 -275h185l42 212h34l-42 -212h104z" />
    <glyph glyph-name="four.tabalt" 
d="M594 258h-144l-50 -258h-34l50 258h-309l88 452h34l-81 -420h275l63 325h34l-63 -325h143z" />
    <glyph glyph-name="j.short" horiz-adv-x="236" 
d="M169 585l27 141h34l-28 -141h-33zM180 470l-103 -528q-17 -84 -50 -120t-106 -36h-75l6 33h70q57 0 82.5 28.5t38.5 94.5l103 528h34z" />
    <glyph glyph-name="ringacute" horiz-adv-x="600" 
d="M375 836l100 130h38l-101 -130h-37zM378 563q-48 0 -79.5 32t-31.5 78t31.5 78t79.5 32t79.5 -32t31.5 -78t-31.5 -78t-79.5 -32zM378 594q35 0 56.5 22.5t21.5 56.5t-21.5 56.5t-56.5 22.5t-56.5 -22.5t-21.5 -56.5t21.5 -56.5t56.5 -22.5z" />
    <glyph glyph-name="ringacute.uc" horiz-adv-x="600" 
d="M411 1057l103 120h39l-103 -120h-39zM410 784q-48 0 -79.5 32t-31.5 78t31.5 78t79.5 32t79.5 -32t31.5 -78t-31.5 -78t-79.5 -32zM410 815q34 0 56 23t22 56t-21.5 56t-56.5 23t-56.5 -23t-21.5 -56t22 -56t56 -23z" />
    <glyph glyph-name="uni01FA.sc" horiz-adv-x="576" 
d="M452 0l-39 164h-273l-98 -164h-36l320 535h31l127 -535h-32zM159 196h246l-70 294zM367 879l103 120h39l-103 -120h-39zM366 606q-48 0 -79.5 32t-31.5 78t31.5 78t79.5 32t79.5 -32t31.5 -78t-31.5 -78t-79.5 -32zM366 637q34 0 56 23t22 56t-21.5 56t-56.5 23
t-56.5 -23t-21.5 -56t22 -56t56 -23z" />
    </font>
</defs>
</svg>
