<?xml version="1.0" standalone="no"?>
<!DOCTYPE svg PUBLIC "-//W3C//DTD SVG 1.1//EN" "http://www.w3.org/Graphics/SVG/1.1/DTD/svg11.dtd" >
<svg xmlns="http://www.w3.org/2000/svg" xmlns:xlink="http://www.w3.org/1999/xlink" version="1.1">
<metadata>
Created by FontForge 20170731 at Wed Nov 30 11:59:47 2016
 By Aleksey,,,
Copyright (C)2016 Commercial Type.
</metadata>
<defs>
<font id="StyreneB-Bold" horiz-adv-x="600" >
  <font-face 
    font-family="Styrene B"
    font-weight="700"
    font-stretch="normal"
    units-per-em="1000"
    panose-1="0 0 0 0 0 0 0 0 0 0"
    ascent="800"
    descent="-200"
    x-height="518"
    cap-height="710"
    bbox="-103 -320 1386 1214"
    underline-thickness="76"
    underline-position="-228"
    unicode-range="U+000D-FB02"
  />
<missing-glyph horiz-adv-x="252" 
 />
    <glyph glyph-name=".notdef" horiz-adv-x="252" 
 />
    <glyph glyph-name=".null" horiz-adv-x="0" 
 />
    <glyph glyph-name=".null" horiz-adv-x="0" 
 />
    <glyph glyph-name="nonmarkingreturn" unicode="&#xd;" horiz-adv-x="252" 
 />
    <glyph glyph-name="space" unicode=" " horiz-adv-x="252" 
 />
    <glyph glyph-name="exclam" unicode="!" horiz-adv-x="347" 
d="M93 238v472h161v-472h-161zM80 0v176h187v-176h-187z" />
    <glyph glyph-name="quotedbl" unicode="&#x22;" horiz-adv-x="526" 
d="M220 401h-140v309h140v-309zM445 401h-139v309h139v-309z" />
    <glyph glyph-name="numbersign" unicode="#" horiz-adv-x="754" 
d="M345 0l43 167h-123l-43 -167h-135l43 167h-107v120h138l38 147h-106v120h137l40 156h136l-40 -156h122l40 156h137l-40 -156h106v-120h-138l-38 -147h106v-120h-137l-43 -167h-136zM296 287h123l38 147h-123z" />
    <glyph glyph-name="dollar" unicode="$" horiz-adv-x="614" 
d="M557 205q0 -77 -46.5 -130.5t-132.5 -70.5v-127h-141v128q-86 17 -133 73t-47 138v4h157v-2q0 -41 25 -64t68 -23t65.5 18.5t22.5 50.5q0 55 -69 75l-89 25q-88 27 -130 76.5t-42 136.5q0 77 46 127.5t126 68.5v120h141v-121q79 -17 119 -68.5t42 -128.5v-1h-155v1
q-2 31 -23 51.5t-56 20.5q-37 0 -58.5 -17.5t-21.5 -47.5q0 -28 16.5 -44.5t53.5 -28.5l89 -25q88 -25 130.5 -76t42.5 -139z" />
    <glyph glyph-name="percent" unicode="%" horiz-adv-x="993" 
d="M239 340q-83 0 -139 55t-56 136t56 136t139 55q82 0 138 -55t56 -136t-56 -136t-138 -55zM166 0l520 710h142l-521 -710h-141zM239 456q32 0 52 21t20 54t-20 54t-52 21t-52.5 -21.5t-20.5 -53.5t20.5 -53.5t52.5 -21.5zM755 -14q-82 0 -138.5 55t-56.5 136t56.5 136
t138.5 55t138 -55t56 -136t-56 -136t-138 -55zM755 102q32 0 52 21t20 54t-20 54t-52 21t-52.5 -21.5t-20.5 -53.5t20.5 -53.5t52.5 -21.5z" />
    <glyph glyph-name="ampersand" unicode="&#x26;" horiz-adv-x="802" 
d="M599 0l-92 88q-50 -48 -102 -74t-121 -26q-109 0 -175.5 53.5t-66.5 141.5q0 72 40.5 120.5t108.5 90.5q-76 79 -76 155q0 74 58 123.5t152 49.5q105 0 163 -48t58 -126q0 -100 -136 -177l91 -89l109 112h182l-193 -208l189 -186h-189zM320 460l8 -8q34 23 52 43.5
t18 46.5q0 29 -19 46t-49 17q-28 0 -46.5 -16t-18.5 -42q0 -22 13 -40t42 -47zM205 205q0 -33 22.5 -54.5t62.5 -21.5q56 0 117 56l-126 121q-27 -19 -40 -30.5t-24.5 -30.5t-11.5 -40z" />
    <glyph glyph-name="quotesingle" unicode="'" horiz-adv-x="304" 
d="M223 401h-143v309h143v-309z" />
    <glyph glyph-name="parenleft" unicode="(" horiz-adv-x="372" 
d="M340 822q-26 -51 -41 -84t-38 -96.5t-34.5 -136.5t-11.5 -155q0 -81 11.5 -154.5t34.5 -137.5t38 -97.5t41 -84.5h-146q-24 47 -40.5 84.5t-38.5 100t-33.5 136t-11.5 153.5q0 104 23.5 205t45 150.5t55.5 116.5h146z" />
    <glyph glyph-name="parenright" unicode=")" horiz-adv-x="372" 
d="M32 -124q26 51 41 84.5t38 97.5t34.5 137.5t11.5 154.5q0 82 -11.5 155t-34.5 136.5t-38 96.5t-41 84h147q34 -66 55.5 -116.5t44.5 -151t23 -204.5q0 -105 -23 -205.5t-45 -152.5t-55 -116h-147z" />
    <glyph glyph-name="asterisk" unicode="*" horiz-adv-x="489" 
d="M335 317l-90 110l-90 -111l-91 69l95 112l-134 47l38 103l125 -45l-1 137h115l-1 -137l125 45l38 -103l-133 -46l94 -112z" />
    <glyph glyph-name="plus" unicode="+" horiz-adv-x="705" 
d="M629 257h-201v-208h-152v208h-200v144h200v207h152v-207h201v-144z" />
    <glyph glyph-name="comma" unicode="," horiz-adv-x="332" 
d="M198 -200h-114q72 117 78 200h-89v196h187v-173q0 -118 -62 -223z" />
    <glyph glyph-name="hyphen" unicode="-" horiz-adv-x="490" 
d="M76 226v150h338v-150h-338z" />
    <glyph glyph-name="period" unicode="." horiz-adv-x="332" 
d="M73 0v196h187v-196h-187z" />
    <glyph glyph-name="slash" unicode="/" horiz-adv-x="429" 
d="M19 -70l243 830h144l-246 -830h-141z" />
    <glyph glyph-name="zero" unicode="0" horiz-adv-x="699" 
d="M349 723q127 0 200 -71t73 -194v-206q0 -124 -73 -194.5t-200 -70.5t-200 70.5t-73 194.5v206q0 123 73 194t200 71zM349 137q52 0 79.5 32.5t27.5 87.5v196q0 55 -27.5 87.5t-79.5 32.5t-79.5 -32.5t-27.5 -87.5v-196q0 -55 27.5 -87.5t79.5 -32.5z" />
    <glyph glyph-name="one" unicode="1" horiz-adv-x="472" 
d="M378 713v-713h-166v527l-173 -97v155l215 128h124z" />
    <glyph glyph-name="two" unicode="2" horiz-adv-x="642" 
d="M610 145v-145h-550v110l264 239q44 41 63 71t19 66q0 39 -24 63.5t-67 24.5q-42 0 -66.5 -27t-24.5 -71v-38h-162v43q0 104 67.5 172.5t185.5 68.5q121 0 190 -63t69 -167q0 -75 -37.5 -131t-114.5 -123l-102 -93h290z" />
    <glyph glyph-name="three" unicode="3" horiz-adv-x="655" 
d="M602 205q0 -99 -74.5 -158t-205.5 -59q-70 0 -125 20.5t-87.5 54t-50 70.5t-20.5 75h168q5 -27 34 -50.5t80 -23.5q53 0 82 22t29 59q0 77 -86 77h-141v143h130q77 0 77 68q0 36 -26 56t-71 20q-84 0 -99 -69h-165q3 84 71.5 148t192.5 64q126 0 195 -53.5t69 -150.5
q0 -53 -28 -90t-64 -51q47 -14 81 -56.5t34 -115.5z" />
    <glyph glyph-name="four" unicode="4" horiz-adv-x="720" 
d="M687 191h-137v-191h-162v191h-353v109l324 410h191v-379h137v-140zM209 331h179v231z" />
    <glyph glyph-name="five" unicode="5" horiz-adv-x="660" 
d="M84 302v408h494v-136h-338v-137q45 53 137 53q98 0 163 -65.5t65 -175.5v-4q0 -113 -74 -185t-203 -72q-70 0 -124.5 20.5t-86.5 54.5t-49 74t-18 82h168q5 -31 32.5 -57.5t77.5 -26.5q48 0 79 31t31 77v3q0 50 -29.5 79t-80.5 29q-63 0 -96 -52h-148z" />
    <glyph glyph-name="six" unicode="6" horiz-adv-x="666" 
d="M614 246q0 -113 -76.5 -185.5t-204.5 -72.5t-204.5 72t-76.5 185q0 78 27.5 136t90.5 140l148 189h184l-203 -258q41 27 97 27q98 0 158 -64.5t60 -168.5zM448 246q0 50 -31 81.5t-84 31.5q-51 0 -83 -31.5t-32 -82.5q0 -49 31 -80t84 -31t84 31.5t31 80.5z" />
    <glyph glyph-name="seven" unicode="7" horiz-adv-x="625" 
d="M584 603l-314 -603h-186l301 563h-341v147h540v-107z" />
    <glyph glyph-name="eight" unicode="8" horiz-adv-x="673" 
d="M618 193q0 -94 -71 -149.5t-196 -55.5h-30q-124 0 -194.5 55.5t-70.5 149.5q0 71 36 114t83 58q-43 15 -75 54t-32 106q0 89 67 143t188 54h28q121 0 188 -54t67 -143q0 -67 -32.5 -106.5t-74.5 -54.5q47 -15 83 -57.5t36 -113.5zM344 592h-15q-43 0 -69.5 -22t-26.5 -61
t26.5 -61.5t69.5 -22.5h15q43 0 69.5 22.5t26.5 61.5t-26.5 61t-69.5 22zM346 298h-19q-46 0 -74 -24.5t-28 -65.5t28 -65.5t74 -24.5h19q46 0 74 24.5t28 65.5t-28 65.5t-74 24.5z" />
    <glyph glyph-name="nine" unicode="9" horiz-adv-x="666" 
d="M497 189l-149 -189h-184l203 258q-41 -27 -97 -27q-99 0 -158.5 64t-59.5 169q0 113 76.5 185.5t204.5 72.5t204.5 -72t76.5 -185q0 -78 -27.5 -137t-89.5 -139zM218 464q0 -50 31 -81.5t84 -31.5q51 0 83 31.5t32 82.5q0 49 -31 80t-84 31t-84 -31.5t-31 -80.5z" />
    <glyph glyph-name="colon" unicode=":" horiz-adv-x="342" 
d="M78 0v196h187v-196h-187zM78 319v196h187v-196h-187z" />
    <glyph glyph-name="semicolon" unicode=";" horiz-adv-x="342" 
d="M78 319v196h187v-196h-187zM203 -200h-114q72 117 78 200h-89v196h187v-173q0 -118 -62 -223z" />
    <glyph glyph-name="less" unicode="&#x3c;" horiz-adv-x="636" 
d="M550 205v-155l-474 206v135l474 205v-156l-284 -118z" />
    <glyph glyph-name="equal" unicode="=" horiz-adv-x="699" 
d="M617 371h-536v143h536v-143zM617 137h-536v143h536v-143z" />
    <glyph glyph-name="greater" unicode="&#x3e;" horiz-adv-x="636" 
d="M560 256l-474 -206v156l284 119l-284 116v155l474 -205v-135z" />
    <glyph glyph-name="question" unicode="?" horiz-adv-x="551" 
d="M305 245v-7h-161v36q0 49 16 75t68 55l68 40q56 34 56 78q0 32 -19.5 49.5t-54.5 17.5t-55 -21t-20 -57v-26h-158v37q0 91 61.5 145.5t171.5 54.5q114 0 175.5 -52.5t61.5 -147.5q0 -71 -32 -115.5t-103 -83.5l-49 -30q-26 -15 -26 -48zM131 0v176h187v-176h-187z" />
    <glyph glyph-name="at" unicode="@" horiz-adv-x="1014" 
d="M781 -3h150q-17 -28 -46.5 -56t-76 -56.5t-117 -46t-152.5 -17.5q-228 0 -359 130t-131 329q0 204 135 336t345 132q211 0 326 -111t115 -279q0 -133 -64 -216.5t-171 -83.5q-105 0 -134 64q-45 -64 -131 -64t-140.5 58t-54.5 159q0 104 58 171.5t151 67.5q43 0 74 -19
t45 -49l11 60h143l-49 -287q-5 -27 4.5 -43t33.5 -16q47 0 80 52t33 146q0 134 -86 211t-244 77t-260 -102t-102 -266q0 -157 102 -255.5t270 -98.5q141 0 242 73zM508 386q-38 0 -61 -31.5t-23 -80.5q0 -39 19 -62.5t53 -23.5q37 0 60 31.5t23 79.5q0 40 -18.5 63.5
t-52.5 23.5z" />
    <glyph glyph-name="A" unicode="A" horiz-adv-x="766" 
d="M571 0l-46 123h-292l-46 -123h-169l272 711h185l274 -711h-178zM286 265h186l-93 250z" />
    <glyph glyph-name="B" unicode="B" horiz-adv-x="764" 
d="M86 0v710h380q110 0 169 -51t59 -139q0 -56 -33 -93.5t-78 -51.5q56 -16 92.5 -59t36.5 -113q0 -94 -64 -148.5t-185 -54.5h-377zM438 573h-185v-140h185q83 0 83 70t-83 70zM433 296h-180v-159h180q106 0 106 81q0 78 -106 78z" />
    <glyph glyph-name="C" unicode="C" horiz-adv-x="725" 
d="M381 -12q-147 0 -237.5 101t-90.5 266q0 164 90.5 265.5t237.5 101.5q73 0 131.5 -23.5t92.5 -61t52.5 -77t21.5 -78.5h-164q-11 32 -44 59.5t-90 27.5q-72 0 -112.5 -60t-40.5 -154t40.5 -154t112.5 -60q58 0 91 27t44 60h163q-3 -36 -20 -74t-50 -77t-92.5 -64
t-135.5 -25z" />
    <glyph glyph-name="D" unicode="D" horiz-adv-x="772" 
d="M86 0v710h259q173 0 273.5 -91t100.5 -264q0 -170 -101 -262.5t-273 -92.5h-259zM342 564h-86v-418h86q97 0 150.5 54.5t53.5 154.5q0 102 -53 155.5t-151 53.5z" />
    <glyph glyph-name="E" unicode="E" horiz-adv-x="708" 
d="M86 0v710h552v-140h-382v-128h225v-143h-225v-152h416v-147h-586z" />
    <glyph glyph-name="F" unicode="F" horiz-adv-x="702" 
d="M86 0v710h583v-141h-413v-138h234v-141h-234v-290h-170z" />
    <glyph glyph-name="G" unicode="G" horiz-adv-x="777" 
d="M706 72q-38 -32 -110 -58.5t-173 -26.5q-170 0 -270 101t-100 271q0 162 95.5 264t248.5 102q73 0 132 -21.5t93 -54.5t52.5 -66.5t23.5 -64.5h-168q-45 62 -131 62q-78 0 -125 -60.5t-47 -160.5q0 -104 52 -166.5t144 -62.5q79 0 120 24v128h-182v136h345v-346z" />
    <glyph glyph-name="H" unicode="H" horiz-adv-x="810" 
d="M554 0v281h-298v-281h-170v710h170v-279h298v279h170v-710h-170z" />
    <glyph glyph-name="I" unicode="I" horiz-adv-x="346" 
d="M88 0v710h170v-710h-170z" />
    <glyph glyph-name="J" unicode="J" horiz-adv-x="663" 
d="M580 224q0 -111 -68.5 -174.5t-191.5 -63.5q-122 0 -186.5 63t-64.5 175v203h162v-189q0 -47 22.5 -74t66.5 -27t66.5 27t22.5 74v472h171v-486z" />
    <glyph glyph-name="K" unicode="K" horiz-adv-x="756" 
d="M529 0l-273 312v-312h-170v710h170v-301l270 301h210l-305 -338l322 -372h-224z" />
    <glyph glyph-name="L" unicode="L" horiz-adv-x="670" 
d="M636 154v-154h-550v710h170v-556h380z" />
    <glyph glyph-name="M" unicode="M" horiz-adv-x="964" 
d="M340 710l147 -433l146 433h244v-710h-164v529l-179 -530h-113l-178 525v-524h-157v710h254z" />
    <glyph glyph-name="N" unicode="N" horiz-adv-x="812" 
d="M725 710v-714h-139l-334 477v-473h-166v710h192l285 -418v418h162z" />
    <glyph glyph-name="O" unicode="O" horiz-adv-x="783" 
d="M392 -12q-149 0 -244 100t-95 267q0 168 95 267.5t244 99.5q148 0 243 -99.5t95 -267.5q0 -167 -95 -267t-243 -100zM392 140q78 0 122 60t44 155t-44 155t-122 60t-122 -60t-44 -155t44 -155t122 -60z" />
    <glyph glyph-name="P" unicode="P" horiz-adv-x="746" 
d="M86 0v710h360q122 0 188.5 -58t66.5 -169q0 -110 -67 -169.5t-188 -59.5h-191v-254h-169zM429 562h-174v-160h174q98 0 98 80t-98 80z" />
    <glyph glyph-name="Q" unicode="Q" horiz-adv-x="783" 
d="M730 355q0 -109 -43.5 -190t-120.5 -125l154 -192h-204l-120 147h-4q-149 0 -244 98t-95 262q0 167 96 267t243 100t242.5 -99.5t95.5 -267.5zM392 140q78 0 122 60t44 155t-44 155t-122 60t-122 -60t-44 -155t44 -155t122 -60z" />
    <glyph glyph-name="R" unicode="R" horiz-adv-x="773" 
d="M86 0v710h364q119 0 184.5 -56.5t65.5 -164.5q0 -146 -126 -196l167 -293h-182l-155 272h-149v-272h-169zM433 564h-178v-150h178q93 0 93 75t-93 75z" />
    <glyph glyph-name="S" unicode="S" horiz-adv-x="709" 
d="M331 586q-48 0 -75.5 -18t-27.5 -48q0 -55 93 -68l71 -9q131 -17 198 -67t67 -159q0 -104 -76.5 -167t-213.5 -63q-80 0 -143 20.5t-100 54.5t-58.5 69.5t-30.5 74.5h181q12 -31 50 -55.5t101 -24.5q56 0 85.5 20.5t29.5 56.5t-25.5 53.5t-74.5 24.5l-72 10
q-124 17 -189.5 69.5t-65.5 152.5q0 98 76 154t200 56q76 0 134.5 -18t93 -49t53.5 -62t28 -67h-174q-38 59 -135 59z" />
    <glyph glyph-name="T" unicode="T" horiz-adv-x="725" 
d="M35 562v148h655v-148h-243v-562h-169v562h-243z" />
    <glyph glyph-name="U" unicode="U" horiz-adv-x="795" 
d="M398 140q69 0 107.5 42.5t38.5 112.5v415h169v-426q0 -131 -83 -215t-232 -84q-153 0 -234.5 83.5t-81.5 215.5v426h170v-415q0 -71 38 -113t108 -42z" />
    <glyph glyph-name="V" unicode="V" horiz-adv-x="756" 
d="M735 710l-260 -711h-181l-273 711h193l173 -489l172 489h176z" />
    <glyph glyph-name="W" unicode="W" horiz-adv-x="1036" 
d="M651 -1l-134 454l-134 -454h-152l-208 711h179l121 -446l126 447h154l128 -451l120 450h161l-200 -711h-161z" />
    <glyph glyph-name="X" unicode="X" horiz-adv-x="792" 
d="M571 0l-179 232l-180 -232h-201l281 362l-268 348h221l156 -207l161 207h203l-264 -339l280 -371h-210z" />
    <glyph glyph-name="Y" unicode="Y" horiz-adv-x="723" 
d="M456 285v-285h-179v289l-275 421h212l159 -250l159 250h189z" />
    <glyph glyph-name="Z" unicode="Z" horiz-adv-x="726" 
d="M690 147v-147h-643v97l357 467h-347v146h596v-95l-358 -468h395z" />
    <glyph glyph-name="bracketleft" unicode="[" horiz-adv-x="390" 
d="M80 -124v946h289v-125h-147v-696h147v-125h-289z" />
    <glyph glyph-name="backslash" unicode="\" horiz-adv-x="429" 
d="M411 -70h-142l-245 830h143z" />
    <glyph glyph-name="bracketright" unicode="]" horiz-adv-x="390" 
d="M20 697v125h290v-946h-290v125h148v696h-148z" />
    <glyph glyph-name="asciicircum" unicode="^" horiz-adv-x="584" 
d="M402 263l-112 261l-112 -261h-158l195 453h152l198 -453h-163z" />
    <glyph glyph-name="underscore" unicode="_" horiz-adv-x="611" 
d="M25 -155v109h560v-109h-560z" />
    <glyph glyph-name="grave" unicode="`" 
d="M432 582h-156l-108 190h163z" />
    <glyph glyph-name="a" unicode="a" horiz-adv-x="629" 
d="M400 0v68q-10 -25 -45.5 -52t-95.5 -27q-95 0 -154.5 72.5t-59.5 197.5q0 124 60 196.5t155 72.5q32 0 58.5 -9t42.5 -23t24.5 -24t12.5 -19v65h161v-518h-159zM400 259q0 61 -25 96t-70 35q-46 0 -71.5 -35t-25.5 -96t26 -96.5t71 -35.5t70 35.5t25 96.5z" />
    <glyph glyph-name="b" unicode="b" horiz-adv-x="639" 
d="M229 73v-73h-159v736h161v-293q5 9 14 20.5t26.5 28t46.5 27t63 10.5q94 0 154 -72t60 -198t-60 -198t-154 -72q-45 0 -81.5 19t-49.5 34.5t-21 30.5zM229 259q0 -61 26.5 -96.5t74.5 -35.5q47 0 74 36t27 96t-27 96t-74 36q-48 0 -74.5 -35.5t-26.5 -96.5z" />
    <glyph glyph-name="c" unicode="c" horiz-adv-x="564" 
d="M374 342q-21 49 -78 49q-41 0 -65.5 -36.5t-24.5 -95.5t24.5 -96t66.5 -37q24 0 42 10.5t24.5 20t10.5 19.5h155q-2 -30 -16 -60.5t-40 -60.5t-73 -49t-107 -19q-109 0 -179.5 75t-70.5 197q0 121 70.5 196.5t177.5 75.5q111 0 172 -60t66 -129h-155z" />
    <glyph glyph-name="d" unicode="d" horiz-adv-x="639" 
d="M410 0v69q-10 -25 -47.5 -52.5t-99.5 -27.5q-94 0 -156 73t-62 197t62 197t156 73q33 0 61 -9.5t45 -23.5t25.5 -24t13.5 -19v283h161v-736h-159zM410 259q0 59 -27 95.5t-74 36.5t-74 -36.5t-27 -95.5t27 -95.5t74 -36.5t74 36.5t27 95.5z" />
    <glyph glyph-name="e" unicode="e" horiz-adv-x="592" 
d="M298 531q117 0 186 -73.5t69 -198.5v-28h-351q3 -52 31.5 -83.5t75.5 -31.5q53 0 81 38h160q-3 -27 -17.5 -53.5t-41.5 -53.5t-74 -43.5t-108 -16.5q-123 0 -194.5 75t-71.5 197t70.5 197t184.5 75zM298 414q-39 0 -63.5 -23.5t-30.5 -63.5h187q-7 41 -31 64t-62 23z" />
    <glyph glyph-name="f" unicode="f" horiz-adv-x="488" 
d="M462 385h-153v-385h-162v385h-121v133h121v70q0 70 40.5 109t120.5 39h214v-122h-147q-35 0 -50.5 -15t-15.5 -49v-32h153v-133z" />
    <glyph glyph-name="g" unicode="g" horiz-adv-x="633" 
d="M404 17v63q-5 -9 -14 -20t-26 -27t-44.5 -26.5t-59.5 -10.5q-92 0 -153.5 73t-61.5 193q0 121 61 193.5t154 72.5q42 0 76 -18.5t46.5 -34t19.5 -29.5v72h161v-500q0 -106 -65 -167.5t-194 -61.5q-63 0 -114 17.5t-79 44t-43 50.5t-19 44h178q30 -30 77 -30q48 0 74 26.5
t26 75.5zM404 262q0 58 -26.5 93t-70.5 35q-45 0 -72 -35t-27 -93t27 -93.5t72 -35.5q44 0 70.5 35.5t26.5 93.5z" />
    <glyph glyph-name="h" unicode="h" horiz-adv-x="637" 
d="M231 286v-286h-161v736h161v-286q17 30 55.5 54.5t92.5 24.5q87 0 139.5 -58.5t52.5 -154.5v-316h-162v286q0 48 -23 74.5t-65 26.5t-66 -27t-24 -74z" />
    <glyph glyph-name="i" unicode="i" horiz-adv-x="303" 
d="M67 585v160h169v-160h-169zM70 0v518h163v-518h-163z" />
    <glyph glyph-name="j" unicode="j" horiz-adv-x="304" 
d="M68 585v160h169v-160h-169zM234 518v-548q0 -89 -40 -129.5t-122 -40.5h-175v125h105q38 0 53.5 15.5t15.5 51.5v526h163z" />
    <glyph glyph-name="k" unicode="k" horiz-adv-x="609" 
d="M416 0l-184 227v-227h-162v736h162v-422l171 204h194l-202 -239l223 -279h-202z" />
    <glyph glyph-name="l" unicode="l" horiz-adv-x="307" 
d="M72 0v736h163v-736h-163z" />
    <glyph glyph-name="m" unicode="m" horiz-adv-x="967" 
d="M231 291v-291h-161v518h161v-64q15 27 53.5 51t91.5 24q112 0 161 -91q18 34 61 62.5t108 28.5q90 0 142.5 -57.5t52.5 -150.5v-321h-162v291q0 45 -22.5 70.5t-63.5 25.5t-64 -26t-23 -70v-291h-162v291q0 45 -22.5 70.5t-63.5 25.5t-64 -26t-23 -70z" />
    <glyph glyph-name="n" unicode="n" horiz-adv-x="637" 
d="M231 288v-288h-161v518h161v-67q17 30 55.5 54t92.5 24q87 0 139.5 -57.5t52.5 -153.5v-318h-162v288q0 47 -23 73t-65 26t-66 -26.5t-24 -72.5z" />
    <glyph glyph-name="o" unicode="o" horiz-adv-x="612" 
d="M306 531q117 0 190.5 -75t73.5 -197t-73.5 -197t-190.5 -75q-116 0 -189.5 75t-73.5 197t73.5 197t189.5 75zM306 124q49 0 75 37.5t26 97.5t-26 97t-75 37t-75 -37.5t-26 -96.5q0 -60 26 -97.5t75 -37.5z" />
    <glyph glyph-name="p" unicode="p" horiz-adv-x="639" 
d="M231 70v-270h-161v718h161v-75q5 9 14 20.5t26.5 28t46.5 27t63 10.5q94 0 154 -72t60 -198t-60 -198t-154 -72q-34 0 -62.5 10t-46.5 25t-27.5 26t-13.5 20zM229 259q0 -60 27 -96t74 -36t74 35.5t27 96.5t-27 96.5t-74 35.5t-74 -36t-27 -96z" />
    <glyph glyph-name="q" unicode="q" horiz-adv-x="640" 
d="M408 -200v265q-7 -13 -20.5 -28t-47.5 -31.5t-77 -16.5q-94 0 -156 73t-62 197t62 197t156 73q33 0 61 -9.5t45 -23.5t25.5 -24t13.5 -19v65h162v-718h-162zM410 259q0 59 -27 95.5t-74 36.5t-74 -36.5t-27 -95.5t27 -95.5t74 -36.5t74 36.5t27 95.5z" />
    <glyph glyph-name="r" unicode="r" horiz-adv-x="500" 
d="M231 256v-256h-161v518h161v-76q40 77 150 77h89v-160h-119q-63 0 -91.5 -24.5t-28.5 -78.5z" />
    <glyph glyph-name="s" unicode="s" horiz-adv-x="563" 
d="M307 192l-61 6q-204 19 -204 168q0 77 62 121.5t165 44.5q65 0 113.5 -15t74.5 -39.5t39 -47.5t16 -46h-160q-4 6 -11.5 12.5t-26.5 13.5t-43 7q-68 0 -68 -43q0 -35 56 -41l54 -5q111 -8 161.5 -49t50.5 -122q0 -80 -60.5 -125.5t-176.5 -45.5q-67 0 -118.5 16.5
t-79 42.5t-41.5 51t-17 48h165q19 -41 91 -41q75 0 75 43q0 21 -12.5 32t-43.5 14z" />
    <glyph glyph-name="t" unicode="t" horiz-adv-x="510" 
d="M466 143v-143h-145q-174 0 -174 164v219h-121v135h121v192h162v-192h157v-135h-157v-163q0 -41 16.5 -59t60.5 -18h80z" />
    <glyph glyph-name="u" unicode="u" horiz-adv-x="628" 
d="M315 -11q-121 0 -185 63t-64 169v297h162v-289q0 -42 22 -66t63 -24q42 0 64.5 24t22.5 66v289h161v-297q0 -104 -63.5 -168t-182.5 -64z" />
    <glyph glyph-name="v" unicode="v" horiz-adv-x="573" 
d="M568 518l-191 -521h-168l-204 521h182l108 -309l108 309h165z" />
    <glyph glyph-name="w" unicode="w" horiz-adv-x="845" 
d="M514 -1l-89 313l-89 -313h-156l-171 519h174l86 -304l88 305h152l87 -303l86 302h154l-160 -519h-162z" />
    <glyph glyph-name="x" unicode="x" horiz-adv-x="611" 
d="M411 0l-110 141l-113 -141h-184l206 257l-204 261h206l101 -133l107 133h185l-202 -251l203 -267h-195z" />
    <glyph glyph-name="y" unicode="y" horiz-adv-x="576" 
d="M571 518l-267 -718h-163l77 202l-213 516h182l111 -300l110 300h163z" />
    <glyph glyph-name="z" unicode="z" horiz-adv-x="579" 
d="M551 132v-132h-508v88l239 299h-235v131h470v-87l-243 -299h277z" />
    <glyph glyph-name="braceleft" unicode="{" horiz-adv-x="397" 
d="M377 1v-125h-134q-88 0 -126 46t-21 136l30 176q10 52 -46 52h-49v126h49q55 0 46 52l-30 175q-17 90 21 136.5t126 46.5h134v-125h-89q-65 0 -55 -57l29 -163q11 -55 -13.5 -87t-67.5 -41q43 -9 67.5 -41t13.5 -87l-29 -157q-6 -31 9 -47t46 -16h89z" />
    <glyph glyph-name="bar" unicode="|" horiz-adv-x="330" 
d="M93 -116v938h144v-938h-144z" />
    <glyph glyph-name="braceright" unicode="}" horiz-adv-x="398" 
d="M301 58q17 -90 -21 -136t-126 -46h-134v125h89q31 0 46 16t9 47l-29 157q-11 55 13 87.5t68 40.5q-44 8 -68 40.5t-13 87.5l29 163q10 57 -55 57h-89v125h134q88 0 126 -46.5t21 -136.5l-30 -175q-9 -52 46 -52h49v-126h-49q-56 0 -46 -52z" />
    <glyph glyph-name="asciitilde" unicode="~" horiz-adv-x="717" 
d="M434 425q25 -32 42 -32q24 0 24 35v171h156v-202q0 -85 -40.5 -134.5t-115.5 -49.5q-52 0 -87.5 23.5t-76.5 74.5l-53 70q-14 19 -22 26t-20 7q-24 0 -24 -36v-170h-155v201q-1 86 39.5 135t115.5 49q52 0 87 -23.5t77 -74.5z" />
    <glyph glyph-name="uni00A0" unicode="&#xa0;" horiz-adv-x="252" 
 />
    <glyph glyph-name="exclamdown" unicode="&#xa1;" horiz-adv-x="347" 
d="M80 342v176h187v-176h-187zM93 -192v471h161v-471h-161z" />
    <glyph glyph-name="cent" unicode="&#xa2;" horiz-adv-x="592" 
d="M548 176q-3 -54 -44.5 -108.5t-122.5 -72.5v-117h-140v116q-86 21 -137.5 91.5t-51.5 173.5t52 173.5t137 91.5v114h140v-116q78 -21 120 -73t46 -105h-155q-6 16 -26 31.5t-56 15.5q-44 0 -69.5 -36.5t-25.5 -95.5t25.5 -96t69.5 -37q38 0 58 16.5t26 33.5h154z" />
    <glyph glyph-name="sterling" unicode="&#xa3;" horiz-adv-x="703" 
d="M670 141v-141h-618v141h109v116h-109v141h109v107q0 102 58 159.5t170 57.5q114 0 171.5 -57.5t57.5 -159.5v-29h-154v24q0 40 -20 61.5t-55 21.5t-54 -21.5t-19 -61.5v-102h181v-141h-181v-116h354z" />
    <glyph glyph-name="yen" unicode="&#xa5;" horiz-adv-x="704" 
d="M620 123h-174v-123h-175v123h-175v109h175v60h-175v109h163l-241 309h211l134 -184l134 184h189l-228 -309h162v-109h-174v-60h174v-109z" />
    <glyph glyph-name="brokenbar" unicode="&#xa6;" horiz-adv-x="330" 
d="M93 406v416h144v-416h-144zM93 -116v429h144v-429h-144z" />
    <glyph glyph-name="section" unicode="&#xa7;" horiz-adv-x="682" 
d="M568 -15v-24q0 -92 -59.5 -144.5t-166.5 -52.5q-221 0 -221 198v35h157v-31q0 -33 17 -50.5t47 -17.5q31 0 47.5 17t16.5 48v9q0 30 -11.5 46t-40.5 23l-153 34q-83 19 -123.5 62.5t-40.5 119.5q0 54 32.5 91t89.5 50q-42 47 -42 134v19q0 93 60.5 145.5t165.5 52.5
q108 0 164 -52t56 -147v-33h-157v31q0 33 -16.5 51t-46.5 18t-47 -17t-17 -48v-11q0 -57 52 -69l150 -34q83 -19 123.5 -62t40.5 -119q0 -52 -30 -89t-86 -52q39 -43 39 -131zM429 295l-146 33q-38 8 -62 -6.5t-24 -44.5q0 -45 54 -58l146 -33q39 -8 63 7t24 45q0 46 -55 57
z" />
    <glyph glyph-name="dieresis" unicode="&#xa8;" 
d="M107 585v158h159v-158h-159zM334 585v158h159v-158h-159z" />
    <glyph glyph-name="copyright" unicode="&#xa9;" horiz-adv-x="850" 
d="M425 -12q-159 0 -264.5 105t-105.5 262q0 156 105.5 261.5t264.5 105.5t264.5 -105.5t105.5 -261.5t-105.5 -261.5t-264.5 -105.5zM425 80q122 0 196 78t74 197t-74 197t-196 78q-121 0 -195 -78t-74 -197t74 -197t195 -78zM357 357q0 -37 20 -62t52 -25q44 0 63 36h115
q-3 -54 -47.5 -101t-130.5 -47q-84 0 -139 57t-55 142q0 84 55.5 141.5t138.5 57.5q81 0 126.5 -46.5t50.5 -98.5h-117q-21 33 -60 33q-33 0 -52.5 -24t-19.5 -63z" />
    <glyph glyph-name="ordfeminine" unicode="&#xaa;" horiz-adv-x="567" 
d="M349 266v55q-41 -64 -119 -64q-81 0 -132 62.5t-51 169.5q0 106 51.5 168t132.5 62q35 0 63 -14t37.5 -25t15.5 -21v51h152v-444h-150zM348 489q0 49 -19 76t-54 27t-55 -27t-20 -76q0 -50 19.5 -77t55.5 -27q73 0 73 104z" />
    <glyph glyph-name="guillemotleft" unicode="&#xab;" horiz-adv-x="604" 
d="M305 492l-104 -188l104 -191h-150l-100 190l101 189h149zM548 492l-106 -188l106 -191h-150l-102 190l103 189h149z" />
    <glyph glyph-name="registered" unicode="&#xae;" horiz-adv-x="609" 
d="M304 206q-113 0 -187.5 74t-74.5 185q0 110 75 185t187 75t187.5 -75t75.5 -185t-75.5 -184.5t-187.5 -74.5zM304 276q85 0 135.5 53t50.5 136t-50.5 136.5t-135.5 53.5q-84 0 -134.5 -53.5t-50.5 -136.5t50.5 -136t134.5 -53zM191 343v254h136q49 0 76 -23t27 -65
q0 -53 -41 -73l46 -93h-86l-37 81h-39v-81h-82zM320 528h-47v-39h47q27 0 27 20q0 19 -27 19z" />
    <glyph glyph-name="macron" unicode="&#xaf;" horiz-adv-x="500" 
d="M414 606h-328v123h328v-123z" />
    <glyph glyph-name="degree" unicode="&#xb0;" horiz-adv-x="527" 
d="M264 332q-84 0 -140 56t-56 139t56 139t140 56q83 0 139 -56t56 -139t-56 -139t-139 -56zM264 437q38 0 62 25.5t24 64.5t-24 64.5t-62 25.5q-39 0 -63 -25.5t-24 -64.5t24 -64.5t63 -25.5z" />
    <glyph glyph-name="two.sup" unicode="&#xb2;" horiz-adv-x="506" 
d="M469 345v-115h-413v89l194 170q28 26 39.5 43t11.5 39q0 24 -15 39t-43 15q-29 0 -44.5 -17t-15.5 -47v-21h-133v23q0 81 51.5 131.5t142.5 50.5q93 0 146 -45t53 -121q0 -53 -27 -91t-85 -87l-64 -56h202z" />
    <glyph glyph-name="three.sup" unicode="&#xb3;" horiz-adv-x="517" 
d="M467 378q0 -72 -56.5 -114.5t-156.5 -42.5q-103 0 -158 50t-58 111h142q3 -17 22 -31.5t52 -14.5q71 0 71 51q0 46 -56 46h-101v110h89q54 0 54 43q0 21 -16.5 34t-46.5 13q-29 0 -44.5 -14t-19.5 -30h-138q3 62 55 109t147 47q97 0 149.5 -38t52.5 -110q0 -38 -20 -63
t-47 -34q84 -30 84 -122z" />
    <glyph glyph-name="acute" unicode="&#xb4;" 
d="M168 582l101 190h163l-108 -190h-156z" />
    <glyph glyph-name="paragraph" unicode="&#xb6;" horiz-adv-x="716" 
d="M35 503q0 96 63 151.5t166 55.5h366v-710h-119v599h-102v-599h-119v296h-26q-103 0 -166 56.5t-63 150.5z" />
    <glyph glyph-name="periodcentered" unicode="&#xb7;" horiz-adv-x="332" 
d="M73 251v196h187v-196h-187z" />
    <glyph glyph-name="cedilla" unicode="&#xb8;" 
d="M428 -161q0 -59 -33.5 -92.5t-98.5 -33.5h-124v103h100q32 0 32 27q0 26 -32 26h-78v131h115v-43q57 -1 88 -32t31 -86z" />
    <glyph glyph-name="one.sup" unicode="&#xb9;" horiz-adv-x="385" 
d="M306 738v-508h-140v360l-126 -68v124l161 92h105z" />
    <glyph glyph-name="ordmasculine" unicode="&#xba;" horiz-adv-x="578" 
d="M289 722q102 0 166 -63.5t64 -170.5q0 -106 -64.5 -170t-165.5 -64t-165.5 64t-64.5 170q0 107 64 170.5t166 63.5zM289 382q38 0 58.5 29.5t20.5 76.5q0 49 -20.5 78t-58.5 29t-58.5 -29t-20.5 -78q0 -47 20.5 -76.5t58.5 -29.5z" />
    <glyph glyph-name="guillemotright" unicode="&#xbb;" horiz-adv-x="604" 
d="M549 303l-101 -190h-149l104 189l-103 190h150zM308 303l-102 -190h-149l105 189l-105 190h149z" />
    <glyph glyph-name="onequarter" unicode="&#xbc;" horiz-adv-x="1025" 
d="M995 106h-85v-106h-130v106h-232v90l201 247h161v-233h85v-104zM673 210h107v135zM283 712v-445h-134v307l-113 -59v115l146 82h101zM305 0h-134l463 710h133z" />
    <glyph glyph-name="onehalf" unicode="&#xbd;" horiz-adv-x="1015" 
d="M283 712v-445h-134v307l-113 -59v115l146 82h101zM303 0h-134l463 710h133zM981 108v-108h-374v84l175 148q23 20 32.5 34t9.5 31q0 19 -12.5 31t-34.5 12q-49 0 -49 -53v-17h-126v19q0 72 46 117t129 45q85 0 133 -40t48 -107q0 -47 -24 -80.5t-75 -74.5l-50 -41h172z
" />
    <glyph glyph-name="threequarters" unicode="&#xbe;" horiz-adv-x="1123" 
d="M424 398q0 -64 -51.5 -101.5t-143.5 -37.5q-93 0 -143 45t-53 99h135q3 -13 18 -25.5t43 -12.5q60 0 60 40q0 35 -45 35h-93v105h84q40 0 40 31q0 38 -52 38q-43 0 -52 -35h-133q3 56 50.5 97.5t134.5 41.5q90 0 138 -33.5t48 -97.5q0 -59 -60 -83q31 -10 53 -36t22 -70z
M1093 106h-85v-106h-130v106h-232v90l201 247h161v-233h85v-104zM771 210h107v135zM402 0h-134l463 710h133z" />
    <glyph glyph-name="questiondown" unicode="&#xbf;" horiz-adv-x="551" 
d="M246 273v7h161v-36q0 -49 -16 -75t-68 -55l-68 -40q-56 -34 -56 -78q0 -32 19.5 -49.5t54.5 -17.5t55 21t20 57v26h158v-37q0 -91 -61.5 -145.5t-171.5 -54.5q-114 0 -175.5 52.5t-61.5 147.5q0 71 32 115.5t103 83.5l49 30q26 15 26 48zM420 518v-176h-187v176h187z" />
    <glyph glyph-name="Agrave" unicode="&#xc0;" horiz-adv-x="766" 
d="M571 0l-46 123h-292l-46 -123h-169l272 711h185l274 -711h-178zM286 265h186l-93 250zM463 769h-167l-111 162h175z" />
    <glyph glyph-name="Aacute" unicode="&#xc1;" horiz-adv-x="766" 
d="M571 0l-46 123h-292l-46 -123h-169l272 711h185l274 -711h-178zM286 265h186l-93 250zM297 769l103 162h175l-111 -162h-167z" />
    <glyph glyph-name="Acircumflex" unicode="&#xc2;" horiz-adv-x="766" 
d="M571 0l-46 123h-292l-46 -123h-169l272 711h185l274 -711h-178zM286 265h186l-93 250zM439 768l-61 75l-61 -75h-149l133 166h154l130 -166h-146z" />
    <glyph glyph-name="Atilde" unicode="&#xc3;" horiz-adv-x="766" 
d="M571 0l-46 123h-292l-46 -123h-169l272 711h185l274 -711h-178zM286 265h186l-93 250zM383 799l-34 17q-17 10 -28 10q-14 0 -14 -20v-40h-113v87q0 45 23 71t67 26q33 0 89 -29l33 -17q19 -10 29 -10q14 0 14 20v41h113v-88q0 -45 -23 -70.5t-67 -25.5q-36 0 -89 28z
" />
    <glyph glyph-name="Adieresis" unicode="&#xc4;" horiz-adv-x="766" 
d="M571 0l-46 123h-292l-46 -123h-169l272 711h185l274 -711h-178zM286 265h186l-93 250zM182 769v158h160v-158h-160zM414 769v158h160v-158h-160z" />
    <glyph glyph-name="Aring" unicode="&#xc5;" horiz-adv-x="766" 
d="M571 0l-46 123h-292l-46 -123h-169l272 711h185l274 -711h-178zM286 265h186l-93 250zM378 759q-61 0 -100.5 39.5t-39.5 97.5q0 59 39.5 98t100.5 39t101 -39t40 -98q0 -58 -40 -97.5t-101 -39.5zM378 840q24 0 39.5 15.5t15.5 40.5t-15 40.5t-40 15.5t-40 -15.5
t-15 -40.5t15.5 -40.5t39.5 -15.5z" />
    <glyph glyph-name="AE" unicode="&#xc6;" horiz-adv-x="1060" 
d="M1024 147v-147h-542v147h-227l-78 -147h-184l385 710h613v-140h-340v-128h206v-143h-206v-152h373zM330 289h152v285z" />
    <glyph glyph-name="Ccedilla" unicode="&#xc7;" horiz-adv-x="725" 
d="M381 -12q-147 0 -237.5 101t-90.5 266q0 164 90.5 265.5t237.5 101.5q73 0 131.5 -23.5t92.5 -61t52.5 -77t21.5 -78.5h-164q-11 32 -44 59.5t-90 27.5q-72 0 -112.5 -60t-40.5 -154t40.5 -154t112.5 -60q58 0 91 27t44 60h163q-3 -36 -20 -74t-50 -77t-92.5 -64
t-135.5 -25zM533 -161q0 -59 -33.5 -92.5t-98.5 -33.5h-124v103h100q32 0 32 27q0 26 -32 26h-78v131h115v-43q57 -1 88 -32t31 -86z" />
    <glyph glyph-name="Egrave" unicode="&#xc8;" horiz-adv-x="708" 
d="M86 0v710h552v-140h-382v-128h225v-143h-225v-152h416v-147h-586zM469 769h-167l-111 162h175z" />
    <glyph glyph-name="Eacute" unicode="&#xc9;" horiz-adv-x="708" 
d="M86 0v710h552v-140h-382v-128h225v-143h-225v-152h416v-147h-586zM279 769l103 162h175l-111 -162h-167z" />
    <glyph glyph-name="Ecircumflex" unicode="&#xca;" horiz-adv-x="708" 
d="M86 0v710h552v-140h-382v-128h225v-143h-225v-152h416v-147h-586zM426 768l-61 75l-61 -75h-149l133 166h154l130 -166h-146z" />
    <glyph glyph-name="Edieresis" unicode="&#xcb;" horiz-adv-x="708" 
d="M86 0v710h552v-140h-382v-128h225v-143h-225v-152h416v-147h-586zM169 769v158h160v-158h-160zM401 769v158h160v-158h-160z" />
    <glyph glyph-name="Igrave" unicode="&#xcc;" horiz-adv-x="346" 
d="M88 0v710h170v-710h-170zM257 769h-167l-111 162h175z" />
    <glyph glyph-name="Iacute" unicode="&#xcd;" horiz-adv-x="346" 
d="M88 0v710h170v-710h-170zM90 769l103 162h175l-111 -162h-167z" />
    <glyph glyph-name="Icircumflex" unicode="&#xce;" horiz-adv-x="346" 
d="M88 0v710h170v-710h-170zM233 768l-61 75l-61 -75h-149l133 166h154l130 -166h-146z" />
    <glyph glyph-name="Idieresis" unicode="&#xcf;" horiz-adv-x="346" 
d="M88 0v710h170v-710h-170zM-24 769v158h160v-158h-160zM208 769v158h160v-158h-160z" />
    <glyph glyph-name="Eth" unicode="&#xd0;" horiz-adv-x="794" 
d="M13 286v143h95v281h259q173 0 273.5 -91t100.5 -264q0 -170 -101 -262.5t-273 -92.5h-259v286h-95zM364 564h-86v-135h160v-143h-160v-140h86q97 0 150.5 54.5t53.5 154.5q0 102 -53 155.5t-151 53.5z" />
    <glyph glyph-name="Ntilde" unicode="&#xd1;" horiz-adv-x="812" 
d="M725 710v-714h-139l-334 477v-473h-166v710h192l285 -418v418h162zM421 799l-34 17q-17 10 -28 10q-14 0 -14 -20v-40h-113v87q0 45 23 71t67 26q33 0 89 -29l33 -17q19 -10 29 -10q14 0 14 20v41h113v-88q0 -45 -23 -70.5t-67 -25.5q-36 0 -89 28z" />
    <glyph glyph-name="Ograve" unicode="&#xd2;" horiz-adv-x="783" 
d="M392 -12q-149 0 -244 100t-95 267q0 168 95 267.5t244 99.5q148 0 243 -99.5t95 -267.5q0 -167 -95 -267t-243 -100zM392 140q78 0 122 60t44 155t-44 155t-122 60t-122 -60t-44 -155t44 -155t122 -60zM477 769h-167l-111 162h175z" />
    <glyph glyph-name="Oacute" unicode="&#xd3;" horiz-adv-x="783" 
d="M392 -12q-149 0 -244 100t-95 267q0 168 95 267.5t244 99.5q148 0 243 -99.5t95 -267.5q0 -167 -95 -267t-243 -100zM392 140q78 0 122 60t44 155t-44 155t-122 60t-122 -60t-44 -155t44 -155t122 -60zM306 769l103 162h175l-111 -162h-167z" />
    <glyph glyph-name="Ocircumflex" unicode="&#xd4;" horiz-adv-x="783" 
d="M392 -12q-149 0 -244 100t-95 267q0 168 95 267.5t244 99.5q148 0 243 -99.5t95 -267.5q0 -167 -95 -267t-243 -100zM392 140q78 0 122 60t44 155t-44 155t-122 60t-122 -60t-44 -155t44 -155t122 -60zM453 768l-61 75l-61 -75h-149l133 166h154l130 -166h-146z" />
    <glyph glyph-name="Otilde" unicode="&#xd5;" horiz-adv-x="783" 
d="M392 -12q-149 0 -244 100t-95 267q0 168 95 267.5t244 99.5q148 0 243 -99.5t95 -267.5q0 -167 -95 -267t-243 -100zM392 140q78 0 122 60t44 155t-44 155t-122 60t-122 -60t-44 -155t44 -155t122 -60zM397 799l-34 17q-17 10 -28 10q-14 0 -14 -20v-40h-113v87
q0 45 23 71t67 26q33 0 89 -29l33 -17q19 -10 29 -10q14 0 14 20v41h113v-88q0 -45 -23 -70.5t-67 -25.5q-36 0 -89 28z" />
    <glyph glyph-name="Odieresis" unicode="&#xd6;" horiz-adv-x="783" 
d="M392 -12q-149 0 -244 100t-95 267q0 168 95 267.5t244 99.5q148 0 243 -99.5t95 -267.5q0 -167 -95 -267t-243 -100zM392 140q78 0 122 60t44 155t-44 155t-122 60t-122 -60t-44 -155t44 -155t122 -60zM196 769v158h160v-158h-160zM428 769v158h160v-158h-160z" />
    <glyph glyph-name="multiply" unicode="&#xd7;" horiz-adv-x="678" 
d="M605 157l-106 -103l-161 162l-160 -162l-105 101l162 164l-162 163l107 106l160 -162l160 162l105 -102l-162 -164z" />
    <glyph glyph-name="Oslash" unicode="&#xd8;" horiz-adv-x="783" 
d="M730 355q0 -167 -95 -267t-243 -100q-95 0 -176 48l-28 -36h-162l97 122q-70 95 -70 233q0 168 95 267.5t244 99.5q94 0 174 -47l27 35h164l-97 -121q70 -95 70 -234zM218 355q0 -58 12 -100l241 304q-33 15 -79 15q-81 0 -127.5 -61.5t-46.5 -157.5zM565 355
q0 59 -12 101l-242 -304q32 -16 81 -16q81 0 127 61t46 158z" />
    <glyph glyph-name="Ugrave" unicode="&#xd9;" horiz-adv-x="795" 
d="M398 140q69 0 107.5 42.5t38.5 112.5v415h169v-426q0 -131 -83 -215t-232 -84q-153 0 -234.5 83.5t-81.5 215.5v426h170v-415q0 -71 38 -113t108 -42zM493 769h-167l-111 162h175z" />
    <glyph glyph-name="Uacute" unicode="&#xda;" horiz-adv-x="795" 
d="M398 140q69 0 107.5 42.5t38.5 112.5v415h169v-426q0 -131 -83 -215t-232 -84q-153 0 -234.5 83.5t-81.5 215.5v426h170v-415q0 -71 38 -113t108 -42zM310 769l103 162h175l-111 -162h-167z" />
    <glyph glyph-name="Ucircumflex" unicode="&#xdb;" horiz-adv-x="795" 
d="M398 140q69 0 107.5 42.5t38.5 112.5v415h169v-426q0 -131 -83 -215t-232 -84q-153 0 -234.5 83.5t-81.5 215.5v426h170v-415q0 -71 38 -113t108 -42zM459 768l-61 75l-61 -75h-149l133 166h154l130 -166h-146z" />
    <glyph glyph-name="Udieresis" unicode="&#xdc;" horiz-adv-x="795" 
d="M398 140q69 0 107.5 42.5t38.5 112.5v415h169v-426q0 -131 -83 -215t-232 -84q-153 0 -234.5 83.5t-81.5 215.5v426h170v-415q0 -71 38 -113t108 -42zM202 769v158h160v-158h-160zM434 769v158h160v-158h-160z" />
    <glyph glyph-name="Yacute" unicode="&#xdd;" horiz-adv-x="723" 
d="M456 285v-285h-179v289l-275 421h212l159 -250l159 250h189zM283 769l103 162h175l-111 -162h-167z" />
    <glyph glyph-name="Thorn" unicode="&#xde;" horiz-adv-x="746" 
d="M451 140h-196v-140h-169v710h169v-125h196q121 0 185.5 -57t64.5 -165q0 -107 -65 -165t-185 -58zM435 437h-180v-149h180q91 0 91 75q0 74 -91 74z" />
    <glyph glyph-name="germandbls" unicode="&#xdf;" horiz-adv-x="629" 
d="M235 511v-511h-163v514q0 112 62 173t179 61q112 0 175.5 -52.5t63.5 -144.5q0 -57 -28.5 -94t-66.5 -51q54 -14 94 -61.5t40 -128.5q0 -100 -62.5 -158t-176.5 -58h-50v143h27q48 0 73.5 22t25.5 61q0 40 -25.5 62t-73.5 22h-27v142h2q41 0 64 19.5t23 57.5t-21 58
t-57 20t-57 -24.5t-21 -71.5z" />
    <glyph glyph-name="agrave" unicode="&#xe0;" horiz-adv-x="629" 
d="M400 0v68q-10 -25 -45.5 -52t-95.5 -27q-95 0 -154.5 72.5t-59.5 197.5q0 124 60 196.5t155 72.5q32 0 58.5 -9t42.5 -23t24.5 -24t12.5 -19v65h161v-518h-159zM400 259q0 61 -25 96t-70 35q-46 0 -71.5 -35t-25.5 -96t26 -96.5t71 -35.5t70 35.5t25 96.5zM380 582h-156
l-108 190h163z" />
    <glyph glyph-name="aacute" unicode="&#xe1;" horiz-adv-x="629" 
d="M400 0v68q-10 -25 -45.5 -52t-95.5 -27q-95 0 -154.5 72.5t-59.5 197.5q0 124 60 196.5t155 72.5q32 0 58.5 -9t42.5 -23t24.5 -24t12.5 -19v65h161v-518h-159zM400 259q0 61 -25 96t-70 35q-46 0 -71.5 -35t-25.5 -96t26 -96.5t71 -35.5t70 35.5t25 96.5zM225 582
l101 190h163l-108 -190h-156z" />
    <glyph glyph-name="acircumflex" unicode="&#xe2;" horiz-adv-x="629" 
d="M400 0v68q-10 -25 -45.5 -52t-95.5 -27q-95 0 -154.5 72.5t-59.5 197.5q0 124 60 196.5t155 72.5q32 0 58.5 -9t42.5 -23t24.5 -24t12.5 -19v65h161v-518h-159zM400 259q0 61 -25 96t-70 35q-46 0 -71.5 -35t-25.5 -96t26 -96.5t71 -35.5t70 35.5t25 96.5zM359 581
l-56 93l-57 -93h-141l125 198h146l121 -198h-138z" />
    <glyph glyph-name="atilde" unicode="&#xe3;" horiz-adv-x="629" 
d="M400 0v68q-10 -25 -45.5 -52t-95.5 -27q-95 0 -154.5 72.5t-59.5 197.5q0 124 60 196.5t155 72.5q32 0 58.5 -9t42.5 -23t24.5 -24t12.5 -19v65h161v-518h-159zM400 259q0 61 -25 96t-70 35q-46 0 -71.5 -35t-25.5 -96t26 -96.5t71 -35.5t70 35.5t25 96.5zM238 578h-108
v90q0 46 22 71.5t65 25.5q36 0 83 -31l27 -17q14 -11 26 -11q15 0 15 21v43h109v-91q0 -45 -22.5 -70.5t-64.5 -25.5q-37 0 -83 30l-28 17q-17 11 -26 11q-15 0 -15 -21v-42z" />
    <glyph glyph-name="adieresis" unicode="&#xe4;" horiz-adv-x="629" 
d="M400 0v68q-10 -25 -45.5 -52t-95.5 -27q-95 0 -154.5 72.5t-59.5 197.5q0 124 60 196.5t155 72.5q32 0 58.5 -9t42.5 -23t24.5 -24t12.5 -19v65h161v-518h-159zM400 259q0 61 -25 96t-70 35q-46 0 -71.5 -35t-25.5 -96t26 -96.5t71 -35.5t70 35.5t25 96.5zM110 585v158
h159v-158h-159zM337 585v158h159v-158h-159z" />
    <glyph glyph-name="aring" unicode="&#xe5;" horiz-adv-x="629" 
d="M400 0v68q-10 -25 -45.5 -52t-95.5 -27q-95 0 -154.5 72.5t-59.5 197.5q0 124 60 196.5t155 72.5q32 0 58.5 -9t42.5 -23t24.5 -24t12.5 -19v65h161v-518h-159zM400 259q0 61 -25 96t-70 35q-46 0 -71.5 -35t-25.5 -96t26 -96.5t71 -35.5t70 35.5t25 96.5zM303 572
q-60 0 -99.5 39t-39.5 97q0 59 39.5 98t99.5 39q61 0 100.5 -39t39.5 -98q0 -58 -40 -97t-100 -39zM303 653q24 0 39.5 15.5t15.5 39.5q0 25 -15.5 40.5t-39.5 15.5t-39.5 -15.5t-15.5 -40.5q0 -24 15.5 -39.5t39.5 -15.5z" />
    <glyph glyph-name="ae" unicode="&#xe6;" horiz-adv-x="917" 
d="M625 531q117 0 185 -73.5t68 -198.5v-33h-346q4 -50 31.5 -80t72.5 -30q51 0 77 36h162q-3 -25 -17.5 -51.5t-41.5 -53t-74 -43.5t-106 -17q-69 0 -123.5 26t-86.5 70q-53 -95 -184 -95q-92 0 -148 48.5t-56 126.5q0 77 52 119t144 42h138v4q0 35 -21.5 57t-61.5 22
q-33 0 -53 -14t-23 -27h-164q1 21 13.5 46.5t38 53.5t74 46.5t111.5 18.5q121 0 176 -70q54 70 163 70zM625 414q-39 0 -63 -23.5t-29 -66.5h184q-6 42 -30 66t-62 24zM199 167q0 -29 22 -47t59 -18q40 0 66 22.5t26 58.5v39h-103q-32 0 -51 -14.5t-19 -40.5z" />
    <glyph glyph-name="ccedilla" unicode="&#xe7;" horiz-adv-x="564" 
d="M529 342h-155q-21 49 -78 49q-41 0 -65.5 -36.5t-24.5 -95.5t24.5 -96t66.5 -37q24 0 42 10.5t24.5 20t10.5 19.5h155q-3 -48 -35 -95t-94 -75q-33 -14 -76 -18v-31q57 -1 88 -32t31 -86q0 -59 -33 -92.5t-98 -33.5h-124v103h99q32 0 32 27q0 26 -32 26h-78v131
q-2 1 -8 3t-8 3q-69 30 -109.5 96t-40.5 157q0 121 70.5 196.5t177.5 75.5q111 0 172 -60t66 -129z" />
    <glyph glyph-name="egrave" unicode="&#xe8;" horiz-adv-x="592" 
d="M298 531q117 0 186 -73.5t69 -198.5v-28h-351q3 -52 31.5 -83.5t75.5 -31.5q53 0 81 38h160q-3 -27 -17.5 -53.5t-41.5 -53.5t-74 -43.5t-108 -16.5q-123 0 -194.5 75t-71.5 197t70.5 197t184.5 75zM298 414q-39 0 -63.5 -23.5t-30.5 -63.5h187q-7 41 -31 64t-62 23z
M376 582h-156l-108 190h163z" />
    <glyph glyph-name="eacute" unicode="&#xe9;" horiz-adv-x="592" 
d="M298 531q117 0 186 -73.5t69 -198.5v-28h-351q3 -52 31.5 -83.5t75.5 -31.5q53 0 81 38h160q-3 -27 -17.5 -53.5t-41.5 -53.5t-74 -43.5t-108 -16.5q-123 0 -194.5 75t-71.5 197t70.5 197t184.5 75zM298 414q-39 0 -63.5 -23.5t-30.5 -63.5h187q-7 41 -31 64t-62 23z
M221 582l101 190h163l-108 -190h-156z" />
    <glyph glyph-name="ecircumflex" unicode="&#xea;" horiz-adv-x="592" 
d="M298 531q117 0 186 -73.5t69 -198.5v-28h-351q3 -52 31.5 -83.5t75.5 -31.5q53 0 81 38h160q-3 -27 -17.5 -53.5t-41.5 -53.5t-74 -43.5t-108 -16.5q-123 0 -194.5 75t-71.5 197t70.5 197t184.5 75zM298 414q-39 0 -63.5 -23.5t-30.5 -63.5h187q-7 41 -31 64t-62 23z
M354 581l-56 93l-57 -93h-141l125 198h146l121 -198h-138z" />
    <glyph glyph-name="edieresis" unicode="&#xeb;" horiz-adv-x="592" 
d="M298 531q117 0 186 -73.5t69 -198.5v-28h-351q3 -52 31.5 -83.5t75.5 -31.5q53 0 81 38h160q-3 -27 -17.5 -53.5t-41.5 -53.5t-74 -43.5t-108 -16.5q-123 0 -194.5 75t-71.5 197t70.5 197t184.5 75zM298 414q-39 0 -63.5 -23.5t-30.5 -63.5h187q-7 41 -31 64t-62 23z
M105 585v158h159v-158h-159zM332 585v158h159v-158h-159z" />
    <glyph glyph-name="igrave" unicode="&#xec;" horiz-adv-x="303" 
d="M70 0v518h163v-518h-163zM229 582h-156l-108 190h163z" />
    <glyph glyph-name="iacute" unicode="&#xed;" horiz-adv-x="303" 
d="M70 0v518h163v-518h-163zM74 582l101 190h163l-108 -190h-156z" />
    <glyph glyph-name="icircumflex" unicode="&#xee;" horiz-adv-x="303" 
d="M206 581l-54 93l-55 -93h-141l121 198h149l118 -198h-138zM70 0v518h163v-518h-163z" />
    <glyph glyph-name="idieresis" unicode="&#xef;" horiz-adv-x="303" 
d="M-34 585v158h152v-158h-152zM185 585v158h152v-158h-152zM70 0v518h163v-518h-163z" />
    <glyph glyph-name="eth" unicode="&#xf0;" horiz-adv-x="612" 
d="M570 259q0 -121 -73 -196.5t-192 -75.5q-117 0 -189.5 76t-72.5 196q0 107 54 176t143 69q51 0 87 -25l-71 89l-143 -49l-32 88l113 39l-71 90h177l34 -43l119 41l32 -88l-90 -31l65 -83q58 -73 84 -133.5t26 -139.5zM306 124q49 0 75 37.5t26 97.5t-26 97t-75 37
t-75 -37t-26 -97t26 -97.5t75 -37.5z" />
    <glyph glyph-name="ntilde" unicode="&#xf1;" horiz-adv-x="637" 
d="M231 288v-288h-161v518h161v-67q17 30 55.5 54t92.5 24q87 0 139.5 -57.5t52.5 -153.5v-318h-162v288q0 47 -23 73t-65 26t-66 -26.5t-24 -72.5zM252 578h-108v90q0 46 22 71.5t65 25.5q36 0 83 -31l27 -17q14 -11 26 -11q15 0 15 21v43h109v-91q0 -45 -22.5 -70.5
t-64.5 -25.5q-37 0 -83 30l-28 17q-17 11 -26 11q-15 0 -15 -21v-42z" />
    <glyph glyph-name="ograve" unicode="&#xf2;" horiz-adv-x="612" 
d="M306 531q117 0 190.5 -75t73.5 -197t-73.5 -197t-190.5 -75q-116 0 -189.5 75t-73.5 197t73.5 197t189.5 75zM306 124q49 0 75 37.5t26 97.5t-26 97t-75 37t-75 -37.5t-26 -96.5q0 -60 26 -97.5t75 -37.5zM384 582h-156l-108 190h163z" />
    <glyph glyph-name="oacute" unicode="&#xf3;" horiz-adv-x="612" 
d="M306 531q117 0 190.5 -75t73.5 -197t-73.5 -197t-190.5 -75q-116 0 -189.5 75t-73.5 197t73.5 197t189.5 75zM306 124q49 0 75 37.5t26 97.5t-26 97t-75 37t-75 -37.5t-26 -96.5q0 -60 26 -97.5t75 -37.5zM228 582l101 190h163l-108 -190h-156z" />
    <glyph glyph-name="ocircumflex" unicode="&#xf4;" horiz-adv-x="612" 
d="M306 531q117 0 190.5 -75t73.5 -197t-73.5 -197t-190.5 -75q-116 0 -189.5 75t-73.5 197t73.5 197t189.5 75zM306 124q49 0 75 37.5t26 97.5t-26 97t-75 37t-75 -37.5t-26 -96.5q0 -60 26 -97.5t75 -37.5zM362 581l-56 93l-57 -93h-141l125 198h146l121 -198h-138z" />
    <glyph glyph-name="otilde" unicode="&#xf5;" horiz-adv-x="612" 
d="M306 531q117 0 190.5 -75t73.5 -197t-73.5 -197t-190.5 -75q-116 0 -189.5 75t-73.5 197t73.5 197t189.5 75zM306 124q49 0 75 37.5t26 97.5t-26 97t-75 37t-75 -37.5t-26 -96.5q0 -60 26 -97.5t75 -37.5zM241 578h-108v90q0 46 22 71.5t65 25.5q36 0 83 -31l27 -17
q14 -11 26 -11q15 0 15 21v43h109v-91q0 -45 -22.5 -70.5t-64.5 -25.5q-37 0 -83 30l-28 17q-17 11 -26 11q-15 0 -15 -21v-42z" />
    <glyph glyph-name="odieresis" unicode="&#xf6;" horiz-adv-x="612" 
d="M306 531q117 0 190.5 -75t73.5 -197t-73.5 -197t-190.5 -75q-116 0 -189.5 75t-73.5 197t73.5 197t189.5 75zM306 124q49 0 75 37.5t26 97.5t-26 97t-75 37t-75 -37.5t-26 -96.5q0 -60 26 -97.5t75 -37.5zM113 585v158h159v-158h-159zM340 585v158h159v-158h-159z" />
    <glyph glyph-name="divide" unicode="&#xf7;" horiz-adv-x="711" 
d="M265 468v174h179v-174h-179zM632 257h-556v144h556v-144zM265 10v174h179v-174h-179z" />
    <glyph glyph-name="oslash" unicode="&#xf8;" horiz-adv-x="613" 
d="M570 259q0 -120 -74 -196t-189 -76q-76 0 -139 39l-21 -26h-124l75 88q-55 69 -55 171q0 122 73.5 197t190.5 75q72 0 137 -38l20 25h126l-75 -88q55 -69 55 -171zM191 259q0 -28 5 -55l159 190q-26 7 -48 7q-54 0 -85 -41t-31 -101zM422 259q0 28 -5 55l-160 -190
q24 -8 50 -8q54 0 84.5 41t30.5 102z" />
    <glyph glyph-name="ugrave" unicode="&#xf9;" horiz-adv-x="628" 
d="M315 -11q-121 0 -185 63t-64 169v297h162v-289q0 -42 22 -66t63 -24q42 0 64.5 24t22.5 66v289h161v-297q0 -104 -63.5 -168t-182.5 -64zM391 582h-156l-108 190h163z" />
    <glyph glyph-name="uacute" unicode="&#xfa;" horiz-adv-x="628" 
d="M315 -11q-121 0 -185 63t-64 169v297h162v-289q0 -42 22 -66t63 -24q42 0 64.5 24t22.5 66v289h161v-297q0 -104 -63.5 -168t-182.5 -64zM233 582l101 190h163l-108 -190h-156z" />
    <glyph glyph-name="ucircumflex" unicode="&#xfb;" horiz-adv-x="628" 
d="M315 -11q-121 0 -185 63t-64 169v297h162v-289q0 -42 22 -66t63 -24q42 0 64.5 24t22.5 66v289h161v-297q0 -104 -63.5 -168t-182.5 -64zM369 581l-56 93l-57 -93h-141l125 198h146l121 -198h-138z" />
    <glyph glyph-name="udieresis" unicode="&#xfc;" horiz-adv-x="628" 
d="M315 -11q-121 0 -185 63t-64 169v297h162v-289q0 -42 22 -66t63 -24q42 0 64.5 24t22.5 66v289h161v-297q0 -104 -63.5 -168t-182.5 -64zM120 585v158h159v-158h-159zM347 585v158h159v-158h-159z" />
    <glyph glyph-name="yacute" unicode="&#xfd;" horiz-adv-x="576" 
d="M571 518l-267 -718h-163l77 202l-213 516h182l111 -300l110 300h163zM216 582l101 190h163l-108 -190h-156z" />
    <glyph glyph-name="thorn" unicode="&#xfe;" horiz-adv-x="639" 
d="M229 73v-273h-159v936h161v-293q5 9 14 20.5t26.5 28t46.5 27t63 10.5q94 0 154 -72t60 -198t-60 -198t-154 -72q-45 0 -81.5 19t-49.5 34.5t-21 30.5zM229 259q0 -61 26.5 -96.5t74.5 -35.5q47 0 74 36t27 96t-27 96t-74 36q-48 0 -74.5 -35.5t-26.5 -96.5z" />
    <glyph glyph-name="ydieresis" unicode="&#xff;" horiz-adv-x="576" 
d="M571 518l-267 -718h-163l77 202l-213 516h182l111 -300l110 300h163zM105 585v158h159v-158h-159zM332 585v158h159v-158h-159z" />
    <glyph glyph-name="Amacron" unicode="&#x100;" horiz-adv-x="766" 
d="M571 0l-46 123h-292l-46 -123h-169l272 711h185l274 -711h-178zM286 265h186l-93 250zM554 789h-352v122h352v-122z" />
    <glyph glyph-name="amacron" unicode="&#x101;" horiz-adv-x="629" 
d="M400 0v68q-10 -25 -45.5 -52t-95.5 -27q-95 0 -154.5 72.5t-59.5 197.5q0 124 60 196.5t155 72.5q32 0 58.5 -9t42.5 -23t24.5 -24t12.5 -19v65h161v-518h-159zM400 259q0 61 -25 96t-70 35q-46 0 -71.5 -35t-25.5 -96t26 -96.5t71 -35.5t70 35.5t25 96.5zM467 606h-328
v123h328v-123z" />
    <glyph glyph-name="Abreve" unicode="&#x102;" horiz-adv-x="766" 
d="M571 0l-46 123h-292l-46 -123h-169l272 711h185l274 -711h-178zM286 265h186l-93 250zM378 873q25 0 37.5 14.5t12.5 36.5v10h123v-13q0 -70 -44 -114.5t-129 -44.5t-129 44.5t-44 114.5v13h123v-10q0 -22 12.5 -36.5t37.5 -14.5z" />
    <glyph glyph-name="abreve" unicode="&#x103;" horiz-adv-x="629" 
d="M400 0v68q-10 -25 -45.5 -52t-95.5 -27q-95 0 -154.5 72.5t-59.5 197.5q0 124 60 196.5t155 72.5q32 0 58.5 -9t42.5 -23t24.5 -24t12.5 -19v65h161v-518h-159zM400 259q0 61 -25 96t-70 35q-46 0 -71.5 -35t-25.5 -96t26 -96.5t71 -35.5t70 35.5t25 96.5zM303 687
q23 0 34.5 14.5t11.5 36.5v16h122v-19q0 -70 -42.5 -114.5t-125.5 -44.5t-125.5 44.5t-42.5 114.5v19h122v-16q0 -51 46 -51z" />
    <glyph glyph-name="Aogonek" unicode="&#x104;" horiz-adv-x="766" 
d="M571 0l-46 123h-292l-46 -123h-169l272 711h185l274 -711h-1q-7 -6 -20.5 -17t-19 -16t-13 -12t-10.5 -13t-3 -11q0 -22 28 -22h59v-109h-143q-56 0 -89 22.5t-33 66.5q0 43 42 89l23 22h2zM286 265h186l-93 250z" />
    <glyph glyph-name="aogonek" unicode="&#x105;" horiz-adv-x="629" 
d="M400 0v68q-10 -25 -45.5 -52t-95.5 -27q-95 0 -154.5 72.5t-59.5 197.5q0 124 60 196.5t155 72.5q32 0 58.5 -9t42.5 -23t24.5 -24t12.5 -19v65h161v-518q-7 -6 -20 -16.5t-19 -16t-13 -12.5t-10 -13t-3 -11q0 -22 27 -22h59v-109h-143q-56 0 -88.5 22.5t-32.5 66.5
q0 22 14 44t27.5 33.5t42.5 33.5zM400 259q0 61 -25 96t-70 35q-46 0 -71.5 -35t-25.5 -96t26 -96.5t71 -35.5t70 35.5t25 96.5z" />
    <glyph glyph-name="Cacute" unicode="&#x106;" horiz-adv-x="725" 
d="M381 -12q-147 0 -237.5 101t-90.5 266q0 164 90.5 265.5t237.5 101.5q73 0 131.5 -23.5t92.5 -61t52.5 -77t21.5 -78.5h-164q-11 32 -44 59.5t-90 27.5q-72 0 -112.5 -60t-40.5 -154t40.5 -154t112.5 -60q58 0 91 27t44 60h163q-3 -36 -20 -74t-50 -77t-92.5 -64
t-135.5 -25zM299 769l103 162h175l-111 -162h-167z" />
    <glyph glyph-name="cacute" unicode="&#x107;" horiz-adv-x="564" 
d="M374 342q-21 49 -78 49q-41 0 -65.5 -36.5t-24.5 -95.5t24.5 -96t66.5 -37q24 0 42 10.5t24.5 20t10.5 19.5h155q-2 -30 -16 -60.5t-40 -60.5t-73 -49t-107 -19q-109 0 -179.5 75t-70.5 197q0 121 70.5 196.5t177.5 75.5q111 0 172 -60t66 -129h-155zM213 582l101 190
h163l-108 -190h-156z" />
    <glyph glyph-name="Ccircumflex" unicode="&#x108;" horiz-adv-x="725" 
d="M381 -12q-147 0 -237.5 101t-90.5 266q0 164 90.5 265.5t237.5 101.5q73 0 131.5 -23.5t92.5 -61t52.5 -77t21.5 -78.5h-164q-11 32 -44 59.5t-90 27.5q-72 0 -112.5 -60t-40.5 -154t40.5 -154t112.5 -60q58 0 91 27t44 60h163q-3 -36 -20 -74t-50 -77t-92.5 -64
t-135.5 -25zM442 768l-61 75l-61 -75h-149l133 166h154l130 -166h-146z" />
    <glyph glyph-name="ccircumflex" unicode="&#x109;" horiz-adv-x="564" 
d="M374 342q-21 49 -78 49q-41 0 -65.5 -36.5t-24.5 -95.5t24.5 -96t66.5 -37q24 0 42 10.5t24.5 20t10.5 19.5h155q-2 -30 -16 -60.5t-40 -60.5t-73 -49t-107 -19q-109 0 -179.5 75t-70.5 197q0 121 70.5 196.5t177.5 75.5q111 0 172 -60t66 -129h-155zM347 581l-56 93
l-57 -93h-141l125 198h146l121 -198h-138z" />
    <glyph glyph-name="Cdotaccent" unicode="&#x10a;" horiz-adv-x="725" 
d="M381 -12q-147 0 -237.5 101t-90.5 266q0 164 90.5 265.5t237.5 101.5q73 0 131.5 -23.5t92.5 -61t52.5 -77t21.5 -78.5h-164q-11 32 -44 59.5t-90 27.5q-72 0 -112.5 -60t-40.5 -154t40.5 -154t112.5 -60q58 0 91 27t44 60h163q-3 -36 -20 -74t-50 -77t-92.5 -64
t-135.5 -25zM296 769v159h170v-159h-170z" />
    <glyph glyph-name="cdotaccent" unicode="&#x10b;" horiz-adv-x="564" 
d="M374 342q-21 49 -78 49q-41 0 -65.5 -36.5t-24.5 -95.5t24.5 -96t66.5 -37q24 0 42 10.5t24.5 20t10.5 19.5h155q-2 -30 -16 -60.5t-40 -60.5t-73 -49t-107 -19q-109 0 -179.5 75t-70.5 197q0 121 70.5 196.5t177.5 75.5q111 0 172 -60t66 -129h-155zM206 585v160h170
v-160h-170z" />
    <glyph glyph-name="Ccaron" unicode="&#x10c;" horiz-adv-x="725" 
d="M381 -12q-147 0 -237.5 101t-90.5 266q0 164 90.5 265.5t237.5 101.5q73 0 131.5 -23.5t92.5 -61t52.5 -77t21.5 -78.5h-164q-11 32 -44 59.5t-90 27.5q-72 0 -112.5 -60t-40.5 -154t40.5 -154t112.5 -60q58 0 91 27t44 60h163q-3 -36 -20 -74t-50 -77t-92.5 -64
t-135.5 -25zM594 934l-136 -166h-154l-135 166h148l64 -77l64 77h149z" />
    <glyph glyph-name="ccaron" unicode="&#x10d;" horiz-adv-x="564" 
d="M374 342q-21 49 -78 49q-41 0 -65.5 -36.5t-24.5 -95.5t24.5 -96t66.5 -37q24 0 42 10.5t24.5 20t10.5 19.5h155q-2 -30 -16 -60.5t-40 -60.5t-73 -49t-107 -19q-109 0 -179.5 75t-70.5 197q0 121 70.5 196.5t177.5 75.5q111 0 172 -60t66 -129h-155zM485 780l-121 -198
h-146l-125 198h141l57 -93l56 93h138z" />
    <glyph glyph-name="Dcaron" unicode="&#x10e;" horiz-adv-x="772" 
d="M86 0v710h259q173 0 273.5 -91t100.5 -264q0 -170 -101 -262.5t-273 -92.5h-259zM342 564h-86v-418h86q97 0 150.5 54.5t53.5 154.5q0 102 -53 155.5t-151 53.5zM574 934l-136 -166h-154l-135 166h148l64 -77l64 77h149z" />
    <glyph glyph-name="dcaron" unicode="&#x10f;" horiz-adv-x="639" 
d="M410 0v69q-10 -25 -47.5 -52.5t-99.5 -27.5q-94 0 -156 73t-62 197t62 197t156 73q33 0 61 -9.5t45 -23.5t25.5 -24t13.5 -19v283h161v-736h-159zM410 259q0 59 -27 95.5t-74 36.5t-74 -36.5t-27 -95.5t27 -95.5t74 -36.5t74 36.5t27 95.5zM611 582l50 193h142l-58 -193
h-134z" />
    <glyph glyph-name="Dcroat" unicode="&#x110;" horiz-adv-x="794" 
d="M13 286v143h95v281h259q173 0 273.5 -91t100.5 -264q0 -170 -101 -262.5t-273 -92.5h-259v286h-95zM364 564h-86v-135h160v-143h-160v-140h86q97 0 150.5 54.5t53.5 154.5q0 102 -53 155.5t-151 53.5z" />
    <glyph glyph-name="dcroat" unicode="&#x111;" horiz-adv-x="639" 
d="M410 0v69q-10 -25 -47.5 -52.5t-99.5 -27.5q-94 0 -156 73t-62 197t62 197t156 73q33 0 61 -9.5t45 -23.5t25.5 -24t13.5 -19v117h-161v106h161v60h161v-60h70v-106h-70v-570h-159zM410 259q0 59 -27 95.5t-74 36.5t-74 -36.5t-27 -95.5t27 -95.5t74 -36.5t74 36.5
t27 95.5z" />
    <glyph glyph-name="Emacron" unicode="&#x112;" horiz-adv-x="708" 
d="M86 0v710h552v-140h-382v-128h225v-143h-225v-152h416v-147h-586zM541 789h-352v122h352v-122z" />
    <glyph glyph-name="emacron" unicode="&#x113;" horiz-adv-x="592" 
d="M298 531q117 0 186 -73.5t69 -198.5v-28h-351q3 -52 31.5 -83.5t75.5 -31.5q53 0 81 38h160q-3 -27 -17.5 -53.5t-41.5 -53.5t-74 -43.5t-108 -16.5q-123 0 -194.5 75t-71.5 197t70.5 197t184.5 75zM298 414q-39 0 -63.5 -23.5t-30.5 -63.5h187q-7 41 -31 64t-62 23z
M463 606h-328v123h328v-123z" />
    <glyph glyph-name="Ebreve" unicode="&#x114;" horiz-adv-x="708" 
d="M86 0v710h552v-140h-382v-128h225v-143h-225v-152h416v-147h-586zM365 873q25 0 37.5 14.5t12.5 36.5v10h123v-13q0 -70 -44 -114.5t-129 -44.5t-129 44.5t-44 114.5v13h123v-10q0 -22 12.5 -36.5t37.5 -14.5z" />
    <glyph glyph-name="ebreve" unicode="&#x115;" horiz-adv-x="592" 
d="M298 531q117 0 186 -73.5t69 -198.5v-28h-351q3 -52 31.5 -83.5t75.5 -31.5q53 0 81 38h160q-3 -27 -17.5 -53.5t-41.5 -53.5t-74 -43.5t-108 -16.5q-123 0 -194.5 75t-71.5 197t70.5 197t184.5 75zM298 414q-39 0 -63.5 -23.5t-30.5 -63.5h187q-7 41 -31 64t-62 23z
M298 687q23 0 34.5 14.5t11.5 36.5v16h122v-19q0 -70 -42.5 -114.5t-125.5 -44.5t-125.5 44.5t-42.5 114.5v19h122v-16q0 -51 46 -51z" />
    <glyph glyph-name="Edotaccent" unicode="&#x116;" horiz-adv-x="708" 
d="M86 0v710h552v-140h-382v-128h225v-143h-225v-152h416v-147h-586zM281 769v159h170v-159h-170z" />
    <glyph glyph-name="edotaccent" unicode="&#x117;" horiz-adv-x="592" 
d="M298 531q117 0 186 -73.5t69 -198.5v-28h-351q3 -52 31.5 -83.5t75.5 -31.5q53 0 81 38h160q-3 -27 -17.5 -53.5t-41.5 -53.5t-74 -43.5t-108 -16.5q-123 0 -194.5 75t-71.5 197t70.5 197t184.5 75zM298 414q-39 0 -63.5 -23.5t-30.5 -63.5h187q-7 41 -31 64t-62 23z
M213 585v160h170v-160h-170z" />
    <glyph glyph-name="Eogonek" unicode="&#x118;" horiz-adv-x="708" 
d="M86 0v710h552v-140h-382v-128h225v-143h-225v-152h416v-147h-586zM594 -91v-109h-143q-56 0 -89 22.5t-33 66.5q0 32 21.5 57.5t59.5 53.5h163q-8 -7 -20.5 -17t-19 -15.5t-13.5 -12.5t-10 -13t-3 -11q0 -22 28 -22h59z" />
    <glyph glyph-name="eogonek" unicode="&#x119;" horiz-adv-x="592" 
d="M298 531q117 0 186 -73.5t69 -198.5v-28h-351q3 -52 31.5 -83.5t75.5 -31.5q53 0 81 38h160q-10 -65 -82 -135l-7 -7q-38 -38 -50 -52.5t-12 -27.5q0 -23 29 -23h59v-109h-140q-56 0 -88.5 21.5t-32.5 62.5q0 55 92 103h-9q-123 0 -194.5 75t-71.5 197t70.5 197t184.5 75
zM298 414q-39 0 -63.5 -23.5t-30.5 -63.5h187q-7 41 -31 64t-62 23z" />
    <glyph glyph-name="Ecaron" unicode="&#x11a;" horiz-adv-x="708" 
d="M86 0v710h552v-140h-382v-128h225v-143h-225v-152h416v-147h-586zM578 934l-136 -166h-154l-135 166h148l64 -77l64 77h149z" />
    <glyph glyph-name="ecaron" unicode="&#x11b;" horiz-adv-x="592" 
d="M298 531q117 0 186 -73.5t69 -198.5v-28h-351q3 -52 31.5 -83.5t75.5 -31.5q53 0 81 38h160q-3 -27 -17.5 -53.5t-41.5 -53.5t-74 -43.5t-108 -16.5q-123 0 -194.5 75t-71.5 197t70.5 197t184.5 75zM298 414q-39 0 -63.5 -23.5t-30.5 -63.5h187q-7 41 -31 64t-62 23z
M492 780l-121 -198h-146l-125 198h141l57 -93l56 93h138z" />
    <glyph glyph-name="Gcircumflex" unicode="&#x11c;" horiz-adv-x="777" 
d="M706 72q-38 -32 -110 -58.5t-173 -26.5q-170 0 -270 101t-100 271q0 162 95.5 264t248.5 102q73 0 132 -21.5t93 -54.5t52.5 -66.5t23.5 -64.5h-168q-45 62 -131 62q-78 0 -125 -60.5t-47 -160.5q0 -104 52 -166.5t144 -62.5q79 0 120 24v128h-182v136h345v-346zM458 768
l-61 75l-61 -75h-149l133 166h154l130 -166h-146z" />
    <glyph glyph-name="gcircumflex" unicode="&#x11d;" horiz-adv-x="633" 
d="M404 17v63q-5 -9 -14 -20t-26 -27t-44.5 -26.5t-59.5 -10.5q-92 0 -153.5 73t-61.5 193q0 121 61 193.5t154 72.5q42 0 76 -18.5t46.5 -34t19.5 -29.5v72h161v-500q0 -106 -65 -167.5t-194 -61.5q-63 0 -114 17.5t-79 44t-43 50.5t-19 44h178q30 -30 77 -30q48 0 74 26.5
t26 75.5zM404 262q0 58 -26.5 93t-70.5 35q-45 0 -72 -35t-27 -93t27 -93.5t72 -35.5q44 0 70.5 35.5t26.5 93.5zM361 581l-56 93l-57 -93h-141l125 198h146l121 -198h-138z" />
    <glyph glyph-name="Gbreve" unicode="&#x11e;" horiz-adv-x="777" 
d="M706 72q-38 -32 -110 -58.5t-173 -26.5q-170 0 -270 101t-100 271q0 162 95.5 264t248.5 102q73 0 132 -21.5t93 -54.5t52.5 -66.5t23.5 -64.5h-168q-45 62 -131 62q-78 0 -125 -60.5t-47 -160.5q0 -104 52 -166.5t144 -62.5q79 0 120 24v128h-182v136h345v-346zM397 873
q25 0 37.5 14.5t12.5 36.5v10h123v-13q0 -70 -44 -114.5t-129 -44.5t-129 44.5t-44 114.5v13h123v-10q0 -22 12.5 -36.5t37.5 -14.5z" />
    <glyph glyph-name="gbreve" unicode="&#x11f;" horiz-adv-x="633" 
d="M404 17v63q-5 -9 -14 -20t-26 -27t-44.5 -26.5t-59.5 -10.5q-92 0 -153.5 73t-61.5 193q0 121 61 193.5t154 72.5q42 0 76 -18.5t46.5 -34t19.5 -29.5v72h161v-500q0 -106 -65 -167.5t-194 -61.5q-63 0 -114 17.5t-79 44t-43 50.5t-19 44h178q30 -30 77 -30q48 0 74 26.5
t26 75.5zM404 262q0 58 -26.5 93t-70.5 35q-45 0 -72 -35t-27 -93t27 -93.5t72 -35.5q44 0 70.5 35.5t26.5 93.5zM305 687q23 0 34.5 14.5t11.5 36.5v16h122v-19q0 -70 -42.5 -114.5t-125.5 -44.5t-125.5 44.5t-42.5 114.5v19h122v-16q0 -51 46 -51z" />
    <glyph glyph-name="Gdotaccent" unicode="&#x120;" horiz-adv-x="777" 
d="M706 72q-38 -32 -110 -58.5t-173 -26.5q-170 0 -270 101t-100 271q0 162 95.5 264t248.5 102q73 0 132 -21.5t93 -54.5t52.5 -66.5t23.5 -64.5h-168q-45 62 -131 62q-78 0 -125 -60.5t-47 -160.5q0 -104 52 -166.5t144 -62.5q79 0 120 24v128h-182v136h345v-346zM312 769
v159h170v-159h-170z" />
    <glyph glyph-name="gdotaccent" unicode="&#x121;" horiz-adv-x="633" 
d="M404 17v63q-5 -9 -14 -20t-26 -27t-44.5 -26.5t-59.5 -10.5q-92 0 -153.5 73t-61.5 193q0 121 61 193.5t154 72.5q42 0 76 -18.5t46.5 -34t19.5 -29.5v72h161v-500q0 -106 -65 -167.5t-194 -61.5q-63 0 -114 17.5t-79 44t-43 50.5t-19 44h178q30 -30 77 -30q48 0 74 26.5
t26 75.5zM404 262q0 58 -26.5 93t-70.5 35q-45 0 -72 -35t-27 -93t27 -93.5t72 -35.5q44 0 70.5 35.5t26.5 93.5zM220 585v160h170v-160h-170z" />
    <glyph glyph-name="uni0122" unicode="&#x122;" horiz-adv-x="777" 
d="M706 72q-38 -32 -110 -58.5t-173 -26.5q-170 0 -270 101t-100 271q0 162 95.5 264t248.5 102q73 0 132 -21.5t93 -54.5t52.5 -66.5t23.5 -64.5h-168q-45 62 -131 62q-78 0 -125 -60.5t-47 -160.5q0 -104 52 -166.5t144 -62.5q79 0 120 24v128h-182v136h345v-346z
M478 -320h-105q32 60 45 113h-79v140h175v-104q0 -71 -36 -149z" />
    <glyph glyph-name="uni0123" unicode="&#x123;" horiz-adv-x="633" 
d="M404 17v63q-5 -9 -14 -20t-26 -27t-44.5 -26.5t-59.5 -10.5q-92 0 -153.5 73t-61.5 193q0 121 61 193.5t154 72.5q42 0 76 -18.5t46.5 -34t19.5 -29.5v72h161v-500q0 -106 -65 -167.5t-194 -61.5q-63 0 -114 17.5t-79 44t-43 50.5t-19 44h178q30 -30 77 -30q48 0 74 26.5
t26 75.5zM404 262q0 58 -26.5 93t-70.5 35q-45 0 -72 -35t-27 -93t27 -93.5t72 -35.5q44 0 70.5 35.5t26.5 93.5zM246 838h105q-32 -60 -45 -113h79v-140h-175v104q0 71 36 149z" />
    <glyph glyph-name="Hcircumflex" unicode="&#x124;" horiz-adv-x="810" 
d="M554 0v281h-298v-281h-170v710h170v-279h298v279h170v-710h-170zM466 768l-61 75l-61 -75h-149l133 166h154l130 -166h-146z" />
    <glyph glyph-name="hcircumflex" unicode="&#x125;" horiz-adv-x="637" 
d="M231 286v-286h-161v736h161v-286q17 30 55.5 54.5t92.5 24.5q87 0 139.5 -58.5t52.5 -154.5v-316h-162v286q0 48 -23 74.5t-65 26.5t-66 -27t-24 -74zM381 794l-61 75l-61 -75h-149l133 166h154l130 -166h-146z" />
    <glyph glyph-name="Hbar" unicode="&#x126;" horiz-adv-x="810" 
d="M554 0v281h-298v-281h-170v515h-79v111h79v84h170v-84h298v84h170v-84h79v-111h-79v-515h-170zM256 431h298v84h-298v-84z" />
    <glyph glyph-name="hbar" unicode="&#x127;" horiz-adv-x="637" 
d="M231 286v-286h-161v570h-70v106h70v60h161v-60h161v-106h-161v-120q17 30 55.5 54.5t92.5 24.5q87 0 139.5 -58.5t52.5 -154.5v-316h-162v286q0 48 -23 74.5t-65 26.5t-66 -27t-24 -74z" />
    <glyph glyph-name="Itilde" unicode="&#x128;" horiz-adv-x="346" 
d="M88 0v710h170v-710h-170zM177 799l-34 17q-17 10 -28 10q-14 0 -14 -20v-40h-113v87q0 45 23 71t67 26q33 0 89 -29l33 -17q19 -10 29 -10q14 0 14 20v41h113v-88q0 -45 -23 -70.5t-67 -25.5q-36 0 -89 28z" />
    <glyph glyph-name="itilde" unicode="&#x129;" horiz-adv-x="303" 
d="M90 578h-107v90q0 45 22 71t64 26q35 0 80 -31l25 -17q18 -11 25 -11q14 0 14 21v43h108v-91q0 -96 -87 -96q-37 0 -80 30l-24 17q-17 11 -24 11q-16 0 -16 -21v-42zM70 0v518h163v-518h-163z" />
    <glyph glyph-name="Imacron" unicode="&#x12a;" horiz-adv-x="346" 
d="M88 0v710h170v-710h-170zM348 789h-352v122h352v-122z" />
    <glyph glyph-name="imacron" unicode="&#x12b;" horiz-adv-x="303" 
d="M306 606h-309v123h309v-123zM70 0v518h163v-518h-163z" />
    <glyph glyph-name="Ibreve" unicode="&#x12c;" horiz-adv-x="346" 
d="M88 0v710h170v-710h-170zM172 873q25 0 37.5 14.5t12.5 36.5v10h123v-13q0 -70 -44 -114.5t-129 -44.5t-129 44.5t-44 114.5v13h123v-10q0 -22 12.5 -36.5t37.5 -14.5z" />
    <glyph glyph-name="ibreve" unicode="&#x12d;" horiz-adv-x="303" 
d="M151 687q23 0 34.5 14.5t11.5 36.5v16h122v-19q0 -70 -42.5 -114.5t-125.5 -44.5t-125 44.5t-42 114.5v19h122v-16q0 -51 45 -51zM70 0v518h163v-518h-163z" />
    <glyph glyph-name="Iogonek" unicode="&#x12e;" horiz-adv-x="346" 
d="M88 0v710h170v-710q-7 -6 -20.5 -17t-19 -16t-13 -12t-10.5 -13t-3 -11q0 -22 28 -22h58v-109h-142q-56 0 -89 22.5t-33 66.5q0 32 19.5 57.5t54.5 53.5z" />
    <glyph glyph-name="iogonek" unicode="&#x12f;" horiz-adv-x="303" 
d="M67 585v160h169v-160h-169zM70 0v518h163v-518h-163zM254 -91v-109h-143q-56 0 -89 22.5t-33 66.5q0 32 21.5 57.5t59.5 53.5h163q-8 -7 -20.5 -17t-19 -15.5t-13.5 -12.5t-10 -13t-3 -11q0 -22 28 -22h59z" />
    <glyph glyph-name="Idotaccent" unicode="&#x130;" horiz-adv-x="346" 
d="M88 0v710h170v-710h-170zM87 769v159h170v-159h-170z" />
    <glyph glyph-name="dotlessi" unicode="&#x131;" horiz-adv-x="303" 
d="M70 0v518h163v-518h-163z" />
    <glyph glyph-name="IJ" unicode="&#x132;" horiz-adv-x="1009" 
d="M88 0v710h170v-710h-170zM926 224q0 -111 -68.5 -174.5t-191.5 -63.5q-122 0 -186.5 63t-64.5 175v203h162v-189q0 -47 22.5 -74t66.5 -27t66.5 27t22.5 74v472h171v-486z" />
    <glyph glyph-name="ij" unicode="&#x133;" horiz-adv-x="607" 
d="M67 585v160h169v-160h-169zM70 0v518h163v-518h-163zM371 585v160h169v-160h-169zM537 518v-548q0 -89 -40 -129.5t-122 -40.5h-175v125h105q38 0 53.5 15.5t15.5 51.5v526h163z" />
    <glyph glyph-name="Jcircumflex" unicode="&#x134;" horiz-adv-x="663" 
d="M580 224q0 -111 -68.5 -174.5t-191.5 -63.5q-122 0 -186.5 63t-64.5 175v203h162v-189q0 -47 22.5 -74t66.5 -27t66.5 27t22.5 74v472h171v-486zM554 768l-61 75l-61 -75h-149l133 166h154l130 -166h-146z" />
    <glyph glyph-name="jcircumflex" unicode="&#x135;" horiz-adv-x="304" 
d="M206 581l-54 93l-55 -93h-141l121 198h149l118 -198h-138zM234 -30q0 -89 -40 -129.5t-122 -40.5h-175v125h105q38 0 53.5 15.5t15.5 51.5v526h163v-548z" />
    <glyph glyph-name="uni0136" unicode="&#x136;" horiz-adv-x="756" 
d="M529 0l-273 312v-312h-170v710h170v-301l270 301h210l-305 -338l322 -372h-224zM440 -320h-105q32 60 45 113h-79v140h175v-104q0 -71 -36 -149z" />
    <glyph glyph-name="uni0137" unicode="&#x137;" horiz-adv-x="609" 
d="M416 0l-184 227v-227h-162v736h162v-422l171 204h194l-202 -239l223 -279h-202zM375 -320h-105q32 60 45 113h-79v140h175v-104q0 -71 -36 -149z" />
    <glyph glyph-name="Lacute" unicode="&#x139;" horiz-adv-x="670" 
d="M636 154v-154h-550v710h170v-556h380zM90 769l103 162h175l-111 -162h-167z" />
    <glyph glyph-name="lacute" unicode="&#x13a;" horiz-adv-x="307" 
d="M72 0v736h163v-736h-163zM71 795l103 162h175l-111 -162h-167z" />
    <glyph glyph-name="uni013B" unicode="&#x13b;" horiz-adv-x="670" 
d="M636 154v-154h-550v710h170v-556h380zM422 -320h-105q32 60 45 113h-79v140h175v-104q0 -71 -36 -149z" />
    <glyph glyph-name="uni013C" unicode="&#x13c;" horiz-adv-x="307" 
d="M72 0v736h163v-736h-163zM209 -320h-105q32 60 45 113h-79v140h175v-104q0 -71 -36 -149z" />
    <glyph glyph-name="Lcaron" unicode="&#x13d;" horiz-adv-x="670" 
d="M636 154v-154h-550v710h170v-556h380zM301 582l50 193h142l-58 -193h-134z" />
    <glyph glyph-name="lcaron" unicode="&#x13e;" horiz-adv-x="309" 
d="M72 0v736h163v-736h-163zM277 582l50 193h142l-58 -193h-134z" />
    <glyph glyph-name="Ldot" unicode="&#x13f;" horiz-adv-x="670" 
d="M636 154v-154h-550v710h170v-556h380zM416 312v196h187v-196h-187z" />
    <glyph glyph-name="ldot" unicode="&#x140;" horiz-adv-x="541" 
d="M72 0v736h163v-736h-163zM331 266v196h187v-196h-187z" />
    <glyph glyph-name="Lslash" unicode="&#x141;" horiz-adv-x="685" 
d="M649 154v-154h-550v201l-85 -40v138l85 41v370h170v-289l231 111v-142l-231 -109v-127h380z" />
    <glyph glyph-name="lslash" unicode="&#x142;" horiz-adv-x="379" 
d="M19 251v134l87 38v313h163v-242l92 40v-137l-92 -40v-357h-163v288z" />
    <glyph glyph-name="Nacute" unicode="&#x143;" horiz-adv-x="812" 
d="M725 710v-714h-139l-334 477v-473h-166v710h192l285 -418v418h162zM334 769l103 162h175l-111 -162h-167z" />
    <glyph glyph-name="nacute" unicode="&#x144;" horiz-adv-x="637" 
d="M231 288v-288h-161v518h161v-67q17 30 55.5 54t92.5 24q87 0 139.5 -57.5t52.5 -153.5v-318h-162v288q0 47 -23 73t-65 26t-66 -26.5t-24 -72.5zM237 582l101 190h163l-108 -190h-156z" />
    <glyph glyph-name="uni0145" unicode="&#x145;" horiz-adv-x="812" 
d="M725 710v-714h-139l-334 477v-473h-166v710h192l285 -418v418h162zM469 -320h-105q32 60 45 113h-79v140h175v-104q0 -71 -36 -149z" />
    <glyph glyph-name="uni0146" unicode="&#x146;" horiz-adv-x="637" 
d="M231 288v-288h-161v518h161v-67q17 30 55.5 54t92.5 24q87 0 139.5 -57.5t52.5 -153.5v-318h-162v288q0 47 -23 73t-65 26t-66 -26.5t-24 -72.5zM377 -320h-105q32 60 45 113h-79v140h175v-104q0 -71 -36 -149z" />
    <glyph glyph-name="Ncaron" unicode="&#x147;" horiz-adv-x="812" 
d="M725 710v-714h-139l-334 477v-473h-166v710h192l285 -418v418h162zM628 934l-136 -166h-154l-135 166h148l64 -77l64 77h149z" />
    <glyph glyph-name="ncaron" unicode="&#x148;" horiz-adv-x="637" 
d="M231 288v-288h-161v518h161v-67q17 30 55.5 54t92.5 24q87 0 139.5 -57.5t52.5 -153.5v-318h-162v288q0 47 -23 73t-65 26t-66 -26.5t-24 -72.5zM505 780l-121 -198h-146l-125 198h141l57 -93l56 93h138z" />
    <glyph glyph-name="napostrophe" unicode="&#x149;" horiz-adv-x="903" 
d="M497 288v-288h-161v518h161v-67q17 30 55.5 54t92.5 24q87 0 139.5 -57.5t52.5 -153.5v-318h-162v288q0 47 -23 73t-65 26t-66 -26.5t-24 -72.5zM179 369h-111q62 106 68 189h-86v178h183v-155q0 -120 -54 -212z" />
    <glyph glyph-name="Eng" unicode="&#x14a;" horiz-adv-x="812" 
d="M726 -26q0 -92 -41 -133t-126 -41h-148v126h86q74 0 74 60q0 32 -42 91l-277 397v-474h-166v710h192l286 -419v419h162v-736z" />
    <glyph glyph-name="eng" unicode="&#x14b;" horiz-adv-x="637" 
d="M571 -30q0 -89 -39.5 -129.5t-121.5 -40.5h-147v125h77q38 0 53.5 15.5t15.5 51.5v296q0 47 -23 73t-65 26t-66 -26.5t-24 -72.5v-288h-161v518h161v-67q17 30 55.5 54t92.5 24q87 0 139.5 -57.5t52.5 -153.5v-348z" />
    <glyph glyph-name="Omacron" unicode="&#x14c;" horiz-adv-x="783" 
d="M392 -12q-149 0 -244 100t-95 267q0 168 95 267.5t244 99.5q148 0 243 -99.5t95 -267.5q0 -167 -95 -267t-243 -100zM392 140q78 0 122 60t44 155t-44 155t-122 60t-122 -60t-44 -155t44 -155t122 -60zM568 789h-352v122h352v-122z" />
    <glyph glyph-name="omacron" unicode="&#x14d;" horiz-adv-x="612" 
d="M306 531q117 0 190.5 -75t73.5 -197t-73.5 -197t-190.5 -75q-116 0 -189.5 75t-73.5 197t73.5 197t189.5 75zM306 124q49 0 75 37.5t26 97.5t-26 97t-75 37t-75 -37.5t-26 -96.5q0 -60 26 -97.5t75 -37.5zM470 606h-328v123h328v-123z" />
    <glyph glyph-name="Obreve" unicode="&#x14e;" horiz-adv-x="783" 
d="M392 -12q-149 0 -244 100t-95 267q0 168 95 267.5t244 99.5q148 0 243 -99.5t95 -267.5q0 -167 -95 -267t-243 -100zM392 140q78 0 122 60t44 155t-44 155t-122 60t-122 -60t-44 -155t44 -155t122 -60zM392 873q25 0 37.5 14.5t12.5 36.5v10h123v-13q0 -70 -44 -114.5
t-129 -44.5t-129 44.5t-44 114.5v13h123v-10q0 -22 12.5 -36.5t37.5 -14.5z" />
    <glyph glyph-name="obreve" unicode="&#x14f;" horiz-adv-x="612" 
d="M306 531q117 0 190.5 -75t73.5 -197t-73.5 -197t-190.5 -75q-116 0 -189.5 75t-73.5 197t73.5 197t189.5 75zM306 124q49 0 75 37.5t26 97.5t-26 97t-75 37t-75 -37.5t-26 -96.5q0 -60 26 -97.5t75 -37.5zM306 687q23 0 34.5 14.5t11.5 36.5v16h122v-19
q0 -70 -42.5 -114.5t-125.5 -44.5t-125.5 44.5t-42.5 114.5v19h122v-16q0 -51 46 -51z" />
    <glyph glyph-name="Ohungarumlaut" unicode="&#x150;" horiz-adv-x="783" 
d="M392 -12q-149 0 -244 100t-95 267q0 168 95 267.5t244 99.5q148 0 243 -99.5t95 -267.5q0 -167 -95 -267t-243 -100zM392 140q78 0 122 60t44 155t-44 155t-122 60t-122 -60t-44 -155t44 -155t122 -60zM426 769l77 162h154l-83 -162h-148zM209 769l73 162h155l-80 -162
h-148z" />
    <glyph glyph-name="ohungarumlaut" unicode="&#x151;" horiz-adv-x="612" 
d="M306 531q117 0 190.5 -75t73.5 -197t-73.5 -197t-190.5 -75q-116 0 -189.5 75t-73.5 197t73.5 197t189.5 75zM306 124q49 0 75 37.5t26 97.5t-26 97t-75 37t-75 -37.5t-26 -96.5q0 -60 26 -97.5t75 -37.5zM347 582l70 190h136l-75 -190h-131zM149 582l70 190h136
l-75 -190h-131z" />
    <glyph glyph-name="OE" unicode="&#x152;" horiz-adv-x="1058" 
d="M53 355q0 165 103.5 260t274.5 95h557v-140h-339v-128h206v-143h-206v-152h373v-147h-591q-172 0 -275 94.5t-103 260.5zM433 147h46v417h-46q-97 0 -152.5 -57.5t-55.5 -151.5t55.5 -151t152.5 -57z" />
    <glyph glyph-name="oe" unicode="&#x153;" horiz-adv-x="951" 
d="M661 531q115 0 182.5 -73.5t67.5 -198.5v-33h-345q4 -50 31 -80t72 -30q52 0 78 36h161q-3 -26 -17.5 -52t-41 -52.5t-73.5 -43.5t-107 -17q-62 0 -111 23.5t-77 61.5q-57 -85 -179 -85q-115 0 -187 75t-72 197t72 197t187 75q125 0 181 -85q25 38 72 61.5t106 23.5z
M659 414q-39 0 -63 -23.5t-29 -66.5h184q-7 43 -30.5 66.5t-61.5 23.5zM305 124q48 0 73.5 37.5t25.5 97.5t-25.5 97t-73.5 37q-47 0 -73.5 -37t-26.5 -97t26.5 -97.5t73.5 -37.5z" />
    <glyph glyph-name="Racute" unicode="&#x154;" horiz-adv-x="773" 
d="M86 0v710h364q119 0 184.5 -56.5t65.5 -164.5q0 -146 -126 -196l167 -293h-182l-155 272h-149v-272h-169zM433 564h-178v-150h178q93 0 93 75t-93 75zM289 769l103 162h175l-111 -162h-167z" />
    <glyph glyph-name="racute" unicode="&#x155;" horiz-adv-x="499" 
d="M231 256v-256h-161v518h161v-76q40 77 150 77h89v-160h-119q-63 0 -91.5 -24.5t-28.5 -78.5zM192 582l101 190h163l-108 -190h-156z" />
    <glyph glyph-name="uni0156" unicode="&#x156;" horiz-adv-x="773" 
d="M86 0v710h364q119 0 184.5 -56.5t65.5 -164.5q0 -146 -126 -196l167 -293h-182l-155 272h-149v-272h-169zM433 564h-178v-150h178q93 0 93 75t-93 75zM451 -320h-105q32 60 45 113h-79v140h175v-104q0 -71 -36 -149z" />
    <glyph glyph-name="uni0157" unicode="&#x157;" horiz-adv-x="499" 
d="M231 256v-256h-161v518h161v-76q40 77 150 77h89v-160h-119q-63 0 -91.5 -24.5t-28.5 -78.5zM204 -320h-105q32 60 45 113h-79v140h175v-104q0 -71 -36 -149z" />
    <glyph glyph-name="Rcaron" unicode="&#x158;" horiz-adv-x="773" 
d="M86 0v710h364q119 0 184.5 -56.5t65.5 -164.5q0 -146 -126 -196l167 -293h-182l-155 272h-149v-272h-169zM433 564h-178v-150h178q93 0 93 75t-93 75zM584 934l-136 -166h-154l-135 166h148l64 -77l64 77h149z" />
    <glyph glyph-name="rcaron" unicode="&#x159;" horiz-adv-x="499" 
d="M231 256v-256h-161v518h161v-76q40 77 150 77h89v-160h-119q-63 0 -91.5 -24.5t-28.5 -78.5zM464 780l-121 -198h-146l-125 198h141l57 -93l56 93h138z" />
    <glyph glyph-name="Sacute" unicode="&#x15a;" horiz-adv-x="709" 
d="M331 586q-48 0 -75.5 -18t-27.5 -48q0 -55 93 -68l71 -9q131 -17 198 -67t67 -159q0 -104 -76.5 -167t-213.5 -63q-80 0 -143 20.5t-100 54.5t-58.5 69.5t-30.5 74.5h181q12 -31 50 -55.5t101 -24.5q56 0 85.5 20.5t29.5 56.5t-25.5 53.5t-74.5 24.5l-72 10
q-124 17 -189.5 69.5t-65.5 152.5q0 98 76 154t200 56q76 0 134.5 -18t93 -49t53.5 -62t28 -67h-174q-38 59 -135 59zM263 769l103 162h175l-111 -162h-167z" />
    <glyph glyph-name="sacute" unicode="&#x15b;" horiz-adv-x="563" 
d="M307 192l-61 6q-204 19 -204 168q0 77 62 121.5t165 44.5q65 0 113.5 -15t74.5 -39.5t39 -47.5t16 -46h-160q-4 6 -11.5 12.5t-26.5 13.5t-43 7q-68 0 -68 -43q0 -35 56 -41l54 -5q111 -8 161.5 -49t50.5 -122q0 -80 -60.5 -125.5t-176.5 -45.5q-67 0 -118.5 16.5
t-79 42.5t-41.5 51t-17 48h165q19 -41 91 -41q75 0 75 43q0 21 -12.5 32t-43.5 14zM192 582l101 190h163l-108 -190h-156z" />
    <glyph glyph-name="Scircumflex" unicode="&#x15c;" horiz-adv-x="709" 
d="M331 586q-48 0 -75.5 -18t-27.5 -48q0 -55 93 -68l71 -9q131 -17 198 -67t67 -159q0 -104 -76.5 -167t-213.5 -63q-80 0 -143 20.5t-100 54.5t-58.5 69.5t-30.5 74.5h181q12 -31 50 -55.5t101 -24.5q56 0 85.5 20.5t29.5 56.5t-25.5 53.5t-74.5 24.5l-72 10
q-124 17 -189.5 69.5t-65.5 152.5q0 98 76 154t200 56q76 0 134.5 -18t93 -49t53.5 -62t28 -67h-174q-38 59 -135 59zM407 768l-61 75l-61 -75h-149l133 166h154l130 -166h-146z" />
    <glyph glyph-name="scircumflex" unicode="&#x15d;" horiz-adv-x="563" 
d="M307 192l-61 6q-204 19 -204 168q0 77 62 121.5t165 44.5q65 0 113.5 -15t74.5 -39.5t39 -47.5t16 -46h-160q-4 6 -11.5 12.5t-26.5 13.5t-43 7q-68 0 -68 -43q0 -35 56 -41l54 -5q111 -8 161.5 -49t50.5 -122q0 -80 -60.5 -125.5t-176.5 -45.5q-67 0 -118.5 16.5
t-79 42.5t-41.5 51t-17 48h165q19 -41 91 -41q75 0 75 43q0 21 -12.5 32t-43.5 14zM334 581l-56 93l-57 -93h-141l125 198h146l121 -198h-138z" />
    <glyph glyph-name="uni015E" unicode="&#x15e;" horiz-adv-x="709" 
d="M331 586q-48 0 -75.5 -18t-27.5 -48q0 -55 93 -68l71 -9q131 -17 198 -67t67 -159q0 -104 -76.5 -167t-213.5 -63q-80 0 -143 20.5t-100 54.5t-58.5 69.5t-30.5 74.5h181q12 -31 50 -55.5t101 -24.5q56 0 85.5 20.5t29.5 56.5t-25.5 53.5t-74.5 24.5l-72 10
q-124 17 -189.5 69.5t-65.5 152.5q0 98 76 154t200 56q76 0 134.5 -18t93 -49t53.5 -62t28 -67h-174q-38 59 -135 59zM497 -161q0 -59 -33.5 -92.5t-98.5 -33.5h-124v103h100q32 0 32 27q0 26 -32 26h-78v131h115v-43q57 -1 88 -32t31 -86z" />
    <glyph glyph-name="uni015F" unicode="&#x15f;" horiz-adv-x="563" 
d="M307 192l-61 6q-204 19 -204 168q0 77 62 121.5t165 44.5q65 0 113.5 -15t74.5 -39.5t39 -47.5t16 -46h-160q-4 6 -11.5 12.5t-26.5 13.5t-43 7q-68 0 -68 -43q0 -35 56 -41l54 -5q111 -8 161.5 -49t50.5 -122q0 -79 -60 -125q-52 -40 -154 -45v-30q57 -1 88 -32t31 -86
q0 -59 -33 -92.5t-98 -33.5h-124v103h99q32 0 32 27q0 26 -32 26h-78v126q-2 1 -12 3.5t-15 4.5q-66 23 -99 62.5t-38 78.5h165q19 -41 91 -41q75 0 75 43q0 21 -12.5 32t-43.5 14z" />
    <glyph glyph-name="Scaron" unicode="&#x160;" horiz-adv-x="709" 
d="M331 586q-48 0 -75.5 -18t-27.5 -48q0 -55 93 -68l71 -9q131 -17 198 -67t67 -159q0 -104 -76.5 -167t-213.5 -63q-80 0 -143 20.5t-100 54.5t-58.5 69.5t-30.5 74.5h181q12 -31 50 -55.5t101 -24.5q56 0 85.5 20.5t29.5 56.5t-25.5 53.5t-74.5 24.5l-72 10
q-124 17 -189.5 69.5t-65.5 152.5q0 98 76 154t200 56q76 0 134.5 -18t93 -49t53.5 -62t28 -67h-174q-38 59 -135 59zM558 934l-136 -166h-154l-135 166h148l64 -77l64 77h149z" />
    <glyph glyph-name="scaron" unicode="&#x161;" horiz-adv-x="563" 
d="M307 192l-61 6q-204 19 -204 168q0 77 62 121.5t165 44.5q65 0 113.5 -15t74.5 -39.5t39 -47.5t16 -46h-160q-4 6 -11.5 12.5t-26.5 13.5t-43 7q-68 0 -68 -43q0 -35 56 -41l54 -5q111 -8 161.5 -49t50.5 -122q0 -80 -60.5 -125.5t-176.5 -45.5q-67 0 -118.5 16.5
t-79 42.5t-41.5 51t-17 48h165q19 -41 91 -41q75 0 75 43q0 21 -12.5 32t-43.5 14zM467 780l-121 -198h-146l-125 198h141l57 -93l56 93h138z" />
    <glyph glyph-name="Tcommaaccent" unicode="&#x162;" horiz-adv-x="725" 
d="M35 562v148h655v-148h-243v-562h-169v562h-243zM418 -320h-105q32 60 45 113h-79v140h175v-104q0 -71 -36 -149z" />
    <glyph glyph-name="tcommaaccent" unicode="&#x163;" horiz-adv-x="511" 
d="M466 143v-143h-145q-174 0 -174 164v219h-121v135h121v192h162v-192h157v-135h-157v-163q0 -41 16.5 -59t60.5 -18h80zM345 -320h-105q32 60 45 113h-79v140h175v-104q0 -71 -36 -149z" />
    <glyph glyph-name="Tcaron" unicode="&#x164;" horiz-adv-x="725" 
d="M35 562v148h655v-148h-243v-562h-169v562h-243zM575 934l-136 -166h-154l-135 166h148l64 -77l64 77h149z" />
    <glyph glyph-name="tcaron" unicode="&#x165;" horiz-adv-x="511" 
d="M466 143v-143h-145q-174 0 -174 164v219h-121v135h121v192h162v-192h157v-135h-157v-163q0 -41 16.5 -59t60.5 -18h80zM351 582l50 193h142l-58 -193h-134z" />
    <glyph glyph-name="Tbar" unicode="&#x166;" horiz-adv-x="725" 
d="M116 289v131h162v142h-243v148h655v-148h-243v-142h162v-131h-162v-289h-169v289h-162z" />
    <glyph glyph-name="tbar" unicode="&#x167;" horiz-adv-x="529" 
d="M476 143v-143h-145q-174 0 -174 164v68h-122v97h122v62h-122v127h122v192h161v-192h158v-127h-158v-62h158v-97h-158v-20q0 -36 15 -52.5t53 -16.5h90z" />
    <glyph glyph-name="Utilde" unicode="&#x168;" horiz-adv-x="795" 
d="M398 140q69 0 107.5 42.5t38.5 112.5v415h169v-426q0 -131 -83 -215t-232 -84q-153 0 -234.5 83.5t-81.5 215.5v426h170v-415q0 -71 38 -113t108 -42zM403 799l-34 17q-17 10 -28 10q-14 0 -14 -20v-40h-113v87q0 45 23 71t67 26q33 0 89 -29l33 -17q19 -10 29 -10
q14 0 14 20v41h113v-88q0 -45 -23 -70.5t-67 -25.5q-36 0 -89 28z" />
    <glyph glyph-name="utilde" unicode="&#x169;" horiz-adv-x="628" 
d="M315 -11q-121 0 -185 63t-64 169v297h162v-289q0 -42 22 -66t63 -24q42 0 64.5 24t22.5 66v289h161v-297q0 -104 -63.5 -168t-182.5 -64zM248 578h-108v90q0 46 22 71.5t65 25.5q36 0 83 -31l27 -17q14 -11 26 -11q15 0 15 21v43h109v-91q0 -45 -22.5 -70.5t-64.5 -25.5
q-37 0 -83 30l-28 17q-17 11 -26 11q-15 0 -15 -21v-42z" />
    <glyph glyph-name="Umacron" unicode="&#x16a;" horiz-adv-x="795" 
d="M398 140q69 0 107.5 42.5t38.5 112.5v415h169v-426q0 -131 -83 -215t-232 -84q-153 0 -234.5 83.5t-81.5 215.5v426h170v-415q0 -71 38 -113t108 -42zM574 789h-352v122h352v-122z" />
    <glyph glyph-name="umacron" unicode="&#x16b;" horiz-adv-x="628" 
d="M315 -11q-121 0 -185 63t-64 169v297h162v-289q0 -42 22 -66t63 -24q42 0 64.5 24t22.5 66v289h161v-297q0 -104 -63.5 -168t-182.5 -64zM478 606h-328v123h328v-123z" />
    <glyph glyph-name="Ubreve" unicode="&#x16c;" horiz-adv-x="795" 
d="M398 140q69 0 107.5 42.5t38.5 112.5v415h169v-426q0 -131 -83 -215t-232 -84q-153 0 -234.5 83.5t-81.5 215.5v426h170v-415q0 -71 38 -113t108 -42zM398 873q25 0 37.5 14.5t12.5 36.5v10h123v-13q0 -70 -44 -114.5t-129 -44.5t-129 44.5t-44 114.5v13h123v-10
q0 -22 12.5 -36.5t37.5 -14.5z" />
    <glyph glyph-name="ubreve" unicode="&#x16d;" horiz-adv-x="628" 
d="M315 -11q-121 0 -185 63t-64 169v297h162v-289q0 -42 22 -66t63 -24q42 0 64.5 24t22.5 66v289h161v-297q0 -104 -63.5 -168t-182.5 -64zM313 687q23 0 34.5 14.5t11.5 36.5v16h122v-19q0 -70 -42.5 -114.5t-125.5 -44.5t-125.5 44.5t-42.5 114.5v19h122v-16
q0 -51 46 -51z" />
    <glyph glyph-name="Uring" unicode="&#x16e;" horiz-adv-x="795" 
d="M398 140q69 0 107.5 42.5t38.5 112.5v415h169v-426q0 -131 -83 -215t-232 -84q-153 0 -234.5 83.5t-81.5 215.5v426h170v-415q0 -71 38 -113t108 -42zM398 759q-61 0 -100.5 39.5t-39.5 97.5q0 59 39.5 98t100.5 39t101 -39t40 -98q0 -58 -40 -97.5t-101 -39.5zM398 840
q24 0 39.5 15.5t15.5 40.5t-15 40.5t-40 15.5t-40 -15.5t-15 -40.5t15.5 -40.5t39.5 -15.5z" />
    <glyph glyph-name="uring" unicode="&#x16f;" horiz-adv-x="628" 
d="M315 -11q-121 0 -185 63t-64 169v297h162v-289q0 -42 22 -66t63 -24q42 0 64.5 24t22.5 66v289h161v-297q0 -104 -63.5 -168t-182.5 -64zM313 572q-60 0 -99.5 39t-39.5 97q0 59 39.5 98t99.5 39q61 0 100.5 -39t39.5 -98q0 -58 -40 -97t-100 -39zM313 653
q24 0 39.5 15.5t15.5 39.5q0 25 -15.5 40.5t-39.5 15.5t-39.5 -15.5t-15.5 -40.5q0 -24 15.5 -39.5t39.5 -15.5z" />
    <glyph glyph-name="Uhungarumlaut" unicode="&#x170;" horiz-adv-x="795" 
d="M398 140q69 0 107.5 42.5t38.5 112.5v415h169v-426q0 -131 -83 -215t-232 -84q-153 0 -234.5 83.5t-81.5 215.5v426h170v-415q0 -71 38 -113t108 -42zM433 769l77 162h154l-83 -162h-148zM216 769l73 162h155l-80 -162h-148z" />
    <glyph glyph-name="uhungarumlaut" unicode="&#x171;" horiz-adv-x="628" 
d="M315 -11q-121 0 -185 63t-64 169v297h162v-289q0 -42 22 -66t63 -24q42 0 64.5 24t22.5 66v289h161v-297q0 -104 -63.5 -168t-182.5 -64zM343 582l70 190h136l-75 -190h-131zM145 582l70 190h136l-75 -190h-131z" />
    <glyph glyph-name="Uogonek" unicode="&#x172;" horiz-adv-x="795" 
d="M600 -91v-109h-142q-56 0 -89 22.5t-33 63.5q0 55 87 100q-8 -1 -25 -1q-153 0 -234.5 83.5t-81.5 215.5v426h170v-415q0 -71 38 -113t108 -42q69 0 107.5 42.5t38.5 112.5v415h169v-426q0 -84 -32 -146t-92 -117q-25 -23 -34.5 -32.5t-21.5 -22t-15.5 -20t-3.5 -15.5
q0 -22 28 -22h58z" />
    <glyph glyph-name="uogonek" unicode="&#x173;" horiz-adv-x="628" 
d="M502 -91v-109h-143q-56 0 -89 22t-33 64q0 32 23.5 56t69.5 47h-15q-121 0 -185 63t-64 169v297h162v-289q0 -42 22 -66t63 -24q42 0 64.5 24t22.5 66v289h161v-297q0 -65 -23 -112t-64 -92q-36 -39 -47.5 -55t-11.5 -30q0 -23 28 -23h59z" />
    <glyph glyph-name="Wcircumflex" unicode="&#x174;" horiz-adv-x="1036" 
d="M651 -1l-134 454l-134 -454h-152l-208 711h179l121 -446l126 447h154l128 -451l120 450h161l-200 -711h-161zM579 768l-61 75l-61 -75h-149l133 166h154l130 -166h-146z" />
    <glyph glyph-name="wcircumflex" unicode="&#x175;" horiz-adv-x="845" 
d="M514 -1l-89 313l-89 -313h-156l-171 519h174l86 -304l88 305h152l87 -303l86 302h154l-160 -519h-162zM483 581l-56 93l-57 -93h-141l125 198h146l121 -198h-138z" />
    <glyph glyph-name="Ycircumflex" unicode="&#x176;" horiz-adv-x="723" 
d="M456 285v-285h-179v289l-275 421h212l159 -250l159 250h189zM434 768l-61 75l-61 -75h-149l133 166h154l130 -166h-146z" />
    <glyph glyph-name="ycircumflex" unicode="&#x177;" horiz-adv-x="576" 
d="M571 518l-267 -718h-163l77 202l-213 516h182l111 -300l110 300h163zM354 581l-56 93l-57 -93h-141l125 198h146l121 -198h-138z" />
    <glyph glyph-name="Ydieresis" unicode="&#x178;" horiz-adv-x="723" 
d="M456 285v-285h-179v289l-275 421h212l159 -250l159 250h189zM177 769v158h160v-158h-160zM409 769v158h160v-158h-160z" />
    <glyph glyph-name="Zacute" unicode="&#x179;" horiz-adv-x="726" 
d="M690 147v-147h-643v97l357 467h-347v146h596v-95l-358 -468h395zM267 769l103 162h175l-111 -162h-167z" />
    <glyph glyph-name="zacute" unicode="&#x17a;" horiz-adv-x="579" 
d="M551 132v-132h-508v88l239 299h-235v131h470v-87l-243 -299h277zM198 582l101 190h163l-108 -190h-156z" />
    <glyph glyph-name="Zdotaccent" unicode="&#x17b;" horiz-adv-x="726" 
d="M690 147v-147h-643v97l357 467h-347v146h596v-95l-358 -468h395zM269 769v159h170v-159h-170z" />
    <glyph glyph-name="zdotaccent" unicode="&#x17c;" horiz-adv-x="579" 
d="M551 132v-132h-508v88l239 299h-235v131h470v-87l-243 -299h277zM197 585v160h170v-160h-170z" />
    <glyph glyph-name="Zcaron" unicode="&#x17d;" horiz-adv-x="726" 
d="M690 147v-147h-643v97l357 467h-347v146h596v-95l-358 -468h395zM566 934l-136 -166h-154l-135 166h148l64 -77l64 77h149z" />
    <glyph glyph-name="zcaron" unicode="&#x17e;" horiz-adv-x="579" 
d="M551 132v-132h-508v88l239 299h-235v131h470v-87l-243 -299h277zM475 780l-121 -198h-146l-125 198h141l57 -93l56 93h138z" />
    <glyph glyph-name="uni0192" unicode="&#x192;" horiz-adv-x="579" 
d="M486 314h-172l-75 -514h-162l74 514h-126v133h145l16 113q12 77 53 113.5t125 36.5h197v-129h-142q-38 0 -54 -13.5t-21 -49.5l-10 -71h152v-133z" />
    <glyph glyph-name="Aringacute" unicode="&#x1fa;" horiz-adv-x="766" 
d="M571 0l-46 123h-292l-46 -123h-169l272 711h185l274 -711h-178zM286 265h186l-93 250zM300 1067l98 147h172l-106 -147h-164zM378 759q-61 0 -100.5 39.5t-39.5 97.5q0 59 39.5 98t100.5 39t101 -39t40 -98q0 -58 -40 -97.5t-101 -39.5zM378 839q24 0 39.5 16t15.5 41
t-15 40.5t-40 15.5t-40 -15.5t-15 -40.5t15.5 -41t39.5 -16z" />
    <glyph glyph-name="aringacute" unicode="&#x1fb;" horiz-adv-x="629" 
d="M400 0v68q-10 -25 -45.5 -52t-95.5 -27q-95 0 -154.5 72.5t-59.5 197.5q0 124 60 196.5t155 72.5q32 0 58.5 -9t42.5 -23t24.5 -24t12.5 -19v65h161v-518h-159zM400 259q0 61 -25 96t-70 35q-46 0 -71.5 -35t-25.5 -96t26 -96.5t71 -35.5t70 35.5t25 96.5zM216 879
l89 159h162l-96 -159h-155zM291 572q-60 0 -99.5 39t-39.5 97q0 59 39.5 98t99.5 39q61 0 100.5 -39t39.5 -98q0 -58 -40 -97t-100 -39zM291 652q24 0 39.5 16t15.5 40q0 25 -15.5 40.5t-39.5 15.5t-39.5 -15.5t-15.5 -40.5q0 -24 15.5 -40t39.5 -16z" />
    <glyph glyph-name="AEacute" unicode="&#x1fc;" horiz-adv-x="1060" 
d="M1024 147v-147h-542v147h-227l-78 -147h-184l385 710h613v-140h-340v-128h206v-143h-206v-152h373zM330 289h152v285zM601 769l103 162h175l-111 -162h-167z" />
    <glyph glyph-name="aeacute" unicode="&#x1fd;" horiz-adv-x="916" 
d="M625 531q117 0 185 -73.5t68 -198.5v-33h-346q4 -50 31.5 -80t72.5 -30q51 0 77 36h162q-3 -25 -17.5 -51.5t-41.5 -53t-74 -43.5t-106 -17q-69 0 -123.5 26t-86.5 70q-53 -95 -184 -95q-92 0 -148 48.5t-56 126.5q0 77 52 119t144 42h138v4q0 35 -21.5 57t-61.5 22
q-33 0 -53 -14t-23 -27h-164q1 21 13.5 46.5t38 53.5t74 46.5t111.5 18.5q121 0 176 -70q54 70 163 70zM625 414q-39 0 -63 -23.5t-29 -66.5h184q-6 42 -30 66t-62 24zM199 167q0 -29 22 -47t59 -18q40 0 66 22.5t26 58.5v39h-103q-32 0 -51 -14.5t-19 -40.5zM383 582
l101 190h163l-108 -190h-156z" />
    <glyph glyph-name="Oslashacute" unicode="&#x1fe;" horiz-adv-x="783" 
d="M730 355q0 -167 -95 -267t-243 -100q-95 0 -176 48l-28 -36h-162l97 122q-70 95 -70 233q0 168 95 267.5t244 99.5q94 0 174 -47l27 35h164l-97 -121q70 -95 70 -234zM218 355q0 -58 12 -100l241 304q-33 15 -79 15q-81 0 -127.5 -61.5t-46.5 -157.5zM565 355
q0 59 -12 101l-242 -304q32 -16 81 -16q81 0 127 61t46 158zM309 769l103 162h175l-111 -162h-167z" />
    <glyph glyph-name="oslashacute" unicode="&#x1ff;" horiz-adv-x="613" 
d="M570 259q0 -120 -74 -196t-189 -76q-76 0 -139 39l-21 -26h-124l75 88q-55 69 -55 171q0 122 73.5 197t190.5 75q72 0 137 -38l20 25h126l-75 -88q55 -69 55 -171zM191 259q0 -28 5 -55l159 190q-26 7 -48 7q-54 0 -85 -41t-31 -101zM422 259q0 28 -5 55l-160 -190
q24 -8 50 -8q54 0 84.5 41t30.5 102zM229 582l101 190h163l-108 -190h-156z" />
    <glyph glyph-name="uni0218" unicode="&#x218;" horiz-adv-x="709" 
d="M331 586q-48 0 -75.5 -18t-27.5 -48q0 -55 93 -68l71 -9q131 -17 198 -67t67 -159q0 -104 -76.5 -167t-213.5 -63q-80 0 -143 20.5t-100 54.5t-58.5 69.5t-30.5 74.5h181q12 -31 50 -55.5t101 -24.5q56 0 85.5 20.5t29.5 56.5t-25.5 53.5t-74.5 24.5l-72 10
q-124 17 -189.5 69.5t-65.5 152.5q0 98 76 154t200 56q76 0 134.5 -18t93 -49t53.5 -62t28 -67h-174q-38 59 -135 59zM425 -320h-105q32 60 45 113h-79v140h175v-104q0 -71 -36 -149z" />
    <glyph glyph-name="uni0219" unicode="&#x219;" horiz-adv-x="563" 
d="M307 192l-61 6q-204 19 -204 168q0 77 62 121.5t165 44.5q65 0 113.5 -15t74.5 -39.5t39 -47.5t16 -46h-160q-4 6 -11.5 12.5t-26.5 13.5t-43 7q-68 0 -68 -43q0 -35 56 -41l54 -5q111 -8 161.5 -49t50.5 -122q0 -80 -60.5 -125.5t-176.5 -45.5q-67 0 -118.5 16.5
t-79 42.5t-41.5 51t-17 48h165q19 -41 91 -41q75 0 75 43q0 21 -12.5 32t-43.5 14zM343 -320h-105q32 60 45 113h-79v140h175v-104q0 -71 -36 -149z" />
    <glyph glyph-name="uni021A" unicode="&#x21a;" horiz-adv-x="725" 
d="M35 562v148h655v-148h-243v-562h-169v562h-243zM418 -320h-105q32 60 45 113h-79v140h175v-104q0 -71 -36 -149z" />
    <glyph glyph-name="uni021B" unicode="&#x21b;" horiz-adv-x="511" 
d="M466 143v-143h-145q-174 0 -174 164v219h-121v135h121v192h162v-192h157v-135h-157v-163q0 -41 16.5 -59t60.5 -18h80zM345 -320h-105q32 60 45 113h-79v140h175v-104q0 -71 -36 -149z" />
    <glyph glyph-name="uni0237" unicode="&#x237;" horiz-adv-x="304" 
d="M234 -30q0 -89 -40 -129.5t-122 -40.5h-175v125h105q38 0 53.5 15.5t15.5 51.5v526h163v-548z" />
    <glyph glyph-name="circumflex" unicode="&#x2c6;" 
d="M316 581l-56 93l-57 -93h-141l125 198h146l121 -198h-138z" />
    <glyph glyph-name="caron" unicode="&#x2c7;" 
d="M452 780l-121 -198h-146l-125 198h141l57 -93l56 93h138z" />
    <glyph glyph-name="breve" unicode="&#x2d8;" 
d="M300 687q23 0 34.5 14.5t11.5 36.5v16h122v-19q0 -70 -42.5 -114.5t-125.5 -44.5t-125.5 44.5t-42.5 114.5v19h122v-16q0 -51 46 -51z" />
    <glyph glyph-name="dotaccent" unicode="&#x2d9;" 
d="M215 585v160h170v-160h-170z" />
    <glyph glyph-name="ring" unicode="&#x2da;" 
d="M300 572q-60 0 -99.5 39t-39.5 97q0 59 39.5 98t99.5 39q61 0 100.5 -39t39.5 -98q0 -58 -40 -97t-100 -39zM300 653q24 0 39.5 15.5t15.5 39.5q0 25 -15.5 40.5t-39.5 15.5t-39.5 -15.5t-15.5 -40.5q0 -24 15.5 -39.5t39.5 -15.5z" />
    <glyph glyph-name="ogonek" unicode="&#x2db;" 
d="M444 -91v-109h-143q-56 0 -89 22.5t-33 66.5q0 32 21.5 57.5t59.5 53.5h163q-8 -7 -20.5 -17t-19 -15.5t-13.5 -12.5t-10 -13t-3 -11q0 -22 28 -22h59z" />
    <glyph glyph-name="tilde" unicode="&#x2dc;" 
d="M235 578h-108v90q0 46 22 71.5t65 25.5q36 0 83 -31l27 -17q14 -11 26 -11q15 0 15 21v43h109v-91q0 -45 -22.5 -70.5t-64.5 -25.5q-37 0 -83 30l-28 17q-17 11 -26 11q-15 0 -15 -21v-42z" />
    <glyph glyph-name="hungarumlaut" unicode="&#x2dd;" 
d="M295 582l70 190h136l-75 -190h-131zM97 582l70 190h136l-75 -190h-131z" />
    <glyph glyph-name="Wgrave" unicode="&#x1e80;" horiz-adv-x="1036" 
d="M651 -1l-134 454l-134 -454h-152l-208 711h179l121 -446l126 447h154l128 -451l120 450h161l-200 -711h-161zM603 769h-167l-111 162h175z" />
    <glyph glyph-name="wgrave" unicode="&#x1e81;" horiz-adv-x="845" 
d="M514 -1l-89 313l-89 -313h-156l-171 519h174l86 -304l88 305h152l87 -303l86 302h154l-160 -519h-162zM505 582h-156l-108 190h163z" />
    <glyph glyph-name="Wacute" unicode="&#x1e82;" horiz-adv-x="1036" 
d="M651 -1l-134 454l-134 -454h-152l-208 711h179l121 -446l126 447h154l128 -451l120 450h161l-200 -711h-161zM442 769l103 162h175l-111 -162h-167z" />
    <glyph glyph-name="wacute" unicode="&#x1e83;" horiz-adv-x="845" 
d="M514 -1l-89 313l-89 -313h-156l-171 519h174l86 -304l88 305h152l87 -303l86 302h154l-160 -519h-162zM350 582l101 190h163l-108 -190h-156z" />
    <glyph glyph-name="Wdieresis" unicode="&#x1e84;" horiz-adv-x="1036" 
d="M651 -1l-134 454l-134 -454h-152l-208 711h179l121 -446l126 447h154l128 -451l120 450h161l-200 -711h-161zM322 769v158h160v-158h-160zM554 769v158h160v-158h-160z" />
    <glyph glyph-name="wdieresis" unicode="&#x1e85;" horiz-adv-x="845" 
d="M514 -1l-89 313l-89 -313h-156l-171 519h174l86 -304l88 305h152l87 -303l86 302h154l-160 -519h-162zM234 585v158h159v-158h-159zM461 585v158h159v-158h-159z" />
    <glyph glyph-name="Ygrave" unicode="&#x1ef2;" horiz-adv-x="723" 
d="M456 285v-285h-179v289l-275 421h212l159 -250l159 250h189zM465 769h-167l-111 162h175z" />
    <glyph glyph-name="ygrave" unicode="&#x1ef3;" horiz-adv-x="576" 
d="M571 518l-267 -718h-163l77 202l-213 516h182l111 -300l110 300h163zM378 582h-156l-108 190h163z" />
    <glyph glyph-name="uni2009" unicode="&#x2009;" horiz-adv-x="166" 
 />
    <glyph glyph-name="uni200A" unicode="&#x200a;" horiz-adv-x="83" 
 />
    <glyph glyph-name="endash" unicode="&#x2013;" horiz-adv-x="712" 
d="M76 246v109h560v-109h-560z" />
    <glyph glyph-name="emdash" unicode="&#x2014;" horiz-adv-x="1025" 
d="M76 246v109h873v-109h-873z" />
    <glyph glyph-name="quoteleft" unicode="&#x2018;" horiz-adv-x="328" 
d="M128 736h112q-62 -101 -69 -189h87v-178h-184v155q0 120 54 212z" />
    <glyph glyph-name="quoteright" unicode="&#x2019;" horiz-adv-x="328" 
d="M200 369h-111q62 106 68 189h-86v178h183v-155q0 -120 -54 -212z" />
    <glyph glyph-name="quotesinglbase" unicode="&#x201a;" horiz-adv-x="327" 
d="M200 -189h-111q62 106 68 189h-86v178h183v-155q0 -120 -54 -212z" />
    <glyph glyph-name="quotedblleft" unicode="&#x201c;" horiz-adv-x="582" 
d="M128 736h112q-62 -101 -69 -189h84v-178h-181v155q0 120 54 212zM385 736h111q-62 -106 -68 -189h84v-178h-181v155q0 120 54 212z" />
    <glyph glyph-name="quotedblright" unicode="&#x201d;" horiz-adv-x="582" 
d="M454 369h-111q63 102 68 189h-84v178h182v-155q0 -118 -55 -212zM197 369h-111q63 102 68 189h-83v178h181v-155q0 -118 -55 -212z" />
    <glyph glyph-name="quotedblbase" unicode="&#x201e;" horiz-adv-x="581" 
d="M454 -189h-111q63 102 68 189h-84v178h182v-155q0 -118 -55 -212zM197 -189h-111q63 102 68 189h-83v178h181v-155q0 -118 -55 -212z" />
    <glyph glyph-name="dagger" unicode="&#x2020;" horiz-adv-x="523" 
d="M484 403h-145v-403h-156v403h-145v147h145v160h156v-160h145v-147z" />
    <glyph glyph-name="daggerdbl" unicode="&#x2021;" horiz-adv-x="516" 
d="M474 150h-138v-150h-156v150h-138v141h138v130h-138v141h138v148h156v-148h138v-141h-138v-130h138v-141z" />
    <glyph glyph-name="bullet" unicode="&#x2022;" horiz-adv-x="604" 
d="M302 541q94 0 159.5 -66t65.5 -159q0 -94 -65.5 -159.5t-159.5 -65.5t-159.5 65.5t-65.5 159.5q0 93 65.5 159t159.5 66z" />
    <glyph glyph-name="ellipsis" unicode="&#x2026;" horiz-adv-x="898" 
d="M73 0v196h187v-196h-187zM355 0v196h188v-196h-188zM638 0v196h188v-196h-188z" />
    <glyph glyph-name="perthousand" unicode="&#x2030;" horiz-adv-x="1430" 
d="M239 340q-83 0 -139 55t-56 136t56 136t139 55q82 0 138 -55t56 -136t-56 -136t-138 -55zM166 0l520 710h142l-521 -710h-141zM239 456q32 0 52 21t20 54t-20 54t-52 21t-52.5 -21.5t-20.5 -53.5t20.5 -53.5t52.5 -21.5zM755 -14q-82 0 -138.5 55t-56.5 136t56.5 136
t138.5 55t138 -55t56 -136t-56 -136t-138 -55zM1192 -14q-82 0 -138 55t-56 136t56 136t138 55t138 -55t56 -136t-56 -136t-138 -55zM755 102q32 0 52 21t20 54t-20 54t-52 21t-52.5 -21.5t-20.5 -53.5t20.5 -53.5t52.5 -21.5zM1192 102q32 0 52 21t20 54t-20 54t-52 21
t-52.5 -21.5t-20.5 -53.5t20.5 -53.5t52.5 -21.5z" />
    <glyph glyph-name="uni2032" unicode="&#x2032;" horiz-adv-x="314" 
d="M184 402h-147l92 308h149z" />
    <glyph glyph-name="uni2033" unicode="&#x2033;" horiz-adv-x="539" 
d="M180 402h-143l92 308h145zM408 402h-144l94 308h144z" />
    <glyph glyph-name="guilsinglleft" unicode="&#x2039;" horiz-adv-x="365" 
d="M308 492l-107 -188l107 -191h-150l-103 190l104 189h149z" />
    <glyph glyph-name="guilsinglright" unicode="&#x203a;" horiz-adv-x="365" 
d="M310 303l-104 -190h-149l106 189l-106 190h150z" />
    <glyph glyph-name="fraction" unicode="&#x2044;" horiz-adv-x="596" 
d="M134 0h-134l463 710h133z" />
    <glyph glyph-name="zero.sup" unicode="&#x2070;" horiz-adv-x="548" 
d="M274 746q99 0 154.5 -51.5t55.5 -142.5v-138q0 -90 -55.5 -142t-154.5 -52t-154.5 51.5t-55.5 142.5v138q0 90 55.5 142t154.5 52zM274 343q35 0 53.5 21t18.5 57v124q0 36 -18.5 57t-53.5 21q-34 0 -52.5 -21t-18.5 -57v-124q0 -36 18.5 -57t52.5 -21z" />
    <glyph glyph-name="four.sup" unicode="&#x2074;" horiz-adv-x="561" 
d="M527 358h-97v-128h-136v128h-259v93l229 285h166v-268h97v-110zM170 468h124v158z" />
    <glyph glyph-name="five.sup" unicode="&#x2075;" horiz-adv-x="522" 
d="M71 441v295h378v-106h-248v-91q32 38 102 38q71 0 118.5 -45.5t47.5 -122.5v-1q0 -82 -56.5 -134.5t-155.5 -52.5q-103 0 -157 51.5t-54 117.5h141q3 -19 21 -36t49 -17q32 0 51.5 19.5t19.5 49.5v1q0 32 -19 50.5t-52 18.5q-44 0 -60 -35h-126z" />
    <glyph glyph-name="six.sup" unicode="&#x2076;" horiz-adv-x="523" 
d="M475 409q0 -83 -58 -135.5t-155 -52.5t-155.5 52t-58.5 135q0 57 20 98.5t68 100.5l105 129h152l-151 -185q29 23 75 23q71 0 114.5 -46t43.5 -119zM336 409q0 31 -20 51t-55 20q-32 0 -53 -20t-21 -52q0 -31 20.5 -51t53.5 -20q35 0 55 19.5t20 52.5z" />
    <glyph glyph-name="seven.sup" unicode="&#x2077;" horiz-adv-x="489" 
d="M449 653l-223 -423h-156l210 386h-239v120h408v-83z" />
    <glyph glyph-name="eight.sup" unicode="&#x2078;" horiz-adv-x="529" 
d="M478 367q0 -67 -53.5 -106.5t-149.5 -39.5h-22q-95 0 -148.5 39.5t-53.5 106.5q0 91 85 123q-30 10 -53.5 38.5t-23.5 75.5q0 64 51 102.5t144 38.5h21q93 0 143.5 -38t50.5 -103q0 -47 -23 -75.5t-53 -38.5q85 -32 85 -123zM268 643h-8q-28 0 -45 -13.5t-17 -39.5
t17 -40t45 -14h8q62 0 62 54q0 53 -62 53zM270 438h-11q-28 0 -47 -16t-19 -42t19 -42t47 -16h11q28 0 47 16t19 42q0 27 -18.5 42.5t-47.5 15.5z" />
    <glyph glyph-name="nine.sup" unicode="&#x2079;" horiz-adv-x="523" 
d="M387 359l-104 -129h-153l151 185q-29 -23 -75 -23q-71 0 -114.5 46t-43.5 119q0 82 58 135t155 53t155.5 -52t58.5 -135q0 -56 -20.5 -99.5t-67.5 -99.5zM187 557q0 -31 20.5 -51t53.5 -20t54 20t21 52q0 31 -21 51t-54 20q-34 0 -54 -20t-20 -52z" />
    <glyph glyph-name="zero.sub" unicode="&#x2080;" horiz-adv-x="548" 
d="M274 380q99 0 154.5 -51.5t55.5 -142.5v-138q0 -90 -55.5 -142t-154.5 -52t-154.5 51.5t-55.5 142.5v138q0 90 55.5 142t154.5 52zM274 -23q35 0 53.5 21t18.5 57v124q0 36 -18.5 57t-53.5 21q-34 0 -52.5 -21t-18.5 -57v-124q0 -36 18.5 -57t52.5 -21z" />
    <glyph glyph-name="one.sub" unicode="&#x2081;" horiz-adv-x="385" 
d="M306 372v-508h-140v360l-126 -68v124l161 92h105z" />
    <glyph glyph-name="two.sub" unicode="&#x2082;" horiz-adv-x="506" 
d="M469 -21v-115h-413v89l194 170q28 26 39.5 43t11.5 39q0 24 -15 39t-43 15q-29 0 -44.5 -17t-15.5 -47v-21h-133v23q0 81 51.5 131.5t142.5 50.5q93 0 146 -45t53 -121q0 -53 -27 -91t-85 -87l-64 -56h202z" />
    <glyph glyph-name="three.sub" unicode="&#x2083;" horiz-adv-x="517" 
d="M467 12q0 -72 -56.5 -114.5t-156.5 -42.5q-103 0 -158 50t-58 111h142q3 -17 22 -31.5t52 -14.5q71 0 71 51q0 46 -56 46h-101v110h89q54 0 54 43q0 21 -16.5 34t-46.5 13q-29 0 -44.5 -14t-19.5 -30h-138q3 62 55 109t147 47q97 0 149.5 -38t52.5 -110q0 -38 -20 -63
t-47 -34q84 -30 84 -122z" />
    <glyph glyph-name="four.sub" unicode="&#x2084;" horiz-adv-x="561" 
d="M527 -8h-97v-128h-136v128h-259v93l229 285h166v-268h97v-110zM170 102h124v158z" />
    <glyph glyph-name="five.sub" unicode="&#x2085;" horiz-adv-x="522" 
d="M71 75v295h378v-106h-248v-91q32 38 102 38q71 0 118.5 -45.5t47.5 -122.5v-1q0 -82 -56.5 -134.5t-155.5 -52.5q-103 0 -157 51.5t-54 117.5h141q3 -19 21 -36t49 -17q32 0 51.5 19.5t19.5 49.5v1q0 32 -19 50.5t-52 18.5q-44 0 -60 -35h-126z" />
    <glyph glyph-name="six.sub" unicode="&#x2086;" horiz-adv-x="523" 
d="M475 43q0 -83 -58 -135.5t-155 -52.5t-155.5 52t-58.5 135q0 57 20 98.5t68 100.5l105 129h152l-151 -185q29 23 75 23q71 0 114.5 -46t43.5 -119zM336 43q0 31 -20 51t-55 20q-32 0 -53 -20t-21 -52q0 -31 20.5 -51t53.5 -20q35 0 55 19.5t20 52.5z" />
    <glyph glyph-name="seven.sub" unicode="&#x2087;" horiz-adv-x="489" 
d="M449 287l-223 -423h-156l210 386h-239v120h408v-83z" />
    <glyph glyph-name="eight.sub" unicode="&#x2088;" horiz-adv-x="529" 
d="M478 1q0 -67 -53.5 -106.5t-149.5 -39.5h-22q-95 0 -148.5 39.5t-53.5 106.5q0 91 85 123q-30 10 -53.5 38.5t-23.5 75.5q0 64 51 102.5t144 38.5h21q93 0 143.5 -38t50.5 -103q0 -47 -23 -75.5t-53 -38.5q85 -32 85 -123zM268 277h-8q-28 0 -45 -13.5t-17 -39.5t17 -40
t45 -14h8q62 0 62 54q0 53 -62 53zM270 72h-11q-29 0 -47.5 -15.5t-18.5 -42.5t18.5 -42.5t47.5 -15.5h11q29 0 47.5 15.5t18.5 42.5q0 28 -18.5 43t-47.5 15z" />
    <glyph glyph-name="nine.sub" unicode="&#x2089;" horiz-adv-x="523" 
d="M387 -7l-104 -129h-153l151 185q-29 -23 -75 -23q-71 0 -114.5 46t-43.5 119q0 82 58 135t155 53t155.5 -52t58.5 -135q0 -56 -20.5 -99.5t-67.5 -99.5zM187 191q0 -31 20.5 -51t53.5 -20t54 20t21 52q0 31 -21 51t-54 20q-34 0 -54 -20t-20 -52z" />
    <glyph glyph-name="won" unicode="&#x20a9;" horiz-adv-x="1051" 
d="M636 0l-105 446l-106 -446h-152l-78 287h-154v139h117l-77 284h171l104 -440l99 440h154l100 -443l103 443h158l-72 -284h113v-139h-149l-73 -287h-153z" />
    <glyph glyph-name="Euro" unicode="&#x20ac;" horiz-adv-x="690" 
d="M640 221q-2 -109 -70.5 -170.5t-181.5 -61.5q-116 0 -180 61.5t-67 169.5h-102v109h102v60h-102v108h102q4 102 69 163.5t178 61.5t180.5 -62t71.5 -165h-155q-4 35 -28 60.5t-69 25.5q-43 0 -68 -23t-28 -61h137v-108h-137v-60h137v-109h-137q2 -42 27 -66t70 -24
t69.5 26t26.5 65h155z" />
    <glyph glyph-name="trademark" unicode="&#x2122;" horiz-adv-x="1034" 
d="M27 597v113h375v-113h-120v-290h-134v290h-121zM646 710l74 -219l75 219h176v-403h-118v284l-91 -286h-94l-91 288v-286h-113v403h182z" />
    <glyph glyph-name="onethird" unicode="&#x2153;" horiz-adv-x="1030" 
d="M986 131q0 -64 -51.5 -101.5t-143.5 -37.5t-142.5 45.5t-53.5 98.5h135q2 -7 7.5 -15t19.5 -15.5t34 -7.5q60 0 60 41q0 35 -45 35h-93v105h84q40 0 40 30q0 39 -52 39q-43 0 -52 -35h-133q3 55 50.5 96.5t134.5 41.5q90 0 138 -33t48 -98q0 -60 -59 -83q74 -23 74 -106z
M283 712v-445h-134v307l-113 -59v115l146 82h101zM304 0h-134l463 710h133z" />
    <glyph glyph-name="twothirds" unicode="&#x2154;" horiz-adv-x="1154" 
d="M424 374v-107h-374v83l175 149q42 36 42 64q0 19 -12 31t-35 12q-49 0 -49 -52v-17h-126v19q0 72 46 117t129 45q85 0 133 -40.5t48 -107.5q0 -47 -24.5 -81.5t-74.5 -72.5l-51 -42h173zM1109 131q0 -64 -51.5 -101.5t-143.5 -37.5t-142.5 45.5t-53.5 98.5h135
q2 -7 7.5 -15t19.5 -15.5t34 -7.5q60 0 60 41q0 35 -45 35h-93v105h84q40 0 40 30q0 39 -52 39q-43 0 -52 -35h-133q3 55 50.5 96.5t134.5 41.5q90 0 138 -33t48 -98q0 -60 -59 -83q74 -23 74 -106zM427 0h-134l463 710h133z" />
    <glyph glyph-name="oneeighth" unicode="&#x215b;" horiz-adv-x="1042" 
d="M998 120q0 -59 -48.5 -93.5t-135.5 -34.5h-21q-87 0 -135.5 34.5t-48.5 93.5q0 80 75 108q-25 7 -46.5 32.5t-21.5 66.5q0 57 46 90.5t132 33.5h19q85 0 131.5 -33.5t46.5 -90.5q0 -41 -21.5 -66.5t-47.5 -32.5q76 -32 76 -108zM806 358h-5q-24 0 -38 -12t-14 -33
q0 -20 14 -31.5t38 -11.5h5q23 0 37 11.5t14 31.5q0 21 -13.5 33t-37.5 12zM808 180h-9q-24 0 -38.5 -13t-14.5 -34q0 -23 14.5 -35t38.5 -12h9q24 0 38.5 12t14.5 35t-14.5 35t-38.5 12zM283 712v-445h-134v307l-113 -59v115l146 82h101zM304 0h-134l463 710h133z" />
    <glyph glyph-name="threeeighths" unicode="&#x215c;" horiz-adv-x="1141" 
d="M424 398q0 -64 -51.5 -101.5t-143.5 -37.5q-93 0 -143 45t-53 99h135q3 -13 18 -25.5t43 -12.5q60 0 60 40q0 35 -45 35h-93v105h84q40 0 40 31q0 38 -52 38q-43 0 -52 -35h-133q3 56 50.5 97.5t134.5 41.5q90 0 138 -33.5t48 -97.5q0 -59 -60 -83q31 -10 53 -36t22 -70z
M1097 120q0 -59 -48.5 -93.5t-135.5 -34.5h-21q-87 0 -135.5 34.5t-48.5 93.5q0 80 75 108q-25 7 -46.5 32.5t-21.5 66.5q0 57 46 90.5t132 33.5h19q85 0 131.5 -33.5t46.5 -90.5q0 -41 -21.5 -66.5t-47.5 -32.5q76 -32 76 -108zM905 358h-5q-24 0 -38 -12t-14 -33
q0 -20 14 -31.5t38 -11.5h5q23 0 37 11.5t14 31.5q0 21 -13.5 33t-37.5 12zM907 180h-9q-24 0 -38.5 -13t-14.5 -34q0 -23 14.5 -35t38.5 -12h9q24 0 38.5 12t14.5 35t-14.5 35t-38.5 12zM402 0h-134l463 710h133z" />
    <glyph glyph-name="fiveeighths" unicode="&#x215d;" horiz-adv-x="1133" 
d="M62 447v263h345v-99h-220v-73q32 32 87 32q67 0 109 -39.5t42 -107.5v-1q0 -72 -51 -117.5t-142 -45.5q-96 0 -144.5 44.5t-48.5 102.5h136q3 -14 17.5 -27.5t39.5 -13.5q26 0 41.5 15.5t15.5 39.5q-2 56 -57 56q-38 0 -49 -29h-121zM1089 120q0 -59 -48.5 -93.5
t-135.5 -34.5h-21q-87 0 -135.5 34.5t-48.5 93.5q0 80 75 108q-25 7 -46.5 32.5t-21.5 66.5q0 57 46 90.5t132 33.5h19q85 0 131.5 -33.5t46.5 -90.5q0 -41 -21.5 -66.5t-47.5 -32.5q76 -32 76 -108zM897 358h-5q-24 0 -38 -12t-14 -33q0 -20 14 -31.5t38 -11.5h5
q23 0 37 11.5t14 31.5q0 21 -13.5 33t-37.5 12zM899 180h-9q-24 0 -38.5 -13t-14.5 -34q0 -23 14.5 -35t38.5 -12h9q24 0 38.5 12t14.5 35t-14.5 35t-38.5 12zM395 0h-134l463 710h133z" />
    <glyph glyph-name="seveneighths" unicode="&#x215e;" horiz-adv-x="1047" 
d="M405 633l-194 -366h-150l183 333h-209v110h370v-77zM1003 120q0 -59 -48.5 -93.5t-135.5 -34.5h-21q-87 0 -135.5 34.5t-48.5 93.5q0 80 75 108q-25 7 -46.5 32.5t-21.5 66.5q0 57 46 90.5t132 33.5h19q85 0 131.5 -33.5t46.5 -90.5q0 -41 -21.5 -66.5t-47.5 -32.5
q76 -32 76 -108zM811 358h-5q-24 0 -38 -12t-14 -33q0 -20 14 -31.5t38 -11.5h5q23 0 37 11.5t14 31.5q0 21 -13.5 33t-37.5 12zM813 180h-9q-24 0 -38.5 -13t-14.5 -34q0 -23 14.5 -35t38.5 -12h9q24 0 38.5 12t14.5 35t-14.5 35t-38.5 12zM308 0h-134l463 710h133z" />
    <glyph glyph-name="minus" unicode="&#x2212;" horiz-adv-x="688" 
d="M612 255h-536v148h536v-148z" />
    <glyph glyph-name="uni24C5" unicode="&#x24c5;" horiz-adv-x="850" 
d="M425 -12q-159 0 -264.5 105t-105.5 262q0 156 105.5 261.5t264.5 105.5t264.5 -105.5t105.5 -261.5t-105.5 -261.5t-264.5 -105.5zM425 80q122 0 196 78t74 197t-74 197t-196 78q-121 0 -195 -78t-74 -197t74 -197t195 -78zM267 169v376h201q72 0 111 -34t39 -97
q0 -65 -39 -99t-111 -34h-87v-112h-114zM460 448h-79v-68h79q42 0 42 34t-42 34z" />
    <glyph glyph-name="zero.den" unicode="&#xe402;" horiz-adv-x="495" 
d="M248 452q90 0 140.5 -46t50.5 -125v-118q0 -79 -50.5 -125.5t-140.5 -46.5t-141.5 46.5t-51.5 125.5v118q0 79 51.5 125t141.5 46zM248 104q28 0 43 16.5t15 45.5v112q0 29 -15 45.5t-43 16.5q-29 0 -44 -17t-15 -45v-112q0 -28 15 -45t44 -17z" />
    <glyph glyph-name="one.den" unicode="&#xe403;" horiz-adv-x="351" 
d="M283 445v-445h-134v307l-113 -59v115l146 82h101z" />
    <glyph glyph-name="two.den" unicode="&#xe404;" horiz-adv-x="457" 
d="M424 108v-108h-374v84l175 148q23 20 32.5 34t9.5 31q0 19 -12.5 31t-34.5 12q-49 0 -49 -53v-17h-126v19q0 72 46 117t129 45q85 0 133 -40t48 -107q0 -47 -24 -80.5t-75 -74.5l-50 -41h172z" />
    <glyph glyph-name="three.den" unicode="&#xe405;" horiz-adv-x="468" 
d="M424 131q0 -64 -51.5 -101.5t-143.5 -37.5t-142.5 45.5t-53.5 98.5h135q2 -7 7.5 -15t19.5 -15.5t34 -7.5q60 0 60 41q0 35 -45 35h-93v105h84q40 0 40 30q0 39 -52 39q-43 0 -52 -35h-133q3 55 50.5 96.5t134.5 41.5q90 0 138 -33t48 -98q0 -60 -59 -83q74 -23 74 -106z
" />
    <glyph glyph-name="four.den" unicode="&#xe406;" horiz-adv-x="508" 
d="M478 106h-85v-106h-130v106h-232v90l201 247h161v-233h85v-104zM156 210h107v135z" />
    <glyph glyph-name="five.den" unicode="&#xe407;" horiz-adv-x="472" 
d="M62 181v262h345v-99h-220v-72q32 32 87 32q67 0 109 -40t42 -108v-1q0 -72 -51 -117.5t-142 -45.5q-96 0 -144.5 44.5t-48.5 102.5h136q3 -14 17.5 -27.5t39.5 -13.5q26 0 41.5 16t15.5 40q0 25 -15.5 40t-41.5 15q-38 0 -49 -28h-121z" />
    <glyph glyph-name="six.den" unicode="&#xe408;" horiz-adv-x="472" 
d="M431 159q0 -73 -53 -120t-141 -47q-87 0 -141 46.5t-54 119.5q0 50 18 87.5t60 88.5l92 109h145l-137 -164q24 24 70 24q63 0 102 -40.5t39 -103.5zM297 159q0 24 -17 40.5t-44 16.5q-26 0 -43 -16.5t-17 -41.5t16.5 -41t43.5 -16q28 0 44.5 16t16.5 42z" />
    <glyph glyph-name="seven.den" unicode="&#xe409;" horiz-adv-x="441" 
d="M405 366l-194 -366h-150l183 334h-209v109h370v-77z" />
    <glyph glyph-name="eight.den" unicode="&#xe40a;" horiz-adv-x="477" 
d="M433 120q0 -59 -48.5 -93.5t-135.5 -34.5h-21q-87 0 -135.5 34.5t-48.5 93.5q0 80 75 108q-25 7 -46.5 32.5t-21.5 66.5q0 57 46 90.5t132 33.5h19q85 0 131.5 -33.5t46.5 -90.5q0 -41 -21.5 -66.5t-47.5 -32.5q76 -32 76 -108zM241 358h-5q-24 0 -38 -12t-14 -33
q0 -20 14 -31.5t38 -11.5h5q23 0 37 11.5t14 31.5q0 21 -13.5 33t-37.5 12zM243 180h-9q-24 0 -38.5 -13t-14.5 -34q0 -23 14.5 -35t38.5 -12h9q24 0 38.5 12t14.5 35t-14.5 35t-38.5 12z" />
    <glyph glyph-name="nine.den" unicode="&#xe40b;" horiz-adv-x="472" 
d="M352 110l-92 -110h-145l137 164q-28 -24 -70 -24q-63 0 -101.5 40.5t-38.5 104.5q0 73 53 119.5t140 46.5q89 0 142 -46.5t53 -119.5q0 -50 -18.5 -88.5t-59.5 -86.5zM175 285q0 -25 17 -41.5t44 -16.5t44 16.5t17 41.5q0 26 -17 42t-44 16q-28 0 -44.5 -16t-16.5 -42z
" />
    <glyph glyph-name="zero.num" unicode="&#xe416;" horiz-adv-x="495" 
d="M248 719q90 0 140.5 -45.5t50.5 -126.5v-118q0 -79 -50.5 -125t-140.5 -46t-141.5 46t-51.5 125v118q0 80 51 126t142 46zM248 370q28 0 43 16.5t15 45.5v112q0 29 -15 45.5t-43 16.5q-29 0 -44 -17t-15 -45v-112q0 -28 15 -45t44 -17z" />
    <glyph glyph-name="one.num" unicode="&#xe417;" horiz-adv-x="351" 
d="M283 712v-445h-134v307l-113 -59v115l146 82h101z" />
    <glyph glyph-name="two.num" unicode="&#xe418;" horiz-adv-x="457" 
d="M424 374v-107h-374v83l175 149q42 36 42 64q0 19 -12 31t-35 12q-49 0 -49 -52v-17h-126v19q0 72 46 117t129 45q85 0 133 -40.5t48 -107.5q0 -47 -24.5 -81.5t-74.5 -72.5l-51 -42h173z" />
    <glyph glyph-name="three.num" unicode="&#xe419;" horiz-adv-x="468" 
d="M424 398q0 -64 -51.5 -101.5t-143.5 -37.5q-93 0 -143 45t-53 99h135q3 -13 18 -25.5t43 -12.5q60 0 60 40q0 35 -45 35h-93v105h84q40 0 40 31q0 38 -52 38q-43 0 -52 -35h-133q3 56 50.5 97.5t134.5 41.5q90 0 138 -33.5t48 -97.5q0 -59 -60 -83q31 -10 53 -36t22 -70z
" />
    <glyph glyph-name="four.num" unicode="&#xe41a;" horiz-adv-x="508" 
d="M478 372h-85v-105h-130v105h-232v91l201 247h161v-234h85v-104zM155 476h108v136z" />
    <glyph glyph-name="five.num" unicode="&#xe41b;" horiz-adv-x="472" 
d="M62 447v263h345v-99h-220v-73q32 32 87 32q67 0 109 -39.5t42 -107.5v-1q0 -72 -51 -117.5t-142 -45.5q-96 0 -144.5 44.5t-48.5 102.5h136q3 -14 17.5 -27.5t39.5 -13.5q26 0 41.5 15.5t15.5 39.5q-2 56 -57 56q-38 0 -49 -29h-121z" />
    <glyph glyph-name="six.num" unicode="&#xe41c;" horiz-adv-x="472" 
d="M431 425q0 -73 -53 -119.5t-141 -46.5q-87 0 -141 46.5t-54 119.5q0 49 18.5 88t59.5 87l92 110h145l-135 -162q24 22 68 22q63 0 102 -40.5t39 -104.5zM297 425q0 25 -17 41.5t-44 16.5q-26 0 -43 -16.5t-17 -41.5q0 -26 16.5 -42t43.5 -16q28 0 44.5 16t16.5 42z" />
    <glyph glyph-name="seven.num" unicode="&#xe41d;" horiz-adv-x="441" 
d="M405 633l-194 -366h-150l183 333h-209v110h370v-77z" />
    <glyph glyph-name="eight.num" unicode="&#xe41e;" horiz-adv-x="477" 
d="M433 387q0 -59 -48.5 -93.5t-135.5 -34.5h-21q-87 0 -135.5 34.5t-48.5 93.5q0 44 23 70t52 37q-68 28 -68 100q0 57 46 90.5t132 33.5h19q85 0 131.5 -33.5t46.5 -90.5q0 -41 -21.5 -67t-46.5 -33q29 -11 52 -37.5t23 -69.5zM241 624h-5q-52 0 -52 -44q0 -20 14.5 -32
t37.5 -12h5q23 0 37 12t14 32q0 44 -51 44zM243 446h-9q-24 0 -38.5 -12.5t-14.5 -33.5q0 -23 14.5 -35.5t38.5 -12.5h9q24 0 38.5 12.5t14.5 35.5q0 46 -53 46z" />
    <glyph glyph-name="nine.num" unicode="&#xe41f;" horiz-adv-x="472" 
d="M352 376l-92 -109h-145l139 166q-26 -26 -72 -26q-63 0 -101.5 40.5t-38.5 103.5q0 73 53 120t140 47q89 0 142 -46.5t53 -119.5q0 -50 -18 -87.5t-60 -88.5zM175 551q0 -24 17 -40.5t44 -16.5t44 16.5t17 41.5t-17 41t-44 16q-28 0 -44.5 -16t-16.5 -42z" />
    <glyph glyph-name="f_i" unicode="&#xfb01;" horiz-adv-x="804" 
d="M463 385h-153v-385h-162v385h-122v133h122v70q0 70 40.5 109t120.5 39h178v-122h-111q-36 0 -51 -15t-15 -49v-32h153v-133zM567 585v160h169v-160h-169zM570 0v518h163v-518h-163z" />
    <glyph glyph-name="f_l" unicode="&#xfb02;" horiz-adv-x="807" 
d="M463 385h-153v-385h-162v385h-122v133h122v70q0 70 40.5 109t120.5 39h178v-122h-111q-36 0 -51 -15t-15 -49v-32h153v-133zM572 0v736h163v-736h-163z" />
    <glyph glyph-name="idotaccent" horiz-adv-x="303" 
d="M67 585v160h169v-160h-169zM70 0v518h163v-518h-163z" />
    <glyph glyph-name="f_b" horiz-adv-x="1140" 
d="M463 385h-153v-385h-162v385h-122v133h122v70q0 70 40.5 109t120.5 39h178v-122h-111q-36 0 -51 -15t-15 -49v-32h153v-133zM729 73v-73h-159v736h161v-293q5 9 14 20.5t26.5 28t46.5 27t63 10.5q94 0 154 -72t60 -198t-60 -198t-154 -72q-45 0 -81.5 19t-49.5 34.5
t-21 30.5zM729 259q0 -61 26.5 -96.5t74.5 -35.5q47 0 74 36t27 96t-27 96t-74 36q-48 0 -74.5 -35.5t-26.5 -96.5z" />
    <glyph glyph-name="f_h" horiz-adv-x="1138" 
d="M463 385h-153v-385h-162v385h-122v133h122v70q0 70 40.5 109t120.5 39h178v-122h-111q-36 0 -51 -15t-15 -49v-32h153v-133zM731 286v-286h-161v736h161v-286q17 30 55.5 54.5t92.5 24.5q87 0 139.5 -58.5t52.5 -154.5v-316h-162v286q0 48 -23 74.5t-65 26.5t-66 -27
t-24 -74z" />
    <glyph glyph-name="f_j" horiz-adv-x="805" 
d="M463 385h-153v-385h-162v385h-122v133h122v70q0 70 40.5 109t120.5 39h178v-122h-111q-36 0 -51 -15t-15 -49v-32h153v-133zM568 585v160h169v-160h-169zM734 518v-548q0 -89 -40 -129.5t-122 -40.5h-175v125h105q38 0 53.5 15.5t15.5 51.5v526h163z" />
    <glyph glyph-name="f_k" horiz-adv-x="1110" 
d="M463 385h-153v-385h-162v385h-122v133h122v70q0 70 40.5 109t120.5 39h178v-122h-111q-36 0 -51 -15t-15 -49v-32h153v-133zM916 0l-184 227v-227h-162v736h162v-422l171 204h194l-202 -239l223 -279h-202z" />
    <glyph glyph-name="space_uni0326" horiz-adv-x="500" 
d="M302 -320h-105q32 60 45 113h-79v140h175v-104q0 -71 -36 -149z" />
    <glyph glyph-name="zero.old" horiz-adv-x="663" 
d="M333 598q124 0 202 -85t78 -220q0 -133 -78.5 -219.5t-201.5 -86.5q-126 0 -204.5 86t-78.5 220q0 135 78.5 220t204.5 85zM333 132q53 0 83.5 46.5t30.5 114.5t-30.5 114t-83.5 46q-55 0 -86 -46t-31 -114t31 -114.5t86 -46.5z" />
    <glyph glyph-name="one.old" horiz-adv-x="451" 
d="M356 591v-591h-165v407l-148 -84v153l189 115h124z" />
    <glyph glyph-name="two.old" horiz-adv-x="617" 
d="M578 134v-134h-518v110l229 153q45 31 64 57.5t19 59.5t-19.5 54.5t-54.5 21.5q-37 0 -56.5 -25t-19.5 -63v-16h-160v20q0 96 63 161t173 65q114 0 177 -58t63 -153q0 -73 -40.5 -127t-116.5 -96l-52 -30h249z" />
    <glyph glyph-name="three.old" horiz-adv-x="629" 
d="M574 81q0 -99 -70.5 -158t-194.5 -59q-67 0 -119.5 20.5t-83 54t-47 70t-19.5 75.5h168q5 -28 30 -51.5t70 -23.5q47 0 72.5 22t25.5 61q0 77 -85 77h-126v142h117q74 0 74 69q0 35 -22.5 55.5t-61.5 20.5q-40 0 -60.5 -21.5t-26.5 -48.5h-164q3 84 68 148t183 64
q120 0 186 -53.5t66 -150.5q0 -54 -29 -90.5t-66 -50.5q46 -15 80.5 -57t34.5 -115z" />
    <glyph glyph-name="four.old" horiz-adv-x="685" 
d="M656 68h-124v-192h-162v192h-337v108l308 410h191v-379h124v-139zM202 207h168v227z" />
    <glyph glyph-name="five.old" horiz-adv-x="636" 
d="M84 175v411h476v-136h-319v-137q46 50 124 50q93 0 154 -65.5t61 -175.5q0 -113 -71 -185t-194 -72q-66 0 -118 20.5t-83 54.5t-47 74t-17 82h168q5 -32 28.5 -58.5t68.5 -26.5q43 0 70 31t27 78q0 49 -25.5 79t-70.5 30q-10 0 -19.5 -2t-16.5 -4.5t-13.5 -7t-10.5 -8.5
t-8.5 -9.5t-6 -8.5t-5 -8t-3.5 -6h-149z" />
    <glyph glyph-name="six.old" horiz-adv-x="631" 
d="M580 248q0 -113 -72 -186.5t-192 -73.5q-121 0 -193.5 72.5t-72.5 187.5q0 77 28 137t85 136l140 189h182l-196 -263q39 33 100 33q85 0 138 -64.5t53 -167.5zM416 248q0 52 -27 84.5t-74 32.5q-45 0 -72.5 -33t-27.5 -84t27 -83.5t73 -32.5q47 0 74 32.5t27 83.5z" />
    <glyph glyph-name="seven.old" horiz-adv-x="577" 
d="M538 480l-292 -604h-186l281 563h-300v147h497v-106z" />
    <glyph glyph-name="eight.old" horiz-adv-x="651" 
d="M595 193q0 -94 -69.5 -149.5t-190.5 -55.5h-20q-119 0 -189 56t-70 149q0 70 36 113t82 58q-42 15 -74 55t-32 106q0 89 66 143t182 54h19q117 0 183 -54t66 -143q0 -67 -32 -106.5t-73 -54.5q45 -15 80.5 -58t35.5 -113zM328 592h-5q-39 0 -64.5 -22.5t-25.5 -60.5
t25.5 -61t64.5 -23h5q40 0 65 23t25 61t-25 60.5t-65 22.5zM330 298h-9q-41 0 -68.5 -24.5t-27.5 -65.5t27.5 -65.5t68.5 -24.5h9q42 0 69 24.5t27 65.5t-27 65.5t-69 24.5z" />
    <glyph glyph-name="nine.old" horiz-adv-x="631" 
d="M468 66l-140 -190h-182l197 264q-36 -34 -101 -34q-86 0 -139 64.5t-53 167.5q0 114 72.5 187t192.5 73q121 0 193 -72.5t72 -187.5q0 -77 -27.5 -136.5t-84.5 -135.5zM215 338q0 -52 26.5 -84.5t73.5 -32.5q46 0 73.5 33t27.5 84t-27.5 83.5t-73.5 32.5t-73 -32.5
t-27 -83.5z" />
    <glyph glyph-name="space.tab" horiz-adv-x="325" 
 />
    <glyph glyph-name="dollar.tab" horiz-adv-x="634" 
d="M564 205q0 -77 -46.5 -130.5t-132.5 -70.5v-127h-141v128q-86 17 -133 73t-47 138v4h157v-2q0 -41 25 -64t68 -23t65.5 18.5t22.5 50.5q0 55 -69 75l-89 25q-88 27 -129.5 76.5t-41.5 136.5q0 76 45.5 127.5t125.5 67.5v121h141v-121q79 -17 119 -68t42 -129v-1h-155v1
q-2 32 -22.5 52t-56.5 20q-37 0 -58 -17.5t-21 -47.5q0 -28 16.5 -44.5t52.5 -28.5l89 -25q88 -25 130.5 -76t42.5 -139z" />
    <glyph glyph-name="cent.tab" horiz-adv-x="650" 
d="M580 176q-5 -55 -46 -109t-121 -72v-118h-141v117q-86 21 -137.5 91.5t-51.5 173.5t52 173.5t137 91.5v113h141v-115q78 -21 119.5 -72.5t45.5 -105.5h-155q-6 16 -26 31.5t-56 15.5q-44 0 -69.5 -36.5t-25.5 -95.5t25.5 -96t69.5 -37q38 0 58 16.5t26 33.5h155z" />
    <glyph glyph-name="Euro.tab" horiz-adv-x="667" 
d="M630 221q-2 -109 -70.5 -170.5t-181.5 -61.5q-116 0 -180 61.5t-67 169.5h-103v109h103v60h-103v108h103q4 102 69 163.5t178 61.5t180.5 -62t71.5 -165h-155q-4 35 -28 60.5t-69 25.5q-43 0 -68 -23t-28 -61h137v-108h-137v-60h137v-109h-137q2 -42 27 -66t69 -24
q45 0 70 26t27 65h155z" />
    <glyph glyph-name="sterling.tab" horiz-adv-x="684" 
d="M661 141v-141h-618v141h109v116h-109v141h109v107q0 102 58 159.5t170 57.5q114 0 171.5 -57.5t57.5 -159.5v-29h-154v24q0 40 -20 61.5t-55 21.5t-54 -21.5t-19 -61.5v-102h181v-141h-181v-116h354z" />
    <glyph glyph-name="yen.tab" horiz-adv-x="655" 
d="M596 123h-175v-123h-175v123h-174v109h174v60h-174v109h162l-233 309h207l131 -183l130 183h186l-222 -309h163v-109h-175v-60h175v-109z" />
    <glyph glyph-name="florin.tab" horiz-adv-x="650" 
d="M532 314h-172l-75 -514h-162l74 514h-126v133h145l16 113q10 77 51 113.5t126 36.5h197v-129h-141q-38 0 -54 -13.5t-21 -49.5l-10 -71h152v-133z" />
    <glyph glyph-name="zero.tab" horiz-adv-x="650" 
d="M325 723q125 0 196.5 -69.5t71.5 -190.5v-216q0 -123 -71 -191.5t-197 -68.5t-197 68.5t-71 191.5v216q0 121 71.5 190.5t196.5 69.5zM325 137q50 0 76.5 31t26.5 84v206q0 53 -26.5 84t-76.5 31t-76.5 -31t-26.5 -84v-206q0 -53 26.5 -84t76.5 -31z" />
    <glyph glyph-name="one.tab" horiz-adv-x="650" 
d="M482 713v-713h-166v527l-206 -116v155l248 147h124z" />
    <glyph glyph-name="two.tab" horiz-adv-x="650" 
d="M614 145v-145h-551v110l265 239q44 41 63 71t19 66q0 39 -24 63.5t-67 24.5q-42 0 -66.5 -27t-24.5 -71v-38h-163v43q0 104 67.5 172.5t186.5 68.5q121 0 190 -63t69 -167q0 -75 -37.5 -131t-114.5 -123l-102 -93h290z" />
    <glyph glyph-name="three.tab" horiz-adv-x="650" 
d="M600 205q0 -99 -74.5 -158t-205.5 -59q-70 0 -125 20.5t-87.5 54t-50 70.5t-20.5 75h168q5 -27 34 -50.5t80 -23.5q53 0 82 22t29 59q0 77 -86 77h-141v143h130q77 0 77 68q0 36 -26 56t-71 20q-84 0 -99 -69h-165q3 84 71.5 148t192.5 64q126 0 195 -53.5t69 -150.5
q0 -53 -28 -90t-64 -51q47 -14 81 -56.5t34 -115.5z" />
    <glyph glyph-name="four.tab" horiz-adv-x="650" 
d="M617 192h-106v-192h-158v192h-316v107l286 411h188v-381h106v-137zM195 329h158v231z" />
    <glyph glyph-name="five.tab" horiz-adv-x="650" 
d="M79 302v408h494v-136h-338v-136q46 52 137 52q98 0 163 -65.5t65 -175.5v-4q0 -113 -75 -185t-202 -72q-136 0 -205.5 69.5t-72.5 161.5h167q5 -31 32.5 -57.5t78.5 -26.5q48 0 79 31t31 77v3q0 50 -30 79t-80 29q-66 0 -96 -52h-148z" />
    <glyph glyph-name="six.tab" horiz-adv-x="650" 
d="M606 246q0 -113 -76.5 -185.5t-204.5 -72.5t-204.5 72t-76.5 185q0 78 27.5 137t89.5 139l149 189h184l-203 -258q41 27 97 27q98 0 158 -64.5t60 -168.5zM440 246q0 50 -31 81.5t-84 31.5q-51 0 -83 -31.5t-32 -82.5q0 -49 31 -80t84 -31t84 31.5t31 80.5z" />
    <glyph glyph-name="seven.tab" horiz-adv-x="650" 
d="M596 603l-314 -603h-185l301 563h-341v147h539v-107z" />
    <glyph glyph-name="eight.tab" horiz-adv-x="650" 
d="M606 193q0 -94 -71 -149.5t-196 -55.5h-29q-125 0 -195.5 55.5t-70.5 149.5q0 71 36 113.5t83 57.5q-42 15 -74.5 54.5t-32.5 106.5q0 89 67 143t188 54h28q121 0 188 -54t67 -143q0 -67 -32 -106t-75 -54q47 -15 83 -58t36 -114zM333 592h-15q-43 0 -69.5 -22t-26.5 -61
t26.5 -61.5t69.5 -22.5h15q43 0 69.5 22.5t26.5 61.5t-26.5 61t-69.5 22zM335 298h-19q-46 0 -74 -24.5t-28 -65.5t28 -65.5t74 -24.5h19q46 0 74 24.5t28 65.5t-28 65.5t-74 24.5z" />
    <glyph glyph-name="nine.tab" horiz-adv-x="650" 
d="M489 189l-149 -189h-184l203 258q-41 -27 -97 -27q-99 0 -158.5 64t-59.5 169q0 113 76.5 185.5t204.5 72.5t204.5 -72t76.5 -185q0 -78 -27.5 -137t-89.5 -139zM210 464q0 -50 31 -81.5t84 -31.5q51 0 83 31.5t32 82.5q0 49 -31 80t-84 31t-84 -31.5t-31 -80.5z" />
    <glyph glyph-name="percent.tab" horiz-adv-x="975" 
d="M229 340q-82 0 -138 55t-56 136t56 136t138 55t138 -55t56 -136t-56 -136t-138 -55zM157 0l520 710h142l-521 -710h-141zM229 456q32 0 52.5 21.5t20.5 53.5t-20.5 53.5t-52.5 21.5t-52 -21t-20 -54t20 -54t52 -21zM746 -14q-82 0 -138 55t-56 136t56 136t138 55t138 -55
t56 -136t-56 -136t-138 -55zM746 102q32 0 52 21t20 54t-20 54t-52 21t-52.5 -21.5t-20.5 -53.5t20.5 -53.5t52.5 -21.5z" />
    <glyph glyph-name="perthousand.tab" horiz-adv-x="1300" 
d="M215 361q-77 0 -130.5 52.5t-53.5 128.5t53.5 128t130.5 52t130.5 -52t53.5 -128t-53.5 -128.5t-130.5 -52.5zM254 0h-140l521 710h140zM215 474q29 0 47.5 19.5t18.5 48.5q0 28 -18.5 47.5t-47.5 19.5t-47.5 -19.5t-18.5 -47.5q0 -30 18 -49t48 -19zM672 -14
q-77 0 -130 52t-53 128t53 128.5t130 52.5t130.5 -52.5t53.5 -128.5t-53.5 -128t-130.5 -52zM1085 -14q-78 0 -131 52t-53 128t53.5 128.5t130.5 52.5t130.5 -52.5t53.5 -128.5t-53.5 -128t-130.5 -52zM672 99q30 0 48.5 19t18.5 48q0 30 -18.5 49t-48.5 19
q-29 0 -47.5 -19.5t-18.5 -48.5t18.5 -48t47.5 -19zM1085 99q30 0 48 18.5t18 48.5t-18 49t-48 19q-29 0 -47.5 -19.5t-18.5 -48.5t18.5 -48t47.5 -19z" />
    <glyph glyph-name="plus.tab" horiz-adv-x="650" 
d="M601 257h-200v-208h-152v208h-200v144h200v207h152v-207h200v-144z" />
    <glyph glyph-name="minus.tab" horiz-adv-x="650" 
d="M593 255h-536v148h536v-148z" />
    <glyph glyph-name="multiply.tab" horiz-adv-x="650" 
d="M593 371h-536v143h536v-143zM593 137h-536v143h536v-143z" />
    <glyph glyph-name="divide.tab" horiz-adv-x="650" 
d="M234 468v174h180v-174h-180zM602 257h-556v144h556v-144zM234 10v174h180v-174h-180z" />
    <glyph glyph-name="equal.tab" horiz-adv-x="650" 
d="M591 157l-106 -103l-161 162l-160 -162l-105 101l162 164l-162 163l108 106l159 -162l160 162l105 -102l-162 -164z" />
    <glyph glyph-name="less.tab" horiz-adv-x="650" 
d="M558 205v-155l-475 206v135l475 205v-156l-285 -118z" />
    <glyph glyph-name="greater.tab" horiz-adv-x="650" 
d="M568 256l-475 -206v156l285 119l-285 116v155l475 -205v-135z" />
    <glyph glyph-name="period.tab" horiz-adv-x="325" 
d="M69 0v196h188v-196h-188z" />
    <glyph glyph-name="comma.tab" horiz-adv-x="343" 
d="M207 -200h-114q72 117 78 200h-89v196h187v-173q0 -118 -62 -223z" />
    <glyph glyph-name="colon.tab" horiz-adv-x="350" 
d="M82 0v196h187v-196h-187zM82 319v196h187v-196h-187z" />
    <glyph glyph-name="semicolon.tab" horiz-adv-x="350" 
d="M82 319v196h187v-196h-187zM207 -200h-114q72 117 78 200h-89v196h187v-173q0 -118 -62 -223z" />
    <glyph glyph-name="a.alt" horiz-adv-x="597" 
d="M567 -2h-76q-81 0 -105 62q-48 -72 -152 -72q-87 0 -141.5 49t-54.5 126t51.5 118.5t143.5 41.5h143v5q0 35 -22 57t-63 22q-59 0 -78 -41h-161q1 21 13.5 46.5t37.5 53.5t73.5 46.5t111.5 18.5q120 0 183 -56.5t63 -154.5v-156q0 -38 33 -42v-124zM282 102q40 0 67 21.5
t27 56.5v41h-109q-31 0 -49.5 -14t-18.5 -40q0 -29 22.5 -47t60.5 -18z" />
    <glyph glyph-name="u.alt" horiz-adv-x="631" 
d="M400 0v63q-48 -75 -145 -75q-86 0 -137.5 57t-51.5 151v322h162v-292q0 -45 22.5 -70t62.5 -25q42 0 64.5 25t22.5 70v292h161v-518h-161z" />
    <glyph glyph-name="aacute.alt" horiz-adv-x="597" 
d="M567 -2h-76q-81 0 -105 62q-48 -72 -152 -72q-87 0 -141.5 49t-54.5 126t51.5 118.5t143.5 41.5h143v5q0 35 -22 57t-63 22q-59 0 -78 -41h-161q1 21 13.5 46.5t37.5 53.5t73.5 46.5t111.5 18.5q120 0 183 -56.5t63 -154.5v-156q0 -38 33 -42v-124zM282 102q40 0 67 21.5
t27 56.5v41h-109q-31 0 -49.5 -14t-18.5 -40q0 -29 22.5 -47t60.5 -18zM211 582l101 190h163l-108 -190h-156z" />
    <glyph glyph-name="abreve.alt" horiz-adv-x="597" 
d="M567 -2h-76q-81 0 -105 62q-48 -72 -152 -72q-87 0 -141.5 49t-54.5 126t51.5 118.5t143.5 41.5h143v5q0 35 -22 57t-63 22q-59 0 -78 -41h-161q1 21 13.5 46.5t37.5 53.5t73.5 46.5t111.5 18.5q120 0 183 -56.5t63 -154.5v-156q0 -38 33 -42v-124zM282 102q40 0 67 21.5
t27 56.5v41h-109q-31 0 -49.5 -14t-18.5 -40q0 -29 22.5 -47t60.5 -18zM289 687q23 0 34.5 14.5t11.5 36.5v16h122v-19q0 -70 -42.5 -114.5t-125.5 -44.5t-125.5 44.5t-42.5 114.5v19h122v-16q0 -51 46 -51z" />
    <glyph glyph-name="acircumflex.alt" horiz-adv-x="597" 
d="M567 -2h-76q-81 0 -105 62q-48 -72 -152 -72q-87 0 -141.5 49t-54.5 126t51.5 118.5t143.5 41.5h143v5q0 35 -22 57t-63 22q-59 0 -78 -41h-161q1 21 13.5 46.5t37.5 53.5t73.5 46.5t111.5 18.5q120 0 183 -56.5t63 -154.5v-156q0 -38 33 -42v-124zM282 102q40 0 67 21.5
t27 56.5v41h-109q-31 0 -49.5 -14t-18.5 -40q0 -29 22.5 -47t60.5 -18zM345 581l-56 93l-57 -93h-141l125 198h146l121 -198h-138z" />
    <glyph glyph-name="adieresis.alt" horiz-adv-x="597" 
d="M567 -2h-76q-81 0 -105 62q-48 -72 -152 -72q-87 0 -141.5 49t-54.5 126t51.5 118.5t143.5 41.5h143v5q0 35 -22 57t-63 22q-59 0 -78 -41h-161q1 21 13.5 46.5t37.5 53.5t73.5 46.5t111.5 18.5q120 0 183 -56.5t63 -154.5v-156q0 -38 33 -42v-124zM282 102q40 0 67 21.5
t27 56.5v41h-109q-31 0 -49.5 -14t-18.5 -40q0 -29 22.5 -47t60.5 -18zM96 585v158h159v-158h-159zM323 585v158h159v-158h-159z" />
    <glyph glyph-name="agrave.alt" horiz-adv-x="597" 
d="M567 -2h-76q-81 0 -105 62q-48 -72 -152 -72q-87 0 -141.5 49t-54.5 126t51.5 118.5t143.5 41.5h143v5q0 35 -22 57t-63 22q-59 0 -78 -41h-161q1 21 13.5 46.5t37.5 53.5t73.5 46.5t111.5 18.5q120 0 183 -56.5t63 -154.5v-156q0 -38 33 -42v-124zM282 102q40 0 67 21.5
t27 56.5v41h-109q-31 0 -49.5 -14t-18.5 -40q0 -29 22.5 -47t60.5 -18zM368 582h-156l-108 190h163z" />
    <glyph glyph-name="amacron.alt" horiz-adv-x="597" 
d="M567 -2h-76q-81 0 -105 62q-48 -72 -152 -72q-87 0 -141.5 49t-54.5 126t51.5 118.5t143.5 41.5h143v5q0 35 -22 57t-63 22q-59 0 -78 -41h-161q1 21 13.5 46.5t37.5 53.5t73.5 46.5t111.5 18.5q120 0 183 -56.5t63 -154.5v-156q0 -38 33 -42v-124zM282 102q40 0 67 21.5
t27 56.5v41h-109q-31 0 -49.5 -14t-18.5 -40q0 -29 22.5 -47t60.5 -18zM453 606h-328v123h328v-123z" />
    <glyph glyph-name="aogonek.alt" horiz-adv-x="597" 
d="M589 -91v-109h-143q-56 0 -89 22.5t-33 66.5q0 37 29 64t84 56q-37 15 -51 51q-48 -72 -151 -72q-88 0 -142.5 49t-54.5 126t52 118.5t144 41.5h142v5q0 35 -22 57t-63 22q-35 0 -54.5 -14t-23.5 -27h-164q1 21 14 46.5t38.5 53.5t74.5 46.5t112 18.5q120 0 183.5 -56.5
t63.5 -154.5v-156q0 -38 33 -42v-122q-8 -7 -20.5 -17t-19 -15.5t-13.5 -12.5t-10 -13t-3 -11q0 -22 28 -22h59zM283 102q40 0 66.5 21.5t26.5 56.5v41h-108q-31 0 -50 -14t-19 -40q0 -29 22.5 -47t61.5 -18z" />
    <glyph glyph-name="aring.alt" horiz-adv-x="597" 
d="M567 -2h-76q-81 0 -105 62q-48 -72 -152 -72q-87 0 -141.5 49t-54.5 126t51.5 118.5t143.5 41.5h143v5q0 35 -22 57t-63 22q-59 0 -78 -41h-161q1 21 13.5 46.5t37.5 53.5t73.5 46.5t111.5 18.5q120 0 183 -56.5t63 -154.5v-156q0 -38 33 -42v-124zM282 102q40 0 67 21.5
t27 56.5v41h-109q-31 0 -49.5 -14t-18.5 -40q0 -29 22.5 -47t60.5 -18zM288 572q-60 0 -99.5 39t-39.5 97q0 59 39.5 98t99.5 39q61 0 100.5 -39t39.5 -98q0 -58 -40 -97t-100 -39zM288 653q24 0 39.5 15.5t15.5 39.5q0 25 -15.5 40.5t-39.5 15.5t-39.5 -15.5t-15.5 -40.5
q0 -24 15.5 -39.5t39.5 -15.5z" />
    <glyph glyph-name="aringacute.alt" horiz-adv-x="597" 
d="M567 -2h-76q-81 0 -105 62q-48 -72 -152 -72q-87 0 -141.5 49t-54.5 126t51.5 118.5t143.5 41.5h143v5q0 35 -22 57t-63 22q-59 0 -78 -41h-161q1 21 13.5 46.5t37.5 53.5t73.5 46.5t111.5 18.5q120 0 183 -56.5t63 -154.5v-156q0 -38 33 -42v-124zM282 102q40 0 67 21.5
t27 56.5v41h-109q-31 0 -49.5 -14t-18.5 -40q0 -29 22.5 -47t60.5 -18zM214 879l89 159h162l-96 -159h-155zM289 572q-60 0 -99.5 39t-39.5 97q0 59 39.5 98t99.5 39q61 0 100.5 -39t39.5 -98q0 -58 -40 -97t-100 -39zM289 652q24 0 39.5 16t15.5 40q0 25 -15.5 40.5
t-39.5 15.5t-39.5 -15.5t-15.5 -40.5q0 -24 15.5 -40t39.5 -16z" />
    <glyph glyph-name="atilde.alt" horiz-adv-x="597" 
d="M567 -2h-76q-81 0 -105 62q-48 -72 -152 -72q-87 0 -141.5 49t-54.5 126t51.5 118.5t143.5 41.5h143v5q0 35 -22 57t-63 22q-59 0 -78 -41h-161q1 21 13.5 46.5t37.5 53.5t73.5 46.5t111.5 18.5q120 0 183 -56.5t63 -154.5v-156q0 -38 33 -42v-124zM282 102q40 0 67 21.5
t27 56.5v41h-109q-31 0 -49.5 -14t-18.5 -40q0 -29 22.5 -47t60.5 -18zM223 578h-108v90q0 46 22 71.5t65 25.5q36 0 83 -31l27 -17q14 -11 26 -11q15 0 15 21v43h109v-91q0 -45 -22.5 -70.5t-64.5 -25.5q-37 0 -83 30l-28 17q-17 11 -26 11q-15 0 -15 -21v-42z" />
    <glyph glyph-name="uacute.alt" horiz-adv-x="631" 
d="M400 0v63q-48 -75 -145 -75q-86 0 -137.5 57t-51.5 151v322h162v-292q0 -45 22.5 -70t62.5 -25q42 0 64.5 25t22.5 70v292h161v-518h-161zM235 582l101 190h163l-108 -190h-156z" />
    <glyph glyph-name="ubreve.alt" horiz-adv-x="631" 
d="M400 0v63q-48 -75 -145 -75q-86 0 -137.5 57t-51.5 151v322h162v-292q0 -45 22.5 -70t62.5 -25q42 0 64.5 25t22.5 70v292h161v-518h-161zM313 687q23 0 34.5 14.5t11.5 36.5v16h122v-19q0 -70 -42.5 -114.5t-125.5 -44.5t-125.5 44.5t-42.5 114.5v19h122v-16
q0 -51 46 -51z" />
    <glyph glyph-name="ucircumflex.alt" horiz-adv-x="631" 
d="M400 0v63q-48 -75 -145 -75q-86 0 -137.5 57t-51.5 151v322h162v-292q0 -45 22.5 -70t62.5 -25q42 0 64.5 25t22.5 70v292h161v-518h-161zM369 581l-56 93l-57 -93h-141l125 198h146l121 -198h-138z" />
    <glyph glyph-name="udieresis.alt" horiz-adv-x="631" 
d="M400 0v63q-48 -75 -145 -75q-86 0 -137.5 57t-51.5 151v322h162v-292q0 -45 22.5 -70t62.5 -25q42 0 64.5 25t22.5 70v292h161v-518h-161zM120 585v158h159v-158h-159zM347 585v158h159v-158h-159z" />
    <glyph glyph-name="ugrave.alt" horiz-adv-x="631" 
d="M400 0v63q-48 -75 -145 -75q-86 0 -137.5 57t-51.5 151v322h162v-292q0 -45 22.5 -70t62.5 -25q42 0 64.5 25t22.5 70v292h161v-518h-161zM391 582h-156l-108 190h163z" />
    <glyph glyph-name="uhungarumlaut.alt" horiz-adv-x="631" 
d="M400 0v63q-48 -75 -145 -75q-86 0 -137.5 57t-51.5 151v322h162v-292q0 -45 22.5 -70t62.5 -25q42 0 64.5 25t22.5 70v292h161v-518h-161zM342 582l70 190h136l-75 -190h-131zM144 582l70 190h136l-75 -190h-131z" />
    <glyph glyph-name="umacron.alt" horiz-adv-x="631" 
d="M400 0v63q-48 -75 -145 -75q-86 0 -137.5 57t-51.5 151v322h162v-292q0 -45 22.5 -70t62.5 -25q42 0 64.5 25t22.5 70v292h161v-518h-161zM477 606h-328v123h328v-123z" />
    <glyph glyph-name="uogonek.alt" horiz-adv-x="631" 
d="M400 0v63q-48 -75 -145 -75q-86 0 -137.5 57t-51.5 151v322h162v-292q0 -45 22.5 -70t62.5 -25q42 0 64.5 25t22.5 70v292h161v-518q-7 -6 -20 -16.5t-19 -16t-13 -12.5t-10 -13t-3 -11q0 -22 27 -22h59v-109h-143q-56 0 -88.5 22.5t-32.5 66.5q0 32 21.5 57.5t60.5 53.5
z" />
    <glyph glyph-name="uring.alt" horiz-adv-x="631" 
d="M400 0v63q-48 -75 -145 -75q-86 0 -137.5 57t-51.5 151v322h162v-292q0 -45 22.5 -70t62.5 -25q42 0 64.5 25t22.5 70v292h161v-518h-161zM313 572q-60 0 -99.5 39t-39.5 97q0 59 39.5 98t99.5 39q61 0 100.5 -39t39.5 -98q0 -58 -40 -97t-100 -39zM313 653
q24 0 39.5 15.5t15.5 39.5q0 25 -15.5 40.5t-39.5 15.5t-39.5 -15.5t-15.5 -40.5q0 -24 15.5 -39.5t39.5 -15.5z" />
    <glyph glyph-name="utilde.alt" horiz-adv-x="631" 
d="M400 0v63q-48 -75 -145 -75q-86 0 -137.5 57t-51.5 151v322h162v-292q0 -45 22.5 -70t62.5 -25q42 0 64.5 25t22.5 70v292h161v-518h-161zM248 578h-108v90q0 46 22 71.5t65 25.5q36 0 83 -31l27 -17q14 -11 26 -11q15 0 15 21v43h109v-91q0 -45 -22.5 -70.5t-64.5 -25.5
q-37 0 -83 30l-28 17q-17 11 -26 11q-15 0 -15 -21v-42z" />
    <glyph glyph-name="space_uni0326.alt" horiz-adv-x="500" 
d="M198 838h105q-32 -60 -45 -113h79v-140h-175v104q0 71 36 149z" />
    <glyph glyph-name="four.alt" horiz-adv-x="732" 
d="M700 202h-142v-202h-166v202h-313v508h166v-361h147v274h166v-274h142v-147z" />
    <glyph glyph-name="onequarter.alt" horiz-adv-x="1112" 
d="M283 712v-445h-134v307l-113 -59v115l146 82h101zM305 0h-134l463 710h133zM1082 116h-84v-116h-130v116h-215v327h130v-218h85v166h130v-166h84v-109z" />
    <glyph glyph-name="threequarters.alt" horiz-adv-x="1210" 
d="M424 398q0 -64 -51.5 -101.5t-143.5 -37.5q-93 0 -143 45t-53 99h135q3 -13 18 -25.5t43 -12.5q60 0 60 40q0 35 -45 35h-93v105h84q40 0 40 31q0 38 -52 38q-43 0 -52 -35h-133q3 56 50.5 97.5t134.5 41.5q90 0 138 -33.5t48 -97.5q0 -59 -60 -83q31 -10 53 -36t22 -70z
M402 0h-134l463 710h133zM1180 116h-84v-116h-130v116h-215v327h130v-218h85v166h130v-166h84v-109z" />
    <glyph glyph-name="caron.alt" 
d="M202 582l50 193h142l-58 -193h-134z" />
    <glyph glyph-name="questiondown.uc" horiz-adv-x="551" 
d="M246 465v7h161v-36q0 -49 -16 -75t-68 -55l-68 -40q-56 -34 -56 -78q0 -32 19.5 -49.5t54.5 -17.5t55 21t20 57v26h158v-37q0 -91 -61.5 -145.5t-171.5 -54.5q-114 0 -175.5 52.5t-61.5 147.5q0 71 32 115.5t103 83.5l49 30q26 15 26 48zM420 710v-176h-187v176h187z" />
    <glyph glyph-name="exclamdown.uc" horiz-adv-x="347" 
d="M80 535v175h187v-175h-187zM93 0v472h161v-472h-161z" />
    <glyph glyph-name="hyphen.uc" horiz-adv-x="490" 
d="M76 264v149h338v-149h-338z" />
    <glyph glyph-name="endash.uc" horiz-adv-x="712" 
d="M76 284v109h560v-109h-560z" />
    <glyph glyph-name="emdash.uc" horiz-adv-x="1025" 
d="M76 284v109h873v-109h-873z" />
    <glyph glyph-name="quoteleft.uc" horiz-adv-x="328" 
d="M128 710h112q-62 -101 -69 -189h87v-178h-184v155q0 120 54 212z" />
    <glyph glyph-name="quoteright.uc" horiz-adv-x="328" 
d="M200 343h-111q62 106 68 189h-86v178h183v-155q0 -120 -54 -212z" />
    <glyph glyph-name="quotedblleft.uc" horiz-adv-x="582" 
d="M128 710h112q-62 -101 -69 -189h84v-178h-181v155q0 120 54 212zM385 710h111q-62 -106 -68 -189h84v-178h-181v155q0 120 54 212z" />
    <glyph glyph-name="quotedblright.uc" horiz-adv-x="582" 
d="M454 343h-111q63 102 68 189h-84v178h182v-155q0 -118 -55 -212zM197 343h-111q63 102 68 189h-83v178h181v-155q0 -118 -55 -212z" />
    <glyph glyph-name="guilsinglleft.uc" horiz-adv-x="365" 
d="M308 513l-107 -188l107 -191h-150l-103 190l104 189h149z" />
    <glyph glyph-name="guilsinglright.uc" horiz-adv-x="365" 
d="M310 324l-104 -190h-149l106 189l-106 190h150z" />
    <glyph glyph-name="guillemotleft.uc" horiz-adv-x="604" 
d="M305 513l-104 -188l104 -191h-150l-100 190l101 189h149zM548 513l-106 -188l106 -191h-150l-102 190l103 189h149z" />
    <glyph glyph-name="guillemotright.uc" horiz-adv-x="604" 
d="M549 324l-101 -190h-149l104 189l-103 190h150zM308 324l-102 -190h-149l105 189l-105 190h149z" />
    <glyph glyph-name="at.uc" horiz-adv-x="1014" 
d="M781 59h150q-17 -28 -46.5 -56t-76 -56.5t-117 -46t-152.5 -17.5q-228 0 -359 130t-131 329q0 204 135 336t345 132q211 0 326 -111t115 -279q0 -133 -64 -216.5t-171 -83.5q-105 0 -134 64q-45 -64 -131 -64t-140.5 58t-54.5 159q0 104 58 171.5t151 67.5q43 0 74 -19
t45 -49l11 60h143l-49 -287q-5 -27 4.5 -43t33.5 -16q47 0 80 52t33 146q0 134 -86 211t-244 77t-260 -102t-102 -266q0 -157 102 -255.5t270 -98.5q141 0 242 73zM508 448q-38 0 -61 -31.5t-23 -80.5q0 -39 19 -62.5t53 -23.5q37 0 60 31.5t23 79.5q0 40 -18.5 63.5
t-52.5 23.5z" />
    <glyph glyph-name="grave.uc" 
d="M439 769h-167l-111 162h175z" />
    <glyph glyph-name="dieresis.uc" 
d="M104 769v158h160v-158h-160zM336 769v158h160v-158h-160z" />
    <glyph glyph-name="macron.uc" horiz-adv-x="500" 
d="M426 789h-352v122h352v-122z" />
    <glyph glyph-name="acute.uc" 
d="M161 769l103 162h175l-111 -162h-167z" />
    <glyph glyph-name="circumflex.uc" 
d="M321 768l-61 75l-61 -75h-149l133 166h154l130 -166h-146z" />
    <glyph glyph-name="caron.uc" 
d="M470 934l-136 -166h-154l-135 166h148l64 -77l64 77h149z" />
    <glyph glyph-name="breve.uc" 
d="M300 873q25 0 37.5 14.5t12.5 36.5v10h123v-13q0 -70 -44 -114.5t-129 -44.5t-129 44.5t-44 114.5v13h123v-10q0 -22 12.5 -36.5t37.5 -14.5z" />
    <glyph glyph-name="dotaccent.uc" 
d="M215 769v159h170v-159h-170z" />
    <glyph glyph-name="ring.uc" 
d="M300 759q-61 0 -100.5 39.5t-39.5 97.5q0 59 39.5 98t100.5 39t101 -39t40 -98q0 -58 -40 -97.5t-101 -39.5zM300 840q24 0 39.5 15.5t15.5 40.5t-15 40.5t-40 15.5t-40 -15.5t-15 -40.5t15.5 -40.5t39.5 -15.5z" />
    <glyph glyph-name="tilde.uc" 
d="M305 799l-34 17q-17 10 -28 10q-14 0 -14 -20v-40h-113v87q0 45 23 71t67 26q33 0 89 -29l33 -17q19 -10 29 -10q14 0 14 20v41h113v-88q0 -45 -23 -70.5t-67 -25.5q-36 0 -89 28z" />
    <glyph glyph-name="hungarumlaut.uc" 
d="M293 769l77 162h154l-83 -162h-148zM76 769l73 162h155l-80 -162h-148z" />
    <glyph glyph-name="A.sc" horiz-adv-x="665" 
d="M472 0l-30 88h-231l-30 -88h-159l212 587h196l213 -587h-171zM256 218h142l-71 208z" />
    <glyph glyph-name="B.sc" horiz-adv-x="682" 
d="M89 0v586h331q92 0 141 -42t49 -113q0 -46 -25.5 -77.5t-61.5 -43.5q44 -13 73.5 -49.5t29.5 -93.5q0 -77 -53.5 -122t-154.5 -45h-329zM384 463h-133v-102h133q58 0 58 51t-58 51zM381 240h-130v-117h130q75 0 75 59q0 58 -75 58z" />
    <glyph glyph-name="C.sc" horiz-adv-x="633" 
d="M333 -11q-124 0 -200.5 82t-76.5 222t76.5 222t200.5 82q62 0 111.5 -20t78 -52t44 -66.5t17.5 -67.5h-159q-23 60 -92 60q-51 0 -79.5 -43.5t-28.5 -114.5t28.5 -114.5t79.5 -43.5q40 0 62.5 18.5t30.5 41.5h158q-2 -30 -16 -63t-41 -66.5t-77.5 -55t-116.5 -21.5z" />
    <glyph glyph-name="D.sc" horiz-adv-x="679" 
d="M89 0v586h221q146 0 230 -73t84 -220q0 -144 -84.5 -218.5t-229.5 -74.5h-221zM308 447h-54v-307h54q70 0 109 40t39 113q0 76 -38.5 115t-109.5 39z" />
    <glyph glyph-name="E.sc" horiz-adv-x="628" 
d="M89 0v586h471v-129h-305v-87h179v-134h-179v-101h332v-135h-498z" />
    <glyph glyph-name="F.sc" horiz-adv-x="623" 
d="M89 0v586h496v-130h-331v-98h186v-134h-186v-224h-165z" />
    <glyph glyph-name="G.sc" horiz-adv-x="682" 
d="M608 55q-29 -23 -90 -44.5t-147 -21.5q-145 0 -230 82.5t-85 225.5q0 135 81 218t210 83q63 0 113.5 -18t79 -46.5t44 -57t18.5 -56.5h-161q-34 41 -92 41q-60 0 -95 -43.5t-35 -120.5q0 -80 39 -125.5t113 -45.5q53 0 81 13v86h-136v127h292v-297z" />
    <glyph glyph-name="H.sc" horiz-adv-x="723" 
d="M468 0v221h-214v-221h-165v586h165v-221h214v221h165v-586h-165z" />
    <glyph glyph-name="I.sc" horiz-adv-x="347" 
d="M91 0v586h165v-586h-165z" />
    <glyph glyph-name="J.sc" horiz-adv-x="607" 
d="M521 191q0 -92 -59.5 -147t-170.5 -55q-107 0 -162.5 55t-55.5 147v168h155v-152q0 -33 15.5 -53t47.5 -20t48 20.5t16 52.5v379h166v-395z" />
    <glyph glyph-name="K.sc" horiz-adv-x="670" 
d="M452 0l-198 250v-250h-165v586h165v-239l196 239h199l-228 -277l240 -309h-209z" />
    <glyph glyph-name="L.sc" horiz-adv-x="589" 
d="M550 144v-144h-461v586h165v-442h296z" />
    <glyph glyph-name="M.sc" horiz-adv-x="852" 
d="M328 586l101 -319l100 319h234v-586h-158v417l-131 -417h-104l-132 416v-416h-149v586h239z" />
    <glyph glyph-name="N.sc" horiz-adv-x="722" 
d="M632 586v-589h-136l-248 360v-357h-159v586h182l206 -307v307h155z" />
    <glyph glyph-name="O.sc" horiz-adv-x="688" 
d="M343 -11q-124 0 -205.5 82t-81.5 222q0 142 81 223t206 81t206.5 -81t81.5 -223q0 -140 -82 -222t-206 -82zM343 135q56 0 88 44t32 114q0 71 -31 115t-89 44q-56 0 -88 -44t-32 -115q0 -70 32 -114t88 -44z" />
    <glyph glyph-name="P.sc" horiz-adv-x="666" 
d="M89 0v586h311q104 0 161 -49.5t57 -145.5t-57 -146.5t-161 -50.5h-146v-194h-165zM375 450h-121v-120h121q74 0 74 60t-74 60z" />
    <glyph glyph-name="Q.sc" horiz-adv-x="688" 
d="M631 293q0 -176 -126 -256l120 -162h-194l-84 116h-4q-124 0 -205.5 81t-81.5 221q0 142 81 223t206 81t206.5 -81t81.5 -223zM343 134q56 0 88 44t32 115t-32 115t-88 44t-88 -44t-32 -115t32 -115t88 -44z" />
    <glyph glyph-name="R.sc" horiz-adv-x="688" 
d="M89 0v586h314q100 0 157 -49.5t57 -143.5q0 -118 -96 -164l133 -229h-175l-118 205h-108v-205h-164zM377 450h-124v-116h124q71 0 71 59q0 57 -71 57z" />
    <glyph glyph-name="S.sc" horiz-adv-x="625" 
d="M294 472q-33 0 -52 -12t-19 -34q0 -20 15.5 -31t49.5 -16q10 -2 25.5 -3.5t25.5 -2.5q117 -15 174 -57.5t57 -132.5q0 -89 -65 -141.5t-185 -52.5q-69 0 -123 17.5t-85.5 46.5t-49 58.5t-24.5 61.5h175q8 -21 35.5 -39t71.5 -18q80 0 80 52q0 25 -16.5 36t-53.5 17l-52 7
q-111 13 -167.5 58.5t-56.5 130.5t65.5 133t174.5 48q53 0 96.5 -11t71.5 -28t48.5 -40t31 -44t15.5 -44h-166q-27 41 -97 41z" />
    <glyph glyph-name="T.sc" horiz-adv-x="623" 
d="M39 444v142h546v-142h-191v-444h-164v444h-191z" />
    <glyph glyph-name="U.sc" horiz-adv-x="708" 
d="M355 138q49 0 76.5 30.5t27.5 82.5v335h164v-345q0 -110 -70.5 -181t-197.5 -71q-130 0 -200 70t-70 182v345h166v-335q0 -52 27 -82.5t77 -30.5z" />
    <glyph glyph-name="V.sc" horiz-adv-x="652" 
d="M629 586l-207 -587h-178l-220 587h186l125 -368l123 368h171z" />
    <glyph glyph-name="W.sc" horiz-adv-x="884" 
d="M535 -1l-95 345l-95 -345h-153l-165 587h172l87 -349l92 350h141l93 -357l88 356h157l-158 -587h-164z" />
    <glyph glyph-name="X.sc" horiz-adv-x="685" 
d="M470 0l-132 172l-134 -172h-189l230 295l-223 291h208l119 -158l123 158h190l-220 -282l228 -304h-200z" />
    <glyph glyph-name="Y.sc" horiz-adv-x="630" 
d="M408 230v-230h-175v235l-226 351h199l120 -195l120 195h177z" />
    <glyph glyph-name="Z.sc" horiz-adv-x="641" 
d="M599 141v-141h-546v94l277 353h-269v139h509v-91l-278 -354h307z" />
    <glyph glyph-name="Oslash.sc" horiz-adv-x="688" 
d="M631 293q0 -140 -81 -222t-205 -82q-83 0 -148 39l-24 -28h-144l85 103q-58 77 -58 190q0 143 81 223.5t205 80.5q80 0 147 -38l23 27h146l-85 -102q58 -79 58 -191zM211 293q0 -37 6 -66l183 223q-27 8 -57 8q-62 0 -97 -46t-35 -119zM475 293q0 33 -5 65l-184 -222
q26 -9 57 -9q63 0 97.5 46t34.5 120z" />
    <glyph glyph-name="AE.sc" horiz-adv-x="903" 
d="M863 136v-136h-461v109h-176l-54 -109h-173l294 586h543v-129h-275v-86h168v-134h-168v-101h302zM289 238h113v229z" />
    <glyph glyph-name="OE.sc" horiz-adv-x="909" 
d="M56 293q0 139 87.5 216t231.5 77h466v-129h-274v-86h168v-134h-168v-101h301v-136h-493q-145 0 -232 76.5t-87 216.5zM378 140h29v307h-29q-73 0 -114 -41.5t-41 -112.5q0 -70 41 -111.5t114 -41.5z" />
    <glyph glyph-name="Eth.sc" horiz-adv-x="685" 
d="M22 360h74v226h220q146 0 230 -73t84 -220q0 -144 -84.5 -218.5t-229.5 -74.5h-220v231h-74v129zM373 231h-112v-94h53q71 0 109.5 40.5t38.5 115.5q0 77 -38 117t-110 40h-53v-90h112v-129z" />
    <glyph glyph-name="Dcroat.sc" horiz-adv-x="685" 
d="M22 360h74v226h220q146 0 230 -73t84 -220q0 -144 -84.5 -218.5t-229.5 -74.5h-220v231h-74v129zM373 231h-112v-94h53q71 0 109.5 40.5t38.5 115.5q0 77 -38 117t-110 40h-53v-90h112v-129z" />
    <glyph glyph-name="Eng.sc" horiz-adv-x="722" 
d="M633 -18q0 -76 -32.5 -108.5t-102.5 -32.5h-146v117h81q50 0 50 37q0 21 -28 62l-207 300v-357h-159v586h183l205 -305v305h156v-604z" />
    <glyph glyph-name="IJ.sc" horiz-adv-x="954" 
d="M91 0v586h165v-586h-165zM868 191q0 -92 -59.5 -147t-170.5 -55q-107 0 -162.5 55t-55.5 147v168h155v-152q0 -33 15.5 -53t47.5 -20t48 20.5t16 52.5v379h166v-395z" />
    <glyph glyph-name="dotlessj.sc" horiz-adv-x="607" 
d="M521 191q0 -92 -59.5 -147t-170.5 -55q-107 0 -162.5 55t-55.5 147v168h155v-152q0 -33 15.5 -53t47.5 -20t48 20.5t16 52.5v379h166v-395z" />
    <glyph glyph-name="Aacute.sc" horiz-adv-x="665" 
d="M472 0l-30 88h-231l-30 -88h-159l212 587h196l213 -587h-171zM256 218h142l-71 208zM244 645l103 162h175l-111 -162h-167z" />
    <glyph glyph-name="Abreve.sc" horiz-adv-x="665" 
d="M472 0l-30 88h-231l-30 -88h-159l212 587h196l213 -587h-171zM256 218h142l-71 208zM326 749q25 0 37.5 14.5t12.5 36.5v10h123v-13q0 -70 -44 -114.5t-129 -44.5t-129 44.5t-44 114.5v13h123v-10q0 -22 12.5 -36.5t37.5 -14.5z" />
    <glyph glyph-name="Acircumflex.sc" horiz-adv-x="665" 
d="M472 0l-30 88h-231l-30 -88h-159l212 587h196l213 -587h-171zM256 218h142l-71 208zM387 644l-61 75l-61 -75h-149l133 166h154l130 -166h-146z" />
    <glyph glyph-name="Adieresis.sc" horiz-adv-x="665" 
d="M472 0l-30 88h-231l-30 -88h-159l212 587h196l213 -587h-171zM256 218h142l-71 208zM130 645v158h160v-158h-160zM362 645v158h160v-158h-160z" />
    <glyph glyph-name="Agrave.sc" horiz-adv-x="665" 
d="M472 0l-30 88h-231l-30 -88h-159l212 587h196l213 -587h-171zM256 218h142l-71 208zM411 645h-167l-111 162h175z" />
    <glyph glyph-name="Amacron.sc" horiz-adv-x="665" 
d="M472 0l-30 88h-231l-30 -88h-159l212 587h196l213 -587h-171zM256 218h142l-71 208zM502 665h-352v122h352v-122z" />
    <glyph glyph-name="Aogonek.sc" horiz-adv-x="665" 
d="M472 0l-30 88h-231l-30 -88h-159l212 587h196l213 -587q-8 -7 -20.5 -17t-19 -15.5t-13.5 -12.5t-10 -13t-3 -11q0 -22 28 -22h59v-109h-143q-56 0 -88.5 22.5t-32.5 66.5q0 52 70 111h2zM256 218h142l-71 208z" />
    <glyph glyph-name="Aring.sc" horiz-adv-x="665" 
d="M472 0l-30 88h-231l-30 -88h-159l212 587h196l213 -587h-171zM256 218h142l-71 208zM326 635q-61 0 -100.5 39.5t-39.5 97.5q0 59 39.5 98t100.5 39t101 -39t40 -98q0 -58 -40 -97.5t-101 -39.5zM326 716q24 0 39.5 15.5t15.5 40.5t-15 40.5t-40 15.5t-40 -15.5
t-15 -40.5t15.5 -40.5t39.5 -15.5z" />
    <glyph glyph-name="Atilde.sc" horiz-adv-x="663" 
d="M472 0l-30 88h-231l-30 -88h-159l212 587h196l213 -587h-171zM256 218h142l-71 208zM330 675l-34 17q-17 10 -28 10q-14 0 -14 -20v-40h-113v87q0 45 23 71t67 26q33 0 89 -29l33 -17q19 -10 29 -10q14 0 14 20v41h113v-88q0 -45 -23 -70.5t-67 -25.5q-36 0 -89 28z" />
    <glyph glyph-name="AEacute.sc" horiz-adv-x="903" 
d="M863 136v-136h-461v109h-176l-54 -109h-173l294 586h543v-129h-275v-86h168v-134h-168v-101h302zM289 238h113v229zM478 645l103 162h175l-111 -162h-167z" />
    <glyph glyph-name="Cacute.sc" horiz-adv-x="633" 
d="M333 -11q-124 0 -200.5 82t-76.5 222t76.5 222t200.5 82q62 0 111.5 -20t78 -52t44 -66.5t17.5 -67.5h-159q-23 60 -92 60q-51 0 -79.5 -43.5t-28.5 -114.5t28.5 -114.5t79.5 -43.5q40 0 62.5 18.5t30.5 41.5h158q-2 -30 -16 -63t-41 -66.5t-77.5 -55t-116.5 -21.5z
M251 645l103 162h175l-111 -162h-167z" />
    <glyph glyph-name="Ccaron.sc" horiz-adv-x="633" 
d="M333 -11q-124 0 -200.5 82t-76.5 222t76.5 222t200.5 82q62 0 111.5 -20t78 -52t44 -66.5t17.5 -67.5h-159q-23 60 -92 60q-51 0 -79.5 -43.5t-28.5 -114.5t28.5 -114.5t79.5 -43.5q40 0 62.5 18.5t30.5 41.5h158q-2 -30 -16 -63t-41 -66.5t-77.5 -55t-116.5 -21.5z
M546 810l-136 -166h-154l-135 166h148l64 -77l64 77h149z" />
    <glyph glyph-name="Ccedilla.sc" horiz-adv-x="633" 
d="M333 -11q-124 0 -200.5 82t-76.5 222t76.5 222t200.5 82q62 0 111.5 -20t78 -52t44 -66.5t17.5 -67.5h-159q-23 60 -92 60q-51 0 -79.5 -43.5t-28.5 -114.5t28.5 -114.5t79.5 -43.5q40 0 62.5 18.5t30.5 41.5h158q-2 -30 -16 -63t-41 -66.5t-77.5 -55t-116.5 -21.5z
M485 -161q0 -59 -33.5 -92.5t-98.5 -33.5h-124v103h100q32 0 32 27q0 26 -32 26h-78v131h115v-43q57 -1 88 -32t31 -86z" />
    <glyph glyph-name="Ccircumflex.sc" horiz-adv-x="633" 
d="M333 -11q-124 0 -200.5 82t-76.5 222t76.5 222t200.5 82q62 0 111.5 -20t78 -52t44 -66.5t17.5 -67.5h-159q-23 60 -92 60q-51 0 -79.5 -43.5t-28.5 -114.5t28.5 -114.5t79.5 -43.5q40 0 62.5 18.5t30.5 41.5h158q-2 -30 -16 -63t-41 -66.5t-77.5 -55t-116.5 -21.5z
M394 644l-61 75l-61 -75h-149l133 166h154l130 -166h-146z" />
    <glyph glyph-name="Cdotaccent.sc" horiz-adv-x="633" 
d="M333 -11q-124 0 -200.5 82t-76.5 222t76.5 222t200.5 82q62 0 111.5 -20t78 -52t44 -66.5t17.5 -67.5h-159q-23 60 -92 60q-51 0 -79.5 -43.5t-28.5 -114.5t28.5 -114.5t79.5 -43.5q40 0 62.5 18.5t30.5 41.5h158q-2 -30 -16 -63t-41 -66.5t-77.5 -55t-116.5 -21.5z
M248 645v159h170v-159h-170z" />
    <glyph glyph-name="Dcaron.sc" horiz-adv-x="679" 
d="M89 0v586h221q146 0 230 -73t84 -220q0 -144 -84.5 -218.5t-229.5 -74.5h-221zM308 447h-54v-307h54q70 0 109 40t39 113q0 76 -38.5 115t-109.5 39zM532 810l-136 -166h-154l-135 166h148l64 -77l64 77h149z" />
    <glyph glyph-name="Eacute.sc" horiz-adv-x="628" 
d="M89 0v586h471v-129h-305v-87h179v-134h-179v-101h332v-135h-498zM239 645l103 162h175l-111 -162h-167z" />
    <glyph glyph-name="Ebreve.sc" horiz-adv-x="628" 
d="M89 0v586h471v-129h-305v-87h179v-134h-179v-101h332v-135h-498zM322 749q25 0 37.5 14.5t12.5 36.5v10h123v-13q0 -70 -44 -114.5t-129 -44.5t-129 44.5t-44 114.5v13h123v-10q0 -22 12.5 -36.5t37.5 -14.5z" />
    <glyph glyph-name="Ecaron.sc" horiz-adv-x="628" 
d="M89 0v586h471v-129h-305v-87h179v-134h-179v-101h332v-135h-498zM534 810l-136 -166h-154l-135 166h148l64 -77l64 77h149z" />
    <glyph glyph-name="Ecircumflex.sc" horiz-adv-x="628" 
d="M89 0v586h471v-129h-305v-87h179v-134h-179v-101h332v-135h-498zM383 644l-61 75l-61 -75h-149l133 166h154l130 -166h-146z" />
    <glyph glyph-name="Edieresis.sc" horiz-adv-x="628" 
d="M89 0v586h471v-129h-305v-87h179v-134h-179v-101h332v-135h-498zM126 645v158h160v-158h-160zM358 645v158h160v-158h-160z" />
    <glyph glyph-name="Edotaccent.sc" horiz-adv-x="628" 
d="M89 0v586h471v-129h-305v-87h179v-134h-179v-101h332v-135h-498zM237 645v159h170v-159h-170z" />
    <glyph glyph-name="Egrave.sc" horiz-adv-x="628" 
d="M89 0v586h471v-129h-305v-87h179v-134h-179v-101h332v-135h-498zM412 645h-167l-111 162h175z" />
    <glyph glyph-name="Emacron.sc" horiz-adv-x="628" 
d="M89 0v586h471v-129h-305v-87h179v-134h-179v-101h332v-135h-498zM498 665h-352v122h352v-122z" />
    <glyph glyph-name="Eogonek.sc" horiz-adv-x="628" 
d="M89 0v586h471v-129h-305v-87h179v-134h-179v-101h332v-135h-498zM533 -91v-109h-143q-56 0 -89 22.5t-33 66.5q0 32 21.5 57.5t59.5 53.5h163q-8 -7 -20.5 -17t-19 -15.5t-13.5 -12.5t-10 -13t-3 -11q0 -22 28 -22h59z" />
    <glyph glyph-name="Gbreve.sc" horiz-adv-x="682" 
d="M608 55q-29 -23 -90 -44.5t-147 -21.5q-145 0 -230 82.5t-85 225.5q0 135 81 218t210 83q63 0 113.5 -18t79 -46.5t44 -57t18.5 -56.5h-161q-34 41 -92 41q-60 0 -95 -43.5t-35 -120.5q0 -80 39 -125.5t113 -45.5q53 0 81 13v86h-136v127h292v-297zM347 749
q25 0 37.5 14.5t12.5 36.5v10h123v-13q0 -70 -44 -114.5t-129 -44.5t-129 44.5t-44 114.5v13h123v-10q0 -22 12.5 -36.5t37.5 -14.5z" />
    <glyph glyph-name="Gcircumflex.sc" horiz-adv-x="682" 
d="M608 55q-29 -23 -90 -44.5t-147 -21.5q-145 0 -230 82.5t-85 225.5q0 135 81 218t210 83q63 0 113.5 -18t79 -46.5t44 -57t18.5 -56.5h-161q-34 41 -92 41q-60 0 -95 -43.5t-35 -120.5q0 -80 39 -125.5t113 -45.5q53 0 81 13v86h-136v127h292v-297zM408 644l-61 75
l-61 -75h-149l133 166h154l130 -166h-146z" />
    <glyph glyph-name="Gcommaaccent.sc" horiz-adv-x="682" 
d="M608 55q-29 -23 -90 -44.5t-147 -21.5q-145 0 -230 82.5t-85 225.5q0 135 81 218t210 83q63 0 113.5 -18t79 -46.5t44 -57t18.5 -56.5h-161q-34 41 -92 41q-60 0 -95 -43.5t-35 -120.5q0 -80 39 -125.5t113 -45.5q53 0 81 13v86h-136v127h292v-297zM430 -320h-105
q32 60 45 113h-79v140h175v-104q0 -71 -36 -149z" />
    <glyph glyph-name="Gdotaccent.sc" horiz-adv-x="682" 
d="M608 55q-29 -23 -90 -44.5t-147 -21.5q-145 0 -230 82.5t-85 225.5q0 135 81 218t210 83q63 0 113.5 -18t79 -46.5t44 -57t18.5 -56.5h-161q-34 41 -92 41q-60 0 -95 -43.5t-35 -120.5q0 -80 39 -125.5t113 -45.5q53 0 81 13v86h-136v127h292v-297zM262 645v159h170v-159
h-170z" />
    <glyph glyph-name="Hbar.sc" horiz-adv-x="723" 
d="M468 0v221h-214v-221h-165v427h-70v99h70v60h165v-60h214v60h165v-60h70v-99h-70v-427h-165zM254 365h214v62h-214v-62z" />
    <glyph glyph-name="Hcircumflex.sc" horiz-adv-x="723" 
d="M468 0v221h-214v-221h-165v586h165v-221h214v221h165v-586h-165zM422 644l-61 75l-61 -75h-149l133 166h154l130 -166h-146z" />
    <glyph glyph-name="Iacute.sc" horiz-adv-x="347" 
d="M91 0v586h165v-586h-165zM91 645l103 162h175l-111 -162h-167z" />
    <glyph glyph-name="Ibreve.sc" horiz-adv-x="347" 
d="M91 0v586h165v-586h-165zM173 749q25 0 37.5 14.5t12.5 36.5v10h123v-13q0 -70 -44 -114.5t-129 -44.5t-129 44.5t-44 114.5v13h123v-10q0 -22 12.5 -36.5t37.5 -14.5z" />
    <glyph glyph-name="Icircumflex.sc" horiz-adv-x="347" 
d="M91 0v586h165v-586h-165zM234 644l-61 75l-61 -75h-149l133 166h154l130 -166h-146z" />
    <glyph glyph-name="Idieresis.sc" horiz-adv-x="347" 
d="M91 0v586h165v-586h-165zM-23 645v158h160v-158h-160zM209 645v158h160v-158h-160z" />
    <glyph glyph-name="Idotaccent.sc" horiz-adv-x="347" 
d="M91 0v586h165v-586h-165zM88 645v159h170v-159h-170z" />
    <glyph glyph-name="Igrave.sc" horiz-adv-x="347" 
d="M91 0v586h165v-586h-165zM258 645h-167l-111 162h175z" />
    <glyph glyph-name="Imacron.sc" horiz-adv-x="347" 
d="M91 0v586h165v-586h-165zM349 665h-352v122h352v-122z" />
    <glyph glyph-name="Iogonek.sc" horiz-adv-x="347" 
d="M91 0v586h165v-586q-8 -7 -20.5 -17t-19 -15.5t-13.5 -12.5t-10 -13t-3 -11q0 -22 28 -22h59v-109h-143q-56 0 -88.5 22.5t-32.5 66.5q0 22 13 44t27 35t38 32z" />
    <glyph glyph-name="Itilde.sc" horiz-adv-x="347" 
d="M91 0v586h165v-586h-165zM178 675l-34 17q-17 10 -28 10q-14 0 -14 -20v-40h-113v87q0 45 23 71t67 26q33 0 89 -29l33 -17q19 -10 29 -10q14 0 14 20v41h113v-88q0 -45 -23 -70.5t-67 -25.5q-36 0 -89 28z" />
    <glyph glyph-name="Jcircumflex.sc" horiz-adv-x="607" 
d="M521 191q0 -92 -59.5 -147t-170.5 -55q-107 0 -162.5 55t-55.5 147v168h155v-152q0 -33 15.5 -53t47.5 -20t48 20.5t16 52.5v379h166v-395zM498 644l-61 75l-61 -75h-149l133 166h154l130 -166h-146z" />
    <glyph glyph-name="Kcommaaccent.sc" horiz-adv-x="667" 
d="M452 0l-198 250v-250h-165v586h165v-239l196 239h199l-228 -277l240 -309h-209zM405 -320h-105q32 60 45 113h-79v140h175v-104q0 -71 -36 -149z" />
    <glyph glyph-name="Lacute.sc" horiz-adv-x="589" 
d="M550 144v-144h-461v586h165v-442h296zM92 645l103 162h175l-111 -162h-167z" />
    <glyph glyph-name="Lcaron.sc" horiz-adv-x="589" 
d="M550 144v-144h-461v586h165v-442h296zM297 430l50 193h142l-58 -193h-134z" />
    <glyph glyph-name="Lcommaaccent.sc" horiz-adv-x="589" 
d="M550 144v-144h-461v586h165v-442h296zM376 -320h-105q32 60 45 113h-79v140h175v-104q0 -71 -36 -149z" />
    <glyph glyph-name="Ldot.sc" horiz-adv-x="618" 
d="M550 144v-144h-461v586h165v-442h296zM391 266v196h187v-196h-187z" />
    <glyph glyph-name="Lslash.sc" horiz-adv-x="596" 
d="M557 144v-144h-461v166l-75 -33v127l75 34v292h165v-216l172 80v-132l-172 -78v-96h296z" />
    <glyph glyph-name="Nacute.sc" horiz-adv-x="722" 
d="M632 586v-589h-136l-248 360v-357h-159v586h182l206 -307v307h155zM285 645l103 162h175l-111 -162h-167z" />
    <glyph glyph-name="Ncaron.sc" horiz-adv-x="722" 
d="M632 586v-589h-136l-248 360v-357h-159v586h182l206 -307v307h155zM580 810l-136 -166h-154l-135 166h148l64 -77l64 77h149z" />
    <glyph glyph-name="Ncommaaccent.sc" horiz-adv-x="722" 
d="M632 586v-589h-136l-248 360v-357h-159v586h182l206 -307v307h155zM423 -320h-105q32 60 45 113h-79v140h175v-104q0 -71 -36 -149z" />
    <glyph glyph-name="Ntilde.sc" horiz-adv-x="722" 
d="M632 586v-589h-136l-248 360v-357h-159v586h182l206 -307v307h155zM372 675l-34 17q-17 10 -28 10q-14 0 -14 -20v-40h-113v87q0 45 23 71t67 26q33 0 89 -29l33 -17q19 -10 29 -10q14 0 14 20v41h113v-88q0 -45 -23 -70.5t-67 -25.5q-36 0 -89 28z" />
    <glyph glyph-name="Oacute.sc" horiz-adv-x="688" 
d="M343 -11q-124 0 -205.5 82t-81.5 222q0 142 81 223t206 81t206.5 -81t81.5 -223q0 -140 -82 -222t-206 -82zM343 135q56 0 88 44t32 114q0 71 -31 115t-89 44q-56 0 -88 -44t-32 -115q0 -70 32 -114t88 -44zM261 645l103 162h175l-111 -162h-167z" />
    <glyph glyph-name="Obreve.sc" horiz-adv-x="688" 
d="M343 -11q-124 0 -205.5 82t-81.5 222q0 142 81 223t206 81t206.5 -81t81.5 -223q0 -140 -82 -222t-206 -82zM343 135q56 0 88 44t32 114q0 71 -31 115t-89 44q-56 0 -88 -44t-32 -115q0 -70 32 -114t88 -44zM343 749q25 0 37.5 14.5t12.5 36.5v10h123v-13
q0 -70 -44 -114.5t-129 -44.5t-129 44.5t-44 114.5v13h123v-10q0 -22 12.5 -36.5t37.5 -14.5z" />
    <glyph glyph-name="Ocircumflex.sc" horiz-adv-x="688" 
d="M343 -11q-124 0 -205.5 82t-81.5 222q0 142 81 223t206 81t206.5 -81t81.5 -223q0 -140 -82 -222t-206 -82zM343 135q56 0 88 44t32 114q0 71 -31 115t-89 44q-56 0 -88 -44t-32 -115q0 -70 32 -114t88 -44zM404 644l-61 75l-61 -75h-149l133 166h154l130 -166h-146z" />
    <glyph glyph-name="Odieresis.sc" horiz-adv-x="688" 
d="M343 -11q-124 0 -205.5 82t-81.5 222q0 142 81 223t206 81t206.5 -81t81.5 -223q0 -140 -82 -222t-206 -82zM343 135q56 0 88 44t32 114q0 71 -31 115t-89 44q-56 0 -88 -44t-32 -115q0 -70 32 -114t88 -44zM147 645v158h160v-158h-160zM379 645v158h160v-158h-160z" />
    <glyph glyph-name="Ograve.sc" horiz-adv-x="688" 
d="M343 -11q-124 0 -205.5 82t-81.5 222q0 142 81 223t206 81t206.5 -81t81.5 -223q0 -140 -82 -222t-206 -82zM343 135q56 0 88 44t32 114q0 71 -31 115t-89 44q-56 0 -88 -44t-32 -115q0 -70 32 -114t88 -44zM428 645h-167l-111 162h175z" />
    <glyph glyph-name="Ohungarumlaut.sc" horiz-adv-x="688" 
d="M343 -11q-124 0 -205.5 82t-81.5 222q0 142 81 223t206 81t206.5 -81t81.5 -223q0 -140 -82 -222t-206 -82zM343 135q56 0 88 44t32 114q0 71 -31 115t-89 44q-56 0 -88 -44t-32 -115q0 -70 32 -114t88 -44zM378 645l77 162h154l-83 -162h-148zM161 645l73 162h155
l-80 -162h-148z" />
    <glyph glyph-name="Omacron.sc" horiz-adv-x="688" 
d="M343 -11q-124 0 -205.5 82t-81.5 222q0 142 81 223t206 81t206.5 -81t81.5 -223q0 -140 -82 -222t-206 -82zM343 135q56 0 88 44t32 114q0 71 -31 115t-89 44q-56 0 -88 -44t-32 -115q0 -70 32 -114t88 -44zM519 665h-352v122h352v-122z" />
    <glyph glyph-name="Otilde.sc" horiz-adv-x="688" 
d="M343 -11q-124 0 -205.5 82t-81.5 222q0 142 81 223t206 81t206.5 -81t81.5 -223q0 -140 -82 -222t-206 -82zM343 135q56 0 88 44t32 114q0 71 -31 115t-89 44q-56 0 -88 -44t-32 -115q0 -70 32 -114t88 -44zM348 675l-34 17q-17 10 -28 10q-14 0 -14 -20v-40h-113v87
q0 45 23 71t67 26q33 0 89 -29l33 -17q19 -10 29 -10q14 0 14 20v41h113v-88q0 -45 -23 -70.5t-67 -25.5q-36 0 -89 28z" />
    <glyph glyph-name="Oslashacute.sc" horiz-adv-x="688" 
d="M631 293q0 -140 -81 -222t-205 -82q-83 0 -148 39l-24 -28h-144l85 103q-58 77 -58 190q0 143 81 223.5t205 80.5q80 0 147 -38l23 27h146l-85 -102q58 -79 58 -191zM211 293q0 -37 6 -66l183 223q-27 8 -57 8q-62 0 -97 -46t-35 -119zM475 293q0 33 -5 65l-184 -222
q26 -9 57 -9q63 0 97.5 46t34.5 120zM261 645l103 162h175l-111 -162h-167z" />
    <glyph glyph-name="Racute.sc" horiz-adv-x="688" 
d="M89 0v586h314q100 0 157 -49.5t57 -143.5q0 -118 -96 -164l133 -229h-175l-118 205h-108v-205h-164zM377 450h-124v-116h124q71 0 71 59q0 57 -71 57zM248 645l103 162h175l-111 -162h-167z" />
    <glyph glyph-name="Rcaron.sc" horiz-adv-x="688" 
d="M89 0v586h314q100 0 157 -49.5t57 -143.5q0 -118 -96 -164l133 -229h-175l-118 205h-108v-205h-164zM377 450h-124v-116h124q71 0 71 59q0 57 -71 57zM543 810l-136 -166h-154l-135 166h148l64 -77l64 77h149z" />
    <glyph glyph-name="Rcommaaccent.sc" horiz-adv-x="688" 
d="M89 0v586h314q100 0 157 -49.5t57 -143.5q0 -118 -96 -164l133 -229h-175l-118 205h-108v-205h-164zM377 450h-124v-116h124q71 0 71 59q0 57 -71 57zM417 -320h-105q32 60 45 113h-79v140h175v-104q0 -71 -36 -149z" />
    <glyph glyph-name="Sacute.sc" horiz-adv-x="625" 
d="M294 472q-33 0 -52 -12t-19 -34q0 -20 15.5 -31t49.5 -16q10 -2 25.5 -3.5t25.5 -2.5q117 -15 174 -57.5t57 -132.5q0 -89 -65 -141.5t-185 -52.5q-69 0 -123 17.5t-85.5 46.5t-49 58.5t-24.5 61.5h175q8 -21 35.5 -39t71.5 -18q80 0 80 52q0 25 -16.5 36t-53.5 17l-52 7
q-111 13 -167.5 58.5t-56.5 130.5t65.5 133t174.5 48q53 0 96.5 -11t71.5 -28t48.5 -40t31 -44t15.5 -44h-166q-27 41 -97 41zM222 645l103 162h175l-111 -162h-167z" />
    <glyph glyph-name="Scaron.sc" horiz-adv-x="625" 
d="M294 472q-33 0 -52 -12t-19 -34q0 -20 15.5 -31t49.5 -16q10 -2 25.5 -3.5t25.5 -2.5q117 -15 174 -57.5t57 -132.5q0 -89 -65 -141.5t-185 -52.5q-69 0 -123 17.5t-85.5 46.5t-49 58.5t-24.5 61.5h175q8 -21 35.5 -39t71.5 -18q80 0 80 52q0 25 -16.5 36t-53.5 17l-52 7
q-111 13 -167.5 58.5t-56.5 130.5t65.5 133t174.5 48q53 0 96.5 -11t71.5 -28t48.5 -40t31 -44t15.5 -44h-166q-27 41 -97 41zM517 810l-136 -166h-154l-135 166h148l64 -77l64 77h149z" />
    <glyph glyph-name="Scedilla.sc" horiz-adv-x="625" 
d="M294 472q-33 0 -52 -12t-19 -34q0 -20 15.5 -31t49.5 -16q10 -2 25.5 -3.5t25.5 -2.5q117 -15 174 -57.5t57 -132.5q0 -66 -36 -112.5t-106 -67.5q-42 -13 -90 -14v-32q57 -1 87.5 -32t30.5 -86q0 -59 -33 -92.5t-98 -33.5h-124v103h99q32 0 32 27q0 26 -32 26h-77v130
q-12 2 -27 8q-71 25 -109.5 70.5t-48.5 95.5h175q8 -21 35.5 -39t71.5 -18q80 0 80 52q0 25 -16.5 36t-53.5 17l-52 7q-111 13 -167.5 58.5t-56.5 130.5t65.5 133t174.5 48q53 0 96.5 -11t71.5 -28t48.5 -40t31 -44t15.5 -44h-166q-27 41 -97 41z" />
    <glyph glyph-name="Scircumflex.sc" horiz-adv-x="625" 
d="M294 472q-33 0 -52 -12t-19 -34q0 -20 15.5 -31t49.5 -16q10 -2 25.5 -3.5t25.5 -2.5q117 -15 174 -57.5t57 -132.5q0 -89 -65 -141.5t-185 -52.5q-69 0 -123 17.5t-85.5 46.5t-49 58.5t-24.5 61.5h175q8 -21 35.5 -39t71.5 -18q80 0 80 52q0 25 -16.5 36t-53.5 17l-52 7
q-111 13 -167.5 58.5t-56.5 130.5t65.5 133t174.5 48q53 0 96.5 -11t71.5 -28t48.5 -40t31 -44t15.5 -44h-166q-27 41 -97 41zM365 644l-61 75l-61 -75h-149l133 166h154l130 -166h-146z" />
    <glyph glyph-name="Scommaaccent.sc" horiz-adv-x="625" 
d="M294 472q-33 0 -52 -12t-19 -34q0 -20 15.5 -31t49.5 -16q10 -2 25.5 -3.5t25.5 -2.5q117 -15 174 -57.5t57 -132.5q0 -89 -65 -141.5t-185 -52.5q-69 0 -123 17.5t-85.5 46.5t-49 58.5t-24.5 61.5h175q8 -21 35.5 -39t71.5 -18q80 0 80 52q0 25 -16.5 36t-53.5 17l-52 7
q-111 13 -167.5 58.5t-56.5 130.5t65.5 133t174.5 48q53 0 96.5 -11t71.5 -28t48.5 -40t31 -44t15.5 -44h-166q-27 41 -97 41zM381 -320h-105q32 60 45 113h-79v140h175v-104q0 -71 -36 -149z" />
    <glyph glyph-name="Tcaron.sc" horiz-adv-x="623" 
d="M39 444v142h546v-142h-191v-444h-164v444h-191zM524 810l-136 -166h-154l-135 166h148l64 -77l64 77h149z" />
    <glyph glyph-name="Tcommaaccent.sc" horiz-adv-x="623" 
d="M39 444v142h546v-142h-191v-444h-164v444h-191zM365 -320h-105q32 60 45 113h-79v140h175v-104q0 -71 -36 -149z" />
    <glyph glyph-name="uni021A.sc" horiz-adv-x="623" 
d="M39 444v142h546v-142h-191v-444h-164v444h-191zM365 -320h-105q32 60 45 113h-79v140h175v-104q0 -71 -36 -149z" />
    <glyph glyph-name="Tbar.sc" horiz-adv-x="623" 
d="M103 219v120h127v105h-191v142h546v-142h-191v-105h127v-120h-127v-219h-164v219h-127z" />
    <glyph glyph-name="Thorn.sc" horiz-adv-x="666" 
d="M405 107h-151v-107h-165v586h165v-95h152q101 0 156.5 -49t55.5 -143q0 -93 -55.5 -142.5t-157.5 -49.5zM380 355h-126v-112h126q68 0 68 56t-68 56z" />
    <glyph glyph-name="Uacute.sc" horiz-adv-x="708" 
d="M355 138q49 0 76.5 30.5t27.5 82.5v335h164v-345q0 -110 -70.5 -181t-197.5 -71q-130 0 -200 70t-70 182v345h166v-335q0 -52 27 -82.5t77 -30.5zM269 645l103 162h175l-111 -162h-167z" />
    <glyph glyph-name="Ubreve.sc" horiz-adv-x="708" 
d="M355 138q49 0 76.5 30.5t27.5 82.5v335h164v-345q0 -110 -70.5 -181t-197.5 -71q-130 0 -200 70t-70 182v345h166v-335q0 -52 27 -82.5t77 -30.5zM355 749q25 0 37.5 14.5t12.5 36.5v10h123v-13q0 -70 -44 -114.5t-129 -44.5t-129 44.5t-44 114.5v13h123v-10
q0 -22 12.5 -36.5t37.5 -14.5z" />
    <glyph glyph-name="Ucircumflex.sc" horiz-adv-x="708" 
d="M355 138q49 0 76.5 30.5t27.5 82.5v335h164v-345q0 -110 -70.5 -181t-197.5 -71q-130 0 -200 70t-70 182v345h166v-335q0 -52 27 -82.5t77 -30.5zM416 644l-61 75l-61 -75h-149l133 166h154l130 -166h-146z" />
    <glyph glyph-name="Udieresis.sc" horiz-adv-x="708" 
d="M355 138q49 0 76.5 30.5t27.5 82.5v335h164v-345q0 -110 -70.5 -181t-197.5 -71q-130 0 -200 70t-70 182v345h166v-335q0 -52 27 -82.5t77 -30.5zM159 645v158h160v-158h-160zM391 645v158h160v-158h-160z" />
    <glyph glyph-name="Ugrave.sc" horiz-adv-x="708" 
d="M355 138q49 0 76.5 30.5t27.5 82.5v335h164v-345q0 -110 -70.5 -181t-197.5 -71q-130 0 -200 70t-70 182v345h166v-335q0 -52 27 -82.5t77 -30.5zM447 645h-167l-111 162h175z" />
    <glyph glyph-name="Uhungarumlaut.sc" horiz-adv-x="708" 
d="M355 138q49 0 76.5 30.5t27.5 82.5v335h164v-345q0 -110 -70.5 -181t-197.5 -71q-130 0 -200 70t-70 182v345h166v-335q0 -52 27 -82.5t77 -30.5zM387 645l77 162h154l-83 -162h-148zM170 645l73 162h155l-80 -162h-148z" />
    <glyph glyph-name="Umacron.sc" horiz-adv-x="708" 
d="M355 138q49 0 76.5 30.5t27.5 82.5v335h164v-345q0 -110 -70.5 -181t-197.5 -71q-130 0 -200 70t-70 182v345h166v-335q0 -52 27 -82.5t77 -30.5zM531 665h-352v122h352v-122z" />
    <glyph glyph-name="Uogonek.sc" horiz-adv-x="708" 
d="M545 -91v-109h-143q-56 0 -88.5 22.5t-32.5 64.5q0 59 90 102h-16q-130 0 -200 70t-70 182v345h166v-335q0 -52 27 -82.5t77 -30.5q49 0 76.5 30.5t27.5 82.5v335h164v-345q0 -71 -26.5 -122t-75.5 -100q-35 -35 -49 -53t-14 -34q0 -23 29 -23h58z" />
    <glyph glyph-name="Uring.sc" horiz-adv-x="708" 
d="M355 138q49 0 76.5 30.5t27.5 82.5v335h164v-345q0 -110 -70.5 -181t-197.5 -71q-130 0 -200 70t-70 182v345h166v-335q0 -52 27 -82.5t77 -30.5zM355 635q-61 0 -100.5 39.5t-39.5 97.5q0 59 39.5 98t100.5 39t101 -39t40 -98q0 -58 -40 -97.5t-101 -39.5zM355 716
q24 0 39.5 15.5t15.5 40.5t-15 40.5t-40 15.5t-40 -15.5t-15 -40.5t15.5 -40.5t39.5 -15.5z" />
    <glyph glyph-name="Utilde.sc" horiz-adv-x="708" 
d="M355 138q49 0 76.5 30.5t27.5 82.5v335h164v-345q0 -110 -70.5 -181t-197.5 -71q-130 0 -200 70t-70 182v345h166v-335q0 -52 27 -82.5t77 -30.5zM360 675l-34 17q-17 10 -28 10q-14 0 -14 -20v-40h-113v87q0 45 23 71t67 26q33 0 89 -29l33 -17q19 -10 29 -10
q14 0 14 20v41h113v-88q0 -45 -23 -70.5t-67 -25.5q-36 0 -89 28z" />
    <glyph glyph-name="Wacute.sc" horiz-adv-x="884" 
d="M535 -1l-95 345l-95 -345h-153l-165 587h172l87 -349l92 350h141l93 -357l88 356h157l-158 -587h-164zM360 645l103 162h175l-111 -162h-167z" />
    <glyph glyph-name="Wcircumflex.sc" horiz-adv-x="884" 
d="M535 -1l-95 345l-95 -345h-153l-165 587h172l87 -349l92 350h141l93 -357l88 356h157l-158 -587h-164zM503 644l-61 75l-61 -75h-149l133 166h154l130 -166h-146z" />
    <glyph glyph-name="Wdieresis.sc" horiz-adv-x="884" 
d="M535 -1l-95 345l-95 -345h-153l-165 587h172l87 -349l92 350h141l93 -357l88 356h157l-158 -587h-164zM246 645v158h160v-158h-160zM478 645v158h160v-158h-160z" />
    <glyph glyph-name="Wgrave.sc" horiz-adv-x="884" 
d="M535 -1l-95 345l-95 -345h-153l-165 587h172l87 -349l92 350h141l93 -357l88 356h157l-158 -587h-164zM527 645h-167l-111 162h175z" />
    <glyph glyph-name="Yacute.sc" horiz-adv-x="630" 
d="M408 230v-230h-175v235l-226 351h199l120 -195l120 195h177zM231 645l103 162h175l-111 -162h-167z" />
    <glyph glyph-name="Ycircumflex.sc" horiz-adv-x="630" 
d="M408 230v-230h-175v235l-226 351h199l120 -195l120 195h177zM387 644l-61 75l-61 -75h-149l133 166h154l130 -166h-146z" />
    <glyph glyph-name="Ydieresis.sc" horiz-adv-x="630" 
d="M408 230v-230h-175v235l-226 351h199l120 -195l120 195h177zM130 645v158h160v-158h-160zM362 645v158h160v-158h-160z" />
    <glyph glyph-name="Ygrave.sc" horiz-adv-x="630" 
d="M408 230v-230h-175v235l-226 351h199l120 -195l120 195h177zM414 645h-167l-111 162h175z" />
    <glyph glyph-name="Zacute.sc" horiz-adv-x="641" 
d="M599 141v-141h-546v94l277 353h-269v139h509v-91l-278 -354h307zM230 645l103 162h175l-111 -162h-167z" />
    <glyph glyph-name="Zcaron.sc" horiz-adv-x="641" 
d="M599 141v-141h-546v94l277 353h-269v139h509v-91l-278 -354h307zM528 810l-136 -166h-154l-135 166h148l64 -77l64 77h149z" />
    <glyph glyph-name="Zdotaccent.sc" horiz-adv-x="641" 
d="M599 141v-141h-546v94l277 353h-269v139h509v-91l-278 -354h307zM230 645v159h170v-159h-170z" />
    <glyph glyph-name="germandbls.sc" horiz-adv-x="1250" 
d="M294 472q-33 0 -52 -12t-19 -34q0 -20 15.5 -31t49.5 -16q10 -2 25.5 -3.5t25.5 -2.5q117 -15 174 -57.5t57 -132.5q0 -89 -65 -141.5t-185 -52.5q-69 0 -123 17.5t-85.5 46.5t-49 58.5t-24.5 61.5h175q8 -21 35.5 -39t71.5 -18q80 0 80 52q0 25 -16.5 36t-53.5 17l-52 7
q-111 13 -167.5 58.5t-56.5 130.5t65.5 133t174.5 48q53 0 96.5 -11t71.5 -28t48.5 -40t31 -44t15.5 -44h-166q-27 41 -97 41zM919 472q-33 0 -52 -12t-19 -34q0 -20 15.5 -31t49.5 -16q10 -2 25.5 -3.5t25.5 -2.5q117 -15 174 -57.5t57 -132.5q0 -89 -65 -141.5t-185 -52.5
q-69 0 -123 17.5t-85.5 46.5t-49 58.5t-24.5 61.5h175q8 -21 35.5 -39t71.5 -18q80 0 80 52q0 25 -16.5 36t-53.5 17l-52 7q-111 13 -167.5 58.5t-56.5 130.5t65.5 133t174.5 48q53 0 96.5 -11t71.5 -28t48.5 -40t31 -44t15.5 -44h-166q-27 41 -97 41z" />
    <glyph glyph-name="napostrophe.sc" horiz-adv-x="983" 
d="M894 586v-589h-136l-248 360v-357h-159v586h182l206 -307v307h155zM175 369h-111q62 106 68 189h-86v178h183v-155q0 -120 -54 -212z" />
    <glyph glyph-name="f.short" horiz-adv-x="488" 
d="M463 385h-153v-385h-162v385h-122v133h122v70q0 70 40.5 109t120.5 39h178v-122h-111q-36 0 -51 -15t-15 -49v-32h153v-133z" />
    <glyph glyph-name="f_f.short" horiz-adv-x="874" 
d="M531 0v385h-212v-385h-162v385h-121v133h121v70q0 70 40.5 109t120.5 39h158v-122h-91q-35 0 -50.5 -15t-15.5 -49v-32h212v70q0 70 40.5 109t120.5 39h178v-122h-111q-36 0 -51.5 -15.5t-15.5 -48.5v-32h153v-133h-153v-385h-161z" />
    <glyph glyph-name="four.denalt" horiz-adv-x="521" 
d="M491 116h-84v-116h-130v116h-215v327h130v-218h85v166h130v-166h84v-109z" />
    <glyph glyph-name="four.numalt" horiz-adv-x="521" 
d="M491 382h-84v-115h-130v115h-215v328h130v-218h85v165h130v-165h84v-110z" />
    <glyph glyph-name="four.oldalt" horiz-adv-x="705" 
d="M672 78h-124v-202h-166v202h-299v508h166v-360h133v273h166v-273h124v-148z" />
    <glyph glyph-name="four.subalt" horiz-adv-x="577" 
d="M543 -1h-98v-135h-137v135h-242v371h137v-253h105v193h137v-193h98v-118z" />
    <glyph glyph-name="four.supalt" horiz-adv-x="577" 
d="M543 365h-98v-135h-137v135h-242v371h137v-253h105v193h137v-193h98v-118z" />
    <glyph glyph-name="four.tabalt" horiz-adv-x="650" 
d="M617 197h-98v-197h-161v197h-292v513h160v-369h132v275h161v-275h98v-144z" />
    <glyph glyph-name="j.short" horiz-adv-x="304" 
d="M68 585v160h169v-160h-169zM234 518v-548q0 -89 -40 -129.5t-122 -40.5h-125v125h55q38 0 53.5 15.5t15.5 51.5v526h163z" />
    <glyph glyph-name="ringacute" 
d="M225 879l89 159h162l-96 -159h-155zM300 572q-60 0 -99.5 39t-39.5 97q0 59 39.5 98t99.5 39q61 0 100.5 -39t39.5 -98q0 -58 -40 -97t-100 -39zM300 652q24 0 39.5 16t15.5 40q0 25 -15.5 40.5t-39.5 15.5t-39.5 -15.5t-15.5 -40.5q0 -24 15.5 -40t39.5 -16z" />
    <glyph glyph-name="ringacute.uc" 
d="M222 1067l98 147h172l-106 -147h-164zM300 759q-61 0 -100.5 39.5t-39.5 97.5q0 59 39.5 98t100.5 39t101 -39t40 -98q0 -58 -40 -97.5t-101 -39.5zM300 839q24 0 39.5 16t15.5 41t-15 40.5t-40 15.5t-40 -15.5t-15 -40.5t15.5 -41t39.5 -16z" />
    <glyph glyph-name="uni01FA.sc" horiz-adv-x="665" 
d="M472 0l-30 88h-231l-30 -88h-159l212 587h196l213 -587h-171zM256 218h142l-71 208zM248 943l98 147h172l-106 -147h-164zM326 635q-61 0 -100.5 39.5t-39.5 97.5q0 59 39.5 98t100.5 39t101 -39t40 -98q0 -58 -40 -97.5t-101 -39.5zM326 715q24 0 39.5 16t15.5 41
t-15 40.5t-40 15.5t-40 -15.5t-15 -40.5t15.5 -41t39.5 -16z" />
    </font>
</defs>
</svg>
